<svg width="139" height="20" viewBox="0 0 139 20" fill="none" xmlns="http://www.w3.org/2000/svg">
<rect width="20" height="20" fill="#C4C4C4"/>
<path d="M8.5 8H7V10H8.5V16H11V10H12.821L13 8H11V7.1665C11 6.689 11.096 6.5 11.5575 6.5H13V4H11.096C9.298 4 8.5 4.7915 8.5 6.3075V8Z" fill="black"/>
<path d="M28.394 14H27.204C27.008 14 26.91 13.902 26.91 13.706V5.292C26.91 5.096 27.008 4.998 27.204 4.998H28.394C28.59 4.998 28.688 5.096 28.688 5.292V8.582C28.688 8.68467 28.744 8.736 28.856 8.736H31.222C31.3247 8.736 31.376 8.68467 31.376 8.582V5.292C31.376 5.096 31.474 4.998 31.67 4.998H32.86C33.056 4.998 33.154 5.096 33.154 5.292V13.706C33.154 13.902 33.056 14 32.86 14H31.67C31.474 14 31.376 13.902 31.376 13.706V10.43C31.376 10.3273 31.3247 10.276 31.222 10.276H28.856C28.744 10.276 28.688 10.3273 28.688 10.43V13.706C28.688 13.902 28.59 14 28.394 14ZM37.4264 12.46H38.4204C38.7191 12.46 38.9291 12.3993 39.0504 12.278C39.1811 12.1473 39.2464 11.9327 39.2464 11.634V7.364C39.2464 7.06533 39.1811 6.85533 39.0504 6.734C38.9291 6.60333 38.7191 6.538 38.4204 6.538H37.4264C37.1277 6.538 36.9177 6.60333 36.7964 6.734C36.6751 6.85533 36.6144 7.06533 36.6144 7.364V11.634C36.6144 11.9327 36.6751 12.1473 36.7964 12.278C36.9177 12.3993 37.1277 12.46 37.4264 12.46ZM38.7144 14H37.1464C36.4091 14 35.8397 13.804 35.4384 13.412C35.0371 13.02 34.8364 12.4553 34.8364 11.718V7.28C34.8364 6.54267 35.0371 5.978 35.4384 5.586C35.8397 5.194 36.4091 4.998 37.1464 4.998H38.7144C39.4517 4.998 40.0211 5.194 40.4224 5.586C40.8237 5.978 41.0244 6.54267 41.0244 7.28V11.718C41.0244 12.4553 40.8237 13.02 40.4224 13.412C40.0211 13.804 39.4517 14 38.7144 14ZM48.679 4.998H50.751C50.947 4.998 51.045 5.096 51.045 5.292V13.706C51.045 13.902 50.947 14 50.751 14H49.603C49.407 14 49.309 13.902 49.309 13.706V7.07H49.253L47.825 11.76C47.769 11.9467 47.6523 12.04 47.475 12.04H46.299C46.1217 12.04 46.005 11.9467 45.949 11.76L44.493 7.056H44.437V13.706C44.437 13.818 44.4183 13.8973 44.381 13.944C44.3437 13.9813 44.2643 14 44.143 14H42.995C42.799 14 42.701 13.902 42.701 13.706V5.292C42.701 5.096 42.799 4.998 42.995 4.998H45.081C45.2117 4.998 45.3003 5.06333 45.347 5.194L46.831 10.136H46.915L48.413 5.194C48.441 5.06333 48.5297 4.998 48.679 4.998ZM57.7312 14H53.1532C52.9572 14 52.8592 13.902 52.8592 13.706V5.292C52.8592 5.096 52.9572 4.998 53.1532 4.998H57.7312C57.9179 4.998 58.0112 5.096 58.0112 5.292V6.244C58.0112 6.44 57.9179 6.538 57.7312 6.538H54.8052C54.6932 6.538 54.6372 6.58933 54.6372 6.692V8.512C54.6372 8.61467 54.6932 8.666 54.8052 8.666H57.1992C57.3952 8.666 57.4932 8.764 57.4932 8.96V9.912C57.4932 10.108 57.3952 10.206 57.1992 10.206H54.8052C54.6932 10.206 54.6372 10.2573 54.6372 10.36V12.306C54.6372 12.4087 54.6932 12.46 54.8052 12.46H57.7312C57.9179 12.46 58.0112 12.558 58.0112 12.754V13.706C58.0112 13.902 57.9179 14 57.7312 14ZM62.1344 12.46H63.1284C63.4271 12.46 63.6371 12.3993 63.7584 12.278C63.8891 12.1473 63.9544 11.9327 63.9544 11.634V7.364C63.9544 7.06533 63.8891 6.85533 63.7584 6.734C63.6371 6.60333 63.4271 6.538 63.1284 6.538H62.1344C61.8358 6.538 61.6258 6.60333 61.5044 6.734C61.3831 6.85533 61.3224 7.06533 61.3224 7.364V11.634C61.3224 11.9327 61.3831 12.1473 61.5044 12.278C61.6258 12.3993 61.8358 12.46 62.1344 12.46ZM64.6964 15.862H63.6744C63.4224 15.862 63.2404 15.764 63.1284 15.568L62.2184 14H61.8404C61.1031 14 60.5338 13.804 60.1324 13.412C59.7311 13.02 59.5304 12.4553 59.5304 11.718V7.28C59.5304 6.54267 59.7311 5.978 60.1324 5.586C60.5338 5.194 61.1031 4.998 61.8404 4.998H63.4084C64.1458 4.998 64.7151 5.194 65.1164 5.586C65.5178 5.978 65.7184 6.54267 65.7184 7.28V11.718C65.7184 12.334 65.5691 12.8333 65.2704 13.216C64.9811 13.5987 64.5658 13.8413 64.0244 13.944L64.9204 15.498C64.9671 15.61 64.9671 15.6987 64.9204 15.764C64.8738 15.8293 64.7991 15.862 64.6964 15.862ZM72.1351 4.998H73.3111C73.5165 4.998 73.6191 5.09133 73.6191 5.278V11.718C73.6191 12.446 73.4138 13.0107 73.0031 13.412C72.6018 13.804 72.0371 14 71.3091 14H69.7691C69.0318 14 68.4625 13.804 68.0611 13.412C67.6598 13.02 67.4591 12.4553 67.4591 11.718V5.292C67.4591 5.096 67.5571 4.998 67.7531 4.998H68.9431C69.1391 4.998 69.2371 5.096 69.2371 5.292V11.634C69.2371 11.9327 69.2978 12.1473 69.4191 12.278C69.5498 12.3993 69.7598 12.46 70.0491 12.46H71.0151C71.3138 12.46 71.5238 12.3993 71.6451 12.278C71.7758 12.1473 71.8411 11.9327 71.8411 11.634V5.292C71.8411 5.096 71.9391 4.998 72.1351 4.998ZM77.2951 12.516H78.8631C79.1711 12.516 79.3905 12.4553 79.5211 12.334C79.6611 12.2033 79.7311 11.9933 79.7311 11.704V10.892C79.7311 10.6027 79.6611 10.3973 79.5211 10.276C79.3811 10.1547 79.1525 10.094 78.8351 10.094H77.2951C77.1925 10.094 77.1411 10.1453 77.1411 10.248V12.362C77.1411 12.4647 77.1925 12.516 77.2951 12.516ZM77.2951 8.652H78.7231C79.0218 8.652 79.2411 8.59133 79.3811 8.47C79.5211 8.33933 79.5911 8.12933 79.5911 7.84V7.294C79.5911 7.00467 79.5211 6.79933 79.3811 6.678C79.2505 6.54733 79.0358 6.482 78.7371 6.482H77.2951C77.1925 6.482 77.1411 6.53333 77.1411 6.636V8.498C77.1411 8.60067 77.1925 8.652 77.2951 8.652ZM75.3631 13.706V5.292C75.3631 5.096 75.4611 4.998 75.6571 4.998H79.0171C79.7545 4.998 80.3238 5.194 80.7251 5.586C81.1265 5.978 81.3271 6.538 81.3271 7.266V7.84C81.3271 8.63333 80.9585 9.14667 80.2211 9.38C80.5945 9.436 80.8931 9.59 81.1171 9.842C81.3411 10.0847 81.4531 10.4347 81.4531 10.892V11.732C81.4531 12.46 81.2525 13.02 80.8511 13.412C80.4498 13.804 79.8851 14 79.1571 14H75.6571C75.4611 14 75.3631 13.902 75.3631 13.706ZM88.0008 14H83.4228C83.2268 14 83.1288 13.902 83.1288 13.706V5.292C83.1288 5.096 83.2268 4.998 83.4228 4.998H88.0008C88.1874 4.998 88.2808 5.096 88.2808 5.292V6.244C88.2808 6.44 88.1874 6.538 88.0008 6.538H85.0748C84.9628 6.538 84.9068 6.58933 84.9068 6.692V8.512C84.9068 8.61467 84.9628 8.666 85.0748 8.666H87.4688C87.6648 8.666 87.7628 8.764 87.7628 8.96V9.912C87.7628 10.108 87.6648 10.206 87.4688 10.206H85.0748C84.9628 10.206 84.9068 10.2573 84.9068 10.36V12.306C84.9068 12.4087 84.9628 12.46 85.0748 12.46H88.0008C88.1874 12.46 88.2808 12.558 88.2808 12.754V13.706C88.2808 13.902 88.1874 14 88.0008 14ZM94.3881 14H93.1981C93.0021 14 92.9041 13.902 92.9041 13.706V5.292C92.9041 5.096 93.0021 4.998 93.1981 4.998H96.6141C97.3421 4.998 97.9068 5.19867 98.3081 5.6C98.7095 5.992 98.9101 6.552 98.9101 7.28V8.624C98.9101 9.352 98.7095 9.91667 98.3081 10.318C97.9068 10.71 97.3421 10.906 96.6141 10.906H94.8501C94.7381 10.906 94.6821 10.9573 94.6821 11.06V13.706C94.6821 13.902 94.5841 14 94.3881 14ZM94.8361 9.352H96.3201C96.6188 9.352 96.8288 9.29133 96.9501 9.17C97.0715 9.03933 97.1321 8.82933 97.1321 8.54V7.364C97.1321 7.06533 97.0715 6.85533 96.9501 6.734C96.8288 6.60333 96.6188 6.538 96.3201 6.538H94.8361C94.7335 6.538 94.6821 6.58933 94.6821 6.692V9.198C94.6821 9.30067 94.7335 9.352 94.8361 9.352ZM100.342 8.4H99.782C99.67 8.4 99.5906 8.38133 99.544 8.344C99.5066 8.30667 99.488 8.232 99.488 8.12V7.154C99.488 6.958 99.586 6.86 99.782 6.86H100.342C100.445 6.86 100.496 6.80867 100.496 6.706V5.376C100.496 5.18 100.599 5.082 100.804 5.082H101.98C102.176 5.082 102.274 5.18 102.274 5.376V6.706C102.274 6.80867 102.33 6.86 102.442 6.86H103.534C103.73 6.86 103.828 6.958 103.828 7.154V8.12C103.828 8.22267 103.805 8.29733 103.758 8.344C103.721 8.38133 103.646 8.4 103.534 8.4H102.442C102.33 8.4 102.274 8.45133 102.274 8.554V11.648C102.274 11.9373 102.339 12.1473 102.47 12.278C102.601 12.3993 102.815 12.46 103.114 12.46H103.674C103.87 12.46 103.968 12.558 103.968 12.754V13.72C103.968 13.8227 103.945 13.8973 103.898 13.944C103.861 13.9813 103.786 14 103.674 14H102.82C102.083 14 101.509 13.804 101.098 13.412C100.697 13.02 100.496 12.46 100.496 11.732V8.554C100.496 8.45133 100.445 8.4 100.342 8.4ZM110.388 14H107.294C106.556 14 105.987 13.804 105.586 13.412C105.184 13.02 104.984 12.4553 104.984 11.718V9.142C104.984 8.40467 105.184 7.84 105.586 7.448C105.987 7.056 106.556 6.86 107.294 6.86H108.4C109.137 6.86 109.706 7.056 110.108 7.448C110.509 7.84 110.71 8.40467 110.71 9.142V10.92C110.71 11.116 110.612 11.214 110.416 11.214H106.902C106.79 11.214 106.734 11.2653 106.734 11.368V11.676C106.734 11.9653 106.794 12.1753 106.916 12.306C107.046 12.4273 107.261 12.488 107.56 12.488H110.388C110.584 12.488 110.682 12.5907 110.682 12.796V13.72C110.682 13.8227 110.658 13.8973 110.612 13.944C110.574 13.9813 110.5 14 110.388 14ZM106.902 10.024H108.806C108.908 10.024 108.96 9.97267 108.96 9.87V9.198C108.96 8.89933 108.899 8.68933 108.778 8.568C108.656 8.44667 108.446 8.386 108.148 8.386H107.56C107.261 8.386 107.051 8.44667 106.93 8.568C106.808 8.68933 106.748 8.89933 106.748 9.198V9.87C106.748 9.97267 106.799 10.024 106.902 10.024ZM113.595 11.984V13.706C113.595 13.902 113.507 14 113.329 14H112.083C111.897 14 111.803 13.902 111.803 13.706V11.998C111.803 11.8113 111.897 11.718 112.083 11.718H113.329C113.507 11.718 113.595 11.8067 113.595 11.984ZM123.015 14H118.409C118.213 14 118.115 13.902 118.115 13.706V5.292C118.115 5.096 118.213 4.998 118.409 4.998H119.599C119.795 4.998 119.893 5.096 119.893 5.292V12.292C119.893 12.3947 119.949 12.446 120.061 12.446H123.015C123.202 12.446 123.295 12.5487 123.295 12.754V13.706C123.295 13.902 123.202 14 123.015 14ZM124.418 8.4H123.858C123.746 8.4 123.667 8.38133 123.62 8.344C123.583 8.30667 123.564 8.232 123.564 8.12V7.154C123.564 6.958 123.662 6.86 123.858 6.86H124.418C124.521 6.86 124.572 6.80867 124.572 6.706V5.376C124.572 5.18 124.675 5.082 124.88 5.082H126.056C126.252 5.082 126.35 5.18 126.35 5.376V6.706C126.35 6.80867 126.406 6.86 126.518 6.86H127.61C127.806 6.86 127.904 6.958 127.904 7.154V8.12C127.904 8.22267 127.881 8.29733 127.834 8.344C127.797 8.38133 127.722 8.4 127.61 8.4H126.518C126.406 8.4 126.35 8.45133 126.35 8.554V11.648C126.35 11.9373 126.415 12.1473 126.546 12.278C126.677 12.3993 126.891 12.46 127.19 12.46H127.75C127.946 12.46 128.044 12.558 128.044 12.754V13.72C128.044 13.8227 128.021 13.8973 127.974 13.944C127.937 13.9813 127.862 14 127.75 14H126.896C126.159 14 125.585 13.804 125.174 13.412C124.773 13.02 124.572 12.46 124.572 11.732V8.554C124.572 8.45133 124.521 8.4 124.418 8.4ZM131.818 14H131.244C130.525 14 129.979 13.804 129.606 13.412C129.242 13.02 129.06 12.4553 129.06 11.718V9.142C129.06 8.40467 129.242 7.84 129.606 7.448C129.979 7.056 130.525 6.86 131.244 6.86H131.818C132.107 6.86 132.382 6.92533 132.644 7.056C132.905 7.17733 133.087 7.364 133.19 7.616H133.246V4.452C133.246 4.256 133.344 4.158 133.54 4.158H134.73C134.926 4.158 135.024 4.256 135.024 4.452V13.706C135.024 13.902 134.926 14 134.73 14H133.54C133.344 14 133.246 13.902 133.246 13.706V13.244H133.19C133.087 13.496 132.905 13.6873 132.644 13.818C132.382 13.9393 132.107 14 131.818 14ZM133.246 11.396V9.464C133.246 8.75467 132.924 8.4 132.28 8.4H131.65C131.351 8.4 131.141 8.46533 131.02 8.596C130.898 8.71733 130.838 8.92733 130.838 9.226V11.634C130.838 11.9327 130.898 12.1473 131.02 12.278C131.141 12.3993 131.351 12.46 131.65 12.46H132.28C132.924 12.46 133.246 12.1053 133.246 11.396ZM138.123 11.984V13.706C138.123 13.902 138.034 14 137.857 14H136.611C136.424 14 136.331 13.902 136.331 13.706V11.998C136.331 11.8113 136.424 11.718 136.611 11.718H137.857C138.034 11.718 138.123 11.8067 138.123 11.984Z" fill="white"/>
</svg>
