<svg width="155" height="20" viewBox="0 0 155 20" fill="none" xmlns="http://www.w3.org/2000/svg">
<rect width="20" height="20" fill="#C4C4C4"/>
<path d="M6.49 5.75C6.49 6.4405 5.935 7 5.25 7C4.565 7 4.01 6.4405 4.01 5.75C4.01 5.06 4.565 4.5 5.25 4.5C5.935 4.5 6.49 5.06 6.49 5.75ZM6.5 8H4V16H6.5V8ZM10.491 8H8.007V16H10.4915V11.8005C10.4915 9.4655 13.506 9.2745 13.506 11.8005V16H16V10.9345C16 6.9945 11.539 7.138 10.491 9.0775V8Z" fill="black"/>
<path d="M28.394 14H27.204C27.008 14 26.91 13.902 26.91 13.706V5.292C26.91 5.096 27.008 4.998 27.204 4.998H28.394C28.59 4.998 28.688 5.096 28.688 5.292V8.582C28.688 8.68467 28.744 8.736 28.856 8.736H31.222C31.3247 8.736 31.376 8.68467 31.376 8.582V5.292C31.376 5.096 31.474 4.998 31.67 4.998H32.86C33.056 4.998 33.154 5.096 33.154 5.292V13.706C33.154 13.902 33.056 14 32.86 14H31.67C31.474 14 31.376 13.902 31.376 13.706V10.43C31.376 10.3273 31.3247 10.276 31.222 10.276H28.856C28.744 10.276 28.688 10.3273 28.688 10.43V13.706C28.688 13.902 28.59 14 28.394 14ZM37.4264 12.46H38.4204C38.7191 12.46 38.9291 12.3993 39.0504 12.278C39.1811 12.1473 39.2464 11.9327 39.2464 11.634V7.364C39.2464 7.06533 39.1811 6.85533 39.0504 6.734C38.9291 6.60333 38.7191 6.538 38.4204 6.538H37.4264C37.1277 6.538 36.9177 6.60333 36.7964 6.734C36.6751 6.85533 36.6144 7.06533 36.6144 7.364V11.634C36.6144 11.9327 36.6751 12.1473 36.7964 12.278C36.9177 12.3993 37.1277 12.46 37.4264 12.46ZM38.7144 14H37.1464C36.4091 14 35.8397 13.804 35.4384 13.412C35.0371 13.02 34.8364 12.4553 34.8364 11.718V7.28C34.8364 6.54267 35.0371 5.978 35.4384 5.586C35.8397 5.194 36.4091 4.998 37.1464 4.998H38.7144C39.4517 4.998 40.0211 5.194 40.4224 5.586C40.8237 5.978 41.0244 6.54267 41.0244 7.28V11.718C41.0244 12.4553 40.8237 13.02 40.4224 13.412C40.0211 13.804 39.4517 14 38.7144 14ZM48.679 4.998H50.751C50.947 4.998 51.045 5.096 51.045 5.292V13.706C51.045 13.902 50.947 14 50.751 14H49.603C49.407 14 49.309 13.902 49.309 13.706V7.07H49.253L47.825 11.76C47.769 11.9467 47.6523 12.04 47.475 12.04H46.299C46.1217 12.04 46.005 11.9467 45.949 11.76L44.493 7.056H44.437V13.706C44.437 13.818 44.4183 13.8973 44.381 13.944C44.3437 13.9813 44.2643 14 44.143 14H42.995C42.799 14 42.701 13.902 42.701 13.706V5.292C42.701 5.096 42.799 4.998 42.995 4.998H45.081C45.2117 4.998 45.3003 5.06333 45.347 5.194L46.831 10.136H46.915L48.413 5.194C48.441 5.06333 48.5297 4.998 48.679 4.998ZM57.7312 14H53.1532C52.9572 14 52.8592 13.902 52.8592 13.706V5.292C52.8592 5.096 52.9572 4.998 53.1532 4.998H57.7312C57.9179 4.998 58.0112 5.096 58.0112 5.292V6.244C58.0112 6.44 57.9179 6.538 57.7312 6.538H54.8052C54.6932 6.538 54.6372 6.58933 54.6372 6.692V8.512C54.6372 8.61467 54.6932 8.666 54.8052 8.666H57.1992C57.3952 8.666 57.4932 8.764 57.4932 8.96V9.912C57.4932 10.108 57.3952 10.206 57.1992 10.206H54.8052C54.6932 10.206 54.6372 10.2573 54.6372 10.36V12.306C54.6372 12.4087 54.6932 12.46 54.8052 12.46H57.7312C57.9179 12.46 58.0112 12.558 58.0112 12.754V13.706C58.0112 13.902 57.9179 14 57.7312 14ZM62.1344 12.46H63.1284C63.4271 12.46 63.6371 12.3993 63.7584 12.278C63.8891 12.1473 63.9544 11.9327 63.9544 11.634V7.364C63.9544 7.06533 63.8891 6.85533 63.7584 6.734C63.6371 6.60333 63.4271 6.538 63.1284 6.538H62.1344C61.8358 6.538 61.6258 6.60333 61.5044 6.734C61.3831 6.85533 61.3224 7.06533 61.3224 7.364V11.634C61.3224 11.9327 61.3831 12.1473 61.5044 12.278C61.6258 12.3993 61.8358 12.46 62.1344 12.46ZM64.6964 15.862H63.6744C63.4224 15.862 63.2404 15.764 63.1284 15.568L62.2184 14H61.8404C61.1031 14 60.5338 13.804 60.1324 13.412C59.7311 13.02 59.5304 12.4553 59.5304 11.718V7.28C59.5304 6.54267 59.7311 5.978 60.1324 5.586C60.5338 5.194 61.1031 4.998 61.8404 4.998H63.4084C64.1458 4.998 64.7151 5.194 65.1164 5.586C65.5178 5.978 65.7184 6.54267 65.7184 7.28V11.718C65.7184 12.334 65.5691 12.8333 65.2704 13.216C64.9811 13.5987 64.5658 13.8413 64.0244 13.944L64.9204 15.498C64.9671 15.61 64.9671 15.6987 64.9204 15.764C64.8738 15.8293 64.7991 15.862 64.6964 15.862ZM72.1351 4.998H73.3111C73.5165 4.998 73.6191 5.09133 73.6191 5.278V11.718C73.6191 12.446 73.4138 13.0107 73.0031 13.412C72.6018 13.804 72.0371 14 71.3091 14H69.7691C69.0318 14 68.4625 13.804 68.0611 13.412C67.6598 13.02 67.4591 12.4553 67.4591 11.718V5.292C67.4591 5.096 67.5571 4.998 67.7531 4.998H68.9431C69.1391 4.998 69.2371 5.096 69.2371 5.292V11.634C69.2371 11.9327 69.2978 12.1473 69.4191 12.278C69.5498 12.3993 69.7598 12.46 70.0491 12.46H71.0151C71.3138 12.46 71.5238 12.3993 71.6451 12.278C71.7758 12.1473 71.8411 11.9327 71.8411 11.634V5.292C71.8411 5.096 71.9391 4.998 72.1351 4.998ZM77.2951 12.516H78.8631C79.1711 12.516 79.3905 12.4553 79.5211 12.334C79.6611 12.2033 79.7311 11.9933 79.7311 11.704V10.892C79.7311 10.6027 79.6611 10.3973 79.5211 10.276C79.3811 10.1547 79.1525 10.094 78.8351 10.094H77.2951C77.1925 10.094 77.1411 10.1453 77.1411 10.248V12.362C77.1411 12.4647 77.1925 12.516 77.2951 12.516ZM77.2951 8.652H78.7231C79.0218 8.652 79.2411 8.59133 79.3811 8.47C79.5211 8.33933 79.5911 8.12933 79.5911 7.84V7.294C79.5911 7.00467 79.5211 6.79933 79.3811 6.678C79.2505 6.54733 79.0358 6.482 78.7371 6.482H77.2951C77.1925 6.482 77.1411 6.53333 77.1411 6.636V8.498C77.1411 8.60067 77.1925 8.652 77.2951 8.652ZM75.3631 13.706V5.292C75.3631 5.096 75.4611 4.998 75.6571 4.998H79.0171C79.7545 4.998 80.3238 5.194 80.7251 5.586C81.1265 5.978 81.3271 6.538 81.3271 7.266V7.84C81.3271 8.63333 80.9585 9.14667 80.2211 9.38C80.5945 9.436 80.8931 9.59 81.1171 9.842C81.3411 10.0847 81.4531 10.4347 81.4531 10.892V11.732C81.4531 12.46 81.2525 13.02 80.8511 13.412C80.4498 13.804 79.8851 14 79.1571 14H75.6571C75.4611 14 75.3631 13.902 75.3631 13.706ZM88.0008 14H83.4228C83.2268 14 83.1288 13.902 83.1288 13.706V5.292C83.1288 5.096 83.2268 4.998 83.4228 4.998H88.0008C88.1874 4.998 88.2808 5.096 88.2808 5.292V6.244C88.2808 6.44 88.1874 6.538 88.0008 6.538H85.0748C84.9628 6.538 84.9068 6.58933 84.9068 6.692V8.512C84.9068 8.61467 84.9628 8.666 85.0748 8.666H87.4688C87.6648 8.666 87.7628 8.764 87.7628 8.96V9.912C87.7628 10.108 87.6648 10.206 87.4688 10.206H85.0748C84.9628 10.206 84.9068 10.2573 84.9068 10.36V12.306C84.9068 12.4087 84.9628 12.46 85.0748 12.46H88.0008C88.1874 12.46 88.2808 12.558 88.2808 12.754V13.706C88.2808 13.902 88.1874 14 88.0008 14ZM94.3881 14H93.1981C93.0021 14 92.9041 13.902 92.9041 13.706V5.292C92.9041 5.096 93.0021 4.998 93.1981 4.998H96.6141C97.3421 4.998 97.9068 5.19867 98.3081 5.6C98.7095 5.992 98.9101 6.552 98.9101 7.28V8.624C98.9101 9.352 98.7095 9.91667 98.3081 10.318C97.9068 10.71 97.3421 10.906 96.6141 10.906H94.8501C94.7381 10.906 94.6821 10.9573 94.6821 11.06V13.706C94.6821 13.902 94.5841 14 94.3881 14ZM94.8361 9.352H96.3201C96.6188 9.352 96.8288 9.29133 96.9501 9.17C97.0715 9.03933 97.1321 8.82933 97.1321 8.54V7.364C97.1321 7.06533 97.0715 6.85533 96.9501 6.734C96.8288 6.60333 96.6188 6.538 96.3201 6.538H94.8361C94.7335 6.538 94.6821 6.58933 94.6821 6.692V9.198C94.6821 9.30067 94.7335 9.352 94.8361 9.352ZM100.342 8.4H99.782C99.67 8.4 99.5906 8.38133 99.544 8.344C99.5066 8.30667 99.488 8.232 99.488 8.12V7.154C99.488 6.958 99.586 6.86 99.782 6.86H100.342C100.445 6.86 100.496 6.80867 100.496 6.706V5.376C100.496 5.18 100.599 5.082 100.804 5.082H101.98C102.176 5.082 102.274 5.18 102.274 5.376V6.706C102.274 6.80867 102.33 6.86 102.442 6.86H103.534C103.73 6.86 103.828 6.958 103.828 7.154V8.12C103.828 8.22267 103.805 8.29733 103.758 8.344C103.721 8.38133 103.646 8.4 103.534 8.4H102.442C102.33 8.4 102.274 8.45133 102.274 8.554V11.648C102.274 11.9373 102.339 12.1473 102.47 12.278C102.601 12.3993 102.815 12.46 103.114 12.46H103.674C103.87 12.46 103.968 12.558 103.968 12.754V13.72C103.968 13.8227 103.945 13.8973 103.898 13.944C103.861 13.9813 103.786 14 103.674 14H102.82C102.083 14 101.509 13.804 101.098 13.412C100.697 13.02 100.496 12.46 100.496 11.732V8.554C100.496 8.45133 100.445 8.4 100.342 8.4ZM110.388 14H107.294C106.556 14 105.987 13.804 105.586 13.412C105.184 13.02 104.984 12.4553 104.984 11.718V9.142C104.984 8.40467 105.184 7.84 105.586 7.448C105.987 7.056 106.556 6.86 107.294 6.86H108.4C109.137 6.86 109.706 7.056 110.108 7.448C110.509 7.84 110.71 8.40467 110.71 9.142V10.92C110.71 11.116 110.612 11.214 110.416 11.214H106.902C106.79 11.214 106.734 11.2653 106.734 11.368V11.676C106.734 11.9653 106.794 12.1753 106.916 12.306C107.046 12.4273 107.261 12.488 107.56 12.488H110.388C110.584 12.488 110.682 12.5907 110.682 12.796V13.72C110.682 13.8227 110.658 13.8973 110.612 13.944C110.574 13.9813 110.5 14 110.388 14ZM106.902 10.024H108.806C108.908 10.024 108.96 9.97267 108.96 9.87V9.198C108.96 8.89933 108.899 8.68933 108.778 8.568C108.656 8.44667 108.446 8.386 108.148 8.386H107.56C107.261 8.386 107.051 8.44667 106.93 8.568C106.808 8.68933 106.748 8.89933 106.748 9.198V9.87C106.748 9.97267 106.799 10.024 106.902 10.024ZM120.158 14H115.552C115.356 14 115.258 13.902 115.258 13.706V5.292C115.258 5.096 115.356 4.998 115.552 4.998H116.742C116.938 4.998 117.036 5.096 117.036 5.292V12.292C117.036 12.3947 117.092 12.446 117.204 12.446H120.158C120.344 12.446 120.438 12.5487 120.438 12.754V13.706C120.438 13.902 120.344 14 120.158 14ZM121.561 8.4H121.001C120.889 8.4 120.809 8.38133 120.763 8.344C120.725 8.30667 120.707 8.232 120.707 8.12V7.154C120.707 6.958 120.805 6.86 121.001 6.86H121.561C121.663 6.86 121.715 6.80867 121.715 6.706V5.376C121.715 5.18 121.817 5.082 122.023 5.082H123.199C123.395 5.082 123.493 5.18 123.493 5.376V6.706C123.493 6.80867 123.549 6.86 123.661 6.86H124.753C124.949 6.86 125.047 6.958 125.047 7.154V8.12C125.047 8.22267 125.023 8.29733 124.977 8.344C124.939 8.38133 124.865 8.4 124.753 8.4H123.661C123.549 8.4 123.493 8.45133 123.493 8.554V11.648C123.493 11.9373 123.558 12.1473 123.689 12.278C123.819 12.3993 124.034 12.46 124.333 12.46H124.893C125.089 12.46 125.187 12.558 125.187 12.754V13.72C125.187 13.8227 125.163 13.8973 125.117 13.944C125.079 13.9813 125.005 14 124.893 14H124.039C123.301 14 122.727 13.804 122.317 13.412C121.915 13.02 121.715 12.46 121.715 11.732V8.554C121.715 8.45133 121.663 8.4 121.561 8.4ZM128.96 14H128.386C127.668 14 127.122 13.804 126.748 13.412C126.384 13.02 126.202 12.4553 126.202 11.718V9.142C126.202 8.40467 126.384 7.84 126.748 7.448C127.122 7.056 127.668 6.86 128.386 6.86H128.96C129.25 6.86 129.525 6.92533 129.786 7.056C130.048 7.17733 130.23 7.364 130.332 7.616H130.388V4.452C130.388 4.256 130.486 4.158 130.682 4.158H131.872C132.068 4.158 132.166 4.256 132.166 4.452V13.706C132.166 13.902 132.068 14 131.872 14H130.682C130.486 14 130.388 13.902 130.388 13.706V13.244H130.332C130.23 13.496 130.048 13.6873 129.786 13.818C129.525 13.9393 129.25 14 128.96 14ZM130.388 11.396V9.464C130.388 8.75467 130.066 8.4 129.422 8.4H128.792C128.494 8.4 128.284 8.46533 128.162 8.596C128.041 8.71733 127.98 8.92733 127.98 9.226V11.634C127.98 11.9327 128.041 12.1473 128.162 12.278C128.284 12.3993 128.494 12.46 128.792 12.46H129.422C130.066 12.46 130.388 12.1053 130.388 11.396ZM135.265 11.984V13.076C135.265 13.328 135.158 13.6173 134.943 13.944L133.977 15.358C133.912 15.4513 133.823 15.498 133.711 15.498C133.553 15.498 133.473 15.4047 133.473 15.218V11.998C133.473 11.8113 133.567 11.718 133.753 11.718H134.999C135.177 11.718 135.265 11.8067 135.265 11.984ZM139.561 11.704V11.424C139.561 11.228 139.659 11.13 139.855 11.13H141.045C141.241 11.13 141.339 11.228 141.339 11.424V11.536C141.339 11.8907 141.409 12.1333 141.549 12.264C141.689 12.3947 141.946 12.46 142.319 12.46H142.977C143.341 12.46 143.593 12.39 143.733 12.25C143.882 12.11 143.957 11.8487 143.957 11.466V11.298C143.957 11.0273 143.845 10.822 143.621 10.682C143.406 10.5327 143.136 10.444 142.809 10.416C142.482 10.388 142.128 10.3367 141.745 10.262C141.372 10.178 141.022 10.0753 140.695 9.954C140.368 9.82333 140.093 9.576 139.869 9.212C139.654 8.83867 139.547 8.36267 139.547 7.784V7.294C139.547 6.566 139.752 6.00133 140.163 5.6C140.574 5.19867 141.143 4.998 141.871 4.998H143.271C144.008 4.998 144.582 5.19867 144.993 5.6C145.404 6.00133 145.609 6.566 145.609 7.294V7.56C145.609 7.756 145.511 7.854 145.315 7.854H144.125C143.929 7.854 143.831 7.756 143.831 7.56V7.476C143.831 7.112 143.761 6.86467 143.621 6.734C143.481 6.60333 143.224 6.538 142.851 6.538H142.305C141.922 6.538 141.661 6.61267 141.521 6.762C141.39 6.902 141.325 7.182 141.325 7.602V7.868C141.325 8.30667 141.708 8.55867 142.473 8.624C143.266 8.68933 143.971 8.848 144.587 9.1C144.914 9.24 145.184 9.492 145.399 9.856C145.623 10.2107 145.735 10.668 145.735 11.228V11.704C145.735 12.432 145.53 12.9967 145.119 13.398C144.708 13.7993 144.139 14 143.411 14H141.885C141.157 14 140.588 13.7993 140.177 13.398C139.766 12.9967 139.561 12.432 139.561 11.704ZM150.986 14H149.502C148.765 14 148.195 13.804 147.794 13.412C147.393 13.02 147.192 12.4553 147.192 11.718V7.28C147.192 6.54267 147.393 5.978 147.794 5.586C148.195 5.194 148.765 4.998 149.502 4.998H150.986C151.714 4.998 152.279 5.19867 152.68 5.6C153.081 5.992 153.282 6.552 153.282 7.28V7.7C153.282 7.90533 153.184 8.008 152.988 8.008H151.798C151.602 8.008 151.504 7.90533 151.504 7.7V7.364C151.504 7.06533 151.443 6.85533 151.322 6.734C151.201 6.60333 150.991 6.538 150.692 6.538H149.782C149.493 6.538 149.283 6.60333 149.152 6.734C149.031 6.85533 148.97 7.06533 148.97 7.364V11.634C148.97 11.9327 149.031 12.1473 149.152 12.278C149.283 12.3993 149.493 12.46 149.782 12.46H150.692C150.991 12.46 151.201 12.3993 151.322 12.278C151.443 12.1473 151.504 11.9327 151.504 11.634V10.752C151.504 10.6493 151.453 10.598 151.35 10.598H150.51C150.314 10.598 150.216 10.5 150.216 10.304V9.352C150.216 9.156 150.314 9.058 150.51 9.058H152.96C153.175 9.058 153.282 9.16533 153.282 9.38V11.718C153.282 12.446 153.081 13.0107 152.68 13.412C152.279 13.804 151.714 14 150.986 14Z" fill="white"/>
</svg>
