<svg width="101" height="20" viewBox="0 0 101 20" fill="none" xmlns="http://www.w3.org/2000/svg">
<rect width="20" height="20" fill="#C4C4C4"/>
<path d="M28.254 15H27.064C26.868 15 26.77 14.902 26.77 14.706V5.452C26.77 5.256 26.868 5.158 27.064 5.158H28.254C28.45 5.158 28.548 5.256 28.548 5.452V8.616H28.604C28.8093 8.112 29.2667 7.86 29.976 7.86H30.424C31.8893 7.86 32.622 8.62067 32.622 10.142V14.706C32.622 14.902 32.5193 15 32.314 15H31.138C30.942 15 30.844 14.902 30.844 14.706V10.226C30.844 9.92733 30.7787 9.71733 30.648 9.596C30.5267 9.46533 30.3167 9.4 30.018 9.4H29.514C28.87 9.4 28.548 9.75467 28.548 10.464V14.706C28.548 14.902 28.45 15 28.254 15ZM37.5141 15H36.2681C35.5308 15 34.9615 14.804 34.5601 14.412C34.1588 14.02 33.9581 13.4553 33.9581 12.718V10.142C33.9581 9.40467 34.1588 8.84 34.5601 8.448C34.9615 8.056 35.5308 7.86 36.2681 7.86H37.5141C38.2421 7.86 38.8068 8.06067 39.2081 8.462C39.6188 8.854 39.8241 9.414 39.8241 10.142V12.718C39.8241 13.446 39.6188 14.0107 39.2081 14.412C38.8068 14.804 38.2421 15 37.5141 15ZM36.5341 13.474H37.2481C37.5468 13.474 37.7568 13.4133 37.8781 13.292C38.0088 13.1707 38.0741 12.9607 38.0741 12.662V10.198C38.0741 9.89933 38.0088 9.68933 37.8781 9.568C37.7568 9.44667 37.5468 9.386 37.2481 9.386H36.5341C36.2355 9.386 36.0255 9.44667 35.9041 9.568C35.7828 9.68933 35.7221 9.89933 35.7221 10.198V12.662C35.7221 12.9607 35.7828 13.1707 35.9041 13.292C36.0255 13.4133 36.2355 13.474 36.5341 13.474ZM42.7052 15H41.5152C41.3192 15 41.2212 14.902 41.2212 14.706V8.154C41.2212 7.958 41.3192 7.86 41.5152 7.86H42.7052C42.9012 7.86 42.9992 7.958 42.9992 8.154V8.616H43.0552C43.1672 8.392 43.3538 8.21 43.6152 8.07C43.8858 7.93 44.1938 7.86 44.5392 7.86H44.9312C45.7432 7.86 46.3265 8.15867 46.6812 8.756C46.9985 8.15867 47.5445 7.86 48.3192 7.86H48.7252C49.4438 7.86 49.9852 8.056 50.3492 8.448C50.7225 8.84 50.9092 9.40467 50.9092 10.142V14.706C50.9092 14.902 50.8112 15 50.6152 15H49.4252C49.2292 15 49.1312 14.902 49.1312 14.706V10.226C49.1312 9.92733 49.0705 9.71733 48.9492 9.596C48.8278 9.46533 48.6178 9.4 48.3192 9.4H47.9692C47.3252 9.4 47.0032 9.75933 47.0032 10.478V14.706C47.0032 14.902 46.9005 15 46.6952 15H45.5192C45.3232 15 45.2252 14.902 45.2252 14.706V10.226C45.2252 9.92733 45.1598 9.71733 45.0292 9.596C44.9078 9.46533 44.6978 9.4 44.3992 9.4H43.9652C43.3212 9.4 42.9992 9.75467 42.9992 10.464V14.706C42.9992 14.902 42.9012 15 42.7052 15ZM57.6551 15H54.5611C53.8238 15 53.2544 14.804 52.8531 14.412C52.4518 14.02 52.2511 13.4553 52.2511 12.718V10.142C52.2511 9.40467 52.4518 8.84 52.8531 8.448C53.2544 8.056 53.8238 7.86 54.5611 7.86H55.6671C56.4044 7.86 56.9738 8.056 57.3751 8.448C57.7764 8.84 57.9771 9.40467 57.9771 10.142V11.92C57.9771 12.116 57.8791 12.214 57.6831 12.214H54.1691C54.0571 12.214 54.0011 12.2653 54.0011 12.368V12.676C54.0011 12.9653 54.0618 13.1753 54.1831 13.306C54.3138 13.4273 54.5284 13.488 54.8271 13.488H57.6551C57.8511 13.488 57.9491 13.5907 57.9491 13.796V14.72C57.9491 14.8227 57.9258 14.8973 57.8791 14.944C57.8418 14.9813 57.7671 15 57.6551 15ZM54.1691 11.024H56.0731C56.1758 11.024 56.2271 10.9727 56.2271 10.87V10.198C56.2271 9.89933 56.1664 9.68933 56.0451 9.568C55.9238 9.44667 55.7138 9.386 55.4151 9.386H54.8271C54.5284 9.386 54.3184 9.44667 54.1971 9.568C54.0758 9.68933 54.0151 9.89933 54.0151 10.198V10.87C54.0151 10.9727 54.0664 11.024 54.1691 11.024ZM63.2431 12.382V9.554C63.2431 9.45133 63.1871 9.4 63.0751 9.4H61.7591C61.4604 9.4 61.2504 9.46533 61.1291 9.596C61.0077 9.71733 60.9471 9.92733 60.9471 10.226V12.634C60.9471 12.9327 61.0077 13.1473 61.1291 13.278C61.2504 13.3993 61.4604 13.46 61.7591 13.46H62.2631C62.9164 13.46 63.2431 13.1007 63.2431 12.382ZM61.8011 15H61.4791C60.7417 15 60.1724 14.804 59.7711 14.412C59.3697 14.02 59.1691 13.4553 59.1691 12.718V10.142C59.1691 9.40467 59.3697 8.84 59.7711 8.448C60.1724 8.056 60.7417 7.86 61.4791 7.86H64.7131C64.9184 7.86 65.0211 7.958 65.0211 8.154V16.624C65.0211 16.8107 64.9184 16.904 64.7131 16.904H63.5371C63.3411 16.904 63.2431 16.8107 63.2431 16.624V14.23H63.1871C62.9631 14.7433 62.5011 15 61.8011 15ZM69.1312 15H68.6692C67.9505 15 67.4045 14.804 67.0312 14.412C66.6672 14.02 66.4852 13.4553 66.4852 12.718V8.154C66.4852 7.958 66.5832 7.86 66.7792 7.86H67.9692C68.1652 7.86 68.2632 7.958 68.2632 8.154V12.634C68.2632 12.9327 68.3238 13.1473 68.4452 13.278C68.5758 13.3993 68.7858 13.46 69.0752 13.46H69.5932C70.2372 13.46 70.5592 13.1053 70.5592 12.396V8.154C70.5592 7.958 70.6572 7.86 70.8532 7.86H72.0292C72.2345 7.86 72.3372 7.958 72.3372 8.154V14.706C72.3372 14.902 72.2345 15 72.0292 15H70.8532C70.6572 15 70.5592 14.902 70.5592 14.706V14.244H70.5032C70.4005 14.496 70.2185 14.6873 69.9572 14.818C69.6958 14.9393 69.4205 15 69.1312 15ZM75.8153 13.46H77.2433C77.5419 13.46 77.7519 13.3993 77.8733 13.278C78.0039 13.1473 78.0693 12.9327 78.0693 12.634V10.198C78.0693 9.89933 78.0039 9.68933 77.8733 9.568C77.7519 9.43733 77.5419 9.372 77.2433 9.372H76.6273C75.9833 9.372 75.6613 9.72667 75.6613 10.436V13.306C75.6613 13.4087 75.7126 13.46 75.8153 13.46ZM73.8833 14.706V5.452C73.8833 5.256 73.9813 5.158 74.1773 5.158H75.3673C75.5633 5.158 75.6613 5.256 75.6613 5.452V8.602H75.7173C75.8199 8.35 76.0019 8.15867 76.2633 8.028C76.5246 7.89733 76.7999 7.832 77.0893 7.832H77.5373C78.2746 7.832 78.8439 8.028 79.2453 8.42C79.6466 8.812 79.8473 9.37667 79.8473 10.114V12.718C79.8473 13.4553 79.6466 14.02 79.2453 14.412C78.8439 14.804 78.2746 15 77.5373 15H74.1773C73.9813 15 73.8833 14.902 73.8833 14.706ZM86.5164 15H83.4224C82.6851 15 82.1158 14.804 81.7144 14.412C81.3131 14.02 81.1124 13.4553 81.1124 12.718V10.142C81.1124 9.40467 81.3131 8.84 81.7144 8.448C82.1158 8.056 82.6851 7.86 83.4224 7.86H84.5284C85.2658 7.86 85.8351 8.056 86.2364 8.448C86.6378 8.84 86.8384 9.40467 86.8384 10.142V11.92C86.8384 12.116 86.7404 12.214 86.5444 12.214H83.0304C82.9184 12.214 82.8624 12.2653 82.8624 12.368V12.676C82.8624 12.9653 82.9231 13.1753 83.0444 13.306C83.1751 13.4273 83.3898 13.488 83.6884 13.488H86.5164C86.7124 13.488 86.8104 13.5907 86.8104 13.796V14.72C86.8104 14.8227 86.7871 14.8973 86.7404 14.944C86.7031 14.9813 86.6284 15 86.5164 15ZM83.0304 11.024H84.9344C85.0371 11.024 85.0884 10.9727 85.0884 10.87V10.198C85.0884 9.89933 85.0278 9.68933 84.9064 9.568C84.7851 9.44667 84.5751 9.386 84.2764 9.386H83.6884C83.3898 9.386 83.1798 9.44667 83.0584 9.568C82.9371 9.68933 82.8764 9.89933 82.8764 10.198V10.87C82.8764 10.9727 82.9278 11.024 83.0304 11.024ZM89.7244 12.984V14.706C89.7244 14.902 89.6357 15 89.4584 15H88.2124C88.0257 15 87.9324 14.902 87.9324 14.706V12.998C87.9324 12.8113 88.0257 12.718 88.2124 12.718H89.4584C89.6357 12.718 89.7244 12.8067 89.7244 12.984ZM93.5338 15H93.1978C92.4605 15 91.8911 14.804 91.4898 14.412C91.0885 14.02 90.8878 13.4553 90.8878 12.718V10.142C90.8878 9.40467 91.0885 8.84 91.4898 8.448C91.8911 8.056 92.4605 7.86 93.1978 7.86H96.4318C96.6371 7.86 96.7398 7.958 96.7398 8.154V14.706C96.7398 14.902 96.6371 15 96.4318 15H95.2558C95.0598 15 94.9618 14.902 94.9618 14.706V14.244H94.9058C94.8031 14.496 94.6211 14.6873 94.3598 14.818C94.0985 14.9393 93.8231 15 93.5338 15ZM94.9618 12.396V9.554C94.9618 9.45133 94.9058 9.4 94.7938 9.4H93.4778C93.1791 9.4 92.9691 9.46533 92.8478 9.596C92.7265 9.71733 92.6658 9.92733 92.6658 10.226V12.634C92.6658 12.9327 92.7265 13.1473 92.8478 13.278C92.9691 13.3993 93.1791 13.46 93.4778 13.46H93.9958C94.6398 13.46 94.9618 13.1053 94.9618 12.396ZM98.3439 6.656V5.438C98.3439 5.25133 98.4372 5.158 98.6239 5.158H99.8419C100.029 5.158 100.122 5.24667 100.122 5.424V6.656C100.122 6.84267 100.029 6.936 99.8419 6.936H98.6239C98.4372 6.936 98.3439 6.84267 98.3439 6.656ZM98.3439 14.706V8.154C98.3439 7.958 98.4372 7.86 98.6239 7.86H99.8279C100.024 7.86 100.122 7.958 100.122 8.154V14.706C100.122 14.8273 100.099 14.9067 100.052 14.944C100.015 14.9813 99.9446 15 99.8419 15H98.6379C98.4419 15 98.3439 14.902 98.3439 14.706Z" fill="white"/>
<path d="M14.7734 4.16496C14.5687 3.97416 14.2472 3.94686 13.9148 4.09356H13.9142C13.5646 4.24777 4.01769 8.74898 3.62904 8.93288C3.55835 8.95988 2.941 9.21308 3.00459 9.77708C3.06136 10.2856 3.55753 10.4962 3.61812 10.5205L6.04525 11.434C6.20627 12.0232 6.79989 14.197 6.93116 14.6614C7.01304 14.9509 7.1465 15.3313 7.3804 15.4096C7.58564 15.4966 7.78979 15.4171 7.92188 15.3031L9.40578 13.7902L11.8012 15.8437L11.8583 15.8812C12.0209 15.9604 12.1768 16 12.3255 16C12.4404 16 12.5507 15.9763 12.656 15.9289C13.0149 15.7669 13.1585 15.391 13.1735 15.3484L14.9628 5.12527C15.072 4.57927 14.9202 4.30147 14.7734 4.16496ZM8.1858 11.7994L7.36702 14.1994L6.54825 11.1994L12.8255 6.09937L8.1858 11.7994Z" fill="black"/>
</svg>
