<svg width="515" height="147" viewBox="0 0 515 147" fill="none" xmlns="http://www.w3.org/2000/svg">
<path d="M4.05 118H3.528C3.396 118 3.33 117.928 3.33 117.784V107.398C3.33 107.29 3.27 107.236 3.15 107.236H0.54C0.396 107.236 0.324 107.17 0.324 107.038V106.624C0.324 106.492 0.396 106.426 0.54 106.426H7.02C7.164 106.426 7.236 106.492 7.236 106.624V107.038C7.236 107.17 7.164 107.236 7.02 107.236H4.41C4.29 107.236 4.23 107.29 4.23 107.398V117.784C4.23 117.928 4.17 118 4.05 118ZM9.61059 118H9.08859C8.96859 118 8.90859 117.928 8.90859 117.784V105.562C8.90859 105.418 8.96859 105.346 9.08859 105.346H9.61059C9.74259 105.346 9.80859 105.418 9.80859 105.562V109.756H9.88059C10.2166 109.132 10.8406 108.82 11.7526 108.82H12.9406C13.7086 108.82 14.3146 109.048 14.7586 109.504C15.2026 109.96 15.4246 110.584 15.4246 111.376V117.784C15.4246 117.928 15.3646 118 15.2446 118H14.7226C14.5906 118 14.5246 117.928 14.5246 117.784V111.412C14.5246 110.848 14.3806 110.41 14.0926 110.098C13.8046 109.786 13.3846 109.63 12.8326 109.63H11.6626C11.0866 109.63 10.6306 109.786 10.2946 110.098C9.97059 110.398 9.80859 110.83 9.80859 111.394V117.784C9.80859 117.928 9.74259 118 9.61059 118ZM24.1336 118H20.3716C19.5916 118 18.9736 117.772 18.5176 117.316C18.0736 116.86 17.8516 116.236 17.8516 115.444V111.376C17.8516 110.584 18.0736 109.96 18.5176 109.504C18.9736 109.048 19.5916 108.82 20.3716 108.82H21.9196C22.6996 108.82 23.3176 109.048 23.7736 109.504C24.2296 109.96 24.4576 110.584 24.4576 111.376V113.662C24.4576 113.806 24.3856 113.878 24.2416 113.878H18.9136C18.8056 113.878 18.7516 113.932 18.7516 114.04V115.426C18.7516 115.99 18.8956 116.428 19.1836 116.74C19.4716 117.04 19.8916 117.19 20.4436 117.19H24.1336C24.2656 117.19 24.3316 117.256 24.3316 117.388V117.802C24.3316 117.934 24.2656 118 24.1336 118ZM18.9136 113.158H23.3956C23.5036 113.158 23.5576 113.104 23.5576 112.996V111.394C23.5576 110.83 23.4136 110.398 23.1256 110.098C22.8376 109.786 22.4176 109.63 21.8656 109.63H20.4436C19.8916 109.63 19.4716 109.786 19.1836 110.098C18.8956 110.398 18.7516 110.83 18.7516 111.394V112.996C18.7516 113.104 18.8056 113.158 18.9136 113.158ZM34.6598 118H31.5278C31.3958 118 31.3298 117.934 31.3298 117.802V117.388C31.3298 117.268 31.3958 117.208 31.5278 117.208H34.5698C35.6498 117.208 36.1898 116.788 36.1898 115.948V115.516C36.1898 114.736 35.8538 114.226 35.1818 113.986L32.9318 113.122C32.3198 112.882 31.8818 112.6 31.6178 112.276C31.3658 111.952 31.2398 111.502 31.2398 110.926C31.2398 109.522 32.0138 108.82 33.5618 108.82H36.4778C36.6098 108.82 36.6758 108.886 36.6758 109.018V109.432C36.6758 109.552 36.6098 109.612 36.4778 109.612H33.6518C33.1598 109.612 32.7878 109.72 32.5358 109.936C32.2958 110.152 32.1758 110.404 32.1758 110.692V111.106C32.1758 111.442 32.2658 111.706 32.4458 111.898C32.6378 112.09 32.9258 112.252 33.3098 112.384L35.5598 113.284C36.1838 113.488 36.5978 113.794 36.8018 114.202C37.0178 114.598 37.1258 115.156 37.1258 115.876C37.1258 116.596 36.9218 117.13 36.5138 117.478C36.1178 117.826 35.4998 118 34.6598 118ZM39.8378 109.63H38.7398C38.6078 109.63 38.5418 109.57 38.5418 109.45V109.018C38.5418 108.886 38.6078 108.82 38.7398 108.82H39.8378C39.9458 108.82 39.9998 108.766 39.9998 108.658V107.2C39.9998 107.056 40.0658 106.984 40.1978 106.984H40.7198C40.8518 106.984 40.9178 107.056 40.9178 107.2V108.658C40.9178 108.766 40.9718 108.82 41.0798 108.82H43.2218C43.3538 108.82 43.4198 108.886 43.4198 109.018V109.45C43.4198 109.57 43.3538 109.63 43.2218 109.63H41.0798C40.9718 109.63 40.9178 109.684 40.9178 109.792V115.462C40.9178 116.014 41.0738 116.44 41.3858 116.74C41.6978 117.04 42.1358 117.19 42.6998 117.19H43.4018C43.5338 117.19 43.5998 117.256 43.5998 117.388V117.802C43.5998 117.934 43.5338 118 43.4018 118H42.6278C41.8358 118 41.1998 117.778 40.7198 117.334C40.2398 116.89 39.9998 116.278 39.9998 115.498V109.792C39.9998 109.684 39.9458 109.63 39.8378 109.63ZM49.174 118H48.022C47.242 118 46.624 117.772 46.168 117.316C45.724 116.86 45.502 116.236 45.502 115.444V111.376C45.502 110.584 45.724 109.96 46.168 109.504C46.624 109.048 47.242 108.82 48.022 108.82H51.838C51.958 108.82 52.018 108.892 52.018 109.036V117.784C52.018 117.928 51.958 118 51.838 118H51.316C51.184 118 51.118 117.928 51.118 117.784V117.064H51.046C50.734 117.688 50.11 118 49.174 118ZM51.118 115.426V109.792C51.118 109.684 51.058 109.63 50.938 109.63H48.094C47.542 109.63 47.122 109.786 46.834 110.098C46.546 110.41 46.402 110.848 46.402 111.412V115.408C46.402 115.972 46.546 116.41 46.834 116.722C47.122 117.034 47.542 117.19 48.094 117.19H49.264C49.84 117.19 50.29 117.04 50.614 116.74C50.95 116.428 51.118 115.99 51.118 115.426ZM55.4192 118H54.8972C54.7772 118 54.7172 117.928 54.7172 117.784V109.036C54.7172 108.892 54.7772 108.82 54.8972 108.82H55.4192C55.5512 108.82 55.6172 108.892 55.6172 109.036V109.756H55.6892C56.0252 109.132 56.6492 108.82 57.5612 108.82H58.7492C59.5172 108.82 60.1232 109.048 60.5672 109.504C61.0112 109.96 61.2332 110.584 61.2332 111.376V117.784C61.2332 117.928 61.1732 118 61.0532 118H60.5312C60.3992 118 60.3332 117.928 60.3332 117.784V111.412C60.3332 110.848 60.1892 110.41 59.9012 110.098C59.6132 109.786 59.1932 109.63 58.6412 109.63H57.4712C56.8952 109.63 56.4392 109.786 56.1032 110.098C55.7792 110.398 55.6172 110.83 55.6172 111.394V117.784C55.6172 117.928 55.5512 118 55.4192 118ZM67.3502 118H66.1442C65.3762 118 64.7702 117.772 64.3262 117.316C63.8822 116.86 63.6602 116.236 63.6602 115.444V111.376C63.6602 110.584 63.8822 109.96 64.3262 109.504C64.7702 109.048 65.3762 108.82 66.1442 108.82H67.3502C68.2742 108.82 68.9042 109.132 69.2402 109.756H69.3122V105.562C69.3122 105.418 69.3722 105.346 69.4922 105.346H70.0142C70.1462 105.346 70.2122 105.418 70.2122 105.562V117.784C70.2122 117.928 70.1462 118 70.0142 118H69.4922C69.3722 118 69.3122 117.928 69.3122 117.784V117.064H69.2402C68.9042 117.688 68.2742 118 67.3502 118ZM69.3122 115.426V111.394C69.3122 110.83 69.1442 110.398 68.8082 110.098C68.4842 109.786 68.0342 109.63 67.4582 109.63H66.2522C65.7002 109.63 65.2802 109.786 64.9922 110.098C64.7042 110.41 64.5602 110.848 64.5602 111.412V115.408C64.5602 115.972 64.7042 116.41 64.9922 116.722C65.2802 117.034 65.7002 117.19 66.2522 117.19H67.4582C68.0342 117.19 68.4842 117.04 68.8082 116.74C69.1442 116.428 69.3122 115.99 69.3122 115.426ZM76.4025 118H75.2505C74.4705 118 73.8525 117.772 73.3965 117.316C72.9525 116.86 72.7305 116.236 72.7305 115.444V111.376C72.7305 110.584 72.9525 109.96 73.3965 109.504C73.8525 109.048 74.4705 108.82 75.2505 108.82H79.0665C79.1865 108.82 79.2465 108.892 79.2465 109.036V117.784C79.2465 117.928 79.1865 118 79.0665 118H78.5445C78.4125 118 78.3465 117.928 78.3465 117.784V117.064H78.2745C77.9625 117.688 77.3385 118 76.4025 118ZM78.3465 115.426V109.792C78.3465 109.684 78.2865 109.63 78.1665 109.63H75.3225C74.7705 109.63 74.3505 109.786 74.0625 110.098C73.7745 110.41 73.6305 110.848 73.6305 111.412V115.408C73.6305 115.972 73.7745 116.41 74.0625 116.722C74.3505 117.034 74.7705 117.19 75.3225 117.19H76.4925C77.0685 117.19 77.5185 117.04 77.8425 116.74C78.1785 116.428 78.3465 115.99 78.3465 115.426ZM82.6477 118H82.1257C82.0057 118 81.9457 117.928 81.9457 117.784V109.036C81.9457 108.892 82.0057 108.82 82.1257 108.82H82.6477C82.7797 108.82 82.8457 108.892 82.8457 109.036V109.792H82.9177C83.0497 109.54 83.2837 109.318 83.6197 109.126C83.9557 108.922 84.3697 108.82 84.8617 108.82H85.5637C85.6957 108.82 85.7617 108.886 85.7617 109.018V109.45C85.7617 109.582 85.6957 109.642 85.5637 109.63H84.7177C84.1297 109.63 83.6677 109.81 83.3317 110.17C83.0077 110.53 82.8457 111.016 82.8457 111.628V117.784C82.8457 117.928 82.7797 118 82.6477 118ZM91.0983 118H89.8923C89.1243 118 88.5183 117.772 88.0743 117.316C87.6303 116.86 87.4083 116.236 87.4083 115.444V111.376C87.4083 110.584 87.6303 109.96 88.0743 109.504C88.5183 109.048 89.1243 108.82 89.8923 108.82H91.0983C92.0223 108.82 92.6523 109.132 92.9883 109.756H93.0603V105.562C93.0603 105.418 93.1203 105.346 93.2403 105.346H93.7623C93.8943 105.346 93.9603 105.418 93.9603 105.562V117.784C93.9603 117.928 93.8943 118 93.7623 118H93.2403C93.1203 118 93.0603 117.928 93.0603 117.784V117.064H92.9883C92.6523 117.688 92.0223 118 91.0983 118ZM93.0603 115.426V111.394C93.0603 110.83 92.8923 110.398 92.5563 110.098C92.2323 109.786 91.7823 109.63 91.2063 109.63H90.0003C89.4483 109.63 89.0283 109.786 88.7403 110.098C88.4523 110.41 88.3083 110.848 88.3083 111.412V115.408C88.3083 115.972 88.4523 116.41 88.7403 116.722C89.0283 117.034 89.4483 117.19 90.0003 117.19H91.2063C91.7823 117.19 92.2323 117.04 92.5563 116.74C92.8923 116.428 93.0603 115.99 93.0603 115.426ZM101.853 109.63H100.755C100.623 109.63 100.557 109.57 100.557 109.45V109.018C100.557 108.886 100.623 108.82 100.755 108.82H101.853C101.961 108.82 102.015 108.766 102.015 108.658V107.2C102.015 107.056 102.081 106.984 102.213 106.984H102.735C102.867 106.984 102.933 107.056 102.933 107.2V108.658C102.933 108.766 102.987 108.82 103.095 108.82H105.237C105.369 108.82 105.435 108.886 105.435 109.018V109.45C105.435 109.57 105.369 109.63 105.237 109.63H103.095C102.987 109.63 102.933 109.684 102.933 109.792V115.462C102.933 116.014 103.089 116.44 103.401 116.74C103.713 117.04 104.151 117.19 104.715 117.19H105.417C105.549 117.19 105.615 117.256 105.615 117.388V117.802C105.615 117.934 105.549 118 105.417 118H104.643C103.851 118 103.215 117.778 102.735 117.334C102.255 116.89 102.015 116.278 102.015 115.498V109.792C102.015 109.684 101.961 109.63 101.853 109.63ZM111.586 118H110.038C109.258 118 108.64 117.772 108.184 117.316C107.74 116.86 107.518 116.236 107.518 115.444V111.376C107.518 110.584 107.74 109.96 108.184 109.504C108.64 109.048 109.258 108.82 110.038 108.82H111.586C112.366 108.82 112.984 109.048 113.44 109.504C113.896 109.96 114.124 110.584 114.124 111.376V115.444C114.124 116.236 113.896 116.86 113.44 117.316C112.984 117.772 112.366 118 111.586 118ZM110.11 117.19H111.514C112.066 117.19 112.486 117.04 112.774 116.74C113.074 116.428 113.224 115.99 113.224 115.426V111.394C113.224 110.83 113.074 110.398 112.774 110.098C112.486 109.786 112.066 109.63 111.514 109.63H110.11C109.558 109.63 109.138 109.786 108.85 110.098C108.562 110.398 108.418 110.83 108.418 111.394V115.426C108.418 115.99 108.562 116.428 108.85 116.74C109.138 117.04 109.558 117.19 110.11 117.19ZM121.793 108.82H122.351C122.423 108.82 122.471 108.844 122.495 108.892C122.519 108.928 122.507 108.976 122.459 109.036L119.705 113.212V113.284L122.783 117.784C122.831 117.844 122.843 117.898 122.819 117.946C122.795 117.982 122.747 118 122.675 118H122.117C121.937 118 121.799 117.928 121.703 117.784L118.733 113.41C118.685 113.314 118.685 113.218 118.733 113.122L121.433 109C121.505 108.88 121.625 108.82 121.793 108.82ZM117.329 118H116.807C116.687 118 116.627 117.928 116.627 117.784V105.562C116.627 105.418 116.687 105.346 116.807 105.346H117.329C117.461 105.346 117.527 105.418 117.527 105.562V117.784C117.527 117.928 117.461 118 117.329 118ZM130.481 118H126.719C125.939 118 125.321 117.772 124.865 117.316C124.421 116.86 124.199 116.236 124.199 115.444V111.376C124.199 110.584 124.421 109.96 124.865 109.504C125.321 109.048 125.939 108.82 126.719 108.82H128.267C129.047 108.82 129.665 109.048 130.121 109.504C130.577 109.96 130.805 110.584 130.805 111.376V113.662C130.805 113.806 130.733 113.878 130.589 113.878H125.261C125.153 113.878 125.099 113.932 125.099 114.04V115.426C125.099 115.99 125.243 116.428 125.531 116.74C125.819 117.04 126.239 117.19 126.791 117.19H130.481C130.613 117.19 130.679 117.256 130.679 117.388V117.802C130.679 117.934 130.613 118 130.481 118ZM125.261 113.158H129.743C129.851 113.158 129.905 113.104 129.905 112.996V111.394C129.905 110.83 129.761 110.398 129.473 110.098C129.185 109.786 128.765 109.63 128.213 109.63H126.791C126.239 109.63 125.819 109.786 125.531 110.098C125.243 110.398 125.099 110.83 125.099 111.394V112.996C125.099 113.104 125.153 113.158 125.261 113.158ZM133.941 118H133.419C133.299 118 133.239 117.928 133.239 117.784V109.036C133.239 108.892 133.299 108.82 133.419 108.82H133.941C134.073 108.82 134.139 108.892 134.139 109.036V109.756H134.211C134.547 109.132 135.171 108.82 136.083 108.82H137.271C138.039 108.82 138.645 109.048 139.089 109.504C139.533 109.96 139.755 110.584 139.755 111.376V117.784C139.755 117.928 139.695 118 139.575 118H139.053C138.921 118 138.855 117.928 138.855 117.784V111.412C138.855 110.848 138.711 110.41 138.423 110.098C138.135 109.786 137.715 109.63 137.163 109.63H135.993C135.417 109.63 134.961 109.786 134.625 110.098C134.301 110.398 134.139 110.83 134.139 111.394V117.784C134.139 117.928 134.073 118 133.941 118ZM152.291 117.388V117.802C152.291 117.934 152.225 118 152.093 118H149.501C148.721 118 148.103 117.772 147.647 117.316C147.203 116.86 146.981 116.236 146.981 115.444V111.376C146.981 110.584 147.203 109.96 147.647 109.504C148.103 109.048 148.721 108.82 149.501 108.82H152.093C152.225 108.82 152.291 108.886 152.291 109.018V109.45C152.291 109.57 152.225 109.63 152.093 109.63H149.573C149.021 109.63 148.601 109.786 148.313 110.098C148.025 110.41 147.881 110.848 147.881 111.412V115.408C147.881 115.972 148.025 116.41 148.313 116.722C148.601 117.034 149.021 117.19 149.573 117.19H152.093C152.225 117.19 152.291 117.256 152.291 117.388ZM157.827 118H156.639C155.871 118 155.265 117.772 154.821 117.316C154.377 116.86 154.155 116.236 154.155 115.444V109.036C154.155 108.892 154.215 108.82 154.335 108.82H154.857C154.989 108.82 155.055 108.892 155.055 109.036V115.408C155.055 115.972 155.199 116.41 155.487 116.722C155.775 117.034 156.195 117.19 156.747 117.19H157.917C158.493 117.19 158.943 117.04 159.267 116.74C159.603 116.428 159.771 115.99 159.771 115.426V109.036C159.771 108.892 159.837 108.82 159.969 108.82H160.491C160.611 108.82 160.671 108.892 160.671 109.036V117.784C160.671 117.928 160.611 118 160.491 118H159.969C159.837 118 159.771 117.928 159.771 117.784V117.064H159.699C159.387 117.688 158.763 118 157.827 118ZM164.07 118H163.548C163.428 118 163.368 117.928 163.368 117.784V109.036C163.368 108.892 163.428 108.82 163.548 108.82H164.07C164.202 108.82 164.268 108.892 164.268 109.036V109.792H164.34C164.472 109.54 164.706 109.318 165.042 109.126C165.378 108.922 165.792 108.82 166.284 108.82H166.986C167.118 108.82 167.184 108.886 167.184 109.018V109.45C167.184 109.582 167.118 109.642 166.986 109.63H166.14C165.552 109.63 165.09 109.81 164.754 110.17C164.43 110.53 164.268 111.016 164.268 111.628V117.784C164.268 117.928 164.202 118 164.07 118ZM169.712 118H169.19C169.07 118 169.01 117.928 169.01 117.784V109.036C169.01 108.892 169.07 108.82 169.19 108.82H169.712C169.844 108.82 169.91 108.892 169.91 109.036V109.792H169.982C170.114 109.54 170.348 109.318 170.684 109.126C171.02 108.922 171.434 108.82 171.926 108.82H172.628C172.76 108.82 172.826 108.886 172.826 109.018V109.45C172.826 109.582 172.76 109.642 172.628 109.63H171.782C171.194 109.63 170.732 109.81 170.396 110.17C170.072 110.53 169.91 111.016 169.91 111.628V117.784C169.91 117.928 169.844 118 169.712 118ZM180.755 118H176.993C176.213 118 175.595 117.772 175.139 117.316C174.695 116.86 174.473 116.236 174.473 115.444V111.376C174.473 110.584 174.695 109.96 175.139 109.504C175.595 109.048 176.213 108.82 176.993 108.82H178.541C179.321 108.82 179.939 109.048 180.395 109.504C180.851 109.96 181.079 110.584 181.079 111.376V113.662C181.079 113.806 181.007 113.878 180.863 113.878H175.535C175.427 113.878 175.373 113.932 175.373 114.04V115.426C175.373 115.99 175.517 116.428 175.805 116.74C176.093 117.04 176.513 117.19 177.065 117.19H180.755C180.887 117.19 180.953 117.256 180.953 117.388V117.802C180.953 117.934 180.887 118 180.755 118ZM175.535 113.158H180.017C180.125 113.158 180.179 113.104 180.179 112.996V111.394C180.179 110.83 180.035 110.398 179.747 110.098C179.459 109.786 179.039 109.63 178.487 109.63H177.065C176.513 109.63 176.093 109.786 175.805 110.098C175.517 110.398 175.373 110.83 175.373 111.394V112.996C175.373 113.104 175.427 113.158 175.535 113.158ZM184.214 118H183.692C183.572 118 183.512 117.928 183.512 117.784V109.036C183.512 108.892 183.572 108.82 183.692 108.82H184.214C184.346 108.82 184.412 108.892 184.412 109.036V109.756H184.484C184.82 109.132 185.444 108.82 186.356 108.82H187.544C188.312 108.82 188.918 109.048 189.362 109.504C189.806 109.96 190.028 110.584 190.028 111.376V117.784C190.028 117.928 189.968 118 189.848 118H189.326C189.194 118 189.128 117.928 189.128 117.784V111.412C189.128 110.848 188.984 110.41 188.696 110.098C188.408 109.786 187.988 109.63 187.436 109.63H186.266C185.69 109.63 185.234 109.786 184.898 110.098C184.574 110.398 184.412 110.83 184.412 111.394V117.784C184.412 117.928 184.346 118 184.214 118ZM197.765 117.388V117.802C197.765 117.934 197.699 118 197.567 118H194.975C194.195 118 193.577 117.772 193.121 117.316C192.677 116.86 192.455 116.236 192.455 115.444V111.376C192.455 110.584 192.677 109.96 193.121 109.504C193.577 109.048 194.195 108.82 194.975 108.82H197.567C197.699 108.82 197.765 108.886 197.765 109.018V109.45C197.765 109.57 197.699 109.63 197.567 109.63H195.047C194.495 109.63 194.075 109.786 193.787 110.098C193.499 110.41 193.355 110.848 193.355 111.412V115.408C193.355 115.972 193.499 116.41 193.787 116.722C194.075 117.034 194.495 117.19 195.047 117.19H197.567C197.699 117.19 197.765 117.256 197.765 117.388ZM200.151 120.736H199.485C199.353 120.736 199.287 120.67 199.287 120.538V120.106C199.287 119.974 199.353 119.908 199.485 119.908H199.971C200.331 119.908 200.637 119.854 200.889 119.746C201.141 119.65 201.363 119.464 201.555 119.188C201.747 118.912 201.873 118.696 201.933 118.54C202.101 118.168 202.239 117.826 202.347 117.514H202.005C201.873 117.514 201.789 117.442 201.753 117.298L198.891 109.036C198.843 108.892 198.891 108.82 199.035 108.82H199.593C199.713 108.82 199.791 108.892 199.827 109.036L202.473 116.758H202.545L205.191 109.036C205.227 108.892 205.305 108.82 205.425 108.82H205.965C206.109 108.82 206.163 108.892 206.127 109.036C203.979 115.324 202.857 118.576 202.761 118.792C202.677 119.008 202.515 119.302 202.275 119.674C201.819 120.382 201.111 120.736 200.151 120.736ZM216.668 118H215.12C214.34 118 213.722 117.772 213.266 117.316C212.822 116.86 212.6 116.236 212.6 115.444V111.376C212.6 110.584 212.822 109.96 213.266 109.504C213.722 109.048 214.34 108.82 215.12 108.82H216.668C217.448 108.82 218.066 109.048 218.522 109.504C218.978 109.96 219.206 110.584 219.206 111.376V115.444C219.206 116.236 218.978 116.86 218.522 117.316C218.066 117.772 217.448 118 216.668 118ZM215.192 117.19H216.596C217.148 117.19 217.568 117.04 217.856 116.74C218.156 116.428 218.306 115.99 218.306 115.426V111.394C218.306 110.83 218.156 110.398 217.856 110.098C217.568 109.786 217.148 109.63 216.596 109.63H215.192C214.64 109.63 214.22 109.786 213.932 110.098C213.644 110.398 213.5 110.83 213.5 111.394V115.426C213.5 115.99 213.644 116.428 213.932 116.74C214.22 117.04 214.64 117.19 215.192 117.19ZM223.599 108.82H225.237C225.381 108.82 225.453 108.886 225.453 109.018V109.432C225.453 109.564 225.381 109.63 225.237 109.63H223.599C223.491 109.63 223.437 109.684 223.437 109.792V117.784C223.437 117.928 223.371 118 223.239 118H222.717C222.585 118 222.519 117.928 222.519 117.784V109.792C222.519 109.684 222.465 109.63 222.357 109.63H221.205C221.073 109.63 221.007 109.564 221.007 109.432V109.018C221.007 108.886 221.073 108.82 221.205 108.82H222.357C222.465 108.82 222.519 108.766 222.519 108.658V107.866C222.519 106.186 223.281 105.346 224.805 105.346H225.237C225.381 105.346 225.453 105.412 225.453 105.544V105.958C225.453 106.09 225.381 106.156 225.237 106.156H224.895C224.355 106.156 223.977 106.3 223.761 106.588C223.545 106.876 223.437 107.314 223.437 107.902V108.658C223.437 108.766 223.491 108.82 223.599 108.82ZM232.839 118H232.317C232.197 118 232.137 117.928 232.137 117.784V106.642C232.137 106.498 232.197 106.426 232.317 106.426H232.839C232.971 106.426 233.037 106.498 233.037 106.642V111.556C233.037 111.664 233.097 111.718 233.217 111.718H238.257C238.377 111.718 238.437 111.664 238.437 111.556V106.642C238.437 106.498 238.497 106.426 238.617 106.426H239.139C239.271 106.426 239.337 106.498 239.337 106.642V117.784C239.337 117.928 239.271 118 239.139 118H238.617C238.497 118 238.437 117.928 238.437 117.784V112.69C238.437 112.582 238.377 112.528 238.257 112.528H233.217C233.097 112.528 233.037 112.582 233.037 112.69V117.784C233.037 117.928 232.971 118 232.839 118ZM246.111 118H244.563C243.783 118 243.165 117.772 242.709 117.316C242.265 116.86 242.043 116.236 242.043 115.444V111.376C242.043 110.584 242.265 109.96 242.709 109.504C243.165 109.048 243.783 108.82 244.563 108.82H246.111C246.891 108.82 247.509 109.048 247.965 109.504C248.421 109.96 248.649 110.584 248.649 111.376V115.444C248.649 116.236 248.421 116.86 247.965 117.316C247.509 117.772 246.891 118 246.111 118ZM244.635 117.19H246.039C246.591 117.19 247.011 117.04 247.299 116.74C247.599 116.428 247.749 115.99 247.749 115.426V111.394C247.749 110.83 247.599 110.398 247.299 110.098C247.011 109.786 246.591 109.63 246.039 109.63H244.635C244.083 109.63 243.663 109.786 243.375 110.098C243.087 110.398 242.943 110.83 242.943 111.394V115.426C242.943 115.99 243.087 116.428 243.375 116.74C243.663 117.04 244.083 117.19 244.635 117.19ZM251.855 118H251.333C251.213 118 251.153 117.928 251.153 117.784V109.036C251.153 108.892 251.213 108.82 251.333 108.82H251.855C251.987 108.82 252.053 108.892 252.053 109.036V109.756H252.125C252.473 109.132 253.109 108.82 254.033 108.82H254.771C255.827 108.82 256.559 109.24 256.967 110.08C257.147 109.66 257.453 109.348 257.885 109.144C258.317 108.928 258.761 108.82 259.217 108.82H259.883C260.663 108.82 261.275 109.048 261.719 109.504C262.163 109.96 262.385 110.584 262.385 111.376V117.784C262.385 117.928 262.319 118 262.187 118H261.665C261.533 118 261.467 117.928 261.467 117.784V111.412C261.467 110.836 261.323 110.398 261.035 110.098C260.747 109.786 260.327 109.63 259.775 109.63H259.109C258.533 109.63 258.077 109.798 257.741 110.134C257.405 110.458 257.237 110.902 257.237 111.466V117.784C257.237 117.928 257.171 118 257.039 118H256.517C256.385 118 256.319 117.928 256.319 117.784V111.412C256.319 110.836 256.175 110.398 255.887 110.098C255.599 109.786 255.179 109.63 254.627 109.63H253.907C253.331 109.63 252.875 109.786 252.539 110.098C252.215 110.398 252.053 110.83 252.053 111.394V117.784C252.053 117.928 251.987 118 251.855 118ZM271.089 118H267.327C266.547 118 265.929 117.772 265.473 117.316C265.029 116.86 264.807 116.236 264.807 115.444V111.376C264.807 110.584 265.029 109.96 265.473 109.504C265.929 109.048 266.547 108.82 267.327 108.82H268.875C269.655 108.82 270.273 109.048 270.729 109.504C271.185 109.96 271.413 110.584 271.413 111.376V113.662C271.413 113.806 271.341 113.878 271.197 113.878H265.869C265.761 113.878 265.707 113.932 265.707 114.04V115.426C265.707 115.99 265.851 116.428 266.139 116.74C266.427 117.04 266.847 117.19 267.399 117.19H271.089C271.221 117.19 271.287 117.256 271.287 117.388V117.802C271.287 117.934 271.221 118 271.089 118ZM265.869 113.158H270.351C270.459 113.158 270.513 113.104 270.513 112.996V111.394C270.513 110.83 270.369 110.398 270.081 110.098C269.793 109.786 269.373 109.63 268.821 109.63H267.399C266.847 109.63 266.427 109.786 266.139 110.098C265.851 110.398 265.707 110.83 265.707 111.394V112.996C265.707 113.104 265.761 113.158 265.869 113.158ZM279.282 115.336V109.792C279.282 109.684 279.222 109.63 279.102 109.63H276.258C275.706 109.63 275.286 109.786 274.998 110.098C274.71 110.41 274.566 110.848 274.566 111.412V115.408C274.566 115.972 274.71 116.41 274.998 116.722C275.286 117.034 275.706 117.19 276.258 117.19H277.392C277.98 117.19 278.442 117.022 278.778 116.686C279.114 116.35 279.282 115.9 279.282 115.336ZM277.266 118H276.186C275.406 118 274.788 117.772 274.332 117.316C273.888 116.86 273.666 116.236 273.666 115.444V111.376C273.666 110.584 273.888 109.96 274.332 109.504C274.788 109.048 275.406 108.82 276.186 108.82H280.002C280.122 108.82 280.182 108.892 280.182 109.036V120.484C280.182 120.616 280.122 120.682 280.002 120.682H279.48C279.348 120.682 279.282 120.616 279.282 120.484V117.028H279.21C279.054 117.316 278.85 117.538 278.598 117.694C278.358 117.85 278.142 117.94 277.95 117.964C277.77 117.988 277.542 118 277.266 118ZM286.463 118H285.275C284.507 118 283.901 117.772 283.457 117.316C283.013 116.86 282.791 116.236 282.791 115.444V109.036C282.791 108.892 282.851 108.82 282.971 108.82H283.493C283.625 108.82 283.691 108.892 283.691 109.036V115.408C283.691 115.972 283.835 116.41 284.123 116.722C284.411 117.034 284.831 117.19 285.383 117.19H286.553C287.129 117.19 287.579 117.04 287.903 116.74C288.239 116.428 288.407 115.99 288.407 115.426V109.036C288.407 108.892 288.473 108.82 288.605 108.82H289.127C289.247 108.82 289.307 108.892 289.307 109.036V117.784C289.307 117.928 289.247 118 289.127 118H288.605C288.473 118 288.407 117.928 288.407 117.784V117.064H288.335C288.023 117.688 287.399 118 286.463 118ZM293.084 117.19H295.946C296.498 117.19 296.918 117.04 297.206 116.74C297.506 116.428 297.656 115.984 297.656 115.408V111.25C297.656 110.686 297.506 110.254 297.206 109.954C296.918 109.642 296.498 109.486 295.946 109.486H294.758C294.182 109.486 293.726 109.642 293.39 109.954C293.066 110.254 292.904 110.686 292.904 111.25V117.028C292.904 117.136 292.964 117.19 293.084 117.19ZM292.004 117.784V105.562C292.004 105.418 292.064 105.346 292.184 105.346H292.706C292.838 105.346 292.904 105.418 292.904 105.562V109.612H292.976C293.312 108.988 293.936 108.676 294.848 108.676H296.036C296.816 108.676 297.428 108.904 297.872 109.36C298.328 109.816 298.556 110.434 298.556 111.214V115.444C298.556 116.236 298.328 116.86 297.872 117.316C297.428 117.772 296.816 118 296.036 118H292.184C292.064 118 292.004 117.928 292.004 117.784ZM307.177 118H303.415C302.635 118 302.017 117.772 301.561 117.316C301.117 116.86 300.895 116.236 300.895 115.444V111.376C300.895 110.584 301.117 109.96 301.561 109.504C302.017 109.048 302.635 108.82 303.415 108.82H304.963C305.743 108.82 306.361 109.048 306.817 109.504C307.273 109.96 307.501 110.584 307.501 111.376V113.662C307.501 113.806 307.429 113.878 307.285 113.878H301.957C301.849 113.878 301.795 113.932 301.795 114.04V115.426C301.795 115.99 301.939 116.428 302.227 116.74C302.515 117.04 302.935 117.19 303.487 117.19H307.177C307.309 117.19 307.375 117.256 307.375 117.388V117.802C307.375 117.934 307.309 118 307.177 118ZM301.957 113.158H306.439C306.547 113.158 306.601 113.104 306.601 112.996V111.394C306.601 110.83 306.457 110.398 306.169 110.098C305.881 109.786 305.461 109.63 304.909 109.63H303.487C302.935 109.63 302.515 109.786 302.227 110.098C301.939 110.398 301.795 110.83 301.795 111.394V112.996C301.795 113.104 301.849 113.158 301.957 113.158ZM314.823 107.308V105.58C314.823 105.448 314.883 105.382 315.003 105.382H315.543C315.663 105.382 315.723 105.448 315.723 105.58V107.308C315.723 107.452 315.663 107.524 315.543 107.524H315.003C314.883 107.524 314.823 107.452 314.823 107.308ZM314.823 117.784V109.036C314.823 108.892 314.883 108.82 315.003 108.82H315.525C315.657 108.82 315.723 108.892 315.723 109.036V117.784C315.723 117.928 315.663 118 315.543 118H315.003C314.883 118 314.823 117.928 314.823 117.784ZM321.482 118H318.35C318.218 118 318.152 117.934 318.152 117.802V117.388C318.152 117.268 318.218 117.208 318.35 117.208H321.392C322.472 117.208 323.012 116.788 323.012 115.948V115.516C323.012 114.736 322.676 114.226 322.004 113.986L319.754 113.122C319.142 112.882 318.704 112.6 318.44 112.276C318.188 111.952 318.062 111.502 318.062 110.926C318.062 109.522 318.836 108.82 320.384 108.82H323.3C323.432 108.82 323.498 108.886 323.498 109.018V109.432C323.498 109.552 323.432 109.612 323.3 109.612H320.474C319.982 109.612 319.61 109.72 319.358 109.936C319.118 110.152 318.998 110.404 318.998 110.692V111.106C318.998 111.442 319.088 111.706 319.268 111.898C319.46 112.09 319.748 112.252 320.132 112.384L322.382 113.284C323.006 113.488 323.42 113.794 323.624 114.202C323.84 114.598 323.948 115.156 323.948 115.876C323.948 116.596 323.744 117.13 323.336 117.478C322.94 117.826 322.322 118 321.482 118ZM333.691 117.19H335.743C336.295 117.19 336.715 117.04 337.003 116.74C337.303 116.428 337.453 115.984 337.453 115.408V109.018C337.453 108.442 337.303 108.004 337.003 107.704C336.715 107.392 336.295 107.236 335.743 107.236H333.691C333.139 107.236 332.719 107.392 332.431 107.704C332.143 108.004 331.999 108.442 331.999 109.018V115.408C331.999 115.984 332.143 116.428 332.431 116.74C332.719 117.04 333.139 117.19 333.691 117.19ZM337.201 120.394H336.697C336.541 120.394 336.421 120.322 336.337 120.178L335.005 118H333.619C332.839 118 332.221 117.772 331.765 117.316C331.309 116.86 331.081 116.236 331.081 115.444V108.982C331.081 108.19 331.309 107.566 331.765 107.11C332.221 106.654 332.839 106.426 333.619 106.426H335.815C336.595 106.426 337.213 106.654 337.669 107.11C338.125 107.566 338.353 108.19 338.353 108.982V115.444C338.353 116.2 338.137 116.806 337.705 117.262C337.285 117.718 336.709 117.958 335.977 117.982L337.327 120.16C337.411 120.316 337.369 120.394 337.201 120.394ZM347.509 106.426H348.013C348.145 106.426 348.211 106.492 348.211 106.624V115.444C348.211 116.236 347.983 116.86 347.527 117.316C347.083 117.772 346.471 118 345.691 118H343.675C342.895 118 342.277 117.772 341.821 117.316C341.377 116.86 341.155 116.236 341.155 115.444V106.642C341.155 106.498 341.215 106.426 341.335 106.426H341.857C341.989 106.426 342.055 106.498 342.055 106.642V115.408C342.055 115.972 342.199 116.41 342.487 116.722C342.775 117.034 343.195 117.19 343.747 117.19H345.601C346.153 117.19 346.573 117.04 346.861 116.74C347.161 116.428 347.311 115.984 347.311 115.408V106.642C347.311 106.498 347.377 106.426 347.509 106.426ZM352.256 117.208H355.604C356.744 117.208 357.314 116.632 357.314 115.48V114.238C357.314 113.098 356.69 112.528 355.442 112.528H352.256C352.136 112.528 352.076 112.576 352.076 112.672V117.046C352.076 117.154 352.136 117.208 352.256 117.208ZM352.256 111.736H355.424C355.988 111.736 356.42 111.586 356.72 111.286C357.032 110.986 357.188 110.56 357.188 110.008V108.946C357.188 107.794 356.618 107.218 355.478 107.218H352.256C352.136 107.218 352.076 107.272 352.076 107.38V111.574C352.076 111.682 352.136 111.736 352.256 111.736ZM351.176 117.784V106.642C351.176 106.498 351.236 106.426 351.356 106.426H355.55C356.33 106.426 356.948 106.648 357.404 107.092C357.86 107.536 358.088 108.148 358.088 108.928V110.026C358.088 111.118 357.572 111.82 356.54 112.132C356.984 112.156 357.374 112.36 357.71 112.744C358.046 113.128 358.214 113.626 358.214 114.238V115.498C358.214 116.278 357.986 116.89 357.53 117.334C357.074 117.778 356.456 118 355.676 118H351.356C351.236 118 351.176 117.928 351.176 117.784ZM366.745 118H361.183C361.063 118 361.003 117.928 361.003 117.784V106.642C361.003 106.498 361.063 106.426 361.183 106.426H366.745C366.889 106.426 366.961 106.492 366.961 106.624V107.038C366.961 107.17 366.889 107.236 366.745 107.236H362.083C361.963 107.236 361.903 107.29 361.903 107.398V111.538C361.903 111.646 361.963 111.7 362.083 111.7H366.241C366.373 111.7 366.439 111.766 366.439 111.898V112.312C366.439 112.444 366.373 112.51 366.241 112.51H362.083C361.963 112.51 361.903 112.564 361.903 112.672V117.028C361.903 117.136 361.963 117.19 362.083 117.19H366.745C366.889 117.19 366.961 117.256 366.961 117.388V117.802C366.961 117.934 366.889 118 366.745 118ZM370.353 115.642V117.784C370.353 117.928 370.293 118 370.173 118H369.543C369.411 118 369.345 117.928 369.345 117.784V115.642C369.345 115.51 369.411 115.444 369.543 115.444H370.173C370.293 115.444 370.353 115.51 370.353 115.642ZM380.433 118H379.911C379.779 118 379.713 117.928 379.713 117.784V107.398C379.713 107.29 379.653 107.236 379.533 107.236H376.923C376.779 107.236 376.707 107.17 376.707 107.038V106.624C376.707 106.492 376.779 106.426 376.923 106.426H383.403C383.547 106.426 383.619 106.492 383.619 106.624V107.038C383.619 107.17 383.547 107.236 383.403 107.236H380.793C380.673 107.236 380.613 107.29 380.613 107.398V117.784C380.613 117.928 380.553 118 380.433 118ZM385.993 118H385.471C385.351 118 385.291 117.928 385.291 117.784V105.562C385.291 105.418 385.351 105.346 385.471 105.346H385.993C386.125 105.346 386.191 105.418 386.191 105.562V109.756H386.263C386.599 109.132 387.223 108.82 388.135 108.82H389.323C390.091 108.82 390.697 109.048 391.141 109.504C391.585 109.96 391.807 110.584 391.807 111.376V117.784C391.807 117.928 391.747 118 391.627 118H391.105C390.973 118 390.907 117.928 390.907 117.784V111.412C390.907 110.848 390.763 110.41 390.475 110.098C390.187 109.786 389.767 109.63 389.215 109.63H388.045C387.469 109.63 387.013 109.786 386.677 110.098C386.353 110.398 386.191 110.83 386.191 111.394V117.784C386.191 117.928 386.125 118 385.993 118ZM400.516 118H396.754C395.974 118 395.356 117.772 394.9 117.316C394.456 116.86 394.234 116.236 394.234 115.444V111.376C394.234 110.584 394.456 109.96 394.9 109.504C395.356 109.048 395.974 108.82 396.754 108.82H398.302C399.082 108.82 399.7 109.048 400.156 109.504C400.612 109.96 400.84 110.584 400.84 111.376V113.662C400.84 113.806 400.768 113.878 400.624 113.878H395.296C395.188 113.878 395.134 113.932 395.134 114.04V115.426C395.134 115.99 395.278 116.428 395.566 116.74C395.854 117.04 396.274 117.19 396.826 117.19H400.516C400.648 117.19 400.714 117.256 400.714 117.388V117.802C400.714 117.934 400.648 118 400.516 118ZM395.296 113.158H399.778C399.886 113.158 399.94 113.104 399.94 112.996V111.394C399.94 110.83 399.796 110.398 399.508 110.098C399.22 109.786 398.8 109.63 398.248 109.63H396.826C396.274 109.63 395.854 109.786 395.566 110.098C395.278 110.398 395.134 110.83 395.134 111.394V112.996C395.134 113.104 395.188 113.158 395.296 113.158ZM410.701 117.19H412.753C413.305 117.19 413.725 117.04 414.013 116.74C414.313 116.428 414.463 115.984 414.463 115.408V109.018C414.463 108.442 414.313 108.004 414.013 107.704C413.725 107.392 413.305 107.236 412.753 107.236H410.701C410.149 107.236 409.729 107.392 409.441 107.704C409.153 108.004 409.009 108.442 409.009 109.018V115.408C409.009 115.984 409.153 116.428 409.441 116.74C409.729 117.04 410.149 117.19 410.701 117.19ZM414.211 120.394H413.707C413.551 120.394 413.431 120.322 413.347 120.178L412.015 118H410.629C409.849 118 409.231 117.772 408.775 117.316C408.319 116.86 408.091 116.236 408.091 115.444V108.982C408.091 108.19 408.319 107.566 408.775 107.11C409.231 106.654 409.849 106.426 410.629 106.426H412.825C413.605 106.426 414.223 106.654 414.679 107.11C415.135 107.566 415.363 108.19 415.363 108.982V115.444C415.363 116.2 415.147 116.806 414.715 117.262C414.295 117.718 413.719 117.958 412.987 117.982L414.337 120.16C414.421 120.316 414.379 120.394 414.211 120.394ZM424.519 106.426H425.023C425.155 106.426 425.221 106.492 425.221 106.624V115.444C425.221 116.236 424.993 116.86 424.537 117.316C424.093 117.772 423.481 118 422.701 118H420.685C419.905 118 419.287 117.772 418.831 117.316C418.387 116.86 418.165 116.236 418.165 115.444V106.642C418.165 106.498 418.225 106.426 418.345 106.426H418.867C418.999 106.426 419.065 106.498 419.065 106.642V115.408C419.065 115.972 419.209 116.41 419.497 116.722C419.785 117.034 420.205 117.19 420.757 117.19H422.611C423.163 117.19 423.583 117.04 423.871 116.74C424.171 116.428 424.321 115.984 424.321 115.408V106.642C424.321 106.498 424.387 106.426 424.519 106.426ZM429.266 117.208H432.614C433.754 117.208 434.324 116.632 434.324 115.48V114.238C434.324 113.098 433.7 112.528 432.452 112.528H429.266C429.146 112.528 429.086 112.576 429.086 112.672V117.046C429.086 117.154 429.146 117.208 429.266 117.208ZM429.266 111.736H432.434C432.998 111.736 433.43 111.586 433.73 111.286C434.042 110.986 434.198 110.56 434.198 110.008V108.946C434.198 107.794 433.628 107.218 432.488 107.218H429.266C429.146 107.218 429.086 107.272 429.086 107.38V111.574C429.086 111.682 429.146 111.736 429.266 111.736ZM428.186 117.784V106.642C428.186 106.498 428.246 106.426 428.366 106.426H432.56C433.34 106.426 433.958 106.648 434.414 107.092C434.87 107.536 435.098 108.148 435.098 108.928V110.026C435.098 111.118 434.582 111.82 433.55 112.132C433.994 112.156 434.384 112.36 434.72 112.744C435.056 113.128 435.224 113.626 435.224 114.238V115.498C435.224 116.278 434.996 116.89 434.54 117.334C434.084 117.778 433.466 118 432.686 118H428.366C428.246 118 428.186 117.928 428.186 117.784ZM443.754 118H438.192C438.072 118 438.012 117.928 438.012 117.784V106.642C438.012 106.498 438.072 106.426 438.192 106.426H443.754C443.898 106.426 443.97 106.492 443.97 106.624V107.038C443.97 107.17 443.898 107.236 443.754 107.236H439.092C438.972 107.236 438.912 107.29 438.912 107.398V111.538C438.912 111.646 438.972 111.7 439.092 111.7H443.25C443.382 111.7 443.448 111.766 443.448 111.898V112.312C443.448 112.444 443.382 112.51 443.25 112.51H439.092C438.972 112.51 438.912 112.564 438.912 112.672V117.028C438.912 117.136 438.972 117.19 439.092 117.19H443.754C443.898 117.19 443.97 117.256 443.97 117.388V117.802C443.97 117.934 443.898 118 443.754 118ZM456.427 117.388V117.802C456.427 117.934 456.361 118 456.229 118H453.637C452.857 118 452.239 117.772 451.783 117.316C451.339 116.86 451.117 116.236 451.117 115.444V111.376C451.117 110.584 451.339 109.96 451.783 109.504C452.239 109.048 452.857 108.82 453.637 108.82H456.229C456.361 108.82 456.427 108.886 456.427 109.018V109.45C456.427 109.57 456.361 109.63 456.229 109.63H453.709C453.157 109.63 452.737 109.786 452.449 110.098C452.161 110.41 452.017 110.848 452.017 111.412V115.408C452.017 115.972 452.161 116.41 452.449 116.722C452.737 117.034 453.157 117.19 453.709 117.19H456.229C456.361 117.19 456.427 117.256 456.427 117.388ZM461.873 118H460.721C459.941 118 459.323 117.772 458.867 117.316C458.423 116.86 458.201 116.236 458.201 115.444V111.376C458.201 110.584 458.423 109.96 458.867 109.504C459.323 109.048 459.941 108.82 460.721 108.82H464.537C464.657 108.82 464.717 108.892 464.717 109.036V117.784C464.717 117.928 464.657 118 464.537 118H464.015C463.883 118 463.817 117.928 463.817 117.784V117.064H463.745C463.433 117.688 462.809 118 461.873 118ZM463.817 115.426V109.792C463.817 109.684 463.757 109.63 463.637 109.63H460.793C460.241 109.63 459.821 109.786 459.533 110.098C459.245 110.41 459.101 110.848 459.101 111.412V115.408C459.101 115.972 459.245 116.41 459.533 116.722C459.821 117.034 460.241 117.19 460.793 117.19H461.963C462.539 117.19 462.989 117.04 463.313 116.74C463.649 116.428 463.817 115.99 463.817 115.426ZM468.118 118H467.596C467.476 118 467.416 117.928 467.416 117.784V109.036C467.416 108.892 467.476 108.82 467.596 108.82H468.118C468.25 108.82 468.316 108.892 468.316 109.036V109.756H468.388C468.724 109.132 469.348 108.82 470.26 108.82H471.448C472.216 108.82 472.822 109.048 473.266 109.504C473.71 109.96 473.932 110.584 473.932 111.376V117.784C473.932 117.928 473.872 118 473.752 118H473.23C473.098 118 473.032 117.928 473.032 117.784V111.412C473.032 110.848 472.888 110.41 472.6 110.098C472.312 109.786 471.892 109.63 471.34 109.63H470.17C469.594 109.63 469.138 109.786 468.802 110.098C468.478 110.398 468.316 110.83 468.316 111.394V117.784C468.316 117.928 468.25 118 468.118 118ZM482.418 117.19H485.28C485.832 117.19 486.252 117.04 486.54 116.74C486.84 116.428 486.99 115.984 486.99 115.408V111.25C486.99 110.686 486.84 110.254 486.54 109.954C486.252 109.642 485.832 109.486 485.28 109.486H484.092C483.516 109.486 483.06 109.642 482.724 109.954C482.4 110.254 482.238 110.686 482.238 111.25V117.028C482.238 117.136 482.298 117.19 482.418 117.19ZM481.338 117.784V105.562C481.338 105.418 481.398 105.346 481.518 105.346H482.04C482.172 105.346 482.238 105.418 482.238 105.562V109.612H482.31C482.646 108.988 483.27 108.676 484.182 108.676H485.37C486.15 108.676 486.762 108.904 487.206 109.36C487.662 109.816 487.89 110.434 487.89 111.214V115.444C487.89 116.236 487.662 116.86 487.206 117.316C486.762 117.772 486.15 118 485.37 118H481.518C481.398 118 481.338 117.928 481.338 117.784ZM496.511 118H492.749C491.969 118 491.351 117.772 490.895 117.316C490.451 116.86 490.229 116.236 490.229 115.444V111.376C490.229 110.584 490.451 109.96 490.895 109.504C491.351 109.048 491.969 108.82 492.749 108.82H494.297C495.077 108.82 495.695 109.048 496.151 109.504C496.607 109.96 496.835 110.584 496.835 111.376V113.662C496.835 113.806 496.763 113.878 496.619 113.878H491.291C491.183 113.878 491.129 113.932 491.129 114.04V115.426C491.129 115.99 491.273 116.428 491.561 116.74C491.849 117.04 492.269 117.19 492.821 117.19H496.511C496.643 117.19 496.709 117.256 496.709 117.388V117.802C496.709 117.934 496.643 118 496.511 118ZM491.291 113.158H495.773C495.881 113.158 495.935 113.104 495.935 112.996V111.394C495.935 110.83 495.791 110.398 495.503 110.098C495.215 109.786 494.795 109.63 494.243 109.63H492.821C492.269 109.63 491.849 109.786 491.561 110.098C491.273 110.398 491.129 110.83 491.129 111.394V112.996C491.129 113.104 491.183 113.158 491.291 113.158ZM1.44 130.308V128.58C1.44 128.448 1.5 128.382 1.62 128.382H2.16C2.28 128.382 2.34 128.448 2.34 128.58V130.308C2.34 130.452 2.28 130.524 2.16 130.524H1.62C1.5 130.524 1.44 130.452 1.44 130.308ZM1.44 140.784V132.036C1.44 131.892 1.5 131.82 1.62 131.82H2.142C2.274 131.82 2.34 131.892 2.34 132.036V140.784C2.34 140.928 2.28 141 2.16 141H1.62C1.5 141 1.44 140.928 1.44 140.784ZM5.8313 141H5.3093C5.1893 141 5.1293 140.928 5.1293 140.784V132.036C5.1293 131.892 5.1893 131.82 5.3093 131.82H5.8313C5.9633 131.82 6.0293 131.892 6.0293 132.036V132.756H6.1013C6.4373 132.132 7.0613 131.82 7.9733 131.82H9.1613C9.9293 131.82 10.5353 132.048 10.9793 132.504C11.4233 132.96 11.6453 133.584 11.6453 134.376V140.784C11.6453 140.928 11.5853 141 11.4653 141H10.9433C10.8113 141 10.7453 140.928 10.7453 140.784V134.412C10.7453 133.848 10.6013 133.41 10.3133 133.098C10.0253 132.786 9.6053 132.63 9.0533 132.63H7.8833C7.3073 132.63 6.8513 132.786 6.5153 133.098C6.1913 133.398 6.0293 133.83 6.0293 134.394V140.784C6.0293 140.928 5.9633 141 5.8313 141ZM22.5432 141H21.3912C20.6112 141 19.9932 140.772 19.5372 140.316C19.0932 139.86 18.8712 139.236 18.8712 138.444V134.376C18.8712 133.584 19.0932 132.96 19.5372 132.504C19.9932 132.048 20.6112 131.82 21.3912 131.82H25.2072C25.3272 131.82 25.3872 131.892 25.3872 132.036V140.784C25.3872 140.928 25.3272 141 25.2072 141H24.6852C24.5532 141 24.4872 140.928 24.4872 140.784V140.064H24.4152C24.1032 140.688 23.4792 141 22.5432 141ZM24.4872 138.426V132.792C24.4872 132.684 24.4272 132.63 24.3072 132.63H21.4632C20.9112 132.63 20.4912 132.786 20.2032 133.098C19.9152 133.41 19.7712 133.848 19.7712 134.412V138.408C19.7712 138.972 19.9152 139.41 20.2032 139.722C20.4912 140.034 20.9112 140.19 21.4632 140.19H22.6332C23.2092 140.19 23.6592 140.04 23.9832 139.74C24.3192 139.428 24.4872 138.99 24.4872 138.426ZM32.0392 131.82H32.5972C32.7172 131.82 32.7952 131.892 32.8312 132.036L35.2432 139.992H35.3152L37.7092 132.036C37.7572 131.892 37.8352 131.82 37.9432 131.82H38.5192C38.6512 131.82 38.6932 131.892 38.6452 132.036L35.9272 140.784C35.8912 140.928 35.8072 141 35.6752 141H34.8832C34.7512 141 34.6612 140.928 34.6132 140.784L31.8952 132.036C31.8592 131.892 31.9072 131.82 32.0392 131.82ZM43.8654 141H42.7134C41.9334 141 41.3154 140.772 40.8594 140.316C40.4154 139.86 40.1934 139.236 40.1934 138.444V134.376C40.1934 133.584 40.4154 132.96 40.8594 132.504C41.3154 132.048 41.9334 131.82 42.7134 131.82H46.5294C46.6494 131.82 46.7094 131.892 46.7094 132.036V140.784C46.7094 140.928 46.6494 141 46.5294 141H46.0074C45.8754 141 45.8094 140.928 45.8094 140.784V140.064H45.7374C45.4254 140.688 44.8014 141 43.8654 141ZM45.8094 138.426V132.792C45.8094 132.684 45.7494 132.63 45.6294 132.63H42.7854C42.2334 132.63 41.8134 132.786 41.5254 133.098C41.2374 133.41 41.0934 133.848 41.0934 134.412V138.408C41.0934 138.972 41.2374 139.41 41.5254 139.722C41.8134 140.034 42.2334 140.19 42.7854 140.19H43.9554C44.5314 140.19 44.9814 140.04 45.3054 139.74C45.6414 139.428 45.8094 138.99 45.8094 138.426ZM50.1106 141H49.5886C49.4686 141 49.4086 140.928 49.4086 140.784V132.036C49.4086 131.892 49.4686 131.82 49.5886 131.82H50.1106C50.2426 131.82 50.3086 131.892 50.3086 132.036V132.792H50.3806C50.5126 132.54 50.7466 132.318 51.0826 132.126C51.4186 131.922 51.8326 131.82 52.3246 131.82H53.0266C53.1586 131.82 53.2246 131.886 53.2246 132.018V132.45C53.2246 132.582 53.1586 132.642 53.0266 132.63H52.1806C51.5926 132.63 51.1306 132.81 50.7946 133.17C50.4706 133.53 50.3086 134.016 50.3086 134.628V140.784C50.3086 140.928 50.2426 141 50.1106 141ZM55.1412 130.308V128.58C55.1412 128.448 55.2012 128.382 55.3212 128.382H55.8612C55.9812 128.382 56.0412 128.448 56.0412 128.58V130.308C56.0412 130.452 55.9812 130.524 55.8612 130.524H55.3212C55.2012 130.524 55.1412 130.452 55.1412 130.308ZM55.1412 140.784V132.036C55.1412 131.892 55.2012 131.82 55.3212 131.82H55.8432C55.9752 131.82 56.0412 131.892 56.0412 132.036V140.784C56.0412 140.928 55.9812 141 55.8612 141H55.3212C55.2012 141 55.1412 140.928 55.1412 140.784ZM64.9325 141H61.1705C60.3905 141 59.7725 140.772 59.3165 140.316C58.8725 139.86 58.6505 139.236 58.6505 138.444V134.376C58.6505 133.584 58.8725 132.96 59.3165 132.504C59.7725 132.048 60.3905 131.82 61.1705 131.82H62.7185C63.4985 131.82 64.1165 132.048 64.5725 132.504C65.0285 132.96 65.2565 133.584 65.2565 134.376V136.662C65.2565 136.806 65.1845 136.878 65.0405 136.878H59.7125C59.6045 136.878 59.5505 136.932 59.5505 137.04V138.426C59.5505 138.99 59.6945 139.428 59.9825 139.74C60.2705 140.04 60.6905 140.19 61.2425 140.19H64.9325C65.0645 140.19 65.1305 140.256 65.1305 140.388V140.802C65.1305 140.934 65.0645 141 64.9325 141ZM59.7125 136.158H64.1945C64.3025 136.158 64.3565 136.104 64.3565 135.996V134.394C64.3565 133.83 64.2125 133.398 63.9245 133.098C63.6365 132.786 63.2165 132.63 62.6645 132.63H61.2425C60.6905 132.63 60.2705 132.786 59.9825 133.098C59.6945 133.398 59.5505 133.83 59.5505 134.394V135.996C59.5505 136.104 59.6045 136.158 59.7125 136.158ZM68.0858 132.63H66.9878C66.8558 132.63 66.7898 132.57 66.7898 132.45V132.018C66.7898 131.886 66.8558 131.82 66.9878 131.82H68.0858C68.1938 131.82 68.2478 131.766 68.2478 131.658V130.2C68.2478 130.056 68.3138 129.984 68.4458 129.984H68.9678C69.0998 129.984 69.1658 130.056 69.1658 130.2V131.658C69.1658 131.766 69.2198 131.82 69.3278 131.82H71.4698C71.6018 131.82 71.6678 131.886 71.6678 132.018V132.45C71.6678 132.57 71.6018 132.63 71.4698 132.63H69.3278C69.2198 132.63 69.1658 132.684 69.1658 132.792V138.462C69.1658 139.014 69.3218 139.44 69.6338 139.74C69.9458 140.04 70.3838 140.19 70.9478 140.19H71.6498C71.7818 140.19 71.8478 140.256 71.8478 140.388V140.802C71.8478 140.934 71.7818 141 71.6498 141H70.8758C70.0838 141 69.4478 140.778 68.9678 140.334C68.4878 139.89 68.2478 139.278 68.2478 138.498V132.792C68.2478 132.684 68.1938 132.63 68.0858 132.63ZM74.3621 143.736H73.6961C73.5641 143.736 73.4981 143.67 73.4981 143.538V143.106C73.4981 142.974 73.5641 142.908 73.6961 142.908H74.1821C74.5421 142.908 74.8481 142.854 75.1001 142.746C75.3521 142.65 75.5741 142.464 75.7661 142.188C75.9581 141.912 76.0841 141.696 76.1441 141.54C76.3121 141.168 76.4501 140.826 76.5581 140.514H76.2161C76.0841 140.514 76.0001 140.442 75.9641 140.298L73.1021 132.036C73.0541 131.892 73.1021 131.82 73.2461 131.82H73.8041C73.9241 131.82 74.0021 131.892 74.0381 132.036L76.6841 139.758H76.7561L79.4021 132.036C79.4381 131.892 79.5161 131.82 79.6361 131.82H80.1761C80.3201 131.82 80.3741 131.892 80.3381 132.036C78.1901 138.324 77.0681 141.576 76.9721 141.792C76.8881 142.008 76.7261 142.302 76.4861 142.674C76.0301 143.382 75.3221 143.736 74.3621 143.736ZM90.8786 141H89.3306C88.5506 141 87.9326 140.772 87.4766 140.316C87.0326 139.86 86.8106 139.236 86.8106 138.444V134.376C86.8106 133.584 87.0326 132.96 87.4766 132.504C87.9326 132.048 88.5506 131.82 89.3306 131.82H90.8786C91.6586 131.82 92.2766 132.048 92.7326 132.504C93.1886 132.96 93.4166 133.584 93.4166 134.376V138.444C93.4166 139.236 93.1886 139.86 92.7326 140.316C92.2766 140.772 91.6586 141 90.8786 141ZM89.4026 140.19H90.8066C91.3586 140.19 91.7786 140.04 92.0666 139.74C92.3666 139.428 92.5166 138.99 92.5166 138.426V134.394C92.5166 133.83 92.3666 133.398 92.0666 133.098C91.7786 132.786 91.3586 132.63 90.8066 132.63H89.4026C88.8506 132.63 88.4306 132.786 88.1426 133.098C87.8546 133.398 87.7106 133.83 87.7106 134.394V138.426C87.7106 138.99 87.8546 139.428 88.1426 139.74C88.4306 140.04 88.8506 140.19 89.4026 140.19ZM97.8103 131.82H99.4483C99.5923 131.82 99.6643 131.886 99.6643 132.018V132.432C99.6643 132.564 99.5923 132.63 99.4483 132.63H97.8103C97.7023 132.63 97.6483 132.684 97.6483 132.792V140.784C97.6483 140.928 97.5823 141 97.4503 141H96.9283C96.7963 141 96.7303 140.928 96.7303 140.784V132.792C96.7303 132.684 96.6763 132.63 96.5683 132.63H95.4163C95.2843 132.63 95.2183 132.564 95.2183 132.432V132.018C95.2183 131.886 95.2843 131.82 95.4163 131.82H96.5683C96.6763 131.82 96.7303 131.766 96.7303 131.658V130.866C96.7303 129.186 97.4923 128.346 99.0163 128.346H99.4483C99.5923 128.346 99.6643 128.412 99.6643 128.544V128.958C99.6643 129.09 99.5923 129.156 99.4483 129.156H99.1063C98.5663 129.156 98.1883 129.3 97.9723 129.588C97.7563 129.876 97.6483 130.314 97.6483 130.902V131.658C97.6483 131.766 97.7023 131.82 97.8103 131.82ZM108.67 141H107.95C107.83 141 107.752 140.928 107.716 140.784L105.196 132.036C105.16 131.892 105.208 131.82 105.34 131.82H105.916C106.048 131.82 106.126 131.892 106.15 132.036L108.274 139.866H108.364L110.452 132.036C110.476 131.892 110.56 131.82 110.704 131.82H111.226C111.37 131.82 111.454 131.892 111.478 132.036L113.53 139.866H113.62L115.762 132.036C115.798 131.892 115.876 131.82 115.996 131.82H116.572C116.716 131.82 116.764 131.892 116.716 132.036L114.214 140.784C114.178 140.928 114.094 141 113.962 141H113.242C113.11 141 113.026 140.928 112.99 140.784L110.992 133.188H110.902L108.922 140.784C108.886 140.928 108.802 141 108.67 141ZM121.947 141H120.795C120.015 141 119.397 140.772 118.941 140.316C118.497 139.86 118.275 139.236 118.275 138.444V134.376C118.275 133.584 118.497 132.96 118.941 132.504C119.397 132.048 120.015 131.82 120.795 131.82H124.611C124.731 131.82 124.791 131.892 124.791 132.036V140.784C124.791 140.928 124.731 141 124.611 141H124.089C123.957 141 123.891 140.928 123.891 140.784V140.064H123.819C123.507 140.688 122.883 141 121.947 141ZM123.891 138.426V132.792C123.891 132.684 123.831 132.63 123.711 132.63H120.867C120.315 132.63 119.895 132.786 119.607 133.098C119.319 133.41 119.175 133.848 119.175 134.412V138.408C119.175 138.972 119.319 139.41 119.607 139.722C119.895 140.034 120.315 140.19 120.867 140.19H122.037C122.613 140.19 123.063 140.04 123.387 139.74C123.723 139.428 123.891 138.99 123.891 138.426ZM127.923 143.736H127.257C127.125 143.736 127.059 143.67 127.059 143.538V143.106C127.059 142.974 127.125 142.908 127.257 142.908H127.743C128.103 142.908 128.409 142.854 128.661 142.746C128.913 142.65 129.135 142.464 129.327 142.188C129.519 141.912 129.645 141.696 129.705 141.54C129.873 141.168 130.011 140.826 130.119 140.514H129.777C129.645 140.514 129.561 140.442 129.525 140.298L126.663 132.036C126.615 131.892 126.663 131.82 126.807 131.82H127.365C127.485 131.82 127.563 131.892 127.599 132.036L130.245 139.758H130.317L132.963 132.036C132.999 131.892 133.077 131.82 133.197 131.82H133.737C133.881 131.82 133.935 131.892 133.899 132.036C131.751 138.324 130.629 141.576 130.533 141.792C130.449 142.008 130.287 142.302 130.047 142.674C129.591 143.382 128.883 143.736 127.923 143.736ZM138.722 141H135.59C135.458 141 135.392 140.934 135.392 140.802V140.388C135.392 140.268 135.458 140.208 135.59 140.208H138.632C139.712 140.208 140.252 139.788 140.252 138.948V138.516C140.252 137.736 139.916 137.226 139.244 136.986L136.994 136.122C136.382 135.882 135.944 135.6 135.68 135.276C135.428 134.952 135.302 134.502 135.302 133.926C135.302 132.522 136.076 131.82 137.624 131.82H140.54C140.672 131.82 140.738 131.886 140.738 132.018V132.432C140.738 132.552 140.672 132.612 140.54 132.612H137.714C137.222 132.612 136.85 132.72 136.598 132.936C136.358 133.152 136.238 133.404 136.238 133.692V134.106C136.238 134.442 136.328 134.706 136.508 134.898C136.7 135.09 136.988 135.252 137.372 135.384L139.622 136.284C140.246 136.488 140.66 136.794 140.864 137.202C141.08 137.598 141.188 138.156 141.188 138.876C141.188 139.596 140.984 140.13 140.576 140.478C140.18 140.826 139.562 141 138.722 141ZM144.368 138.642V140.046C144.368 140.274 144.302 140.616 144.17 141.072L143.648 142.71C143.636 142.794 143.582 142.836 143.486 142.836C143.402 142.836 143.36 142.782 143.36 142.674V138.642C143.36 138.51 143.426 138.444 143.558 138.444H144.188C144.308 138.444 144.368 138.51 144.368 138.642ZM155.258 141H154.052C153.284 141 152.678 140.772 152.234 140.316C151.79 139.86 151.568 139.236 151.568 138.444V134.376C151.568 133.584 151.79 132.96 152.234 132.504C152.678 132.048 153.284 131.82 154.052 131.82H155.258C156.182 131.82 156.812 132.132 157.148 132.756H157.22V128.562C157.22 128.418 157.28 128.346 157.4 128.346H157.922C158.054 128.346 158.12 128.418 158.12 128.562V140.784C158.12 140.928 158.054 141 157.922 141H157.4C157.28 141 157.22 140.928 157.22 140.784V140.064H157.148C156.812 140.688 156.182 141 155.258 141ZM157.22 138.426V134.394C157.22 133.83 157.052 133.398 156.716 133.098C156.392 132.786 155.942 132.63 155.366 132.63H154.16C153.608 132.63 153.188 132.786 152.9 133.098C152.612 133.41 152.468 133.848 152.468 134.412V138.408C152.468 138.972 152.612 139.41 152.9 139.722C153.188 140.034 153.608 140.19 154.16 140.19H155.366C155.942 140.19 156.392 140.04 156.716 139.74C157.052 139.428 157.22 138.99 157.22 138.426ZM166.921 141H163.159C162.379 141 161.761 140.772 161.305 140.316C160.861 139.86 160.639 139.236 160.639 138.444V134.376C160.639 133.584 160.861 132.96 161.305 132.504C161.761 132.048 162.379 131.82 163.159 131.82H164.707C165.487 131.82 166.105 132.048 166.561 132.504C167.017 132.96 167.245 133.584 167.245 134.376V136.662C167.245 136.806 167.173 136.878 167.029 136.878H161.701C161.593 136.878 161.539 136.932 161.539 137.04V138.426C161.539 138.99 161.683 139.428 161.971 139.74C162.259 140.04 162.679 140.19 163.231 140.19H166.921C167.053 140.19 167.119 140.256 167.119 140.388V140.802C167.119 140.934 167.053 141 166.921 141ZM161.701 136.158H166.183C166.291 136.158 166.345 136.104 166.345 135.996V134.394C166.345 133.83 166.201 133.398 165.913 133.098C165.625 132.786 165.205 132.63 164.653 132.63H163.231C162.679 132.63 162.259 132.786 161.971 133.098C161.683 133.398 161.539 133.83 161.539 134.394V135.996C161.539 136.104 161.593 136.158 161.701 136.158ZM170.38 143.682H169.858C169.738 143.682 169.678 143.616 169.678 143.484V132.036C169.678 131.892 169.738 131.82 169.858 131.82H170.38C170.512 131.82 170.578 131.892 170.578 132.036V132.756H170.65C170.986 132.132 171.61 131.82 172.522 131.82H173.746C174.514 131.82 175.12 132.048 175.564 132.504C176.008 132.96 176.23 133.584 176.23 134.376V138.444C176.23 139.236 176.008 139.86 175.564 140.316C175.12 140.772 174.514 141 173.746 141H172.522C171.61 141 170.986 140.688 170.65 140.064H170.578V143.484C170.578 143.616 170.512 143.682 170.38 143.682ZM172.432 140.19H173.62C174.172 140.19 174.592 140.04 174.88 139.74C175.18 139.428 175.33 138.984 175.33 138.408V134.412C175.33 133.836 175.18 133.398 174.88 133.098C174.592 132.786 174.172 132.63 173.62 132.63H172.432C171.856 132.63 171.4 132.786 171.064 133.098C170.74 133.398 170.578 133.83 170.578 134.394V138.426C170.578 138.99 170.74 139.428 171.064 139.74C171.4 140.04 171.856 140.19 172.432 140.19ZM184.85 141H181.088C180.308 141 179.69 140.772 179.234 140.316C178.79 139.86 178.568 139.236 178.568 138.444V134.376C178.568 133.584 178.79 132.96 179.234 132.504C179.69 132.048 180.308 131.82 181.088 131.82H182.636C183.416 131.82 184.034 132.048 184.49 132.504C184.946 132.96 185.174 133.584 185.174 134.376V136.662C185.174 136.806 185.102 136.878 184.958 136.878H179.63C179.522 136.878 179.468 136.932 179.468 137.04V138.426C179.468 138.99 179.612 139.428 179.9 139.74C180.188 140.04 180.608 140.19 181.16 140.19H184.85C184.982 140.19 185.048 140.256 185.048 140.388V140.802C185.048 140.934 184.982 141 184.85 141ZM179.63 136.158H184.112C184.22 136.158 184.274 136.104 184.274 135.996V134.394C184.274 133.83 184.13 133.398 183.842 133.098C183.554 132.786 183.134 132.63 182.582 132.63H181.16C180.608 132.63 180.188 132.786 179.9 133.098C179.612 133.398 179.468 133.83 179.468 134.394V135.996C179.468 136.104 179.522 136.158 179.63 136.158ZM188.31 141H187.788C187.668 141 187.608 140.928 187.608 140.784V132.036C187.608 131.892 187.668 131.82 187.788 131.82H188.31C188.442 131.82 188.508 131.892 188.508 132.036V132.756H188.58C188.916 132.132 189.54 131.82 190.452 131.82H191.64C192.408 131.82 193.014 132.048 193.458 132.504C193.902 132.96 194.124 133.584 194.124 134.376V140.784C194.124 140.928 194.064 141 193.944 141H193.422C193.29 141 193.224 140.928 193.224 140.784V134.412C193.224 133.848 193.08 133.41 192.792 133.098C192.504 132.786 192.084 132.63 191.532 132.63H190.362C189.786 132.63 189.33 132.786 188.994 133.098C188.67 133.398 188.508 133.83 188.508 134.394V140.784C188.508 140.928 188.442 141 188.31 141ZM200.241 141H199.035C198.267 141 197.661 140.772 197.217 140.316C196.773 139.86 196.551 139.236 196.551 138.444V134.376C196.551 133.584 196.773 132.96 197.217 132.504C197.661 132.048 198.267 131.82 199.035 131.82H200.241C201.165 131.82 201.795 132.132 202.131 132.756H202.203V128.562C202.203 128.418 202.263 128.346 202.383 128.346H202.905C203.037 128.346 203.103 128.418 203.103 128.562V140.784C203.103 140.928 203.037 141 202.905 141H202.383C202.263 141 202.203 140.928 202.203 140.784V140.064H202.131C201.795 140.688 201.165 141 200.241 141ZM202.203 138.426V134.394C202.203 133.83 202.035 133.398 201.699 133.098C201.375 132.786 200.925 132.63 200.349 132.63H199.143C198.591 132.63 198.171 132.786 197.883 133.098C197.595 133.41 197.451 133.848 197.451 134.412V138.408C197.451 138.972 197.595 139.41 197.883 139.722C198.171 140.034 198.591 140.19 199.143 140.19H200.349C200.925 140.19 201.375 140.04 201.699 139.74C202.035 139.428 202.203 138.99 202.203 138.426ZM205.891 130.308V128.58C205.891 128.448 205.951 128.382 206.071 128.382H206.611C206.731 128.382 206.791 128.448 206.791 128.58V130.308C206.791 130.452 206.731 130.524 206.611 130.524H206.071C205.951 130.524 205.891 130.452 205.891 130.308ZM205.891 140.784V132.036C205.891 131.892 205.951 131.82 206.071 131.82H206.593C206.725 131.82 206.791 131.892 206.791 132.036V140.784C206.791 140.928 206.731 141 206.611 141H206.071C205.951 141 205.891 140.928 205.891 140.784ZM210.282 141H209.76C209.64 141 209.58 140.928 209.58 140.784V132.036C209.58 131.892 209.64 131.82 209.76 131.82H210.282C210.414 131.82 210.48 131.892 210.48 132.036V132.756H210.552C210.888 132.132 211.512 131.82 212.424 131.82H213.612C214.38 131.82 214.986 132.048 215.43 132.504C215.874 132.96 216.096 133.584 216.096 134.376V140.784C216.096 140.928 216.036 141 215.916 141H215.394C215.262 141 215.196 140.928 215.196 140.784V134.412C215.196 133.848 215.052 133.41 214.764 133.098C214.476 132.786 214.056 132.63 213.504 132.63H212.334C211.758 132.63 211.302 132.786 210.966 133.098C210.642 133.398 210.48 133.83 210.48 134.394V140.784C210.48 140.928 210.414 141 210.282 141ZM222.268 140.478H221.098C220.33 140.478 219.718 140.25 219.262 139.794C218.818 139.338 218.596 138.72 218.596 137.94V134.376C218.596 133.584 218.818 132.96 219.262 132.504C219.718 132.048 220.336 131.82 221.116 131.82H224.932C225.064 131.82 225.13 131.892 225.13 132.036V140.964C225.13 141.756 224.902 142.38 224.446 142.836C223.99 143.292 223.372 143.52 222.592 143.52H219.316C219.184 143.52 219.118 143.454 219.118 143.322V142.89C219.118 142.77 219.184 142.71 219.316 142.71H222.52C223.072 142.71 223.492 142.554 223.78 142.242C224.068 141.942 224.212 141.504 224.212 140.928V139.542H224.14C223.84 140.166 223.216 140.478 222.268 140.478ZM224.212 137.904V132.792C224.212 132.684 224.158 132.63 224.05 132.63H221.206C220.654 132.63 220.228 132.786 219.928 133.098C219.64 133.398 219.496 133.836 219.496 134.412V137.904C219.496 138.468 219.64 138.906 219.928 139.218C220.228 139.518 220.654 139.668 221.206 139.668H222.358C222.934 139.668 223.384 139.518 223.708 139.218C224.044 138.906 224.212 138.468 224.212 137.904ZM236.496 141H234.948C234.168 141 233.55 140.772 233.094 140.316C232.65 139.86 232.428 139.236 232.428 138.444V134.376C232.428 133.584 232.65 132.96 233.094 132.504C233.55 132.048 234.168 131.82 234.948 131.82H236.496C237.276 131.82 237.894 132.048 238.35 132.504C238.806 132.96 239.034 133.584 239.034 134.376V138.444C239.034 139.236 238.806 139.86 238.35 140.316C237.894 140.772 237.276 141 236.496 141ZM235.02 140.19H236.424C236.976 140.19 237.396 140.04 237.684 139.74C237.984 139.428 238.134 138.99 238.134 138.426V134.394C238.134 133.83 237.984 133.398 237.684 133.098C237.396 132.786 236.976 132.63 236.424 132.63H235.02C234.468 132.63 234.048 132.786 233.76 133.098C233.472 133.398 233.328 133.83 233.328 134.394V138.426C233.328 138.99 233.472 139.428 233.76 139.74C234.048 140.04 234.468 140.19 235.02 140.19ZM242.24 141H241.718C241.598 141 241.538 140.928 241.538 140.784V132.036C241.538 131.892 241.598 131.82 241.718 131.82H242.24C242.372 131.82 242.438 131.892 242.438 132.036V132.756H242.51C242.846 132.132 243.47 131.82 244.382 131.82H245.57C246.338 131.82 246.944 132.048 247.388 132.504C247.832 132.96 248.054 133.584 248.054 134.376V140.784C248.054 140.928 247.994 141 247.874 141H247.352C247.22 141 247.154 140.928 247.154 140.784V134.412C247.154 133.848 247.01 133.41 246.722 133.098C246.434 132.786 246.014 132.63 245.462 132.63H244.292C243.716 132.63 243.26 132.786 242.924 133.098C242.6 133.398 242.438 133.83 242.438 134.394V140.784C242.438 140.928 242.372 141 242.24 141ZM255.855 132.63H254.757C254.625 132.63 254.559 132.57 254.559 132.45V132.018C254.559 131.886 254.625 131.82 254.757 131.82H255.855C255.963 131.82 256.017 131.766 256.017 131.658V130.2C256.017 130.056 256.083 129.984 256.215 129.984H256.737C256.869 129.984 256.935 130.056 256.935 130.2V131.658C256.935 131.766 256.989 131.82 257.097 131.82H259.239C259.371 131.82 259.437 131.886 259.437 132.018V132.45C259.437 132.57 259.371 132.63 259.239 132.63H257.097C256.989 132.63 256.935 132.684 256.935 132.792V138.462C256.935 139.014 257.091 139.44 257.403 139.74C257.715 140.04 258.153 140.19 258.717 140.19H259.419C259.551 140.19 259.617 140.256 259.617 140.388V140.802C259.617 140.934 259.551 141 259.419 141H258.645C257.853 141 257.217 140.778 256.737 140.334C256.257 139.89 256.017 139.278 256.017 138.498V132.792C256.017 132.684 255.963 132.63 255.855 132.63ZM262.402 141H261.88C261.76 141 261.7 140.928 261.7 140.784V128.562C261.7 128.418 261.76 128.346 261.88 128.346H262.402C262.534 128.346 262.6 128.418 262.6 128.562V132.756H262.672C263.008 132.132 263.632 131.82 264.544 131.82H265.732C266.5 131.82 267.106 132.048 267.55 132.504C267.994 132.96 268.216 133.584 268.216 134.376V140.784C268.216 140.928 268.156 141 268.036 141H267.514C267.382 141 267.316 140.928 267.316 140.784V134.412C267.316 133.848 267.172 133.41 266.884 133.098C266.596 132.786 266.176 132.63 265.624 132.63H264.454C263.878 132.63 263.422 132.786 263.086 133.098C262.762 133.398 262.6 133.83 262.6 134.394V140.784C262.6 140.928 262.534 141 262.402 141ZM276.925 141H273.163C272.383 141 271.765 140.772 271.309 140.316C270.865 139.86 270.643 139.236 270.643 138.444V134.376C270.643 133.584 270.865 132.96 271.309 132.504C271.765 132.048 272.383 131.82 273.163 131.82H274.711C275.491 131.82 276.109 132.048 276.565 132.504C277.021 132.96 277.249 133.584 277.249 134.376V136.662C277.249 136.806 277.177 136.878 277.033 136.878H271.705C271.597 136.878 271.543 136.932 271.543 137.04V138.426C271.543 138.99 271.687 139.428 271.975 139.74C272.263 140.04 272.683 140.19 273.235 140.19H276.925C277.057 140.19 277.123 140.256 277.123 140.388V140.802C277.123 140.934 277.057 141 276.925 141ZM271.705 136.158H276.187C276.295 136.158 276.349 136.104 276.349 135.996V134.394C276.349 133.83 276.205 133.398 275.917 133.098C275.629 132.786 275.209 132.63 274.657 132.63H273.235C272.683 132.63 272.263 132.786 271.975 133.098C271.687 133.398 271.543 133.83 271.543 134.394V135.996C271.543 136.104 271.597 136.158 271.705 136.158ZM288.063 141H286.875C286.107 141 285.501 140.772 285.057 140.316C284.613 139.86 284.391 139.236 284.391 138.444V132.036C284.391 131.892 284.451 131.82 284.571 131.82H285.093C285.225 131.82 285.291 131.892 285.291 132.036V138.408C285.291 138.972 285.435 139.41 285.723 139.722C286.011 140.034 286.431 140.19 286.983 140.19H288.153C288.729 140.19 289.179 140.04 289.503 139.74C289.839 139.428 290.007 138.99 290.007 138.426V132.036C290.007 131.892 290.073 131.82 290.205 131.82H290.727C290.847 131.82 290.907 131.892 290.907 132.036V140.784C290.907 140.928 290.847 141 290.727 141H290.205C290.073 141 290.007 140.928 290.007 140.784V140.064H289.935C289.623 140.688 288.999 141 288.063 141ZM296.574 141H293.442C293.31 141 293.244 140.934 293.244 140.802V140.388C293.244 140.268 293.31 140.208 293.442 140.208H296.484C297.564 140.208 298.104 139.788 298.104 138.948V138.516C298.104 137.736 297.768 137.226 297.096 136.986L294.846 136.122C294.234 135.882 293.796 135.6 293.532 135.276C293.28 134.952 293.154 134.502 293.154 133.926C293.154 132.522 293.928 131.82 295.476 131.82H298.392C298.524 131.82 298.59 131.886 298.59 132.018V132.432C298.59 132.552 298.524 132.612 298.392 132.612H295.566C295.074 132.612 294.702 132.72 294.45 132.936C294.21 133.152 294.09 133.404 294.09 133.692V134.106C294.09 134.442 294.18 134.706 294.36 134.898C294.552 135.09 294.84 135.252 295.224 135.384L297.474 136.284C298.098 136.488 298.512 136.794 298.716 137.202C298.932 137.598 299.04 138.156 299.04 138.876C299.04 139.596 298.836 140.13 298.428 140.478C298.032 140.826 297.414 141 296.574 141ZM307.458 141H303.696C302.916 141 302.298 140.772 301.842 140.316C301.398 139.86 301.176 139.236 301.176 138.444V134.376C301.176 133.584 301.398 132.96 301.842 132.504C302.298 132.048 302.916 131.82 303.696 131.82H305.244C306.024 131.82 306.642 132.048 307.098 132.504C307.554 132.96 307.782 133.584 307.782 134.376V136.662C307.782 136.806 307.71 136.878 307.566 136.878H302.238C302.13 136.878 302.076 136.932 302.076 137.04V138.426C302.076 138.99 302.22 139.428 302.508 139.74C302.796 140.04 303.216 140.19 303.768 140.19H307.458C307.59 140.19 307.656 140.256 307.656 140.388V140.802C307.656 140.934 307.59 141 307.458 141ZM302.238 136.158H306.72C306.828 136.158 306.882 136.104 306.882 135.996V134.394C306.882 133.83 306.738 133.398 306.45 133.098C306.162 132.786 305.742 132.63 305.19 132.63H303.768C303.216 132.63 302.796 132.786 302.508 133.098C302.22 133.398 302.076 133.83 302.076 134.394V135.996C302.076 136.104 302.13 136.158 302.238 136.158ZM310.917 141H310.395C310.275 141 310.215 140.928 310.215 140.784V132.036C310.215 131.892 310.275 131.82 310.395 131.82H310.917C311.049 131.82 311.115 131.892 311.115 132.036V132.792H311.187C311.319 132.54 311.553 132.318 311.889 132.126C312.225 131.922 312.639 131.82 313.131 131.82H313.833C313.965 131.82 314.031 131.886 314.031 132.018V132.45C314.031 132.582 313.965 132.642 313.833 132.63H312.987C312.399 132.63 311.937 132.81 311.601 133.17C311.277 133.53 311.115 134.016 311.115 134.628V140.784C311.115 140.928 311.049 141 310.917 141ZM316.596 129.624V130.866C316.596 131.058 316.53 131.418 316.398 131.946L315.93 133.584C315.918 133.668 315.864 133.71 315.768 133.71C315.684 133.71 315.642 133.656 315.642 133.548V129.624C315.642 129.492 315.708 129.426 315.84 129.426H316.398C316.53 129.426 316.596 129.492 316.596 129.624ZM322.045 141H318.913C318.781 141 318.715 140.934 318.715 140.802V140.388C318.715 140.268 318.781 140.208 318.913 140.208H321.955C323.035 140.208 323.575 139.788 323.575 138.948V138.516C323.575 137.736 323.239 137.226 322.567 136.986L320.317 136.122C319.705 135.882 319.267 135.6 319.003 135.276C318.751 134.952 318.625 134.502 318.625 133.926C318.625 132.522 319.399 131.82 320.947 131.82H323.863C323.995 131.82 324.061 131.886 324.061 132.018V132.432C324.061 132.552 323.995 132.612 323.863 132.612H321.037C320.545 132.612 320.173 132.72 319.921 132.936C319.681 133.152 319.561 133.404 319.561 133.692V134.106C319.561 134.442 319.651 134.706 319.831 134.898C320.023 135.09 320.311 135.252 320.695 135.384L322.945 136.284C323.569 136.488 323.983 136.794 324.187 137.202C324.403 137.598 324.511 138.156 324.511 138.876C324.511 139.596 324.307 140.13 323.899 140.478C323.503 140.826 322.885 141 322.045 141ZM335.189 140.478H334.019C333.251 140.478 332.639 140.25 332.183 139.794C331.739 139.338 331.517 138.72 331.517 137.94V134.376C331.517 133.584 331.739 132.96 332.183 132.504C332.639 132.048 333.257 131.82 334.037 131.82H337.853C337.985 131.82 338.051 131.892 338.051 132.036V140.964C338.051 141.756 337.823 142.38 337.367 142.836C336.911 143.292 336.293 143.52 335.513 143.52H332.237C332.105 143.52 332.039 143.454 332.039 143.322V142.89C332.039 142.77 332.105 142.71 332.237 142.71H335.441C335.993 142.71 336.413 142.554 336.701 142.242C336.989 141.942 337.133 141.504 337.133 140.928V139.542H337.061C336.761 140.166 336.137 140.478 335.189 140.478ZM337.133 137.904V132.792C337.133 132.684 337.079 132.63 336.971 132.63H334.127C333.575 132.63 333.149 132.786 332.849 133.098C332.561 133.398 332.417 133.836 332.417 134.412V137.904C332.417 138.468 332.561 138.906 332.849 139.218C333.149 139.518 333.575 139.668 334.127 139.668H335.279C335.855 139.668 336.305 139.518 336.629 139.218C336.965 138.906 337.133 138.468 337.133 137.904ZM344.619 141H343.071C342.291 141 341.673 140.772 341.217 140.316C340.773 139.86 340.551 139.236 340.551 138.444V134.376C340.551 133.584 340.773 132.96 341.217 132.504C341.673 132.048 342.291 131.82 343.071 131.82H344.619C345.399 131.82 346.017 132.048 346.473 132.504C346.929 132.96 347.157 133.584 347.157 134.376V138.444C347.157 139.236 346.929 139.86 346.473 140.316C346.017 140.772 345.399 141 344.619 141ZM343.143 140.19H344.547C345.099 140.19 345.519 140.04 345.807 139.74C346.107 139.428 346.257 138.99 346.257 138.426V134.394C346.257 133.83 346.107 133.398 345.807 133.098C345.519 132.786 345.099 132.63 344.547 132.63H343.143C342.591 132.63 342.171 132.786 341.883 133.098C341.595 133.398 341.451 133.83 341.451 134.394V138.426C341.451 138.99 341.595 139.428 341.883 139.74C342.171 140.04 342.591 140.19 343.143 140.19ZM353.153 141H352.001C351.221 141 350.603 140.772 350.147 140.316C349.703 139.86 349.481 139.236 349.481 138.444V134.376C349.481 133.584 349.703 132.96 350.147 132.504C350.603 132.048 351.221 131.82 352.001 131.82H355.817C355.937 131.82 355.997 131.892 355.997 132.036V140.784C355.997 140.928 355.937 141 355.817 141H355.295C355.163 141 355.097 140.928 355.097 140.784V140.064H355.025C354.713 140.688 354.089 141 353.153 141ZM355.097 138.426V132.792C355.097 132.684 355.037 132.63 354.917 132.63H352.073C351.521 132.63 351.101 132.786 350.813 133.098C350.525 133.41 350.381 133.848 350.381 134.412V138.408C350.381 138.972 350.525 139.41 350.813 139.722C351.101 140.034 351.521 140.19 352.073 140.19H353.243C353.819 140.19 354.269 140.04 354.593 139.74C354.929 139.428 355.097 138.99 355.097 138.426ZM359.488 141H358.966C358.846 141 358.786 140.928 358.786 140.784V128.562C358.786 128.418 358.846 128.346 358.966 128.346H359.488C359.62 128.346 359.686 128.418 359.686 128.562V140.784C359.686 140.928 359.62 141 359.488 141ZM363.339 138.642V140.784C363.339 140.928 363.279 141 363.159 141H362.529C362.397 141 362.331 140.928 362.331 140.784V138.642C362.331 138.51 362.397 138.444 362.529 138.444H363.159C363.279 138.444 363.339 138.51 363.339 138.642Z" fill="#5A5A5A"/>
<path d="M7.968 26.48H10.24C10.9227 26.48 11.4027 26.3413 11.68 26.064C11.9787 25.7653 12.128 25.2747 12.128 24.592V14.832C12.128 14.1493 11.9787 13.6693 11.68 13.392C11.4027 13.0933 10.9227 12.944 10.24 12.944H7.968C7.28533 12.944 6.80533 13.0933 6.528 13.392C6.25067 13.6693 6.112 14.1493 6.112 14.832V24.592C6.112 25.2747 6.25067 25.7653 6.528 26.064C6.80533 26.3413 7.28533 26.48 7.968 26.48ZM13.824 34.256H11.488C10.912 34.256 10.496 34.032 10.24 33.584L8.16 30H7.296C5.61067 30 4.30933 29.552 3.392 28.656C2.47467 27.76 2.016 26.4693 2.016 24.784V14.64C2.016 12.9547 2.47467 11.664 3.392 10.768C4.30933 9.872 5.61067 9.424 7.296 9.424H10.88C12.5653 9.424 13.8667 9.872 14.784 10.768C15.7013 11.664 16.16 12.9547 16.16 14.64V24.784C16.16 26.192 15.8187 27.3333 15.136 28.208C14.4747 29.0827 13.5253 29.6373 12.288 29.872L14.336 33.424C14.4427 33.68 14.4427 33.8827 14.336 34.032C14.2293 34.1813 14.0587 34.256 13.824 34.256ZM30.8268 9.424H33.5148C33.9841 9.424 34.2188 9.63733 34.2188 10.064V24.784C34.2188 26.448 33.7494 27.7387 32.8108 28.656C31.8934 29.552 30.6028 30 28.9388 30H25.4188C23.7334 30 22.4321 29.552 21.5148 28.656C20.5974 27.76 20.1388 26.4693 20.1388 24.784V10.096C20.1388 9.648 20.3628 9.424 20.8108 9.424H23.5308C23.9788 9.424 24.2028 9.648 24.2028 10.096V24.592C24.2028 25.2747 24.3414 25.7653 24.6188 26.064C24.9174 26.3413 25.3974 26.48 26.0588 26.48H28.2668C28.9494 26.48 29.4294 26.3413 29.7068 26.064C30.0054 25.7653 30.1548 25.2747 30.1548 24.592V10.096C30.1548 9.648 30.3788 9.424 30.8268 9.424ZM42.621 26.608H46.205C46.909 26.608 47.4103 26.4693 47.709 26.192C48.029 25.8933 48.189 25.4133 48.189 24.752V22.896C48.189 22.2347 48.029 21.7653 47.709 21.488C47.389 21.2107 46.8663 21.072 46.141 21.072H42.621C42.3863 21.072 42.269 21.1893 42.269 21.424V26.256C42.269 26.4907 42.3863 26.608 42.621 26.608ZM42.621 17.776H45.885C46.5677 17.776 47.069 17.6373 47.389 17.36C47.709 17.0613 47.869 16.5813 47.869 15.92V14.672C47.869 14.0107 47.709 13.5413 47.389 13.264C47.0903 12.9653 46.5997 12.816 45.917 12.816H42.621C42.3863 12.816 42.269 12.9333 42.269 13.168V17.424C42.269 17.6587 42.3863 17.776 42.621 17.776ZM38.205 29.328V10.096C38.205 9.648 38.429 9.424 38.877 9.424H46.557C48.2423 9.424 49.5437 9.872 50.461 10.768C51.3783 11.664 51.837 12.944 51.837 14.608V15.92C51.837 17.7333 50.9943 18.9067 49.309 19.44C50.1623 19.568 50.845 19.92 51.357 20.496C51.869 21.0507 52.125 21.8507 52.125 22.896V24.816C52.125 26.48 51.6663 27.76 50.749 28.656C49.8317 29.552 48.541 30 46.877 30H38.877C38.429 30 38.205 29.776 38.205 29.328ZM67.091 30H56.627C56.179 30 55.955 29.776 55.955 29.328V10.096C55.955 9.648 56.179 9.424 56.627 9.424H67.091C67.5177 9.424 67.731 9.648 67.731 10.096V12.272C67.731 12.72 67.5177 12.944 67.091 12.944H60.403C60.147 12.944 60.019 13.0613 60.019 13.296V17.456C60.019 17.6907 60.147 17.808 60.403 17.808H65.875C66.323 17.808 66.547 18.032 66.547 18.48V20.656C66.547 21.104 66.323 21.328 65.875 21.328H60.403C60.147 21.328 60.019 21.4453 60.019 21.68V26.128C60.019 26.3627 60.147 26.48 60.403 26.48H67.091C67.5177 26.48 67.731 26.704 67.731 27.152V29.328C67.731 29.776 67.5177 30 67.091 30ZM84.6667 30H81.9788C81.5094 30 81.2748 29.776 81.2748 29.328V13.296C81.2748 13.0613 81.1574 12.944 80.9227 12.944H77.2747C76.8268 12.944 76.6028 12.72 76.6028 12.272V10.096C76.6028 9.648 76.8268 9.424 77.2747 9.424H89.3708C89.8188 9.424 90.0428 9.648 90.0428 10.096V12.272C90.0428 12.72 89.8188 12.944 89.3708 12.944H85.7228C85.4668 12.944 85.3388 13.0613 85.3388 13.296V29.328C85.3388 29.776 85.1148 30 84.6667 30ZM95.8783 30H93.1583C92.7103 30 92.4863 29.776 92.4863 29.328V10.096C92.4863 9.648 92.7103 9.424 93.1583 9.424H100.774C102.438 9.424 103.74 9.88267 104.678 10.8C105.617 11.7173 106.086 13.008 106.086 14.672V17.168C106.086 19.5787 105.137 21.1787 103.238 21.968V22.096L106.662 29.232C106.854 29.744 106.673 30 106.118 30H103.526C103.142 30 102.865 29.9573 102.694 29.872C102.524 29.7867 102.385 29.6053 102.278 29.328L99.0783 22.416H96.9343C96.6783 22.416 96.5503 22.5333 96.5503 22.768V29.328C96.5503 29.776 96.3263 30 95.8783 30ZM96.9023 19.152H100.038C100.721 19.152 101.222 19.0133 101.542 18.736C101.862 18.4373 102.022 17.968 102.022 17.328V14.832C102.022 14.1707 101.862 13.6907 101.542 13.392C101.222 13.0933 100.721 12.944 100.038 12.944H96.9023C96.6676 12.944 96.5503 13.0613 96.5503 13.296V18.8C96.5503 19.0347 96.6676 19.152 96.9023 19.152ZM112.13 30H109.058C108.674 30 108.546 29.776 108.674 29.328L113.73 10.096C113.88 9.648 114.2 9.424 114.69 9.424H118.946C119.48 9.424 119.8 9.648 119.906 10.096L124.962 29.328C125.09 29.776 124.962 30 124.578 30H121.506C121.272 30 121.112 29.9573 121.026 29.872C120.941 29.7653 120.877 29.584 120.834 29.328L119.938 25.808H113.698L112.802 29.328C112.76 29.584 112.685 29.7653 112.578 29.872C112.493 29.9573 112.344 30 112.13 30ZM116.77 13.296L114.466 22.544H119.202L116.898 13.296H116.77ZM131.127 30H128.471C128.023 30 127.799 29.776 127.799 29.328V10.096C127.799 9.648 128.023 9.424 128.471 9.424H130.871C131.319 9.424 131.617 9.57333 131.767 9.872L138.231 22H138.359V10.096C138.359 9.648 138.583 9.424 139.031 9.424H141.687C142.135 9.424 142.359 9.648 142.359 10.096V29.328C142.359 29.776 142.135 30 141.687 30H139.351C138.881 30 138.54 29.7867 138.327 29.36L131.927 17.456H131.799V29.328C131.799 29.776 131.575 30 131.127 30ZM146.006 24.752V24.112C146.006 23.664 146.23 23.44 146.678 23.44H149.398C149.846 23.44 150.07 23.664 150.07 24.112V24.368C150.07 25.1787 150.23 25.7333 150.55 26.032C150.87 26.3307 151.456 26.48 152.31 26.48H153.814C154.646 26.48 155.222 26.32 155.542 26C155.883 25.68 156.054 25.0827 156.054 24.208V23.824C156.054 23.2053 155.798 22.736 155.286 22.416C154.795 22.0747 154.176 21.872 153.43 21.808C152.683 21.744 151.872 21.6267 150.998 21.456C150.144 21.264 149.344 21.0293 148.598 20.752C147.851 20.4533 147.222 19.888 146.71 19.056C146.219 18.2027 145.974 17.1147 145.974 15.792V14.672C145.974 13.008 146.443 11.7173 147.382 10.8C148.32 9.88267 149.622 9.424 151.286 9.424H154.486C156.171 9.424 157.483 9.88267 158.422 10.8C159.36 11.7173 159.83 13.008 159.83 14.672V15.28C159.83 15.728 159.606 15.952 159.158 15.952H156.438C155.99 15.952 155.766 15.728 155.766 15.28V15.088C155.766 14.256 155.606 13.6907 155.286 13.392C154.966 13.0933 154.379 12.944 153.526 12.944H152.278C151.403 12.944 150.806 13.1147 150.486 13.456C150.187 13.776 150.038 14.416 150.038 15.376V15.984C150.038 16.9867 150.912 17.5627 152.661 17.712C154.475 17.8613 156.086 18.224 157.494 18.8C158.24 19.12 158.859 19.696 159.35 20.528C159.862 21.3387 160.118 22.384 160.118 23.664V24.752C160.118 26.416 159.648 27.7067 158.71 28.624C157.771 29.5413 156.47 30 154.806 30H151.318C149.654 30 148.352 29.5413 147.414 28.624C146.475 27.7067 146.006 26.416 146.006 24.752ZM165.911 30H162.84C162.456 30 162.328 29.776 162.456 29.328L167.512 10.096C167.661 9.648 167.981 9.424 168.472 9.424H172.728C173.261 9.424 173.581 9.648 173.688 10.096L178.744 29.328C178.872 29.776 178.744 30 178.36 30H175.288C175.053 30 174.893 29.9573 174.808 29.872C174.722 29.7653 174.658 29.584 174.616 29.328L173.72 25.808H167.48L166.584 29.328C166.541 29.584 166.466 29.7653 166.36 29.872C166.274 29.9573 166.125 30 165.911 30ZM170.552 13.296L168.248 22.544H172.984L170.68 13.296H170.552ZM190.028 30H186.54C184.855 30 183.553 29.552 182.636 28.656C181.719 27.76 181.26 26.4693 181.26 24.784V14.64C181.26 12.9547 181.719 11.664 182.636 10.768C183.553 9.872 184.855 9.424 186.54 9.424H190.028C191.692 9.424 192.983 9.88267 193.9 10.8C194.839 11.696 195.308 12.976 195.308 14.64V16.144C195.308 16.6133 195.073 16.848 194.604 16.848H191.916C191.468 16.848 191.244 16.6133 191.244 16.144V14.832C191.244 14.1493 191.095 13.6693 190.796 13.392C190.519 13.0933 190.039 12.944 189.356 12.944H187.18C186.519 12.944 186.039 13.0933 185.74 13.392C185.463 13.6693 185.324 14.1493 185.324 14.832V24.592C185.324 25.2747 185.463 25.7653 185.74 26.064C186.039 26.3413 186.519 26.48 187.18 26.48H189.356C190.039 26.48 190.519 26.3413 190.796 26.064C191.095 25.7653 191.244 25.2747 191.244 24.592V23.28C191.244 22.8107 191.468 22.576 191.916 22.576H194.604C195.073 22.576 195.308 22.8107 195.308 23.28V24.784C195.308 26.448 194.839 27.7387 193.9 28.656C192.983 29.552 191.692 30 190.028 30ZM205.167 30H202.479C202.009 30 201.775 29.776 201.775 29.328V13.296C201.775 13.0613 201.657 12.944 201.423 12.944H197.775C197.327 12.944 197.103 12.72 197.103 12.272V10.096C197.103 9.648 197.327 9.424 197.775 9.424H209.871C210.319 9.424 210.543 9.648 210.543 10.096V12.272C210.543 12.72 210.319 12.944 209.871 12.944H206.223C205.967 12.944 205.839 13.0613 205.839 13.296V29.328C205.839 29.776 205.615 30 205.167 30ZM217.21 10.096V29.328C217.21 29.776 216.986 30 216.538 30H213.818C213.37 30 213.146 29.776 213.146 29.328V10.096C213.146 9.648 213.37 9.424 213.818 9.424H216.538C216.986 9.424 217.21 9.648 217.21 10.096ZM227.118 26.48H229.39C230.072 26.48 230.552 26.3413 230.83 26.064C231.128 25.7653 231.278 25.2747 231.278 24.592V14.832C231.278 14.1493 231.128 13.6693 230.83 13.392C230.552 13.0933 230.072 12.944 229.39 12.944H227.118C226.435 12.944 225.955 13.0933 225.678 13.392C225.4 13.6693 225.262 14.1493 225.262 14.832V24.592C225.262 25.2747 225.4 25.7653 225.678 26.064C225.955 26.3413 226.435 26.48 227.118 26.48ZM230.062 30H226.478C224.792 30 223.491 29.552 222.574 28.656C221.656 27.76 221.198 26.4693 221.198 24.784V14.64C221.198 12.9547 221.656 11.664 222.574 10.768C223.491 9.872 224.792 9.424 226.478 9.424H230.062C231.747 9.424 233.048 9.872 233.966 10.768C234.883 11.664 235.342 12.9547 235.342 14.64V24.784C235.342 26.4693 234.883 27.76 233.966 28.656C233.048 29.552 231.747 30 230.062 30ZM242.502 30H239.846C239.398 30 239.174 29.776 239.174 29.328V10.096C239.174 9.648 239.398 9.424 239.846 9.424H242.246C242.694 9.424 242.992 9.57333 243.142 9.872L249.606 22H249.734V10.096C249.734 9.648 249.958 9.424 250.406 9.424H253.062C253.51 9.424 253.734 9.648 253.734 10.096V29.328C253.734 29.776 253.51 30 253.062 30H250.726C250.256 30 249.915 29.7867 249.702 29.36L243.302 17.456H243.174V29.328C243.174 29.776 242.95 30 242.502 30ZM267.068 30H263.996C263.612 30 263.484 29.776 263.612 29.328L268.668 10.096C268.817 9.648 269.137 9.424 269.628 9.424H273.884C274.417 9.424 274.737 9.648 274.844 10.096L279.9 29.328C280.028 29.776 279.9 30 279.516 30H276.444C276.209 30 276.049 29.9573 275.964 29.872C275.878 29.7653 275.814 29.584 275.772 29.328L274.876 25.808H268.636L267.74 29.328C267.697 29.584 267.622 29.7653 267.516 29.872C267.43 29.9573 267.281 30 267.068 30ZM271.708 13.296L269.404 22.544H274.14L271.836 13.296H271.708ZM286.064 30H283.408C282.96 30 282.736 29.776 282.736 29.328V10.096C282.736 9.648 282.96 9.424 283.408 9.424H285.808C286.256 9.424 286.555 9.57333 286.704 9.872L293.168 22H293.296V10.096C293.296 9.648 293.52 9.424 293.968 9.424H296.624C297.072 9.424 297.296 9.648 297.296 10.096V29.328C297.296 29.776 297.072 30 296.624 30H294.288C293.819 30 293.478 29.7867 293.264 29.36L286.864 17.456H286.736V29.328C286.736 29.776 286.512 30 286.064 30ZM305.871 26.48H309.359C310.042 26.48 310.522 26.3413 310.799 26.064C311.098 25.7653 311.247 25.2747 311.247 24.592V14.832C311.247 14.1493 311.098 13.6693 310.799 13.392C310.522 13.0933 310.042 12.944 309.359 12.944H305.871C305.636 12.944 305.519 13.0613 305.519 13.296V26.128C305.519 26.3627 305.636 26.48 305.871 26.48ZM301.455 29.328V10.096C301.455 9.648 301.679 9.424 302.127 9.424H310.031C311.695 9.424 312.986 9.88267 313.903 10.8C314.842 11.696 315.311 12.976 315.311 14.64V24.784C315.311 26.448 314.842 27.7387 313.903 28.656C312.986 29.552 311.695 30 310.031 30H302.127C301.679 30 301.455 29.776 301.455 29.328ZM334.558 30H330.366C329.918 30 329.651 29.776 329.566 29.328L324.606 10.16C324.456 9.66933 324.67 9.424 325.246 9.424H328.254C328.68 9.424 328.936 9.648 329.022 10.096L332.382 25.84H332.51L335.87 10.096C335.955 9.648 336.211 9.424 336.638 9.424H339.646C340.179 9.424 340.392 9.66933 340.286 10.16L335.326 29.328C335.219 29.776 334.963 30 334.558 30ZM345.005 30H341.933C341.549 30 341.421 29.776 341.549 29.328L346.605 10.096C346.755 9.648 347.075 9.424 347.565 9.424H351.821C352.355 9.424 352.675 9.648 352.781 10.096L357.837 29.328C357.965 29.776 357.837 30 357.453 30H354.381C354.147 30 353.987 29.9573 353.901 29.872C353.816 29.7653 353.752 29.584 353.709 29.328L352.813 25.808H346.573L345.677 29.328C345.635 29.584 345.56 29.7653 345.453 29.872C345.368 29.9573 345.219 30 345.005 30ZM349.645 13.296L347.341 22.544H352.077L349.773 13.296H349.645ZM371.874 30H361.346C360.898 30 360.674 29.776 360.674 29.328V10.096C360.674 9.648 360.898 9.424 361.346 9.424H364.066C364.514 9.424 364.738 9.648 364.738 10.096V26.096C364.738 26.3307 364.866 26.448 365.122 26.448H371.874C372.3 26.448 372.514 26.6827 372.514 27.152V29.328C372.514 29.776 372.3 30 371.874 30ZM385.577 9.424H388.265C388.734 9.424 388.969 9.63733 388.969 10.064V24.784C388.969 26.448 388.499 27.7387 387.561 28.656C386.643 29.552 385.353 30 383.689 30H380.169C378.483 30 377.182 29.552 376.265 28.656C375.347 27.76 374.889 26.4693 374.889 24.784V10.096C374.889 9.648 375.113 9.424 375.561 9.424H378.281C378.729 9.424 378.953 9.648 378.953 10.096V24.592C378.953 25.2747 379.091 25.7653 379.369 26.064C379.667 26.3413 380.147 26.48 380.809 26.48H383.017C383.699 26.48 384.179 26.3413 384.457 26.064C384.755 25.7653 384.905 25.2747 384.905 24.592V10.096C384.905 9.648 385.129 9.424 385.577 9.424ZM404.091 30H393.627C393.179 30 392.955 29.776 392.955 29.328V10.096C392.955 9.648 393.179 9.424 393.627 9.424H404.091C404.518 9.424 404.731 9.648 404.731 10.096V12.272C404.731 12.72 404.518 12.944 404.091 12.944H397.403C397.147 12.944 397.019 13.0613 397.019 13.296V17.456C397.019 17.6907 397.147 17.808 397.403 17.808H402.875C403.323 17.808 403.547 18.032 403.547 18.48V20.656C403.547 21.104 403.323 21.328 402.875 21.328H397.403C397.147 21.328 397.019 21.4453 397.019 21.68V26.128C397.019 26.3627 397.147 26.48 397.403 26.48H404.091C404.518 26.48 404.731 26.704 404.731 27.152V29.328C404.731 29.776 404.518 30 404.091 30ZM13.216 71H2.752C2.304 71 2.08 70.776 2.08 70.328V51.096C2.08 50.648 2.304 50.424 2.752 50.424H13.216C13.6427 50.424 13.856 50.648 13.856 51.096V53.272C13.856 53.72 13.6427 53.944 13.216 53.944H6.528C6.272 53.944 6.144 54.0613 6.144 54.296V58.456C6.144 58.6907 6.272 58.808 6.528 58.808H12C12.448 58.808 12.672 59.032 12.672 59.48V61.656C12.672 62.104 12.448 62.328 12 62.328H6.528C6.272 62.328 6.144 62.4453 6.144 62.68V67.128C6.144 67.3627 6.272 67.48 6.528 67.48H13.216C13.6427 67.48 13.856 67.704 13.856 68.152V70.328C13.856 70.776 13.6427 71 13.216 71ZM19.7285 71H16.5605C16.3472 71 16.1978 70.936 16.1125 70.808C16.0272 70.6587 16.0272 70.488 16.1125 70.296L21.0725 60.472L16.2725 51.128C16.1872 50.9573 16.1872 50.7973 16.2725 50.648C16.3578 50.4987 16.5072 50.424 16.7205 50.424H19.7925C20.3258 50.424 20.6778 50.648 20.8485 51.096L23.8885 57.976H24.0165L27.0245 51.096C27.2378 50.648 27.5792 50.424 28.0485 50.424H31.1845C31.3978 50.424 31.5472 50.5093 31.6325 50.68C31.7392 50.8293 31.7498 50.9893 31.6645 51.16L26.8005 60.472L31.7605 70.264C31.8672 70.4773 31.8778 70.6587 31.7925 70.808C31.7072 70.936 31.5472 71 31.3125 71H28.1125C27.6645 71 27.3552 70.7867 27.1845 70.36L24.0165 63.448H23.8885L20.6885 70.36C20.4965 70.7867 20.1765 71 19.7285 71ZM43.1218 71H39.6338C37.9484 71 36.6471 70.552 35.7298 69.656C34.8124 68.76 34.3538 67.4693 34.3538 65.784V55.64C34.3538 53.9547 34.8124 52.664 35.7298 51.768C36.6471 50.872 37.9484 50.424 39.6338 50.424H43.1218C44.7858 50.424 46.0764 50.8827 46.9938 51.8C47.9324 52.696 48.4018 53.976 48.4018 55.64V57.144C48.4018 57.6133 48.1671 57.848 47.6978 57.848H45.0098C44.5618 57.848 44.3378 57.6133 44.3378 57.144V55.832C44.3378 55.1493 44.1884 54.6693 43.8898 54.392C43.6124 54.0933 43.1324 53.944 42.4498 53.944H40.2738C39.6124 53.944 39.1324 54.0933 38.8338 54.392C38.5564 54.6693 38.4178 55.1493 38.4178 55.832V65.592C38.4178 66.2747 38.5564 66.7653 38.8338 67.064C39.1324 67.3413 39.6124 67.48 40.2738 67.48H42.4498C43.1324 67.48 43.6124 67.3413 43.8898 67.064C44.1884 66.7653 44.3378 66.2747 44.3378 65.592V64.28C44.3378 63.8107 44.5618 63.576 45.0098 63.576H47.6978C48.1671 63.576 48.4018 63.8107 48.4018 64.28V65.784C48.4018 67.448 47.9324 68.7387 46.9938 69.656C46.0764 70.552 44.7858 71 43.1218 71ZM55.2845 71H52.5645C52.1165 71 51.8925 70.776 51.8925 70.328V51.096C51.8925 50.648 52.1165 50.424 52.5645 50.424H55.2845C55.7325 50.424 55.9565 50.648 55.9565 51.096V58.616C55.9565 58.8507 56.0845 58.968 56.3405 58.968H61.7485C61.9832 58.968 62.1005 58.8507 62.1005 58.616V51.096C62.1005 50.648 62.3245 50.424 62.7725 50.424H65.4925C65.9405 50.424 66.1645 50.648 66.1645 51.096V70.328C66.1645 70.776 65.9405 71 65.4925 71H62.7725C62.3245 71 62.1005 70.776 62.1005 70.328V62.84C62.1005 62.6053 61.9832 62.488 61.7485 62.488H56.3405C56.0845 62.488 55.9565 62.6053 55.9565 62.84V70.328C55.9565 70.776 55.7325 71 55.2845 71ZM72.474 71H69.402C69.018 71 68.89 70.776 69.018 70.328L74.074 51.096C74.2233 50.648 74.5433 50.424 75.034 50.424H79.29C79.8233 50.424 80.1433 50.648 80.25 51.096L85.306 70.328C85.434 70.776 85.306 71 84.922 71H81.85C81.6153 71 81.4553 70.9573 81.37 70.872C81.2847 70.7653 81.2207 70.584 81.178 70.328L80.282 66.808H74.042L73.146 70.328C73.1033 70.584 73.0287 70.7653 72.922 70.872C72.8367 70.9573 72.6873 71 72.474 71ZM77.114 54.296L74.81 63.544H79.546L77.242 54.296H77.114ZM91.4705 71H88.8145C88.3665 71 88.1425 70.776 88.1425 70.328V51.096C88.1425 50.648 88.3665 50.424 88.8145 50.424H91.2145C91.6625 50.424 91.9612 50.5733 92.1105 50.872L98.5745 63H98.7025V51.096C98.7025 50.648 98.9265 50.424 99.3745 50.424H102.031C102.479 50.424 102.703 50.648 102.703 51.096V70.328C102.703 70.776 102.479 71 102.031 71H99.6945C99.2252 71 98.8838 70.7867 98.6705 70.36L92.2705 58.456H92.1425V70.328C92.1425 70.776 91.9185 71 91.4705 71ZM115.213 71H111.821C110.136 71 108.835 70.552 107.917 69.656C107 68.76 106.541 67.4693 106.541 65.784V55.64C106.541 53.9547 107 52.664 107.917 51.768C108.835 50.872 110.136 50.424 111.821 50.424H115.213C116.877 50.424 118.168 50.8827 119.085 51.8C120.003 52.696 120.461 53.976 120.461 55.64V56.6C120.461 57.0693 120.237 57.304 119.789 57.304H117.069C116.621 57.304 116.397 57.0693 116.397 56.6V55.832C116.397 55.1493 116.259 54.6693 115.981 54.392C115.704 54.0933 115.224 53.944 114.541 53.944H112.461C111.8 53.944 111.32 54.0933 111.021 54.392C110.744 54.6693 110.605 55.1493 110.605 55.832V65.592C110.605 66.2747 110.744 66.7653 111.021 67.064C111.32 67.3413 111.8 67.48 112.461 67.48H114.541C115.224 67.48 115.704 67.3413 115.981 67.064C116.259 66.7653 116.397 66.2747 116.397 65.592V63.576C116.397 63.3413 116.28 63.224 116.045 63.224H114.125C113.677 63.224 113.453 63 113.453 62.552V60.376C113.453 59.928 113.677 59.704 114.125 59.704H119.725C120.216 59.704 120.461 59.9493 120.461 60.44V65.784C120.461 67.448 120.003 68.7387 119.085 69.656C118.168 70.552 116.877 71 115.213 71ZM135.435 71H124.971C124.523 71 124.299 70.776 124.299 70.328V51.096C124.299 50.648 124.523 50.424 124.971 50.424H135.435C135.861 50.424 136.075 50.648 136.075 51.096V53.272C136.075 53.72 135.861 53.944 135.435 53.944H128.747C128.491 53.944 128.363 54.0613 128.363 54.296V58.456C128.363 58.6907 128.491 58.808 128.747 58.808H134.219C134.667 58.808 134.891 59.032 134.891 59.48V61.656C134.891 62.104 134.667 62.328 134.219 62.328H128.747C128.491 62.328 128.363 62.4453 128.363 62.68V67.128C128.363 67.3627 128.491 67.48 128.747 67.48H135.435C135.861 67.48 136.075 67.704 136.075 68.152V70.328C136.075 70.776 135.861 71 135.435 71Z" fill="#202020"/>
</svg>
