<svg width="187" height="223" viewBox="0 0 187 223" fill="none" xmlns="http://www.w3.org/2000/svg">
<path d="M42.1081 11.092H44.1241C44.5201 11.092 44.8021 11.014 44.9701 10.858C45.1501 10.69 45.2401 10.42 45.2401 10.048V9.004C45.2401 8.632 45.1501 8.368 44.9701 8.212C44.7901 8.056 44.4961 7.978 44.0881 7.978H42.1081C41.9761 7.978 41.9101 8.044 41.9101 8.176V10.894C41.9101 11.026 41.9761 11.092 42.1081 11.092ZM42.1081 6.124H43.9441C44.3281 6.124 44.6101 6.046 44.7901 5.89C44.9701 5.722 45.0601 5.452 45.0601 5.08V4.378C45.0601 4.006 44.9701 3.742 44.7901 3.586C44.6221 3.418 44.3461 3.334 43.9621 3.334H42.1081C41.9761 3.334 41.9101 3.4 41.9101 3.532V5.926C41.9101 6.058 41.9761 6.124 42.1081 6.124ZM39.6241 12.622V1.804C39.6241 1.552 39.7501 1.426 40.0021 1.426H44.3221C45.2701 1.426 46.0021 1.678 46.5181 2.182C47.0341 2.686 47.2921 3.406 47.2921 4.342V5.08C47.2921 6.1 46.8181 6.76 45.8701 7.06C46.3501 7.132 46.7341 7.33 47.0221 7.654C47.3101 7.966 47.4541 8.416 47.4541 9.004V10.084C47.4541 11.02 47.1961 11.74 46.6801 12.244C46.1641 12.748 45.4381 13 44.5021 13H40.0021C39.7501 13 39.6241 12.874 39.6241 12.622ZM55.8725 13H49.9865C49.7345 13 49.6085 12.874 49.6085 12.622V1.804C49.6085 1.552 49.7345 1.426 49.9865 1.426H55.8725C56.1125 1.426 56.2325 1.552 56.2325 1.804V3.028C56.2325 3.28 56.1125 3.406 55.8725 3.406H52.1105C51.9665 3.406 51.8945 3.472 51.8945 3.604V5.944C51.8945 6.076 51.9665 6.142 52.1105 6.142H55.1885C55.4405 6.142 55.5665 6.268 55.5665 6.52V7.744C55.5665 7.996 55.4405 8.122 55.1885 8.122H52.1105C51.9665 8.122 51.8945 8.188 51.8945 8.32V10.822C51.8945 10.954 51.9665 11.02 52.1105 11.02H55.8725C56.1125 11.02 56.2325 11.146 56.2325 11.398V12.622C56.2325 12.874 56.1125 13 55.8725 13ZM57.8978 12.622V10.912C57.8978 10.228 58.1918 9.646 58.7798 9.166L62.0918 6.358C62.6318 5.914 62.9018 5.434 62.9018 4.918V4.378C62.9018 4.006 62.8118 3.742 62.6318 3.586C62.4638 3.418 62.1818 3.334 61.7858 3.334H61.1558C60.7718 3.334 60.5018 3.418 60.3458 3.586C60.1898 3.742 60.1118 4.006 60.1118 4.378V4.954C60.1118 5.218 59.9858 5.35 59.7338 5.35H58.2038C57.9518 5.35 57.8258 5.218 57.8258 4.954V4.342C57.8258 3.406 58.0838 2.686 58.5998 2.182C59.1158 1.678 59.8478 1.426 60.7958 1.426H62.1638C63.1118 1.426 63.8438 1.678 64.3598 2.182C64.8758 2.686 65.1338 3.406 65.1338 4.342V5.062C65.1338 5.998 64.7738 6.772 64.0538 7.384L60.6698 10.264C60.5258 10.396 60.4538 10.54 60.4538 10.696V10.984H64.7558C65.0078 10.984 65.1338 11.11 65.1338 11.362V12.622C65.1338 12.874 65.0078 13 64.7558 13H58.2758C58.0238 13 57.8978 12.874 57.8978 12.622ZM74.0958 13H73.6638C72.7158 13 71.9838 12.748 71.4678 12.244C70.9518 11.74 70.6938 11.014 70.6938 10.066V6.754C70.6938 5.806 70.9518 5.08 71.4678 4.576C71.9838 4.072 72.7158 3.82 73.6638 3.82H77.8218C78.0858 3.82 78.2178 3.946 78.2178 4.198V12.622C78.2178 12.874 78.0858 13 77.8218 13H76.3098C76.0578 13 75.9318 12.874 75.9318 12.622V12.028H75.8598C75.7278 12.352 75.4938 12.598 75.1578 12.766C74.8218 12.922 74.4678 13 74.0958 13ZM75.9318 9.652V5.998C75.9318 5.866 75.8598 5.8 75.7158 5.8H74.0238C73.6398 5.8 73.3698 5.884 73.2138 6.052C73.0578 6.208 72.9798 6.478 72.9798 6.862V9.958C72.9798 10.342 73.0578 10.618 73.2138 10.786C73.3698 10.942 73.6398 11.02 74.0238 11.02H74.6898C75.5178 11.02 75.9318 10.564 75.9318 9.652ZM80.3882 5.8H79.6682C79.5242 5.8 79.4222 5.776 79.3622 5.728C79.3142 5.68 79.2902 5.584 79.2902 5.44V4.198C79.2902 3.946 79.4162 3.82 79.6682 3.82H80.3882C80.5202 3.82 80.5862 3.754 80.5862 3.622V1.912C80.5862 1.66 80.7182 1.534 80.9822 1.534H82.4942C82.7462 1.534 82.8722 1.66 82.8722 1.912V3.622C82.8722 3.754 82.9442 3.82 83.0882 3.82H84.4922C84.7442 3.82 84.8702 3.946 84.8702 4.198V5.44C84.8702 5.572 84.8402 5.668 84.7802 5.728C84.7322 5.776 84.6362 5.8 84.4922 5.8H83.0882C82.9442 5.8 82.8722 5.866 82.8722 5.998V9.976C82.8722 10.348 82.9562 10.618 83.1242 10.786C83.2922 10.942 83.5682 11.02 83.9522 11.02H84.6722C84.9242 11.02 85.0502 11.146 85.0502 11.398V12.64C85.0502 12.772 85.0202 12.868 84.9602 12.928C84.9122 12.976 84.8162 13 84.6722 13H83.5742C82.6262 13 81.8882 12.748 81.3602 12.244C80.8442 11.74 80.5862 11.02 80.5862 10.084V5.998C80.5862 5.866 80.5202 5.8 80.3882 5.8ZM94.667 13H92.147C91.883 13 91.733 12.874 91.697 12.622L89.771 1.804C89.735 1.552 89.861 1.426 90.149 1.426H92.021C92.297 1.426 92.441 1.552 92.453 1.804L93.497 10.678H93.623L95.351 1.75C95.387 1.534 95.513 1.426 95.729 1.426H97.745C97.973 1.426 98.105 1.528 98.141 1.732L99.905 10.678H100.049L101.075 1.822C101.087 1.558 101.231 1.426 101.507 1.426H103.379C103.667 1.426 103.793 1.558 103.757 1.822L101.813 12.622C101.777 12.874 101.639 13 101.399 13H98.861C98.609 13 98.465 12.874 98.429 12.622L96.809 4.18H96.737L95.099 12.622C95.051 12.874 94.907 13 94.667 13ZM111.779 13H107.801C106.853 13 106.121 12.748 105.605 12.244C105.089 11.74 104.831 11.014 104.831 10.066V6.754C104.831 5.806 105.089 5.08 105.605 4.576C106.121 4.072 106.853 3.82 107.801 3.82H109.223C110.171 3.82 110.903 4.072 111.419 4.576C111.935 5.08 112.193 5.806 112.193 6.754V9.04C112.193 9.292 112.067 9.418 111.815 9.418H107.297C107.153 9.418 107.081 9.484 107.081 9.616V10.012C107.081 10.384 107.159 10.654 107.315 10.822C107.483 10.978 107.759 11.056 108.143 11.056H111.779C112.031 11.056 112.157 11.188 112.157 11.452V12.64C112.157 12.772 112.127 12.868 112.067 12.928C112.019 12.976 111.923 13 111.779 13ZM107.297 7.888H109.745C109.877 7.888 109.943 7.822 109.943 7.69V6.826C109.943 6.442 109.865 6.172 109.709 6.016C109.553 5.86 109.283 5.782 108.899 5.782H108.143C107.759 5.782 107.489 5.86 107.333 6.016C107.177 6.172 107.099 6.442 107.099 6.826V7.69C107.099 7.822 107.165 7.888 107.297 7.888ZM116.389 11.02H118.225C118.609 11.02 118.879 10.942 119.035 10.786C119.203 10.618 119.287 10.342 119.287 9.958V6.826C119.287 6.442 119.203 6.172 119.035 6.016C118.879 5.848 118.609 5.764 118.225 5.764H117.433C116.605 5.764 116.191 6.22 116.191 7.132V10.822C116.191 10.954 116.257 11.02 116.389 11.02ZM113.905 12.622V0.723999C113.905 0.472 114.031 0.346 114.283 0.346H115.813C116.065 0.346 116.191 0.472 116.191 0.723999V4.774H116.263C116.395 4.45 116.629 4.204 116.965 4.036C117.301 3.868 117.655 3.784 118.027 3.784H118.603C119.551 3.784 120.283 4.036 120.799 4.54C121.315 5.044 121.573 5.77 121.573 6.718V10.066C121.573 11.014 121.315 11.74 120.799 12.244C120.283 12.748 119.551 13 118.603 13H114.283C114.031 13 113.905 12.874 113.905 12.622ZM127.191 12.622V10.912C127.191 10.228 127.485 9.646 128.073 9.166L131.385 6.358C131.925 5.914 132.195 5.434 132.195 4.918V4.378C132.195 4.006 132.105 3.742 131.925 3.586C131.757 3.418 131.475 3.334 131.079 3.334H130.449C130.065 3.334 129.795 3.418 129.639 3.586C129.483 3.742 129.405 4.006 129.405 4.378V4.954C129.405 5.218 129.279 5.35 129.027 5.35H127.497C127.245 5.35 127.119 5.218 127.119 4.954V4.342C127.119 3.406 127.377 2.686 127.893 2.182C128.409 1.678 129.141 1.426 130.089 1.426H131.457C132.405 1.426 133.137 1.678 133.653 2.182C134.169 2.686 134.427 3.406 134.427 4.342V5.062C134.427 5.998 134.067 6.772 133.347 7.384L129.963 10.264C129.819 10.396 129.747 10.54 129.747 10.696V10.984H134.049C134.301 10.984 134.427 11.11 134.427 11.362V12.622C134.427 12.874 134.301 13 134.049 13H127.569C127.317 13 127.191 12.874 127.191 12.622ZM138.21 10.408V12.622C138.21 12.874 138.096 13 137.868 13H136.266C136.026 13 135.906 12.874 135.906 12.622V10.426C135.906 10.186 136.026 10.066 136.266 10.066H137.868C138.096 10.066 138.21 10.18 138.21 10.408ZM143.198 11.02H144.26C144.644 11.02 144.914 10.942 145.07 10.786C145.226 10.618 145.304 10.342 145.304 9.958V4.468C145.304 4.084 145.226 3.814 145.07 3.658C144.914 3.49 144.644 3.406 144.26 3.406H143.198C142.814 3.406 142.544 3.49 142.388 3.658C142.232 3.814 142.154 4.084 142.154 4.468V9.958C142.154 10.342 142.232 10.618 142.388 10.786C142.544 10.942 142.814 11.02 143.198 11.02ZM144.62 13H142.82C141.872 13 141.14 12.748 140.624 12.244C140.108 11.74 139.85 11.014 139.85 10.066V4.36C139.85 3.412 140.108 2.686 140.624 2.182C141.14 1.678 141.872 1.426 142.82 1.426H144.62C145.556 1.426 146.282 1.684 146.798 2.2C147.314 2.704 147.572 3.424 147.572 4.36V10.066C147.572 11.002 147.314 11.728 146.798 12.244C146.282 12.748 145.556 13 144.62 13ZM3.00388 28.386V27.846C3.00388 27.426 3.14188 26.952 3.41788 26.424L4.37188 24.606C4.45588 24.486 4.56388 24.426 4.69588 24.426C4.91188 24.426 5.01988 24.546 5.01988 24.786V28.368C5.01988 28.608 4.89988 28.728 4.65988 28.728H3.36388C3.12388 28.728 3.00388 28.614 3.00388 28.386ZM0.087875 28.386V27.846C0.087875 27.426 0.225875 26.952 0.501875 26.424L1.45588 24.606C1.53988 24.486 1.64788 24.426 1.77988 24.426C1.99588 24.426 2.10388 24.546 2.10388 24.786V28.368C2.10388 28.608 1.98388 28.728 1.74388 28.728H0.447875C0.207875 28.728 0.087875 28.614 0.087875 28.386ZM9.20811 24.804V35.622C9.20811 35.874 9.08211 36 8.83011 36H7.30011C7.04811 36 6.92211 35.874 6.92211 35.622V24.804C6.92211 24.552 7.04811 24.426 7.30011 24.426H8.83011C9.08211 24.426 9.20811 24.552 9.20811 24.804ZM13.3589 36H11.8289C11.5769 36 11.4509 35.874 11.4509 35.622V27.198C11.4509 26.946 11.5769 26.82 11.8289 26.82H13.3589C13.6109 26.82 13.7369 26.946 13.7369 27.198V27.792H13.8089C14.0729 27.144 14.6609 26.82 15.5729 26.82H16.1489C18.0329 26.82 18.9749 27.798 18.9749 29.754V35.622C18.9749 35.874 18.8429 36 18.5789 36H17.0669C16.8149 36 16.6889 35.874 16.6889 35.622V29.862C16.6889 29.478 16.6049 29.208 16.4369 29.052C16.2809 28.884 16.0109 28.8 15.6269 28.8H14.9789C14.1509 28.8 13.7369 29.256 13.7369 30.168V35.622C13.7369 35.874 13.6109 36 13.3589 36ZM24.3468 36H20.9268C20.6868 36 20.5668 35.874 20.5668 35.622V34.47C20.5668 34.338 20.5908 34.248 20.6388 34.2C20.6868 34.14 20.7828 34.11 20.9268 34.11H23.9328C24.5208 34.11 24.8148 33.93 24.8148 33.57V33.48C24.8148 33.192 24.5688 32.916 24.0768 32.652L22.2948 31.662C21.6828 31.35 21.2328 31.014 20.9448 30.654C20.6568 30.294 20.5128 29.832 20.5128 29.268C20.5128 28.428 20.7348 27.81 21.1788 27.414C21.6228 27.018 22.3188 26.82 23.2668 26.82H26.2728C26.5128 26.82 26.6328 26.946 26.6328 27.198V28.368C26.6328 28.5 26.6088 28.596 26.5608 28.656C26.5128 28.704 26.4168 28.728 26.2728 28.728H23.7708C23.1828 28.728 22.8888 28.878 22.8888 29.178V29.268C22.8888 29.532 23.1468 29.802 23.6628 30.078L25.4808 31.158C26.1048 31.494 26.5428 31.842 26.7948 32.202C27.0468 32.55 27.1728 33.012 27.1728 33.588C27.1728 35.196 26.2308 36 24.3468 36ZM28.9634 28.8H28.2434C28.0994 28.8 27.9974 28.776 27.9374 28.728C27.8894 28.68 27.8654 28.584 27.8654 28.44V27.198C27.8654 26.946 27.9914 26.82 28.2434 26.82H28.9634C29.0954 26.82 29.1614 26.754 29.1614 26.622V24.912C29.1614 24.66 29.2934 24.534 29.5574 24.534H31.0694C31.3214 24.534 31.4474 24.66 31.4474 24.912V26.622C31.4474 26.754 31.5194 26.82 31.6634 26.82H33.0674C33.3194 26.82 33.4454 26.946 33.4454 27.198V28.44C33.4454 28.572 33.4154 28.668 33.3554 28.728C33.3074 28.776 33.2114 28.8 33.0674 28.8H31.6634C31.5194 28.8 31.4474 28.866 31.4474 28.998V32.976C31.4474 33.348 31.5314 33.618 31.6994 33.786C31.8674 33.942 32.1434 34.02 32.5274 34.02H33.2474C33.4994 34.02 33.6254 34.146 33.6254 34.398V35.64C33.6254 35.772 33.5954 35.868 33.5354 35.928C33.4874 35.976 33.3914 36 33.2474 36H32.1494C31.2014 36 30.4634 35.748 29.9354 35.244C29.4194 34.74 29.1614 34.02 29.1614 33.084V28.998C29.1614 28.866 29.0954 28.8 28.9634 28.8ZM35.2011 25.272V23.706C35.2011 23.466 35.3211 23.346 35.5611 23.346H37.1271C37.3671 23.346 37.4871 23.46 37.4871 23.688V25.272C37.4871 25.512 37.3671 25.632 37.1271 25.632H35.5611C35.3211 25.632 35.2011 25.512 35.2011 25.272ZM35.2011 35.622V27.198C35.2011 26.946 35.3211 26.82 35.5611 26.82H37.1091C37.3611 26.82 37.4871 26.946 37.4871 27.198V35.622C37.4871 35.778 37.4571 35.88 37.3971 35.928C37.3491 35.976 37.2591 36 37.1271 36H35.5791C35.3271 36 35.2011 35.874 35.2011 35.622ZM39.7564 28.8H39.0364C38.8924 28.8 38.7904 28.776 38.7304 28.728C38.6824 28.68 38.6584 28.584 38.6584 28.44V27.198C38.6584 26.946 38.7844 26.82 39.0364 26.82H39.7564C39.8884 26.82 39.9544 26.754 39.9544 26.622V24.912C39.9544 24.66 40.0864 24.534 40.3504 24.534H41.8624C42.1144 24.534 42.2404 24.66 42.2404 24.912V26.622C42.2404 26.754 42.3124 26.82 42.4564 26.82H43.8604C44.1124 26.82 44.2384 26.946 44.2384 27.198V28.44C44.2384 28.572 44.2084 28.668 44.1484 28.728C44.1004 28.776 44.0044 28.8 43.8604 28.8H42.4564C42.3124 28.8 42.2404 28.866 42.2404 28.998V32.976C42.2404 33.348 42.3244 33.618 42.4924 33.786C42.6604 33.942 42.9364 34.02 43.3204 34.02H44.0404C44.2924 34.02 44.4184 34.146 44.4184 34.398V35.64C44.4184 35.772 44.3884 35.868 44.3284 35.928C44.2804 35.976 44.1844 36 44.0404 36H42.9424C41.9944 36 41.2564 35.748 40.7284 35.244C40.2124 34.74 39.9544 34.02 39.9544 33.084V28.998C39.9544 28.866 39.8884 28.8 39.7564 28.8ZM49.2161 36H48.6221C47.6981 36 46.9961 35.748 46.5161 35.244C46.0481 34.74 45.8141 34.014 45.8141 33.066V27.198C45.8141 26.946 45.9401 26.82 46.1921 26.82H47.7221C47.9741 26.82 48.1001 26.946 48.1001 27.198V32.958C48.1001 33.342 48.1781 33.618 48.3341 33.786C48.5021 33.942 48.7721 34.02 49.1441 34.02H49.8101C50.6381 34.02 51.0521 33.564 51.0521 32.652V27.198C51.0521 26.946 51.1781 26.82 51.4301 26.82H52.9421C53.2061 26.82 53.3381 26.946 53.3381 27.198V35.622C53.3381 35.874 53.2061 36 52.9421 36H51.4301C51.1781 36 51.0521 35.874 51.0521 35.622V35.028H50.9801C50.8481 35.352 50.6141 35.598 50.2781 35.766C49.9421 35.922 49.5881 36 49.2161 36ZM55.5239 28.8H54.8039C54.6599 28.8 54.5579 28.776 54.4979 28.728C54.4499 28.68 54.4259 28.584 54.4259 28.44V27.198C54.4259 26.946 54.5519 26.82 54.8039 26.82H55.5239C55.6559 26.82 55.7219 26.754 55.7219 26.622V24.912C55.7219 24.66 55.8539 24.534 56.1179 24.534H57.6299C57.8819 24.534 58.0079 24.66 58.0079 24.912V26.622C58.0079 26.754 58.0799 26.82 58.2239 26.82H59.6279C59.8799 26.82 60.0059 26.946 60.0059 27.198V28.44C60.0059 28.572 59.9759 28.668 59.9159 28.728C59.8679 28.776 59.7719 28.8 59.6279 28.8H58.2239C58.0799 28.8 58.0079 28.866 58.0079 28.998V32.976C58.0079 33.348 58.0919 33.618 58.2599 33.786C58.4279 33.942 58.7039 34.02 59.0879 34.02H59.8079C60.0599 34.02 60.1859 34.146 60.1859 34.398V35.64C60.1859 35.772 60.1559 35.868 60.0959 35.928C60.0479 35.976 59.9519 36 59.8079 36H58.7099C57.7619 36 57.0239 35.748 56.4959 35.244C55.9799 34.74 55.7219 34.02 55.7219 33.084V28.998C55.7219 28.866 55.6559 28.8 55.5239 28.8ZM61.7616 25.272V23.706C61.7616 23.466 61.8816 23.346 62.1216 23.346H63.6876C63.9276 23.346 64.0476 23.46 64.0476 23.688V25.272C64.0476 25.512 63.9276 25.632 63.6876 25.632H62.1216C61.8816 25.632 61.7616 25.512 61.7616 25.272ZM61.7616 35.622V27.198C61.7616 26.946 61.8816 26.82 62.1216 26.82H63.6696C63.9216 26.82 64.0476 26.946 64.0476 27.198V35.622C64.0476 35.778 64.0176 35.88 63.9576 35.928C63.9096 35.976 63.8196 36 63.6876 36H62.1396C61.8876 36 61.7616 35.874 61.7616 35.622ZM70.5109 36H68.9089C67.9609 36 67.2289 35.748 66.7129 35.244C66.1969 34.74 65.9389 34.014 65.9389 33.066V29.754C65.9389 28.806 66.1969 28.08 66.7129 27.576C67.2289 27.072 67.9609 26.82 68.9089 26.82H70.5109C71.4469 26.82 72.1729 27.078 72.6889 27.594C73.2169 28.098 73.4809 28.818 73.4809 29.754V33.066C73.4809 34.002 73.2169 34.728 72.6889 35.244C72.1729 35.748 71.4469 36 70.5109 36ZM69.2509 34.038H70.1689C70.5529 34.038 70.8229 33.96 70.9789 33.804C71.1469 33.648 71.2309 33.378 71.2309 32.994V29.826C71.2309 29.442 71.1469 29.172 70.9789 29.016C70.8229 28.86 70.5529 28.782 70.1689 28.782H69.2509C68.8669 28.782 68.5969 28.86 68.4409 29.016C68.2849 29.172 68.2069 29.442 68.2069 29.826V32.994C68.2069 33.378 68.2849 33.648 68.4409 33.804C68.5969 33.96 68.8669 34.038 69.2509 34.038ZM77.1851 36H75.6551C75.4031 36 75.2771 35.874 75.2771 35.622V27.198C75.2771 26.946 75.4031 26.82 75.6551 26.82H77.1851C77.4371 26.82 77.5631 26.946 77.5631 27.198V27.792H77.6351C77.8991 27.144 78.4871 26.82 79.3991 26.82H79.9751C81.8591 26.82 82.8011 27.798 82.8011 29.754V35.622C82.8011 35.874 82.6691 36 82.4051 36H80.8931C80.6411 36 80.5151 35.874 80.5151 35.622V29.862C80.5151 29.478 80.4311 29.208 80.2631 29.052C80.1071 28.884 79.8371 28.8 79.4531 28.8H78.8051C77.9771 28.8 77.5631 29.256 77.5631 30.168V35.622C77.5631 35.874 77.4371 36 77.1851 36ZM87.921 36H87.489C86.541 36 85.809 35.748 85.293 35.244C84.777 34.74 84.519 34.014 84.519 33.066V29.754C84.519 28.806 84.777 28.08 85.293 27.576C85.809 27.072 86.541 26.82 87.489 26.82H91.647C91.911 26.82 92.043 26.946 92.043 27.198V35.622C92.043 35.874 91.911 36 91.647 36H90.135C89.883 36 89.757 35.874 89.757 35.622V35.028H89.685C89.553 35.352 89.319 35.598 88.983 35.766C88.647 35.922 88.293 36 87.921 36ZM89.757 32.652V28.998C89.757 28.866 89.685 28.8 89.541 28.8H87.849C87.465 28.8 87.195 28.884 87.039 29.052C86.883 29.208 86.805 29.478 86.805 29.862V32.958C86.805 33.342 86.883 33.618 87.039 33.786C87.195 33.942 87.465 34.02 87.849 34.02H88.515C89.343 34.02 89.757 33.564 89.757 32.652ZM96.0134 36H94.4834C94.2314 36 94.1054 35.874 94.1054 35.622V23.724C94.1054 23.472 94.2314 23.346 94.4834 23.346H96.0134C96.2654 23.346 96.3914 23.472 96.3914 23.724V35.622C96.3914 35.874 96.2654 36 96.0134 36ZM104.974 24.804V35.622C104.974 35.874 104.848 36 104.596 36H103.066C102.814 36 102.688 35.874 102.688 35.622V24.804C102.688 24.552 102.814 24.426 103.066 24.426H104.596C104.848 24.426 104.974 24.552 104.974 24.804ZM109.125 36H107.595C107.343 36 107.217 35.874 107.217 35.622V27.198C107.217 26.946 107.343 26.82 107.595 26.82H109.125C109.377 26.82 109.503 26.946 109.503 27.198V27.792H109.575C109.839 27.144 110.427 26.82 111.339 26.82H111.915C113.799 26.82 114.741 27.798 114.741 29.754V35.622C114.741 35.874 114.609 36 114.345 36H112.833C112.581 36 112.455 35.874 112.455 35.622V29.862C112.455 29.478 112.371 29.208 112.203 29.052C112.047 28.884 111.777 28.8 111.393 28.8H110.745C109.917 28.8 109.503 29.256 109.503 30.168V35.622C109.503 35.874 109.377 36 109.125 36ZM118.546 36H117.016C116.764 36 116.638 35.874 116.638 35.622V27.198C116.638 26.946 116.764 26.82 117.016 26.82H118.546C118.798 26.82 118.924 26.946 118.924 27.198V27.792H118.996C119.26 27.144 119.848 26.82 120.76 26.82H121.336C123.22 26.82 124.162 27.798 124.162 29.754V35.622C124.162 35.874 124.03 36 123.766 36H122.254C122.002 36 121.876 35.874 121.876 35.622V29.862C121.876 29.478 121.792 29.208 121.624 29.052C121.468 28.884 121.198 28.8 120.814 28.8H120.166C119.338 28.8 118.924 29.256 118.924 30.168V35.622C118.924 35.874 118.798 36 118.546 36ZM130.452 36H128.85C127.902 36 127.17 35.748 126.654 35.244C126.138 34.74 125.88 34.014 125.88 33.066V29.754C125.88 28.806 126.138 28.08 126.654 27.576C127.17 27.072 127.902 26.82 128.85 26.82H130.452C131.388 26.82 132.114 27.078 132.63 27.594C133.158 28.098 133.422 28.818 133.422 29.754V33.066C133.422 34.002 133.158 34.728 132.63 35.244C132.114 35.748 131.388 36 130.452 36ZM129.192 34.038H130.11C130.494 34.038 130.764 33.96 130.92 33.804C131.088 33.648 131.172 33.378 131.172 32.994V29.826C131.172 29.442 131.088 29.172 130.92 29.016C130.764 28.86 130.494 28.782 130.11 28.782H129.192C128.808 28.782 128.538 28.86 128.382 29.016C128.226 29.172 128.148 29.442 128.148 29.826V32.994C128.148 33.378 128.226 33.648 128.382 33.804C128.538 33.96 128.808 34.038 129.192 34.038ZM134.823 26.82H136.407C136.647 26.82 136.791 26.946 136.839 27.198L138.387 33.966H138.513L140.025 27.198C140.073 26.946 140.223 26.82 140.475 26.82H142.059C142.311 26.82 142.401 26.946 142.329 27.198L140.061 35.604C140.013 35.868 139.851 36 139.575 36H137.289C137.037 36 136.875 35.868 136.803 35.604L134.553 27.198C134.481 26.946 134.571 26.82 134.823 26.82ZM146.86 36H146.428C145.48 36 144.748 35.748 144.232 35.244C143.716 34.74 143.458 34.014 143.458 33.066V29.754C143.458 28.806 143.716 28.08 144.232 27.576C144.748 27.072 145.48 26.82 146.428 26.82H150.586C150.85 26.82 150.982 26.946 150.982 27.198V35.622C150.982 35.874 150.85 36 150.586 36H149.074C148.822 36 148.696 35.874 148.696 35.622V35.028H148.624C148.492 35.352 148.258 35.598 147.922 35.766C147.586 35.922 147.232 36 146.86 36ZM148.696 32.652V28.998C148.696 28.866 148.624 28.8 148.48 28.8H146.788C146.404 28.8 146.134 28.884 145.978 29.052C145.822 29.208 145.744 29.478 145.744 29.862V32.958C145.744 33.342 145.822 33.618 145.978 33.786C146.134 33.942 146.404 34.02 146.788 34.02H147.454C148.282 34.02 148.696 33.564 148.696 32.652ZM153.153 28.8H152.433C152.289 28.8 152.187 28.776 152.127 28.728C152.079 28.68 152.055 28.584 152.055 28.44V27.198C152.055 26.946 152.181 26.82 152.433 26.82H153.153C153.285 26.82 153.351 26.754 153.351 26.622V24.912C153.351 24.66 153.483 24.534 153.747 24.534H155.259C155.511 24.534 155.637 24.66 155.637 24.912V26.622C155.637 26.754 155.709 26.82 155.853 26.82H157.257C157.509 26.82 157.635 26.946 157.635 27.198V28.44C157.635 28.572 157.605 28.668 157.545 28.728C157.497 28.776 157.401 28.8 157.257 28.8H155.853C155.709 28.8 155.637 28.866 155.637 28.998V32.976C155.637 33.348 155.721 33.618 155.889 33.786C156.057 33.942 156.333 34.02 156.717 34.02H157.437C157.689 34.02 157.815 34.146 157.815 34.398V35.64C157.815 35.772 157.785 35.868 157.725 35.928C157.677 35.976 157.581 36 157.437 36H156.339C155.391 36 154.653 35.748 154.125 35.244C153.609 34.74 153.351 34.02 153.351 33.084V28.998C153.351 28.866 153.285 28.8 153.153 28.8ZM159.391 25.272V23.706C159.391 23.466 159.511 23.346 159.751 23.346H161.317C161.557 23.346 161.677 23.46 161.677 23.688V25.272C161.677 25.512 161.557 25.632 161.317 25.632H159.751C159.511 25.632 159.391 25.512 159.391 25.272ZM159.391 35.622V27.198C159.391 26.946 159.511 26.82 159.751 26.82H161.299C161.551 26.82 161.677 26.946 161.677 27.198V35.622C161.677 35.778 161.647 35.88 161.587 35.928C161.539 35.976 161.449 36 161.317 36H159.769C159.517 36 159.391 35.874 159.391 35.622ZM168.14 36H166.538C165.59 36 164.858 35.748 164.342 35.244C163.826 34.74 163.568 34.014 163.568 33.066V29.754C163.568 28.806 163.826 28.08 164.342 27.576C164.858 27.072 165.59 26.82 166.538 26.82H168.14C169.076 26.82 169.802 27.078 170.318 27.594C170.846 28.098 171.11 28.818 171.11 29.754V33.066C171.11 34.002 170.846 34.728 170.318 35.244C169.802 35.748 169.076 36 168.14 36ZM166.88 34.038H167.798C168.182 34.038 168.452 33.96 168.608 33.804C168.776 33.648 168.86 33.378 168.86 32.994V29.826C168.86 29.442 168.776 29.172 168.608 29.016C168.452 28.86 168.182 28.782 167.798 28.782H166.88C166.496 28.782 166.226 28.86 166.07 29.016C165.914 29.172 165.836 29.442 165.836 29.826V32.994C165.836 33.378 165.914 33.648 166.07 33.804C166.226 33.96 166.496 34.038 166.88 34.038ZM174.814 36H173.284C173.032 36 172.906 35.874 172.906 35.622V27.198C172.906 26.946 173.032 26.82 173.284 26.82H174.814C175.066 26.82 175.192 26.946 175.192 27.198V27.792H175.264C175.528 27.144 176.116 26.82 177.028 26.82H177.604C179.488 26.82 180.43 27.798 180.43 29.754V35.622C180.43 35.874 180.298 36 180.034 36H178.522C178.27 36 178.144 35.874 178.144 35.622V29.862C178.144 29.478 178.06 29.208 177.892 29.052C177.736 28.884 177.466 28.8 177.082 28.8H176.434C175.606 28.8 175.192 29.256 175.192 30.168V35.622C175.192 35.874 175.066 36 174.814 36ZM184.02 24.768V25.308C184.02 25.68 183.882 26.154 183.606 26.73L182.652 28.548C182.568 28.668 182.454 28.728 182.31 28.728C182.106 28.728 182.004 28.608 182.004 28.368V24.786C182.004 24.546 182.124 24.426 182.364 24.426H183.66C183.9 24.426 184.02 24.54 184.02 24.768ZM186.936 24.768V25.308C186.936 25.68 186.798 26.154 186.522 26.73L185.568 28.548C185.484 28.668 185.37 28.728 185.226 28.728C185.022 28.728 184.92 28.608 184.92 28.368V24.786C184.92 24.546 185.04 24.426 185.28 24.426H186.576C186.816 24.426 186.936 24.54 186.936 24.768ZM59.0228 82H58.4648C58.3328 82 58.2908 81.928 58.3388 81.784L61.9208 70.642C61.9568 70.498 62.0408 70.426 62.1728 70.426H63.0188C63.1388 70.426 63.2228 70.498 63.2708 70.642L66.8528 81.784C66.8888 81.928 66.8468 82 66.7268 82H66.1508C66.0308 82 65.9528 81.928 65.9168 81.784L64.9448 78.904H60.2288L59.2568 81.784C59.2088 81.928 59.1308 82 59.0228 82ZM62.5508 71.416L60.4808 78.094H64.7108L62.6228 71.416H62.5508ZM69.4485 82H68.9265C68.8065 82 68.7465 81.928 68.7465 81.784V73.036C68.7465 72.892 68.8065 72.82 68.9265 72.82H69.4485C69.5805 72.82 69.6465 72.892 69.6465 73.036V73.792H69.7185C69.8505 73.54 70.0845 73.318 70.4205 73.126C70.7565 72.922 71.1705 72.82 71.6625 72.82H72.3645C72.4965 72.82 72.5625 72.886 72.5625 73.018V73.45C72.5625 73.582 72.4965 73.642 72.3645 73.63H71.5185C70.9305 73.63 70.4685 73.81 70.1325 74.17C69.8085 74.53 69.6465 75.016 69.6465 75.628V81.784C69.6465 81.928 69.5805 82 69.4485 82ZM79.5191 81.388V81.802C79.5191 81.934 79.4531 82 79.3211 82H76.7291C75.9491 82 75.3311 81.772 74.8751 81.316C74.4311 80.86 74.2091 80.236 74.2091 79.444V75.376C74.2091 74.584 74.4311 73.96 74.8751 73.504C75.3311 73.048 75.9491 72.82 76.7291 72.82H79.3211C79.4531 72.82 79.5191 72.886 79.5191 73.018V73.45C79.5191 73.57 79.4531 73.63 79.3211 73.63H76.8011C76.2491 73.63 75.8291 73.786 75.5411 74.098C75.2531 74.41 75.1091 74.848 75.1091 75.412V79.408C75.1091 79.972 75.2531 80.41 75.5411 80.722C75.8291 81.034 76.2491 81.19 76.8011 81.19H79.3211C79.4531 81.19 79.5191 81.256 79.5191 81.388ZM82.175 82H81.653C81.533 82 81.473 81.928 81.473 81.784V69.562C81.473 69.418 81.533 69.346 81.653 69.346H82.175C82.307 69.346 82.373 69.418 82.373 69.562V73.756H82.445C82.781 73.132 83.405 72.82 84.317 72.82H85.505C86.273 72.82 86.879 73.048 87.323 73.504C87.767 73.96 87.989 74.584 87.989 75.376V81.784C87.989 81.928 87.929 82 87.809 82H87.287C87.155 82 87.089 81.928 87.089 81.784V75.412C87.089 74.848 86.945 74.41 86.657 74.098C86.369 73.786 85.949 73.63 85.397 73.63H84.227C83.651 73.63 83.195 73.786 82.859 74.098C82.535 74.398 82.373 74.83 82.373 75.394V81.784C82.373 81.928 82.307 82 82.175 82ZM90.6861 71.308V69.58C90.6861 69.448 90.7461 69.382 90.8661 69.382H91.4061C91.5261 69.382 91.5861 69.448 91.5861 69.58V71.308C91.5861 71.452 91.5261 71.524 91.4061 71.524H90.8661C90.7461 71.524 90.6861 71.452 90.6861 71.308ZM90.6861 81.784V73.036C90.6861 72.892 90.7461 72.82 90.8661 72.82H91.3881C91.5201 72.82 91.5861 72.892 91.5861 73.036V81.784C91.5861 81.928 91.5261 82 91.4061 82H90.8661C90.7461 82 90.6861 81.928 90.6861 81.784ZM94.7714 73.63H93.6734C93.5414 73.63 93.4754 73.57 93.4754 73.45V73.018C93.4754 72.886 93.5414 72.82 93.6734 72.82H94.7714C94.8794 72.82 94.9334 72.766 94.9334 72.658V71.2C94.9334 71.056 94.9994 70.984 95.1314 70.984H95.6534C95.7854 70.984 95.8514 71.056 95.8514 71.2V72.658C95.8514 72.766 95.9054 72.82 96.0134 72.82H98.1554C98.2874 72.82 98.3534 72.886 98.3534 73.018V73.45C98.3534 73.57 98.2874 73.63 98.1554 73.63H96.0134C95.9054 73.63 95.8514 73.684 95.8514 73.792V79.462C95.8514 80.014 96.0074 80.44 96.3194 80.74C96.6314 81.04 97.0694 81.19 97.6334 81.19H98.3354C98.4674 81.19 98.5334 81.256 98.5334 81.388V81.802C98.5334 81.934 98.4674 82 98.3354 82H97.5614C96.7694 82 96.1334 81.778 95.6534 81.334C95.1734 80.89 94.9334 80.278 94.9334 79.498V73.792C94.9334 73.684 94.8794 73.63 94.7714 73.63ZM106.718 82H102.956C102.176 82 101.558 81.772 101.102 81.316C100.658 80.86 100.436 80.236 100.436 79.444V75.376C100.436 74.584 100.658 73.96 101.102 73.504C101.558 73.048 102.176 72.82 102.956 72.82H104.504C105.284 72.82 105.902 73.048 106.358 73.504C106.814 73.96 107.042 74.584 107.042 75.376V77.662C107.042 77.806 106.97 77.878 106.826 77.878H101.498C101.39 77.878 101.336 77.932 101.336 78.04V79.426C101.336 79.99 101.48 80.428 101.768 80.74C102.056 81.04 102.476 81.19 103.028 81.19H106.718C106.85 81.19 106.916 81.256 106.916 81.388V81.802C106.916 81.934 106.85 82 106.718 82ZM101.498 77.158H105.98C106.088 77.158 106.142 77.104 106.142 76.996V75.394C106.142 74.83 105.998 74.398 105.71 74.098C105.422 73.786 105.002 73.63 104.45 73.63H103.028C102.476 73.63 102.056 73.786 101.768 74.098C101.48 74.398 101.336 74.83 101.336 75.394V76.996C101.336 77.104 101.39 77.158 101.498 77.158ZM114.605 81.388V81.802C114.605 81.934 114.539 82 114.407 82H111.815C111.035 82 110.417 81.772 109.961 81.316C109.517 80.86 109.295 80.236 109.295 79.444V75.376C109.295 74.584 109.517 73.96 109.961 73.504C110.417 73.048 111.035 72.82 111.815 72.82H114.407C114.539 72.82 114.605 72.886 114.605 73.018V73.45C114.605 73.57 114.539 73.63 114.407 73.63H111.887C111.335 73.63 110.915 73.786 110.627 74.098C110.339 74.41 110.195 74.848 110.195 75.412V79.408C110.195 79.972 110.339 80.41 110.627 80.722C110.915 81.034 111.335 81.19 111.887 81.19H114.407C114.539 81.19 114.605 81.256 114.605 81.388ZM116.955 73.63H115.857C115.725 73.63 115.659 73.57 115.659 73.45V73.018C115.659 72.886 115.725 72.82 115.857 72.82H116.955C117.063 72.82 117.117 72.766 117.117 72.658V71.2C117.117 71.056 117.183 70.984 117.315 70.984H117.837C117.969 70.984 118.035 71.056 118.035 71.2V72.658C118.035 72.766 118.089 72.82 118.197 72.82H120.339C120.471 72.82 120.537 72.886 120.537 73.018V73.45C120.537 73.57 120.471 73.63 120.339 73.63H118.197C118.089 73.63 118.035 73.684 118.035 73.792V79.462C118.035 80.014 118.191 80.44 118.503 80.74C118.815 81.04 119.253 81.19 119.817 81.19H120.519C120.651 81.19 120.717 81.256 120.717 81.388V81.802C120.717 81.934 120.651 82 120.519 82H119.745C118.953 82 118.317 81.778 117.837 81.334C117.357 80.89 117.117 80.278 117.117 79.498V73.792C117.117 73.684 117.063 73.63 116.955 73.63ZM125.769 82H122.637C122.505 82 122.439 81.934 122.439 81.802V81.388C122.439 81.268 122.505 81.208 122.637 81.208H125.679C126.759 81.208 127.299 80.788 127.299 79.948V79.516C127.299 78.736 126.963 78.226 126.291 77.986L124.041 77.122C123.429 76.882 122.991 76.6 122.727 76.276C122.475 75.952 122.349 75.502 122.349 74.926C122.349 73.522 123.123 72.82 124.671 72.82H127.587C127.719 72.82 127.785 72.886 127.785 73.018V73.432C127.785 73.552 127.719 73.612 127.587 73.612H124.761C124.269 73.612 123.897 73.72 123.645 73.936C123.405 74.152 123.285 74.404 123.285 74.692V75.106C123.285 75.442 123.375 75.706 123.555 75.898C123.747 76.09 124.035 76.252 124.419 76.384L126.669 77.284C127.293 77.488 127.707 77.794 127.911 78.202C128.127 78.598 128.235 79.156 128.235 79.876C128.235 80.596 128.031 81.13 127.623 81.478C127.227 81.826 126.609 82 125.769 82ZM65.3169 105H59.7549C59.6349 105 59.5749 104.928 59.5749 104.784V93.642C59.5749 93.498 59.6349 93.426 59.7549 93.426H65.3169C65.4609 93.426 65.5329 93.492 65.5329 93.624V94.038C65.5329 94.17 65.4609 94.236 65.3169 94.236H60.6549C60.5349 94.236 60.4749 94.29 60.4749 94.398V98.538C60.4749 98.646 60.5349 98.7 60.6549 98.7H64.8129C64.9449 98.7 65.0109 98.766 65.0109 98.898V99.312C65.0109 99.444 64.9449 99.51 64.8129 99.51H60.6549C60.5349 99.51 60.4749 99.564 60.4749 99.672V104.028C60.4749 104.136 60.5349 104.19 60.6549 104.19H65.3169C65.4609 104.19 65.5329 104.256 65.5329 104.388V104.802C65.5329 104.934 65.4609 105 65.3169 105ZM68.7629 105H68.2409C68.1209 105 68.0609 104.928 68.0609 104.784V96.036C68.0609 95.892 68.1209 95.82 68.2409 95.82H68.7629C68.8949 95.82 68.9609 95.892 68.9609 96.036V96.756H69.0329C69.3689 96.132 69.9929 95.82 70.9049 95.82H72.0929C72.8609 95.82 73.4669 96.048 73.9109 96.504C74.3549 96.96 74.5769 97.584 74.5769 98.376V104.784C74.5769 104.928 74.5169 105 74.3969 105H73.8749C73.7429 105 73.6769 104.928 73.6769 104.784V98.412C73.6769 97.848 73.5329 97.41 73.2449 97.098C72.9569 96.786 72.5369 96.63 71.9849 96.63H70.8149C70.2389 96.63 69.7829 96.786 69.4469 97.098C69.1229 97.398 68.9609 97.83 68.9609 98.394V104.784C68.9609 104.928 68.8949 105 68.7629 105ZM80.748 104.478H79.578C78.81 104.478 78.198 104.25 77.742 103.794C77.298 103.338 77.076 102.72 77.076 101.94V98.376C77.076 97.584 77.298 96.96 77.742 96.504C78.198 96.048 78.816 95.82 79.596 95.82H83.412C83.544 95.82 83.61 95.892 83.61 96.036V104.964C83.61 105.756 83.382 106.38 82.926 106.836C82.47 107.292 81.852 107.52 81.072 107.52H77.796C77.664 107.52 77.598 107.454 77.598 107.322V106.89C77.598 106.77 77.664 106.71 77.796 106.71H81C81.552 106.71 81.972 106.554 82.26 106.242C82.548 105.942 82.692 105.504 82.692 104.928V103.542H82.62C82.32 104.166 81.696 104.478 80.748 104.478ZM82.692 101.904V96.792C82.692 96.684 82.638 96.63 82.53 96.63H79.686C79.134 96.63 78.708 96.786 78.408 97.098C78.12 97.398 77.976 97.836 77.976 98.412V101.904C77.976 102.468 78.12 102.906 78.408 103.218C78.708 103.518 79.134 103.668 79.686 103.668H80.838C81.414 103.668 81.864 103.518 82.188 103.218C82.524 102.906 82.692 102.468 82.692 101.904ZM86.3795 94.308V92.58C86.3795 92.448 86.4395 92.382 86.5595 92.382H87.0995C87.2195 92.382 87.2795 92.448 87.2795 92.58V94.308C87.2795 94.452 87.2195 94.524 87.0995 94.524H86.5595C86.4395 94.524 86.3795 94.452 86.3795 94.308ZM86.3795 104.784V96.036C86.3795 95.892 86.4395 95.82 86.5595 95.82H87.0815C87.2135 95.82 87.2795 95.892 87.2795 96.036V104.784C87.2795 104.928 87.2195 105 87.0995 105H86.5595C86.4395 105 86.3795 104.928 86.3795 104.784ZM90.7708 105H90.2488C90.1288 105 90.0688 104.928 90.0688 104.784V96.036C90.0688 95.892 90.1288 95.82 90.2488 95.82H90.7708C90.9028 95.82 90.9688 95.892 90.9688 96.036V96.756H91.0408C91.3768 96.132 92.0008 95.82 92.9128 95.82H94.1008C94.8688 95.82 95.4748 96.048 95.9188 96.504C96.3628 96.96 96.5848 97.584 96.5848 98.376V104.784C96.5848 104.928 96.5248 105 96.4048 105H95.8828C95.7508 105 95.6848 104.928 95.6848 104.784V98.412C95.6848 97.848 95.5408 97.41 95.2528 97.098C94.9648 96.786 94.5448 96.63 93.9928 96.63H92.8228C92.2468 96.63 91.7908 96.786 91.4548 97.098C91.1308 97.398 90.9688 97.83 90.9688 98.394V104.784C90.9688 104.928 90.9028 105 90.7708 105ZM105.294 105H101.532C100.752 105 100.134 104.772 99.6778 104.316C99.2338 103.86 99.0118 103.236 99.0118 102.444V98.376C99.0118 97.584 99.2338 96.96 99.6778 96.504C100.134 96.048 100.752 95.82 101.532 95.82H103.08C103.86 95.82 104.478 96.048 104.934 96.504C105.39 96.96 105.618 97.584 105.618 98.376V100.662C105.618 100.806 105.546 100.878 105.402 100.878H100.074C99.9658 100.878 99.9118 100.932 99.9118 101.04V102.426C99.9118 102.99 100.056 103.428 100.344 103.74C100.632 104.04 101.052 104.19 101.604 104.19H105.294C105.426 104.19 105.492 104.256 105.492 104.388V104.802C105.492 104.934 105.426 105 105.294 105ZM100.074 100.158H104.556C104.664 100.158 104.718 100.104 104.718 99.996V98.394C104.718 97.83 104.574 97.398 104.286 97.098C103.998 96.786 103.578 96.63 103.026 96.63H101.604C101.052 96.63 100.632 96.786 100.344 97.098C100.056 97.398 99.9118 97.83 99.9118 98.394V99.996C99.9118 100.104 99.9658 100.158 100.074 100.158ZM114.153 105H110.391C109.611 105 108.993 104.772 108.537 104.316C108.093 103.86 107.871 103.236 107.871 102.444V98.376C107.871 97.584 108.093 96.96 108.537 96.504C108.993 96.048 109.611 95.82 110.391 95.82H111.939C112.719 95.82 113.337 96.048 113.793 96.504C114.249 96.96 114.477 97.584 114.477 98.376V100.662C114.477 100.806 114.405 100.878 114.261 100.878H108.933C108.825 100.878 108.771 100.932 108.771 101.04V102.426C108.771 102.99 108.915 103.428 109.203 103.74C109.491 104.04 109.911 104.19 110.463 104.19H114.153C114.285 104.19 114.351 104.256 114.351 104.388V104.802C114.351 104.934 114.285 105 114.153 105ZM108.933 100.158H113.415C113.523 100.158 113.577 100.104 113.577 99.996V98.394C113.577 97.83 113.433 97.398 113.145 97.098C112.857 96.786 112.437 96.63 111.885 96.63H110.463C109.911 96.63 109.491 96.786 109.203 97.098C108.915 97.398 108.771 97.83 108.771 98.394V99.996C108.771 100.104 108.825 100.158 108.933 100.158ZM117.613 105H117.091C116.971 105 116.911 104.928 116.911 104.784V96.036C116.911 95.892 116.971 95.82 117.091 95.82H117.613C117.745 95.82 117.811 95.892 117.811 96.036V96.792H117.883C118.015 96.54 118.249 96.318 118.585 96.126C118.921 95.922 119.335 95.82 119.827 95.82H120.529C120.661 95.82 120.727 95.886 120.727 96.018V96.45C120.727 96.582 120.661 96.642 120.529 96.63H119.683C119.095 96.63 118.633 96.81 118.297 97.17C117.973 97.53 117.811 98.016 117.811 98.628V104.784C117.811 104.928 117.745 105 117.613 105ZM125.523 105H122.391C122.259 105 122.193 104.934 122.193 104.802V104.388C122.193 104.268 122.259 104.208 122.391 104.208H125.433C126.513 104.208 127.053 103.788 127.053 102.948V102.516C127.053 101.736 126.717 101.226 126.045 100.986L123.795 100.122C123.183 99.882 122.745 99.6 122.481 99.276C122.229 98.952 122.103 98.502 122.103 97.926C122.103 96.522 122.877 95.82 124.425 95.82H127.341C127.473 95.82 127.539 95.886 127.539 96.018V96.432C127.539 96.552 127.473 96.612 127.341 96.612H124.515C124.023 96.612 123.651 96.72 123.399 96.936C123.159 97.152 123.039 97.404 123.039 97.692V98.106C123.039 98.442 123.129 98.706 123.309 98.898C123.501 99.09 123.789 99.252 124.173 99.384L126.423 100.284C127.047 100.488 127.461 100.794 127.665 101.202C127.881 101.598 127.989 102.156 127.989 102.876C127.989 103.596 127.785 104.13 127.377 104.478C126.981 104.826 126.363 105 125.523 105ZM21.9427 128H19.6747C18.8947 128 18.2767 127.772 17.8207 127.316C17.3767 126.86 17.1547 126.236 17.1547 125.444V118.982C17.1547 118.19 17.3767 117.566 17.8207 117.11C18.2767 116.654 18.8947 116.426 19.6747 116.426H21.9427C22.7227 116.426 23.3347 116.654 23.7787 117.11C24.2347 117.566 24.4627 118.19 24.4627 118.982V119.864C24.4627 120.008 24.3967 120.08 24.2647 120.08H23.7607C23.6287 120.08 23.5627 120.008 23.5627 119.864V119.018C23.5627 118.442 23.4127 118.004 23.1127 117.704C22.8247 117.392 22.4047 117.236 21.8527 117.236H19.7467C19.1947 117.236 18.7747 117.392 18.4867 117.704C18.1987 118.016 18.0547 118.454 18.0547 119.018V125.408C18.0547 125.972 18.1987 126.41 18.4867 126.722C18.7747 127.034 19.1947 127.19 19.7467 127.19H21.8527C22.4047 127.19 22.8247 127.04 23.1127 126.74C23.4127 126.428 23.5627 125.984 23.5627 125.408V124.562C23.5627 124.418 23.6287 124.346 23.7607 124.346H24.2647C24.3967 124.346 24.4627 124.418 24.4627 124.562V125.444C24.4627 126.236 24.2347 126.86 23.7787 127.316C23.3347 127.772 22.7227 128 21.9427 128ZM30.7985 128H29.2505C28.4705 128 27.8525 127.772 27.3965 127.316C26.9525 126.86 26.7305 126.236 26.7305 125.444V121.376C26.7305 120.584 26.9525 119.96 27.3965 119.504C27.8525 119.048 28.4705 118.82 29.2505 118.82H30.7985C31.5785 118.82 32.1965 119.048 32.6525 119.504C33.1085 119.96 33.3365 120.584 33.3365 121.376V125.444C33.3365 126.236 33.1085 126.86 32.6525 127.316C32.1965 127.772 31.5785 128 30.7985 128ZM29.3225 127.19H30.7265C31.2785 127.19 31.6985 127.04 31.9865 126.74C32.2865 126.428 32.4365 125.99 32.4365 125.426V121.394C32.4365 120.83 32.2865 120.398 31.9865 120.098C31.6985 119.786 31.2785 119.63 30.7265 119.63H29.3225C28.7705 119.63 28.3505 119.786 28.0625 120.098C27.7745 120.398 27.6305 120.83 27.6305 121.394V125.426C27.6305 125.99 27.7745 126.428 28.0625 126.74C28.3505 127.04 28.7705 127.19 29.3225 127.19ZM36.5422 128H36.0202C35.9002 128 35.8402 127.928 35.8402 127.784V119.036C35.8402 118.892 35.9002 118.82 36.0202 118.82H36.5422C36.6742 118.82 36.7402 118.892 36.7402 119.036V119.756H36.8122C37.1482 119.132 37.7722 118.82 38.6842 118.82H39.8722C40.6402 118.82 41.2462 119.048 41.6902 119.504C42.1342 119.96 42.3562 120.584 42.3562 121.376V127.784C42.3562 127.928 42.2962 128 42.1762 128H41.6542C41.5222 128 41.4562 127.928 41.4562 127.784V121.412C41.4562 120.848 41.3122 120.41 41.0242 120.098C40.7362 119.786 40.3162 119.63 39.7642 119.63H38.5942C38.0182 119.63 37.5622 119.786 37.2262 120.098C36.9022 120.398 36.7402 120.83 36.7402 121.394V127.784C36.7402 127.928 36.6742 128 36.5422 128ZM47.9333 128H44.8013C44.6693 128 44.6033 127.934 44.6033 127.802V127.388C44.6033 127.268 44.6693 127.208 44.8013 127.208H47.8433C48.9233 127.208 49.4633 126.788 49.4633 125.948V125.516C49.4633 124.736 49.1273 124.226 48.4553 123.986L46.2053 123.122C45.5933 122.882 45.1553 122.6 44.8913 122.276C44.6393 121.952 44.5133 121.502 44.5133 120.926C44.5133 119.522 45.2873 118.82 46.8353 118.82H49.7513C49.8833 118.82 49.9493 118.886 49.9493 119.018V119.432C49.9493 119.552 49.8833 119.612 49.7513 119.612H46.9253C46.4333 119.612 46.0613 119.72 45.8093 119.936C45.5693 120.152 45.4493 120.404 45.4493 120.692V121.106C45.4493 121.442 45.5393 121.706 45.7193 121.898C45.9113 122.09 46.1993 122.252 46.5833 122.384L48.8333 123.284C49.4573 123.488 49.8713 123.794 50.0753 124.202C50.2913 124.598 50.3993 125.156 50.3993 125.876C50.3993 126.596 50.1953 127.13 49.7873 127.478C49.3913 127.826 48.7733 128 47.9333 128ZM53.1112 119.63H52.0132C51.8812 119.63 51.8152 119.57 51.8152 119.45V119.018C51.8152 118.886 51.8812 118.82 52.0132 118.82H53.1112C53.2192 118.82 53.2732 118.766 53.2732 118.658V117.2C53.2732 117.056 53.3392 116.984 53.4712 116.984H53.9932C54.1252 116.984 54.1912 117.056 54.1912 117.2V118.658C54.1912 118.766 54.2452 118.82 54.3532 118.82H56.4952C56.6272 118.82 56.6932 118.886 56.6932 119.018V119.45C56.6932 119.57 56.6272 119.63 56.4952 119.63H54.3532C54.2452 119.63 54.1912 119.684 54.1912 119.792V125.462C54.1912 126.014 54.3472 126.44 54.6592 126.74C54.9712 127.04 55.4092 127.19 55.9732 127.19H56.6752C56.8072 127.19 56.8732 127.256 56.8732 127.388V127.802C56.8732 127.934 56.8072 128 56.6752 128H55.9012C55.1092 128 54.4732 127.778 53.9932 127.334C53.5132 126.89 53.2732 126.278 53.2732 125.498V119.792C53.2732 119.684 53.2192 119.63 53.1112 119.63ZM59.6575 128H59.1355C59.0155 128 58.9555 127.928 58.9555 127.784V119.036C58.9555 118.892 59.0155 118.82 59.1355 118.82H59.6575C59.7895 118.82 59.8555 118.892 59.8555 119.036V119.792H59.9275C60.0595 119.54 60.2935 119.318 60.6295 119.126C60.9655 118.922 61.3795 118.82 61.8715 118.82H62.5735C62.7055 118.82 62.7715 118.886 62.7715 119.018V119.45C62.7715 119.582 62.7055 119.642 62.5735 119.63H61.7275C61.1395 119.63 60.6775 119.81 60.3415 120.17C60.0175 120.53 59.8555 121.016 59.8555 121.628V127.784C59.8555 127.928 59.7895 128 59.6575 128ZM68.18 128H66.992C66.224 128 65.618 127.772 65.174 127.316C64.73 126.86 64.508 126.236 64.508 125.444V119.036C64.508 118.892 64.568 118.82 64.688 118.82H65.21C65.342 118.82 65.408 118.892 65.408 119.036V125.408C65.408 125.972 65.552 126.41 65.84 126.722C66.128 127.034 66.548 127.19 67.1 127.19H68.27C68.846 127.19 69.296 127.04 69.62 126.74C69.956 126.428 70.124 125.99 70.124 125.426V119.036C70.124 118.892 70.19 118.82 70.322 118.82H70.844C70.964 118.82 71.024 118.892 71.024 119.036V127.784C71.024 127.928 70.964 128 70.844 128H70.322C70.19 128 70.124 127.928 70.124 127.784V127.064H70.052C69.74 127.688 69.116 128 68.18 128ZM78.8511 127.388V127.802C78.8511 127.934 78.7851 128 78.6531 128H76.0611C75.2811 128 74.6631 127.772 74.2071 127.316C73.7631 126.86 73.5411 126.236 73.5411 125.444V121.376C73.5411 120.584 73.7631 119.96 74.2071 119.504C74.6631 119.048 75.2811 118.82 76.0611 118.82H78.6531C78.7851 118.82 78.8511 118.886 78.8511 119.018V119.45C78.8511 119.57 78.7851 119.63 78.6531 119.63H76.1331C75.5811 119.63 75.1611 119.786 74.8731 120.098C74.5851 120.41 74.4411 120.848 74.4411 121.412V125.408C74.4411 125.972 74.5851 126.41 74.8731 126.722C75.1611 127.034 75.5811 127.19 76.1331 127.19H78.6531C78.7851 127.19 78.8511 127.256 78.8511 127.388ZM81.2011 119.63H80.1031C79.9711 119.63 79.9051 119.57 79.9051 119.45V119.018C79.9051 118.886 79.9711 118.82 80.1031 118.82H81.2011C81.3091 118.82 81.3631 118.766 81.3631 118.658V117.2C81.3631 117.056 81.4291 116.984 81.5611 116.984H82.0831C82.2151 116.984 82.2811 117.056 82.2811 117.2V118.658C82.2811 118.766 82.3351 118.82 82.4431 118.82H84.5851C84.7171 118.82 84.7831 118.886 84.7831 119.018V119.45C84.7831 119.57 84.7171 119.63 84.5851 119.63H82.4431C82.3351 119.63 82.2811 119.684 82.2811 119.792V125.462C82.2811 126.014 82.4371 126.44 82.7491 126.74C83.0611 127.04 83.4991 127.19 84.0631 127.19H84.7651C84.8971 127.19 84.9631 127.256 84.9631 127.388V127.802C84.9631 127.934 84.8971 128 84.7651 128H83.9911C83.1991 128 82.5631 127.778 82.0831 127.334C81.6031 126.89 81.3631 126.278 81.3631 125.498V119.792C81.3631 119.684 81.3091 119.63 81.2011 119.63ZM87.1353 117.308V115.58C87.1353 115.448 87.1953 115.382 87.3153 115.382H87.8553C87.9753 115.382 88.0353 115.448 88.0353 115.58V117.308C88.0353 117.452 87.9753 117.524 87.8553 117.524H87.3153C87.1953 117.524 87.1353 117.452 87.1353 117.308ZM87.1353 127.784V119.036C87.1353 118.892 87.1953 118.82 87.3153 118.82H87.8373C87.9693 118.82 88.0353 118.892 88.0353 119.036V127.784C88.0353 127.928 87.9753 128 87.8553 128H87.3153C87.1953 128 87.1353 127.928 87.1353 127.784ZM94.7126 128H93.1646C92.3846 128 91.7666 127.772 91.3106 127.316C90.8666 126.86 90.6446 126.236 90.6446 125.444V121.376C90.6446 120.584 90.8666 119.96 91.3106 119.504C91.7666 119.048 92.3846 118.82 93.1646 118.82H94.7126C95.4926 118.82 96.1106 119.048 96.5666 119.504C97.0226 119.96 97.2506 120.584 97.2506 121.376V125.444C97.2506 126.236 97.0226 126.86 96.5666 127.316C96.1106 127.772 95.4926 128 94.7126 128ZM93.2366 127.19H94.6406C95.1926 127.19 95.6126 127.04 95.9006 126.74C96.2006 126.428 96.3506 125.99 96.3506 125.426V121.394C96.3506 120.83 96.2006 120.398 95.9006 120.098C95.6126 119.786 95.1926 119.63 94.6406 119.63H93.2366C92.6846 119.63 92.2646 119.786 91.9766 120.098C91.6886 120.398 91.5446 120.83 91.5446 121.394V125.426C91.5446 125.99 91.6886 126.428 91.9766 126.74C92.2646 127.04 92.6846 127.19 93.2366 127.19ZM100.456 128H99.9343C99.8143 128 99.7543 127.928 99.7543 127.784V119.036C99.7543 118.892 99.8143 118.82 99.9343 118.82H100.456C100.588 118.82 100.654 118.892 100.654 119.036V119.756H100.726C101.062 119.132 101.686 118.82 102.598 118.82H103.786C104.554 118.82 105.16 119.048 105.604 119.504C106.048 119.96 106.27 120.584 106.27 121.376V127.784C106.27 127.928 106.21 128 106.09 128H105.568C105.436 128 105.37 127.928 105.37 127.784V121.412C105.37 120.848 105.226 120.41 104.938 120.098C104.65 119.786 104.23 119.63 103.678 119.63H102.508C101.932 119.63 101.476 119.786 101.14 120.098C100.816 120.398 100.654 120.83 100.654 121.394V127.784C100.654 127.928 100.588 128 100.456 128ZM116.52 128H115.62C115.488 128 115.404 127.928 115.368 127.784L112.902 116.642C112.866 116.498 112.926 116.426 113.082 116.426H113.676C113.808 116.426 113.886 116.498 113.91 116.642L116.052 126.974H116.142L118.878 116.624C118.902 116.492 118.98 116.426 119.112 116.426H119.796C119.94 116.426 120.024 116.492 120.048 116.624L122.802 126.974H122.892L125.016 116.642C125.04 116.498 125.124 116.426 125.268 116.426H125.88C126.024 116.426 126.078 116.498 126.042 116.642L123.576 127.784C123.552 127.928 123.474 128 123.342 128H122.424C122.292 128 122.208 127.928 122.172 127.784L119.508 117.632H119.436L116.754 127.784C116.718 127.928 116.64 128 116.52 128ZM131.855 128H130.307C129.527 128 128.909 127.772 128.453 127.316C128.009 126.86 127.787 126.236 127.787 125.444V121.376C127.787 120.584 128.009 119.96 128.453 119.504C128.909 119.048 129.527 118.82 130.307 118.82H131.855C132.635 118.82 133.253 119.048 133.709 119.504C134.165 119.96 134.393 120.584 134.393 121.376V125.444C134.393 126.236 134.165 126.86 133.709 127.316C133.253 127.772 132.635 128 131.855 128ZM130.379 127.19H131.783C132.335 127.19 132.755 127.04 133.043 126.74C133.343 126.428 133.493 125.99 133.493 125.426V121.394C133.493 120.83 133.343 120.398 133.043 120.098C132.755 119.786 132.335 119.63 131.783 119.63H130.379C129.827 119.63 129.407 119.786 129.119 120.098C128.831 120.398 128.687 120.83 128.687 121.394V125.426C128.687 125.99 128.831 126.428 129.119 126.74C129.407 127.04 129.827 127.19 130.379 127.19ZM137.599 128H137.077C136.957 128 136.897 127.928 136.897 127.784V119.036C136.897 118.892 136.957 118.82 137.077 118.82H137.599C137.731 118.82 137.797 118.892 137.797 119.036V119.792H137.869C138.001 119.54 138.235 119.318 138.571 119.126C138.907 118.922 139.321 118.82 139.813 118.82H140.515C140.647 118.82 140.713 118.886 140.713 119.018V119.45C140.713 119.582 140.647 119.642 140.515 119.63H139.669C139.081 119.63 138.619 119.81 138.283 120.17C137.959 120.53 137.797 121.016 137.797 121.628V127.784C137.797 127.928 137.731 128 137.599 128ZM147.705 118.82H148.263C148.335 118.82 148.383 118.844 148.407 118.892C148.431 118.928 148.419 118.976 148.371 119.036L145.617 123.212V123.284L148.695 127.784C148.743 127.844 148.755 127.898 148.731 127.946C148.707 127.982 148.659 128 148.587 128H148.029C147.849 128 147.711 127.928 147.615 127.784L144.645 123.41C144.597 123.314 144.597 123.218 144.645 123.122L147.345 119C147.417 118.88 147.537 118.82 147.705 118.82ZM143.241 128H142.719C142.599 128 142.539 127.928 142.539 127.784V115.562C142.539 115.418 142.599 115.346 142.719 115.346H143.241C143.373 115.346 143.439 115.418 143.439 115.562V127.784C143.439 127.928 143.373 128 143.241 128ZM156.393 128H152.631C151.851 128 151.233 127.772 150.777 127.316C150.333 126.86 150.111 126.236 150.111 125.444V121.376C150.111 120.584 150.333 119.96 150.777 119.504C151.233 119.048 151.851 118.82 152.631 118.82H154.179C154.959 118.82 155.577 119.048 156.033 119.504C156.489 119.96 156.717 120.584 156.717 121.376V123.662C156.717 123.806 156.645 123.878 156.501 123.878H151.173C151.065 123.878 151.011 123.932 151.011 124.04V125.426C151.011 125.99 151.155 126.428 151.443 126.74C151.731 127.04 152.151 127.19 152.703 127.19H156.393C156.525 127.19 156.591 127.256 156.591 127.388V127.802C156.591 127.934 156.525 128 156.393 128ZM151.173 123.158H155.655C155.763 123.158 155.817 123.104 155.817 122.996V121.394C155.817 120.83 155.673 120.398 155.385 120.098C155.097 119.786 154.677 119.63 154.125 119.63H152.703C152.151 119.63 151.731 119.786 151.443 120.098C151.155 120.398 151.011 120.83 151.011 121.394V122.996C151.011 123.104 151.065 123.158 151.173 123.158ZM159.853 128H159.331C159.211 128 159.151 127.928 159.151 127.784V119.036C159.151 118.892 159.211 118.82 159.331 118.82H159.853C159.985 118.82 160.051 118.892 160.051 119.036V119.792H160.123C160.255 119.54 160.489 119.318 160.825 119.126C161.161 118.922 161.575 118.82 162.067 118.82H162.769C162.901 118.82 162.967 118.886 162.967 119.018V119.45C162.967 119.582 162.901 119.642 162.769 119.63H161.923C161.335 119.63 160.873 119.81 160.537 120.17C160.213 120.53 160.051 121.016 160.051 121.628V127.784C160.051 127.928 159.985 128 159.853 128ZM167.763 128H164.631C164.499 128 164.433 127.934 164.433 127.802V127.388C164.433 127.268 164.499 127.208 164.631 127.208H167.673C168.753 127.208 169.293 126.788 169.293 125.948V125.516C169.293 124.736 168.957 124.226 168.285 123.986L166.035 123.122C165.423 122.882 164.985 122.6 164.721 122.276C164.469 121.952 164.343 121.502 164.343 120.926C164.343 119.522 165.117 118.82 166.665 118.82H169.581C169.713 118.82 169.779 118.886 169.779 119.018V119.432C169.779 119.552 169.713 119.612 169.581 119.612H166.755C166.263 119.612 165.891 119.72 165.639 119.936C165.399 120.152 165.279 120.404 165.279 120.692V121.106C165.279 121.442 165.369 121.706 165.549 121.898C165.741 122.09 166.029 122.252 166.413 122.384L168.663 123.284C169.287 123.488 169.701 123.794 169.905 124.202C170.121 124.598 170.229 125.156 170.229 125.876C170.229 126.596 170.025 127.13 169.617 127.478C169.221 127.826 168.603 128 167.763 128ZM61.3662 148.444V147.796C61.3662 147.664 61.4322 147.598 61.5642 147.598H62.0862C62.2182 147.598 62.2842 147.664 62.2842 147.796V148.39C62.2842 149.59 62.8662 150.19 64.0302 150.19H65.9022C67.0662 150.19 67.6482 149.584 67.6482 148.372V147.616C67.6482 147.088 67.4322 146.674 67.0002 146.374C66.5682 146.074 66.0462 145.858 65.4342 145.726C64.8222 145.594 64.2042 145.456 63.5802 145.312C62.9682 145.168 62.4462 144.904 62.0142 144.52C61.5822 144.136 61.3662 143.62 61.3662 142.972V141.982C61.3662 141.19 61.5942 140.566 62.0502 140.11C62.5062 139.654 63.1242 139.426 63.9042 139.426H65.9922C66.7722 139.426 67.3902 139.654 67.8462 140.11C68.3022 140.566 68.5302 141.19 68.5302 141.982V142.486C68.5302 142.618 68.4642 142.684 68.3322 142.684H67.8102C67.6782 142.684 67.6122 142.618 67.6122 142.486V142.036C67.6122 140.836 67.0302 140.236 65.8662 140.236H64.0122C62.8602 140.236 62.2842 140.848 62.2842 142.072V142.972C62.2842 143.8 63.0222 144.358 64.4982 144.646C65.1102 144.766 65.7222 144.904 66.3342 145.06C66.9582 145.216 67.4862 145.498 67.9182 145.906C68.3502 146.314 68.5662 146.866 68.5662 147.562V148.444C68.5662 149.236 68.3382 149.86 67.8822 150.316C67.4262 150.772 66.8082 151 66.0282 151H63.9042C63.1242 151 62.5062 150.772 62.0502 150.316C61.5942 149.86 61.3662 149.236 61.3662 148.444ZM74.9476 151H73.7596C72.9916 151 72.3856 150.772 71.9416 150.316C71.4976 149.86 71.2756 149.236 71.2756 148.444V142.036C71.2756 141.892 71.3356 141.82 71.4556 141.82H71.9776C72.1096 141.82 72.1756 141.892 72.1756 142.036V148.408C72.1756 148.972 72.3196 149.41 72.6076 149.722C72.8956 150.034 73.3156 150.19 73.8676 150.19H75.0376C75.6136 150.19 76.0636 150.04 76.3876 149.74C76.7236 149.428 76.8916 148.99 76.8916 148.426V142.036C76.8916 141.892 76.9576 141.82 77.0896 141.82H77.6116C77.7316 141.82 77.7916 141.892 77.7916 142.036V150.784C77.7916 150.928 77.7316 151 77.6116 151H77.0896C76.9576 151 76.8916 150.928 76.8916 150.784V150.064H76.8196C76.5076 150.688 75.8836 151 74.9476 151ZM81.1907 153.682H80.6687C80.5487 153.682 80.4887 153.616 80.4887 153.484V142.036C80.4887 141.892 80.5487 141.82 80.6687 141.82H81.1907C81.3227 141.82 81.3887 141.892 81.3887 142.036V142.756H81.4607C81.7967 142.132 82.4207 141.82 83.3327 141.82H84.5567C85.3247 141.82 85.9307 142.048 86.3747 142.504C86.8187 142.96 87.0407 143.584 87.0407 144.376V148.444C87.0407 149.236 86.8187 149.86 86.3747 150.316C85.9307 150.772 85.3247 151 84.5567 151H83.3327C82.4207 151 81.7967 150.688 81.4607 150.064H81.3887V153.484C81.3887 153.616 81.3227 153.682 81.1907 153.682ZM83.2427 150.19H84.4307C84.9827 150.19 85.4027 150.04 85.6907 149.74C85.9907 149.428 86.1407 148.984 86.1407 148.408V144.412C86.1407 143.836 85.9907 143.398 85.6907 143.098C85.4027 142.786 84.9827 142.63 84.4307 142.63H83.2427C82.6667 142.63 82.2107 142.786 81.8747 143.098C81.5507 143.398 81.3887 143.83 81.3887 144.394V148.426C81.3887 148.99 81.5507 149.428 81.8747 149.74C82.2107 150.04 82.6667 150.19 83.2427 150.19ZM90.261 153.682H89.739C89.619 153.682 89.559 153.616 89.559 153.484V142.036C89.559 141.892 89.619 141.82 89.739 141.82H90.261C90.393 141.82 90.459 141.892 90.459 142.036V142.756H90.531C90.867 142.132 91.491 141.82 92.403 141.82H93.627C94.395 141.82 95.001 142.048 95.445 142.504C95.889 142.96 96.111 143.584 96.111 144.376V148.444C96.111 149.236 95.889 149.86 95.445 150.316C95.001 150.772 94.395 151 93.627 151H92.403C91.491 151 90.867 150.688 90.531 150.064H90.459V153.484C90.459 153.616 90.393 153.682 90.261 153.682ZM92.313 150.19H93.501C94.053 150.19 94.473 150.04 94.761 149.74C95.061 149.428 95.211 148.984 95.211 148.408V144.412C95.211 143.836 95.061 143.398 94.761 143.098C94.473 142.786 94.053 142.63 93.501 142.63H92.313C91.737 142.63 91.281 142.786 90.945 143.098C90.621 143.398 90.459 143.83 90.459 144.394V148.426C90.459 148.99 90.621 149.428 90.945 149.74C91.281 150.04 91.737 150.19 92.313 150.19ZM99.4213 151H98.8993C98.7793 151 98.7193 150.928 98.7193 150.784V138.562C98.7193 138.418 98.7793 138.346 98.8993 138.346H99.4213C99.5533 138.346 99.6193 138.418 99.6193 138.562V150.784C99.6193 150.928 99.5533 151 99.4213 151ZM102.499 140.308V138.58C102.499 138.448 102.559 138.382 102.679 138.382H103.219C103.339 138.382 103.399 138.448 103.399 138.58V140.308C103.399 140.452 103.339 140.524 103.219 140.524H102.679C102.559 140.524 102.499 140.452 102.499 140.308ZM102.499 150.784V142.036C102.499 141.892 102.559 141.82 102.679 141.82H103.201C103.333 141.82 103.399 141.892 103.399 142.036V150.784C103.399 150.928 103.339 151 103.219 151H102.679C102.559 151 102.499 150.928 102.499 150.784ZM112.29 151H108.528C107.748 151 107.13 150.772 106.674 150.316C106.23 149.86 106.008 149.236 106.008 148.444V144.376C106.008 143.584 106.23 142.96 106.674 142.504C107.13 142.048 107.748 141.82 108.528 141.82H110.076C110.856 141.82 111.474 142.048 111.93 142.504C112.386 142.96 112.614 143.584 112.614 144.376V146.662C112.614 146.806 112.542 146.878 112.398 146.878H107.07C106.962 146.878 106.908 146.932 106.908 147.04V148.426C106.908 148.99 107.052 149.428 107.34 149.74C107.628 150.04 108.048 150.19 108.6 150.19H112.29C112.422 150.19 112.488 150.256 112.488 150.388V150.802C112.488 150.934 112.422 151 112.29 151ZM107.07 146.158H111.552C111.66 146.158 111.714 146.104 111.714 145.996V144.394C111.714 143.83 111.57 143.398 111.282 143.098C110.994 142.786 110.574 142.63 110.022 142.63H108.6C108.048 142.63 107.628 142.786 107.34 143.098C107.052 143.398 106.908 143.83 106.908 144.394V145.996C106.908 146.104 106.962 146.158 107.07 146.158ZM115.749 151H115.227C115.107 151 115.047 150.928 115.047 150.784V142.036C115.047 141.892 115.107 141.82 115.227 141.82H115.749C115.881 141.82 115.947 141.892 115.947 142.036V142.792H116.019C116.151 142.54 116.385 142.318 116.721 142.126C117.057 141.922 117.471 141.82 117.963 141.82H118.665C118.797 141.82 118.863 141.886 118.863 142.018V142.45C118.863 142.582 118.797 142.642 118.665 142.63H117.819C117.231 142.63 116.769 142.81 116.433 143.17C116.109 143.53 115.947 144.016 115.947 144.628V150.784C115.947 150.928 115.881 151 115.749 151ZM123.66 151H120.528C120.396 151 120.33 150.934 120.33 150.802V150.388C120.33 150.268 120.396 150.208 120.528 150.208H123.57C124.65 150.208 125.19 149.788 125.19 148.948V148.516C125.19 147.736 124.854 147.226 124.182 146.986L121.932 146.122C121.32 145.882 120.882 145.6 120.618 145.276C120.366 144.952 120.24 144.502 120.24 143.926C120.24 142.522 121.014 141.82 122.562 141.82H125.478C125.61 141.82 125.676 141.886 125.676 142.018V142.432C125.676 142.552 125.61 142.612 125.478 142.612H122.652C122.16 142.612 121.788 142.72 121.536 142.936C121.296 143.152 121.176 143.404 121.176 143.692V144.106C121.176 144.442 121.266 144.706 121.446 144.898C121.638 145.09 121.926 145.252 122.31 145.384L124.56 146.284C125.184 146.488 125.598 146.794 125.802 147.202C126.018 147.598 126.126 148.156 126.126 148.876C126.126 149.596 125.922 150.13 125.514 150.478C125.118 150.826 124.5 151 123.66 151ZM57.4505 174H55.1825C54.4025 174 53.7845 173.772 53.3285 173.316C52.8845 172.86 52.6625 172.236 52.6625 171.444V164.982C52.6625 164.19 52.8845 163.566 53.3285 163.11C53.7845 162.654 54.4025 162.426 55.1825 162.426H57.4505C58.2305 162.426 58.8425 162.654 59.2865 163.11C59.7425 163.566 59.9705 164.19 59.9705 164.982V165.864C59.9705 166.008 59.9045 166.08 59.7725 166.08H59.2685C59.1365 166.08 59.0705 166.008 59.0705 165.864V165.018C59.0705 164.442 58.9205 164.004 58.6205 163.704C58.3325 163.392 57.9125 163.236 57.3605 163.236H55.2545C54.7025 163.236 54.2825 163.392 53.9945 163.704C53.7065 164.016 53.5625 164.454 53.5625 165.018V171.408C53.5625 171.972 53.7065 172.41 53.9945 172.722C54.2825 173.034 54.7025 173.19 55.2545 173.19H57.3605C57.9125 173.19 58.3325 173.04 58.6205 172.74C58.9205 172.428 59.0705 171.984 59.0705 171.408V170.562C59.0705 170.418 59.1365 170.346 59.2685 170.346H59.7725C59.9045 170.346 59.9705 170.418 59.9705 170.562V171.444C59.9705 172.236 59.7425 172.86 59.2865 173.316C58.8425 173.772 58.2305 174 57.4505 174ZM66.3064 174H64.7584C63.9784 174 63.3604 173.772 62.9044 173.316C62.4604 172.86 62.2384 172.236 62.2384 171.444V167.376C62.2384 166.584 62.4604 165.96 62.9044 165.504C63.3604 165.048 63.9784 164.82 64.7584 164.82H66.3064C67.0864 164.82 67.7044 165.048 68.1604 165.504C68.6164 165.96 68.8444 166.584 68.8444 167.376V171.444C68.8444 172.236 68.6164 172.86 68.1604 173.316C67.7044 173.772 67.0864 174 66.3064 174ZM64.8304 173.19H66.2344C66.7864 173.19 67.2064 173.04 67.4944 172.74C67.7944 172.428 67.9444 171.99 67.9444 171.426V167.394C67.9444 166.83 67.7944 166.398 67.4944 166.098C67.2064 165.786 66.7864 165.63 66.2344 165.63H64.8304C64.2784 165.63 63.8584 165.786 63.5704 166.098C63.2824 166.398 63.1384 166.83 63.1384 167.394V171.426C63.1384 171.99 63.2824 172.428 63.5704 172.74C63.8584 173.04 64.2784 173.19 64.8304 173.19ZM72.05 174H71.528C71.408 174 71.348 173.928 71.348 173.784V165.036C71.348 164.892 71.408 164.82 71.528 164.82H72.05C72.182 164.82 72.248 164.892 72.248 165.036V165.756H72.32C72.656 165.132 73.28 164.82 74.192 164.82H75.38C76.148 164.82 76.754 165.048 77.198 165.504C77.642 165.96 77.864 166.584 77.864 167.376V173.784C77.864 173.928 77.804 174 77.684 174H77.162C77.03 174 76.964 173.928 76.964 173.784V167.412C76.964 166.848 76.82 166.41 76.532 166.098C76.244 165.786 75.824 165.63 75.272 165.63H74.102C73.526 165.63 73.07 165.786 72.734 166.098C72.41 166.398 72.248 166.83 72.248 167.394V173.784C72.248 173.928 72.182 174 72.05 174ZM80.8671 165.63H79.7691C79.6371 165.63 79.5711 165.57 79.5711 165.45V165.018C79.5711 164.886 79.6371 164.82 79.7691 164.82H80.8671C80.9751 164.82 81.0291 164.766 81.0291 164.658V163.2C81.0291 163.056 81.0951 162.984 81.2271 162.984H81.7491C81.8811 162.984 81.9471 163.056 81.9471 163.2V164.658C81.9471 164.766 82.0011 164.82 82.1091 164.82H84.2511C84.3831 164.82 84.4491 164.886 84.4491 165.018V165.45C84.4491 165.57 84.3831 165.63 84.2511 165.63H82.1091C82.0011 165.63 81.9471 165.684 81.9471 165.792V171.462C81.9471 172.014 82.1031 172.44 82.4151 172.74C82.7271 173.04 83.1651 173.19 83.7291 173.19H84.4311C84.5631 173.19 84.6291 173.256 84.6291 173.388V173.802C84.6291 173.934 84.5631 174 84.4311 174H83.6571C82.8651 174 82.2291 173.778 81.7491 173.334C81.2691 172.89 81.0291 172.278 81.0291 171.498V165.792C81.0291 165.684 80.9751 165.63 80.8671 165.63ZM87.4133 174H86.8913C86.7713 174 86.7113 173.928 86.7113 173.784V165.036C86.7113 164.892 86.7713 164.82 86.8913 164.82H87.4133C87.5453 164.82 87.6113 164.892 87.6113 165.036V165.792H87.6833C87.8153 165.54 88.0493 165.318 88.3853 165.126C88.7213 164.922 89.1353 164.82 89.6273 164.82H90.3293C90.4613 164.82 90.5273 164.886 90.5273 165.018V165.45C90.5273 165.582 90.4613 165.642 90.3293 165.63H89.4833C88.8953 165.63 88.4333 165.81 88.0973 166.17C87.7733 166.53 87.6113 167.016 87.6113 167.628V173.784C87.6113 173.928 87.5453 174 87.4133 174ZM95.8459 174H94.6939C93.9139 174 93.2959 173.772 92.8399 173.316C92.3959 172.86 92.1739 172.236 92.1739 171.444V167.376C92.1739 166.584 92.3959 165.96 92.8399 165.504C93.2959 165.048 93.9139 164.82 94.6939 164.82H98.5099C98.6299 164.82 98.6899 164.892 98.6899 165.036V173.784C98.6899 173.928 98.6299 174 98.5099 174H97.9879C97.8559 174 97.7899 173.928 97.7899 173.784V173.064H97.7179C97.4059 173.688 96.7819 174 95.8459 174ZM97.7899 171.426V165.792C97.7899 165.684 97.7299 165.63 97.6099 165.63H94.7659C94.2139 165.63 93.7939 165.786 93.5059 166.098C93.2179 166.41 93.0739 166.848 93.0739 167.412V171.408C93.0739 171.972 93.2179 172.41 93.5059 172.722C93.7939 173.034 94.2139 173.19 94.7659 173.19H95.9359C96.5119 173.19 96.9619 173.04 97.2859 172.74C97.6219 172.428 97.7899 171.99 97.7899 171.426ZM106.519 173.388V173.802C106.519 173.934 106.453 174 106.321 174H103.729C102.949 174 102.331 173.772 101.875 173.316C101.431 172.86 101.209 172.236 101.209 171.444V167.376C101.209 166.584 101.431 165.96 101.875 165.504C102.331 165.048 102.949 164.82 103.729 164.82H106.321C106.453 164.82 106.519 164.886 106.519 165.018V165.45C106.519 165.57 106.453 165.63 106.321 165.63H103.801C103.249 165.63 102.829 165.786 102.541 166.098C102.253 166.41 102.109 166.848 102.109 167.412V171.408C102.109 171.972 102.253 172.41 102.541 172.722C102.829 173.034 103.249 173.19 103.801 173.19H106.321C106.453 173.19 106.519 173.256 106.519 173.388ZM108.869 165.63H107.771C107.639 165.63 107.573 165.57 107.573 165.45V165.018C107.573 164.886 107.639 164.82 107.771 164.82H108.869C108.977 164.82 109.031 164.766 109.031 164.658V163.2C109.031 163.056 109.097 162.984 109.229 162.984H109.751C109.883 162.984 109.949 163.056 109.949 163.2V164.658C109.949 164.766 110.003 164.82 110.111 164.82H112.253C112.385 164.82 112.451 164.886 112.451 165.018V165.45C112.451 165.57 112.385 165.63 112.253 165.63H110.111C110.003 165.63 109.949 165.684 109.949 165.792V171.462C109.949 172.014 110.105 172.44 110.417 172.74C110.729 173.04 111.167 173.19 111.731 173.19H112.433C112.565 173.19 112.631 173.256 112.631 173.388V173.802C112.631 173.934 112.565 174 112.433 174H111.659C110.867 174 110.231 173.778 109.751 173.334C109.271 172.89 109.031 172.278 109.031 171.498V165.792C109.031 165.684 108.977 165.63 108.869 165.63ZM118.601 174H117.053C116.273 174 115.655 173.772 115.199 173.316C114.755 172.86 114.533 172.236 114.533 171.444V167.376C114.533 166.584 114.755 165.96 115.199 165.504C115.655 165.048 116.273 164.82 117.053 164.82H118.601C119.381 164.82 119.999 165.048 120.455 165.504C120.911 165.96 121.139 166.584 121.139 167.376V171.444C121.139 172.236 120.911 172.86 120.455 173.316C119.999 173.772 119.381 174 118.601 174ZM117.125 173.19H118.529C119.081 173.19 119.501 173.04 119.789 172.74C120.089 172.428 120.239 171.99 120.239 171.426V167.394C120.239 166.83 120.089 166.398 119.789 166.098C119.501 165.786 119.081 165.63 118.529 165.63H117.125C116.573 165.63 116.153 165.786 115.865 166.098C115.577 166.398 115.433 166.83 115.433 167.394V171.426C115.433 171.99 115.577 172.428 115.865 172.74C116.153 173.04 116.573 173.19 117.125 173.19ZM124.345 174H123.823C123.703 174 123.643 173.928 123.643 173.784V165.036C123.643 164.892 123.703 164.82 123.823 164.82H124.345C124.477 164.82 124.543 164.892 124.543 165.036V165.792H124.615C124.747 165.54 124.981 165.318 125.317 165.126C125.653 164.922 126.067 164.82 126.559 164.82H127.261C127.393 164.82 127.459 164.886 127.459 165.018V165.45C127.459 165.582 127.393 165.642 127.261 165.63H126.415C125.827 165.63 125.365 165.81 125.029 166.17C124.705 166.53 124.543 167.016 124.543 167.628V173.784C124.543 173.928 124.477 174 124.345 174ZM132.256 174H129.124C128.992 174 128.926 173.934 128.926 173.802V173.388C128.926 173.268 128.992 173.208 129.124 173.208H132.166C133.246 173.208 133.786 172.788 133.786 171.948V171.516C133.786 170.736 133.45 170.226 132.778 169.986L130.528 169.122C129.916 168.882 129.478 168.6 129.214 168.276C128.962 167.952 128.836 167.502 128.836 166.926C128.836 165.522 129.61 164.82 131.158 164.82H134.074C134.206 164.82 134.272 164.886 134.272 165.018V165.432C134.272 165.552 134.206 165.612 134.074 165.612H131.248C130.756 165.612 130.384 165.72 130.132 165.936C129.892 166.152 129.772 166.404 129.772 166.692V167.106C129.772 167.442 129.862 167.706 130.042 167.898C130.234 168.09 130.522 168.252 130.906 168.384L133.156 169.284C133.78 169.488 134.194 169.794 134.398 170.202C134.614 170.598 134.722 171.156 134.722 171.876C134.722 172.596 134.518 173.13 134.11 173.478C133.714 173.826 133.096 174 132.256 174ZM15.4 197H14.878C14.758 197 14.698 196.928 14.698 196.784V185.642C14.698 185.498 14.758 185.426 14.878 185.426H19.018C19.798 185.426 20.416 185.654 20.872 186.11C21.328 186.566 21.556 187.19 21.556 187.982V190.088C21.556 190.88 21.328 191.504 20.872 191.96C20.416 192.416 19.798 192.644 19.018 192.644H15.778C15.658 192.644 15.598 192.692 15.598 192.788V196.784C15.598 196.928 15.532 197 15.4 197ZM15.778 191.816H18.946C19.498 191.816 19.918 191.666 20.206 191.366C20.494 191.054 20.638 190.616 20.638 190.052V188.018C20.638 187.442 20.494 187.004 20.206 186.704C19.918 186.392 19.498 186.236 18.946 186.236H15.778C15.658 186.236 15.598 186.29 15.598 186.398V191.672C15.598 191.768 15.658 191.816 15.778 191.816ZM24.6594 197H24.1374C24.0174 197 23.9574 196.928 23.9574 196.784V188.036C23.9574 187.892 24.0174 187.82 24.1374 187.82H24.6594C24.7914 187.82 24.8574 187.892 24.8574 188.036V188.792H24.9294C25.0614 188.54 25.2954 188.318 25.6314 188.126C25.9674 187.922 26.3814 187.82 26.8734 187.82H27.5754C27.7074 187.82 27.7734 187.886 27.7734 188.018V188.45C27.7734 188.582 27.7074 188.642 27.5754 188.63H26.7294C26.1414 188.63 25.6794 188.81 25.3434 189.17C25.0194 189.53 24.8574 190.016 24.8574 190.628V196.784C24.8574 196.928 24.7914 197 24.6594 197ZM33.488 197H31.94C31.16 197 30.542 196.772 30.086 196.316C29.642 195.86 29.42 195.236 29.42 194.444V190.376C29.42 189.584 29.642 188.96 30.086 188.504C30.542 188.048 31.16 187.82 31.94 187.82H33.488C34.268 187.82 34.886 188.048 35.342 188.504C35.798 188.96 36.026 189.584 36.026 190.376V194.444C36.026 195.236 35.798 195.86 35.342 196.316C34.886 196.772 34.268 197 33.488 197ZM32.012 196.19H33.416C33.968 196.19 34.388 196.04 34.676 195.74C34.976 195.428 35.126 194.99 35.126 194.426V190.394C35.126 189.83 34.976 189.398 34.676 189.098C34.388 188.786 33.968 188.63 33.416 188.63H32.012C31.46 188.63 31.04 188.786 30.752 189.098C30.464 189.398 30.32 189.83 30.32 190.394V194.426C30.32 194.99 30.464 195.428 30.752 195.74C31.04 196.04 31.46 196.19 32.012 196.19ZM38.6197 186.308V184.58C38.6197 184.448 38.6797 184.382 38.7997 184.382H39.3397C39.4597 184.382 39.5197 184.448 39.5197 184.58V186.308C39.5197 186.452 39.4597 186.524 39.3397 186.524H38.7997C38.6797 186.524 38.6197 186.452 38.6197 186.308ZM36.9817 199.52H36.4597C36.3157 199.52 36.2437 199.454 36.2437 199.322V198.89C36.2437 198.77 36.3157 198.71 36.4597 198.71H36.8377C38.0257 198.71 38.6197 198.092 38.6197 196.856V188.036C38.6197 187.892 38.6797 187.82 38.7997 187.82H39.3217C39.4537 187.82 39.5197 187.892 39.5197 188.036V196.964C39.5197 197.756 39.2917 198.38 38.8357 198.836C38.3797 199.292 37.7617 199.52 36.9817 199.52ZM48.411 197H44.649C43.869 197 43.251 196.772 42.795 196.316C42.351 195.86 42.129 195.236 42.129 194.444V190.376C42.129 189.584 42.351 188.96 42.795 188.504C43.251 188.048 43.869 187.82 44.649 187.82H46.197C46.977 187.82 47.595 188.048 48.051 188.504C48.507 188.96 48.735 189.584 48.735 190.376V192.662C48.735 192.806 48.663 192.878 48.519 192.878H43.191C43.083 192.878 43.029 192.932 43.029 193.04V194.426C43.029 194.99 43.173 195.428 43.461 195.74C43.749 196.04 44.169 196.19 44.721 196.19H48.411C48.543 196.19 48.609 196.256 48.609 196.388V196.802C48.609 196.934 48.543 197 48.411 197ZM43.191 192.158H47.673C47.781 192.158 47.835 192.104 47.835 191.996V190.394C47.835 189.83 47.691 189.398 47.403 189.098C47.115 188.786 46.695 188.63 46.143 188.63H44.721C44.169 188.63 43.749 188.786 43.461 189.098C43.173 189.398 43.029 189.83 43.029 190.394V191.996C43.029 192.104 43.083 192.158 43.191 192.158ZM56.2984 196.388V196.802C56.2984 196.934 56.2324 197 56.1004 197H53.5084C52.7284 197 52.1104 196.772 51.6544 196.316C51.2104 195.86 50.9884 195.236 50.9884 194.444V190.376C50.9884 189.584 51.2104 188.96 51.6544 188.504C52.1104 188.048 52.7284 187.82 53.5084 187.82H56.1004C56.2324 187.82 56.2984 187.886 56.2984 188.018V188.45C56.2984 188.57 56.2324 188.63 56.1004 188.63H53.5804C53.0284 188.63 52.6084 188.786 52.3204 189.098C52.0324 189.41 51.8884 189.848 51.8884 190.412V194.408C51.8884 194.972 52.0324 195.41 52.3204 195.722C52.6084 196.034 53.0284 196.19 53.5804 196.19H56.1004C56.2324 196.19 56.2984 196.256 56.2984 196.388ZM58.6483 188.63H57.5503C57.4183 188.63 57.3523 188.57 57.3523 188.45V188.018C57.3523 187.886 57.4183 187.82 57.5503 187.82H58.6483C58.7563 187.82 58.8103 187.766 58.8103 187.658V186.2C58.8103 186.056 58.8763 185.984 59.0083 185.984H59.5303C59.6623 185.984 59.7283 186.056 59.7283 186.2V187.658C59.7283 187.766 59.7823 187.82 59.8903 187.82H62.0323C62.1643 187.82 62.2303 187.886 62.2303 188.018V188.45C62.2303 188.57 62.1643 188.63 62.0323 188.63H59.8903C59.7823 188.63 59.7283 188.684 59.7283 188.792V194.462C59.7283 195.014 59.8843 195.44 60.1963 195.74C60.5083 196.04 60.9463 196.19 61.5103 196.19H62.2123C62.3443 196.19 62.4103 196.256 62.4103 196.388V196.802C62.4103 196.934 62.3443 197 62.2123 197H61.4383C60.6463 197 60.0103 196.778 59.5303 196.334C59.0503 195.89 58.8103 195.278 58.8103 194.498V188.792C58.8103 188.684 58.7563 188.63 58.6483 188.63ZM77.7874 185.426H78.7594C78.8794 185.426 78.9394 185.498 78.9394 185.642V196.784C78.9394 196.928 78.8794 197 78.7594 197H78.2374C78.1054 197 78.0394 196.928 78.0394 196.784V186.812H77.9674L74.7814 194.282C74.7094 194.414 74.6194 194.48 74.5114 194.48H73.9174C73.7974 194.48 73.7134 194.414 73.6654 194.282L70.4254 186.794H70.3534V196.784C70.3534 196.928 70.2934 197 70.1734 197H69.6514C69.5314 197 69.4714 196.928 69.4714 196.784V185.642C69.4714 185.498 69.5314 185.426 69.6514 185.426H70.6234C70.7074 185.426 70.7614 185.462 70.7854 185.534L74.1694 193.436H74.2414L77.6254 185.534C77.6494 185.462 77.7034 185.426 77.7874 185.426ZM87.9266 197H84.1646C83.3846 197 82.7666 196.772 82.3106 196.316C81.8666 195.86 81.6446 195.236 81.6446 194.444V190.376C81.6446 189.584 81.8666 188.96 82.3106 188.504C82.7666 188.048 83.3846 187.82 84.1646 187.82H85.7126C86.4926 187.82 87.1106 188.048 87.5666 188.504C88.0226 188.96 88.2506 189.584 88.2506 190.376V192.662C88.2506 192.806 88.1786 192.878 88.0346 192.878H82.7066C82.5986 192.878 82.5446 192.932 82.5446 193.04V194.426C82.5446 194.99 82.6886 195.428 82.9766 195.74C83.2646 196.04 83.6846 196.19 84.2366 196.19H87.9266C88.0586 196.19 88.1246 196.256 88.1246 196.388V196.802C88.1246 196.934 88.0586 197 87.9266 197ZM82.7066 192.158H87.1886C87.2966 192.158 87.3506 192.104 87.3506 191.996V190.394C87.3506 189.83 87.2066 189.398 86.9186 189.098C86.6306 188.786 86.2106 188.63 85.6586 188.63H84.2366C83.6846 188.63 83.2646 188.786 82.9766 189.098C82.6886 189.398 82.5446 189.83 82.5446 190.394V191.996C82.5446 192.104 82.5986 192.158 82.7066 192.158ZM91.08 188.63H89.982C89.85 188.63 89.784 188.57 89.784 188.45V188.018C89.784 187.886 89.85 187.82 89.982 187.82H91.08C91.188 187.82 91.242 187.766 91.242 187.658V186.2C91.242 186.056 91.308 185.984 91.44 185.984H91.962C92.094 185.984 92.16 186.056 92.16 186.2V187.658C92.16 187.766 92.214 187.82 92.322 187.82H94.464C94.596 187.82 94.662 187.886 94.662 188.018V188.45C94.662 188.57 94.596 188.63 94.464 188.63H92.322C92.214 188.63 92.16 188.684 92.16 188.792V194.462C92.16 195.014 92.316 195.44 92.628 195.74C92.94 196.04 93.378 196.19 93.942 196.19H94.644C94.776 196.19 94.842 196.256 94.842 196.388V196.802C94.842 196.934 94.776 197 94.644 197H93.87C93.078 197 92.442 196.778 91.962 196.334C91.482 195.89 91.242 195.278 91.242 194.498V188.792C91.242 188.684 91.188 188.63 91.08 188.63ZM97.6262 197H97.1042C96.9842 197 96.9242 196.928 96.9242 196.784V184.562C96.9242 184.418 96.9842 184.346 97.1042 184.346H97.6262C97.7582 184.346 97.8242 184.418 97.8242 184.562V188.756H97.8962C98.2322 188.132 98.8562 187.82 99.7682 187.82H100.956C101.724 187.82 102.33 188.048 102.774 188.504C103.218 188.96 103.44 189.584 103.44 190.376V196.784C103.44 196.928 103.38 197 103.26 197H102.738C102.606 197 102.54 196.928 102.54 196.784V190.412C102.54 189.848 102.396 189.41 102.108 189.098C101.82 188.786 101.4 188.63 100.848 188.63H99.6782C99.1022 188.63 98.6462 188.786 98.3102 189.098C97.9862 189.398 97.8242 189.83 97.8242 190.394V196.784C97.8242 196.928 97.7582 197 97.6262 197ZM109.935 197H108.387C107.607 197 106.989 196.772 106.533 196.316C106.089 195.86 105.867 195.236 105.867 194.444V190.376C105.867 189.584 106.089 188.96 106.533 188.504C106.989 188.048 107.607 187.82 108.387 187.82H109.935C110.715 187.82 111.333 188.048 111.789 188.504C112.245 188.96 112.473 189.584 112.473 190.376V194.444C112.473 195.236 112.245 195.86 111.789 196.316C111.333 196.772 110.715 197 109.935 197ZM108.459 196.19H109.863C110.415 196.19 110.835 196.04 111.123 195.74C111.423 195.428 111.573 194.99 111.573 194.426V190.394C111.573 189.83 111.423 189.398 111.123 189.098C110.835 188.786 110.415 188.63 109.863 188.63H108.459C107.907 188.63 107.487 188.786 107.199 189.098C106.911 189.398 106.767 189.83 106.767 190.394V194.426C106.767 194.99 106.911 195.428 107.199 195.74C107.487 196.04 107.907 196.19 108.459 196.19ZM118.487 197H117.281C116.513 197 115.907 196.772 115.463 196.316C115.019 195.86 114.797 195.236 114.797 194.444V190.376C114.797 189.584 115.019 188.96 115.463 188.504C115.907 188.048 116.513 187.82 117.281 187.82H118.487C119.411 187.82 120.041 188.132 120.377 188.756H120.449V184.562C120.449 184.418 120.509 184.346 120.629 184.346H121.151C121.283 184.346 121.349 184.418 121.349 184.562V196.784C121.349 196.928 121.283 197 121.151 197H120.629C120.509 197 120.449 196.928 120.449 196.784V196.064H120.377C120.041 196.688 119.411 197 118.487 197ZM120.449 194.426V190.394C120.449 189.83 120.281 189.398 119.945 189.098C119.621 188.786 119.171 188.63 118.595 188.63H117.389C116.837 188.63 116.417 188.786 116.129 189.098C115.841 189.41 115.697 189.848 115.697 190.412V194.408C115.697 194.972 115.841 195.41 116.129 195.722C116.417 196.034 116.837 196.19 117.389 196.19H118.595C119.171 196.19 119.621 196.04 119.945 195.74C120.281 195.428 120.449 194.99 120.449 194.426ZM127.935 197H126.387C125.607 197 124.989 196.772 124.533 196.316C124.089 195.86 123.867 195.236 123.867 194.444V190.376C123.867 189.584 124.089 188.96 124.533 188.504C124.989 188.048 125.607 187.82 126.387 187.82H127.935C128.715 187.82 129.333 188.048 129.789 188.504C130.245 188.96 130.473 189.584 130.473 190.376V194.444C130.473 195.236 130.245 195.86 129.789 196.316C129.333 196.772 128.715 197 127.935 197ZM126.459 196.19H127.863C128.415 196.19 128.835 196.04 129.123 195.74C129.423 195.428 129.573 194.99 129.573 194.426V190.394C129.573 189.83 129.423 189.398 129.123 189.098C128.835 188.786 128.415 188.63 127.863 188.63H126.459C125.907 188.63 125.487 188.786 125.199 189.098C124.911 189.398 124.767 189.83 124.767 190.394V194.426C124.767 194.99 124.911 195.428 125.199 195.74C125.487 196.04 125.907 196.19 126.459 196.19ZM133.769 197H133.247C133.127 197 133.067 196.928 133.067 196.784V184.562C133.067 184.418 133.127 184.346 133.247 184.346H133.769C133.901 184.346 133.967 184.418 133.967 184.562V196.784C133.967 196.928 133.901 197 133.769 197ZM140.644 197H139.096C138.316 197 137.698 196.772 137.242 196.316C136.798 195.86 136.576 195.236 136.576 194.444V190.376C136.576 189.584 136.798 188.96 137.242 188.504C137.698 188.048 138.316 187.82 139.096 187.82H140.644C141.424 187.82 142.042 188.048 142.498 188.504C142.954 188.96 143.182 189.584 143.182 190.376V194.444C143.182 195.236 142.954 195.86 142.498 196.316C142.042 196.772 141.424 197 140.644 197ZM139.168 196.19H140.572C141.124 196.19 141.544 196.04 141.832 195.74C142.132 195.428 142.282 194.99 142.282 194.426V190.394C142.282 189.83 142.132 189.398 141.832 189.098C141.544 188.786 141.124 188.63 140.572 188.63H139.168C138.616 188.63 138.196 188.786 137.908 189.098C137.62 189.398 137.476 189.83 137.476 190.394V194.426C137.476 194.99 137.62 195.428 137.908 195.74C138.196 196.04 138.616 196.19 139.168 196.19ZM149.25 196.478H148.08C147.312 196.478 146.7 196.25 146.244 195.794C145.8 195.338 145.578 194.72 145.578 193.94V190.376C145.578 189.584 145.8 188.96 146.244 188.504C146.7 188.048 147.318 187.82 148.098 187.82H151.914C152.046 187.82 152.112 187.892 152.112 188.036V196.964C152.112 197.756 151.884 198.38 151.428 198.836C150.972 199.292 150.354 199.52 149.574 199.52H146.298C146.166 199.52 146.1 199.454 146.1 199.322V198.89C146.1 198.77 146.166 198.71 146.298 198.71H149.502C150.054 198.71 150.474 198.554 150.762 198.242C151.05 197.942 151.194 197.504 151.194 196.928V195.542H151.122C150.822 196.166 150.198 196.478 149.25 196.478ZM151.194 193.904V188.792C151.194 188.684 151.14 188.63 151.032 188.63H148.188C147.636 188.63 147.21 188.786 146.91 189.098C146.622 189.398 146.478 189.836 146.478 190.412V193.904C146.478 194.468 146.622 194.906 146.91 195.218C147.21 195.518 147.636 195.668 148.188 195.668H149.34C149.916 195.668 150.366 195.518 150.69 195.218C151.026 194.906 151.194 194.468 151.194 193.904ZM154.881 186.308V184.58C154.881 184.448 154.941 184.382 155.061 184.382H155.601C155.721 184.382 155.781 184.448 155.781 184.58V186.308C155.781 186.452 155.721 186.524 155.601 186.524H155.061C154.941 186.524 154.881 186.452 154.881 186.308ZM154.881 196.784V188.036C154.881 187.892 154.941 187.82 155.061 187.82H155.583C155.715 187.82 155.781 187.892 155.781 188.036V196.784C155.781 196.928 155.721 197 155.601 197H155.061C154.941 197 154.881 196.928 154.881 196.784ZM164.673 197H160.911C160.131 197 159.513 196.772 159.057 196.316C158.613 195.86 158.391 195.236 158.391 194.444V190.376C158.391 189.584 158.613 188.96 159.057 188.504C159.513 188.048 160.131 187.82 160.911 187.82H162.459C163.239 187.82 163.857 188.048 164.313 188.504C164.769 188.96 164.997 189.584 164.997 190.376V192.662C164.997 192.806 164.925 192.878 164.781 192.878H159.453C159.345 192.878 159.291 192.932 159.291 193.04V194.426C159.291 194.99 159.435 195.428 159.723 195.74C160.011 196.04 160.431 196.19 160.983 196.19H164.673C164.805 196.19 164.871 196.256 164.871 196.388V196.802C164.871 196.934 164.805 197 164.673 197ZM159.453 192.158H163.935C164.043 192.158 164.097 192.104 164.097 191.996V190.394C164.097 189.83 163.953 189.398 163.665 189.098C163.377 188.786 162.957 188.63 162.405 188.63H160.983C160.431 188.63 160.011 188.786 159.723 189.098C159.435 189.398 159.291 189.83 159.291 190.394V191.996C159.291 192.104 159.345 192.158 159.453 192.158ZM170.4 197H167.268C167.136 197 167.07 196.934 167.07 196.802V196.388C167.07 196.268 167.136 196.208 167.268 196.208H170.31C171.39 196.208 171.93 195.788 171.93 194.948V194.516C171.93 193.736 171.594 193.226 170.922 192.986L168.672 192.122C168.06 191.882 167.622 191.6 167.358 191.276C167.106 190.952 166.98 190.502 166.98 189.926C166.98 188.522 167.754 187.82 169.302 187.82H172.218C172.35 187.82 172.416 187.886 172.416 188.018V188.432C172.416 188.552 172.35 188.612 172.218 188.612H169.392C168.9 188.612 168.528 188.72 168.276 188.936C168.036 189.152 167.916 189.404 167.916 189.692V190.106C167.916 190.442 168.006 190.706 168.186 190.898C168.378 191.09 168.666 191.252 169.05 191.384L171.3 192.284C171.924 192.488 172.338 192.794 172.542 193.202C172.758 193.598 172.866 194.156 172.866 194.876C172.866 195.596 172.662 196.13 172.254 196.478C171.858 196.826 171.24 197 170.4 197ZM14.4632 220H12.1952C11.4152 220 10.7972 219.772 10.3412 219.316C9.8972 218.86 9.6752 218.236 9.6752 217.444V210.982C9.6752 210.19 9.8972 209.566 10.3412 209.11C10.7972 208.654 11.4152 208.426 12.1952 208.426H14.4632C15.2432 208.426 15.8552 208.654 16.2992 209.11C16.7552 209.566 16.9832 210.19 16.9832 210.982V211.864C16.9832 212.008 16.9172 212.08 16.7852 212.08H16.2812C16.1492 212.08 16.0832 212.008 16.0832 211.864V211.018C16.0832 210.442 15.9332 210.004 15.6332 209.704C15.3452 209.392 14.9252 209.236 14.3732 209.236H12.2672C11.7152 209.236 11.2952 209.392 11.0072 209.704C10.7192 210.016 10.5752 210.454 10.5752 211.018V217.408C10.5752 217.972 10.7192 218.41 11.0072 218.722C11.2952 219.034 11.7152 219.19 12.2672 219.19H14.3732C14.9252 219.19 15.3452 219.04 15.6332 218.74C15.9332 218.428 16.0832 217.984 16.0832 217.408V216.562C16.0832 216.418 16.1492 216.346 16.2812 216.346H16.7852C16.9172 216.346 16.9832 216.418 16.9832 216.562V217.444C16.9832 218.236 16.7552 218.86 16.2992 219.316C15.8552 219.772 15.2432 220 14.4632 220ZM23.3191 220H21.7711C20.9911 220 20.3731 219.772 19.9171 219.316C19.4731 218.86 19.2511 218.236 19.2511 217.444V213.376C19.2511 212.584 19.4731 211.96 19.9171 211.504C20.3731 211.048 20.9911 210.82 21.7711 210.82H23.3191C24.0991 210.82 24.7171 211.048 25.1731 211.504C25.6291 211.96 25.8571 212.584 25.8571 213.376V217.444C25.8571 218.236 25.6291 218.86 25.1731 219.316C24.7171 219.772 24.0991 220 23.3191 220ZM21.8431 219.19H23.2471C23.7991 219.19 24.2191 219.04 24.5071 218.74C24.8071 218.428 24.9571 217.99 24.9571 217.426V213.394C24.9571 212.83 24.8071 212.398 24.5071 212.098C24.2191 211.786 23.7991 211.63 23.2471 211.63H21.8431C21.2911 211.63 20.8711 211.786 20.5831 212.098C20.2951 212.398 20.1511 212.83 20.1511 213.394V217.426C20.1511 217.99 20.2951 218.428 20.5831 218.74C20.8711 219.04 21.2911 219.19 21.8431 219.19ZM29.0627 220H28.5407C28.4207 220 28.3607 219.928 28.3607 219.784V211.036C28.3607 210.892 28.4207 210.82 28.5407 210.82H29.0627C29.1947 210.82 29.2607 210.892 29.2607 211.036V211.756H29.3327C29.6687 211.132 30.2927 210.82 31.2047 210.82H32.3927C33.1607 210.82 33.7667 211.048 34.2107 211.504C34.6547 211.96 34.8767 212.584 34.8767 213.376V219.784C34.8767 219.928 34.8167 220 34.6967 220H34.1747C34.0427 220 33.9767 219.928 33.9767 219.784V213.412C33.9767 212.848 33.8327 212.41 33.5447 212.098C33.2567 211.786 32.8367 211.63 32.2847 211.63H31.1147C30.5387 211.63 30.0827 211.786 29.7467 212.098C29.4227 212.398 29.2607 212.83 29.2607 213.394V219.784C29.2607 219.928 29.1947 220 29.0627 220ZM37.8798 211.63H36.7818C36.6498 211.63 36.5838 211.57 36.5838 211.45V211.018C36.5838 210.886 36.6498 210.82 36.7818 210.82H37.8798C37.9878 210.82 38.0418 210.766 38.0418 210.658V209.2C38.0418 209.056 38.1078 208.984 38.2398 208.984H38.7618C38.8938 208.984 38.9598 209.056 38.9598 209.2V210.658C38.9598 210.766 39.0138 210.82 39.1218 210.82H41.2638C41.3958 210.82 41.4618 210.886 41.4618 211.018V211.45C41.4618 211.57 41.3958 211.63 41.2638 211.63H39.1218C39.0138 211.63 38.9598 211.684 38.9598 211.792V217.462C38.9598 218.014 39.1158 218.44 39.4278 218.74C39.7398 219.04 40.1778 219.19 40.7418 219.19H41.4438C41.5758 219.19 41.6418 219.256 41.6418 219.388V219.802C41.6418 219.934 41.5758 220 41.4438 220H40.6698C39.8778 220 39.2418 219.778 38.7618 219.334C38.2818 218.89 38.0418 218.278 38.0418 217.498V211.792C38.0418 211.684 37.9878 211.63 37.8798 211.63ZM44.426 220H43.904C43.784 220 43.724 219.928 43.724 219.784V211.036C43.724 210.892 43.784 210.82 43.904 210.82H44.426C44.558 210.82 44.624 210.892 44.624 211.036V211.792H44.696C44.828 211.54 45.062 211.318 45.398 211.126C45.734 210.922 46.148 210.82 46.64 210.82H47.342C47.474 210.82 47.54 210.886 47.54 211.018V211.45C47.54 211.582 47.474 211.642 47.342 211.63H46.496C45.908 211.63 45.446 211.81 45.11 212.17C44.786 212.53 44.624 213.016 44.624 213.628V219.784C44.624 219.928 44.558 220 44.426 220ZM52.8586 220H51.7066C50.9266 220 50.3086 219.772 49.8526 219.316C49.4086 218.86 49.1866 218.236 49.1866 217.444V213.376C49.1866 212.584 49.4086 211.96 49.8526 211.504C50.3086 211.048 50.9266 210.82 51.7066 210.82H55.5226C55.6426 210.82 55.7026 210.892 55.7026 211.036V219.784C55.7026 219.928 55.6426 220 55.5226 220H55.0006C54.8686 220 54.8026 219.928 54.8026 219.784V219.064H54.7306C54.4186 219.688 53.7946 220 52.8586 220ZM54.8026 217.426V211.792C54.8026 211.684 54.7426 211.63 54.6226 211.63H51.7786C51.2266 211.63 50.8066 211.786 50.5186 212.098C50.2306 212.41 50.0866 212.848 50.0866 213.412V217.408C50.0866 217.972 50.2306 218.41 50.5186 218.722C50.8066 219.034 51.2266 219.19 51.7786 219.19H52.9486C53.5246 219.19 53.9746 219.04 54.2986 218.74C54.6346 218.428 54.8026 217.99 54.8026 217.426ZM63.5318 219.388V219.802C63.5318 219.934 63.4658 220 63.3338 220H60.7418C59.9618 220 59.3438 219.772 58.8878 219.316C58.4438 218.86 58.2218 218.236 58.2218 217.444V213.376C58.2218 212.584 58.4438 211.96 58.8878 211.504C59.3438 211.048 59.9618 210.82 60.7418 210.82H63.3338C63.4658 210.82 63.5318 210.886 63.5318 211.018V211.45C63.5318 211.57 63.4658 211.63 63.3338 211.63H60.8138C60.2618 211.63 59.8418 211.786 59.5538 212.098C59.2658 212.41 59.1218 212.848 59.1218 213.412V217.408C59.1218 217.972 59.2658 218.41 59.5538 218.722C59.8418 219.034 60.2618 219.19 60.8138 219.19H63.3338C63.4658 219.19 63.5318 219.256 63.5318 219.388ZM65.8817 211.63H64.7837C64.6517 211.63 64.5857 211.57 64.5857 211.45V211.018C64.5857 210.886 64.6517 210.82 64.7837 210.82H65.8817C65.9897 210.82 66.0437 210.766 66.0437 210.658V209.2C66.0437 209.056 66.1097 208.984 66.2417 208.984H66.7637C66.8957 208.984 66.9617 209.056 66.9617 209.2V210.658C66.9617 210.766 67.0157 210.82 67.1237 210.82H69.2657C69.3977 210.82 69.4637 210.886 69.4637 211.018V211.45C69.4637 211.57 69.3977 211.63 69.2657 211.63H67.1237C67.0157 211.63 66.9617 211.684 66.9617 211.792V217.462C66.9617 218.014 67.1177 218.44 67.4297 218.74C67.7417 219.04 68.1797 219.19 68.7437 219.19H69.4457C69.5777 219.19 69.6437 219.256 69.6437 219.388V219.802C69.6437 219.934 69.5777 220 69.4457 220H68.6717C67.8797 220 67.2437 219.778 66.7637 219.334C66.2837 218.89 66.0437 218.278 66.0437 217.498V211.792C66.0437 211.684 65.9897 211.63 65.8817 211.63ZM74.696 220H71.564C71.432 220 71.366 219.934 71.366 219.802V219.388C71.366 219.268 71.432 219.208 71.564 219.208H74.606C75.686 219.208 76.226 218.788 76.226 217.948V217.516C76.226 216.736 75.89 216.226 75.218 215.986L72.968 215.122C72.356 214.882 71.918 214.6 71.654 214.276C71.402 213.952 71.276 213.502 71.276 212.926C71.276 211.522 72.05 210.82 73.598 210.82H76.514C76.646 210.82 76.712 210.886 76.712 211.018V211.432C76.712 211.552 76.646 211.612 76.514 211.612H73.688C73.196 211.612 72.824 211.72 72.572 211.936C72.332 212.152 72.212 212.404 72.212 212.692V213.106C72.212 213.442 72.302 213.706 72.482 213.898C72.674 214.09 72.962 214.252 73.346 214.384L75.596 215.284C76.22 215.488 76.634 215.794 76.838 216.202C77.054 216.598 77.162 217.156 77.162 217.876C77.162 218.596 76.958 219.13 76.55 219.478C76.154 219.826 75.536 220 74.696 220ZM92.7728 208.426H93.7448C93.8648 208.426 93.9248 208.498 93.9248 208.642V219.784C93.9248 219.928 93.8648 220 93.7448 220H93.2228C93.0908 220 93.0248 219.928 93.0248 219.784V209.812H92.9528L89.7668 217.282C89.6948 217.414 89.6048 217.48 89.4968 217.48H88.9028C88.7828 217.48 88.6988 217.414 88.6508 217.282L85.4108 209.794H85.3388V219.784C85.3388 219.928 85.2788 220 85.1588 220H84.6368C84.5168 220 84.4568 219.928 84.4568 219.784V208.642C84.4568 208.498 84.5168 208.426 84.6368 208.426H85.6088C85.6928 208.426 85.7468 208.462 85.7708 208.534L89.1548 216.436H89.2268L92.6108 208.534C92.6348 208.462 92.6888 208.426 92.7728 208.426ZM100.302 220H99.15C98.37 220 97.752 219.772 97.296 219.316C96.852 218.86 96.63 218.236 96.63 217.444V213.376C96.63 212.584 96.852 211.96 97.296 211.504C97.752 211.048 98.37 210.82 99.15 210.82H102.966C103.086 210.82 103.146 210.892 103.146 211.036V219.784C103.146 219.928 103.086 220 102.966 220H102.444C102.312 220 102.246 219.928 102.246 219.784V219.064H102.174C101.862 219.688 101.238 220 100.302 220ZM102.246 217.426V211.792C102.246 211.684 102.186 211.63 102.066 211.63H99.222C98.67 211.63 98.25 211.786 97.962 212.098C97.674 212.41 97.53 212.848 97.53 213.412V217.408C97.53 217.972 97.674 218.41 97.962 218.722C98.25 219.034 98.67 219.19 99.222 219.19H100.392C100.968 219.19 101.418 219.04 101.742 218.74C102.078 218.428 102.246 217.99 102.246 217.426ZM106.547 220H106.025C105.905 220 105.845 219.928 105.845 219.784V211.036C105.845 210.892 105.905 210.82 106.025 210.82H106.547C106.679 210.82 106.745 210.892 106.745 211.036V211.756H106.817C107.153 211.132 107.777 210.82 108.689 210.82H109.877C110.645 210.82 111.251 211.048 111.695 211.504C112.139 211.96 112.361 212.584 112.361 213.376V219.784C112.361 219.928 112.301 220 112.181 220H111.659C111.527 220 111.461 219.928 111.461 219.784V213.412C111.461 212.848 111.317 212.41 111.029 212.098C110.741 211.786 110.321 211.63 109.769 211.63H108.599C108.023 211.63 107.567 211.786 107.231 212.098C106.907 212.398 106.745 212.83 106.745 213.394V219.784C106.745 219.928 106.679 220 106.547 220ZM118.46 220H117.308C116.528 220 115.91 219.772 115.454 219.316C115.01 218.86 114.788 218.236 114.788 217.444V213.376C114.788 212.584 115.01 211.96 115.454 211.504C115.91 211.048 116.528 210.82 117.308 210.82H121.124C121.244 210.82 121.304 210.892 121.304 211.036V219.784C121.304 219.928 121.244 220 121.124 220H120.602C120.47 220 120.404 219.928 120.404 219.784V219.064H120.332C120.02 219.688 119.396 220 118.46 220ZM120.404 217.426V211.792C120.404 211.684 120.344 211.63 120.224 211.63H117.38C116.828 211.63 116.408 211.786 116.12 212.098C115.832 212.41 115.688 212.848 115.688 213.412V217.408C115.688 217.972 115.832 218.41 116.12 218.722C116.408 219.034 116.828 219.19 117.38 219.19H118.55C119.126 219.19 119.576 219.04 119.9 218.74C120.236 218.428 120.404 217.99 120.404 217.426ZM127.567 219.478H126.397C125.629 219.478 125.017 219.25 124.561 218.794C124.117 218.338 123.895 217.72 123.895 216.94V213.376C123.895 212.584 124.117 211.96 124.561 211.504C125.017 211.048 125.635 210.82 126.415 210.82H130.231C130.363 210.82 130.429 210.892 130.429 211.036V219.964C130.429 220.756 130.201 221.38 129.745 221.836C129.289 222.292 128.671 222.52 127.891 222.52H124.615C124.483 222.52 124.417 222.454 124.417 222.322V221.89C124.417 221.77 124.483 221.71 124.615 221.71H127.819C128.371 221.71 128.791 221.554 129.079 221.242C129.367 220.942 129.511 220.504 129.511 219.928V218.542H129.439C129.139 219.166 128.515 219.478 127.567 219.478ZM129.511 216.904V211.792C129.511 211.684 129.457 211.63 129.349 211.63H126.505C125.953 211.63 125.527 211.786 125.227 212.098C124.939 212.398 124.795 212.836 124.795 213.412V216.904C124.795 217.468 124.939 217.906 125.227 218.218C125.527 218.518 125.953 218.668 126.505 218.668H127.657C128.233 218.668 128.683 218.518 129.007 218.218C129.343 217.906 129.511 217.468 129.511 216.904ZM139.211 220H135.449C134.669 220 134.051 219.772 133.595 219.316C133.151 218.86 132.929 218.236 132.929 217.444V213.376C132.929 212.584 133.151 211.96 133.595 211.504C134.051 211.048 134.669 210.82 135.449 210.82H136.997C137.777 210.82 138.395 211.048 138.851 211.504C139.307 211.96 139.535 212.584 139.535 213.376V215.662C139.535 215.806 139.463 215.878 139.319 215.878H133.991C133.883 215.878 133.829 215.932 133.829 216.04V217.426C133.829 217.99 133.973 218.428 134.261 218.74C134.549 219.04 134.969 219.19 135.521 219.19H139.211C139.343 219.19 139.409 219.256 139.409 219.388V219.802C139.409 219.934 139.343 220 139.211 220ZM133.991 215.158H138.473C138.581 215.158 138.635 215.104 138.635 214.996V213.394C138.635 212.83 138.491 212.398 138.203 212.098C137.915 211.786 137.495 211.63 136.943 211.63H135.521C134.969 211.63 134.549 211.786 134.261 212.098C133.973 212.398 133.829 212.83 133.829 213.394V214.996C133.829 215.104 133.883 215.158 133.991 215.158ZM142.67 220H142.148C142.028 220 141.968 219.928 141.968 219.784V211.036C141.968 210.892 142.028 210.82 142.148 210.82H142.67C142.802 210.82 142.868 210.892 142.868 211.036V211.756H142.94C143.288 211.132 143.924 210.82 144.848 210.82H145.586C146.642 210.82 147.374 211.24 147.782 212.08C147.962 211.66 148.268 211.348 148.7 211.144C149.132 210.928 149.576 210.82 150.032 210.82H150.698C151.478 210.82 152.09 211.048 152.534 211.504C152.978 211.96 153.2 212.584 153.2 213.376V219.784C153.2 219.928 153.134 220 153.002 220H152.48C152.348 220 152.282 219.928 152.282 219.784V213.412C152.282 212.836 152.138 212.398 151.85 212.098C151.562 211.786 151.142 211.63 150.59 211.63H149.924C149.348 211.63 148.892 211.798 148.556 212.134C148.22 212.458 148.052 212.902 148.052 213.466V219.784C148.052 219.928 147.986 220 147.854 220H147.332C147.2 220 147.134 219.928 147.134 219.784V213.412C147.134 212.836 146.99 212.398 146.702 212.098C146.414 211.786 145.994 211.63 145.442 211.63H144.722C144.146 211.63 143.69 211.786 143.354 212.098C143.03 212.398 142.868 212.83 142.868 213.394V219.784C142.868 219.928 142.802 220 142.67 220ZM161.904 220H158.142C157.362 220 156.744 219.772 156.288 219.316C155.844 218.86 155.622 218.236 155.622 217.444V213.376C155.622 212.584 155.844 211.96 156.288 211.504C156.744 211.048 157.362 210.82 158.142 210.82H159.69C160.47 210.82 161.088 211.048 161.544 211.504C162 211.96 162.228 212.584 162.228 213.376V215.662C162.228 215.806 162.156 215.878 162.012 215.878H156.684C156.576 215.878 156.522 215.932 156.522 216.04V217.426C156.522 217.99 156.666 218.428 156.954 218.74C157.242 219.04 157.662 219.19 158.214 219.19H161.904C162.036 219.19 162.102 219.256 162.102 219.388V219.802C162.102 219.934 162.036 220 161.904 220ZM156.684 215.158H161.166C161.274 215.158 161.328 215.104 161.328 214.996V213.394C161.328 212.83 161.184 212.398 160.896 212.098C160.608 211.786 160.188 211.63 159.636 211.63H158.214C157.662 211.63 157.242 211.786 156.954 212.098C156.666 212.398 156.522 212.83 156.522 213.394V214.996C156.522 215.104 156.576 215.158 156.684 215.158ZM165.364 220H164.842C164.722 220 164.662 219.928 164.662 219.784V211.036C164.662 210.892 164.722 210.82 164.842 210.82H165.364C165.496 210.82 165.562 210.892 165.562 211.036V211.756H165.634C165.97 211.132 166.594 210.82 167.506 210.82H168.694C169.462 210.82 170.068 211.048 170.512 211.504C170.956 211.96 171.178 212.584 171.178 213.376V219.784C171.178 219.928 171.118 220 170.998 220H170.476C170.344 220 170.278 219.928 170.278 219.784V213.412C170.278 212.848 170.134 212.41 169.846 212.098C169.558 211.786 169.138 211.63 168.586 211.63H167.416C166.84 211.63 166.384 211.786 166.048 212.098C165.724 212.398 165.562 212.83 165.562 213.394V219.784C165.562 219.928 165.496 220 165.364 220ZM174.181 211.63H173.083C172.951 211.63 172.885 211.57 172.885 211.45V211.018C172.885 210.886 172.951 210.82 173.083 210.82H174.181C174.289 210.82 174.343 210.766 174.343 210.658V209.2C174.343 209.056 174.409 208.984 174.541 208.984H175.063C175.195 208.984 175.261 209.056 175.261 209.2V210.658C175.261 210.766 175.315 210.82 175.423 210.82H177.565C177.697 210.82 177.763 210.886 177.763 211.018V211.45C177.763 211.57 177.697 211.63 177.565 211.63H175.423C175.315 211.63 175.261 211.684 175.261 211.792V217.462C175.261 218.014 175.417 218.44 175.729 218.74C176.041 219.04 176.479 219.19 177.043 219.19H177.745C177.877 219.19 177.943 219.256 177.943 219.388V219.802C177.943 219.934 177.877 220 177.745 220H176.971C176.179 220 175.543 219.778 175.063 219.334C174.583 218.89 174.343 218.278 174.343 217.498V211.792C174.343 211.684 174.289 211.63 174.181 211.63Z" fill="white"/>
</svg>
