<svg width="1440" height="200" viewBox="0 0 1440 200" fill="none" xmlns="http://www.w3.org/2000/svg">
<rect width="1440" height="200" fill="#C4C4C4"/>
<path d="M206.248 91H195.88C195.517 91 195.336 90.8187 195.336 90.456V70.968C195.336 70.6053 195.517 70.424 195.88 70.424H197.896C198.259 70.424 198.44 70.6053 198.44 70.968V87.896C198.44 88.1093 198.568 88.216 198.824 88.216H206.248C206.611 88.216 206.792 88.408 206.792 88.792V90.456C206.792 90.8187 206.611 91 206.248 91ZM220.526 91H210.286C209.924 91 209.742 90.8187 209.742 90.456V70.968C209.742 70.6053 209.924 70.424 210.286 70.424H220.526C220.868 70.424 221.038 70.6053 221.038 70.968V72.6C221.038 72.9627 220.868 73.144 220.526 73.144H213.23C212.974 73.144 212.846 73.2507 212.846 73.464V78.872C212.846 79.0853 212.974 79.192 213.23 79.192H219.406C219.79 79.192 219.982 79.3733 219.982 79.736V81.368C219.982 81.7307 219.79 81.912 219.406 81.912H213.23C212.974 81.912 212.846 82.0187 212.846 82.232V87.928C212.846 88.1627 212.974 88.28 213.23 88.28H220.526C220.868 88.28 221.038 88.4613 221.038 88.824V90.456C221.038 90.8187 220.868 91 220.526 91ZM226.237 91H223.933C223.635 91 223.528 90.8187 223.613 90.456L229.181 70.968C229.288 70.6053 229.544 70.424 229.949 70.424H233.149C233.576 70.424 233.832 70.6053 233.917 70.968L239.485 90.456C239.571 90.8187 239.453 91 239.133 91H236.861C236.669 91 236.531 90.968 236.445 90.904C236.381 90.8187 236.328 90.6693 236.285 90.456L235.069 86.296H228.029L226.813 90.456C226.728 90.8187 226.536 91 226.237 91ZM231.485 73.496L228.669 83.736H234.461L231.613 73.496H231.485ZM245.209 91H243.193C242.83 91 242.649 90.8187 242.649 90.456V70.968C242.649 70.6053 242.83 70.424 243.193 70.424H250.681C252.238 70.424 253.454 70.872 254.329 71.768C255.225 72.6427 255.673 73.8587 255.673 75.416V78.104C255.673 80.5573 254.659 82.104 252.633 82.744V82.872L256.185 90.36C256.419 90.7867 256.281 91 255.769 91H253.785C253.273 91 252.942 90.8187 252.793 90.456L249.369 83.096H246.137C245.881 83.096 245.753 83.2027 245.753 83.416V90.456C245.753 90.8187 245.571 91 245.209 91ZM246.105 80.536H250.169C251.747 80.536 252.537 79.7573 252.537 78.2V75.512C252.537 73.9333 251.747 73.144 250.169 73.144H246.105C245.87 73.144 245.753 73.2507 245.753 73.464V80.216C245.753 80.4293 245.87 80.536 246.105 80.536ZM262.52 91H260.536C260.174 91 259.992 90.8187 259.992 90.456V70.968C259.992 70.6053 260.174 70.424 260.536 70.424H262.328C262.67 70.424 262.904 70.5413 263.032 70.776L270.776 84.696H270.904V70.968C270.904 70.6053 271.086 70.424 271.448 70.424H273.432C273.795 70.424 273.976 70.6053 273.976 70.968V90.456C273.976 90.8187 273.795 91 273.432 91H271.704C271.363 91 271.086 90.8293 270.872 90.488L263.192 76.728H263.064V90.456C263.064 90.8187 262.883 91 262.52 91ZM300.354 70.424H303.938C304.3 70.424 304.482 70.6053 304.482 70.968V90.456C304.482 90.8187 304.3 91 303.938 91H301.954C301.591 91 301.41 90.8187 301.41 90.456V74.296H301.282L297.122 86.008C296.994 86.3493 296.759 86.52 296.418 86.52H294.37C294.05 86.52 293.826 86.3493 293.698 86.008L289.442 74.264H289.314V90.456C289.314 90.6693 289.271 90.8187 289.186 90.904C289.122 90.968 288.983 91 288.77 91H286.818C286.455 91 286.274 90.8187 286.274 90.456V70.968C286.274 70.6053 286.455 70.424 286.818 70.424H290.402C290.636 70.424 290.807 70.5413 290.914 70.776L295.298 83.128H295.458L299.874 70.776C299.916 70.5413 300.076 70.424 300.354 70.424ZM314.237 88.28H317.021C318.578 88.28 319.357 87.4907 319.357 85.912V75.512C319.357 73.9333 318.578 73.144 317.021 73.144H314.237C312.701 73.144 311.933 73.9333 311.933 75.512V85.912C311.933 87.4907 312.701 88.28 314.237 88.28ZM317.501 91H313.789C312.21 91 310.983 90.5627 310.109 89.688C309.255 88.8133 308.829 87.5973 308.829 86.04V75.384C308.829 73.8053 309.255 72.5893 310.109 71.736C310.983 70.8613 312.21 70.424 313.789 70.424H317.501C319.079 70.424 320.306 70.8613 321.181 71.736C322.055 72.5893 322.493 73.8053 322.493 75.384V86.04C322.493 87.5973 322.055 88.8133 321.181 89.688C320.306 90.5627 319.079 91 317.501 91ZM329.365 91H327.349C326.986 91 326.805 90.8187 326.805 90.456V70.968C326.805 70.6053 326.986 70.424 327.349 70.424H334.837C336.394 70.424 337.61 70.872 338.485 71.768C339.381 72.6427 339.829 73.8587 339.829 75.416V78.104C339.829 80.5573 338.815 82.104 336.789 82.744V82.872L340.341 90.36C340.575 90.7867 340.437 91 339.925 91H337.941C337.429 91 337.098 90.8187 336.949 90.456L333.525 83.096H330.293C330.037 83.096 329.909 83.2027 329.909 83.416V90.456C329.909 90.8187 329.727 91 329.365 91ZM330.261 80.536H334.325C335.903 80.536 336.693 79.7573 336.693 78.2V75.512C336.693 73.9333 335.903 73.144 334.325 73.144H330.261C330.026 73.144 329.909 73.2507 329.909 73.464V80.216C329.909 80.4293 330.026 80.536 330.261 80.536ZM354.933 91H344.693C344.33 91 344.149 90.8187 344.149 90.456V70.968C344.149 70.6053 344.33 70.424 344.693 70.424H354.933C355.274 70.424 355.445 70.6053 355.445 70.968V72.6C355.445 72.9627 355.274 73.144 354.933 73.144H347.637C347.381 73.144 347.253 73.2507 347.253 73.464V78.872C347.253 79.0853 347.381 79.192 347.637 79.192H353.813C354.197 79.192 354.389 79.3733 354.389 79.736V81.368C354.389 81.7307 354.197 81.912 353.813 81.912H347.637C347.381 81.912 347.253 82.0187 347.253 82.232V87.928C347.253 88.1627 347.381 88.28 347.637 88.28H354.933C355.274 88.28 355.445 88.4613 355.445 88.824V90.456C355.445 90.8187 355.274 91 354.933 91ZM368.269 91H365.965C365.666 91 365.559 90.8187 365.645 90.456L371.213 70.968C371.319 70.6053 371.575 70.424 371.981 70.424H375.181C375.607 70.424 375.863 70.6053 375.949 70.968L381.517 90.456C381.602 90.8187 381.485 91 381.165 91H378.893C378.701 91 378.562 90.968 378.477 90.904C378.413 90.8187 378.359 90.6693 378.317 90.456L377.101 86.296H370.061L368.845 90.456C368.759 90.8187 368.567 91 368.269 91ZM373.517 73.496L370.701 83.736H376.493L373.645 73.496H373.517ZM388.136 88.344H392.616C394.216 88.344 395.016 87.576 395.016 86.04V84.056C395.016 82.52 394.173 81.752 392.488 81.752H388.136C387.901 81.752 387.784 81.8587 387.784 82.072V88.024C387.784 88.2373 387.901 88.344 388.136 88.344ZM388.136 79.192H392.296C393.917 79.192 394.728 78.4133 394.728 76.856V75.384C394.728 73.848 393.938 73.08 392.36 73.08H388.136C387.901 73.08 387.784 73.1867 387.784 73.4V78.872C387.784 79.0853 387.901 79.192 388.136 79.192ZM384.68 90.456V70.968C384.68 70.6053 384.861 70.424 385.224 70.424H392.808C394.386 70.424 395.613 70.8507 396.488 71.704C397.362 72.5573 397.8 73.7627 397.8 75.32V76.888C397.8 78.744 396.925 79.9387 395.176 80.472C396.008 80.5787 396.69 80.9413 397.224 81.56C397.778 82.1787 398.056 83.0107 398.056 84.056V86.104C398.056 87.6613 397.618 88.8667 396.744 89.72C395.869 90.5733 394.653 91 393.096 91H385.224C384.861 91 384.68 90.8187 384.68 90.456ZM407.424 88.28H410.208C411.765 88.28 412.544 87.4907 412.544 85.912V75.512C412.544 73.9333 411.765 73.144 410.208 73.144H407.424C405.888 73.144 405.12 73.9333 405.12 75.512V85.912C405.12 87.4907 405.888 88.28 407.424 88.28ZM410.688 91H406.976C405.397 91 404.171 90.5627 403.296 89.688C402.443 88.8133 402.016 87.5973 402.016 86.04V75.384C402.016 73.8053 402.443 72.5893 403.296 71.736C404.171 70.8613 405.397 70.424 406.976 70.424H410.688C412.267 70.424 413.493 70.8613 414.368 71.736C415.243 72.5893 415.68 73.8053 415.68 75.384V86.04C415.68 87.5973 415.243 88.8133 414.368 89.688C413.493 90.5627 412.267 91 410.688 91ZM430.744 70.424H432.76C433.144 70.424 433.336 70.5947 433.336 70.936V86.04C433.336 87.5973 432.888 88.8133 431.992 89.688C431.118 90.5627 429.902 91 428.344 91H424.792C423.235 91 422.019 90.5627 421.144 89.688C420.27 88.8133 419.832 87.5973 419.832 86.04V70.968C419.832 70.6053 420.014 70.424 420.376 70.424H422.392C422.755 70.424 422.936 70.6053 422.936 70.968V85.912C422.936 87.4907 423.704 88.28 425.24 88.28H427.864C429.422 88.28 430.2 87.4907 430.2 85.912V70.968C430.2 70.6053 430.382 70.424 430.744 70.424ZM443.437 91H441.421C441.037 91 440.845 90.8187 440.845 90.456V73.464C440.845 73.2507 440.738 73.144 440.525 73.144H436.493C436.109 73.144 435.917 72.9627 435.917 72.6V70.968C435.917 70.6053 436.109 70.424 436.493 70.424H448.365C448.749 70.424 448.941 70.6053 448.941 70.968V72.6C448.941 72.9627 448.749 73.144 448.365 73.144H444.333C444.098 73.144 443.981 73.2507 443.981 73.464V90.456C443.981 90.8187 443.799 91 443.437 91ZM464.617 88.28H467.401C468.937 88.28 469.705 87.4907 469.705 85.912V75.512C469.705 73.9333 468.937 73.144 467.401 73.144H464.617C463.081 73.144 462.313 73.9333 462.313 75.512V85.912C462.313 87.4907 463.081 88.28 464.617 88.28ZM470.601 95.256H468.809C468.339 95.256 467.998 95.0747 467.785 94.712L465.609 91H464.137C462.558 91 461.331 90.5627 460.457 89.688C459.582 88.8133 459.145 87.5973 459.145 86.04V75.384C459.145 73.8053 459.582 72.5893 460.457 71.736C461.331 70.8613 462.558 70.424 464.137 70.424H467.849C469.427 70.424 470.643 70.8613 471.497 71.736C472.371 72.5893 472.809 73.8053 472.809 75.384V86.04C472.809 87.4267 472.457 88.5467 471.753 89.4C471.07 90.232 470.099 90.7333 468.841 90.904L470.985 94.584C471.091 94.7973 471.102 94.9573 471.017 95.064C470.931 95.192 470.793 95.256 470.601 95.256ZM488.119 70.424H490.135C490.519 70.424 490.711 70.5947 490.711 70.936V86.04C490.711 87.5973 490.263 88.8133 489.367 89.688C488.493 90.5627 487.277 91 485.719 91H482.167C480.61 91 479.394 90.5627 478.519 89.688C477.645 88.8133 477.207 87.5973 477.207 86.04V70.968C477.207 70.6053 477.389 70.424 477.751 70.424H479.767C480.13 70.424 480.311 70.6053 480.311 70.968V85.912C480.311 87.4907 481.079 88.28 482.615 88.28H485.239C486.797 88.28 487.575 87.4907 487.575 85.912V70.968C487.575 70.6053 487.757 70.424 488.119 70.424ZM498.636 88.344H503.116C504.716 88.344 505.516 87.576 505.516 86.04V84.056C505.516 82.52 504.673 81.752 502.988 81.752H498.636C498.401 81.752 498.284 81.8587 498.284 82.072V88.024C498.284 88.2373 498.401 88.344 498.636 88.344ZM498.636 79.192H502.796C504.417 79.192 505.228 78.4133 505.228 76.856V75.384C505.228 73.848 504.438 73.08 502.86 73.08H498.636C498.401 73.08 498.284 73.1867 498.284 73.4V78.872C498.284 79.0853 498.401 79.192 498.636 79.192ZM495.18 90.456V70.968C495.18 70.6053 495.361 70.424 495.724 70.424H503.308C504.886 70.424 506.113 70.8507 506.988 71.704C507.862 72.5573 508.3 73.7627 508.3 75.32V76.888C508.3 78.744 507.425 79.9387 505.676 80.472C506.508 80.5787 507.19 80.9413 507.724 81.56C508.278 82.1787 508.556 83.0107 508.556 84.056V86.104C508.556 87.6613 508.118 88.8667 507.244 89.72C506.369 90.5733 505.153 91 503.596 91H495.724C495.361 91 495.18 90.8187 495.18 90.456ZM523.62 91H513.38C513.017 91 512.836 90.8187 512.836 90.456V70.968C512.836 70.6053 513.017 70.424 513.38 70.424H523.62C523.961 70.424 524.132 70.6053 524.132 70.968V72.6C524.132 72.9627 523.961 73.144 523.62 73.144H516.324C516.068 73.144 515.94 73.2507 515.94 73.464V78.872C515.94 79.0853 516.068 79.192 516.324 79.192H522.5C522.884 79.192 523.076 79.3733 523.076 79.736V81.368C523.076 81.7307 522.884 81.912 522.5 81.912H516.324C516.068 81.912 515.94 82.0187 515.94 82.232V87.928C515.94 88.1627 516.068 88.28 516.324 88.28H523.62C523.961 88.28 524.132 88.4613 524.132 88.824V90.456C524.132 90.8187 523.961 91 523.62 91ZM541.468 91H539.452C539.068 91 538.876 90.8187 538.876 90.456V73.464C538.876 73.2507 538.769 73.144 538.556 73.144H534.524C534.14 73.144 533.948 72.9627 533.948 72.6V70.968C533.948 70.6053 534.14 70.424 534.524 70.424H546.396C546.78 70.424 546.972 70.6053 546.972 70.968V72.6C546.972 72.9627 546.78 73.144 546.396 73.144H542.364C542.129 73.144 542.012 73.2507 542.012 73.464V90.456C542.012 90.8187 541.831 91 541.468 91ZM554.799 88.28H557.583C559.14 88.28 559.919 87.4907 559.919 85.912V75.512C559.919 73.9333 559.14 73.144 557.583 73.144H554.799C553.263 73.144 552.495 73.9333 552.495 75.512V85.912C552.495 87.4907 553.263 88.28 554.799 88.28ZM558.063 91H554.351C552.772 91 551.546 90.5627 550.671 89.688C549.818 88.8133 549.391 87.5973 549.391 86.04V75.384C549.391 73.8053 549.818 72.5893 550.671 71.736C551.546 70.8613 552.772 70.424 554.351 70.424H558.063C559.642 70.424 560.868 70.8613 561.743 71.736C562.618 72.5893 563.055 73.8053 563.055 75.384V86.04C563.055 87.5973 562.618 88.8133 561.743 89.688C560.868 90.5627 559.642 91 558.063 91ZM569.927 91H567.911C567.549 91 567.367 90.8187 567.367 90.456V70.968C567.367 70.6053 567.549 70.424 567.911 70.424H569.927C570.29 70.424 570.471 70.6053 570.471 70.968V81.112H570.567C570.781 80.536 571.058 80.0027 571.399 79.512L577.511 70.968C577.746 70.6053 578.087 70.424 578.535 70.424H580.903C581.351 70.424 581.426 70.6267 581.127 71.032L574.887 79.512L581.927 90.36C582.183 90.7867 582.055 91 581.543 91H579.751C579.175 91 578.77 90.8187 578.535 90.456L572.999 81.784L570.471 84.76V90.456C570.471 90.8187 570.29 91 569.927 91ZM595.683 91H585.443C585.08 91 584.899 90.8187 584.899 90.456V70.968C584.899 70.6053 585.08 70.424 585.443 70.424H595.683C596.024 70.424 596.195 70.6053 596.195 70.968V72.6C596.195 72.9627 596.024 73.144 595.683 73.144H588.387C588.131 73.144 588.003 73.2507 588.003 73.464V78.872C588.003 79.0853 588.131 79.192 588.387 79.192H594.563C594.947 79.192 595.139 79.3733 595.139 79.736V81.368C595.139 81.7307 594.947 81.912 594.563 81.912H588.387C588.131 81.912 588.003 82.0187 588.003 82.232V87.928C588.003 88.1627 588.131 88.28 588.387 88.28H595.683C596.024 88.28 596.195 88.4613 596.195 88.824V90.456C596.195 90.8187 596.024 91 595.683 91ZM602.802 91H600.818C600.455 91 600.274 90.8187 600.274 90.456V70.968C600.274 70.6053 600.455 70.424 600.818 70.424H602.61C602.951 70.424 603.186 70.5413 603.314 70.776L611.058 84.696H611.186V70.968C611.186 70.6053 611.367 70.424 611.73 70.424H613.714C614.076 70.424 614.258 70.6053 614.258 70.968V90.456C614.258 90.8187 614.076 91 613.714 91H611.986C611.644 91 611.367 90.8293 611.154 90.488L603.474 76.728H603.346V90.456C603.346 90.8187 603.164 91 602.802 91ZM624.018 88.28H626.802C628.359 88.28 629.138 87.4907 629.138 85.912V75.512C629.138 73.9333 628.359 73.144 626.802 73.144H624.018C622.482 73.144 621.714 73.9333 621.714 75.512V85.912C621.714 87.4907 622.482 88.28 624.018 88.28ZM627.282 91H623.57C621.991 91 620.764 90.5627 619.89 89.688C619.036 88.8133 618.61 87.5973 618.61 86.04V75.384C618.61 73.8053 619.036 72.5893 619.89 71.736C620.764 70.8613 621.991 70.424 623.57 70.424H627.282C628.86 70.424 630.087 70.8613 630.962 71.736C631.836 72.5893 632.274 73.8053 632.274 75.384V86.04C632.274 87.5973 631.836 88.8133 630.962 89.688C630.087 90.5627 628.86 91 627.282 91ZM650.666 70.424H654.25C654.613 70.424 654.794 70.6053 654.794 70.968V90.456C654.794 90.8187 654.613 91 654.25 91H652.266C651.903 91 651.722 90.8187 651.722 90.456V74.296H651.594L647.434 86.008C647.306 86.3493 647.071 86.52 646.73 86.52H644.682C644.362 86.52 644.138 86.3493 644.01 86.008L639.754 74.264H639.626V90.456C639.626 90.6693 639.583 90.8187 639.498 90.904C639.434 90.968 639.295 91 639.082 91H637.13C636.767 91 636.586 90.8187 636.586 90.456V70.968C636.586 70.6053 636.767 70.424 637.13 70.424H640.714C640.949 70.424 641.119 70.5413 641.226 70.776L645.61 83.128H645.77L650.186 70.776C650.229 70.5413 650.389 70.424 650.666 70.424ZM662.725 70.968V90.456C662.725 90.8187 662.544 91 662.181 91H660.165C659.802 91 659.621 90.8187 659.621 90.456V70.968C659.621 70.6053 659.802 70.424 660.165 70.424H662.181C662.544 70.424 662.725 70.6053 662.725 70.968ZM675.907 91H672.195C670.616 91 669.389 90.5627 668.515 89.688C667.661 88.8133 667.235 87.5973 667.235 86.04V75.384C667.235 73.8053 667.661 72.5893 668.515 71.736C669.389 70.8613 670.616 70.424 672.195 70.424H675.907C677.464 70.424 678.68 70.8613 679.555 71.736C680.429 72.5893 680.867 73.8053 680.867 75.384V76.92C680.867 77.304 680.675 77.496 680.291 77.496H678.275C677.912 77.496 677.731 77.304 677.731 76.92V75.512C677.731 73.9333 676.963 73.144 675.427 73.144H672.643C671.107 73.144 670.339 73.9333 670.339 75.512V85.912C670.339 87.4907 671.107 88.28 672.643 88.28H675.427C676.963 88.28 677.731 87.4907 677.731 85.912V84.504C677.731 84.12 677.912 83.928 678.275 83.928H680.291C680.675 83.928 680.867 84.12 680.867 84.504V86.04C680.867 87.5973 680.429 88.8133 679.555 89.688C678.68 90.5627 677.464 91 675.907 91ZM684.452 86.008V85.176C684.452 84.8133 684.633 84.632 684.996 84.632H687.044C687.407 84.632 687.588 84.8133 687.588 85.176V85.752C687.588 86.648 687.78 87.2987 688.164 87.704C688.569 88.088 689.231 88.28 690.148 88.28H692.356C693.273 88.28 693.935 88.0773 694.34 87.672C694.745 87.2453 694.948 86.5627 694.948 85.624V84.888C694.948 84.2053 694.681 83.672 694.148 83.288C693.636 82.8827 692.996 82.6267 692.228 82.52C691.46 82.392 690.617 82.2213 689.7 82.008C688.783 81.7947 687.94 81.5493 687.172 81.272C686.404 80.9947 685.753 80.472 685.22 79.704C684.708 78.936 684.452 77.9547 684.452 76.76V75.416C684.452 73.8587 684.889 72.6427 685.764 71.768C686.66 70.872 687.887 70.424 689.444 70.424H692.836C694.415 70.424 695.641 70.872 696.516 71.768C697.412 72.6427 697.86 73.8587 697.86 75.416V76.12C697.86 76.4827 697.679 76.664 697.316 76.664H695.268C694.905 76.664 694.724 76.4827 694.724 76.12V75.704C694.724 74.7867 694.521 74.136 694.116 73.752C693.732 73.3467 693.081 73.144 692.164 73.144H690.148C689.231 73.144 688.569 73.3573 688.164 73.784C687.78 74.1893 687.588 74.8933 687.588 75.896V76.888C687.588 77.848 688.281 78.4987 689.668 78.84C690.287 78.9893 690.959 79.1173 691.684 79.224C692.431 79.3307 693.177 79.4907 693.924 79.704C694.671 79.9173 695.353 80.2053 695.972 80.568C696.591 80.9093 697.092 81.4427 697.476 82.168C697.86 82.872 698.052 83.736 698.052 84.76V86.008C698.052 87.5653 697.604 88.792 696.708 89.688C695.833 90.5627 694.617 91 693.06 91H689.476C687.919 91 686.692 90.5627 685.796 89.688C684.9 88.792 684.452 87.5653 684.452 86.008Z" fill="black"/>
<path d="M202.436 128H199.076C197.788 128 196.771 127.636 196.024 126.908C195.296 126.18 194.932 125.163 194.932 123.856V114.14C194.932 112.833 195.296 111.816 196.024 111.088C196.771 110.36 197.788 109.996 199.076 109.996H202.436C203.724 109.996 204.732 110.36 205.46 111.088C206.207 111.816 206.58 112.833 206.58 114.14V115.512C206.58 115.773 206.449 115.904 206.188 115.904H204.928C204.667 115.904 204.536 115.773 204.536 115.512V114.224C204.536 112.6 203.752 111.788 202.184 111.788H199.3C197.751 111.788 196.976 112.6 196.976 114.224V123.772C196.976 125.396 197.751 126.208 199.3 126.208H202.184C203.752 126.208 204.536 125.396 204.536 123.772V122.484C204.536 122.223 204.667 122.092 204.928 122.092H206.188C206.449 122.092 206.58 122.223 206.58 122.484V123.856C206.58 125.163 206.207 126.18 205.46 126.908C204.732 127.636 203.724 128 202.436 128ZM211.732 128H210.472C210.211 128 210.08 127.869 210.08 127.608V108.708C210.08 108.447 210.211 108.316 210.472 108.316H211.732C211.994 108.316 212.124 108.447 212.124 108.708V115.204H212.236C212.703 114.215 213.655 113.72 215.092 113.72H216.66C217.93 113.72 218.919 114.084 219.628 114.812C220.338 115.54 220.692 116.557 220.692 117.864V127.608C220.692 127.869 220.562 128 220.3 128H219.04C218.779 128 218.648 127.869 218.648 127.608V117.948C218.648 116.324 217.864 115.512 216.296 115.512H214.728C213.888 115.512 213.244 115.736 212.796 116.184C212.348 116.632 212.124 117.267 212.124 118.088V127.608C212.124 127.869 211.994 128 211.732 128ZM234.209 128H228.273C226.985 128 225.967 127.636 225.221 126.908C224.493 126.18 224.129 125.163 224.129 123.856V117.864C224.129 116.557 224.493 115.54 225.221 114.812C225.967 114.084 226.985 113.72 228.273 113.72H230.625C231.913 113.72 232.921 114.084 233.649 114.812C234.377 115.54 234.741 116.557 234.741 117.864V121.42C234.741 121.7 234.61 121.84 234.349 121.84H226.425C226.238 121.84 226.145 121.924 226.145 122.092V123.8C226.145 125.424 226.929 126.236 228.497 126.236H234.209C234.47 126.236 234.601 126.367 234.601 126.628V127.636C234.601 127.879 234.47 128 234.209 128ZM226.425 120.356H232.473C232.659 120.356 232.753 120.263 232.753 120.076V117.92C232.753 116.315 231.969 115.512 230.401 115.512H228.497C226.929 115.512 226.145 116.315 226.145 117.92V120.076C226.145 120.263 226.238 120.356 226.425 120.356ZM246.506 126.6V127.636C246.506 127.879 246.375 128 246.114 128H242.054C240.766 128 239.748 127.636 239.002 126.908C238.274 126.18 237.91 125.163 237.91 123.856V117.864C237.91 116.557 238.274 115.54 239.002 114.812C239.748 114.084 240.766 113.72 242.054 113.72H246.114C246.375 113.72 246.506 113.851 246.506 114.112V115.148C246.506 115.391 246.375 115.512 246.114 115.512H242.278C240.728 115.512 239.954 116.324 239.954 117.948V123.772C239.954 125.396 240.728 126.208 242.278 126.208H246.114C246.375 126.208 246.506 126.339 246.506 126.6ZM257.465 113.72H258.865C259.015 113.72 259.108 113.767 259.145 113.86C259.201 113.935 259.183 114.037 259.089 114.168L254.973 120.552V120.664L259.509 127.552C259.584 127.683 259.593 127.795 259.537 127.888C259.481 127.963 259.379 128 259.229 128H257.913C257.559 128 257.297 127.869 257.129 127.608L252.817 120.944C252.705 120.757 252.705 120.561 252.817 120.356L256.793 114.084C256.905 113.841 257.129 113.72 257.465 113.72ZM251.025 128H249.765C249.504 128 249.373 127.869 249.373 127.608V108.708C249.373 108.447 249.504 108.316 249.765 108.316H251.025C251.287 108.316 251.417 108.447 251.417 108.708V127.608C251.417 127.869 251.287 128 251.025 128ZM275.169 128H272.761C271.473 128 270.456 127.636 269.709 126.908C268.981 126.18 268.617 125.163 268.617 123.856V117.864C268.617 116.557 268.981 115.54 269.709 114.812C270.456 114.084 271.473 113.72 272.761 113.72H275.169C276.457 113.72 277.465 114.084 278.193 114.812C278.94 115.54 279.313 116.557 279.313 117.864V123.856C279.313 125.163 278.94 126.18 278.193 126.908C277.465 127.636 276.457 128 275.169 128ZM272.985 126.208H274.945C276.513 126.208 277.297 125.405 277.297 123.8V117.92C277.297 116.315 276.513 115.512 274.945 115.512H272.985C271.417 115.512 270.633 116.315 270.633 117.92V123.8C270.633 125.405 271.417 126.208 272.985 126.208ZM288.357 128H286.789C285.52 128 284.53 127.636 283.821 126.908C283.112 126.18 282.757 125.163 282.757 123.856V114.112C282.757 113.851 282.888 113.72 283.149 113.72H284.409C284.67 113.72 284.801 113.851 284.801 114.112V123.772C284.801 125.396 285.576 126.208 287.125 126.208H288.721C289.561 126.208 290.205 125.984 290.653 125.536C291.101 125.088 291.325 124.453 291.325 123.632V114.112C291.325 113.851 291.456 113.72 291.717 113.72H292.977C293.238 113.72 293.369 113.851 293.369 114.112V127.608C293.369 127.869 293.238 128 292.977 128H291.717C291.456 128 291.325 127.869 291.325 127.608V126.516H291.213C290.746 127.505 289.794 128 288.357 128ZM298.877 128H297.617C297.356 128 297.225 127.869 297.225 127.608V114.112C297.225 113.851 297.356 113.72 297.617 113.72H298.877C299.138 113.72 299.269 113.851 299.269 114.112V115.232H299.381C299.568 114.821 299.922 114.467 300.445 114.168C300.968 113.869 301.584 113.72 302.293 113.72H303.385C303.628 113.72 303.749 113.851 303.749 114.112V115.148C303.749 115.279 303.721 115.381 303.665 115.456C303.609 115.512 303.516 115.531 303.385 115.512H301.873C301.033 115.512 300.389 115.764 299.941 116.268C299.493 116.772 299.269 117.463 299.269 118.34V127.608C299.269 127.869 299.138 128 298.877 128ZM317.809 128H316.101C315.84 128 315.681 127.869 315.625 127.608L312.041 114.112C311.985 113.851 312.078 113.72 312.321 113.72H313.749C313.992 113.72 314.141 113.851 314.197 114.112L316.913 125.536H317.081L319.965 114.112C320.021 113.851 320.17 113.72 320.413 113.72H321.701C321.962 113.72 322.13 113.851 322.205 114.112L325.005 125.536H325.173L327.917 114.112C327.973 113.851 328.122 113.72 328.365 113.72H329.793C330.036 113.72 330.129 113.851 330.073 114.112L326.489 127.608C326.433 127.869 326.274 128 326.013 128H324.277C324.034 128 323.885 127.869 323.829 127.608L321.113 116.464H320.973L318.285 127.608C318.229 127.869 318.07 128 317.809 128ZM334.232 128H332.972C332.711 128 332.58 127.869 332.58 127.608V108.708C332.58 108.447 332.711 108.316 332.972 108.316H334.232C334.494 108.316 334.624 108.447 334.624 108.708V115.204H334.736C335.203 114.215 336.155 113.72 337.592 113.72H339.16C340.43 113.72 341.419 114.084 342.128 114.812C342.838 115.54 343.192 116.557 343.192 117.864V127.608C343.192 127.869 343.062 128 342.8 128H341.54C341.279 128 341.148 127.869 341.148 127.608V117.948C341.148 116.324 340.364 115.512 338.796 115.512H337.228C336.388 115.512 335.744 115.736 335.296 116.184C334.848 116.632 334.624 117.267 334.624 118.088V127.608C334.624 127.869 334.494 128 334.232 128ZM347.049 111.368V108.736C347.049 108.475 347.17 108.344 347.413 108.344H348.701C348.962 108.344 349.093 108.475 349.093 108.736V111.368C349.093 111.629 348.962 111.76 348.701 111.76H347.413C347.17 111.76 347.049 111.629 347.049 111.368ZM347.049 127.608V114.112C347.049 113.851 347.17 113.72 347.413 113.72H348.701C348.962 113.72 349.093 113.851 349.093 114.112V127.608C349.093 127.869 348.962 128 348.701 128H347.441C347.179 128 347.049 127.869 347.049 127.608ZM353.62 115.512H352.08C351.819 115.512 351.688 115.391 351.688 115.148V114.112C351.688 113.851 351.819 113.72 352.08 113.72H353.62C353.807 113.72 353.9 113.636 353.9 113.468V111.06C353.9 110.799 354.031 110.668 354.292 110.668H355.552C355.795 110.668 355.916 110.799 355.916 111.06V113.468C355.916 113.636 356.019 113.72 356.224 113.72H359.192C359.472 113.72 359.612 113.851 359.612 114.112V115.148C359.612 115.391 359.472 115.512 359.192 115.512H356.224C356.019 115.512 355.916 115.596 355.916 115.764V123.828C355.916 125.415 356.738 126.208 358.38 126.208H359.472C359.752 126.208 359.892 126.339 359.892 126.6V127.636C359.892 127.879 359.752 128 359.472 128H358.128C356.84 128 355.814 127.645 355.048 126.936C354.283 126.208 353.9 125.2 353.9 123.912V115.764C353.9 115.596 353.807 115.512 353.62 115.512ZM372.65 128H366.714C365.426 128 364.409 127.636 363.662 126.908C362.934 126.18 362.57 125.163 362.57 123.856V117.864C362.57 116.557 362.934 115.54 363.662 114.812C364.409 114.084 365.426 113.72 366.714 113.72H369.066C370.354 113.72 371.362 114.084 372.09 114.812C372.818 115.54 373.182 116.557 373.182 117.864V121.42C373.182 121.7 373.051 121.84 372.79 121.84H364.866C364.679 121.84 364.586 121.924 364.586 122.092V123.8C364.586 125.424 365.37 126.236 366.938 126.236H372.65C372.911 126.236 373.042 126.367 373.042 126.628V127.636C373.042 127.879 372.911 128 372.65 128ZM364.866 120.356H370.914C371.101 120.356 371.194 120.263 371.194 120.076V117.92C371.194 116.315 370.41 115.512 368.842 115.512H366.938C365.37 115.512 364.586 116.315 364.586 117.92V120.076C364.586 120.263 364.679 120.356 364.866 120.356ZM378.283 132.088H377.023C376.762 132.088 376.631 131.957 376.631 131.696V114.112C376.631 113.851 376.762 113.72 377.023 113.72H378.283C378.545 113.72 378.675 113.851 378.675 114.112V115.204H378.787C379.254 114.215 380.206 113.72 381.643 113.72H383.323C384.593 113.72 385.573 114.084 386.263 114.812C386.973 115.54 387.327 116.557 387.327 117.864V123.856C387.327 125.163 386.973 126.18 386.263 126.908C385.573 127.636 384.593 128 383.323 128H381.643C380.206 128 379.254 127.505 378.787 126.516H378.675V131.696C378.675 131.957 378.545 132.088 378.283 132.088ZM381.279 126.208H382.931C384.518 126.208 385.311 125.396 385.311 123.772V117.948C385.311 116.324 384.518 115.512 382.931 115.512H381.279C380.439 115.512 379.795 115.736 379.347 116.184C378.899 116.632 378.675 117.267 378.675 118.088V123.632C378.675 124.453 378.899 125.088 379.347 125.536C379.795 125.984 380.439 126.208 381.279 126.208ZM396.225 128H394.769C393.481 128 392.463 127.636 391.717 126.908C390.989 126.18 390.625 125.163 390.625 123.856V117.864C390.625 116.557 390.989 115.54 391.717 114.812C392.463 114.084 393.481 113.72 394.769 113.72H400.845C401.106 113.72 401.237 113.851 401.237 114.112V127.608C401.237 127.869 401.106 128 400.845 128H399.585C399.323 128 399.193 127.869 399.193 127.608V126.516H399.081C398.614 127.505 397.662 128 396.225 128ZM399.193 123.632V115.764C399.193 115.596 399.099 115.512 398.913 115.512H394.993C393.443 115.512 392.669 116.324 392.669 117.948V123.772C392.669 125.396 393.443 126.208 394.993 126.208H396.589C397.429 126.208 398.073 125.984 398.521 125.536C398.969 125.088 399.193 124.453 399.193 123.632ZM406.748 132.088H405.488C405.227 132.088 405.096 131.957 405.096 131.696V114.112C405.096 113.851 405.227 113.72 405.488 113.72H406.748C407.009 113.72 407.14 113.851 407.14 114.112V115.204H407.252C407.719 114.215 408.671 113.72 410.108 113.72H411.788C413.057 113.72 414.037 114.084 414.728 114.812C415.437 115.54 415.792 116.557 415.792 117.864V123.856C415.792 125.163 415.437 126.18 414.728 126.908C414.037 127.636 413.057 128 411.788 128H410.108C408.671 128 407.719 127.505 407.252 126.516H407.14V131.696C407.14 131.957 407.009 132.088 406.748 132.088ZM409.744 126.208H411.396C412.983 126.208 413.776 125.396 413.776 123.772V117.948C413.776 116.324 412.983 115.512 411.396 115.512H409.744C408.904 115.512 408.26 115.736 407.812 116.184C407.364 116.632 407.14 117.267 407.14 118.088V123.632C407.14 124.453 407.364 125.088 407.812 125.536C408.26 125.984 408.904 126.208 409.744 126.208ZM429.17 128H423.234C421.946 128 420.928 127.636 420.182 126.908C419.454 126.18 419.09 125.163 419.09 123.856V117.864C419.09 116.557 419.454 115.54 420.182 114.812C420.928 114.084 421.946 113.72 423.234 113.72H425.586C426.874 113.72 427.882 114.084 428.61 114.812C429.338 115.54 429.702 116.557 429.702 117.864V121.42C429.702 121.7 429.571 121.84 429.31 121.84H421.386C421.199 121.84 421.106 121.924 421.106 122.092V123.8C421.106 125.424 421.89 126.236 423.458 126.236H429.17C429.431 126.236 429.562 126.367 429.562 126.628V127.636C429.562 127.879 429.431 128 429.17 128ZM421.386 120.356H427.434C427.62 120.356 427.714 120.263 427.714 120.076V117.92C427.714 116.315 426.93 115.512 425.362 115.512H423.458C421.89 115.512 421.106 116.315 421.106 117.92V120.076C421.106 120.263 421.199 120.356 421.386 120.356ZM434.803 128H433.543C433.281 128 433.151 127.869 433.151 127.608V114.112C433.151 113.851 433.281 113.72 433.543 113.72H434.803C435.064 113.72 435.195 113.851 435.195 114.112V115.232H435.307C435.493 114.821 435.848 114.467 436.371 114.168C436.893 113.869 437.509 113.72 438.219 113.72H439.311C439.553 113.72 439.675 113.851 439.675 114.112V115.148C439.675 115.279 439.647 115.381 439.591 115.456C439.535 115.512 439.441 115.531 439.311 115.512H437.799C436.959 115.512 436.315 115.764 435.867 116.268C435.419 116.772 435.195 117.463 435.195 118.34V127.608C435.195 127.869 435.064 128 434.803 128ZM449.843 115.512H448.303C448.042 115.512 447.911 115.391 447.911 115.148V114.112C447.911 113.851 448.042 113.72 448.303 113.72H449.843C450.03 113.72 450.123 113.636 450.123 113.468V111.06C450.123 110.799 450.254 110.668 450.515 110.668H451.775C452.018 110.668 452.139 110.799 452.139 111.06V113.468C452.139 113.636 452.242 113.72 452.447 113.72H455.415C455.695 113.72 455.835 113.851 455.835 114.112V115.148C455.835 115.391 455.695 115.512 455.415 115.512H452.447C452.242 115.512 452.139 115.596 452.139 115.764V123.828C452.139 125.415 452.96 126.208 454.603 126.208H455.695C455.975 126.208 456.115 126.339 456.115 126.6V127.636C456.115 127.879 455.975 128 455.695 128H454.351C453.063 128 452.036 127.645 451.271 126.936C450.506 126.208 450.123 125.2 450.123 123.912V115.764C450.123 115.596 450.03 115.512 449.843 115.512ZM465.345 128H462.937C461.649 128 460.631 127.636 459.885 126.908C459.157 126.18 458.793 125.163 458.793 123.856V117.864C458.793 116.557 459.157 115.54 459.885 114.812C460.631 114.084 461.649 113.72 462.937 113.72H465.345C466.633 113.72 467.641 114.084 468.369 114.812C469.115 115.54 469.489 116.557 469.489 117.864V123.856C469.489 125.163 469.115 126.18 468.369 126.908C467.641 127.636 466.633 128 465.345 128ZM463.161 126.208H465.121C466.689 126.208 467.473 125.405 467.473 123.8V117.92C467.473 116.315 466.689 115.512 465.121 115.512H463.161C461.593 115.512 460.809 116.315 460.809 117.92V123.8C460.809 125.405 461.593 126.208 463.161 126.208ZM481.974 128H480.714C480.453 128 480.322 127.869 480.322 127.608V108.708C480.322 108.447 480.453 108.316 480.714 108.316H481.974C482.235 108.316 482.366 108.447 482.366 108.708V127.608C482.366 127.869 482.235 128 481.974 128ZM496.162 128H490.226C488.938 128 487.92 127.636 487.174 126.908C486.446 126.18 486.082 125.163 486.082 123.856V117.864C486.082 116.557 486.446 115.54 487.174 114.812C487.92 114.084 488.938 113.72 490.226 113.72H492.578C493.866 113.72 494.874 114.084 495.602 114.812C496.33 115.54 496.694 116.557 496.694 117.864V121.42C496.694 121.7 496.563 121.84 496.302 121.84H488.378C488.191 121.84 488.098 121.924 488.098 122.092V123.8C488.098 125.424 488.882 126.236 490.45 126.236H496.162C496.423 126.236 496.554 126.367 496.554 126.628V127.636C496.554 127.879 496.423 128 496.162 128ZM488.378 120.356H494.426C494.612 120.356 494.706 120.263 494.706 120.076V117.92C494.706 116.315 493.922 115.512 492.354 115.512H490.45C488.882 115.512 488.098 116.315 488.098 117.92V120.076C488.098 120.263 488.191 120.356 488.378 120.356ZM505.463 128H504.007C502.719 128 501.702 127.636 500.955 126.908C500.227 126.18 499.863 125.163 499.863 123.856V117.864C499.863 116.557 500.227 115.54 500.955 114.812C501.702 114.084 502.719 113.72 504.007 113.72H510.083C510.344 113.72 510.475 113.851 510.475 114.112V127.608C510.475 127.869 510.344 128 510.083 128H508.823C508.562 128 508.431 127.869 508.431 127.608V126.516H508.319C507.852 127.505 506.9 128 505.463 128ZM508.431 123.632V115.764C508.431 115.596 508.338 115.512 508.151 115.512H504.231C502.682 115.512 501.907 116.324 501.907 117.948V123.772C501.907 125.396 502.682 126.208 504.231 126.208H505.827C506.667 126.208 507.311 125.984 507.759 125.536C508.207 125.088 508.431 124.453 508.431 123.632ZM515.986 128H514.726C514.465 128 514.334 127.869 514.334 127.608V114.112C514.334 113.851 514.465 113.72 514.726 113.72H515.986C516.248 113.72 516.378 113.851 516.378 114.112V115.232H516.49C516.677 114.821 517.032 114.467 517.554 114.168C518.077 113.869 518.693 113.72 519.402 113.72H520.494C520.737 113.72 520.858 113.851 520.858 114.112V115.148C520.858 115.279 520.83 115.381 520.774 115.456C520.718 115.512 520.625 115.531 520.494 115.512H518.982C518.142 115.512 517.498 115.764 517.05 116.268C516.602 116.772 516.378 117.463 516.378 118.34V127.608C516.378 127.869 516.248 128 515.986 128ZM525.037 128H523.777C523.516 128 523.385 127.869 523.385 127.608V114.112C523.385 113.851 523.516 113.72 523.777 113.72H525.037C525.298 113.72 525.429 113.851 525.429 114.112V115.204H525.541C526.008 114.215 526.96 113.72 528.397 113.72H529.965C531.234 113.72 532.224 114.084 532.933 114.812C533.642 115.54 533.997 116.557 533.997 117.864V127.608C533.997 127.869 533.866 128 533.605 128H532.345C532.084 128 531.953 127.869 531.953 127.608V117.948C531.953 116.324 531.169 115.512 529.601 115.512H528.033C527.193 115.512 526.549 115.736 526.101 116.184C525.653 116.632 525.429 117.267 525.429 118.088V127.608C525.429 127.869 525.298 128 525.037 128ZM546.475 128H545.215C544.953 128 544.823 127.869 544.823 127.608V114.112C544.823 113.851 544.953 113.72 545.215 113.72H546.475C546.736 113.72 546.867 113.851 546.867 114.112V115.204H546.979C547.501 114.215 548.491 113.72 549.947 113.72H550.983C552.625 113.72 553.764 114.355 554.399 115.624C554.697 115.008 555.164 114.541 555.799 114.224C556.452 113.888 557.133 113.72 557.843 113.72H558.823C560.092 113.72 561.081 114.084 561.791 114.812C562.5 115.54 562.855 116.557 562.855 117.864V127.608C562.855 127.869 562.724 128 562.463 128H561.203C560.941 128 560.811 127.869 560.811 127.608V117.948C560.811 116.324 560.027 115.512 558.459 115.512H557.535C556.695 115.512 556.041 115.755 555.575 116.24C555.127 116.707 554.903 117.351 554.903 118.172V127.608C554.903 127.869 554.772 128 554.511 128H553.251C552.989 128 552.859 127.869 552.859 127.608V117.948C552.859 116.324 552.075 115.512 550.507 115.512H549.471C548.631 115.512 547.987 115.736 547.539 116.184C547.091 116.632 546.867 117.267 546.867 118.088V127.608C546.867 127.869 546.736 128 546.475 128ZM572.86 128H570.452C569.164 128 568.147 127.636 567.4 126.908C566.672 126.18 566.308 125.163 566.308 123.856V117.864C566.308 116.557 566.672 115.54 567.4 114.812C568.147 114.084 569.164 113.72 570.452 113.72H572.86C574.148 113.72 575.156 114.084 575.884 114.812C576.631 115.54 577.004 116.557 577.004 117.864V123.856C577.004 125.163 576.631 126.18 575.884 126.908C575.156 127.636 574.148 128 572.86 128ZM570.676 126.208H572.636C574.204 126.208 574.988 125.405 574.988 123.8V117.92C574.988 116.315 574.204 115.512 572.636 115.512H570.676C569.108 115.512 568.324 116.315 568.324 117.92V123.8C568.324 125.405 569.108 126.208 570.676 126.208ZM582.24 128H580.98C580.719 128 580.588 127.869 580.588 127.608V114.112C580.588 113.851 580.719 113.72 580.98 113.72H582.24C582.502 113.72 582.632 113.851 582.632 114.112V115.232H582.744C582.931 114.821 583.286 114.467 583.808 114.168C584.331 113.869 584.947 113.72 585.656 113.72H586.748C586.991 113.72 587.112 113.851 587.112 114.112V115.148C587.112 115.279 587.084 115.381 587.028 115.456C586.972 115.512 586.879 115.531 586.748 115.512H585.236C584.396 115.512 583.752 115.764 583.304 116.268C582.856 116.772 582.632 117.463 582.632 118.34V127.608C582.632 127.869 582.502 128 582.24 128ZM599.439 128H593.503C592.215 128 591.198 127.636 590.451 126.908C589.723 126.18 589.359 125.163 589.359 123.856V117.864C589.359 116.557 589.723 115.54 590.451 114.812C591.198 114.084 592.215 113.72 593.503 113.72H595.855C597.143 113.72 598.151 114.084 598.879 114.812C599.607 115.54 599.971 116.557 599.971 117.864V121.42C599.971 121.7 599.84 121.84 599.579 121.84H591.655C591.468 121.84 591.375 121.924 591.375 122.092V123.8C591.375 125.424 592.159 126.236 593.727 126.236H599.439C599.7 126.236 599.831 126.367 599.831 126.628V127.636C599.831 127.879 599.7 128 599.439 128ZM591.655 120.356H597.703C597.89 120.356 597.983 120.263 597.983 120.076V117.92C597.983 116.315 597.199 115.512 595.631 115.512H593.727C592.159 115.512 591.375 116.315 591.375 117.92V120.076C591.375 120.263 591.468 120.356 591.655 120.356ZM605.296 124.22V127.608C605.296 127.869 605.175 128 604.932 128H603.504C603.262 128 603.14 127.869 603.14 127.608V124.22C603.14 123.977 603.262 123.856 603.504 123.856H604.932C605.175 123.856 605.296 123.977 605.296 124.22Z" fill="#5A5A5A"/>
</svg>
