<svg width="440" height="26" viewBox="0 0 440 26" fill="none" xmlns="http://www.w3.org/2000/svg">
<path d="M3.70638 21H0.986375C0.538375 21 0.314375 20.776 0.314375 20.328V1.096C0.314375 0.647999 0.538375 0.424 0.986375 0.424H3.70638C4.15438 0.424 4.37838 0.647999 4.37838 1.096V8.616C4.37838 8.85067 4.50638 8.968 4.76238 8.968H10.1704C10.405 8.968 10.5224 8.85067 10.5224 8.616V1.096C10.5224 0.647999 10.7464 0.424 11.1944 0.424H13.9144C14.3624 0.424 14.5864 0.647999 14.5864 1.096V20.328C14.5864 20.776 14.3624 21 13.9144 21H11.1944C10.7464 21 10.5224 20.776 10.5224 20.328V12.84C10.5224 12.6053 10.405 12.488 10.1704 12.488H4.76238C4.50638 12.488 4.37838 12.6053 4.37838 12.84V20.328C4.37838 20.776 4.15438 21 3.70638 21ZM24.3519 17.48H26.6239C27.3065 17.48 27.7865 17.3413 28.0639 17.064C28.3625 16.7653 28.5119 16.2747 28.5119 15.592V5.832C28.5119 5.14933 28.3625 4.66933 28.0639 4.392C27.7865 4.09333 27.3065 3.944 26.6239 3.944H24.3519C23.6692 3.944 23.1892 4.09333 22.9119 4.392C22.6345 4.66933 22.4959 5.14933 22.4959 5.832V15.592C22.4959 16.2747 22.6345 16.7653 22.9119 17.064C23.1892 17.3413 23.6692 17.48 24.3519 17.48ZM27.2959 21H23.7119C22.0265 21 20.7252 20.552 19.8079 19.656C18.8905 18.76 18.4319 17.4693 18.4319 15.784V5.64C18.4319 3.95467 18.8905 2.664 19.8079 1.768C20.7252 0.872 22.0265 0.424 23.7119 0.424H27.2959C28.9812 0.424 30.2825 0.872 31.1999 1.768C32.1172 2.664 32.5759 3.95467 32.5759 5.64V15.784C32.5759 17.4693 32.1172 18.76 31.1999 19.656C30.2825 20.552 28.9812 21 27.2959 21ZM50.0721 0.424H54.8081C55.2561 0.424 55.4801 0.647999 55.4801 1.096V20.328C55.4801 20.776 55.2561 21 54.8081 21H52.1841C51.7361 21 51.5121 20.776 51.5121 20.328V5.16H51.3841L48.1201 15.88C47.9921 16.3067 47.7255 16.52 47.3201 16.52H44.6321C44.2268 16.52 43.9601 16.3067 43.8321 15.88L40.5041 5.128H40.3761V20.328C40.3761 20.584 40.3335 20.7653 40.2481 20.872C40.1628 20.9573 39.9815 21 39.7041 21H37.0801C36.6321 21 36.4081 20.776 36.4081 20.328V1.096C36.4081 0.647999 36.6321 0.424 37.0801 0.424H41.8481C42.1468 0.424 42.3495 0.573333 42.4561 0.872L45.8481 12.168H46.0401L49.4641 0.872C49.5281 0.573333 49.7308 0.424 50.0721 0.424ZM70.7629 21H60.2989C59.8509 21 59.6269 20.776 59.6269 20.328V1.096C59.6269 0.647999 59.8509 0.424 60.2989 0.424H70.7629C71.1895 0.424 71.4029 0.647999 71.4029 1.096V3.272C71.4029 3.72 71.1895 3.944 70.7629 3.944H64.0749C63.8189 3.944 63.6909 4.06133 63.6909 4.296V8.456C63.6909 8.69067 63.8189 8.808 64.0749 8.808H69.5469C69.9949 8.808 70.2189 9.032 70.2189 9.48V11.656C70.2189 12.104 69.9949 12.328 69.5469 12.328H64.0749C63.8189 12.328 63.6909 12.4453 63.6909 12.68V17.128C63.6909 17.3627 63.8189 17.48 64.0749 17.48H70.7629C71.1895 17.48 71.4029 17.704 71.4029 18.152V20.328C71.4029 20.776 71.1895 21 70.7629 21ZM80.8274 17.48H83.0994C83.782 17.48 84.262 17.3413 84.5394 17.064C84.838 16.7653 84.9874 16.2747 84.9874 15.592V5.832C84.9874 5.14933 84.838 4.66933 84.5394 4.392C84.262 4.09333 83.782 3.944 83.0994 3.944H80.8274C80.1447 3.944 79.6647 4.09333 79.3874 4.392C79.11 4.66933 78.9714 5.14933 78.9714 5.832V15.592C78.9714 16.2747 79.11 16.7653 79.3874 17.064C79.6647 17.3413 80.1447 17.48 80.8274 17.48ZM86.6834 25.256H84.3474C83.7714 25.256 83.3554 25.032 83.0994 24.584L81.0194 21H80.1554C78.47 21 77.1687 20.552 76.2514 19.656C75.334 18.76 74.8754 17.4693 74.8754 15.784V5.64C74.8754 3.95467 75.334 2.664 76.2514 1.768C77.1687 0.872 78.47 0.424 80.1554 0.424H83.7394C85.4247 0.424 86.726 0.872 87.6434 1.768C88.5607 2.664 89.0194 3.95467 89.0194 5.64V15.784C89.0194 17.192 88.678 18.3333 87.9954 19.208C87.334 20.0827 86.3847 20.6373 85.1474 20.872L87.1954 24.424C87.302 24.68 87.302 24.8827 87.1954 25.032C87.0887 25.1813 86.918 25.256 86.6834 25.256ZM103.686 0.424H106.374C106.843 0.424 107.078 0.637333 107.078 1.064V15.784C107.078 17.448 106.609 18.7387 105.67 19.656C104.753 20.552 103.462 21 101.798 21H98.2781C96.5928 21 95.2915 20.552 94.3741 19.656C93.4568 18.76 92.9981 17.4693 92.9981 15.784V1.096C92.9981 0.647999 93.2221 0.424 93.6701 0.424H96.3901C96.8381 0.424 97.0621 0.647999 97.0621 1.096V15.592C97.0621 16.2747 97.2008 16.7653 97.4781 17.064C97.7768 17.3413 98.2568 17.48 98.9181 17.48H101.126C101.809 17.48 102.289 17.3413 102.566 17.064C102.865 16.7653 103.014 16.2747 103.014 15.592V1.096C103.014 0.647999 103.238 0.424 103.686 0.424ZM115.48 17.608H119.064C119.768 17.608 120.27 17.4693 120.568 17.192C120.888 16.8933 121.048 16.4133 121.048 15.752V13.896C121.048 13.2347 120.888 12.7653 120.568 12.488C120.248 12.2107 119.726 12.072 119 12.072H115.48C115.246 12.072 115.128 12.1893 115.128 12.424V17.256C115.128 17.4907 115.246 17.608 115.48 17.608ZM115.48 8.776H118.744C119.427 8.776 119.928 8.63733 120.248 8.36C120.568 8.06133 120.728 7.58133 120.728 6.92V5.672C120.728 5.01067 120.568 4.54133 120.248 4.264C119.95 3.96533 119.459 3.816 118.776 3.816H115.48C115.246 3.816 115.128 3.93333 115.128 4.168V8.424C115.128 8.65867 115.246 8.776 115.48 8.776ZM111.064 20.328V1.096C111.064 0.647999 111.288 0.424 111.736 0.424H119.416C121.102 0.424 122.403 0.872 123.32 1.768C124.238 2.664 124.696 3.944 124.696 5.608V6.92C124.696 8.73333 123.854 9.90667 122.168 10.44C123.022 10.568 123.704 10.92 124.216 11.496C124.728 12.0507 124.984 12.8507 124.984 13.896V15.816C124.984 17.48 124.526 18.76 123.608 19.656C122.691 20.552 121.4 21 119.736 21H111.736C111.288 21 111.064 20.776 111.064 20.328ZM139.95 21H129.486C129.038 21 128.814 20.776 128.814 20.328V1.096C128.814 0.647999 129.038 0.424 129.486 0.424H139.95C140.377 0.424 140.59 0.647999 140.59 1.096V3.272C140.59 3.72 140.377 3.944 139.95 3.944H133.262C133.006 3.944 132.878 4.06133 132.878 4.296V8.456C132.878 8.69067 133.006 8.808 133.262 8.808H138.734C139.182 8.808 139.406 9.032 139.406 9.48V11.656C139.406 12.104 139.182 12.328 138.734 12.328H133.262C133.006 12.328 132.878 12.4453 132.878 12.68V17.128C132.878 17.3627 133.006 17.48 133.262 17.48H139.95C140.377 17.48 140.59 17.704 140.59 18.152V20.328C140.59 20.776 140.377 21 139.95 21ZM159.542 21H155.35C154.902 21 154.635 20.776 154.55 20.328L149.59 1.16C149.441 0.669333 149.654 0.424 150.23 0.424H153.238C153.665 0.424 153.921 0.647999 154.006 1.096L157.366 16.84H157.494L160.854 1.096C160.939 0.647999 161.195 0.424 161.622 0.424H164.63C165.163 0.424 165.377 0.669333 165.27 1.16L160.31 20.328C160.203 20.776 159.947 21 159.542 21ZM169.99 21H166.918C166.534 21 166.406 20.776 166.534 20.328L171.59 1.096C171.739 0.647999 172.059 0.424 172.55 0.424H176.806C177.339 0.424 177.659 0.647999 177.766 1.096L182.822 20.328C182.95 20.776 182.822 21 182.438 21H179.366C179.131 21 178.971 20.9573 178.886 20.872C178.8 20.7653 178.736 20.584 178.694 20.328L177.798 16.808H171.558L170.662 20.328C170.619 20.584 170.544 20.7653 170.438 20.872C170.352 20.9573 170.203 21 169.99 21ZM174.63 4.296L172.326 13.544H177.062L174.758 4.296H174.63ZM196.858 21H186.33C185.882 21 185.658 20.776 185.658 20.328V1.096C185.658 0.647999 185.882 0.424 186.33 0.424H189.05C189.498 0.424 189.722 0.647999 189.722 1.096V17.096C189.722 17.3307 189.85 17.448 190.106 17.448H196.858C197.285 17.448 197.498 17.6827 197.498 18.152V20.328C197.498 20.776 197.285 21 196.858 21ZM210.561 0.424H213.249C213.718 0.424 213.953 0.637333 213.953 1.064V15.784C213.953 17.448 213.484 18.7387 212.545 19.656C211.628 20.552 210.337 21 208.673 21H205.153C203.468 21 202.166 20.552 201.249 19.656C200.332 18.76 199.873 17.4693 199.873 15.784V1.096C199.873 0.647999 200.097 0.424 200.545 0.424H203.265C203.713 0.424 203.937 0.647999 203.937 1.096V15.592C203.937 16.2747 204.076 16.7653 204.353 17.064C204.652 17.3413 205.132 17.48 205.793 17.48H208.001C208.684 17.48 209.164 17.3413 209.441 17.064C209.74 16.7653 209.889 16.2747 209.889 15.592V1.096C209.889 0.647999 210.113 0.424 210.561 0.424ZM229.075 21H218.611C218.163 21 217.939 20.776 217.939 20.328V1.096C217.939 0.647999 218.163 0.424 218.611 0.424H229.075C229.502 0.424 229.715 0.647999 229.715 1.096V3.272C229.715 3.72 229.502 3.944 229.075 3.944H222.387C222.131 3.944 222.003 4.06133 222.003 4.296V8.456C222.003 8.69067 222.131 8.808 222.387 8.808H227.859C228.307 8.808 228.531 9.032 228.531 9.48V11.656C228.531 12.104 228.307 12.328 227.859 12.328H222.387C222.131 12.328 222.003 12.4453 222.003 12.68V17.128C222.003 17.3627 222.131 17.48 222.387 17.48H229.075C229.502 17.48 229.715 17.704 229.715 18.152V20.328C229.715 20.776 229.502 21 229.075 21ZM251.419 21H240.955C240.507 21 240.283 20.776 240.283 20.328V1.096C240.283 0.647999 240.507 0.424 240.955 0.424H251.419C251.846 0.424 252.059 0.647999 252.059 1.096V3.272C252.059 3.72 251.846 3.944 251.419 3.944H244.731C244.475 3.944 244.347 4.06133 244.347 4.296V8.456C244.347 8.69067 244.475 8.808 244.731 8.808H250.203C250.651 8.808 250.875 9.032 250.875 9.48V11.656C250.875 12.104 250.651 12.328 250.203 12.328H244.731C244.475 12.328 244.347 12.4453 244.347 12.68V17.128C244.347 17.3627 244.475 17.48 244.731 17.48H251.419C251.846 17.48 252.059 17.704 252.059 18.152V20.328C252.059 20.776 251.846 21 251.419 21ZM257.932 21H254.764C254.55 21 254.401 20.936 254.316 20.808C254.23 20.6587 254.23 20.488 254.316 20.296L259.276 10.472L254.476 1.128C254.39 0.957333 254.39 0.797333 254.476 0.647999C254.561 0.498666 254.71 0.424 254.924 0.424H257.996C258.529 0.424 258.881 0.647999 259.052 1.096L262.092 7.976H262.22L265.228 1.096C265.441 0.647999 265.782 0.424 266.252 0.424H269.388C269.601 0.424 269.75 0.509333 269.836 0.679998C269.942 0.829332 269.953 0.989333 269.868 1.16L265.004 10.472L269.964 20.264C270.07 20.4773 270.081 20.6587 269.996 20.808C269.91 20.936 269.75 21 269.516 21H266.316C265.868 21 265.558 20.7867 265.388 20.36L262.22 13.448H262.092L258.892 20.36C258.7 20.7867 258.38 21 257.932 21ZM281.325 21H277.837C276.152 21 274.85 20.552 273.933 19.656C273.016 18.76 272.557 17.4693 272.557 15.784V5.64C272.557 3.95467 273.016 2.664 273.933 1.768C274.85 0.872 276.152 0.424 277.837 0.424H281.325C282.989 0.424 284.28 0.882666 285.197 1.8C286.136 2.696 286.605 3.976 286.605 5.64V7.144C286.605 7.61333 286.37 7.848 285.901 7.848H283.213C282.765 7.848 282.541 7.61333 282.541 7.144V5.832C282.541 5.14933 282.392 4.66933 282.093 4.392C281.816 4.09333 281.336 3.944 280.653 3.944H278.477C277.816 3.944 277.336 4.09333 277.037 4.392C276.76 4.66933 276.621 5.14933 276.621 5.832V15.592C276.621 16.2747 276.76 16.7653 277.037 17.064C277.336 17.3413 277.816 17.48 278.477 17.48H280.653C281.336 17.48 281.816 17.3413 282.093 17.064C282.392 16.7653 282.541 16.2747 282.541 15.592V14.28C282.541 13.8107 282.765 13.576 283.213 13.576H285.901C286.37 13.576 286.605 13.8107 286.605 14.28V15.784C286.605 17.448 286.136 18.7387 285.197 19.656C284.28 20.552 282.989 21 281.325 21ZM293.488 21H290.768C290.32 21 290.096 20.776 290.096 20.328V1.096C290.096 0.647999 290.32 0.424 290.768 0.424H293.488C293.936 0.424 294.16 0.647999 294.16 1.096V8.616C294.16 8.85067 294.288 8.968 294.544 8.968H299.952C300.186 8.968 300.304 8.85067 300.304 8.616V1.096C300.304 0.647999 300.528 0.424 300.976 0.424H303.696C304.144 0.424 304.368 0.647999 304.368 1.096V20.328C304.368 20.776 304.144 21 303.696 21H300.976C300.528 21 300.304 20.776 300.304 20.328V12.84C300.304 12.6053 300.186 12.488 299.952 12.488H294.544C294.288 12.488 294.16 12.6053 294.16 12.84V20.328C294.16 20.776 293.936 21 293.488 21ZM310.677 21H307.605C307.221 21 307.093 20.776 307.221 20.328L312.277 1.096C312.426 0.647999 312.746 0.424 313.237 0.424H317.493C318.026 0.424 318.346 0.647999 318.453 1.096L323.509 20.328C323.637 20.776 323.509 21 323.125 21H320.053C319.818 21 319.658 20.9573 319.573 20.872C319.488 20.7653 319.424 20.584 319.381 20.328L318.485 16.808H312.245L311.349 20.328C311.306 20.584 311.232 20.7653 311.125 20.872C311.04 20.9573 310.89 21 310.677 21ZM315.317 4.296L313.013 13.544H317.749L315.445 4.296H315.317ZM329.674 21H327.018C326.57 21 326.346 20.776 326.346 20.328V1.096C326.346 0.647999 326.57 0.424 327.018 0.424H329.418C329.866 0.424 330.164 0.573333 330.314 0.872L336.778 13H336.906V1.096C336.906 0.647999 337.13 0.424 337.578 0.424H340.234C340.682 0.424 340.906 0.647999 340.906 1.096V20.328C340.906 20.776 340.682 21 340.234 21H337.898C337.428 21 337.087 20.7867 336.874 20.36L330.474 8.456H330.346V20.328C330.346 20.776 330.122 21 329.674 21ZM353.416 21H350.024C348.339 21 347.038 20.552 346.12 19.656C345.203 18.76 344.744 17.4693 344.744 15.784V5.64C344.744 3.95467 345.203 2.664 346.12 1.768C347.038 0.872 348.339 0.424 350.024 0.424H353.416C355.08 0.424 356.371 0.882666 357.288 1.8C358.206 2.696 358.664 3.976 358.664 5.64V6.6C358.664 7.06933 358.44 7.304 357.992 7.304H355.272C354.824 7.304 354.6 7.06933 354.6 6.6V5.832C354.6 5.14933 354.462 4.66933 354.184 4.392C353.907 4.09333 353.427 3.944 352.744 3.944H350.664C350.003 3.944 349.523 4.09333 349.224 4.392C348.947 4.66933 348.808 5.14933 348.808 5.832V15.592C348.808 16.2747 348.947 16.7653 349.224 17.064C349.523 17.3413 350.003 17.48 350.664 17.48H352.744C353.427 17.48 353.907 17.3413 354.184 17.064C354.462 16.7653 354.6 16.2747 354.6 15.592V13.576C354.6 13.3413 354.483 13.224 354.248 13.224H352.328C351.88 13.224 351.656 13 351.656 12.552V10.376C351.656 9.928 351.88 9.704 352.328 9.704H357.928C358.419 9.704 358.664 9.94933 358.664 10.44V15.784C358.664 17.448 358.206 18.7387 357.288 19.656C356.371 20.552 355.08 21 353.416 21ZM373.638 21H363.174C362.726 21 362.502 20.776 362.502 20.328V1.096C362.502 0.647999 362.726 0.424 363.174 0.424H373.638C374.065 0.424 374.278 0.647999 374.278 1.096V3.272C374.278 3.72 374.065 3.944 373.638 3.944H366.95C366.694 3.944 366.566 4.06133 366.566 4.296V8.456C366.566 8.69067 366.694 8.808 366.95 8.808H372.422C372.87 8.808 373.094 9.032 373.094 9.48V11.656C373.094 12.104 372.87 12.328 372.422 12.328H366.95C366.694 12.328 366.566 12.4453 366.566 12.68V17.128C366.566 17.3627 366.694 17.48 366.95 17.48H373.638C374.065 17.48 374.278 17.704 374.278 18.152V20.328C374.278 20.776 374.065 21 373.638 21ZM398.51 0.424H403.246C403.694 0.424 403.918 0.647999 403.918 1.096V20.328C403.918 20.776 403.694 21 403.246 21H400.622C400.174 21 399.95 20.776 399.95 20.328V5.16H399.822L396.558 15.88C396.43 16.3067 396.163 16.52 395.758 16.52H393.07C392.664 16.52 392.398 16.3067 392.27 15.88L388.942 5.128H388.814V20.328C388.814 20.584 388.771 20.7653 388.686 20.872C388.6 20.9573 388.419 21 388.142 21H385.518C385.07 21 384.846 20.776 384.846 20.328V1.096C384.846 0.647999 385.07 0.424 385.518 0.424H390.286C390.584 0.424 390.787 0.573333 390.894 0.872L394.286 12.168H394.478L397.902 0.872C397.966 0.573333 398.168 0.424 398.51 0.424ZM410.208 21H407.136C406.752 21 406.624 20.776 406.752 20.328L411.808 1.096C411.958 0.647999 412.278 0.424 412.768 0.424H417.024C417.558 0.424 417.878 0.647999 417.984 1.096L423.04 20.328C423.168 20.776 423.04 21 422.656 21H419.584C419.35 21 419.19 20.9573 419.104 20.872C419.019 20.7653 418.955 20.584 418.912 20.328L418.016 16.808H411.776L410.88 20.328C410.838 20.584 410.763 20.7653 410.656 20.872C410.571 20.9573 410.422 21 410.208 21ZM414.848 4.296L412.544 13.544H417.28L414.976 4.296H414.848ZM429.269 21H426.549C426.101 21 425.877 20.776 425.877 20.328V1.096C425.877 0.647999 426.101 0.424 426.549 0.424H434.357C436.021 0.424 437.312 0.882666 438.229 1.8C439.146 2.696 439.605 3.976 439.605 5.64V8.712C439.605 10.376 439.146 11.6667 438.229 12.584C437.312 13.48 436.021 13.928 434.357 13.928H430.325C430.069 13.928 429.941 14.0453 429.941 14.28V20.328C429.941 20.776 429.717 21 429.269 21ZM430.293 10.376H433.685C434.368 10.376 434.848 10.2373 435.125 9.96C435.402 9.66133 435.541 9.18133 435.541 8.52V5.832C435.541 5.14933 435.402 4.66933 435.125 4.392C434.848 4.09333 434.368 3.944 433.685 3.944H430.293C430.058 3.944 429.941 4.06133 429.941 4.296V10.024C429.941 10.2587 430.058 10.376 430.293 10.376Z" fill="black"/>
</svg>
