<svg width="181" height="200" viewBox="0 0 181 200" fill="none" xmlns="http://www.w3.org/2000/svg">
<path d="M38.9675 11.092H40.9835C41.3795 11.092 41.6615 11.014 41.8295 10.858C42.0095 10.69 42.0995 10.42 42.0995 10.048V9.004C42.0995 8.632 42.0095 8.368 41.8295 8.212C41.6495 8.056 41.3555 7.978 40.9475 7.978H38.9675C38.8355 7.978 38.7695 8.044 38.7695 8.176V10.894C38.7695 11.026 38.8355 11.092 38.9675 11.092ZM38.9675 6.124H40.8035C41.1875 6.124 41.4695 6.046 41.6495 5.89C41.8295 5.722 41.9195 5.452 41.9195 5.08V4.378C41.9195 4.006 41.8295 3.742 41.6495 3.586C41.4815 3.418 41.2055 3.334 40.8215 3.334H38.9675C38.8355 3.334 38.7695 3.4 38.7695 3.532V5.926C38.7695 6.058 38.8355 6.124 38.9675 6.124ZM36.4835 12.622V1.804C36.4835 1.552 36.6095 1.426 36.8615 1.426H41.1815C42.1295 1.426 42.8615 1.678 43.3775 2.182C43.8935 2.686 44.1515 3.406 44.1515 4.342V5.08C44.1515 6.1 43.6775 6.76 42.7295 7.06C43.2095 7.132 43.5935 7.33 43.8815 7.654C44.1695 7.966 44.3135 8.416 44.3135 9.004V10.084C44.3135 11.02 44.0555 11.74 43.5395 12.244C43.0235 12.748 42.2975 13 41.3615 13H36.8615C36.6095 13 36.4835 12.874 36.4835 12.622ZM52.7319 13H46.8459C46.5939 13 46.4679 12.874 46.4679 12.622V1.804C46.4679 1.552 46.5939 1.426 46.8459 1.426H52.7319C52.9719 1.426 53.0919 1.552 53.0919 1.804V3.028C53.0919 3.28 52.9719 3.406 52.7319 3.406H48.9699C48.8259 3.406 48.7539 3.472 48.7539 3.604V5.944C48.7539 6.076 48.8259 6.142 48.9699 6.142H52.0479C52.2999 6.142 52.4259 6.268 52.4259 6.52V7.744C52.4259 7.996 52.2999 8.122 52.0479 8.122H48.9699C48.8259 8.122 48.7539 8.188 48.7539 8.32V10.822C48.7539 10.954 48.8259 11.02 48.9699 11.02H52.7319C52.9719 11.02 53.0919 11.146 53.0919 11.398V12.622C53.0919 12.874 52.9719 13 52.7319 13ZM54.7571 12.622V10.912C54.7571 10.228 55.0511 9.646 55.6391 9.166L58.9511 6.358C59.4911 5.914 59.7611 5.434 59.7611 4.918V4.378C59.7611 4.006 59.6711 3.742 59.4911 3.586C59.3231 3.418 59.0411 3.334 58.6451 3.334H58.0151C57.6311 3.334 57.3611 3.418 57.2051 3.586C57.0491 3.742 56.9711 4.006 56.9711 4.378V4.954C56.9711 5.218 56.8451 5.35 56.5931 5.35H55.0631C54.8111 5.35 54.6851 5.218 54.6851 4.954V4.342C54.6851 3.406 54.9431 2.686 55.4591 2.182C55.9751 1.678 56.7071 1.426 57.6551 1.426H59.0231C59.9711 1.426 60.7031 1.678 61.2191 2.182C61.7351 2.686 61.9931 3.406 61.9931 4.342V5.062C61.9931 5.998 61.6331 6.772 60.9131 7.384L57.5291 10.264C57.3851 10.396 57.3131 10.54 57.3131 10.696V10.984H61.6151C61.8671 10.984 61.9931 11.11 61.9931 11.362V12.622C61.9931 12.874 61.8671 13 61.6151 13H55.1351C54.8831 13 54.7571 12.874 54.7571 12.622ZM70.9552 13H70.5232C69.5752 13 68.8432 12.748 68.3272 12.244C67.8112 11.74 67.5532 11.014 67.5532 10.066V6.754C67.5532 5.806 67.8112 5.08 68.3272 4.576C68.8432 4.072 69.5752 3.82 70.5232 3.82H74.6812C74.9452 3.82 75.0772 3.946 75.0772 4.198V12.622C75.0772 12.874 74.9452 13 74.6812 13H73.1692C72.9172 13 72.7912 12.874 72.7912 12.622V12.028H72.7192C72.5872 12.352 72.3532 12.598 72.0172 12.766C71.6812 12.922 71.3272 13 70.9552 13ZM72.7912 9.652V5.998C72.7912 5.866 72.7192 5.8 72.5752 5.8H70.8832C70.4992 5.8 70.2292 5.884 70.0732 6.052C69.9172 6.208 69.8392 6.478 69.8392 6.862V9.958C69.8392 10.342 69.9172 10.618 70.0732 10.786C70.2292 10.942 70.4992 11.02 70.8832 11.02H71.5492C72.3772 11.02 72.7912 10.564 72.7912 9.652ZM77.2476 5.8H76.5276C76.3836 5.8 76.2816 5.776 76.2216 5.728C76.1736 5.68 76.1496 5.584 76.1496 5.44V4.198C76.1496 3.946 76.2756 3.82 76.5276 3.82H77.2476C77.3796 3.82 77.4456 3.754 77.4456 3.622V1.912C77.4456 1.66 77.5776 1.534 77.8416 1.534H79.3536C79.6056 1.534 79.7316 1.66 79.7316 1.912V3.622C79.7316 3.754 79.8036 3.82 79.9476 3.82H81.3516C81.6036 3.82 81.7296 3.946 81.7296 4.198V5.44C81.7296 5.572 81.6996 5.668 81.6396 5.728C81.5916 5.776 81.4956 5.8 81.3516 5.8H79.9476C79.8036 5.8 79.7316 5.866 79.7316 5.998V9.976C79.7316 10.348 79.8156 10.618 79.9836 10.786C80.1516 10.942 80.4276 11.02 80.8116 11.02H81.5316C81.7836 11.02 81.9096 11.146 81.9096 11.398V12.64C81.9096 12.772 81.8796 12.868 81.8196 12.928C81.7716 12.976 81.6756 13 81.5316 13H80.4336C79.4856 13 78.7476 12.748 78.2196 12.244C77.7036 11.74 77.4456 11.02 77.4456 10.084V5.998C77.4456 5.866 77.3796 5.8 77.2476 5.8ZM91.5264 13H89.0064C88.7424 13 88.5924 12.874 88.5564 12.622L86.6304 1.804C86.5944 1.552 86.7204 1.426 87.0084 1.426H88.8804C89.1564 1.426 89.3004 1.552 89.3124 1.804L90.3564 10.678H90.4824L92.2104 1.75C92.2464 1.534 92.3724 1.426 92.5884 1.426H94.6044C94.8324 1.426 94.9644 1.528 95.0004 1.732L96.7644 10.678H96.9084L97.9344 1.822C97.9464 1.558 98.0904 1.426 98.3664 1.426H100.238C100.526 1.426 100.652 1.558 100.616 1.822L98.6724 12.622C98.6364 12.874 98.4984 13 98.2584 13H95.7204C95.4684 13 95.3244 12.874 95.2884 12.622L93.6684 4.18H93.5964L91.9584 12.622C91.9104 12.874 91.7664 13 91.5264 13ZM108.638 13H104.66C103.712 13 102.98 12.748 102.464 12.244C101.948 11.74 101.69 11.014 101.69 10.066V6.754C101.69 5.806 101.948 5.08 102.464 4.576C102.98 4.072 103.712 3.82 104.66 3.82H106.082C107.03 3.82 107.762 4.072 108.278 4.576C108.794 5.08 109.052 5.806 109.052 6.754V9.04C109.052 9.292 108.926 9.418 108.674 9.418H104.156C104.012 9.418 103.94 9.484 103.94 9.616V10.012C103.94 10.384 104.018 10.654 104.174 10.822C104.342 10.978 104.618 11.056 105.002 11.056H108.638C108.89 11.056 109.016 11.188 109.016 11.452V12.64C109.016 12.772 108.986 12.868 108.926 12.928C108.878 12.976 108.782 13 108.638 13ZM104.156 7.888H106.604C106.736 7.888 106.802 7.822 106.802 7.69V6.826C106.802 6.442 106.724 6.172 106.568 6.016C106.412 5.86 106.142 5.782 105.758 5.782H105.002C104.618 5.782 104.348 5.86 104.192 6.016C104.036 6.172 103.958 6.442 103.958 6.826V7.69C103.958 7.822 104.024 7.888 104.156 7.888ZM113.248 11.02H115.084C115.468 11.02 115.738 10.942 115.894 10.786C116.062 10.618 116.146 10.342 116.146 9.958V6.826C116.146 6.442 116.062 6.172 115.894 6.016C115.738 5.848 115.468 5.764 115.084 5.764H114.292C113.464 5.764 113.05 6.22 113.05 7.132V10.822C113.05 10.954 113.116 11.02 113.248 11.02ZM110.764 12.622V0.723999C110.764 0.472 110.89 0.346 111.142 0.346H112.672C112.924 0.346 113.05 0.472 113.05 0.723999V4.774H113.122C113.254 4.45 113.488 4.204 113.824 4.036C114.16 3.868 114.514 3.784 114.886 3.784H115.462C116.41 3.784 117.142 4.036 117.658 4.54C118.174 5.044 118.432 5.77 118.432 6.718V10.066C118.432 11.014 118.174 11.74 117.658 12.244C117.142 12.748 116.41 13 115.462 13H111.142C110.89 13 110.764 12.874 110.764 12.622ZM127.146 6.268H128.064C128.46 6.268 128.742 6.19 128.91 6.034C129.09 5.866 129.18 5.596 129.18 5.224V4.378C129.18 4.006 129.09 3.742 128.91 3.586C128.742 3.418 128.46 3.334 128.064 3.334H127.2C126.816 3.334 126.546 3.418 126.39 3.586C126.234 3.742 126.156 4.006 126.156 4.378V4.828C126.156 5.08 126.03 5.206 125.778 5.206H124.248C123.996 5.206 123.87 5.08 123.87 4.828V4.342C123.87 3.406 124.128 2.686 124.644 2.182C125.16 1.678 125.892 1.426 126.84 1.426H128.442C129.39 1.426 130.122 1.678 130.638 2.182C131.154 2.686 131.412 3.406 131.412 4.342V5.242C131.412 6.25 130.938 6.904 129.99 7.204C130.938 7.408 131.412 8.062 131.412 9.166V10.084C131.412 11.02 131.154 11.74 130.638 12.244C130.122 12.748 129.39 13 128.442 13H126.84C125.892 13 125.16 12.748 124.644 12.244C124.128 11.74 123.87 11.02 123.87 10.084V9.58C123.87 9.316 123.996 9.184 124.248 9.184H125.778C126.03 9.184 126.156 9.316 126.156 9.58V10.048C126.156 10.432 126.234 10.702 126.39 10.858C126.546 11.014 126.816 11.092 127.2 11.092H128.064C128.46 11.092 128.742 11.014 128.91 10.858C129.09 10.69 129.18 10.42 129.18 10.048V9.166C129.18 8.794 129.09 8.53 128.91 8.374C128.742 8.206 128.46 8.122 128.064 8.122H127.146C126.894 8.122 126.768 7.996 126.768 7.744V6.664C126.768 6.4 126.894 6.268 127.146 6.268ZM135.35 10.408V12.622C135.35 12.874 135.236 13 135.008 13H133.406C133.166 13 133.046 12.874 133.046 12.622V10.426C133.046 10.186 133.166 10.066 133.406 10.066H135.008C135.236 10.066 135.35 10.18 135.35 10.408ZM140.338 11.02H141.4C141.784 11.02 142.054 10.942 142.21 10.786C142.366 10.618 142.444 10.342 142.444 9.958V4.468C142.444 4.084 142.366 3.814 142.21 3.658C142.054 3.49 141.784 3.406 141.4 3.406H140.338C139.954 3.406 139.684 3.49 139.528 3.658C139.372 3.814 139.294 4.084 139.294 4.468V9.958C139.294 10.342 139.372 10.618 139.528 10.786C139.684 10.942 139.954 11.02 140.338 11.02ZM141.76 13H139.96C139.012 13 138.28 12.748 137.764 12.244C137.248 11.74 136.99 11.014 136.99 10.066V4.36C136.99 3.412 137.248 2.686 137.764 2.182C138.28 1.678 139.012 1.426 139.96 1.426H141.76C142.696 1.426 143.422 1.684 143.938 2.2C144.454 2.704 144.712 3.424 144.712 4.36V10.066C144.712 11.002 144.454 11.728 143.938 12.244C143.422 12.748 142.696 13 141.76 13ZM3.07126 28.386V27.846C3.07126 27.426 3.20926 26.952 3.48526 26.424L4.43926 24.606C4.52326 24.486 4.63126 24.426 4.76326 24.426C4.97926 24.426 5.08726 24.546 5.08726 24.786V28.368C5.08726 28.608 4.96726 28.728 4.72726 28.728H3.43126C3.19126 28.728 3.07126 28.614 3.07126 28.386ZM0.155258 28.386V27.846C0.155258 27.426 0.293258 26.952 0.569258 26.424L1.52326 24.606C1.60726 24.486 1.71526 24.426 1.84726 24.426C2.06326 24.426 2.17126 24.546 2.17126 24.786V28.368C2.17126 28.608 2.05126 28.728 1.81126 28.728H0.515258C0.275258 28.728 0.155258 28.614 0.155258 28.386ZM11.6515 36H9.68949C8.74149 36 8.00949 35.748 7.49349 35.244C6.97749 34.74 6.71949 34.014 6.71949 33.066V27.36C6.71949 26.412 6.97749 25.686 7.49349 25.182C8.00949 24.678 8.74149 24.426 9.68949 24.426H11.6515C12.5875 24.426 13.3135 24.684 13.8295 25.2C14.3575 25.704 14.6215 26.424 14.6215 27.36V28.206C14.6215 28.47 14.4895 28.602 14.2255 28.602H12.7135C12.4615 28.602 12.3355 28.47 12.3355 28.206V27.468C12.3355 27.084 12.2515 26.814 12.0835 26.658C11.9275 26.49 11.6575 26.406 11.2735 26.406H10.0495C9.67749 26.406 9.40749 26.49 9.23949 26.658C9.08349 26.814 9.00549 27.084 9.00549 27.468V32.958C9.00549 33.342 9.08349 33.618 9.23949 33.786C9.40749 33.942 9.67749 34.02 10.0495 34.02H11.2735C11.6575 34.02 11.9275 33.942 12.0835 33.786C12.2515 33.618 12.3355 33.342 12.3355 32.958V32.22C12.3355 31.956 12.4615 31.824 12.7135 31.824H14.2255C14.4895 31.824 14.6215 31.956 14.6215 32.22V33.066C14.6215 34.002 14.3575 34.728 13.8295 35.244C13.3135 35.748 12.5875 36 11.6515 36ZM20.797 36H19.195C18.247 36 17.515 35.748 16.999 35.244C16.483 34.74 16.225 34.014 16.225 33.066V29.754C16.225 28.806 16.483 28.08 16.999 27.576C17.515 27.072 18.247 26.82 19.195 26.82H20.797C21.733 26.82 22.459 27.078 22.975 27.594C23.503 28.098 23.767 28.818 23.767 29.754V33.066C23.767 34.002 23.503 34.728 22.975 35.244C22.459 35.748 21.733 36 20.797 36ZM19.537 34.038H20.455C20.839 34.038 21.109 33.96 21.265 33.804C21.433 33.648 21.517 33.378 21.517 32.994V29.826C21.517 29.442 21.433 29.172 21.265 29.016C21.109 28.86 20.839 28.782 20.455 28.782H19.537C19.153 28.782 18.883 28.86 18.727 29.016C18.571 29.172 18.493 29.442 18.493 29.826V32.994C18.493 33.378 18.571 33.648 18.727 33.804C18.883 33.96 19.153 34.038 19.537 34.038ZM27.4712 36H25.9412C25.6892 36 25.5632 35.874 25.5632 35.622V27.198C25.5632 26.946 25.6892 26.82 25.9412 26.82H27.4712C27.7232 26.82 27.8492 26.946 27.8492 27.198V27.792H27.9212C28.0652 27.504 28.3052 27.27 28.6412 27.09C28.9892 26.91 29.3852 26.82 29.8292 26.82H30.3332C31.3772 26.82 32.1272 27.204 32.5832 27.972C32.9912 27.204 33.6932 26.82 34.6892 26.82H35.2112C36.1352 26.82 36.8312 27.072 37.2992 27.576C37.7792 28.08 38.0192 28.806 38.0192 29.754V35.622C38.0192 35.874 37.8932 36 37.6412 36H36.1112C35.8592 36 35.7332 35.874 35.7332 35.622V29.862C35.7332 29.478 35.6552 29.208 35.4992 29.052C35.3432 28.884 35.0732 28.8 34.6892 28.8H34.2392C33.4112 28.8 32.9972 29.262 32.9972 30.186V35.622C32.9972 35.874 32.8652 36 32.6012 36H31.0892C30.8372 36 30.7112 35.874 30.7112 35.622V29.862C30.7112 29.478 30.6272 29.208 30.4592 29.052C30.3032 28.884 30.0332 28.8 29.6492 28.8H29.0912C28.2632 28.8 27.8492 29.256 27.8492 30.168V35.622C27.8492 35.874 27.7232 36 27.4712 36ZM41.8326 36H40.3026C40.0506 36 39.9246 35.874 39.9246 35.622V27.198C39.9246 26.946 40.0506 26.82 40.3026 26.82H41.8326C42.0846 26.82 42.2106 26.946 42.2106 27.198V27.792H42.2826C42.4266 27.504 42.6666 27.27 43.0026 27.09C43.3506 26.91 43.7466 26.82 44.1906 26.82H44.6946C45.7386 26.82 46.4886 27.204 46.9446 27.972C47.3526 27.204 48.0546 26.82 49.0506 26.82H49.5726C50.4966 26.82 51.1926 27.072 51.6606 27.576C52.1406 28.08 52.3806 28.806 52.3806 29.754V35.622C52.3806 35.874 52.2546 36 52.0026 36H50.4726C50.2206 36 50.0946 35.874 50.0946 35.622V29.862C50.0946 29.478 50.0166 29.208 49.8606 29.052C49.7046 28.884 49.4346 28.8 49.0506 28.8H48.6006C47.7726 28.8 47.3586 29.262 47.3586 30.186V35.622C47.3586 35.874 47.2266 36 46.9626 36H45.4506C45.1986 36 45.0726 35.874 45.0726 35.622V29.862C45.0726 29.478 44.9886 29.208 44.8206 29.052C44.6646 28.884 44.3946 28.8 44.0106 28.8H43.4526C42.6246 28.8 42.2106 29.256 42.2106 30.168V35.622C42.2106 35.874 42.0846 36 41.8326 36ZM57.5979 36H57.0039C56.0799 36 55.3779 35.748 54.8979 35.244C54.4299 34.74 54.1959 34.014 54.1959 33.066V27.198C54.1959 26.946 54.3219 26.82 54.5739 26.82H56.1039C56.3559 26.82 56.4819 26.946 56.4819 27.198V32.958C56.4819 33.342 56.5599 33.618 56.7159 33.786C56.8839 33.942 57.1539 34.02 57.5259 34.02H58.1919C59.0199 34.02 59.4339 33.564 59.4339 32.652V27.198C59.4339 26.946 59.5599 26.82 59.8119 26.82H61.3239C61.5879 26.82 61.7199 26.946 61.7199 27.198V35.622C61.7199 35.874 61.5879 36 61.3239 36H59.8119C59.5599 36 59.4339 35.874 59.4339 35.622V35.028H59.3619C59.2299 35.352 58.9959 35.598 58.6599 35.766C58.3239 35.922 57.9699 36 57.5979 36ZM65.6158 36H64.0858C63.8338 36 63.7078 35.874 63.7078 35.622V27.198C63.7078 26.946 63.8338 26.82 64.0858 26.82H65.6158C65.8678 26.82 65.9938 26.946 65.9938 27.198V27.792H66.0658C66.3298 27.144 66.9178 26.82 67.8298 26.82H68.4058C70.2898 26.82 71.2318 27.798 71.2318 29.754V35.622C71.2318 35.874 71.0998 36 70.8358 36H69.3238C69.0718 36 68.9458 35.874 68.9458 35.622V29.862C68.9458 29.478 68.8618 29.208 68.6938 29.052C68.5378 28.884 68.2678 28.8 67.8838 28.8H67.2358C66.4078 28.8 65.9938 29.256 65.9938 30.168V35.622C65.9938 35.874 65.8678 36 65.6158 36ZM73.2196 25.272V23.706C73.2196 23.466 73.3396 23.346 73.5796 23.346H75.1456C75.3856 23.346 75.5056 23.46 75.5056 23.688V25.272C75.5056 25.512 75.3856 25.632 75.1456 25.632H73.5796C73.3396 25.632 73.2196 25.512 73.2196 25.272ZM73.2196 35.622V27.198C73.2196 26.946 73.3396 26.82 73.5796 26.82H75.1276C75.3796 26.82 75.5056 26.946 75.5056 27.198V35.622C75.5056 35.778 75.4756 35.88 75.4156 35.928C75.3676 35.976 75.2776 36 75.1456 36H73.5976C73.3456 36 73.2196 35.874 73.2196 35.622ZM77.7749 28.8H77.0549C76.9109 28.8 76.8089 28.776 76.7489 28.728C76.7009 28.68 76.6769 28.584 76.6769 28.44V27.198C76.6769 26.946 76.8029 26.82 77.0549 26.82H77.7749C77.9069 26.82 77.9729 26.754 77.9729 26.622V24.912C77.9729 24.66 78.1049 24.534 78.3689 24.534H79.8809C80.1329 24.534 80.2589 24.66 80.2589 24.912V26.622C80.2589 26.754 80.3309 26.82 80.4749 26.82H81.8789C82.1309 26.82 82.2569 26.946 82.2569 27.198V28.44C82.2569 28.572 82.2269 28.668 82.1669 28.728C82.1189 28.776 82.0229 28.8 81.8789 28.8H80.4749C80.3309 28.8 80.2589 28.866 80.2589 28.998V32.976C80.2589 33.348 80.3429 33.618 80.5109 33.786C80.6789 33.942 80.9549 34.02 81.3389 34.02H82.0589C82.3109 34.02 82.4369 34.146 82.4369 34.398V35.64C82.4369 35.772 82.4069 35.868 82.3469 35.928C82.2989 35.976 82.2029 36 82.0589 36H80.9609C80.0129 36 79.2749 35.748 78.7469 35.244C78.2309 34.74 77.9729 34.02 77.9729 33.084V28.998C77.9729 28.866 77.9069 28.8 77.7749 28.8ZM85.4166 39.042H84.2646C84.0246 39.042 83.9046 38.91 83.9046 38.646V37.44C83.9046 37.176 84.0246 37.044 84.2646 37.044H84.6426C85.3986 37.044 85.9086 36.936 86.1726 36.72C86.4486 36.516 86.6586 36.114 86.8026 35.514H85.8486C85.6206 35.514 85.4706 35.388 85.3986 35.136L83.2926 27.198C83.2206 26.946 83.3106 26.82 83.5626 26.82H85.1646C85.4046 26.82 85.5546 26.946 85.6146 27.198L87.1626 33.84H87.2346L88.7646 27.198C88.8126 26.946 88.9626 26.82 89.2146 26.82H90.7266C91.0266 26.82 91.1466 26.952 91.0866 27.216L88.8906 36C88.6266 36.996 88.2186 37.752 87.6666 38.268C87.1146 38.784 86.3646 39.042 85.4166 39.042ZM98.9064 24.804V35.622C98.9064 35.874 98.7804 36 98.5284 36H96.9984C96.7464 36 96.6204 35.874 96.6204 35.622V24.804C96.6204 24.552 96.7464 24.426 96.9984 24.426H98.5284C98.7804 24.426 98.9064 24.552 98.9064 24.804ZM103.057 36H101.527C101.275 36 101.149 35.874 101.149 35.622V27.198C101.149 26.946 101.275 26.82 101.527 26.82H103.057C103.309 26.82 103.435 26.946 103.435 27.198V27.792H103.507C103.771 27.144 104.359 26.82 105.271 26.82H105.847C107.731 26.82 108.673 27.798 108.673 29.754V35.622C108.673 35.874 108.541 36 108.277 36H106.765C106.513 36 106.387 35.874 106.387 35.622V29.862C106.387 29.478 106.303 29.208 106.135 29.052C105.979 28.884 105.709 28.8 105.325 28.8H104.677C103.849 28.8 103.435 29.256 103.435 30.168V35.622C103.435 35.874 103.309 36 103.057 36ZM112.479 36H110.949C110.697 36 110.571 35.874 110.571 35.622V27.198C110.571 26.946 110.697 26.82 110.949 26.82H112.479C112.731 26.82 112.857 26.946 112.857 27.198V27.792H112.929C113.193 27.144 113.781 26.82 114.693 26.82H115.269C117.153 26.82 118.095 27.798 118.095 29.754V35.622C118.095 35.874 117.963 36 117.699 36H116.187C115.935 36 115.809 35.874 115.809 35.622V29.862C115.809 29.478 115.725 29.208 115.557 29.052C115.401 28.884 115.131 28.8 114.747 28.8H114.099C113.271 28.8 112.857 29.256 112.857 30.168V35.622C112.857 35.874 112.731 36 112.479 36ZM124.385 36H122.783C121.835 36 121.103 35.748 120.587 35.244C120.071 34.74 119.813 34.014 119.813 33.066V29.754C119.813 28.806 120.071 28.08 120.587 27.576C121.103 27.072 121.835 26.82 122.783 26.82H124.385C125.321 26.82 126.047 27.078 126.563 27.594C127.091 28.098 127.355 28.818 127.355 29.754V33.066C127.355 34.002 127.091 34.728 126.563 35.244C126.047 35.748 125.321 36 124.385 36ZM123.125 34.038H124.043C124.427 34.038 124.697 33.96 124.853 33.804C125.021 33.648 125.105 33.378 125.105 32.994V29.826C125.105 29.442 125.021 29.172 124.853 29.016C124.697 28.86 124.427 28.782 124.043 28.782H123.125C122.741 28.782 122.471 28.86 122.315 29.016C122.159 29.172 122.081 29.442 122.081 29.826V32.994C122.081 33.378 122.159 33.648 122.315 33.804C122.471 33.96 122.741 34.038 123.125 34.038ZM128.755 26.82H130.339C130.579 26.82 130.723 26.946 130.771 27.198L132.319 33.966H132.445L133.957 27.198C134.005 26.946 134.155 26.82 134.407 26.82H135.991C136.243 26.82 136.333 26.946 136.261 27.198L133.993 35.604C133.945 35.868 133.783 36 133.507 36H131.221C130.969 36 130.807 35.868 130.735 35.604L128.485 27.198C128.413 26.946 128.503 26.82 128.755 26.82ZM140.793 36H140.361C139.413 36 138.681 35.748 138.165 35.244C137.649 34.74 137.391 34.014 137.391 33.066V29.754C137.391 28.806 137.649 28.08 138.165 27.576C138.681 27.072 139.413 26.82 140.361 26.82H144.519C144.783 26.82 144.915 26.946 144.915 27.198V35.622C144.915 35.874 144.783 36 144.519 36H143.007C142.755 36 142.629 35.874 142.629 35.622V35.028H142.557C142.425 35.352 142.191 35.598 141.855 35.766C141.519 35.922 141.165 36 140.793 36ZM142.629 32.652V28.998C142.629 28.866 142.557 28.8 142.413 28.8H140.721C140.337 28.8 140.067 28.884 139.911 29.052C139.755 29.208 139.677 29.478 139.677 29.862V32.958C139.677 33.342 139.755 33.618 139.911 33.786C140.067 33.942 140.337 34.02 140.721 34.02H141.387C142.215 34.02 142.629 33.564 142.629 32.652ZM147.085 28.8H146.365C146.221 28.8 146.119 28.776 146.059 28.728C146.011 28.68 145.987 28.584 145.987 28.44V27.198C145.987 26.946 146.113 26.82 146.365 26.82H147.085C147.217 26.82 147.283 26.754 147.283 26.622V24.912C147.283 24.66 147.415 24.534 147.679 24.534H149.191C149.443 24.534 149.569 24.66 149.569 24.912V26.622C149.569 26.754 149.641 26.82 149.785 26.82H151.189C151.441 26.82 151.567 26.946 151.567 27.198V28.44C151.567 28.572 151.537 28.668 151.477 28.728C151.429 28.776 151.333 28.8 151.189 28.8H149.785C149.641 28.8 149.569 28.866 149.569 28.998V32.976C149.569 33.348 149.653 33.618 149.821 33.786C149.989 33.942 150.265 34.02 150.649 34.02H151.369C151.621 34.02 151.747 34.146 151.747 34.398V35.64C151.747 35.772 151.717 35.868 151.657 35.928C151.609 35.976 151.513 36 151.369 36H150.271C149.323 36 148.585 35.748 148.057 35.244C147.541 34.74 147.283 34.02 147.283 33.084V28.998C147.283 28.866 147.217 28.8 147.085 28.8ZM153.323 25.272V23.706C153.323 23.466 153.443 23.346 153.683 23.346H155.249C155.489 23.346 155.609 23.46 155.609 23.688V25.272C155.609 25.512 155.489 25.632 155.249 25.632H153.683C153.443 25.632 153.323 25.512 153.323 25.272ZM153.323 35.622V27.198C153.323 26.946 153.443 26.82 153.683 26.82H155.231C155.483 26.82 155.609 26.946 155.609 27.198V35.622C155.609 35.778 155.579 35.88 155.519 35.928C155.471 35.976 155.381 36 155.249 36H153.701C153.449 36 153.323 35.874 153.323 35.622ZM162.072 36H160.47C159.522 36 158.79 35.748 158.274 35.244C157.758 34.74 157.5 34.014 157.5 33.066V29.754C157.5 28.806 157.758 28.08 158.274 27.576C158.79 27.072 159.522 26.82 160.47 26.82H162.072C163.008 26.82 163.734 27.078 164.25 27.594C164.778 28.098 165.042 28.818 165.042 29.754V33.066C165.042 34.002 164.778 34.728 164.25 35.244C163.734 35.748 163.008 36 162.072 36ZM160.812 34.038H161.73C162.114 34.038 162.384 33.96 162.54 33.804C162.708 33.648 162.792 33.378 162.792 32.994V29.826C162.792 29.442 162.708 29.172 162.54 29.016C162.384 28.86 162.114 28.782 161.73 28.782H160.812C160.428 28.782 160.158 28.86 160.002 29.016C159.846 29.172 159.768 29.442 159.768 29.826V32.994C159.768 33.378 159.846 33.648 160.002 33.804C160.158 33.96 160.428 34.038 160.812 34.038ZM168.747 36H167.217C166.965 36 166.839 35.874 166.839 35.622V27.198C166.839 26.946 166.965 26.82 167.217 26.82H168.747C168.999 26.82 169.125 26.946 169.125 27.198V27.792H169.197C169.461 27.144 170.049 26.82 170.961 26.82H171.537C173.421 26.82 174.363 27.798 174.363 29.754V35.622C174.363 35.874 174.231 36 173.967 36H172.455C172.203 36 172.077 35.874 172.077 35.622V29.862C172.077 29.478 171.993 29.208 171.825 29.052C171.669 28.884 171.399 28.8 171.015 28.8H170.367C169.539 28.8 169.125 29.256 169.125 30.168V35.622C169.125 35.874 168.999 36 168.747 36ZM177.953 24.768V25.308C177.953 25.68 177.815 26.154 177.539 26.73L176.585 28.548C176.501 28.668 176.387 28.728 176.243 28.728C176.039 28.728 175.937 28.608 175.937 28.368V24.786C175.937 24.546 176.057 24.426 176.297 24.426H177.593C177.833 24.426 177.953 24.54 177.953 24.768ZM180.869 24.768V25.308C180.869 25.68 180.731 26.154 180.455 26.73L179.501 28.548C179.417 28.668 179.303 28.728 179.159 28.728C178.955 28.728 178.853 28.608 178.853 28.368V24.786C178.853 24.546 178.973 24.426 179.213 24.426H180.509C180.749 24.426 180.869 24.54 180.869 24.768ZM15.5904 82H15.0684C14.9484 82 14.8884 81.928 14.8884 81.784V70.642C14.8884 70.498 14.9484 70.426 15.0684 70.426H19.2084C19.9884 70.426 20.6064 70.654 21.0624 71.11C21.5184 71.566 21.7464 72.19 21.7464 72.982V75.088C21.7464 75.88 21.5184 76.504 21.0624 76.96C20.6064 77.416 19.9884 77.644 19.2084 77.644H15.9684C15.8484 77.644 15.7884 77.692 15.7884 77.788V81.784C15.7884 81.928 15.7224 82 15.5904 82ZM15.9684 76.816H19.1364C19.6884 76.816 20.1084 76.666 20.3964 76.366C20.6844 76.054 20.8284 75.616 20.8284 75.052V73.018C20.8284 72.442 20.6844 72.004 20.3964 71.704C20.1084 71.392 19.6884 71.236 19.1364 71.236H15.9684C15.8484 71.236 15.7884 71.29 15.7884 71.398V76.672C15.7884 76.768 15.8484 76.816 15.9684 76.816ZM27.6399 82H26.4879C25.7079 82 25.0899 81.772 24.6339 81.316C24.1899 80.86 23.9679 80.236 23.9679 79.444V75.376C23.9679 74.584 24.1899 73.96 24.6339 73.504C25.0899 73.048 25.7079 72.82 26.4879 72.82H30.3039C30.4239 72.82 30.4839 72.892 30.4839 73.036V81.784C30.4839 81.928 30.4239 82 30.3039 82H29.7819C29.6499 82 29.5839 81.928 29.5839 81.784V81.064H29.5119C29.1999 81.688 28.5759 82 27.6399 82ZM29.5839 79.426V73.792C29.5839 73.684 29.5239 73.63 29.4039 73.63H26.5599C26.0079 73.63 25.5879 73.786 25.2999 74.098C25.0119 74.41 24.8679 74.848 24.8679 75.412V79.408C24.8679 79.972 25.0119 80.41 25.2999 80.722C25.5879 81.034 26.0079 81.19 26.5599 81.19H27.7299C28.3059 81.19 28.7559 81.04 29.0799 80.74C29.4159 80.428 29.5839 79.99 29.5839 79.426ZM33.885 82H33.363C33.243 82 33.183 81.928 33.183 81.784V73.036C33.183 72.892 33.243 72.82 33.363 72.82H33.885C34.017 72.82 34.083 72.892 34.083 73.036V73.792H34.155C34.287 73.54 34.521 73.318 34.857 73.126C35.193 72.922 35.607 72.82 36.099 72.82H36.801C36.933 72.82 36.999 72.886 36.999 73.018V73.45C36.999 73.582 36.933 73.642 36.801 73.63H35.955C35.367 73.63 34.905 73.81 34.569 74.17C34.245 74.53 34.083 75.016 34.083 75.628V81.784C34.083 81.928 34.017 82 33.885 82ZM42.3176 82H41.1656C40.3856 82 39.7676 81.772 39.3116 81.316C38.8676 80.86 38.6456 80.236 38.6456 79.444V75.376C38.6456 74.584 38.8676 73.96 39.3116 73.504C39.7676 73.048 40.3856 72.82 41.1656 72.82H44.9816C45.1016 72.82 45.1616 72.892 45.1616 73.036V81.784C45.1616 81.928 45.1016 82 44.9816 82H44.4596C44.3276 82 44.2616 81.928 44.2616 81.784V81.064H44.1896C43.8776 81.688 43.2536 82 42.3176 82ZM44.2616 79.426V73.792C44.2616 73.684 44.2016 73.63 44.0816 73.63H41.2376C40.6856 73.63 40.2656 73.786 39.9776 74.098C39.6896 74.41 39.5456 74.848 39.5456 75.412V79.408C39.5456 79.972 39.6896 80.41 39.9776 80.722C40.2656 81.034 40.6856 81.19 41.2376 81.19H42.4076C42.9836 81.19 43.4336 81.04 43.7576 80.74C44.0936 80.428 44.2616 79.99 44.2616 79.426ZM48.5627 82H48.0407C47.9207 82 47.8607 81.928 47.8607 81.784V73.036C47.8607 72.892 47.9207 72.82 48.0407 72.82H48.5627C48.6947 72.82 48.7607 72.892 48.7607 73.036V73.756H48.8327C49.1807 73.132 49.8167 72.82 50.7407 72.82H51.4787C52.5347 72.82 53.2667 73.24 53.6747 74.08C53.8547 73.66 54.1607 73.348 54.5927 73.144C55.0247 72.928 55.4687 72.82 55.9247 72.82H56.5907C57.3707 72.82 57.9827 73.048 58.4267 73.504C58.8707 73.96 59.0927 74.584 59.0927 75.376V81.784C59.0927 81.928 59.0267 82 58.8947 82H58.3727C58.2407 82 58.1747 81.928 58.1747 81.784V75.412C58.1747 74.836 58.0307 74.398 57.7427 74.098C57.4547 73.786 57.0347 73.63 56.4827 73.63H55.8167C55.2407 73.63 54.7847 73.798 54.4487 74.134C54.1127 74.458 53.9447 74.902 53.9447 75.466V81.784C53.9447 81.928 53.8787 82 53.7467 82H53.2247C53.0927 82 53.0267 81.928 53.0267 81.784V75.412C53.0267 74.836 52.8827 74.398 52.5947 74.098C52.3067 73.786 51.8867 73.63 51.3347 73.63H50.6147C50.0387 73.63 49.5827 73.786 49.2467 74.098C48.9227 74.398 48.7607 74.83 48.7607 75.394V81.784C48.7607 81.928 48.6947 82 48.5627 82ZM67.7967 82H64.0347C63.2547 82 62.6367 81.772 62.1807 81.316C61.7367 80.86 61.5147 80.236 61.5147 79.444V75.376C61.5147 74.584 61.7367 73.96 62.1807 73.504C62.6367 73.048 63.2547 72.82 64.0347 72.82H65.5827C66.3627 72.82 66.9807 73.048 67.4367 73.504C67.8927 73.96 68.1207 74.584 68.1207 75.376V77.662C68.1207 77.806 68.0487 77.878 67.9047 77.878H62.5767C62.4687 77.878 62.4147 77.932 62.4147 78.04V79.426C62.4147 79.99 62.5587 80.428 62.8467 80.74C63.1347 81.04 63.5547 81.19 64.1067 81.19H67.7967C67.9287 81.19 67.9947 81.256 67.9947 81.388V81.802C67.9947 81.934 67.9287 82 67.7967 82ZM62.5767 77.158H67.0587C67.1667 77.158 67.2207 77.104 67.2207 76.996V75.394C67.2207 74.83 67.0767 74.398 66.7887 74.098C66.5007 73.786 66.0807 73.63 65.5287 73.63H64.1067C63.5547 73.63 63.1347 73.786 62.8467 74.098C62.5587 74.398 62.4147 74.83 62.4147 75.394V76.996C62.4147 77.104 62.4687 77.158 62.5767 77.158ZM70.9501 73.63H69.8521C69.7201 73.63 69.6541 73.57 69.6541 73.45V73.018C69.6541 72.886 69.7201 72.82 69.8521 72.82H70.9501C71.0581 72.82 71.1121 72.766 71.1121 72.658V71.2C71.1121 71.056 71.1781 70.984 71.3101 70.984H71.8321C71.9641 70.984 72.0301 71.056 72.0301 71.2V72.658C72.0301 72.766 72.0841 72.82 72.1921 72.82H74.3341C74.4661 72.82 74.5321 72.886 74.5321 73.018V73.45C74.5321 73.57 74.4661 73.63 74.3341 73.63H72.1921C72.0841 73.63 72.0301 73.684 72.0301 73.792V79.462C72.0301 80.014 72.1861 80.44 72.4981 80.74C72.8101 81.04 73.2481 81.19 73.8121 81.19H74.5141C74.6461 81.19 74.7121 81.256 74.7121 81.388V81.802C74.7121 81.934 74.6461 82 74.5141 82H73.7401C72.9481 82 72.3121 81.778 71.8321 81.334C71.3521 80.89 71.1121 80.278 71.1121 79.498V73.792C71.1121 73.684 71.0581 73.63 70.9501 73.63ZM77.4963 82H76.9743C76.8543 82 76.7943 81.928 76.7943 81.784V73.036C76.7943 72.892 76.8543 72.82 76.9743 72.82H77.4963C77.6283 72.82 77.6943 72.892 77.6943 73.036V73.792H77.7663C77.8983 73.54 78.1323 73.318 78.4683 73.126C78.8043 72.922 79.2183 72.82 79.7103 72.82H80.4123C80.5443 72.82 80.6103 72.886 80.6103 73.018V73.45C80.6103 73.582 80.5443 73.642 80.4123 73.63H79.5663C78.9783 73.63 78.5163 73.81 78.1803 74.17C77.8563 74.53 77.6943 75.016 77.6943 75.628V81.784C77.6943 81.928 77.6283 82 77.4963 82ZM82.5269 71.308V69.58C82.5269 69.448 82.5869 69.382 82.7069 69.382H83.2469C83.3669 69.382 83.4269 69.448 83.4269 69.58V71.308C83.4269 71.452 83.3669 71.524 83.2469 71.524H82.7069C82.5869 71.524 82.5269 71.452 82.5269 71.308ZM82.5269 81.784V73.036C82.5269 72.892 82.5869 72.82 82.7069 72.82H83.2289C83.3609 72.82 83.4269 72.892 83.4269 73.036V81.784C83.4269 81.928 83.3669 82 83.2469 82H82.7069C82.5869 82 82.5269 81.928 82.5269 81.784ZM91.3462 81.388V81.802C91.3462 81.934 91.2802 82 91.1482 82H88.5562C87.7762 82 87.1582 81.772 86.7022 81.316C86.2582 80.86 86.0362 80.236 86.0362 79.444V75.376C86.0362 74.584 86.2582 73.96 86.7022 73.504C87.1582 73.048 87.7762 72.82 88.5562 72.82H91.1482C91.2802 72.82 91.3462 72.886 91.3462 73.018V73.45C91.3462 73.57 91.2802 73.63 91.1482 73.63H88.6282C88.0762 73.63 87.6562 73.786 87.3682 74.098C87.0802 74.41 86.9362 74.848 86.9362 75.412V79.408C86.9362 79.972 87.0802 80.41 87.3682 80.722C87.6562 81.034 88.0762 81.19 88.6282 81.19H91.1482C91.2802 81.19 91.3462 81.256 91.3462 81.388ZM99.359 81.19H102.815C103.367 81.19 103.787 81.04 104.075 80.74C104.375 80.428 104.525 79.984 104.525 79.408V73.018C104.525 72.442 104.375 72.004 104.075 71.704C103.787 71.392 103.367 71.236 102.815 71.236H99.359C99.239 71.236 99.179 71.29 99.179 71.398V81.028C99.179 81.136 99.239 81.19 99.359 81.19ZM98.279 81.784V70.642C98.279 70.498 98.339 70.426 98.459 70.426H102.905C103.685 70.426 104.297 70.654 104.741 71.11C105.197 71.566 105.425 72.19 105.425 72.982V79.444C105.425 80.236 105.197 80.86 104.741 81.316C104.297 81.772 103.685 82 102.905 82H98.459C98.339 82 98.279 81.928 98.279 81.784ZM114.221 82H110.459C109.679 82 109.061 81.772 108.605 81.316C108.161 80.86 107.939 80.236 107.939 79.444V75.376C107.939 74.584 108.161 73.96 108.605 73.504C109.061 73.048 109.679 72.82 110.459 72.82H112.007C112.787 72.82 113.405 73.048 113.861 73.504C114.317 73.96 114.545 74.584 114.545 75.376V77.662C114.545 77.806 114.473 77.878 114.329 77.878H109.001C108.893 77.878 108.839 77.932 108.839 78.04V79.426C108.839 79.99 108.983 80.428 109.271 80.74C109.559 81.04 109.979 81.19 110.531 81.19H114.221C114.353 81.19 114.419 81.256 114.419 81.388V81.802C114.419 81.934 114.353 82 114.221 82ZM109.001 77.158H113.483C113.591 77.158 113.645 77.104 113.645 76.996V75.394C113.645 74.83 113.501 74.398 113.213 74.098C112.925 73.786 112.505 73.63 111.953 73.63H110.531C109.979 73.63 109.559 73.786 109.271 74.098C108.983 74.398 108.839 74.83 108.839 75.394V76.996C108.839 77.104 108.893 77.158 109.001 77.158ZM119.948 82H116.816C116.684 82 116.618 81.934 116.618 81.802V81.388C116.618 81.268 116.684 81.208 116.816 81.208H119.858C120.938 81.208 121.478 80.788 121.478 79.948V79.516C121.478 78.736 121.142 78.226 120.47 77.986L118.22 77.122C117.608 76.882 117.17 76.6 116.906 76.276C116.654 75.952 116.528 75.502 116.528 74.926C116.528 73.522 117.302 72.82 118.85 72.82H121.766C121.898 72.82 121.964 72.886 121.964 73.018V73.432C121.964 73.552 121.898 73.612 121.766 73.612H118.94C118.448 73.612 118.076 73.72 117.824 73.936C117.584 74.152 117.464 74.404 117.464 74.692V75.106C117.464 75.442 117.554 75.706 117.734 75.898C117.926 76.09 118.214 76.252 118.598 76.384L120.848 77.284C121.472 77.488 121.886 77.794 122.09 78.202C122.306 78.598 122.414 79.156 122.414 79.876C122.414 80.596 122.21 81.13 121.802 81.478C121.406 81.826 120.788 82 119.948 82ZM124.82 71.308V69.58C124.82 69.448 124.88 69.382 125 69.382H125.54C125.66 69.382 125.72 69.448 125.72 69.58V71.308C125.72 71.452 125.66 71.524 125.54 71.524H125C124.88 71.524 124.82 71.452 124.82 71.308ZM124.82 81.784V73.036C124.82 72.892 124.88 72.82 125 72.82H125.522C125.654 72.82 125.72 72.892 125.72 73.036V81.784C125.72 81.928 125.66 82 125.54 82H125C124.88 82 124.82 81.928 124.82 81.784ZM132.073 81.478H130.903C130.135 81.478 129.523 81.25 129.067 80.794C128.623 80.338 128.401 79.72 128.401 78.94V75.376C128.401 74.584 128.623 73.96 129.067 73.504C129.523 73.048 130.141 72.82 130.921 72.82H134.737C134.869 72.82 134.935 72.892 134.935 73.036V81.964C134.935 82.756 134.707 83.38 134.251 83.836C133.795 84.292 133.177 84.52 132.397 84.52H129.121C128.989 84.52 128.923 84.454 128.923 84.322V83.89C128.923 83.77 128.989 83.71 129.121 83.71H132.325C132.877 83.71 133.297 83.554 133.585 83.242C133.873 82.942 134.017 82.504 134.017 81.928V80.542H133.945C133.645 81.166 133.021 81.478 132.073 81.478ZM134.017 78.904V73.792C134.017 73.684 133.963 73.63 133.855 73.63H131.011C130.459 73.63 130.033 73.786 129.733 74.098C129.445 74.398 129.301 74.836 129.301 75.412V78.904C129.301 79.468 129.445 79.906 129.733 80.218C130.033 80.518 130.459 80.668 131.011 80.668H132.163C132.739 80.668 133.189 80.518 133.513 80.218C133.849 79.906 134.017 79.468 134.017 78.904ZM138.317 82H137.795C137.675 82 137.615 81.928 137.615 81.784V73.036C137.615 72.892 137.675 72.82 137.795 72.82H138.317C138.449 72.82 138.515 72.892 138.515 73.036V73.756H138.587C138.923 73.132 139.547 72.82 140.459 72.82H141.647C142.415 72.82 143.021 73.048 143.465 73.504C143.909 73.96 144.131 74.584 144.131 75.376V81.784C144.131 81.928 144.071 82 143.951 82H143.429C143.297 82 143.231 81.928 143.231 81.784V75.412C143.231 74.848 143.087 74.41 142.799 74.098C142.511 73.786 142.091 73.63 141.539 73.63H140.369C139.793 73.63 139.337 73.786 139.001 74.098C138.677 74.398 138.515 74.83 138.515 75.394V81.784C138.515 81.928 138.449 82 138.317 82ZM152.84 82H149.078C148.298 82 147.68 81.772 147.224 81.316C146.78 80.86 146.558 80.236 146.558 79.444V75.376C146.558 74.584 146.78 73.96 147.224 73.504C147.68 73.048 148.298 72.82 149.078 72.82H150.626C151.406 72.82 152.024 73.048 152.48 73.504C152.936 73.96 153.164 74.584 153.164 75.376V77.662C153.164 77.806 153.092 77.878 152.948 77.878H147.62C147.512 77.878 147.458 77.932 147.458 78.04V79.426C147.458 79.99 147.602 80.428 147.89 80.74C148.178 81.04 148.598 81.19 149.15 81.19H152.84C152.972 81.19 153.038 81.256 153.038 81.388V81.802C153.038 81.934 152.972 82 152.84 82ZM147.62 77.158H152.102C152.21 77.158 152.264 77.104 152.264 76.996V75.394C152.264 74.83 152.12 74.398 151.832 74.098C151.544 73.786 151.124 73.63 150.572 73.63H149.15C148.598 73.63 148.178 73.786 147.89 74.098C147.602 74.398 147.458 74.83 147.458 75.394V76.996C147.458 77.104 147.512 77.158 147.62 77.158ZM156.299 82H155.777C155.657 82 155.597 81.928 155.597 81.784V73.036C155.597 72.892 155.657 72.82 155.777 72.82H156.299C156.431 72.82 156.497 72.892 156.497 73.036V73.792H156.569C156.701 73.54 156.935 73.318 157.271 73.126C157.607 72.922 158.021 72.82 158.513 72.82H159.215C159.347 72.82 159.413 72.886 159.413 73.018V73.45C159.413 73.582 159.347 73.642 159.215 73.63H158.369C157.781 73.63 157.319 73.81 156.983 74.17C156.659 74.53 156.497 75.016 156.497 75.628V81.784C156.497 81.928 156.431 82 156.299 82ZM164.21 82H161.078C160.946 82 160.88 81.934 160.88 81.802V81.388C160.88 81.268 160.946 81.208 161.078 81.208H164.12C165.2 81.208 165.74 80.788 165.74 79.948V79.516C165.74 78.736 165.404 78.226 164.732 77.986L162.482 77.122C161.87 76.882 161.432 76.6 161.168 76.276C160.916 75.952 160.79 75.502 160.79 74.926C160.79 73.522 161.564 72.82 163.112 72.82H166.028C166.16 72.82 166.226 72.886 166.226 73.018V73.432C166.226 73.552 166.16 73.612 166.028 73.612H163.202C162.71 73.612 162.338 73.72 162.086 73.936C161.846 74.152 161.726 74.404 161.726 74.692V75.106C161.726 75.442 161.816 75.706 161.996 75.898C162.188 76.09 162.476 76.252 162.86 76.384L165.11 77.284C165.734 77.488 166.148 77.794 166.352 78.202C166.568 78.598 166.676 79.156 166.676 79.876C166.676 80.596 166.472 81.13 166.064 81.478C165.668 81.826 165.05 82 164.21 82ZM27.6051 104.19H31.0611C31.6131 104.19 32.0331 104.04 32.3211 103.74C32.6211 103.428 32.7711 102.984 32.7711 102.408V96.018C32.7711 95.442 32.6211 95.004 32.3211 94.704C32.0331 94.392 31.6131 94.236 31.0611 94.236H27.6051C27.4851 94.236 27.4251 94.29 27.4251 94.398V104.028C27.4251 104.136 27.4851 104.19 27.6051 104.19ZM26.5251 104.784V93.642C26.5251 93.498 26.5851 93.426 26.7051 93.426H31.1511C31.9311 93.426 32.5431 93.654 32.9871 94.11C33.4431 94.566 33.6711 95.19 33.6711 95.982V102.444C33.6711 103.236 33.4431 103.86 32.9871 104.316C32.5431 104.772 31.9311 105 31.1511 105H26.7051C26.5851 105 26.5251 104.928 26.5251 104.784ZM36.4546 94.308V92.58C36.4546 92.448 36.5146 92.382 36.6346 92.382H37.1746C37.2946 92.382 37.3546 92.448 37.3546 92.58V94.308C37.3546 94.452 37.2946 94.524 37.1746 94.524H36.6346C36.5146 94.524 36.4546 94.452 36.4546 94.308ZM36.4546 104.784V96.036C36.4546 95.892 36.5146 95.82 36.6346 95.82H37.1566C37.2886 95.82 37.3546 95.892 37.3546 96.036V104.784C37.3546 104.928 37.2946 105 37.1746 105H36.6346C36.5146 105 36.4546 104.928 36.4546 104.784ZM43.7079 104.478H42.5379C41.7699 104.478 41.1579 104.25 40.7019 103.794C40.2579 103.338 40.0359 102.72 40.0359 101.94V98.376C40.0359 97.584 40.2579 96.96 40.7019 96.504C41.1579 96.048 41.7759 95.82 42.5559 95.82H46.3719C46.5039 95.82 46.5699 95.892 46.5699 96.036V104.964C46.5699 105.756 46.3419 106.38 45.8859 106.836C45.4299 107.292 44.8119 107.52 44.0319 107.52H40.7559C40.6239 107.52 40.5579 107.454 40.5579 107.322V106.89C40.5579 106.77 40.6239 106.71 40.7559 106.71H43.9599C44.5119 106.71 44.9319 106.554 45.2199 106.242C45.5079 105.942 45.6519 105.504 45.6519 104.928V103.542H45.5799C45.2799 104.166 44.6559 104.478 43.7079 104.478ZM45.6519 101.904V96.792C45.6519 96.684 45.5979 96.63 45.4899 96.63H42.6459C42.0939 96.63 41.6679 96.786 41.3679 97.098C41.0799 97.398 40.9359 97.836 40.9359 98.412V101.904C40.9359 102.468 41.0799 102.906 41.3679 103.218C41.6679 103.518 42.0939 103.668 42.6459 103.668H43.7979C44.3739 103.668 44.8239 103.518 45.1479 103.218C45.4839 102.906 45.6519 102.468 45.6519 101.904ZM49.3394 94.308V92.58C49.3394 92.448 49.3994 92.382 49.5194 92.382H50.0594C50.1794 92.382 50.2394 92.448 50.2394 92.58V94.308C50.2394 94.452 50.1794 94.524 50.0594 94.524H49.5194C49.3994 94.524 49.3394 94.452 49.3394 94.308ZM49.3394 104.784V96.036C49.3394 95.892 49.3994 95.82 49.5194 95.82H50.0414C50.1734 95.82 50.2394 95.892 50.2394 96.036V104.784C50.2394 104.928 50.1794 105 50.0594 105H49.5194C49.3994 105 49.3394 104.928 49.3394 104.784ZM53.4247 96.63H52.3267C52.1947 96.63 52.1287 96.57 52.1287 96.45V96.018C52.1287 95.886 52.1947 95.82 52.3267 95.82H53.4247C53.5327 95.82 53.5867 95.766 53.5867 95.658V94.2C53.5867 94.056 53.6527 93.984 53.7847 93.984H54.3067C54.4387 93.984 54.5047 94.056 54.5047 94.2V95.658C54.5047 95.766 54.5587 95.82 54.6667 95.82H56.8087C56.9407 95.82 57.0067 95.886 57.0067 96.018V96.45C57.0067 96.57 56.9407 96.63 56.8087 96.63H54.6667C54.5587 96.63 54.5047 96.684 54.5047 96.792V102.462C54.5047 103.014 54.6607 103.44 54.9727 103.74C55.2847 104.04 55.7227 104.19 56.2867 104.19H56.9887C57.1207 104.19 57.1867 104.256 57.1867 104.388V104.802C57.1867 104.934 57.1207 105 56.9887 105H56.2147C55.4227 105 54.7867 104.778 54.3067 104.334C53.8267 103.89 53.5867 103.278 53.5867 102.498V96.792C53.5867 96.684 53.5327 96.63 53.4247 96.63ZM62.7609 105H61.6089C60.8289 105 60.2109 104.772 59.7549 104.316C59.3109 103.86 59.0889 103.236 59.0889 102.444V98.376C59.0889 97.584 59.3109 96.96 59.7549 96.504C60.2109 96.048 60.8289 95.82 61.6089 95.82H65.4249C65.5449 95.82 65.6049 95.892 65.6049 96.036V104.784C65.6049 104.928 65.5449 105 65.4249 105H64.9029C64.7709 105 64.7049 104.928 64.7049 104.784V104.064H64.6329C64.3209 104.688 63.6969 105 62.7609 105ZM64.7049 102.426V96.792C64.7049 96.684 64.6449 96.63 64.5249 96.63H61.6809C61.1289 96.63 60.7089 96.786 60.4209 97.098C60.1329 97.41 59.9889 97.848 59.9889 98.412V102.408C59.9889 102.972 60.1329 103.41 60.4209 103.722C60.7089 104.034 61.1289 104.19 61.6809 104.19H62.8509C63.4269 104.19 63.8769 104.04 64.2009 103.74C64.5369 103.428 64.7049 102.99 64.7049 102.426ZM69.0961 105H68.5741C68.4541 105 68.3941 104.928 68.3941 104.784V92.562C68.3941 92.418 68.4541 92.346 68.5741 92.346H69.0961C69.2281 92.346 69.2941 92.418 69.2941 92.562V104.784C69.2941 104.928 69.2281 105 69.0961 105ZM77.7642 105H77.2422C77.1222 105 77.0622 104.928 77.0622 104.784V93.642C77.0622 93.498 77.1222 93.426 77.2422 93.426H82.7862C82.9302 93.426 83.0022 93.492 83.0022 93.624V94.038C83.0022 94.17 82.9302 94.236 82.7862 94.236H78.1422C78.0222 94.236 77.9622 94.29 77.9622 94.398V98.772C77.9622 98.868 78.0222 98.916 78.1422 98.916H82.3002C82.4322 98.916 82.4982 98.982 82.4982 99.114V99.546C82.4982 99.678 82.4322 99.744 82.3002 99.744H78.1422C78.0222 99.744 77.9622 99.792 77.9622 99.888V104.784C77.9622 104.928 77.8962 105 77.7642 105ZM88.6359 105H87.4839C86.7039 105 86.0859 104.772 85.6299 104.316C85.1859 103.86 84.9639 103.236 84.9639 102.444V98.376C84.9639 97.584 85.1859 96.96 85.6299 96.504C86.0859 96.048 86.7039 95.82 87.4839 95.82H91.2999C91.4199 95.82 91.4799 95.892 91.4799 96.036V104.784C91.4799 104.928 91.4199 105 91.2999 105H90.7779C90.6459 105 90.5799 104.928 90.5799 104.784V104.064H90.5079C90.1959 104.688 89.5719 105 88.6359 105ZM90.5799 102.426V96.792C90.5799 96.684 90.5199 96.63 90.3999 96.63H87.5559C87.0039 96.63 86.5839 96.786 86.2959 97.098C86.0079 97.41 85.8639 97.848 85.8639 98.412V102.408C85.8639 102.972 86.0079 103.41 86.2959 103.722C86.5839 104.034 87.0039 104.19 87.5559 104.19H88.7259C89.3019 104.19 89.7519 104.04 90.0759 103.74C90.4119 103.428 90.5799 102.99 90.5799 102.426ZM95.2591 104.19H98.1211C98.6731 104.19 99.0931 104.04 99.3811 103.74C99.6811 103.428 99.8311 102.984 99.8311 102.408V98.25C99.8311 97.686 99.6811 97.254 99.3811 96.954C99.0931 96.642 98.6731 96.486 98.1211 96.486H96.9331C96.3571 96.486 95.9011 96.642 95.5651 96.954C95.2411 97.254 95.0791 97.686 95.0791 98.25V104.028C95.0791 104.136 95.1391 104.19 95.2591 104.19ZM94.1791 104.784V92.562C94.1791 92.418 94.2391 92.346 94.3591 92.346H94.8811C95.0131 92.346 95.0791 92.418 95.0791 92.562V96.612H95.1511C95.4871 95.988 96.1111 95.676 97.0231 95.676H98.2111C98.9911 95.676 99.6031 95.904 100.047 96.36C100.503 96.816 100.731 97.434 100.731 98.214V102.444C100.731 103.236 100.503 103.86 100.047 104.316C99.6031 104.772 98.9911 105 98.2111 105H94.3591C94.2391 105 94.1791 104.928 94.1791 104.784ZM103.951 105H103.429C103.309 105 103.249 104.928 103.249 104.784V96.036C103.249 95.892 103.309 95.82 103.429 95.82H103.951C104.083 95.82 104.149 95.892 104.149 96.036V96.792H104.221C104.353 96.54 104.587 96.318 104.923 96.126C105.259 95.922 105.673 95.82 106.165 95.82H106.867C106.999 95.82 107.065 95.886 107.065 96.018V96.45C107.065 96.582 106.999 96.642 106.867 96.63H106.021C105.433 96.63 104.971 96.81 104.635 97.17C104.311 97.53 104.149 98.016 104.149 98.628V104.784C104.149 104.928 104.083 105 103.951 105ZM108.982 94.308V92.58C108.982 92.448 109.042 92.382 109.162 92.382H109.702C109.822 92.382 109.882 92.448 109.882 92.58V94.308C109.882 94.452 109.822 94.524 109.702 94.524H109.162C109.042 94.524 108.982 94.452 108.982 94.308ZM108.982 104.784V96.036C108.982 95.892 109.042 95.82 109.162 95.82H109.684C109.816 95.82 109.882 95.892 109.882 96.036V104.784C109.882 104.928 109.822 105 109.702 105H109.162C109.042 105 108.982 104.928 108.982 104.784ZM117.801 104.388V104.802C117.801 104.934 117.735 105 117.603 105H115.011C114.231 105 113.613 104.772 113.157 104.316C112.713 103.86 112.491 103.236 112.491 102.444V98.376C112.491 97.584 112.713 96.96 113.157 96.504C113.613 96.048 114.231 95.82 115.011 95.82H117.603C117.735 95.82 117.801 95.886 117.801 96.018V96.45C117.801 96.57 117.735 96.63 117.603 96.63H115.083C114.531 96.63 114.111 96.786 113.823 97.098C113.535 97.41 113.391 97.848 113.391 98.412V102.408C113.391 102.972 113.535 103.41 113.823 103.722C114.111 104.034 114.531 104.19 115.083 104.19H117.603C117.735 104.19 117.801 104.256 117.801 104.388ZM123.247 105H122.095C121.315 105 120.697 104.772 120.241 104.316C119.797 103.86 119.575 103.236 119.575 102.444V98.376C119.575 97.584 119.797 96.96 120.241 96.504C120.697 96.048 121.315 95.82 122.095 95.82H125.911C126.031 95.82 126.091 95.892 126.091 96.036V104.784C126.091 104.928 126.031 105 125.911 105H125.389C125.257 105 125.191 104.928 125.191 104.784V104.064H125.119C124.807 104.688 124.183 105 123.247 105ZM125.191 102.426V96.792C125.191 96.684 125.131 96.63 125.011 96.63H122.167C121.615 96.63 121.195 96.786 120.907 97.098C120.619 97.41 120.475 97.848 120.475 98.412V102.408C120.475 102.972 120.619 103.41 120.907 103.722C121.195 104.034 121.615 104.19 122.167 104.19H123.337C123.913 104.19 124.363 104.04 124.687 103.74C125.023 103.428 125.191 102.99 125.191 102.426ZM129.186 96.63H128.088C127.956 96.63 127.89 96.57 127.89 96.45V96.018C127.89 95.886 127.956 95.82 128.088 95.82H129.186C129.294 95.82 129.348 95.766 129.348 95.658V94.2C129.348 94.056 129.414 93.984 129.546 93.984H130.068C130.2 93.984 130.266 94.056 130.266 94.2V95.658C130.266 95.766 130.32 95.82 130.428 95.82H132.57C132.702 95.82 132.768 95.886 132.768 96.018V96.45C132.768 96.57 132.702 96.63 132.57 96.63H130.428C130.32 96.63 130.266 96.684 130.266 96.792V102.462C130.266 103.014 130.422 103.44 130.734 103.74C131.046 104.04 131.484 104.19 132.048 104.19H132.75C132.882 104.19 132.948 104.256 132.948 104.388V104.802C132.948 104.934 132.882 105 132.75 105H131.976C131.184 105 130.548 104.778 130.068 104.334C129.588 103.89 129.348 103.278 129.348 102.498V96.792C129.348 96.684 129.294 96.63 129.186 96.63ZM138.919 105H137.371C136.591 105 135.973 104.772 135.517 104.316C135.073 103.86 134.851 103.236 134.851 102.444V98.376C134.851 97.584 135.073 96.96 135.517 96.504C135.973 96.048 136.591 95.82 137.371 95.82H138.919C139.699 95.82 140.317 96.048 140.773 96.504C141.229 96.96 141.457 97.584 141.457 98.376V102.444C141.457 103.236 141.229 103.86 140.773 104.316C140.317 104.772 139.699 105 138.919 105ZM137.443 104.19H138.847C139.399 104.19 139.819 104.04 140.107 103.74C140.407 103.428 140.557 102.99 140.557 102.426V98.394C140.557 97.83 140.407 97.398 140.107 97.098C139.819 96.786 139.399 96.63 138.847 96.63H137.443C136.891 96.63 136.471 96.786 136.183 97.098C135.895 97.398 135.751 97.83 135.751 98.394V102.426C135.751 102.99 135.895 103.428 136.183 103.74C136.471 104.04 136.891 104.19 137.443 104.19ZM144.662 105H144.14C144.02 105 143.96 104.928 143.96 104.784V96.036C143.96 95.892 144.02 95.82 144.14 95.82H144.662C144.794 95.82 144.86 95.892 144.86 96.036V96.792H144.932C145.064 96.54 145.298 96.318 145.634 96.126C145.97 95.922 146.384 95.82 146.876 95.82H147.578C147.71 95.82 147.776 95.886 147.776 96.018V96.45C147.776 96.582 147.71 96.642 147.578 96.63H146.732C146.144 96.63 145.682 96.81 145.346 97.17C145.022 97.53 144.86 98.016 144.86 98.628V104.784C144.86 104.928 144.794 105 144.662 105ZM152.573 105H149.441C149.309 105 149.243 104.934 149.243 104.802V104.388C149.243 104.268 149.309 104.208 149.441 104.208H152.483C153.563 104.208 154.103 103.788 154.103 102.948V102.516C154.103 101.736 153.767 101.226 153.095 100.986L150.845 100.122C150.233 99.882 149.795 99.6 149.531 99.276C149.279 98.952 149.153 98.502 149.153 97.926C149.153 96.522 149.927 95.82 151.475 95.82H154.391C154.523 95.82 154.589 95.886 154.589 96.018V96.432C154.589 96.552 154.523 96.612 154.391 96.612H151.565C151.073 96.612 150.701 96.72 150.449 96.936C150.209 97.152 150.089 97.404 150.089 97.692V98.106C150.089 98.442 150.179 98.706 150.359 98.898C150.551 99.09 150.839 99.252 151.223 99.384L153.473 100.284C154.097 100.488 154.511 100.794 154.715 101.202C154.931 101.598 155.039 102.156 155.039 102.876C155.039 103.596 154.835 104.13 154.427 104.478C154.031 104.826 153.413 105 152.573 105ZM13.6508 128H13.0928C12.9608 128 12.9188 127.928 12.9668 127.784L16.5488 116.642C16.5848 116.498 16.6688 116.426 16.8008 116.426H17.6468C17.7668 116.426 17.8508 116.498 17.8988 116.642L21.4808 127.784C21.5168 127.928 21.4748 128 21.3548 128H20.7788C20.6588 128 20.5808 127.928 20.5448 127.784L19.5728 124.904H14.8568L13.8848 127.784C13.8368 127.928 13.7588 128 13.6508 128ZM17.1788 117.416L15.1088 124.094H19.3388L17.2508 117.416H17.1788ZM26.3444 128H23.2124C23.0804 128 23.0144 127.934 23.0144 127.802V127.388C23.0144 127.268 23.0804 127.208 23.2124 127.208H26.2544C27.3344 127.208 27.8744 126.788 27.8744 125.948V125.516C27.8744 124.736 27.5384 124.226 26.8664 123.986L24.6164 123.122C24.0044 122.882 23.5664 122.6 23.3024 122.276C23.0504 121.952 22.9244 121.502 22.9244 120.926C22.9244 119.522 23.6984 118.82 25.2464 118.82H28.1624C28.2944 118.82 28.3604 118.886 28.3604 119.018V119.432C28.3604 119.552 28.2944 119.612 28.1624 119.612H25.3364C24.8444 119.612 24.4724 119.72 24.2204 119.936C23.9804 120.152 23.8604 120.404 23.8604 120.692V121.106C23.8604 121.442 23.9504 121.706 24.1304 121.898C24.3224 122.09 24.6104 122.252 24.9944 122.384L27.2444 123.284C27.8684 123.488 28.2824 123.794 28.4864 124.202C28.7024 124.598 28.8104 125.156 28.8104 125.876C28.8104 126.596 28.6064 127.13 28.1984 127.478C27.8024 127.826 27.1844 128 26.3444 128ZM34.0964 128H30.9644C30.8324 128 30.7664 127.934 30.7664 127.802V127.388C30.7664 127.268 30.8324 127.208 30.9644 127.208H34.0064C35.0864 127.208 35.6264 126.788 35.6264 125.948V125.516C35.6264 124.736 35.2904 124.226 34.6184 123.986L32.3684 123.122C31.7564 122.882 31.3184 122.6 31.0544 122.276C30.8024 121.952 30.6764 121.502 30.6764 120.926C30.6764 119.522 31.4504 118.82 32.9984 118.82H35.9144C36.0464 118.82 36.1124 118.886 36.1124 119.018V119.432C36.1124 119.552 36.0464 119.612 35.9144 119.612H33.0884C32.5964 119.612 32.2244 119.72 31.9724 119.936C31.7324 120.152 31.6124 120.404 31.6124 120.692V121.106C31.6124 121.442 31.7024 121.706 31.8824 121.898C32.0744 122.09 32.3624 122.252 32.7464 122.384L34.9964 123.284C35.6204 123.488 36.0344 123.794 36.2384 124.202C36.4544 124.598 36.5624 125.156 36.5624 125.876C36.5624 126.596 36.3584 127.13 35.9504 127.478C35.5544 127.826 34.9364 128 34.0964 128ZM44.9803 128H41.2183C40.4383 128 39.8203 127.772 39.3643 127.316C38.9203 126.86 38.6983 126.236 38.6983 125.444V121.376C38.6983 120.584 38.9203 119.96 39.3643 119.504C39.8203 119.048 40.4383 118.82 41.2183 118.82H42.7663C43.5463 118.82 44.1643 119.048 44.6203 119.504C45.0763 119.96 45.3043 120.584 45.3043 121.376V123.662C45.3043 123.806 45.2323 123.878 45.0883 123.878H39.7603C39.6523 123.878 39.5983 123.932 39.5983 124.04V125.426C39.5983 125.99 39.7423 126.428 40.0303 126.74C40.3183 127.04 40.7383 127.19 41.2903 127.19H44.9803C45.1123 127.19 45.1783 127.256 45.1783 127.388V127.802C45.1783 127.934 45.1123 128 44.9803 128ZM39.7603 123.158H44.2423C44.3503 123.158 44.4043 123.104 44.4043 122.996V121.394C44.4043 120.83 44.2603 120.398 43.9723 120.098C43.6843 119.786 43.2643 119.63 42.7123 119.63H41.2903C40.7383 119.63 40.3183 119.786 40.0303 120.098C39.7423 120.398 39.5983 120.83 39.5983 121.394V122.996C39.5983 123.104 39.6523 123.158 39.7603 123.158ZM48.4397 128H47.9177C47.7977 128 47.7377 127.928 47.7377 127.784V119.036C47.7377 118.892 47.7977 118.82 47.9177 118.82H48.4397C48.5717 118.82 48.6377 118.892 48.6377 119.036V119.756H48.7097C49.0577 119.132 49.6937 118.82 50.6177 118.82H51.3557C52.4117 118.82 53.1437 119.24 53.5517 120.08C53.7317 119.66 54.0377 119.348 54.4697 119.144C54.9017 118.928 55.3457 118.82 55.8017 118.82H56.4677C57.2477 118.82 57.8597 119.048 58.3037 119.504C58.7477 119.96 58.9697 120.584 58.9697 121.376V127.784C58.9697 127.928 58.9037 128 58.7717 128H58.2497C58.1177 128 58.0517 127.928 58.0517 127.784V121.412C58.0517 120.836 57.9077 120.398 57.6197 120.098C57.3317 119.786 56.9117 119.63 56.3597 119.63H55.6937C55.1177 119.63 54.6617 119.798 54.3257 120.134C53.9897 120.458 53.8217 120.902 53.8217 121.466V127.784C53.8217 127.928 53.7557 128 53.6237 128H53.1017C52.9697 128 52.9037 127.928 52.9037 127.784V121.412C52.9037 120.836 52.7597 120.398 52.4717 120.098C52.1837 119.786 51.7637 119.63 51.2117 119.63H50.4917C49.9157 119.63 49.4597 119.786 49.1237 120.098C48.7997 120.398 48.6377 120.83 48.6377 121.394V127.784C48.6377 127.928 48.5717 128 48.4397 128ZM62.6517 127.19H65.5137C66.0657 127.19 66.4857 127.04 66.7737 126.74C67.0737 126.428 67.2237 125.984 67.2237 125.408V121.25C67.2237 120.686 67.0737 120.254 66.7737 119.954C66.4857 119.642 66.0657 119.486 65.5137 119.486H64.3257C63.7497 119.486 63.2937 119.642 62.9577 119.954C62.6337 120.254 62.4717 120.686 62.4717 121.25V127.028C62.4717 127.136 62.5317 127.19 62.6517 127.19ZM61.5717 127.784V115.562C61.5717 115.418 61.6317 115.346 61.7517 115.346H62.2737C62.4057 115.346 62.4717 115.418 62.4717 115.562V119.612H62.5437C62.8797 118.988 63.5037 118.676 64.4157 118.676H65.6037C66.3837 118.676 66.9957 118.904 67.4397 119.36C67.8957 119.816 68.1237 120.434 68.1237 121.214V125.444C68.1237 126.236 67.8957 126.86 67.4397 127.316C66.9957 127.772 66.3837 128 65.6037 128H61.7517C61.6317 128 61.5717 127.928 61.5717 127.784ZM71.434 128H70.912C70.792 128 70.732 127.928 70.732 127.784V115.562C70.732 115.418 70.792 115.346 70.912 115.346H71.434C71.566 115.346 71.632 115.418 71.632 115.562V127.784C71.632 127.928 71.566 128 71.434 128ZM80.5233 128H76.7613C75.9813 128 75.3633 127.772 74.9073 127.316C74.4633 126.86 74.2413 126.236 74.2413 125.444V121.376C74.2413 120.584 74.4633 119.96 74.9073 119.504C75.3633 119.048 75.9813 118.82 76.7613 118.82H78.3093C79.0893 118.82 79.7073 119.048 80.1633 119.504C80.6193 119.96 80.8473 120.584 80.8473 121.376V123.662C80.8473 123.806 80.7753 123.878 80.6313 123.878H75.3033C75.1953 123.878 75.1413 123.932 75.1413 124.04V125.426C75.1413 125.99 75.2853 126.428 75.5733 126.74C75.8613 127.04 76.2813 127.19 76.8333 127.19H80.5233C80.6553 127.19 80.7213 127.256 80.7213 127.388V127.802C80.7213 127.934 80.6553 128 80.5233 128ZM75.3033 123.158H79.7853C79.8933 123.158 79.9473 123.104 79.9473 122.996V121.394C79.9473 120.83 79.8033 120.398 79.5153 120.098C79.2273 119.786 78.8073 119.63 78.2553 119.63H76.8333C76.2813 119.63 75.8613 119.786 75.5733 120.098C75.2853 120.398 75.1413 120.83 75.1413 121.394V122.996C75.1413 123.104 75.1953 123.158 75.3033 123.158ZM83.9827 128H83.4607C83.3407 128 83.2807 127.928 83.2807 127.784V119.036C83.2807 118.892 83.3407 118.82 83.4607 118.82H83.9827C84.1147 118.82 84.1807 118.892 84.1807 119.036V119.792H84.2527C84.3847 119.54 84.6187 119.318 84.9547 119.126C85.2907 118.922 85.7047 118.82 86.1967 118.82H86.8987C87.0307 118.82 87.0967 118.886 87.0967 119.018V119.45C87.0967 119.582 87.0307 119.642 86.8987 119.63H86.0527C85.4647 119.63 85.0027 119.81 84.6667 120.17C84.3427 120.53 84.1807 121.016 84.1807 121.628V127.784C84.1807 127.928 84.1147 128 83.9827 128ZM91.8932 128H88.7612C88.6292 128 88.5632 127.934 88.5632 127.802V127.388C88.5632 127.268 88.6292 127.208 88.7612 127.208H91.8032C92.8832 127.208 93.4232 126.788 93.4232 125.948V125.516C93.4232 124.736 93.0872 124.226 92.4152 123.986L90.1652 123.122C89.5532 122.882 89.1152 122.6 88.8512 122.276C88.5992 121.952 88.4732 121.502 88.4732 120.926C88.4732 119.522 89.2472 118.82 90.7952 118.82H93.7112C93.8432 118.82 93.9092 118.886 93.9092 119.018V119.432C93.9092 119.552 93.8432 119.612 93.7112 119.612H90.8852C90.3932 119.612 90.0212 119.72 89.7692 119.936C89.5292 120.152 89.4092 120.404 89.4092 120.692V121.106C89.4092 121.442 89.4992 121.706 89.6792 121.898C89.8712 122.09 90.1592 122.252 90.5432 122.384L92.7932 123.284C93.4172 123.488 93.8312 123.794 94.0352 124.202C94.2512 124.598 94.3592 125.156 94.3592 125.876C94.3592 126.596 94.1552 127.13 93.7472 127.478C93.3512 127.826 92.7332 128 91.8932 128ZM97.1072 128H96.6212C96.4412 128 96.3812 127.928 96.4412 127.784C96.5012 127.64 97.1552 125.81 98.4032 122.294C99.6512 118.778 100.323 116.9 100.419 116.66C100.467 116.504 100.563 116.426 100.707 116.426H101.193C101.349 116.426 101.397 116.516 101.337 116.696L97.3952 127.766C97.3352 127.922 97.2392 128 97.1072 128ZM104.982 116.642V127.784C104.982 127.928 104.916 128 104.784 128H104.262C104.142 128 104.082 127.928 104.082 127.784V116.642C104.082 116.498 104.142 116.426 104.262 116.426H104.784C104.916 116.426 104.982 116.498 104.982 116.642ZM108.662 128H108.14C108.02 128 107.96 127.928 107.96 127.784V119.036C107.96 118.892 108.02 118.82 108.14 118.82H108.662C108.794 118.82 108.86 118.892 108.86 119.036V119.756H108.932C109.268 119.132 109.892 118.82 110.804 118.82H111.992C112.76 118.82 113.366 119.048 113.81 119.504C114.254 119.96 114.476 120.584 114.476 121.376V127.784C114.476 127.928 114.416 128 114.296 128H113.774C113.642 128 113.576 127.928 113.576 127.784V121.412C113.576 120.848 113.432 120.41 113.144 120.098C112.856 119.786 112.436 119.63 111.884 119.63H110.714C110.138 119.63 109.682 119.786 109.346 120.098C109.022 120.398 108.86 120.83 108.86 121.394V127.784C108.86 127.928 108.794 128 108.662 128ZM120.053 128H116.921C116.789 128 116.723 127.934 116.723 127.802V127.388C116.723 127.268 116.789 127.208 116.921 127.208H119.963C121.043 127.208 121.583 126.788 121.583 125.948V125.516C121.583 124.736 121.247 124.226 120.575 123.986L118.325 123.122C117.713 122.882 117.275 122.6 117.011 122.276C116.759 121.952 116.633 121.502 116.633 120.926C116.633 119.522 117.407 118.82 118.955 118.82H121.871C122.003 118.82 122.069 118.886 122.069 119.018V119.432C122.069 119.552 122.003 119.612 121.871 119.612H119.045C118.553 119.612 118.181 119.72 117.929 119.936C117.689 120.152 117.569 120.404 117.569 120.692V121.106C117.569 121.442 117.659 121.706 117.839 121.898C118.031 122.09 118.319 122.252 118.703 122.384L120.953 123.284C121.577 123.488 121.991 123.794 122.195 124.202C122.411 124.598 122.519 125.156 122.519 125.876C122.519 126.596 122.315 127.13 121.907 127.478C121.511 127.826 120.893 128 120.053 128ZM125.231 119.63H124.133C124.001 119.63 123.935 119.57 123.935 119.45V119.018C123.935 118.886 124.001 118.82 124.133 118.82H125.231C125.339 118.82 125.393 118.766 125.393 118.658V117.2C125.393 117.056 125.459 116.984 125.591 116.984H126.113C126.245 116.984 126.311 117.056 126.311 117.2V118.658C126.311 118.766 126.365 118.82 126.473 118.82H128.615C128.747 118.82 128.813 118.886 128.813 119.018V119.45C128.813 119.57 128.747 119.63 128.615 119.63H126.473C126.365 119.63 126.311 119.684 126.311 119.792V125.462C126.311 126.014 126.467 126.44 126.779 126.74C127.091 127.04 127.529 127.19 128.093 127.19H128.795C128.927 127.19 128.993 127.256 128.993 127.388V127.802C128.993 127.934 128.927 128 128.795 128H128.021C127.229 128 126.593 127.778 126.113 127.334C125.633 126.89 125.393 126.278 125.393 125.498V119.792C125.393 119.684 125.339 119.63 125.231 119.63ZM134.568 128H133.416C132.636 128 132.018 127.772 131.562 127.316C131.118 126.86 130.896 126.236 130.896 125.444V121.376C130.896 120.584 131.118 119.96 131.562 119.504C132.018 119.048 132.636 118.82 133.416 118.82H137.232C137.352 118.82 137.412 118.892 137.412 119.036V127.784C137.412 127.928 137.352 128 137.232 128H136.71C136.578 128 136.512 127.928 136.512 127.784V127.064H136.44C136.128 127.688 135.504 128 134.568 128ZM136.512 125.426V119.792C136.512 119.684 136.452 119.63 136.332 119.63H133.488C132.936 119.63 132.516 119.786 132.228 120.098C131.94 120.41 131.796 120.848 131.796 121.412V125.408C131.796 125.972 131.94 126.41 132.228 126.722C132.516 127.034 132.936 127.19 133.488 127.19H134.658C135.234 127.19 135.684 127.04 136.008 126.74C136.344 126.428 136.512 125.99 136.512 125.426ZM140.903 128H140.381C140.261 128 140.201 127.928 140.201 127.784V115.562C140.201 115.418 140.261 115.346 140.381 115.346H140.903C141.035 115.346 141.101 115.418 141.101 115.562V127.784C141.101 127.928 141.035 128 140.903 128ZM144.682 128H144.16C144.04 128 143.98 127.928 143.98 127.784V115.562C143.98 115.418 144.04 115.346 144.16 115.346H144.682C144.814 115.346 144.88 115.418 144.88 115.562V127.784C144.88 127.928 144.814 128 144.682 128ZM153.771 128H150.009C149.229 128 148.611 127.772 148.155 127.316C147.711 126.86 147.489 126.236 147.489 125.444V121.376C147.489 120.584 147.711 119.96 148.155 119.504C148.611 119.048 149.229 118.82 150.009 118.82H151.557C152.337 118.82 152.955 119.048 153.411 119.504C153.867 119.96 154.095 120.584 154.095 121.376V123.662C154.095 123.806 154.023 123.878 153.879 123.878H148.551C148.443 123.878 148.389 123.932 148.389 124.04V125.426C148.389 125.99 148.533 126.428 148.821 126.74C149.109 127.04 149.529 127.19 150.081 127.19H153.771C153.903 127.19 153.969 127.256 153.969 127.388V127.802C153.969 127.934 153.903 128 153.771 128ZM148.551 123.158H153.033C153.141 123.158 153.195 123.104 153.195 122.996V121.394C153.195 120.83 153.051 120.398 152.763 120.098C152.475 119.786 152.055 119.63 151.503 119.63H150.081C149.529 119.63 149.109 119.786 148.821 120.098C148.533 120.398 148.389 120.83 148.389 121.394V122.996C148.389 123.104 148.443 123.158 148.551 123.158ZM157.231 128H156.709C156.589 128 156.529 127.928 156.529 127.784V119.036C156.529 118.892 156.589 118.82 156.709 118.82H157.231C157.363 118.82 157.429 118.892 157.429 119.036V119.792H157.501C157.633 119.54 157.867 119.318 158.203 119.126C158.539 118.922 158.953 118.82 159.445 118.82H160.147C160.279 118.82 160.345 118.886 160.345 119.018V119.45C160.345 119.582 160.279 119.642 160.147 119.63H159.301C158.713 119.63 158.251 119.81 157.915 120.17C157.591 120.53 157.429 121.016 157.429 121.628V127.784C157.429 127.928 157.363 128 157.231 128ZM165.141 128H162.009C161.877 128 161.811 127.934 161.811 127.802V127.388C161.811 127.268 161.877 127.208 162.009 127.208H165.051C166.131 127.208 166.671 126.788 166.671 125.948V125.516C166.671 124.736 166.335 124.226 165.663 123.986L163.413 123.122C162.801 122.882 162.363 122.6 162.099 122.276C161.847 121.952 161.721 121.502 161.721 120.926C161.721 119.522 162.495 118.82 164.043 118.82H166.959C167.091 118.82 167.157 118.886 167.157 119.018V119.432C167.157 119.552 167.091 119.612 166.959 119.612H164.133C163.641 119.612 163.269 119.72 163.017 119.936C162.777 120.152 162.657 120.404 162.657 120.692V121.106C162.657 121.442 162.747 121.706 162.927 121.898C163.119 122.09 163.407 122.252 163.791 122.384L166.041 123.284C166.665 123.488 167.079 123.794 167.283 124.202C167.499 124.598 167.607 125.156 167.607 125.876C167.607 126.596 167.403 127.13 166.995 127.478C166.599 127.826 165.981 128 165.141 128ZM48.0247 139.426H48.9967C49.1167 139.426 49.1767 139.498 49.1767 139.642V150.784C49.1767 150.928 49.1167 151 48.9967 151H48.4747C48.3427 151 48.2767 150.928 48.2767 150.784V140.812H48.2047L45.0187 148.282C44.9467 148.414 44.8567 148.48 44.7487 148.48H44.1547C44.0347 148.48 43.9507 148.414 43.9027 148.282L40.6627 140.794H40.5907V150.784C40.5907 150.928 40.5307 151 40.4107 151H39.8887C39.7687 151 39.7087 150.928 39.7087 150.784V139.642C39.7087 139.498 39.7687 139.426 39.8887 139.426H40.8607C40.9447 139.426 40.9987 139.462 41.0227 139.534L44.4067 147.436H44.4787L47.8627 139.534C47.8867 139.462 47.9407 139.426 48.0247 139.426ZM55.5539 151H54.4019C53.6219 151 53.0039 150.772 52.5479 150.316C52.1039 149.86 51.8819 149.236 51.8819 148.444V144.376C51.8819 143.584 52.1039 142.96 52.5479 142.504C53.0039 142.048 53.6219 141.82 54.4019 141.82H58.2179C58.3379 141.82 58.3979 141.892 58.3979 142.036V150.784C58.3979 150.928 58.3379 151 58.2179 151H57.6959C57.5639 151 57.4979 150.928 57.4979 150.784V150.064H57.4259C57.1139 150.688 56.4899 151 55.5539 151ZM57.4979 148.426V142.792C57.4979 142.684 57.4379 142.63 57.3179 142.63H54.4739C53.9219 142.63 53.5019 142.786 53.2139 143.098C52.9259 143.41 52.7819 143.848 52.7819 144.412V148.408C52.7819 148.972 52.9259 149.41 53.2139 149.722C53.5019 150.034 53.9219 150.19 54.4739 150.19H55.6439C56.2199 150.19 56.6699 150.04 56.9939 149.74C57.3299 149.428 57.4979 148.99 57.4979 148.426ZM61.7991 151H61.2771C61.1571 151 61.0971 150.928 61.0971 150.784V142.036C61.0971 141.892 61.1571 141.82 61.2771 141.82H61.7991C61.9311 141.82 61.9971 141.892 61.9971 142.036V142.756H62.0691C62.4051 142.132 63.0291 141.82 63.9411 141.82H65.1291C65.8971 141.82 66.5031 142.048 66.9471 142.504C67.3911 142.96 67.6131 143.584 67.6131 144.376V150.784C67.6131 150.928 67.5531 151 67.4331 151H66.9111C66.7791 151 66.7131 150.928 66.7131 150.784V144.412C66.7131 143.848 66.5691 143.41 66.2811 143.098C65.9931 142.786 65.5731 142.63 65.0211 142.63H63.8511C63.2751 142.63 62.8191 142.786 62.4831 143.098C62.1591 143.398 61.9971 143.83 61.9971 144.394V150.784C61.9971 150.928 61.9311 151 61.7991 151ZM73.8021 151H72.6141C71.8461 151 71.2401 150.772 70.7961 150.316C70.3521 149.86 70.1301 149.236 70.1301 148.444V142.036C70.1301 141.892 70.1901 141.82 70.3101 141.82H70.8321C70.9641 141.82 71.0301 141.892 71.0301 142.036V148.408C71.0301 148.972 71.1741 149.41 71.4621 149.722C71.7501 150.034 72.1701 150.19 72.7221 150.19H73.8921C74.4681 150.19 74.9181 150.04 75.2421 149.74C75.5781 149.428 75.7461 148.99 75.7461 148.426V142.036C75.7461 141.892 75.8121 141.82 75.9441 141.82H76.4661C76.5861 141.82 76.6461 141.892 76.6461 142.036V150.784C76.6461 150.928 76.5861 151 76.4661 151H75.9441C75.8121 151 75.7461 150.928 75.7461 150.784V150.064H75.6741C75.3621 150.688 74.7381 151 73.8021 151ZM81.2332 141.82H82.8712C83.0152 141.82 83.0872 141.886 83.0872 142.018V142.432C83.0872 142.564 83.0152 142.63 82.8712 142.63H81.2332C81.1252 142.63 81.0712 142.684 81.0712 142.792V150.784C81.0712 150.928 81.0052 151 80.8732 151H80.3512C80.2192 151 80.1532 150.928 80.1532 150.784V142.792C80.1532 142.684 80.0992 142.63 79.9912 142.63H78.8392C78.7072 142.63 78.6412 142.564 78.6412 142.432V142.018C78.6412 141.886 78.7072 141.82 78.8392 141.82H79.9912C80.0992 141.82 80.1532 141.766 80.1532 141.658V140.866C80.1532 139.186 80.9152 138.346 82.4392 138.346H82.8712C83.0152 138.346 83.0872 138.412 83.0872 138.544V138.958C83.0872 139.09 83.0152 139.156 82.8712 139.156H82.5292C81.9892 139.156 81.6112 139.3 81.3952 139.588C81.1792 139.876 81.0712 140.314 81.0712 140.902V141.658C81.0712 141.766 81.1252 141.82 81.2332 141.82ZM88.2844 151H87.1324C86.3524 151 85.7344 150.772 85.2784 150.316C84.8344 149.86 84.6124 149.236 84.6124 148.444V144.376C84.6124 143.584 84.8344 142.96 85.2784 142.504C85.7344 142.048 86.3524 141.82 87.1324 141.82H90.9484C91.0684 141.82 91.1284 141.892 91.1284 142.036V150.784C91.1284 150.928 91.0684 151 90.9484 151H90.4264C90.2944 151 90.2284 150.928 90.2284 150.784V150.064H90.1564C89.8444 150.688 89.2204 151 88.2844 151ZM90.2284 148.426V142.792C90.2284 142.684 90.1684 142.63 90.0484 142.63H87.2044C86.6524 142.63 86.2324 142.786 85.9444 143.098C85.6564 143.41 85.5124 143.848 85.5124 144.412V148.408C85.5124 148.972 85.6564 149.41 85.9444 149.722C86.2324 150.034 86.6524 150.19 87.2044 150.19H88.3744C88.9504 150.19 89.4004 150.04 89.7244 149.74C90.0604 149.428 90.2284 148.99 90.2284 148.426ZM98.9575 150.388V150.802C98.9575 150.934 98.8915 151 98.7595 151H96.1675C95.3875 151 94.7695 150.772 94.3135 150.316C93.8695 149.86 93.6475 149.236 93.6475 148.444V144.376C93.6475 143.584 93.8695 142.96 94.3135 142.504C94.7695 142.048 95.3875 141.82 96.1675 141.82H98.7595C98.8915 141.82 98.9575 141.886 98.9575 142.018V142.45C98.9575 142.57 98.8915 142.63 98.7595 142.63H96.2395C95.6875 142.63 95.2675 142.786 94.9795 143.098C94.6915 143.41 94.5475 143.848 94.5475 144.412V148.408C94.5475 148.972 94.6915 149.41 94.9795 149.722C95.2675 150.034 95.6875 150.19 96.2395 150.19H98.7595C98.8915 150.19 98.9575 150.256 98.9575 150.388ZM101.308 142.63H100.21C100.078 142.63 100.012 142.57 100.012 142.45V142.018C100.012 141.886 100.078 141.82 100.21 141.82H101.308C101.416 141.82 101.47 141.766 101.47 141.658V140.2C101.47 140.056 101.536 139.984 101.668 139.984H102.19C102.322 139.984 102.388 140.056 102.388 140.2V141.658C102.388 141.766 102.442 141.82 102.55 141.82H104.692C104.824 141.82 104.89 141.886 104.89 142.018V142.45C104.89 142.57 104.824 142.63 104.692 142.63H102.55C102.442 142.63 102.388 142.684 102.388 142.792V148.462C102.388 149.014 102.544 149.44 102.856 149.74C103.168 150.04 103.606 150.19 104.17 150.19H104.872C105.004 150.19 105.07 150.256 105.07 150.388V150.802C105.07 150.934 105.004 151 104.872 151H104.098C103.306 151 102.67 150.778 102.19 150.334C101.71 149.89 101.47 149.278 101.47 148.498V142.792C101.47 142.684 101.416 142.63 101.308 142.63ZM110.734 151H109.546C108.778 151 108.172 150.772 107.728 150.316C107.284 149.86 107.062 149.236 107.062 148.444V142.036C107.062 141.892 107.122 141.82 107.242 141.82H107.764C107.896 141.82 107.962 141.892 107.962 142.036V148.408C107.962 148.972 108.106 149.41 108.394 149.722C108.682 150.034 109.102 150.19 109.654 150.19H110.824C111.4 150.19 111.85 150.04 112.174 149.74C112.51 149.428 112.678 148.99 112.678 148.426V142.036C112.678 141.892 112.744 141.82 112.876 141.82H113.398C113.518 141.82 113.578 141.892 113.578 142.036V150.784C113.578 150.928 113.518 151 113.398 151H112.876C112.744 151 112.678 150.928 112.678 150.784V150.064H112.606C112.294 150.688 111.67 151 110.734 151ZM116.977 151H116.455C116.335 151 116.275 150.928 116.275 150.784V142.036C116.275 141.892 116.335 141.82 116.455 141.82H116.977C117.109 141.82 117.175 141.892 117.175 142.036V142.792H117.247C117.379 142.54 117.613 142.318 117.949 142.126C118.285 141.922 118.699 141.82 119.191 141.82H119.893C120.025 141.82 120.091 141.886 120.091 142.018V142.45C120.091 142.582 120.025 142.642 119.893 142.63H119.047C118.459 142.63 117.997 142.81 117.661 143.17C117.337 143.53 117.175 144.016 117.175 144.628V150.784C117.175 150.928 117.109 151 116.977 151ZM128.019 151H124.257C123.477 151 122.859 150.772 122.403 150.316C121.959 149.86 121.737 149.236 121.737 148.444V144.376C121.737 143.584 121.959 142.96 122.403 142.504C122.859 142.048 123.477 141.82 124.257 141.82H125.805C126.585 141.82 127.203 142.048 127.659 142.504C128.115 142.96 128.343 143.584 128.343 144.376V146.662C128.343 146.806 128.271 146.878 128.127 146.878H122.799C122.691 146.878 122.637 146.932 122.637 147.04V148.426C122.637 148.99 122.781 149.428 123.069 149.74C123.357 150.04 123.777 150.19 124.329 150.19H128.019C128.151 150.19 128.217 150.256 128.217 150.388V150.802C128.217 150.934 128.151 151 128.019 151ZM122.799 146.158H127.281C127.389 146.158 127.443 146.104 127.443 145.996V144.394C127.443 143.83 127.299 143.398 127.011 143.098C126.723 142.786 126.303 142.63 125.751 142.63H124.329C123.777 142.63 123.357 142.786 123.069 143.098C122.781 143.398 122.637 143.83 122.637 144.394V145.996C122.637 146.104 122.691 146.158 122.799 146.158ZM131.479 151H130.957C130.837 151 130.777 150.928 130.777 150.784V142.036C130.777 141.892 130.837 141.82 130.957 141.82H131.479C131.611 141.82 131.677 141.892 131.677 142.036V142.792H131.749C131.881 142.54 132.115 142.318 132.451 142.126C132.787 141.922 133.201 141.82 133.693 141.82H134.395C134.527 141.82 134.593 141.886 134.593 142.018V142.45C134.593 142.582 134.527 142.642 134.395 142.63H133.549C132.961 142.63 132.499 142.81 132.163 143.17C131.839 143.53 131.677 144.016 131.677 144.628V150.784C131.677 150.928 131.611 151 131.479 151ZM139.389 151H136.257C136.125 151 136.059 150.934 136.059 150.802V150.388C136.059 150.268 136.125 150.208 136.257 150.208H139.299C140.379 150.208 140.919 149.788 140.919 148.948V148.516C140.919 147.736 140.583 147.226 139.911 146.986L137.661 146.122C137.049 145.882 136.611 145.6 136.347 145.276C136.095 144.952 135.969 144.502 135.969 143.926C135.969 142.522 136.743 141.82 138.291 141.82H141.207C141.339 141.82 141.405 141.886 141.405 142.018V142.432C141.405 142.552 141.339 142.612 141.207 142.612H138.381C137.889 142.612 137.517 142.72 137.265 142.936C137.025 143.152 136.905 143.404 136.905 143.692V144.106C136.905 144.442 136.995 144.706 137.175 144.898C137.367 145.09 137.655 145.252 138.039 145.384L140.289 146.284C140.913 146.488 141.327 146.794 141.531 147.202C141.747 147.598 141.855 148.156 141.855 148.876C141.855 149.596 141.651 150.13 141.243 150.478C140.847 150.826 140.229 151 139.389 151ZM12.6488 174H12.0908C11.9588 174 11.9168 173.928 11.9648 173.784L15.5468 162.642C15.5828 162.498 15.6668 162.426 15.7988 162.426H16.6448C16.7648 162.426 16.8488 162.498 16.8968 162.642L20.4788 173.784C20.5148 173.928 20.4728 174 20.3528 174H19.7768C19.6568 174 19.5788 173.928 19.5428 173.784L18.5708 170.904H13.8548L12.8828 173.784C12.8348 173.928 12.7568 174 12.6488 174ZM16.1768 163.416L14.1068 170.094H18.3368L16.2488 163.416H16.1768ZM23.5425 162.642V173.784C23.5425 173.928 23.4765 174 23.3445 174H22.8225C22.7025 174 22.6425 173.928 22.6425 173.784V162.642C22.6425 162.498 22.7025 162.426 22.8225 162.426H23.3445C23.4765 162.426 23.5425 162.498 23.5425 162.642ZM32.2017 174H31.6797C31.5597 174 31.4997 173.928 31.4997 173.784V162.642C31.4997 162.498 31.5597 162.426 31.6797 162.426H35.8197C36.5997 162.426 37.2177 162.654 37.6737 163.11C38.1297 163.566 38.3577 164.19 38.3577 164.982V167.088C38.3577 167.88 38.1297 168.504 37.6737 168.96C37.2177 169.416 36.5997 169.644 35.8197 169.644H32.5797C32.4597 169.644 32.3997 169.692 32.3997 169.788V173.784C32.3997 173.928 32.3337 174 32.2017 174ZM32.5797 168.816H35.7477C36.2997 168.816 36.7197 168.666 37.0077 168.366C37.2957 168.054 37.4397 167.616 37.4397 167.052V165.018C37.4397 164.442 37.2957 164.004 37.0077 163.704C36.7197 163.392 36.2997 163.236 35.7477 163.236H32.5797C32.4597 163.236 32.3997 163.29 32.3997 163.398V168.672C32.3997 168.768 32.4597 168.816 32.5797 168.816ZM41.4612 174H40.9392C40.8192 174 40.7592 173.928 40.7592 173.784V165.036C40.7592 164.892 40.8192 164.82 40.9392 164.82H41.4612C41.5932 164.82 41.6592 164.892 41.6592 165.036V165.792H41.7312C41.8632 165.54 42.0972 165.318 42.4332 165.126C42.7692 164.922 43.1832 164.82 43.6752 164.82H44.3772C44.5092 164.82 44.5752 164.886 44.5752 165.018V165.45C44.5752 165.582 44.5092 165.642 44.3772 165.63H43.5312C42.9432 165.63 42.4812 165.81 42.1452 166.17C41.8212 166.53 41.6592 167.016 41.6592 167.628V173.784C41.6592 173.928 41.5932 174 41.4612 174ZM50.2898 174H48.7418C47.9618 174 47.3438 173.772 46.8878 173.316C46.4438 172.86 46.2218 172.236 46.2218 171.444V167.376C46.2218 166.584 46.4438 165.96 46.8878 165.504C47.3438 165.048 47.9618 164.82 48.7418 164.82H50.2898C51.0698 164.82 51.6878 165.048 52.1438 165.504C52.5998 165.96 52.8278 166.584 52.8278 167.376V171.444C52.8278 172.236 52.5998 172.86 52.1438 173.316C51.6878 173.772 51.0698 174 50.2898 174ZM48.8138 173.19H50.2178C50.7698 173.19 51.1898 173.04 51.4778 172.74C51.7778 172.428 51.9278 171.99 51.9278 171.426V167.394C51.9278 166.83 51.7778 166.398 51.4778 166.098C51.1898 165.786 50.7698 165.63 50.2178 165.63H48.8138C48.2618 165.63 47.8418 165.786 47.5538 166.098C47.2658 166.398 47.1218 166.83 47.1218 167.394V171.426C47.1218 171.99 47.2658 172.428 47.5538 172.74C47.8418 173.04 48.2618 173.19 48.8138 173.19ZM55.4214 163.308V161.58C55.4214 161.448 55.4814 161.382 55.6014 161.382H56.1414C56.2614 161.382 56.3214 161.448 56.3214 161.58V163.308C56.3214 163.452 56.2614 163.524 56.1414 163.524H55.6014C55.4814 163.524 55.4214 163.452 55.4214 163.308ZM53.7834 176.52H53.2614C53.1174 176.52 53.0454 176.454 53.0454 176.322V175.89C53.0454 175.77 53.1174 175.71 53.2614 175.71H53.6394C54.8274 175.71 55.4214 175.092 55.4214 173.856V165.036C55.4214 164.892 55.4814 164.82 55.6014 164.82H56.1234C56.2554 164.82 56.3214 164.892 56.3214 165.036V173.964C56.3214 174.756 56.0934 175.38 55.6374 175.836C55.1814 176.292 54.5634 176.52 53.7834 176.52ZM65.2127 174H61.4507C60.6707 174 60.0527 173.772 59.5967 173.316C59.1527 172.86 58.9307 172.236 58.9307 171.444V167.376C58.9307 166.584 59.1527 165.96 59.5967 165.504C60.0527 165.048 60.6707 164.82 61.4507 164.82H62.9987C63.7787 164.82 64.3967 165.048 64.8527 165.504C65.3087 165.96 65.5367 166.584 65.5367 167.376V169.662C65.5367 169.806 65.4647 169.878 65.3207 169.878H59.9927C59.8847 169.878 59.8307 169.932 59.8307 170.04V171.426C59.8307 171.99 59.9747 172.428 60.2627 172.74C60.5507 173.04 60.9707 173.19 61.5227 173.19H65.2127C65.3447 173.19 65.4107 173.256 65.4107 173.388V173.802C65.4107 173.934 65.3447 174 65.2127 174ZM59.9927 169.158H64.4747C64.5827 169.158 64.6367 169.104 64.6367 168.996V167.394C64.6367 166.83 64.4927 166.398 64.2047 166.098C63.9167 165.786 63.4967 165.63 62.9447 165.63H61.5227C60.9707 165.63 60.5507 165.786 60.2627 166.098C59.9747 166.398 59.8307 166.83 59.8307 167.394V168.996C59.8307 169.104 59.8847 169.158 59.9927 169.158ZM73.1001 173.388V173.802C73.1001 173.934 73.0341 174 72.9021 174H70.3101C69.5301 174 68.9121 173.772 68.4561 173.316C68.0121 172.86 67.7901 172.236 67.7901 171.444V167.376C67.7901 166.584 68.0121 165.96 68.4561 165.504C68.9121 165.048 69.5301 164.82 70.3101 164.82H72.9021C73.0341 164.82 73.1001 164.886 73.1001 165.018V165.45C73.1001 165.57 73.0341 165.63 72.9021 165.63H70.3821C69.8301 165.63 69.4101 165.786 69.1221 166.098C68.8341 166.41 68.6901 166.848 68.6901 167.412V171.408C68.6901 171.972 68.8341 172.41 69.1221 172.722C69.4101 173.034 69.8301 173.19 70.3821 173.19H72.9021C73.0341 173.19 73.1001 173.256 73.1001 173.388ZM75.4501 165.63H74.3521C74.2201 165.63 74.1541 165.57 74.1541 165.45V165.018C74.1541 164.886 74.2201 164.82 74.3521 164.82H75.4501C75.5581 164.82 75.6121 164.766 75.6121 164.658V163.2C75.6121 163.056 75.6781 162.984 75.8101 162.984H76.3321C76.4641 162.984 76.5301 163.056 76.5301 163.2V164.658C76.5301 164.766 76.5841 164.82 76.6921 164.82H78.8341C78.9661 164.82 79.0321 164.886 79.0321 165.018V165.45C79.0321 165.57 78.9661 165.63 78.8341 165.63H76.6921C76.5841 165.63 76.5301 165.684 76.5301 165.792V171.462C76.5301 172.014 76.6861 172.44 76.9981 172.74C77.3101 173.04 77.7481 173.19 78.3121 173.19H79.0141C79.1461 173.19 79.2121 173.256 79.2121 173.388V173.802C79.2121 173.934 79.1461 174 79.0141 174H78.2401C77.4481 174 76.8121 173.778 76.3321 173.334C75.8521 172.89 75.6121 172.278 75.6121 171.498V165.792C75.6121 165.684 75.5581 165.63 75.4501 165.63ZM85.9672 174H85.4092C85.2772 174 85.2352 173.928 85.2832 173.784L88.8652 162.642C88.9012 162.498 88.9852 162.426 89.1172 162.426H89.9632C90.0832 162.426 90.1672 162.498 90.2152 162.642L93.7972 173.784C93.8332 173.928 93.7912 174 93.6712 174H93.0952C92.9752 174 92.8972 173.928 92.8612 173.784L91.8892 170.904H87.1732L86.2012 173.784C86.1532 173.928 86.0752 174 85.9672 174ZM89.4952 163.416L87.4252 170.094H91.6552L89.5672 163.416H89.4952ZM99.2728 174H98.0848C97.3168 174 96.7108 173.772 96.2668 173.316C95.8228 172.86 95.6008 172.236 95.6008 171.444V165.036C95.6008 164.892 95.6608 164.82 95.7808 164.82H96.3028C96.4348 164.82 96.5008 164.892 96.5008 165.036V171.408C96.5008 171.972 96.6448 172.41 96.9328 172.722C97.2208 173.034 97.6408 173.19 98.1928 173.19H99.3628C99.9388 173.19 100.389 173.04 100.713 172.74C101.049 172.428 101.217 171.99 101.217 171.426V165.036C101.217 164.892 101.283 164.82 101.415 164.82H101.937C102.057 164.82 102.117 164.892 102.117 165.036V173.784C102.117 173.928 102.057 174 101.937 174H101.415C101.283 174 101.217 173.928 101.217 173.784V173.064H101.145C100.833 173.688 100.209 174 99.2728 174ZM105.21 165.63H104.112C103.98 165.63 103.914 165.57 103.914 165.45V165.018C103.914 164.886 103.98 164.82 104.112 164.82H105.21C105.318 164.82 105.372 164.766 105.372 164.658V163.2C105.372 163.056 105.438 162.984 105.57 162.984H106.092C106.224 162.984 106.29 163.056 106.29 163.2V164.658C106.29 164.766 106.344 164.82 106.452 164.82H108.594C108.726 164.82 108.792 164.886 108.792 165.018V165.45C108.792 165.57 108.726 165.63 108.594 165.63H106.452C106.344 165.63 106.29 165.684 106.29 165.792V171.462C106.29 172.014 106.446 172.44 106.758 172.74C107.07 173.04 107.508 173.19 108.072 173.19H108.774C108.906 173.19 108.972 173.256 108.972 173.388V173.802C108.972 173.934 108.906 174 108.774 174H108C107.208 174 106.572 173.778 106.092 173.334C105.612 172.89 105.372 172.278 105.372 171.498V165.792C105.372 165.684 105.318 165.63 105.21 165.63ZM114.942 174H113.394C112.614 174 111.996 173.772 111.54 173.316C111.096 172.86 110.874 172.236 110.874 171.444V167.376C110.874 166.584 111.096 165.96 111.54 165.504C111.996 165.048 112.614 164.82 113.394 164.82H114.942C115.722 164.82 116.34 165.048 116.796 165.504C117.252 165.96 117.48 166.584 117.48 167.376V171.444C117.48 172.236 117.252 172.86 116.796 173.316C116.34 173.772 115.722 174 114.942 174ZM113.466 173.19H114.87C115.422 173.19 115.842 173.04 116.13 172.74C116.43 172.428 116.58 171.99 116.58 171.426V167.394C116.58 166.83 116.43 166.398 116.13 166.098C115.842 165.786 115.422 165.63 114.87 165.63H113.466C112.914 165.63 112.494 165.786 112.206 166.098C111.918 166.398 111.774 166.83 111.774 167.394V171.426C111.774 171.99 111.918 172.428 112.206 172.74C112.494 173.04 112.914 173.19 113.466 173.19ZM120.686 174H120.164C120.044 174 119.984 173.928 119.984 173.784V165.036C119.984 164.892 120.044 164.82 120.164 164.82H120.686C120.818 164.82 120.884 164.892 120.884 165.036V165.756H120.956C121.304 165.132 121.94 164.82 122.864 164.82H123.602C124.658 164.82 125.39 165.24 125.798 166.08C125.978 165.66 126.284 165.348 126.716 165.144C127.148 164.928 127.592 164.82 128.048 164.82H128.714C129.494 164.82 130.106 165.048 130.55 165.504C130.994 165.96 131.216 166.584 131.216 167.376V173.784C131.216 173.928 131.15 174 131.018 174H130.496C130.364 174 130.298 173.928 130.298 173.784V167.412C130.298 166.836 130.154 166.398 129.866 166.098C129.578 165.786 129.158 165.63 128.606 165.63H127.94C127.364 165.63 126.908 165.798 126.572 166.134C126.236 166.458 126.068 166.902 126.068 167.466V173.784C126.068 173.928 126.002 174 125.87 174H125.348C125.216 174 125.15 173.928 125.15 173.784V167.412C125.15 166.836 125.006 166.398 124.718 166.098C124.43 165.786 124.01 165.63 123.458 165.63H122.738C122.162 165.63 121.706 165.786 121.37 166.098C121.046 166.398 120.884 166.83 120.884 167.394V173.784C120.884 173.928 120.818 174 120.686 174ZM137.31 174H136.158C135.378 174 134.76 173.772 134.304 173.316C133.86 172.86 133.638 172.236 133.638 171.444V167.376C133.638 166.584 133.86 165.96 134.304 165.504C134.76 165.048 135.378 164.82 136.158 164.82H139.974C140.094 164.82 140.154 164.892 140.154 165.036V173.784C140.154 173.928 140.094 174 139.974 174H139.452C139.32 174 139.254 173.928 139.254 173.784V173.064H139.182C138.87 173.688 138.246 174 137.31 174ZM139.254 171.426V165.792C139.254 165.684 139.194 165.63 139.074 165.63H136.23C135.678 165.63 135.258 165.786 134.97 166.098C134.682 166.41 134.538 166.848 134.538 167.412V171.408C134.538 171.972 134.682 172.41 134.97 172.722C135.258 173.034 135.678 173.19 136.23 173.19H137.4C137.976 173.19 138.426 173.04 138.75 172.74C139.086 172.428 139.254 171.99 139.254 171.426ZM143.249 165.63H142.151C142.019 165.63 141.953 165.57 141.953 165.45V165.018C141.953 164.886 142.019 164.82 142.151 164.82H143.249C143.357 164.82 143.411 164.766 143.411 164.658V163.2C143.411 163.056 143.477 162.984 143.609 162.984H144.131C144.263 162.984 144.329 163.056 144.329 163.2V164.658C144.329 164.766 144.383 164.82 144.491 164.82H146.633C146.765 164.82 146.831 164.886 146.831 165.018V165.45C146.831 165.57 146.765 165.63 146.633 165.63H144.491C144.383 165.63 144.329 165.684 144.329 165.792V171.462C144.329 172.014 144.485 172.44 144.797 172.74C145.109 173.04 145.547 173.19 146.111 173.19H146.813C146.945 173.19 147.011 173.256 147.011 173.388V173.802C147.011 173.934 146.945 174 146.813 174H146.039C145.247 174 144.611 173.778 144.131 173.334C143.651 172.89 143.411 172.278 143.411 171.498V165.792C143.411 165.684 143.357 165.63 143.249 165.63ZM149.183 163.308V161.58C149.183 161.448 149.243 161.382 149.363 161.382H149.903C150.023 161.382 150.083 161.448 150.083 161.58V163.308C150.083 163.452 150.023 163.524 149.903 163.524H149.363C149.243 163.524 149.183 163.452 149.183 163.308ZM149.183 173.784V165.036C149.183 164.892 149.243 164.82 149.363 164.82H149.885C150.017 164.82 150.083 164.892 150.083 165.036V173.784C150.083 173.928 150.023 174 149.903 174H149.363C149.243 174 149.183 173.928 149.183 173.784ZM156.76 174H155.212C154.432 174 153.814 173.772 153.358 173.316C152.914 172.86 152.692 172.236 152.692 171.444V167.376C152.692 166.584 152.914 165.96 153.358 165.504C153.814 165.048 154.432 164.82 155.212 164.82H156.76C157.54 164.82 158.158 165.048 158.614 165.504C159.07 165.96 159.298 166.584 159.298 167.376V171.444C159.298 172.236 159.07 172.86 158.614 173.316C158.158 173.772 157.54 174 156.76 174ZM155.284 173.19H156.688C157.24 173.19 157.66 173.04 157.948 172.74C158.248 172.428 158.398 171.99 158.398 171.426V167.394C158.398 166.83 158.248 166.398 157.948 166.098C157.66 165.786 157.24 165.63 156.688 165.63H155.284C154.732 165.63 154.312 165.786 154.024 166.098C153.736 166.398 153.592 166.83 153.592 167.394V171.426C153.592 171.99 153.736 172.428 154.024 172.74C154.312 173.04 154.732 173.19 155.284 173.19ZM162.504 174H161.982C161.862 174 161.802 173.928 161.802 173.784V165.036C161.802 164.892 161.862 164.82 161.982 164.82H162.504C162.636 164.82 162.702 164.892 162.702 165.036V165.756H162.774C163.11 165.132 163.734 164.82 164.646 164.82H165.834C166.602 164.82 167.208 165.048 167.652 165.504C168.096 165.96 168.318 166.584 168.318 167.376V173.784C168.318 173.928 168.258 174 168.138 174H167.616C167.484 174 167.418 173.928 167.418 173.784V167.412C167.418 166.848 167.274 166.41 166.986 166.098C166.698 165.786 166.278 165.63 165.726 165.63H164.556C163.98 165.63 163.524 165.786 163.188 166.098C162.864 166.398 162.702 166.83 162.702 167.394V173.784C162.702 173.928 162.636 174 162.504 174ZM25.0996 194.444V193.796C25.0996 193.664 25.1656 193.598 25.2976 193.598H25.8196C25.9516 193.598 26.0176 193.664 26.0176 193.796V194.39C26.0176 195.59 26.5996 196.19 27.7636 196.19H29.6356C30.7996 196.19 31.3816 195.584 31.3816 194.372V193.616C31.3816 193.088 31.1656 192.674 30.7336 192.374C30.3016 192.074 29.7796 191.858 29.1676 191.726C28.5556 191.594 27.9376 191.456 27.3136 191.312C26.7016 191.168 26.1796 190.904 25.7476 190.52C25.3156 190.136 25.0996 189.62 25.0996 188.972V187.982C25.0996 187.19 25.3276 186.566 25.7836 186.11C26.2396 185.654 26.8576 185.426 27.6376 185.426H29.7256C30.5056 185.426 31.1236 185.654 31.5796 186.11C32.0356 186.566 32.2636 187.19 32.2636 187.982V188.486C32.2636 188.618 32.1976 188.684 32.0656 188.684H31.5436C31.4116 188.684 31.3456 188.618 31.3456 188.486V188.036C31.3456 186.836 30.7636 186.236 29.5996 186.236H27.7456C26.5936 186.236 26.0176 186.848 26.0176 188.072V188.972C26.0176 189.8 26.7556 190.358 28.2316 190.646C28.8436 190.766 29.4556 190.904 30.0676 191.06C30.6916 191.216 31.2196 191.498 31.6516 191.906C32.0836 192.314 32.2996 192.866 32.2996 193.562V194.444C32.2996 195.236 32.0716 195.86 31.6156 196.316C31.1596 196.772 30.5416 197 29.7616 197H27.6376C26.8576 197 26.2396 196.772 25.7836 196.316C25.3276 195.86 25.0996 195.236 25.0996 194.444ZM35.801 197H35.279C35.159 197 35.099 196.928 35.099 196.784V188.036C35.099 187.892 35.159 187.82 35.279 187.82H35.801C35.933 187.82 35.999 187.892 35.999 188.036V188.756H36.071C36.419 188.132 37.055 187.82 37.979 187.82H38.717C39.773 187.82 40.505 188.24 40.913 189.08C41.093 188.66 41.399 188.348 41.831 188.144C42.263 187.928 42.707 187.82 43.163 187.82H43.829C44.609 187.82 45.221 188.048 45.665 188.504C46.109 188.96 46.331 189.584 46.331 190.376V196.784C46.331 196.928 46.265 197 46.133 197H45.611C45.479 197 45.413 196.928 45.413 196.784V190.412C45.413 189.836 45.269 189.398 44.981 189.098C44.693 188.786 44.273 188.63 43.721 188.63H43.055C42.479 188.63 42.023 188.798 41.687 189.134C41.351 189.458 41.183 189.902 41.183 190.466V196.784C41.183 196.928 41.117 197 40.985 197H40.463C40.331 197 40.265 196.928 40.265 196.784V190.412C40.265 189.836 40.121 189.398 39.833 189.098C39.545 188.786 39.125 188.63 38.573 188.63H37.853C37.277 188.63 36.821 188.786 36.485 189.098C36.161 189.398 35.999 189.83 35.999 190.394V196.784C35.999 196.928 35.933 197 35.801 197ZM52.425 197H51.273C50.493 197 49.875 196.772 49.419 196.316C48.975 195.86 48.753 195.236 48.753 194.444V190.376C48.753 189.584 48.975 188.96 49.419 188.504C49.875 188.048 50.493 187.82 51.273 187.82H55.089C55.209 187.82 55.269 187.892 55.269 188.036V196.784C55.269 196.928 55.209 197 55.089 197H54.567C54.435 197 54.369 196.928 54.369 196.784V196.064H54.297C53.985 196.688 53.361 197 52.425 197ZM54.369 194.426V188.792C54.369 188.684 54.309 188.63 54.189 188.63H51.345C50.793 188.63 50.373 188.786 50.085 189.098C49.797 189.41 49.653 189.848 49.653 190.412V194.408C49.653 194.972 49.797 195.41 50.085 195.722C50.373 196.034 50.793 196.19 51.345 196.19H52.515C53.091 196.19 53.541 196.04 53.865 195.74C54.201 195.428 54.369 194.99 54.369 194.426ZM58.6702 197H58.1482C58.0282 197 57.9682 196.928 57.9682 196.784V188.036C57.9682 187.892 58.0282 187.82 58.1482 187.82H58.6702C58.8022 187.82 58.8682 187.892 58.8682 188.036V188.792H58.9402C59.0722 188.54 59.3062 188.318 59.6422 188.126C59.9782 187.922 60.3922 187.82 60.8842 187.82H61.5862C61.7182 187.82 61.7842 187.886 61.7842 188.018V188.45C61.7842 188.582 61.7182 188.642 61.5862 188.63H60.7402C60.1522 188.63 59.6902 188.81 59.3542 189.17C59.0302 189.53 58.8682 190.016 58.8682 190.628V196.784C58.8682 196.928 58.8022 197 58.6702 197ZM64.0067 188.63H62.9087C62.7767 188.63 62.7107 188.57 62.7107 188.45V188.018C62.7107 187.886 62.7767 187.82 62.9087 187.82H64.0067C64.1147 187.82 64.1687 187.766 64.1687 187.658V186.2C64.1687 186.056 64.2347 185.984 64.3667 185.984H64.8887C65.0207 185.984 65.0867 186.056 65.0867 186.2V187.658C65.0867 187.766 65.1407 187.82 65.2487 187.82H67.3907C67.5227 187.82 67.5887 187.886 67.5887 188.018V188.45C67.5887 188.57 67.5227 188.63 67.3907 188.63H65.2487C65.1407 188.63 65.0867 188.684 65.0867 188.792V194.462C65.0867 195.014 65.2427 195.44 65.5547 195.74C65.8667 196.04 66.3047 196.19 66.8687 196.19H67.5707C67.7027 196.19 67.7687 196.256 67.7687 196.388V196.802C67.7687 196.934 67.7027 197 67.5707 197H66.7967C66.0047 197 65.3687 196.778 64.8887 196.334C64.4087 195.89 64.1687 195.278 64.1687 194.498V188.792C64.1687 188.684 64.1147 188.63 64.0067 188.63ZM79.4378 197H77.1698C76.3898 197 75.7718 196.772 75.3158 196.316C74.8718 195.86 74.6498 195.236 74.6498 194.444V187.982C74.6498 187.19 74.8718 186.566 75.3158 186.11C75.7718 185.654 76.3898 185.426 77.1698 185.426H79.4378C80.2178 185.426 80.8298 185.654 81.2738 186.11C81.7298 186.566 81.9578 187.19 81.9578 187.982V188.864C81.9578 189.008 81.8918 189.08 81.7598 189.08H81.2558C81.1238 189.08 81.0578 189.008 81.0578 188.864V188.018C81.0578 187.442 80.9078 187.004 80.6078 186.704C80.3198 186.392 79.8998 186.236 79.3478 186.236H77.2418C76.6898 186.236 76.2698 186.392 75.9818 186.704C75.6938 187.016 75.5498 187.454 75.5498 188.018V194.408C75.5498 194.972 75.6938 195.41 75.9818 195.722C76.2698 196.034 76.6898 196.19 77.2418 196.19H79.3478C79.8998 196.19 80.3198 196.04 80.6078 195.74C80.9078 195.428 81.0578 194.984 81.0578 194.408V193.562C81.0578 193.418 81.1238 193.346 81.2558 193.346H81.7598C81.8918 193.346 81.9578 193.418 81.9578 193.562V194.444C81.9578 195.236 81.7298 195.86 81.2738 196.316C80.8298 196.772 80.2178 197 79.4378 197ZM88.2937 197H86.7457C85.9657 197 85.3477 196.772 84.8917 196.316C84.4477 195.86 84.2257 195.236 84.2257 194.444V190.376C84.2257 189.584 84.4477 188.96 84.8917 188.504C85.3477 188.048 85.9657 187.82 86.7457 187.82H88.2937C89.0737 187.82 89.6917 188.048 90.1477 188.504C90.6037 188.96 90.8317 189.584 90.8317 190.376V194.444C90.8317 195.236 90.6037 195.86 90.1477 196.316C89.6917 196.772 89.0737 197 88.2937 197ZM86.8177 196.19H88.2217C88.7737 196.19 89.1937 196.04 89.4817 195.74C89.7817 195.428 89.9317 194.99 89.9317 194.426V190.394C89.9317 189.83 89.7817 189.398 89.4817 189.098C89.1937 188.786 88.7737 188.63 88.2217 188.63H86.8177C86.2657 188.63 85.8457 188.786 85.5577 189.098C85.2697 189.398 85.1257 189.83 85.1257 190.394V194.426C85.1257 194.99 85.2697 195.428 85.5577 195.74C85.8457 196.04 86.2657 196.19 86.8177 196.19ZM94.0374 197H93.5154C93.3954 197 93.3354 196.928 93.3354 196.784V188.036C93.3354 187.892 93.3954 187.82 93.5154 187.82H94.0374C94.1694 187.82 94.2354 187.892 94.2354 188.036V188.756H94.3074C94.6434 188.132 95.2674 187.82 96.1794 187.82H97.3674C98.1354 187.82 98.7414 188.048 99.1854 188.504C99.6294 188.96 99.8514 189.584 99.8514 190.376V196.784C99.8514 196.928 99.7914 197 99.6714 197H99.1494C99.0174 197 98.9514 196.928 98.9514 196.784V190.412C98.9514 189.848 98.8074 189.41 98.5194 189.098C98.2314 188.786 97.8114 188.63 97.2594 188.63H96.0894C95.5134 188.63 95.0574 188.786 94.7214 189.098C94.3974 189.398 94.2354 189.83 94.2354 190.394V196.784C94.2354 196.928 94.1694 197 94.0374 197ZM102.854 188.63H101.756C101.624 188.63 101.558 188.57 101.558 188.45V188.018C101.558 187.886 101.624 187.82 101.756 187.82H102.854C102.962 187.82 103.016 187.766 103.016 187.658V186.2C103.016 186.056 103.082 185.984 103.214 185.984H103.736C103.868 185.984 103.934 186.056 103.934 186.2V187.658C103.934 187.766 103.988 187.82 104.096 187.82H106.238C106.37 187.82 106.436 187.886 106.436 188.018V188.45C106.436 188.57 106.37 188.63 106.238 188.63H104.096C103.988 188.63 103.934 188.684 103.934 188.792V194.462C103.934 195.014 104.09 195.44 104.402 195.74C104.714 196.04 105.152 196.19 105.716 196.19H106.418C106.55 196.19 106.616 196.256 106.616 196.388V196.802C106.616 196.934 106.55 197 106.418 197H105.644C104.852 197 104.216 196.778 103.736 196.334C103.256 195.89 103.016 195.278 103.016 194.498V188.792C103.016 188.684 102.962 188.63 102.854 188.63ZM109.401 197H108.879C108.759 197 108.699 196.928 108.699 196.784V188.036C108.699 187.892 108.759 187.82 108.879 187.82H109.401C109.533 187.82 109.599 187.892 109.599 188.036V188.792H109.671C109.803 188.54 110.037 188.318 110.373 188.126C110.709 187.922 111.123 187.82 111.615 187.82H112.317C112.449 187.82 112.515 187.886 112.515 188.018V188.45C112.515 188.582 112.449 188.642 112.317 188.63H111.471C110.883 188.63 110.421 188.81 110.085 189.17C109.761 189.53 109.599 190.016 109.599 190.628V196.784C109.599 196.928 109.533 197 109.401 197ZM117.833 197H116.681C115.901 197 115.283 196.772 114.827 196.316C114.383 195.86 114.161 195.236 114.161 194.444V190.376C114.161 189.584 114.383 188.96 114.827 188.504C115.283 188.048 115.901 187.82 116.681 187.82H120.497C120.617 187.82 120.677 187.892 120.677 188.036V196.784C120.677 196.928 120.617 197 120.497 197H119.975C119.843 197 119.777 196.928 119.777 196.784V196.064H119.705C119.393 196.688 118.769 197 117.833 197ZM119.777 194.426V188.792C119.777 188.684 119.717 188.63 119.597 188.63H116.753C116.201 188.63 115.781 188.786 115.493 189.098C115.205 189.41 115.061 189.848 115.061 190.412V194.408C115.061 194.972 115.205 195.41 115.493 195.722C115.781 196.034 116.201 196.19 116.753 196.19H117.923C118.499 196.19 118.949 196.04 119.273 195.74C119.609 195.428 119.777 194.99 119.777 194.426ZM128.506 196.388V196.802C128.506 196.934 128.44 197 128.308 197H125.716C124.936 197 124.318 196.772 123.862 196.316C123.418 195.86 123.196 195.236 123.196 194.444V190.376C123.196 189.584 123.418 188.96 123.862 188.504C124.318 188.048 124.936 187.82 125.716 187.82H128.308C128.44 187.82 128.506 187.886 128.506 188.018V188.45C128.506 188.57 128.44 188.63 128.308 188.63H125.788C125.236 188.63 124.816 188.786 124.528 189.098C124.24 189.41 124.096 189.848 124.096 190.412V194.408C124.096 194.972 124.24 195.41 124.528 195.722C124.816 196.034 125.236 196.19 125.788 196.19H128.308C128.44 196.19 128.506 196.256 128.506 196.388ZM130.856 188.63H129.758C129.626 188.63 129.56 188.57 129.56 188.45V188.018C129.56 187.886 129.626 187.82 129.758 187.82H130.856C130.964 187.82 131.018 187.766 131.018 187.658V186.2C131.018 186.056 131.084 185.984 131.216 185.984H131.738C131.87 185.984 131.936 186.056 131.936 186.2V187.658C131.936 187.766 131.99 187.82 132.098 187.82H134.24C134.372 187.82 134.438 187.886 134.438 188.018V188.45C134.438 188.57 134.372 188.63 134.24 188.63H132.098C131.99 188.63 131.936 188.684 131.936 188.792V194.462C131.936 195.014 132.092 195.44 132.404 195.74C132.716 196.04 133.154 196.19 133.718 196.19H134.42C134.552 196.19 134.618 196.256 134.618 196.388V196.802C134.618 196.934 134.552 197 134.42 197H133.646C132.854 197 132.218 196.778 131.738 196.334C131.258 195.89 131.018 195.278 131.018 194.498V188.792C131.018 188.684 130.964 188.63 130.856 188.63ZM136.791 186.308V184.58C136.791 184.448 136.851 184.382 136.971 184.382H137.511C137.631 184.382 137.691 184.448 137.691 184.58V186.308C137.691 186.452 137.631 186.524 137.511 186.524H136.971C136.851 186.524 136.791 186.452 136.791 186.308ZM136.791 196.784V188.036C136.791 187.892 136.851 187.82 136.971 187.82H137.493C137.625 187.82 137.691 187.892 137.691 188.036V196.784C137.691 196.928 137.631 197 137.511 197H136.971C136.851 197 136.791 196.928 136.791 196.784ZM141.182 197H140.66C140.54 197 140.48 196.928 140.48 196.784V188.036C140.48 187.892 140.54 187.82 140.66 187.82H141.182C141.314 187.82 141.38 187.892 141.38 188.036V188.756H141.452C141.788 188.132 142.412 187.82 143.324 187.82H144.512C145.28 187.82 145.886 188.048 146.33 188.504C146.774 188.96 146.996 189.584 146.996 190.376V196.784C146.996 196.928 146.936 197 146.816 197H146.294C146.162 197 146.096 196.928 146.096 196.784V190.412C146.096 189.848 145.952 189.41 145.664 189.098C145.376 188.786 144.956 188.63 144.404 188.63H143.234C142.658 188.63 142.202 188.786 141.866 189.098C141.542 189.398 141.38 189.83 141.38 190.394V196.784C141.38 196.928 141.314 197 141.182 197ZM153.167 196.478H151.997C151.229 196.478 150.617 196.25 150.161 195.794C149.717 195.338 149.495 194.72 149.495 193.94V190.376C149.495 189.584 149.717 188.96 150.161 188.504C150.617 188.048 151.235 187.82 152.015 187.82H155.831C155.963 187.82 156.029 187.892 156.029 188.036V196.964C156.029 197.756 155.801 198.38 155.345 198.836C154.889 199.292 154.271 199.52 153.491 199.52H150.215C150.083 199.52 150.017 199.454 150.017 199.322V198.89C150.017 198.77 150.083 198.71 150.215 198.71H153.419C153.971 198.71 154.391 198.554 154.679 198.242C154.967 197.942 155.111 197.504 155.111 196.928V195.542H155.039C154.739 196.166 154.115 196.478 153.167 196.478ZM155.111 193.904V188.792C155.111 188.684 155.057 188.63 154.949 188.63H152.105C151.553 188.63 151.127 188.786 150.827 189.098C150.539 189.398 150.395 189.836 150.395 190.412V193.904C150.395 194.468 150.539 194.906 150.827 195.218C151.127 195.518 151.553 195.668 152.105 195.668H153.257C153.833 195.668 154.283 195.518 154.607 195.218C154.943 194.906 155.111 194.468 155.111 193.904Z" fill="white"/>
</svg>
