<svg width="101" height="20" viewBox="0 0 101 20" fill="none" xmlns="http://www.w3.org/2000/svg">
<rect width="20" height="20" fill="#C4C4C4"/>
<path d="M10 5.0815C11.602 5.0815 11.792 5.0875 12.425 5.1165C14.051 5.1905 14.8105 5.962 14.8845 7.576C14.9135 8.2085 14.919 8.3985 14.919 10.0005C14.919 11.603 14.913 11.7925 14.8845 12.425C14.81 14.0375 14.0525 14.8105 12.425 14.8845C11.792 14.9135 11.603 14.9195 10 14.9195C8.398 14.9195 8.208 14.9135 7.5755 14.8845C5.9455 14.81 5.19 14.035 5.116 12.4245C5.087 11.792 5.081 11.6025 5.081 10C5.081 8.398 5.0875 8.2085 5.116 7.5755C5.1905 5.962 5.948 5.19 7.5755 5.116C8.2085 5.0875 8.398 5.0815 10 5.0815ZM10 4C8.3705 4 8.1665 4.007 7.5265 4.036C5.3475 4.136 4.1365 5.345 4.0365 7.526C4.007 8.1665 4 8.3705 4 10C4 11.6295 4.007 11.834 4.036 12.474C4.136 14.653 5.345 15.864 7.526 15.964C8.1665 15.993 8.3705 16 10 16C11.6295 16 11.834 15.993 12.474 15.964C14.651 15.864 15.865 14.655 15.9635 12.474C15.993 11.834 16 11.6295 16 10C16 8.3705 15.993 8.1665 15.964 7.5265C15.866 5.3495 14.6555 4.1365 12.4745 4.0365C11.834 4.007 11.6295 4 10 4V4ZM10 6.919C8.2985 6.919 6.919 8.2985 6.919 10C6.919 11.7015 8.2985 13.0815 10 13.0815C11.7015 13.0815 13.081 11.702 13.081 10C13.081 8.2985 11.7015 6.919 10 6.919ZM10 12C8.8955 12 8 11.105 8 10C8 8.8955 8.8955 8 10 8C11.1045 8 12 8.8955 12 10C12 11.105 11.1045 12 10 12ZM13.203 6.0775C12.805 6.0775 12.4825 6.4 12.4825 6.7975C12.4825 7.195 12.805 7.5175 13.203 7.5175C13.6005 7.5175 13.9225 7.195 13.9225 6.7975C13.9225 6.4 13.6005 6.0775 13.203 6.0775Z" fill="black"/>
<path d="M28.254 14H27.064C26.868 14 26.77 13.902 26.77 13.706V4.452C26.77 4.256 26.868 4.158 27.064 4.158H28.254C28.45 4.158 28.548 4.256 28.548 4.452V7.616H28.604C28.8093 7.112 29.2667 6.86 29.976 6.86H30.424C31.8893 6.86 32.622 7.62067 32.622 9.142V13.706C32.622 13.902 32.5193 14 32.314 14H31.138C30.942 14 30.844 13.902 30.844 13.706V9.226C30.844 8.92733 30.7787 8.71733 30.648 8.596C30.5267 8.46533 30.3167 8.4 30.018 8.4H29.514C28.87 8.4 28.548 8.75467 28.548 9.464V13.706C28.548 13.902 28.45 14 28.254 14ZM37.5141 14H36.2681C35.5308 14 34.9615 13.804 34.5601 13.412C34.1588 13.02 33.9581 12.4553 33.9581 11.718V9.142C33.9581 8.40467 34.1588 7.84 34.5601 7.448C34.9615 7.056 35.5308 6.86 36.2681 6.86H37.5141C38.2421 6.86 38.8068 7.06067 39.2081 7.462C39.6188 7.854 39.8241 8.414 39.8241 9.142V11.718C39.8241 12.446 39.6188 13.0107 39.2081 13.412C38.8068 13.804 38.2421 14 37.5141 14ZM36.5341 12.474H37.2481C37.5468 12.474 37.7568 12.4133 37.8781 12.292C38.0088 12.1707 38.0741 11.9607 38.0741 11.662V9.198C38.0741 8.89933 38.0088 8.68933 37.8781 8.568C37.7568 8.44667 37.5468 8.386 37.2481 8.386H36.5341C36.2355 8.386 36.0255 8.44667 35.9041 8.568C35.7828 8.68933 35.7221 8.89933 35.7221 9.198V11.662C35.7221 11.9607 35.7828 12.1707 35.9041 12.292C36.0255 12.4133 36.2355 12.474 36.5341 12.474ZM42.7052 14H41.5152C41.3192 14 41.2212 13.902 41.2212 13.706V7.154C41.2212 6.958 41.3192 6.86 41.5152 6.86H42.7052C42.9012 6.86 42.9992 6.958 42.9992 7.154V7.616H43.0552C43.1672 7.392 43.3538 7.21 43.6152 7.07C43.8858 6.93 44.1938 6.86 44.5392 6.86H44.9312C45.7432 6.86 46.3265 7.15867 46.6812 7.756C46.9985 7.15867 47.5445 6.86 48.3192 6.86H48.7252C49.4438 6.86 49.9852 7.056 50.3492 7.448C50.7225 7.84 50.9092 8.40467 50.9092 9.142V13.706C50.9092 13.902 50.8112 14 50.6152 14H49.4252C49.2292 14 49.1312 13.902 49.1312 13.706V9.226C49.1312 8.92733 49.0705 8.71733 48.9492 8.596C48.8278 8.46533 48.6178 8.4 48.3192 8.4H47.9692C47.3252 8.4 47.0032 8.75933 47.0032 9.478V13.706C47.0032 13.902 46.9005 14 46.6952 14H45.5192C45.3232 14 45.2252 13.902 45.2252 13.706V9.226C45.2252 8.92733 45.1598 8.71733 45.0292 8.596C44.9078 8.46533 44.6978 8.4 44.3992 8.4H43.9652C43.3212 8.4 42.9992 8.75467 42.9992 9.464V13.706C42.9992 13.902 42.9012 14 42.7052 14ZM57.6551 14H54.5611C53.8238 14 53.2544 13.804 52.8531 13.412C52.4518 13.02 52.2511 12.4553 52.2511 11.718V9.142C52.2511 8.40467 52.4518 7.84 52.8531 7.448C53.2544 7.056 53.8238 6.86 54.5611 6.86H55.6671C56.4044 6.86 56.9738 7.056 57.3751 7.448C57.7764 7.84 57.9771 8.40467 57.9771 9.142V10.92C57.9771 11.116 57.8791 11.214 57.6831 11.214H54.1691C54.0571 11.214 54.0011 11.2653 54.0011 11.368V11.676C54.0011 11.9653 54.0618 12.1753 54.1831 12.306C54.3138 12.4273 54.5284 12.488 54.8271 12.488H57.6551C57.8511 12.488 57.9491 12.5907 57.9491 12.796V13.72C57.9491 13.8227 57.9258 13.8973 57.8791 13.944C57.8418 13.9813 57.7671 14 57.6551 14ZM54.1691 10.024H56.0731C56.1758 10.024 56.2271 9.97267 56.2271 9.87V9.198C56.2271 8.89933 56.1664 8.68933 56.0451 8.568C55.9238 8.44667 55.7138 8.386 55.4151 8.386H54.8271C54.5284 8.386 54.3184 8.44667 54.1971 8.568C54.0758 8.68933 54.0151 8.89933 54.0151 9.198V9.87C54.0151 9.97267 54.0664 10.024 54.1691 10.024ZM63.2431 11.382V8.554C63.2431 8.45133 63.1871 8.4 63.0751 8.4H61.7591C61.4604 8.4 61.2504 8.46533 61.1291 8.596C61.0077 8.71733 60.9471 8.92733 60.9471 9.226V11.634C60.9471 11.9327 61.0077 12.1473 61.1291 12.278C61.2504 12.3993 61.4604 12.46 61.7591 12.46H62.2631C62.9164 12.46 63.2431 12.1007 63.2431 11.382ZM61.8011 14H61.4791C60.7417 14 60.1724 13.804 59.7711 13.412C59.3697 13.02 59.1691 12.4553 59.1691 11.718V9.142C59.1691 8.40467 59.3697 7.84 59.7711 7.448C60.1724 7.056 60.7417 6.86 61.4791 6.86H64.7131C64.9184 6.86 65.0211 6.958 65.0211 7.154V15.624C65.0211 15.8107 64.9184 15.904 64.7131 15.904H63.5371C63.3411 15.904 63.2431 15.8107 63.2431 15.624V13.23H63.1871C62.9631 13.7433 62.5011 14 61.8011 14ZM69.1312 14H68.6692C67.9505 14 67.4045 13.804 67.0312 13.412C66.6672 13.02 66.4852 12.4553 66.4852 11.718V7.154C66.4852 6.958 66.5832 6.86 66.7792 6.86H67.9692C68.1652 6.86 68.2632 6.958 68.2632 7.154V11.634C68.2632 11.9327 68.3238 12.1473 68.4452 12.278C68.5758 12.3993 68.7858 12.46 69.0752 12.46H69.5932C70.2372 12.46 70.5592 12.1053 70.5592 11.396V7.154C70.5592 6.958 70.6572 6.86 70.8532 6.86H72.0292C72.2345 6.86 72.3372 6.958 72.3372 7.154V13.706C72.3372 13.902 72.2345 14 72.0292 14H70.8532C70.6572 14 70.5592 13.902 70.5592 13.706V13.244H70.5032C70.4005 13.496 70.2185 13.6873 69.9572 13.818C69.6958 13.9393 69.4205 14 69.1312 14ZM75.8153 12.46H77.2433C77.5419 12.46 77.7519 12.3993 77.8733 12.278C78.0039 12.1473 78.0693 11.9327 78.0693 11.634V9.198C78.0693 8.89933 78.0039 8.68933 77.8733 8.568C77.7519 8.43733 77.5419 8.372 77.2433 8.372H76.6273C75.9833 8.372 75.6613 8.72667 75.6613 9.436V12.306C75.6613 12.4087 75.7126 12.46 75.8153 12.46ZM73.8833 13.706V4.452C73.8833 4.256 73.9813 4.158 74.1773 4.158H75.3673C75.5633 4.158 75.6613 4.256 75.6613 4.452V7.602H75.7173C75.8199 7.35 76.0019 7.15867 76.2633 7.028C76.5246 6.89733 76.7999 6.832 77.0893 6.832H77.5373C78.2746 6.832 78.8439 7.028 79.2453 7.42C79.6466 7.812 79.8473 8.37667 79.8473 9.114V11.718C79.8473 12.4553 79.6466 13.02 79.2453 13.412C78.8439 13.804 78.2746 14 77.5373 14H74.1773C73.9813 14 73.8833 13.902 73.8833 13.706ZM86.5164 14H83.4224C82.6851 14 82.1158 13.804 81.7144 13.412C81.3131 13.02 81.1124 12.4553 81.1124 11.718V9.142C81.1124 8.40467 81.3131 7.84 81.7144 7.448C82.1158 7.056 82.6851 6.86 83.4224 6.86H84.5284C85.2658 6.86 85.8351 7.056 86.2364 7.448C86.6378 7.84 86.8384 8.40467 86.8384 9.142V10.92C86.8384 11.116 86.7404 11.214 86.5444 11.214H83.0304C82.9184 11.214 82.8624 11.2653 82.8624 11.368V11.676C82.8624 11.9653 82.9231 12.1753 83.0444 12.306C83.1751 12.4273 83.3898 12.488 83.6884 12.488H86.5164C86.7124 12.488 86.8104 12.5907 86.8104 12.796V13.72C86.8104 13.8227 86.7871 13.8973 86.7404 13.944C86.7031 13.9813 86.6284 14 86.5164 14ZM83.0304 10.024H84.9344C85.0371 10.024 85.0884 9.97267 85.0884 9.87V9.198C85.0884 8.89933 85.0278 8.68933 84.9064 8.568C84.7851 8.44667 84.5751 8.386 84.2764 8.386H83.6884C83.3898 8.386 83.1798 8.44667 83.0584 8.568C82.9371 8.68933 82.8764 8.89933 82.8764 9.198V9.87C82.8764 9.97267 82.9278 10.024 83.0304 10.024ZM89.7244 11.984V13.706C89.7244 13.902 89.6357 14 89.4584 14H88.2124C88.0257 14 87.9324 13.902 87.9324 13.706V11.998C87.9324 11.8113 88.0257 11.718 88.2124 11.718H89.4584C89.6357 11.718 89.7244 11.8067 89.7244 11.984ZM93.5338 14H93.1978C92.4605 14 91.8911 13.804 91.4898 13.412C91.0885 13.02 90.8878 12.4553 90.8878 11.718V9.142C90.8878 8.40467 91.0885 7.84 91.4898 7.448C91.8911 7.056 92.4605 6.86 93.1978 6.86H96.4318C96.6371 6.86 96.7398 6.958 96.7398 7.154V13.706C96.7398 13.902 96.6371 14 96.4318 14H95.2558C95.0598 14 94.9618 13.902 94.9618 13.706V13.244H94.9058C94.8031 13.496 94.6211 13.6873 94.3598 13.818C94.0985 13.9393 93.8231 14 93.5338 14ZM94.9618 11.396V8.554C94.9618 8.45133 94.9058 8.4 94.7938 8.4H93.4778C93.1791 8.4 92.9691 8.46533 92.8478 8.596C92.7265 8.71733 92.6658 8.92733 92.6658 9.226V11.634C92.6658 11.9327 92.7265 12.1473 92.8478 12.278C92.9691 12.3993 93.1791 12.46 93.4778 12.46H93.9958C94.6398 12.46 94.9618 12.1053 94.9618 11.396ZM98.3439 5.656V4.438C98.3439 4.25133 98.4372 4.158 98.6239 4.158H99.8419C100.029 4.158 100.122 4.24667 100.122 4.424V5.656C100.122 5.84267 100.029 5.936 99.8419 5.936H98.6239C98.4372 5.936 98.3439 5.84267 98.3439 5.656ZM98.3439 13.706V7.154C98.3439 6.958 98.4372 6.86 98.6239 6.86H99.8279C100.024 6.86 100.122 6.958 100.122 7.154V13.706C100.122 13.8273 100.099 13.9067 100.052 13.944C100.015 13.9813 99.9446 14 99.8419 14H98.6379C98.4419 14 98.3439 13.902 98.3439 13.706Z" fill="white"/>
</svg>
