<svg width="238" height="63" viewBox="0 0 238 63" fill="none" xmlns="http://www.w3.org/2000/svg">
<path d="M8.544 1.568H10.56C10.896 1.568 11.064 1.728 11.064 2.048V13.088C11.064 14.336 10.72 15.304 10.032 15.992C9.344 16.664 8.376 17 7.128 17H4.728C3.464 17 2.488 16.664 1.8 15.992C1.112 15.32 0.768 14.352 0.768 13.088V10.832C0.768 10.496 0.936 10.328 1.272 10.328H3.312C3.648 10.328 3.816 10.496 3.816 10.832V12.944C3.816 13.456 3.92 13.824 4.128 14.048C4.352 14.256 4.712 14.36 5.208 14.36H6.624C7.136 14.36 7.496 14.256 7.704 14.048C7.912 13.824 8.016 13.456 8.016 12.944V2.072C8.016 1.736 8.192 1.568 8.544 1.568ZM16.6196 17H14.5796C14.2436 17 14.0756 16.832 14.0756 16.496V2.072C14.0756 1.736 14.2436 1.568 14.5796 1.568H20.4356C21.6836 1.568 22.6516 1.912 23.3396 2.6C24.0276 3.272 24.3716 4.232 24.3716 5.48V7.784C24.3716 9.032 24.0276 10 23.3396 10.688C22.6516 11.36 21.6836 11.696 20.4356 11.696H17.4116C17.2196 11.696 17.1236 11.784 17.1236 11.96V16.496C17.1236 16.832 16.9556 17 16.6196 17ZM17.3876 9.032H19.9316C20.4436 9.032 20.8036 8.928 21.0116 8.72C21.2196 8.496 21.3236 8.136 21.3236 7.64V5.624C21.3236 5.112 21.2196 4.752 21.0116 4.544C20.8036 4.32 20.4436 4.208 19.9316 4.208H17.3876C17.2116 4.208 17.1236 4.296 17.1236 4.472V8.768C17.1236 8.944 17.2116 9.032 17.3876 9.032ZM38.4116 17H35.7956C34.5316 17 33.5556 16.664 32.8676 15.992C32.1796 15.32 31.8356 14.352 31.8356 13.088V5.48C31.8356 4.216 32.1796 3.248 32.8676 2.576C33.5556 1.904 34.5316 1.568 35.7956 1.568H38.4116C39.6596 1.568 40.6276 1.912 41.3156 2.6C42.0196 3.272 42.3716 4.232 42.3716 5.48V6.608C42.3716 6.96 42.1956 7.136 41.8436 7.136H39.8276C39.4916 7.136 39.3236 6.96 39.3236 6.608V5.624C39.3236 5.112 39.2116 4.752 38.9876 4.544C38.7796 4.32 38.4196 4.208 37.9076 4.208H36.2756C35.7796 4.208 35.4196 4.32 35.1956 4.544C34.9876 4.752 34.8836 5.112 34.8836 5.624V12.944C34.8836 13.456 34.9876 13.824 35.1956 14.048C35.4196 14.256 35.7796 14.36 36.2756 14.36H37.9076C38.4196 14.36 38.7796 14.256 38.9876 14.048C39.2116 13.824 39.3236 13.456 39.3236 12.944V11.96C39.3236 11.608 39.4916 11.432 39.8276 11.432H41.8436C42.1956 11.432 42.3716 11.608 42.3716 11.96V13.088C42.3716 14.336 42.0196 15.304 41.3156 15.992C40.6276 16.664 39.6596 17 38.4116 17ZM49.0457 17H48.4697C47.2057 17 46.2297 16.664 45.5417 15.992C44.8537 15.32 44.5097 14.352 44.5097 13.088V8.672C44.5097 7.408 44.8537 6.44 45.5417 5.768C46.2297 5.096 47.2057 4.76 48.4697 4.76H54.0137C54.3657 4.76 54.5417 4.928 54.5417 5.264V16.496C54.5417 16.832 54.3657 17 54.0137 17H51.9977C51.6617 17 51.4937 16.832 51.4937 16.496V15.704H51.3977C51.2217 16.136 50.9097 16.464 50.4617 16.688C50.0137 16.896 49.5417 17 49.0457 17ZM51.4937 12.536V7.664C51.4937 7.488 51.3977 7.4 51.2057 7.4H48.9497C48.4377 7.4 48.0777 7.512 47.8697 7.736C47.6617 7.944 47.5577 8.304 47.5577 8.816V12.944C47.5577 13.456 47.6617 13.824 47.8697 14.048C48.0777 14.256 48.4377 14.36 48.9497 14.36H49.8377C50.9417 14.36 51.4937 13.752 51.4937 12.536ZM59.8356 17H57.7956C57.4596 17 57.2916 16.832 57.2916 16.496V0.631999C57.2916 0.296 57.4596 0.128 57.7956 0.128H59.8356C60.1716 0.128 60.3396 0.296 60.3396 0.631999V16.496C60.3396 16.832 60.1716 17 59.8356 17ZM65.6453 17H63.6053C63.2693 17 63.1013 16.832 63.1013 16.496V5.264C63.1013 4.928 63.2693 4.76 63.6053 4.76H65.6453C65.9813 4.76 66.1493 4.928 66.1493 5.264V6.056H66.2453C66.4373 5.672 66.7573 5.36 67.2053 5.12C67.6693 4.88 68.1973 4.76 68.7893 4.76H69.4613C70.8533 4.76 71.8533 5.272 72.4613 6.296C73.0053 5.272 73.9413 4.76 75.2693 4.76H75.9653C77.1973 4.76 78.1253 5.096 78.7493 5.768C79.3893 6.44 79.7093 7.408 79.7093 8.672V16.496C79.7093 16.832 79.5413 17 79.2053 17H77.1653C76.8293 17 76.6613 16.832 76.6613 16.496V8.816C76.6613 8.304 76.5573 7.944 76.3493 7.736C76.1413 7.512 75.7813 7.4 75.2693 7.4H74.6693C73.5653 7.4 73.0133 8.016 73.0133 9.248V16.496C73.0133 16.832 72.8373 17 72.4853 17H70.4693C70.1333 17 69.9653 16.832 69.9653 16.496V8.816C69.9653 8.304 69.8533 7.944 69.6293 7.736C69.4213 7.512 69.0613 7.4 68.5493 7.4H67.8053C66.7013 7.4 66.1493 8.008 66.1493 9.224V16.496C66.1493 16.832 65.9813 17 65.6453 17ZM86.5457 17H85.9697C84.7057 17 83.7297 16.664 83.0417 15.992C82.3537 15.32 82.0097 14.352 82.0097 13.088V8.672C82.0097 7.408 82.3537 6.44 83.0417 5.768C83.7297 5.096 84.7057 4.76 85.9697 4.76H91.5137C91.8657 4.76 92.0417 4.928 92.0417 5.264V16.496C92.0417 16.832 91.8657 17 91.5137 17H89.4977C89.1617 17 88.9937 16.832 88.9937 16.496V15.704H88.8977C88.7217 16.136 88.4097 16.464 87.9617 16.688C87.5137 16.896 87.0417 17 86.5457 17ZM88.9937 12.536V7.664C88.9937 7.488 88.8977 7.4 88.7057 7.4H86.4497C85.9377 7.4 85.5777 7.512 85.3697 7.736C85.1617 7.944 85.0577 8.304 85.0577 8.816V12.944C85.0577 13.456 85.1617 13.824 85.3697 14.048C85.5777 14.256 85.9377 14.36 86.4497 14.36H87.3377C88.4417 14.36 88.9937 13.752 88.9937 12.536ZM2.61 39.19H6.066C6.618 39.19 7.038 39.04 7.326 38.74C7.626 38.428 7.776 37.984 7.776 37.408V31.018C7.776 30.442 7.626 30.004 7.326 29.704C7.038 29.392 6.618 29.236 6.066 29.236H2.61C2.49 29.236 2.43 29.29 2.43 29.398V39.028C2.43 39.136 2.49 39.19 2.61 39.19ZM1.53 39.784V28.642C1.53 28.498 1.59 28.426 1.71 28.426H6.156C6.936 28.426 7.548 28.654 7.992 29.11C8.448 29.566 8.676 30.19 8.676 30.982V37.444C8.676 38.236 8.448 38.86 7.992 39.316C7.548 39.772 6.936 40 6.156 40H1.71C1.59 40 1.53 39.928 1.53 39.784ZM11.4595 29.308V27.58C11.4595 27.448 11.5195 27.382 11.6395 27.382H12.1795C12.2995 27.382 12.3595 27.448 12.3595 27.58V29.308C12.3595 29.452 12.2995 29.524 12.1795 29.524H11.6395C11.5195 29.524 11.4595 29.452 11.4595 29.308ZM11.4595 39.784V31.036C11.4595 30.892 11.5195 30.82 11.6395 30.82H12.1615C12.2935 30.82 12.3595 30.892 12.3595 31.036V39.784C12.3595 39.928 12.2995 40 12.1795 40H11.6395C11.5195 40 11.4595 39.928 11.4595 39.784ZM15.8508 40H15.3288C15.2088 40 15.1488 39.928 15.1488 39.784V31.036C15.1488 30.892 15.2088 30.82 15.3288 30.82H15.8508C15.9828 30.82 16.0488 30.892 16.0488 31.036V31.792H16.1208C16.2528 31.54 16.4868 31.318 16.8228 31.126C17.1588 30.922 17.5728 30.82 18.0648 30.82H18.7668C18.8988 30.82 18.9648 30.886 18.9648 31.018V31.45C18.9648 31.582 18.8988 31.642 18.7668 31.63H17.9208C17.3328 31.63 16.8708 31.81 16.5348 32.17C16.2108 32.53 16.0488 33.016 16.0488 33.628V39.784C16.0488 39.928 15.9828 40 15.8508 40ZM26.8934 40H23.1314C22.3514 40 21.7334 39.772 21.2774 39.316C20.8334 38.86 20.6114 38.236 20.6114 37.444V33.376C20.6114 32.584 20.8334 31.96 21.2774 31.504C21.7334 31.048 22.3514 30.82 23.1314 30.82H24.6794C25.4594 30.82 26.0774 31.048 26.5334 31.504C26.9894 31.96 27.2174 32.584 27.2174 33.376V35.662C27.2174 35.806 27.1454 35.878 27.0014 35.878H21.6734C21.5654 35.878 21.5114 35.932 21.5114 36.04V37.426C21.5114 37.99 21.6554 38.428 21.9434 38.74C22.2314 39.04 22.6514 39.19 23.2034 39.19H26.8934C27.0254 39.19 27.0914 39.256 27.0914 39.388V39.802C27.0914 39.934 27.0254 40 26.8934 40ZM21.6734 35.158H26.1554C26.2634 35.158 26.3174 35.104 26.3174 34.996V33.394C26.3174 32.83 26.1734 32.398 25.8854 32.098C25.5974 31.786 25.1774 31.63 24.6254 31.63H23.2034C22.6514 31.63 22.2314 31.786 21.9434 32.098C21.6554 32.398 21.5114 32.83 21.5114 33.394V34.996C21.5114 35.104 21.5654 35.158 21.6734 35.158ZM34.7808 39.388V39.802C34.7808 39.934 34.7148 40 34.5828 40H31.9908C31.2108 40 30.5928 39.772 30.1368 39.316C29.6928 38.86 29.4708 38.236 29.4708 37.444V33.376C29.4708 32.584 29.6928 31.96 30.1368 31.504C30.5928 31.048 31.2108 30.82 31.9908 30.82H34.5828C34.7148 30.82 34.7808 30.886 34.7808 31.018V31.45C34.7808 31.57 34.7148 31.63 34.5828 31.63H32.0628C31.5108 31.63 31.0908 31.786 30.8028 32.098C30.5148 32.41 30.3708 32.848 30.3708 33.412V37.408C30.3708 37.972 30.5148 38.41 30.8028 38.722C31.0908 39.034 31.5108 39.19 32.0628 39.19H34.5828C34.7148 39.19 34.7808 39.256 34.7808 39.388ZM37.1308 31.63H36.0328C35.9008 31.63 35.8348 31.57 35.8348 31.45V31.018C35.8348 30.886 35.9008 30.82 36.0328 30.82H37.1308C37.2388 30.82 37.2928 30.766 37.2928 30.658V29.2C37.2928 29.056 37.3588 28.984 37.4908 28.984H38.0128C38.1448 28.984 38.2108 29.056 38.2108 29.2V30.658C38.2108 30.766 38.2648 30.82 38.3728 30.82H40.5148C40.6468 30.82 40.7128 30.886 40.7128 31.018V31.45C40.7128 31.57 40.6468 31.63 40.5148 31.63H38.3728C38.2648 31.63 38.2108 31.684 38.2108 31.792V37.462C38.2108 38.014 38.3668 38.44 38.6788 38.74C38.9908 39.04 39.4288 39.19 39.9928 39.19H40.6948C40.8268 39.19 40.8928 39.256 40.8928 39.388V39.802C40.8928 39.934 40.8268 40 40.6948 40H39.9208C39.1288 40 38.4928 39.778 38.0128 39.334C37.5328 38.89 37.2928 38.278 37.2928 37.498V31.792C37.2928 31.684 37.2388 31.63 37.1308 31.63ZM46.863 40H45.315C44.535 40 43.917 39.772 43.461 39.316C43.017 38.86 42.795 38.236 42.795 37.444V33.376C42.795 32.584 43.017 31.96 43.461 31.504C43.917 31.048 44.535 30.82 45.315 30.82H46.863C47.643 30.82 48.261 31.048 48.717 31.504C49.173 31.96 49.401 32.584 49.401 33.376V37.444C49.401 38.236 49.173 38.86 48.717 39.316C48.261 39.772 47.643 40 46.863 40ZM45.387 39.19H46.791C47.343 39.19 47.763 39.04 48.051 38.74C48.351 38.428 48.501 37.99 48.501 37.426V33.394C48.501 32.83 48.351 32.398 48.051 32.098C47.763 31.786 47.343 31.63 46.791 31.63H45.387C44.835 31.63 44.415 31.786 44.127 32.098C43.839 32.398 43.695 32.83 43.695 33.394V37.426C43.695 37.99 43.839 38.428 44.127 38.74C44.415 39.04 44.835 39.19 45.387 39.19ZM52.6067 40H52.0847C51.9647 40 51.9047 39.928 51.9047 39.784V31.036C51.9047 30.892 51.9647 30.82 52.0847 30.82H52.6067C52.7387 30.82 52.8047 30.892 52.8047 31.036V31.792H52.8767C53.0087 31.54 53.2427 31.318 53.5787 31.126C53.9147 30.922 54.3287 30.82 54.8207 30.82H55.5227C55.6547 30.82 55.7207 30.886 55.7207 31.018V31.45C55.7207 31.582 55.6547 31.642 55.5227 31.63H54.6767C54.0887 31.63 53.6267 31.81 53.2907 32.17C52.9667 32.53 52.8047 33.016 52.8047 33.628V39.784C52.8047 39.928 52.7387 40 52.6067 40ZM66.2341 40H64.6861C63.9061 40 63.2881 39.772 62.8321 39.316C62.3881 38.86 62.1661 38.236 62.1661 37.444V33.376C62.1661 32.584 62.3881 31.96 62.8321 31.504C63.2881 31.048 63.9061 30.82 64.6861 30.82H66.2341C67.0141 30.82 67.6321 31.048 68.0881 31.504C68.5441 31.96 68.7721 32.584 68.7721 33.376V37.444C68.7721 38.236 68.5441 38.86 68.0881 39.316C67.6321 39.772 67.0141 40 66.2341 40ZM64.7581 39.19H66.1621C66.7141 39.19 67.1341 39.04 67.4221 38.74C67.7221 38.428 67.8721 37.99 67.8721 37.426V33.394C67.8721 32.83 67.7221 32.398 67.4221 32.098C67.1341 31.786 66.7141 31.63 66.1621 31.63H64.7581C64.2061 31.63 63.7861 31.786 63.4981 32.098C63.2101 32.398 63.0661 32.83 63.0661 33.394V37.426C63.0661 37.99 63.2101 38.428 63.4981 38.74C63.7861 39.04 64.2061 39.19 64.7581 39.19ZM73.1658 30.82H74.8038C74.9478 30.82 75.0198 30.886 75.0198 31.018V31.432C75.0198 31.564 74.9478 31.63 74.8038 31.63H73.1658C73.0578 31.63 73.0038 31.684 73.0038 31.792V39.784C73.0038 39.928 72.9378 40 72.8058 40H72.2838C72.1518 40 72.0858 39.928 72.0858 39.784V31.792C72.0858 31.684 72.0318 31.63 71.9238 31.63H70.7718C70.6398 31.63 70.5738 31.564 70.5738 31.432V31.018C70.5738 30.886 70.6398 30.82 70.7718 30.82H71.9238C72.0318 30.82 72.0858 30.766 72.0858 30.658V29.866C72.0858 28.186 72.8478 27.346 74.3718 27.346H74.8038C74.9478 27.346 75.0198 27.412 75.0198 27.544V27.958C75.0198 28.09 74.9478 28.156 74.8038 28.156H74.4618C73.9218 28.156 73.5438 28.3 73.3278 28.588C73.1118 28.876 73.0038 29.314 73.0038 29.902V30.658C73.0038 30.766 73.0578 30.82 73.1658 30.82ZM82.7838 39.208H86.1318C87.2718 39.208 87.8418 38.632 87.8418 37.48V36.238C87.8418 35.098 87.2178 34.528 85.9698 34.528H82.7838C82.6638 34.528 82.6038 34.576 82.6038 34.672V39.046C82.6038 39.154 82.6638 39.208 82.7838 39.208ZM82.7838 33.736H85.9518C86.5158 33.736 86.9478 33.586 87.2478 33.286C87.5598 32.986 87.7158 32.56 87.7158 32.008V30.946C87.7158 29.794 87.1458 29.218 86.0058 29.218H82.7838C82.6638 29.218 82.6038 29.272 82.6038 29.38V33.574C82.6038 33.682 82.6638 33.736 82.7838 33.736ZM81.7038 39.784V28.642C81.7038 28.498 81.7638 28.426 81.8838 28.426H86.0778C86.8578 28.426 87.4758 28.648 87.9318 29.092C88.3878 29.536 88.6158 30.148 88.6158 30.928V32.026C88.6158 33.118 88.0998 33.82 87.0678 34.132C87.5118 34.156 87.9018 34.36 88.2378 34.744C88.5738 35.128 88.7418 35.626 88.7418 36.238V37.498C88.7418 38.278 88.5138 38.89 88.0578 39.334C87.6018 39.778 86.9838 40 86.2038 40H81.8838C81.7638 40 81.7038 39.928 81.7038 39.784ZM94.932 40H93.744C92.976 40 92.37 39.772 91.926 39.316C91.482 38.86 91.26 38.236 91.26 37.444V31.036C91.26 30.892 91.32 30.82 91.44 30.82H91.962C92.094 30.82 92.16 30.892 92.16 31.036V37.408C92.16 37.972 92.304 38.41 92.592 38.722C92.88 39.034 93.3 39.19 93.852 39.19H95.022C95.598 39.19 96.048 39.04 96.372 38.74C96.708 38.428 96.876 37.99 96.876 37.426V31.036C96.876 30.892 96.942 30.82 97.074 30.82H97.596C97.716 30.82 97.776 30.892 97.776 31.036V39.784C97.776 39.928 97.716 40 97.596 40H97.074C96.942 40 96.876 39.928 96.876 39.784V39.064H96.804C96.492 39.688 95.868 40 94.932 40ZM103.443 40H100.311C100.179 40 100.113 39.934 100.113 39.802V39.388C100.113 39.268 100.179 39.208 100.311 39.208H103.353C104.433 39.208 104.973 38.788 104.973 37.948V37.516C104.973 36.736 104.637 36.226 103.965 35.986L101.715 35.122C101.103 34.882 100.665 34.6 100.401 34.276C100.149 33.952 100.023 33.502 100.023 32.926C100.023 31.522 100.797 30.82 102.345 30.82H105.261C105.393 30.82 105.459 30.886 105.459 31.018V31.432C105.459 31.552 105.393 31.612 105.261 31.612H102.435C101.943 31.612 101.571 31.72 101.319 31.936C101.079 32.152 100.959 32.404 100.959 32.692V33.106C100.959 33.442 101.049 33.706 101.229 33.898C101.421 34.09 101.709 34.252 102.093 34.384L104.343 35.284C104.967 35.488 105.381 35.794 105.585 36.202C105.801 36.598 105.909 37.156 105.909 37.876C105.909 38.596 105.705 39.13 105.297 39.478C104.901 39.826 104.283 40 103.443 40ZM108.315 29.308V27.58C108.315 27.448 108.375 27.382 108.495 27.382H109.035C109.155 27.382 109.215 27.448 109.215 27.58V29.308C109.215 29.452 109.155 29.524 109.035 29.524H108.495C108.375 29.524 108.315 29.452 108.315 29.308ZM108.315 39.784V31.036C108.315 30.892 108.375 30.82 108.495 30.82H109.017C109.149 30.82 109.215 30.892 109.215 31.036V39.784C109.215 39.928 109.155 40 109.035 40H108.495C108.375 40 108.315 39.928 108.315 39.784ZM112.706 40H112.184C112.064 40 112.004 39.928 112.004 39.784V31.036C112.004 30.892 112.064 30.82 112.184 30.82H112.706C112.838 30.82 112.904 30.892 112.904 31.036V31.756H112.976C113.312 31.132 113.936 30.82 114.848 30.82H116.036C116.804 30.82 117.41 31.048 117.854 31.504C118.298 31.96 118.52 32.584 118.52 33.376V39.784C118.52 39.928 118.46 40 118.34 40H117.818C117.686 40 117.62 39.928 117.62 39.784V33.412C117.62 32.848 117.476 32.41 117.188 32.098C116.9 31.786 116.48 31.63 115.928 31.63H114.758C114.182 31.63 113.726 31.786 113.39 32.098C113.066 32.398 112.904 32.83 112.904 33.394V39.784C112.904 39.928 112.838 40 112.706 40ZM127.229 40H123.467C122.687 40 122.069 39.772 121.613 39.316C121.169 38.86 120.947 38.236 120.947 37.444V33.376C120.947 32.584 121.169 31.96 121.613 31.504C122.069 31.048 122.687 30.82 123.467 30.82H125.015C125.795 30.82 126.413 31.048 126.869 31.504C127.325 31.96 127.553 32.584 127.553 33.376V35.662C127.553 35.806 127.481 35.878 127.337 35.878H122.009C121.901 35.878 121.847 35.932 121.847 36.04V37.426C121.847 37.99 121.991 38.428 122.279 38.74C122.567 39.04 122.987 39.19 123.539 39.19H127.229C127.361 39.19 127.427 39.256 127.427 39.388V39.802C127.427 39.934 127.361 40 127.229 40ZM122.009 35.158H126.491C126.599 35.158 126.653 35.104 126.653 34.996V33.394C126.653 32.83 126.509 32.398 126.221 32.098C125.933 31.786 125.513 31.63 124.961 31.63H123.539C122.987 31.63 122.567 31.786 122.279 32.098C121.991 32.398 121.847 32.83 121.847 33.394V34.996C121.847 35.104 121.901 35.158 122.009 35.158ZM132.957 40H129.825C129.693 40 129.627 39.934 129.627 39.802V39.388C129.627 39.268 129.693 39.208 129.825 39.208H132.867C133.947 39.208 134.487 38.788 134.487 37.948V37.516C134.487 36.736 134.151 36.226 133.479 35.986L131.229 35.122C130.617 34.882 130.179 34.6 129.915 34.276C129.663 33.952 129.537 33.502 129.537 32.926C129.537 31.522 130.311 30.82 131.859 30.82H134.775C134.907 30.82 134.973 30.886 134.973 31.018V31.432C134.973 31.552 134.907 31.612 134.775 31.612H131.949C131.457 31.612 131.085 31.72 130.833 31.936C130.593 32.152 130.473 32.404 130.473 32.692V33.106C130.473 33.442 130.563 33.706 130.743 33.898C130.935 34.09 131.223 34.252 131.607 34.384L133.857 35.284C134.481 35.488 134.895 35.794 135.099 36.202C135.315 36.598 135.423 37.156 135.423 37.876C135.423 38.596 135.219 39.13 134.811 39.478C134.415 39.826 133.797 40 132.957 40ZM140.709 40H137.577C137.445 40 137.379 39.934 137.379 39.802V39.388C137.379 39.268 137.445 39.208 137.577 39.208H140.619C141.699 39.208 142.239 38.788 142.239 37.948V37.516C142.239 36.736 141.903 36.226 141.231 35.986L138.981 35.122C138.369 34.882 137.931 34.6 137.667 34.276C137.415 33.952 137.289 33.502 137.289 32.926C137.289 31.522 138.063 30.82 139.611 30.82H142.527C142.659 30.82 142.725 30.886 142.725 31.018V31.432C142.725 31.552 142.659 31.612 142.527 31.612H139.701C139.209 31.612 138.837 31.72 138.585 31.936C138.345 32.152 138.225 32.404 138.225 32.692V33.106C138.225 33.442 138.315 33.706 138.495 33.898C138.687 34.09 138.975 34.252 139.359 34.384L141.609 35.284C142.233 35.488 142.647 35.794 142.851 36.202C143.067 36.598 143.175 37.156 143.175 37.876C143.175 38.596 142.971 39.13 142.563 39.478C142.167 39.826 141.549 40 140.709 40ZM152.827 39.19H154.195C155.131 39.19 155.671 38.77 155.815 37.93L152.611 34.258C151.615 34.318 151.117 34.906 151.117 36.022V37.462C151.117 38.614 151.687 39.19 152.827 39.19ZM154.195 40H152.755C151.975 40 151.357 39.778 150.901 39.334C150.445 38.89 150.217 38.278 150.217 37.498V35.968C150.217 35.368 150.373 34.846 150.685 34.402C150.997 33.958 151.477 33.724 152.125 33.7C151.573 33.028 151.297 32.32 151.297 31.576V30.928C151.297 30.148 151.525 29.536 151.981 29.092C152.449 28.648 153.073 28.426 153.853 28.426H154.285C155.065 28.426 155.683 28.648 156.139 29.092C156.595 29.536 156.823 30.148 156.823 30.928V31.756C156.823 31.9 156.757 31.972 156.625 31.972H156.103C155.971 31.972 155.905 31.9 155.905 31.756V30.946C155.905 29.794 155.353 29.218 154.249 29.218H153.907C153.355 29.218 152.935 29.368 152.647 29.668C152.359 29.956 152.215 30.382 152.215 30.946V31.576C152.215 31.948 152.269 32.266 152.377 32.53C152.497 32.794 152.701 33.088 152.989 33.412L154.123 34.708H158.425C158.569 34.708 158.641 34.774 158.641 34.906V35.338C158.641 35.47 158.569 35.536 158.425 35.536H154.807L158.533 39.838C158.605 39.946 158.587 40 158.479 40H157.795C157.675 40 157.573 39.952 157.489 39.856L156.427 38.65C156.091 39.55 155.347 40 154.195 40ZM171.751 40H166.189C166.069 40 166.009 39.928 166.009 39.784V28.642C166.009 28.498 166.069 28.426 166.189 28.426H171.751C171.895 28.426 171.967 28.492 171.967 28.624V29.038C171.967 29.17 171.895 29.236 171.751 29.236H167.089C166.969 29.236 166.909 29.29 166.909 29.398V33.538C166.909 33.646 166.969 33.7 167.089 33.7H171.247C171.379 33.7 171.445 33.766 171.445 33.898V34.312C171.445 34.444 171.379 34.51 171.247 34.51H167.089C166.969 34.51 166.909 34.564 166.909 34.672V39.028C166.909 39.136 166.969 39.19 167.089 39.19H171.751C171.895 39.19 171.967 39.256 171.967 39.388V39.802C171.967 39.934 171.895 40 171.751 40ZM175.197 40H174.675C174.555 40 174.495 39.928 174.495 39.784V31.036C174.495 30.892 174.555 30.82 174.675 30.82H175.197C175.329 30.82 175.395 30.892 175.395 31.036V31.756H175.467C175.803 31.132 176.427 30.82 177.339 30.82H178.527C179.295 30.82 179.901 31.048 180.345 31.504C180.789 31.96 181.011 32.584 181.011 33.376V39.784C181.011 39.928 180.951 40 180.831 40H180.309C180.177 40 180.111 39.928 180.111 39.784V33.412C180.111 32.848 179.967 32.41 179.679 32.098C179.391 31.786 178.971 31.63 178.419 31.63H177.249C176.673 31.63 176.217 31.786 175.881 32.098C175.557 32.398 175.395 32.83 175.395 33.394V39.784C175.395 39.928 175.329 40 175.197 40ZM184.014 31.63H182.916C182.784 31.63 182.718 31.57 182.718 31.45V31.018C182.718 30.886 182.784 30.82 182.916 30.82H184.014C184.122 30.82 184.176 30.766 184.176 30.658V29.2C184.176 29.056 184.242 28.984 184.374 28.984H184.896C185.028 28.984 185.094 29.056 185.094 29.2V30.658C185.094 30.766 185.148 30.82 185.256 30.82H187.398C187.53 30.82 187.596 30.886 187.596 31.018V31.45C187.596 31.57 187.53 31.63 187.398 31.63H185.256C185.148 31.63 185.094 31.684 185.094 31.792V37.462C185.094 38.014 185.25 38.44 185.562 38.74C185.874 39.04 186.312 39.19 186.876 39.19H187.578C187.71 39.19 187.776 39.256 187.776 39.388V39.802C187.776 39.934 187.71 40 187.578 40H186.804C186.012 40 185.376 39.778 184.896 39.334C184.416 38.89 184.176 38.278 184.176 37.498V31.792C184.176 31.684 184.122 31.63 184.014 31.63ZM195.96 40H192.198C191.418 40 190.8 39.772 190.344 39.316C189.9 38.86 189.678 38.236 189.678 37.444V33.376C189.678 32.584 189.9 31.96 190.344 31.504C190.8 31.048 191.418 30.82 192.198 30.82H193.746C194.526 30.82 195.144 31.048 195.6 31.504C196.056 31.96 196.284 32.584 196.284 33.376V35.662C196.284 35.806 196.212 35.878 196.068 35.878H190.74C190.632 35.878 190.578 35.932 190.578 36.04V37.426C190.578 37.99 190.722 38.428 191.01 38.74C191.298 39.04 191.718 39.19 192.27 39.19H195.96C196.092 39.19 196.158 39.256 196.158 39.388V39.802C196.158 39.934 196.092 40 195.96 40ZM190.74 35.158H195.222C195.33 35.158 195.384 35.104 195.384 34.996V33.394C195.384 32.83 195.24 32.398 194.952 32.098C194.664 31.786 194.244 31.63 193.692 31.63H192.27C191.718 31.63 191.298 31.786 191.01 32.098C190.722 32.398 190.578 32.83 190.578 33.394V34.996C190.578 35.104 190.632 35.158 190.74 35.158ZM199.419 40H198.897C198.777 40 198.717 39.928 198.717 39.784V31.036C198.717 30.892 198.777 30.82 198.897 30.82H199.419C199.551 30.82 199.617 30.892 199.617 31.036V31.792H199.689C199.821 31.54 200.055 31.318 200.391 31.126C200.727 30.922 201.141 30.82 201.633 30.82H202.335C202.467 30.82 202.533 30.886 202.533 31.018V31.45C202.533 31.582 202.467 31.642 202.335 31.63H201.489C200.901 31.63 200.439 31.81 200.103 32.17C199.779 32.53 199.617 33.016 199.617 33.628V39.784C199.617 39.928 199.551 40 199.419 40ZM205.062 42.682H204.54C204.42 42.682 204.36 42.616 204.36 42.484V31.036C204.36 30.892 204.42 30.82 204.54 30.82H205.062C205.194 30.82 205.26 30.892 205.26 31.036V31.756H205.332C205.668 31.132 206.292 30.82 207.204 30.82H208.428C209.196 30.82 209.802 31.048 210.246 31.504C210.69 31.96 210.912 32.584 210.912 33.376V37.444C210.912 38.236 210.69 38.86 210.246 39.316C209.802 39.772 209.196 40 208.428 40H207.204C206.292 40 205.668 39.688 205.332 39.064H205.26V42.484C205.26 42.616 205.194 42.682 205.062 42.682ZM207.114 39.19H208.302C208.854 39.19 209.274 39.04 209.562 38.74C209.862 38.428 210.012 37.984 210.012 37.408V33.412C210.012 32.836 209.862 32.398 209.562 32.098C209.274 31.786 208.854 31.63 208.302 31.63H207.114C206.538 31.63 206.082 31.786 205.746 32.098C205.422 32.398 205.26 32.83 205.26 33.394V37.426C205.26 37.99 205.422 38.428 205.746 38.74C206.082 39.04 206.538 39.19 207.114 39.19ZM214.132 40H213.61C213.49 40 213.43 39.928 213.43 39.784V31.036C213.43 30.892 213.49 30.82 213.61 30.82H214.132C214.264 30.82 214.33 30.892 214.33 31.036V31.792H214.402C214.534 31.54 214.768 31.318 215.104 31.126C215.44 30.922 215.854 30.82 216.346 30.82H217.048C217.18 30.82 217.246 30.886 217.246 31.018V31.45C217.246 31.582 217.18 31.642 217.048 31.63H216.202C215.614 31.63 215.152 31.81 214.816 32.17C214.492 32.53 214.33 33.016 214.33 33.628V39.784C214.33 39.928 214.264 40 214.132 40ZM219.163 29.308V27.58C219.163 27.448 219.223 27.382 219.343 27.382H219.883C220.003 27.382 220.063 27.448 220.063 27.58V29.308C220.063 29.452 220.003 29.524 219.883 29.524H219.343C219.223 29.524 219.163 29.452 219.163 29.308ZM219.163 39.784V31.036C219.163 30.892 219.223 30.82 219.343 30.82H219.865C219.997 30.82 220.063 30.892 220.063 31.036V39.784C220.063 39.928 220.003 40 219.883 40H219.343C219.223 40 219.163 39.928 219.163 39.784ZM225.822 40H222.69C222.558 40 222.492 39.934 222.492 39.802V39.388C222.492 39.268 222.558 39.208 222.69 39.208H225.732C226.812 39.208 227.352 38.788 227.352 37.948V37.516C227.352 36.736 227.016 36.226 226.344 35.986L224.094 35.122C223.482 34.882 223.044 34.6 222.78 34.276C222.528 33.952 222.402 33.502 222.402 32.926C222.402 31.522 223.176 30.82 224.724 30.82H227.64C227.772 30.82 227.838 30.886 227.838 31.018V31.432C227.838 31.552 227.772 31.612 227.64 31.612H224.814C224.322 31.612 223.95 31.72 223.698 31.936C223.458 32.152 223.338 32.404 223.338 32.692V33.106C223.338 33.442 223.428 33.706 223.608 33.898C223.8 34.09 224.088 34.252 224.472 34.384L226.722 35.284C227.346 35.488 227.76 35.794 227.964 36.202C228.18 36.598 228.288 37.156 228.288 37.876C228.288 38.596 228.084 39.13 227.676 39.478C227.28 39.826 226.662 40 225.822 40ZM236.706 40H232.944C232.164 40 231.546 39.772 231.09 39.316C230.646 38.86 230.424 38.236 230.424 37.444V33.376C230.424 32.584 230.646 31.96 231.09 31.504C231.546 31.048 232.164 30.82 232.944 30.82H234.492C235.272 30.82 235.89 31.048 236.346 31.504C236.802 31.96 237.03 32.584 237.03 33.376V35.662C237.03 35.806 236.958 35.878 236.814 35.878H231.486C231.378 35.878 231.324 35.932 231.324 36.04V37.426C231.324 37.99 231.468 38.428 231.756 38.74C232.044 39.04 232.464 39.19 233.016 39.19H236.706C236.838 39.19 236.904 39.256 236.904 39.388V39.802C236.904 39.934 236.838 40 236.706 40ZM231.486 35.158H235.968C236.076 35.158 236.13 35.104 236.13 34.996V33.394C236.13 32.83 235.986 32.398 235.698 32.098C235.41 31.786 234.99 31.63 234.438 31.63H233.016C232.464 31.63 232.044 31.786 231.756 32.098C231.468 32.398 231.324 32.83 231.324 33.394V34.996C231.324 35.104 231.378 35.158 231.486 35.158ZM1.224 63H0.666C0.534 63 0.492 62.928 0.54 62.784L4.122 51.642C4.158 51.498 4.242 51.426 4.374 51.426H5.22C5.34 51.426 5.424 51.498 5.472 51.642L9.054 62.784C9.09 62.928 9.048 63 8.928 63H8.352C8.232 63 8.154 62.928 8.118 62.784L7.146 59.904H2.43L1.458 62.784C1.41 62.928 1.332 63 1.224 63ZM4.752 52.416L2.682 59.094H6.912L4.824 52.416H4.752ZM11.6497 63H11.1277C11.0077 63 10.9477 62.928 10.9477 62.784V54.036C10.9477 53.892 11.0077 53.82 11.1277 53.82H11.6497C11.7817 53.82 11.8477 53.892 11.8477 54.036V54.792H11.9197C12.0517 54.54 12.2857 54.318 12.6217 54.126C12.9577 53.922 13.3717 53.82 13.8637 53.82H14.5657C14.6977 53.82 14.7637 53.886 14.7637 54.018V54.45C14.7637 54.582 14.6977 54.642 14.5657 54.63H13.7197C13.1317 54.63 12.6697 54.81 12.3337 55.17C12.0097 55.53 11.8477 56.016 11.8477 56.628V62.784C11.8477 62.928 11.7817 63 11.6497 63ZM21.7202 62.388V62.802C21.7202 62.934 21.6542 63 21.5222 63H18.9302C18.1502 63 17.5322 62.772 17.0762 62.316C16.6322 61.86 16.4102 61.236 16.4102 60.444V56.376C16.4102 55.584 16.6322 54.96 17.0762 54.504C17.5322 54.048 18.1502 53.82 18.9302 53.82H21.5222C21.6542 53.82 21.7202 53.886 21.7202 54.018V54.45C21.7202 54.57 21.6542 54.63 21.5222 54.63H19.0022C18.4502 54.63 18.0302 54.786 17.7422 55.098C17.4542 55.41 17.3102 55.848 17.3102 56.412V60.408C17.3102 60.972 17.4542 61.41 17.7422 61.722C18.0302 62.034 18.4502 62.19 19.0022 62.19H21.5222C21.6542 62.19 21.7202 62.256 21.7202 62.388ZM24.3762 63H23.8542C23.7342 63 23.6742 62.928 23.6742 62.784V50.562C23.6742 50.418 23.7342 50.346 23.8542 50.346H24.3762C24.5082 50.346 24.5742 50.418 24.5742 50.562V54.756H24.6462C24.9822 54.132 25.6062 53.82 26.5182 53.82H27.7062C28.4742 53.82 29.0802 54.048 29.5242 54.504C29.9682 54.96 30.1902 55.584 30.1902 56.376V62.784C30.1902 62.928 30.1302 63 30.0102 63H29.4882C29.3562 63 29.2902 62.928 29.2902 62.784V56.412C29.2902 55.848 29.1462 55.41 28.8582 55.098C28.5702 54.786 28.1502 54.63 27.5982 54.63H26.4282C25.8522 54.63 25.3962 54.786 25.0602 55.098C24.7362 55.398 24.5742 55.83 24.5742 56.394V62.784C24.5742 62.928 24.5082 63 24.3762 63ZM32.8873 52.308V50.58C32.8873 50.448 32.9473 50.382 33.0673 50.382H33.6073C33.7273 50.382 33.7873 50.448 33.7873 50.58V52.308C33.7873 52.452 33.7273 52.524 33.6073 52.524H33.0673C32.9473 52.524 32.8873 52.452 32.8873 52.308ZM32.8873 62.784V54.036C32.8873 53.892 32.9473 53.82 33.0673 53.82H33.5893C33.7213 53.82 33.7873 53.892 33.7873 54.036V62.784C33.7873 62.928 33.7273 63 33.6073 63H33.0673C32.9473 63 32.8873 62.928 32.8873 62.784ZM36.9726 54.63H35.8746C35.7426 54.63 35.6766 54.57 35.6766 54.45V54.018C35.6766 53.886 35.7426 53.82 35.8746 53.82H36.9726C37.0806 53.82 37.1346 53.766 37.1346 53.658V52.2C37.1346 52.056 37.2006 51.984 37.3326 51.984H37.8546C37.9866 51.984 38.0526 52.056 38.0526 52.2V53.658C38.0526 53.766 38.1066 53.82 38.2146 53.82H40.3566C40.4886 53.82 40.5546 53.886 40.5546 54.018V54.45C40.5546 54.57 40.4886 54.63 40.3566 54.63H38.2146C38.1066 54.63 38.0526 54.684 38.0526 54.792V60.462C38.0526 61.014 38.2086 61.44 38.5206 61.74C38.8326 62.04 39.2706 62.19 39.8346 62.19H40.5366C40.6686 62.19 40.7346 62.256 40.7346 62.388V62.802C40.7346 62.934 40.6686 63 40.5366 63H39.7626C38.9706 63 38.3346 62.778 37.8546 62.334C37.3746 61.89 37.1346 61.278 37.1346 60.498V54.792C37.1346 54.684 37.0806 54.63 36.9726 54.63ZM48.9188 63H45.1568C44.3768 63 43.7588 62.772 43.3028 62.316C42.8588 61.86 42.6368 61.236 42.6368 60.444V56.376C42.6368 55.584 42.8588 54.96 43.3028 54.504C43.7588 54.048 44.3768 53.82 45.1568 53.82H46.7048C47.4848 53.82 48.1028 54.048 48.5588 54.504C49.0148 54.96 49.2428 55.584 49.2428 56.376V58.662C49.2428 58.806 49.1708 58.878 49.0268 58.878H43.6988C43.5908 58.878 43.5368 58.932 43.5368 59.04V60.426C43.5368 60.99 43.6808 61.428 43.9688 61.74C44.2568 62.04 44.6768 62.19 45.2288 62.19H48.9188C49.0508 62.19 49.1168 62.256 49.1168 62.388V62.802C49.1168 62.934 49.0508 63 48.9188 63ZM43.6988 58.158H48.1808C48.2888 58.158 48.3428 58.104 48.3428 57.996V56.394C48.3428 55.83 48.1988 55.398 47.9108 55.098C47.6228 54.786 47.2028 54.63 46.6508 54.63H45.2288C44.6768 54.63 44.2568 54.786 43.9688 55.098C43.6808 55.398 43.5368 55.83 43.5368 56.394V57.996C43.5368 58.104 43.5908 58.158 43.6988 58.158ZM56.8062 62.388V62.802C56.8062 62.934 56.7402 63 56.6082 63H54.0162C53.2362 63 52.6182 62.772 52.1622 62.316C51.7182 61.86 51.4962 61.236 51.4962 60.444V56.376C51.4962 55.584 51.7182 54.96 52.1622 54.504C52.6182 54.048 53.2362 53.82 54.0162 53.82H56.6082C56.7402 53.82 56.8062 53.886 56.8062 54.018V54.45C56.8062 54.57 56.7402 54.63 56.6082 54.63H54.0882C53.5362 54.63 53.1162 54.786 52.8282 55.098C52.5402 55.41 52.3962 55.848 52.3962 56.412V60.408C52.3962 60.972 52.5402 61.41 52.8282 61.722C53.1162 62.034 53.5362 62.19 54.0882 62.19H56.6082C56.7402 62.19 56.8062 62.256 56.8062 62.388ZM59.1562 54.63H58.0582C57.9262 54.63 57.8602 54.57 57.8602 54.45V54.018C57.8602 53.886 57.9262 53.82 58.0582 53.82H59.1562C59.2642 53.82 59.3182 53.766 59.3182 53.658V52.2C59.3182 52.056 59.3842 51.984 59.5162 51.984H60.0382C60.1702 51.984 60.2362 52.056 60.2362 52.2V53.658C60.2362 53.766 60.2902 53.82 60.3982 53.82H62.5402C62.6722 53.82 62.7382 53.886 62.7382 54.018V54.45C62.7382 54.57 62.6722 54.63 62.5402 54.63H60.3982C60.2902 54.63 60.2362 54.684 60.2362 54.792V60.462C60.2362 61.014 60.3922 61.44 60.7042 61.74C61.0162 62.04 61.4542 62.19 62.0182 62.19H62.7202C62.8522 62.19 62.9182 62.256 62.9182 62.388V62.802C62.9182 62.934 62.8522 63 62.7202 63H61.9462C61.1542 63 60.5182 62.778 60.0382 62.334C59.5582 61.89 59.3182 61.278 59.3182 60.498V54.792C59.3182 54.684 59.2642 54.63 59.1562 54.63Z" fill="#5A5A5A"/>
</svg>
