<svg width="197" height="97" viewBox="0 0 197 97" fill="none" xmlns="http://www.w3.org/2000/svg">
<path d="M7.824 17H5.28C4.016 17 3.04 16.664 2.352 15.992C1.664 15.32 1.32 14.352 1.32 13.088V5.48C1.32 4.216 1.664 3.248 2.352 2.576C3.04 1.904 4.016 1.568 5.28 1.568H7.824C9.072 1.568 10.04 1.912 10.728 2.6C11.416 3.272 11.76 4.232 11.76 5.48V6.2C11.76 6.552 11.592 6.728 11.256 6.728H9.216C8.88 6.728 8.712 6.552 8.712 6.2V5.624C8.712 5.112 8.608 4.752 8.4 4.544C8.192 4.32 7.832 4.208 7.32 4.208H5.76C5.264 4.208 4.904 4.32 4.68 4.544C4.472 4.752 4.368 5.112 4.368 5.624V12.944C4.368 13.456 4.472 13.824 4.68 14.048C4.904 14.256 5.264 14.36 5.76 14.36H7.32C7.832 14.36 8.192 14.256 8.4 14.048C8.608 13.824 8.712 13.456 8.712 12.944V11.432C8.712 11.256 8.624 11.168 8.448 11.168H7.008C6.672 11.168 6.504 11 6.504 10.664V9.032C6.504 8.696 6.672 8.528 7.008 8.528H11.208C11.576 8.528 11.76 8.712 11.76 9.08V13.088C11.76 14.336 11.416 15.304 10.728 15.992C10.04 16.664 9.072 17 7.824 17ZM17.7101 14.36H20.1581C20.6701 14.36 21.0301 14.256 21.2381 14.048C21.4621 13.824 21.5741 13.456 21.5741 12.944V8.768C21.5741 8.256 21.4621 7.896 21.2381 7.688C21.0301 7.464 20.6701 7.352 20.1581 7.352H19.1021C17.9981 7.352 17.4461 7.96 17.4461 9.176V14.096C17.4461 14.272 17.5341 14.36 17.7101 14.36ZM14.3981 16.496V0.631999C14.3981 0.296 14.5661 0.128 14.9021 0.128H16.9421C17.2781 0.128 17.4461 0.296 17.4461 0.631999V6.032H17.5421C17.7181 5.6 18.0301 5.272 18.4781 5.048C18.9261 4.824 19.3981 4.712 19.8941 4.712H20.6621C21.9261 4.712 22.9021 5.048 23.5901 5.72C24.2781 6.392 24.6221 7.36 24.6221 8.624V13.088C24.6221 14.352 24.2781 15.32 23.5901 15.992C22.9021 16.664 21.9261 17 20.6621 17H14.9021C14.5661 17 14.3981 16.832 14.3981 16.496ZM31.3269 17H30.7509C29.4869 17 28.5109 16.664 27.8229 15.992C27.1349 15.32 26.7909 14.352 26.7909 13.088V8.672C26.7909 7.408 27.1349 6.44 27.8229 5.768C28.5109 5.096 29.4869 4.76 30.7509 4.76H36.2949C36.6469 4.76 36.8229 4.928 36.8229 5.264V16.496C36.8229 16.832 36.6469 17 36.2949 17H34.2789C33.9429 17 33.7749 16.832 33.7749 16.496V15.704H33.6789C33.5029 16.136 33.1909 16.464 32.7429 16.688C32.2949 16.896 31.8229 17 31.3269 17ZM33.7749 12.536V7.664C33.7749 7.488 33.6789 7.4 33.4869 7.4H31.2309C30.7189 7.4 30.3589 7.512 30.1509 7.736C29.9429 7.944 29.8389 8.304 29.8389 8.816V12.944C29.8389 13.456 29.9429 13.824 30.1509 14.048C30.3589 14.256 30.7189 14.36 31.2309 14.36H32.1189C33.2229 14.36 33.7749 13.752 33.7749 12.536ZM43.9408 17H42.9568C41.7248 17 40.7888 16.664 40.1488 15.992C39.5248 15.32 39.2128 14.352 39.2128 13.088V8.672C39.2128 7.408 39.5248 6.44 40.1488 5.768C40.7888 5.096 41.7248 4.76 42.9568 4.76H43.9408C44.4368 4.76 44.9088 4.872 45.3568 5.096C45.8048 5.304 46.1168 5.624 46.2928 6.056H46.3888V0.631999C46.3888 0.296 46.5568 0.128 46.8928 0.128H48.9328C49.2688 0.128 49.4368 0.296 49.4368 0.631999V16.496C49.4368 16.832 49.2688 17 48.9328 17H46.8928C46.5568 17 46.3888 16.832 46.3888 16.496V15.704H46.2928C46.1168 16.136 45.8048 16.464 45.3568 16.688C44.9088 16.896 44.4368 17 43.9408 17ZM46.3888 12.536V9.224C46.3888 8.008 45.8368 7.4 44.7328 7.4H43.6528C43.1408 7.4 42.7808 7.512 42.5728 7.736C42.3648 7.944 42.2608 8.304 42.2608 8.816V12.944C42.2608 13.456 42.3648 13.824 42.5728 14.048C42.7808 14.256 43.1408 14.36 43.6528 14.36H44.7328C45.8368 14.36 46.3888 13.752 46.3888 12.536ZM61.1096 17H55.8056C54.5416 17 53.5656 16.664 52.8776 15.992C52.1896 15.32 51.8456 14.352 51.8456 13.088V8.672C51.8456 7.408 52.1896 6.44 52.8776 5.768C53.5656 5.096 54.5416 4.76 55.8056 4.76H57.7016C58.9656 4.76 59.9416 5.096 60.6296 5.768C61.3176 6.44 61.6616 7.408 61.6616 8.672V11.72C61.6616 12.056 61.4936 12.224 61.1576 12.224H55.1336C54.9416 12.224 54.8456 12.312 54.8456 12.488V13.016C54.8456 13.512 54.9496 13.872 55.1576 14.096C55.3816 14.304 55.7496 14.408 56.2616 14.408H61.1096C61.4456 14.408 61.6136 14.584 61.6136 14.936V16.52C61.6136 16.696 61.5736 16.824 61.4936 16.904C61.4296 16.968 61.3016 17 61.1096 17ZM55.1336 10.184H58.3976C58.5736 10.184 58.6616 10.096 58.6616 9.92V8.768C58.6616 8.256 58.5576 7.896 58.3496 7.688C58.1416 7.48 57.7816 7.376 57.2696 7.376H56.2616C55.7496 7.376 55.3896 7.48 55.1816 7.688C54.9736 7.896 54.8696 8.256 54.8696 8.768V9.92C54.8696 10.096 54.9576 10.184 55.1336 10.184ZM67.257 14.36H69.705C70.217 14.36 70.577 14.256 70.785 14.048C71.009 13.824 71.121 13.456 71.121 12.944V8.768C71.121 8.256 71.009 7.896 70.785 7.688C70.577 7.464 70.217 7.352 69.705 7.352H68.649C67.545 7.352 66.993 7.96 66.993 9.176V14.096C66.993 14.272 67.081 14.36 67.257 14.36ZM63.945 16.496V0.631999C63.945 0.296 64.113 0.128 64.449 0.128H66.489C66.825 0.128 66.993 0.296 66.993 0.631999V6.032H67.089C67.265 5.6 67.577 5.272 68.025 5.048C68.473 4.824 68.945 4.712 69.441 4.712H70.209C71.473 4.712 72.449 5.048 73.137 5.72C73.825 6.392 74.169 7.36 74.169 8.624V13.088C74.169 14.352 73.825 15.32 73.137 15.992C72.449 16.664 71.473 17 70.209 17H64.449C64.113 17 63.945 16.832 63.945 16.496ZM82.4338 17H80.2978C79.0338 17 78.0578 16.664 77.3698 15.992C76.6818 15.32 76.3378 14.352 76.3378 13.088V8.672C76.3378 7.408 76.6818 6.44 77.3698 5.768C78.0578 5.096 79.0338 4.76 80.2978 4.76H82.4338C83.6818 4.76 84.6498 5.104 85.3378 5.792C86.0418 6.464 86.3938 7.424 86.3938 8.672V13.088C86.3938 14.336 86.0418 15.304 85.3378 15.992C84.6498 16.664 83.6818 17 82.4338 17ZM80.7538 14.384H81.9778C82.4898 14.384 82.8498 14.28 83.0578 14.072C83.2818 13.864 83.3938 13.504 83.3938 12.992V8.768C83.3938 8.256 83.2818 7.896 83.0578 7.688C82.8498 7.48 82.4898 7.376 81.9778 7.376H80.7538C80.2418 7.376 79.8818 7.48 79.6738 7.688C79.4658 7.896 79.3618 8.256 79.3618 8.768V12.992C79.3618 13.504 79.4658 13.864 79.6738 14.072C79.8818 14.28 80.2418 14.384 80.7538 14.384ZM96.8462 17H94.8062C94.4702 17 94.3022 16.832 94.3022 16.496V2.072C94.3022 1.736 94.4702 1.568 94.8062 1.568H100.662C101.91 1.568 102.878 1.912 103.566 2.6C104.254 3.272 104.598 4.232 104.598 5.48V7.784C104.598 9.032 104.254 10 103.566 10.688C102.878 11.36 101.91 11.696 100.662 11.696H97.6382C97.4462 11.696 97.3502 11.784 97.3502 11.96V16.496C97.3502 16.832 97.1822 17 96.8462 17ZM97.6142 9.032H100.158C100.67 9.032 101.03 8.928 101.238 8.72C101.446 8.496 101.55 8.136 101.55 7.64V5.624C101.55 5.112 101.446 4.752 101.238 4.544C101.03 4.32 100.67 4.208 100.158 4.208H97.6142C97.4382 4.208 97.3502 4.296 97.3502 4.472V8.768C97.3502 8.944 97.4382 9.032 97.6142 9.032ZM109.453 13.544V16.496C109.453 16.832 109.301 17 108.997 17H106.861C106.541 17 106.381 16.832 106.381 16.496V13.568C106.381 13.248 106.541 13.088 106.861 13.088H108.997C109.301 13.088 109.453 13.24 109.453 13.544ZM119.745 17H117.705C117.369 17 117.201 16.832 117.201 16.496V2.072C117.201 1.736 117.369 1.568 117.705 1.568H123.417C124.665 1.568 125.641 1.912 126.345 2.6C127.049 3.288 127.401 4.256 127.401 5.504V7.376C127.401 9.184 126.689 10.384 125.265 10.976V11.072L127.833 16.424C127.977 16.808 127.841 17 127.425 17H125.481C125.193 17 124.985 16.968 124.857 16.904C124.729 16.84 124.625 16.704 124.545 16.496L122.145 11.312H120.537C120.345 11.312 120.249 11.4 120.249 11.576V16.496C120.249 16.832 120.081 17 119.745 17ZM120.513 8.864H122.865C123.377 8.864 123.753 8.76 123.993 8.552C124.233 8.328 124.353 7.976 124.353 7.496V5.624C124.353 5.128 124.233 4.768 123.993 4.544C123.753 4.32 123.377 4.208 122.865 4.208H120.513C120.337 4.208 120.249 4.296 120.249 4.472V8.6C120.249 8.776 120.337 8.864 120.513 8.864ZM132.63 17H130.59C130.254 17 130.086 16.832 130.086 16.496V0.631999C130.086 0.296 130.254 0.128 130.59 0.128H132.63C132.966 0.128 133.134 0.296 133.134 0.631999V6.056H133.23C133.582 5.192 134.366 4.76 135.582 4.76H136.35C138.862 4.76 140.118 6.064 140.118 8.672V16.496C140.118 16.832 139.942 17 139.59 17H137.574C137.238 17 137.07 16.832 137.07 16.496V8.816C137.07 8.304 136.958 7.944 136.734 7.736C136.526 7.512 136.166 7.4 135.654 7.4H134.79C133.686 7.4 133.134 8.008 133.134 9.224V16.496C133.134 16.832 132.966 17 132.63 17ZM148.504 17H146.368C145.104 17 144.128 16.664 143.44 15.992C142.752 15.32 142.408 14.352 142.408 13.088V8.672C142.408 7.408 142.752 6.44 143.44 5.768C144.128 5.096 145.104 4.76 146.368 4.76H148.504C149.752 4.76 150.72 5.104 151.408 5.792C152.112 6.464 152.464 7.424 152.464 8.672V13.088C152.464 14.336 152.112 15.304 151.408 15.992C150.72 16.664 149.752 17 148.504 17ZM146.824 14.384H148.048C148.56 14.384 148.92 14.28 149.128 14.072C149.352 13.864 149.464 13.504 149.464 12.992V8.768C149.464 8.256 149.352 7.896 149.128 7.688C148.92 7.48 148.56 7.376 148.048 7.376H146.824C146.312 7.376 145.952 7.48 145.744 7.688C145.536 7.896 145.432 8.256 145.432 8.768V12.992C145.432 13.504 145.536 13.864 145.744 14.072C145.952 14.28 146.312 14.384 146.824 14.384ZM159.347 17H158.363C157.131 17 156.195 16.664 155.555 15.992C154.931 15.32 154.619 14.352 154.619 13.088V8.672C154.619 7.408 154.931 6.44 155.555 5.768C156.195 5.096 157.131 4.76 158.363 4.76H159.347C159.843 4.76 160.315 4.872 160.763 5.096C161.211 5.304 161.523 5.624 161.699 6.056H161.795V0.631999C161.795 0.296 161.963 0.128 162.299 0.128H164.339C164.675 0.128 164.843 0.296 164.843 0.631999V16.496C164.843 16.832 164.675 17 164.339 17H162.299C161.963 17 161.795 16.832 161.795 16.496V15.704H161.699C161.523 16.136 161.211 16.464 160.763 16.688C160.315 16.896 159.843 17 159.347 17ZM161.795 12.536V9.224C161.795 8.008 161.243 7.4 160.139 7.4H159.059C158.547 7.4 158.187 7.512 157.979 7.736C157.771 7.944 157.667 8.304 157.667 8.816V12.944C157.667 13.456 157.771 13.824 157.979 14.048C158.187 14.256 158.547 14.36 159.059 14.36H160.139C161.243 14.36 161.795 13.752 161.795 12.536ZM176.516 17H171.212C169.948 17 168.972 16.664 168.284 15.992C167.596 15.32 167.252 14.352 167.252 13.088V8.672C167.252 7.408 167.596 6.44 168.284 5.768C168.972 5.096 169.948 4.76 171.212 4.76H173.108C174.372 4.76 175.348 5.096 176.036 5.768C176.724 6.44 177.068 7.408 177.068 8.672V11.72C177.068 12.056 176.9 12.224 176.564 12.224H170.54C170.348 12.224 170.252 12.312 170.252 12.488V13.016C170.252 13.512 170.356 13.872 170.564 14.096C170.788 14.304 171.156 14.408 171.668 14.408H176.516C176.852 14.408 177.02 14.584 177.02 14.936V16.52C177.02 16.696 176.98 16.824 176.9 16.904C176.836 16.968 176.708 17 176.516 17ZM170.54 10.184H173.804C173.98 10.184 174.068 10.096 174.068 9.92V8.768C174.068 8.256 173.964 7.896 173.756 7.688C173.548 7.48 173.188 7.376 172.676 7.376H171.668C171.156 7.376 170.796 7.48 170.588 7.688C170.38 7.896 170.276 8.256 170.276 8.768V9.92C170.276 10.096 170.364 10.184 170.54 10.184ZM183.983 17H179.423C179.103 17 178.943 16.832 178.943 16.496V14.96C178.943 14.784 178.975 14.664 179.039 14.6C179.103 14.52 179.231 14.48 179.423 14.48H183.431C184.215 14.48 184.607 14.24 184.607 13.76V13.64C184.607 13.256 184.279 12.888 183.623 12.536L181.247 11.216C180.431 10.8 179.831 10.352 179.447 9.872C179.063 9.392 178.871 8.776 178.871 8.024C178.871 6.904 179.167 6.08 179.759 5.552C180.351 5.024 181.279 4.76 182.543 4.76H186.551C186.871 4.76 187.031 4.928 187.031 5.264V6.824C187.031 7 186.999 7.128 186.935 7.208C186.871 7.272 186.743 7.304 186.551 7.304H183.215C182.431 7.304 182.039 7.504 182.039 7.904V8.024C182.039 8.376 182.383 8.736 183.071 9.104L185.495 10.544C186.327 10.992 186.911 11.456 187.247 11.936C187.583 12.4 187.751 13.016 187.751 13.784C187.751 15.928 186.495 17 183.983 17ZM194.579 10.568H190.019C189.683 10.568 189.515 10.4 189.515 10.064V8.648C189.515 8.296 189.683 8.12 190.019 8.12H194.579C194.915 8.12 195.083 8.296 195.083 8.648V10.064C195.083 10.4 194.915 10.568 194.579 10.568ZM7.848 48H4.704C4.368 48 4.168 47.832 4.104 47.496L0.384 33.12C0.272 32.752 0.432 32.568 0.864 32.568H3.12C3.44 32.568 3.632 32.736 3.696 33.072L6.216 44.88H6.312L8.832 33.072C8.896 32.736 9.088 32.568 9.408 32.568H11.664C12.064 32.568 12.224 32.752 12.144 33.12L8.424 47.496C8.344 47.832 8.152 48 7.848 48ZM13.9556 33.696V31.608C13.9556 31.288 14.1156 31.128 14.4356 31.128H16.5236C16.8436 31.128 17.0036 31.28 17.0036 31.584V33.696C17.0036 34.016 16.8436 34.176 16.5236 34.176H14.4356C14.1156 34.176 13.9556 34.016 13.9556 33.696ZM13.9556 47.496V36.264C13.9556 35.928 14.1156 35.76 14.4356 35.76H16.4996C16.8356 35.76 17.0036 35.928 17.0036 36.264V47.496C17.0036 47.704 16.9636 47.84 16.8836 47.904C16.8196 47.968 16.6996 48 16.5236 48H14.4596C14.1236 48 13.9556 47.832 13.9556 47.496ZM19.2373 35.76H21.3493C21.6693 35.76 21.8613 35.928 21.9253 36.264L23.9893 45.288H24.1573L26.1733 36.264C26.2373 35.928 26.4373 35.76 26.7733 35.76H28.8853C29.2213 35.76 29.3413 35.928 29.2453 36.264L26.2213 47.472C26.1573 47.824 25.9413 48 25.5733 48H22.5253C22.1893 48 21.9733 47.824 21.8773 47.472L18.8773 36.264C18.7813 35.928 18.9013 35.76 19.2373 35.76ZM36.8479 48H34.7119C33.4479 48 32.4719 47.664 31.7839 46.992C31.0959 46.32 30.7519 45.352 30.7519 44.088V39.672C30.7519 38.408 31.0959 37.44 31.7839 36.768C32.4719 36.096 33.4479 35.76 34.7119 35.76H36.8479C38.0959 35.76 39.0639 36.104 39.7519 36.792C40.4559 37.464 40.8079 38.424 40.8079 39.672V44.088C40.8079 45.336 40.4559 46.304 39.7519 46.992C39.0639 47.664 38.0959 48 36.8479 48ZM35.1679 45.384H36.3919C36.9039 45.384 37.2639 45.28 37.4719 45.072C37.6959 44.864 37.8079 44.504 37.8079 43.992V39.768C37.8079 39.256 37.6959 38.896 37.4719 38.688C37.2639 38.48 36.9039 38.376 36.3919 38.376H35.1679C34.6559 38.376 34.2959 38.48 34.0879 38.688C33.8799 38.896 33.7759 39.256 33.7759 39.768V43.992C33.7759 44.504 33.8799 44.864 34.0879 45.072C34.2959 45.28 34.6559 45.384 35.1679 45.384ZM47.6188 48H46.8268C45.5948 48 44.6588 47.664 44.0188 46.992C43.3948 46.32 43.0828 45.352 43.0828 44.088V36.264C43.0828 35.928 43.2508 35.76 43.5868 35.76H45.6268C45.9628 35.76 46.1308 35.928 46.1308 36.264V43.944C46.1308 44.456 46.2348 44.824 46.4428 45.048C46.6668 45.256 47.0268 45.36 47.5228 45.36H48.4108C49.5148 45.36 50.0668 44.752 50.0668 43.536V36.264C50.0668 35.928 50.2348 35.76 50.5708 35.76H52.5868C52.9388 35.76 53.1148 35.928 53.1148 36.264V47.496C53.1148 47.832 52.9388 48 52.5868 48H50.5708C50.2348 48 50.0668 47.832 50.0668 47.496V46.704H49.9708C49.7948 47.136 49.4828 47.464 49.0348 47.688C48.5868 47.896 48.1148 48 47.6188 48ZM58.3093 48H56.2693C55.9333 48 55.7653 47.832 55.7653 47.496V36.264C55.7653 35.928 55.9333 35.76 56.2693 35.76H58.3093C58.6453 35.76 58.8133 35.928 58.8133 36.264V37.08H58.9093C59.0853 36.648 59.3973 36.32 59.8453 36.096C60.2933 35.872 60.7653 35.76 61.2613 35.76H62.1253C62.4453 35.76 62.6053 35.928 62.6053 36.264V37.92C62.6053 38.112 62.5653 38.248 62.4853 38.328C62.4213 38.392 62.3013 38.416 62.1253 38.4H60.4693C59.3653 38.4 58.8133 39.024 58.8133 40.272V47.496C58.8133 47.832 58.6453 48 58.3093 48ZM2.232 71H1.71C1.59 71 1.53 70.928 1.53 70.784V59.642C1.53 59.498 1.59 59.426 1.71 59.426H5.814C6.594 59.426 7.212 59.654 7.668 60.11C8.124 60.566 8.352 61.19 8.352 61.982V63.692C8.352 64.364 8.178 64.916 7.83 65.348C7.494 65.78 7.032 66.056 6.444 66.176V66.248L8.586 70.784C8.658 70.928 8.616 71 8.46 71H7.902C7.746 71 7.638 70.928 7.578 70.784L5.454 66.248H2.61C2.49 66.248 2.43 66.302 2.43 66.41V70.784C2.43 70.928 2.364 71 2.232 71ZM2.61 65.474H5.724C6.276 65.474 6.702 65.324 7.002 65.024C7.302 64.712 7.452 64.274 7.452 63.71V62.018C7.452 61.454 7.302 61.016 7.002 60.704C6.702 60.392 6.276 60.236 5.724 60.236H2.61C2.49 60.236 2.43 60.29 2.43 60.398V65.312C2.43 65.42 2.49 65.474 2.61 65.474ZM17.0672 71H13.3052C12.5252 71 11.9072 70.772 11.4512 70.316C11.0072 69.86 10.7852 69.236 10.7852 68.444V64.376C10.7852 63.584 11.0072 62.96 11.4512 62.504C11.9072 62.048 12.5252 61.82 13.3052 61.82H14.8532C15.6332 61.82 16.2512 62.048 16.7072 62.504C17.1632 62.96 17.3912 63.584 17.3912 64.376V66.662C17.3912 66.806 17.3192 66.878 17.1752 66.878H11.8472C11.7392 66.878 11.6852 66.932 11.6852 67.04V68.426C11.6852 68.99 11.8292 69.428 12.1172 69.74C12.4052 70.04 12.8252 70.19 13.3772 70.19H17.0672C17.1992 70.19 17.2652 70.256 17.2652 70.388V70.802C17.2652 70.934 17.1992 71 17.0672 71ZM11.8472 66.158H16.3292C16.4372 66.158 16.4912 66.104 16.4912 65.996V64.394C16.4912 63.83 16.3472 63.398 16.0592 63.098C15.7712 62.786 15.3512 62.63 14.7992 62.63H13.3772C12.8252 62.63 12.4052 62.786 12.1172 63.098C11.8292 63.398 11.6852 63.83 11.6852 64.394V65.996C11.6852 66.104 11.7392 66.158 11.8472 66.158ZM23.3886 70.478H22.2186C21.4506 70.478 20.8386 70.25 20.3826 69.794C19.9386 69.338 19.7166 68.72 19.7166 67.94V64.376C19.7166 63.584 19.9386 62.96 20.3826 62.504C20.8386 62.048 21.4566 61.82 22.2366 61.82H26.0526C26.1846 61.82 26.2506 61.892 26.2506 62.036V70.964C26.2506 71.756 26.0226 72.38 25.5666 72.836C25.1106 73.292 24.4926 73.52 23.7126 73.52H20.4366C20.3046 73.52 20.2386 73.454 20.2386 73.322V72.89C20.2386 72.77 20.3046 72.71 20.4366 72.71H23.6406C24.1926 72.71 24.6126 72.554 24.9006 72.242C25.1886 71.942 25.3326 71.504 25.3326 70.928V69.542H25.2606C24.9606 70.166 24.3366 70.478 23.3886 70.478ZM25.3326 67.904V62.792C25.3326 62.684 25.2786 62.63 25.1706 62.63H22.3266C21.7746 62.63 21.3486 62.786 21.0486 63.098C20.7606 63.398 20.6166 63.836 20.6166 64.412V67.904C20.6166 68.468 20.7606 68.906 21.0486 69.218C21.3486 69.518 21.7746 69.668 22.3266 69.668H23.4786C24.0546 69.668 24.5046 69.518 24.8286 69.218C25.1646 68.906 25.3326 68.468 25.3326 67.904ZM29.0201 60.308V58.58C29.0201 58.448 29.0801 58.382 29.2001 58.382H29.7401C29.8601 58.382 29.9201 58.448 29.9201 58.58V60.308C29.9201 60.452 29.8601 60.524 29.7401 60.524H29.2001C29.0801 60.524 29.0201 60.452 29.0201 60.308ZM29.0201 70.784V62.036C29.0201 61.892 29.0801 61.82 29.2001 61.82H29.7221C29.8541 61.82 29.9201 61.892 29.9201 62.036V70.784C29.9201 70.928 29.8601 71 29.7401 71H29.2001C29.0801 71 29.0201 70.928 29.0201 70.784ZM36.5974 71H35.0494C34.2694 71 33.6514 70.772 33.1954 70.316C32.7514 69.86 32.5294 69.236 32.5294 68.444V64.376C32.5294 63.584 32.7514 62.96 33.1954 62.504C33.6514 62.048 34.2694 61.82 35.0494 61.82H36.5974C37.3774 61.82 37.9954 62.048 38.4514 62.504C38.9074 62.96 39.1354 63.584 39.1354 64.376V68.444C39.1354 69.236 38.9074 69.86 38.4514 70.316C37.9954 70.772 37.3774 71 36.5974 71ZM35.1214 70.19H36.5254C37.0774 70.19 37.4974 70.04 37.7854 69.74C38.0854 69.428 38.2354 68.99 38.2354 68.426V64.394C38.2354 63.83 38.0854 63.398 37.7854 63.098C37.4974 62.786 37.0774 62.63 36.5254 62.63H35.1214C34.5694 62.63 34.1494 62.786 33.8614 63.098C33.5734 63.398 33.4294 63.83 33.4294 64.394V68.426C33.4294 68.99 33.5734 69.428 33.8614 69.74C34.1494 70.04 34.5694 70.19 35.1214 70.19ZM42.3411 71H41.8191C41.6991 71 41.6391 70.928 41.6391 70.784V62.036C41.6391 61.892 41.6991 61.82 41.8191 61.82H42.3411C42.4731 61.82 42.5391 61.892 42.5391 62.036V62.756H42.6111C42.9471 62.132 43.5711 61.82 44.4831 61.82H45.6711C46.4391 61.82 47.0451 62.048 47.4891 62.504C47.9331 62.96 48.1551 63.584 48.1551 64.376V70.784C48.1551 70.928 48.0951 71 47.9751 71H47.4531C47.3211 71 47.2551 70.928 47.2551 70.784V64.412C47.2551 63.848 47.1111 63.41 46.8231 63.098C46.5351 62.786 46.1151 62.63 45.5631 62.63H44.3931C43.8171 62.63 43.3611 62.786 43.0251 63.098C42.7011 63.398 42.5391 63.83 42.5391 64.394V70.784C42.5391 70.928 42.4731 71 42.3411 71ZM54.2541 71H53.1021C52.3221 71 51.7041 70.772 51.2481 70.316C50.8041 69.86 50.5821 69.236 50.5821 68.444V64.376C50.5821 63.584 50.8041 62.96 51.2481 62.504C51.7041 62.048 52.3221 61.82 53.1021 61.82H56.9181C57.0381 61.82 57.0981 61.892 57.0981 62.036V70.784C57.0981 70.928 57.0381 71 56.9181 71H56.3961C56.2641 71 56.1981 70.928 56.1981 70.784V70.064H56.1261C55.8141 70.688 55.1901 71 54.2541 71ZM56.1981 68.426V62.792C56.1981 62.684 56.1381 62.63 56.0181 62.63H53.1741C52.6221 62.63 52.2021 62.786 51.9141 63.098C51.6261 63.41 51.4821 63.848 51.4821 64.412V68.408C51.4821 68.972 51.6261 69.41 51.9141 69.722C52.2021 70.034 52.6221 70.19 53.1741 70.19H54.3441C54.9201 70.19 55.3701 70.04 55.6941 69.74C56.0301 69.428 56.1981 68.99 56.1981 68.426ZM60.5893 71H60.0673C59.9473 71 59.8873 70.928 59.8873 70.784V58.562C59.8873 58.418 59.9473 58.346 60.0673 58.346H60.5893C60.7213 58.346 60.7873 58.418 60.7873 58.562V70.784C60.7873 70.928 60.7213 71 60.5893 71ZM68.2494 71H67.6914C67.5594 71 67.5174 70.928 67.5654 70.784L71.1474 59.642C71.1834 59.498 71.2674 59.426 71.3994 59.426H72.2454C72.3654 59.426 72.4494 59.498 72.4974 59.642L76.0794 70.784C76.1154 70.928 76.0734 71 75.9534 71H75.3774C75.2574 71 75.1794 70.928 75.1434 70.784L74.1714 67.904H69.4554L68.4834 70.784C68.4354 70.928 68.3574 71 68.2494 71ZM71.7774 60.416L69.7074 67.094H73.9374L71.8494 60.416H71.7774ZM81.483 71H80.277C79.509 71 78.903 70.772 78.459 70.316C78.015 69.86 77.793 69.236 77.793 68.444V64.376C77.793 63.584 78.015 62.96 78.459 62.504C78.903 62.048 79.509 61.82 80.277 61.82H81.483C82.407 61.82 83.037 62.132 83.373 62.756H83.445V58.562C83.445 58.418 83.505 58.346 83.625 58.346H84.147C84.279 58.346 84.345 58.418 84.345 58.562V70.784C84.345 70.928 84.279 71 84.147 71H83.625C83.505 71 83.445 70.928 83.445 70.784V70.064H83.373C83.037 70.688 82.407 71 81.483 71ZM83.445 68.426V64.394C83.445 63.83 83.277 63.398 82.941 63.098C82.617 62.786 82.167 62.63 81.591 62.63H80.385C79.833 62.63 79.413 62.786 79.125 63.098C78.837 63.41 78.693 63.848 78.693 64.412V68.408C78.693 68.972 78.837 69.41 79.125 69.722C79.413 70.034 79.833 70.19 80.385 70.19H81.591C82.167 70.19 82.617 70.04 82.941 69.74C83.277 69.428 83.445 68.99 83.445 68.426ZM86.1974 61.82H86.7554C86.8754 61.82 86.9534 61.892 86.9894 62.036L89.4014 69.992H89.4734L91.8674 62.036C91.9154 61.892 91.9934 61.82 92.1014 61.82H92.6774C92.8094 61.82 92.8514 61.892 92.8034 62.036L90.0854 70.784C90.0494 70.928 89.9654 71 89.8334 71H89.0414C88.9094 71 88.8194 70.928 88.7714 70.784L86.0534 62.036C86.0174 61.892 86.0654 61.82 86.1974 61.82ZM94.6216 60.308V58.58C94.6216 58.448 94.6816 58.382 94.8016 58.382H95.3416C95.4616 58.382 95.5216 58.448 95.5216 58.58V60.308C95.5216 60.452 95.4616 60.524 95.3416 60.524H94.8016C94.6816 60.524 94.6216 60.452 94.6216 60.308ZM94.6216 70.784V62.036C94.6216 61.892 94.6816 61.82 94.8016 61.82H95.3236C95.4556 61.82 95.5216 61.892 95.5216 62.036V70.784C95.5216 70.928 95.4616 71 95.3416 71H94.8016C94.6816 71 94.6216 70.928 94.6216 70.784ZM101.281 71H98.1489C98.0169 71 97.9509 70.934 97.9509 70.802V70.388C97.9509 70.268 98.0169 70.208 98.1489 70.208H101.191C102.271 70.208 102.811 69.788 102.811 68.948V68.516C102.811 67.736 102.475 67.226 101.803 66.986L99.5529 66.122C98.9409 65.882 98.5029 65.6 98.2389 65.276C97.9869 64.952 97.8609 64.502 97.8609 63.926C97.8609 62.522 98.6349 61.82 100.183 61.82H103.099C103.231 61.82 103.297 61.886 103.297 62.018V62.432C103.297 62.552 103.231 62.612 103.099 62.612H100.273C99.7809 62.612 99.4089 62.72 99.1569 62.936C98.9169 63.152 98.7969 63.404 98.7969 63.692V64.106C98.7969 64.442 98.8869 64.706 99.0669 64.898C99.2589 65.09 99.5469 65.252 99.9309 65.384L102.181 66.284C102.805 66.488 103.219 66.794 103.423 67.202C103.639 67.598 103.747 68.156 103.747 68.876C103.747 69.596 103.543 70.13 103.135 70.478C102.739 70.826 102.121 71 101.281 71ZM109.951 71H108.403C107.623 71 107.005 70.772 106.549 70.316C106.105 69.86 105.883 69.236 105.883 68.444V64.376C105.883 63.584 106.105 62.96 106.549 62.504C107.005 62.048 107.623 61.82 108.403 61.82H109.951C110.731 61.82 111.349 62.048 111.805 62.504C112.261 62.96 112.489 63.584 112.489 64.376V68.444C112.489 69.236 112.261 69.86 111.805 70.316C111.349 70.772 110.731 71 109.951 71ZM108.475 70.19H109.879C110.431 70.19 110.851 70.04 111.139 69.74C111.439 69.428 111.589 68.99 111.589 68.426V64.394C111.589 63.83 111.439 63.398 111.139 63.098C110.851 62.786 110.431 62.63 109.879 62.63H108.475C107.923 62.63 107.503 62.786 107.215 63.098C106.927 63.398 106.783 63.83 106.783 64.394V68.426C106.783 68.99 106.927 69.428 107.215 69.74C107.503 70.04 107.923 70.19 108.475 70.19ZM115.695 71H115.173C115.053 71 114.993 70.928 114.993 70.784V62.036C114.993 61.892 115.053 61.82 115.173 61.82H115.695C115.827 61.82 115.893 61.892 115.893 62.036V62.792H115.965C116.097 62.54 116.331 62.318 116.667 62.126C117.003 61.922 117.417 61.82 117.909 61.82H118.611C118.743 61.82 118.809 61.886 118.809 62.018V62.45C118.809 62.582 118.743 62.642 118.611 62.63H117.765C117.177 62.63 116.715 62.81 116.379 63.17C116.055 63.53 115.893 64.016 115.893 64.628V70.784C115.893 70.928 115.827 71 115.695 71ZM121.067 73.736H120.401C120.269 73.736 120.203 73.67 120.203 73.538V73.106C120.203 72.974 120.269 72.908 120.401 72.908H120.887C121.247 72.908 121.553 72.854 121.805 72.746C122.057 72.65 122.279 72.464 122.471 72.188C122.663 71.912 122.789 71.696 122.849 71.54C123.017 71.168 123.155 70.826 123.263 70.514H122.921C122.789 70.514 122.705 70.442 122.669 70.298L119.807 62.036C119.759 61.892 119.807 61.82 119.951 61.82H120.509C120.629 61.82 120.707 61.892 120.743 62.036L123.389 69.758H123.461L126.107 62.036C126.143 61.892 126.221 61.82 126.341 61.82H126.881C127.025 61.82 127.079 61.892 127.043 62.036C124.895 68.324 123.773 71.576 123.677 71.792C123.593 72.008 123.431 72.302 123.191 72.674C122.735 73.382 122.027 73.736 121.067 73.736ZM135.586 61.82H137.224C137.368 61.82 137.44 61.886 137.44 62.018V62.432C137.44 62.564 137.368 62.63 137.224 62.63H135.586C135.478 62.63 135.424 62.684 135.424 62.792V70.784C135.424 70.928 135.358 71 135.226 71H134.704C134.572 71 134.506 70.928 134.506 70.784V62.792C134.506 62.684 134.452 62.63 134.344 62.63H133.192C133.06 62.63 132.994 62.564 132.994 62.432V62.018C132.994 61.886 133.06 61.82 133.192 61.82H134.344C134.452 61.82 134.506 61.766 134.506 61.658V60.866C134.506 59.186 135.268 58.346 136.792 58.346H137.224C137.368 58.346 137.44 58.412 137.44 58.544V58.958C137.44 59.09 137.368 59.156 137.224 59.156H136.882C136.342 59.156 135.964 59.3 135.748 59.588C135.532 59.876 135.424 60.314 135.424 60.902V61.658C135.424 61.766 135.478 61.82 135.586 61.82ZM143.033 71H141.485C140.705 71 140.087 70.772 139.631 70.316C139.187 69.86 138.965 69.236 138.965 68.444V64.376C138.965 63.584 139.187 62.96 139.631 62.504C140.087 62.048 140.705 61.82 141.485 61.82H143.033C143.813 61.82 144.431 62.048 144.887 62.504C145.343 62.96 145.571 63.584 145.571 64.376V68.444C145.571 69.236 145.343 69.86 144.887 70.316C144.431 70.772 143.813 71 143.033 71ZM141.557 70.19H142.961C143.513 70.19 143.933 70.04 144.221 69.74C144.521 69.428 144.671 68.99 144.671 68.426V64.394C144.671 63.83 144.521 63.398 144.221 63.098C143.933 62.786 143.513 62.63 142.961 62.63H141.557C141.005 62.63 140.585 62.786 140.297 63.098C140.009 63.398 139.865 63.83 139.865 64.394V68.426C139.865 68.99 140.009 69.428 140.297 69.74C140.585 70.04 141.005 70.19 141.557 70.19ZM148.777 71H148.255C148.135 71 148.075 70.928 148.075 70.784V62.036C148.075 61.892 148.135 61.82 148.255 61.82H148.777C148.909 61.82 148.975 61.892 148.975 62.036V62.792H149.047C149.179 62.54 149.413 62.318 149.749 62.126C150.085 61.922 150.499 61.82 150.991 61.82H151.693C151.825 61.82 151.891 61.886 151.891 62.018V62.45C151.891 62.582 151.825 62.642 151.693 62.63H150.847C150.259 62.63 149.797 62.81 149.461 63.17C149.137 63.53 148.975 64.016 148.975 64.628V70.784C148.975 70.928 148.909 71 148.777 71ZM158.39 71H157.832C157.7 71 157.658 70.928 157.706 70.784L161.288 59.642C161.324 59.498 161.408 59.426 161.54 59.426H162.386C162.506 59.426 162.59 59.498 162.638 59.642L166.22 70.784C166.256 70.928 166.214 71 166.094 71H165.518C165.398 71 165.32 70.928 165.284 70.784L164.312 67.904H159.596L158.624 70.784C158.576 70.928 158.498 71 158.39 71ZM161.918 60.416L159.848 67.094H164.078L161.99 60.416H161.918ZM170.004 61.82H171.642C171.786 61.82 171.858 61.886 171.858 62.018V62.432C171.858 62.564 171.786 62.63 171.642 62.63H170.004C169.896 62.63 169.842 62.684 169.842 62.792V70.784C169.842 70.928 169.776 71 169.644 71H169.122C168.99 71 168.924 70.928 168.924 70.784V62.792C168.924 62.684 168.87 62.63 168.762 62.63H167.61C167.478 62.63 167.412 62.564 167.412 62.432V62.018C167.412 61.886 167.478 61.82 167.61 61.82H168.762C168.87 61.82 168.924 61.766 168.924 61.658V60.866C168.924 59.186 169.686 58.346 171.21 58.346H171.642C171.786 58.346 171.858 58.412 171.858 58.544V58.958C171.858 59.09 171.786 59.156 171.642 59.156H171.3C170.76 59.156 170.382 59.3 170.166 59.588C169.95 59.876 169.842 60.314 169.842 60.902V61.658C169.842 61.766 169.896 61.82 170.004 61.82ZM174.265 71H173.743C173.623 71 173.563 70.928 173.563 70.784V62.036C173.563 61.892 173.623 61.82 173.743 61.82H174.265C174.397 61.82 174.463 61.892 174.463 62.036V62.792H174.535C174.667 62.54 174.901 62.318 175.237 62.126C175.573 61.922 175.987 61.82 176.479 61.82H177.181C177.313 61.82 177.379 61.886 177.379 62.018V62.45C177.379 62.582 177.313 62.642 177.181 62.63H176.335C175.747 62.63 175.285 62.81 174.949 63.17C174.625 63.53 174.463 64.016 174.463 64.628V70.784C174.463 70.928 174.397 71 174.265 71ZM179.295 60.308V58.58C179.295 58.448 179.355 58.382 179.475 58.382H180.015C180.135 58.382 180.195 58.448 180.195 58.58V60.308C180.195 60.452 180.135 60.524 180.015 60.524H179.475C179.355 60.524 179.295 60.452 179.295 60.308ZM179.295 70.784V62.036C179.295 61.892 179.355 61.82 179.475 61.82H179.997C180.129 61.82 180.195 61.892 180.195 62.036V70.784C180.195 70.928 180.135 71 180.015 71H179.475C179.355 71 179.295 70.928 179.295 70.784ZM188.115 70.388V70.802C188.115 70.934 188.049 71 187.917 71H185.325C184.545 71 183.927 70.772 183.471 70.316C183.027 69.86 182.805 69.236 182.805 68.444V64.376C182.805 63.584 183.027 62.96 183.471 62.504C183.927 62.048 184.545 61.82 185.325 61.82H187.917C188.049 61.82 188.115 61.886 188.115 62.018V62.45C188.115 62.57 188.049 62.63 187.917 62.63H185.397C184.845 62.63 184.425 62.786 184.137 63.098C183.849 63.41 183.705 63.848 183.705 64.412V68.408C183.705 68.972 183.849 69.41 184.137 69.722C184.425 70.034 184.845 70.19 185.397 70.19H187.917C188.049 70.19 188.115 70.256 188.115 70.388ZM193.561 71H192.409C191.629 71 191.011 70.772 190.555 70.316C190.111 69.86 189.889 69.236 189.889 68.444V64.376C189.889 63.584 190.111 62.96 190.555 62.504C191.011 62.048 191.629 61.82 192.409 61.82H196.225C196.345 61.82 196.405 61.892 196.405 62.036V70.784C196.405 70.928 196.345 71 196.225 71H195.703C195.571 71 195.505 70.928 195.505 70.784V70.064H195.433C195.121 70.688 194.497 71 193.561 71ZM195.505 68.426V62.792C195.505 62.684 195.445 62.63 195.325 62.63H192.481C191.929 62.63 191.509 62.786 191.221 63.098C190.933 63.41 190.789 63.848 190.789 64.412V68.408C190.789 68.972 190.933 69.41 191.221 69.722C191.509 70.034 191.929 70.19 192.481 70.19H193.651C194.227 70.19 194.677 70.04 195.001 69.74C195.337 69.428 195.505 68.99 195.505 68.426ZM2.232 94H1.71C1.59 94 1.53 93.928 1.53 93.784V82.642C1.53 82.498 1.59 82.426 1.71 82.426H5.814C6.594 82.426 7.212 82.654 7.668 83.11C8.124 83.566 8.352 84.19 8.352 84.982V86.692C8.352 87.364 8.178 87.916 7.83 88.348C7.494 88.78 7.032 89.056 6.444 89.176V89.248L8.586 93.784C8.658 93.928 8.616 94 8.46 94H7.902C7.746 94 7.638 93.928 7.578 93.784L5.454 89.248H2.61C2.49 89.248 2.43 89.302 2.43 89.41V93.784C2.43 93.928 2.364 94 2.232 94ZM2.61 88.474H5.724C6.276 88.474 6.702 88.324 7.002 88.024C7.302 87.712 7.452 87.274 7.452 86.71V85.018C7.452 84.454 7.302 84.016 7.002 83.704C6.702 83.392 6.276 83.236 5.724 83.236H2.61C2.49 83.236 2.43 83.29 2.43 83.398V88.312C2.43 88.42 2.49 88.474 2.61 88.474ZM17.0672 94H13.3052C12.5252 94 11.9072 93.772 11.4512 93.316C11.0072 92.86 10.7852 92.236 10.7852 91.444V87.376C10.7852 86.584 11.0072 85.96 11.4512 85.504C11.9072 85.048 12.5252 84.82 13.3052 84.82H14.8532C15.6332 84.82 16.2512 85.048 16.7072 85.504C17.1632 85.96 17.3912 86.584 17.3912 87.376V89.662C17.3912 89.806 17.3192 89.878 17.1752 89.878H11.8472C11.7392 89.878 11.6852 89.932 11.6852 90.04V91.426C11.6852 91.99 11.8292 92.428 12.1172 92.74C12.4052 93.04 12.8252 93.19 13.3772 93.19H17.0672C17.1992 93.19 17.2652 93.256 17.2652 93.388V93.802C17.2652 93.934 17.1992 94 17.0672 94ZM11.8472 89.158H16.3292C16.4372 89.158 16.4912 89.104 16.4912 88.996V87.394C16.4912 86.83 16.3472 86.398 16.0592 86.098C15.7712 85.786 15.3512 85.63 14.7992 85.63H13.3772C12.8252 85.63 12.4052 85.786 12.1172 86.098C11.8292 86.398 11.6852 86.83 11.6852 87.394V88.996C11.6852 89.104 11.7392 89.158 11.8472 89.158ZM23.3886 93.478H22.2186C21.4506 93.478 20.8386 93.25 20.3826 92.794C19.9386 92.338 19.7166 91.72 19.7166 90.94V87.376C19.7166 86.584 19.9386 85.96 20.3826 85.504C20.8386 85.048 21.4566 84.82 22.2366 84.82H26.0526C26.1846 84.82 26.2506 84.892 26.2506 85.036V93.964C26.2506 94.756 26.0226 95.38 25.5666 95.836C25.1106 96.292 24.4926 96.52 23.7126 96.52H20.4366C20.3046 96.52 20.2386 96.454 20.2386 96.322V95.89C20.2386 95.77 20.3046 95.71 20.4366 95.71H23.6406C24.1926 95.71 24.6126 95.554 24.9006 95.242C25.1886 94.942 25.3326 94.504 25.3326 93.928V92.542H25.2606C24.9606 93.166 24.3366 93.478 23.3886 93.478ZM25.3326 90.904V85.792C25.3326 85.684 25.2786 85.63 25.1706 85.63H22.3266C21.7746 85.63 21.3486 85.786 21.0486 86.098C20.7606 86.398 20.6166 86.836 20.6166 87.412V90.904C20.6166 91.468 20.7606 91.906 21.0486 92.218C21.3486 92.518 21.7746 92.668 22.3266 92.668H23.4786C24.0546 92.668 24.5046 92.518 24.8286 92.218C25.1646 91.906 25.3326 91.468 25.3326 90.904ZM29.0201 83.308V81.58C29.0201 81.448 29.0801 81.382 29.2001 81.382H29.7401C29.8601 81.382 29.9201 81.448 29.9201 81.58V83.308C29.9201 83.452 29.8601 83.524 29.7401 83.524H29.2001C29.0801 83.524 29.0201 83.452 29.0201 83.308ZM29.0201 93.784V85.036C29.0201 84.892 29.0801 84.82 29.2001 84.82H29.7221C29.8541 84.82 29.9201 84.892 29.9201 85.036V93.784C29.9201 93.928 29.8601 94 29.7401 94H29.2001C29.0801 94 29.0201 93.928 29.0201 93.784ZM36.5974 94H35.0494C34.2694 94 33.6514 93.772 33.1954 93.316C32.7514 92.86 32.5294 92.236 32.5294 91.444V87.376C32.5294 86.584 32.7514 85.96 33.1954 85.504C33.6514 85.048 34.2694 84.82 35.0494 84.82H36.5974C37.3774 84.82 37.9954 85.048 38.4514 85.504C38.9074 85.96 39.1354 86.584 39.1354 87.376V91.444C39.1354 92.236 38.9074 92.86 38.4514 93.316C37.9954 93.772 37.3774 94 36.5974 94ZM35.1214 93.19H36.5254C37.0774 93.19 37.4974 93.04 37.7854 92.74C38.0854 92.428 38.2354 91.99 38.2354 91.426V87.394C38.2354 86.83 38.0854 86.398 37.7854 86.098C37.4974 85.786 37.0774 85.63 36.5254 85.63H35.1214C34.5694 85.63 34.1494 85.786 33.8614 86.098C33.5734 86.398 33.4294 86.83 33.4294 87.394V91.426C33.4294 91.99 33.5734 92.428 33.8614 92.74C34.1494 93.04 34.5694 93.19 35.1214 93.19ZM42.3411 94H41.8191C41.6991 94 41.6391 93.928 41.6391 93.784V85.036C41.6391 84.892 41.6991 84.82 41.8191 84.82H42.3411C42.4731 84.82 42.5391 84.892 42.5391 85.036V85.756H42.6111C42.9471 85.132 43.5711 84.82 44.4831 84.82H45.6711C46.4391 84.82 47.0451 85.048 47.4891 85.504C47.9331 85.96 48.1551 86.584 48.1551 87.376V93.784C48.1551 93.928 48.0951 94 47.9751 94H47.4531C47.3211 94 47.2551 93.928 47.2551 93.784V87.412C47.2551 86.848 47.1111 86.41 46.8231 86.098C46.5351 85.786 46.1151 85.63 45.5631 85.63H44.3931C43.8171 85.63 43.3611 85.786 43.0251 86.098C42.7011 86.398 42.5391 86.83 42.5391 87.394V93.784C42.5391 93.928 42.4731 94 42.3411 94Z" fill="#5A5A5A"/>
</svg>
