<svg width="199" height="43" viewBox="0 0 199 43" fill="none" xmlns="http://www.w3.org/2000/svg">
<path d="M8.544 1.568H10.56C10.896 1.568 11.064 1.728 11.064 2.048V13.088C11.064 14.336 10.72 15.304 10.032 15.992C9.344 16.664 8.376 17 7.128 17H4.728C3.464 17 2.488 16.664 1.8 15.992C1.112 15.32 0.768 14.352 0.768 13.088V10.832C0.768 10.496 0.936 10.328 1.272 10.328H3.312C3.648 10.328 3.816 10.496 3.816 10.832V12.944C3.816 13.456 3.92 13.824 4.128 14.048C4.352 14.256 4.712 14.36 5.208 14.36H6.624C7.136 14.36 7.496 14.256 7.704 14.048C7.912 13.824 8.016 13.456 8.016 12.944V2.072C8.016 1.736 8.192 1.568 8.544 1.568ZM18.1316 17H17.5556C16.2916 17 15.3156 16.664 14.6276 15.992C13.9396 15.32 13.5956 14.352 13.5956 13.088V8.672C13.5956 7.408 13.9396 6.44 14.6276 5.768C15.3156 5.096 16.2916 4.76 17.5556 4.76H23.0996C23.4516 4.76 23.6276 4.928 23.6276 5.264V16.496C23.6276 16.832 23.4516 17 23.0996 17H21.0836C20.7476 17 20.5796 16.832 20.5796 16.496V15.704H20.4836C20.3076 16.136 19.9956 16.464 19.5476 16.688C19.0996 16.896 18.6276 17 18.1316 17ZM20.5796 12.536V7.664C20.5796 7.488 20.4836 7.4 20.2916 7.4H18.0356C17.5236 7.4 17.1636 7.512 16.9556 7.736C16.7476 7.944 16.6436 8.304 16.6436 8.816V12.944C16.6436 13.456 16.7476 13.824 16.9556 14.048C17.1636 14.256 17.5236 14.36 18.0356 14.36H18.9236C20.0276 14.36 20.5796 13.752 20.5796 12.536ZM25.6815 16.496V15.704C25.6815 15.16 25.8335 14.696 26.1375 14.312L31.2255 7.472V7.376H26.4015C26.0655 7.376 25.8975 7.2 25.8975 6.848V5.264C25.8975 4.928 26.0655 4.76 26.4015 4.76H34.2255C34.5615 4.76 34.7295 4.928 34.7295 5.264V6.704C34.7295 7.216 34.6015 7.632 34.3455 7.952L29.6415 14.288V14.384H34.4895C34.8255 14.384 34.9935 14.56 34.9935 14.912V16.496C34.9935 16.832 34.8255 17 34.4895 17H26.1855C25.8495 17 25.6815 16.832 25.6815 16.496ZM39.5828 17H37.5428C37.2068 17 37.0388 16.832 37.0388 16.496V5.264C37.0388 4.928 37.2068 4.76 37.5428 4.76H39.5828C39.9188 4.76 40.0868 4.928 40.0868 5.264V6.056H40.1828C40.5348 5.192 41.3188 4.76 42.5348 4.76H43.3028C45.8148 4.76 47.0708 6.064 47.0708 8.672V16.496C47.0708 16.832 46.8948 17 46.5428 17H44.5268C44.1908 17 44.0228 16.832 44.0228 16.496V8.816C44.0228 8.304 43.9108 7.944 43.6868 7.736C43.4788 7.512 43.1188 7.4 42.6068 7.4H41.7428C40.6388 7.4 40.0868 8.008 40.0868 9.224V16.496C40.0868 16.832 39.9188 17 39.5828 17ZM58.6253 17H53.3213C52.0573 17 51.0813 16.664 50.3933 15.992C49.7053 15.32 49.3613 14.352 49.3613 13.088V8.672C49.3613 7.408 49.7053 6.44 50.3933 5.768C51.0813 5.096 52.0573 4.76 53.3213 4.76H55.2173C56.4813 4.76 57.4573 5.096 58.1453 5.768C58.8333 6.44 59.1773 7.408 59.1773 8.672V11.72C59.1773 12.056 59.0093 12.224 58.6733 12.224H52.6493C52.4573 12.224 52.3613 12.312 52.3613 12.488V13.016C52.3613 13.512 52.4653 13.872 52.6733 14.096C52.8973 14.304 53.2653 14.408 53.7773 14.408H58.6253C58.9613 14.408 59.1293 14.584 59.1293 14.936V16.52C59.1293 16.696 59.0893 16.824 59.0093 16.904C58.9453 16.968 58.8173 17 58.6253 17ZM52.6493 10.184H55.9133C56.0893 10.184 56.1773 10.096 56.1773 9.92V8.768C56.1773 8.256 56.0733 7.896 55.8653 7.688C55.6573 7.48 55.2973 7.376 54.7853 7.376H53.7773C53.2653 7.376 52.9053 7.48 52.6973 7.688C52.4893 7.896 52.3853 8.256 52.3853 8.768V9.92C52.3853 10.096 52.4733 10.184 52.6493 10.184ZM61.5806 2.696V0.607999C61.5806 0.288 61.7406 0.128 62.0606 0.128H64.1486C64.4686 0.128 64.6286 0.28 64.6286 0.584V2.696C64.6286 3.016 64.4686 3.176 64.1486 3.176H62.0606C61.7406 3.176 61.5806 3.016 61.5806 2.696ZM61.5806 16.496V5.264C61.5806 4.928 61.7406 4.76 62.0606 4.76H64.1246C64.4606 4.76 64.6286 4.928 64.6286 5.264V16.496C64.6286 16.704 64.5886 16.84 64.5086 16.904C64.4446 16.968 64.3246 17 64.1486 17H62.0846C61.7486 17 61.5806 16.832 61.5806 16.496ZM70.0543 17H68.0143C67.6783 17 67.5103 16.832 67.5103 16.496V0.631999C67.5103 0.296 67.6783 0.128 68.0143 0.128H70.0543C70.3903 0.128 70.5583 0.296 70.5583 0.631999V16.496C70.5583 16.832 70.3903 17 70.0543 17ZM82.1454 14.456H84.8334C85.3614 14.456 85.7374 14.352 85.9614 14.144C86.2014 13.92 86.3214 13.56 86.3214 13.064V11.672C86.3214 11.176 86.2014 10.824 85.9614 10.616C85.7214 10.408 85.3294 10.304 84.7854 10.304H82.1454C81.9694 10.304 81.8814 10.392 81.8814 10.568V14.192C81.8814 14.368 81.9694 14.456 82.1454 14.456ZM82.1454 7.832H84.5934C85.1054 7.832 85.4814 7.728 85.7214 7.52C85.9614 7.296 86.0814 6.936 86.0814 6.44V5.504C86.0814 5.008 85.9614 4.656 85.7214 4.448C85.4974 4.224 85.1294 4.112 84.6174 4.112H82.1454C81.9694 4.112 81.8814 4.2 81.8814 4.376V7.568C81.8814 7.744 81.9694 7.832 82.1454 7.832ZM78.8334 16.496V2.072C78.8334 1.736 79.0014 1.568 79.3374 1.568H85.0974C86.3614 1.568 87.3374 1.904 88.0254 2.576C88.7134 3.248 89.0574 4.208 89.0574 5.456V6.44C89.0574 7.8 88.4254 8.68 87.1614 9.08C87.8014 9.176 88.3134 9.44 88.6974 9.872C89.0814 10.288 89.2734 10.888 89.2734 11.672V13.112C89.2734 14.36 88.9294 15.32 88.2414 15.992C87.5534 16.664 86.5854 17 85.3374 17H79.3374C79.0014 17 78.8334 16.832 78.8334 16.496ZM100.93 17H95.6259C94.3619 17 93.3859 16.664 92.6979 15.992C92.0099 15.32 91.6659 14.352 91.6659 13.088V8.672C91.6659 7.408 92.0099 6.44 92.6979 5.768C93.3859 5.096 94.3619 4.76 95.6259 4.76H97.5219C98.7859 4.76 99.7619 5.096 100.45 5.768C101.138 6.44 101.482 7.408 101.482 8.672V11.72C101.482 12.056 101.314 12.224 100.978 12.224H94.9539C94.7619 12.224 94.6659 12.312 94.6659 12.488V13.016C94.6659 13.512 94.7699 13.872 94.9779 14.096C95.2019 14.304 95.5699 14.408 96.0819 14.408H100.93C101.266 14.408 101.434 14.584 101.434 14.936V16.52C101.434 16.696 101.394 16.824 101.314 16.904C101.25 16.968 101.122 17 100.93 17ZM94.9539 10.184H98.2179C98.3939 10.184 98.4819 10.096 98.4819 9.92V8.768C98.4819 8.256 98.3779 7.896 98.1699 7.688C97.9619 7.48 97.6019 7.376 97.0899 7.376H96.0819C95.5699 7.376 95.2099 7.48 95.0019 7.688C94.7939 7.896 94.6899 8.256 94.6899 8.768V9.92C94.6899 10.096 94.7779 10.184 94.9539 10.184ZM106.429 17H104.389C104.053 17 103.885 16.832 103.885 16.496V0.631999C103.885 0.296 104.053 0.128 104.389 0.128H106.429C106.765 0.128 106.933 0.296 106.933 0.631999V16.496C106.933 16.832 106.765 17 106.429 17ZM112.359 17H110.319C109.983 17 109.815 16.832 109.815 16.496V0.631999C109.815 0.296 109.983 0.128 110.319 0.128H112.359C112.695 0.128 112.863 0.296 112.863 0.631999V16.496C112.863 16.832 112.695 17 112.359 17ZM121.481 17H119.345C118.081 17 117.105 16.664 116.417 15.992C115.729 15.32 115.385 14.352 115.385 13.088V8.672C115.385 7.408 115.729 6.44 116.417 5.768C117.105 5.096 118.081 4.76 119.345 4.76H121.481C122.729 4.76 123.697 5.104 124.385 5.792C125.089 6.464 125.441 7.424 125.441 8.672V13.088C125.441 14.336 125.089 15.304 124.385 15.992C123.697 16.664 122.729 17 121.481 17ZM119.801 14.384H121.025C121.537 14.384 121.897 14.28 122.105 14.072C122.329 13.864 122.441 13.504 122.441 12.992V8.768C122.441 8.256 122.329 7.896 122.105 7.688C121.897 7.48 121.537 7.376 121.025 7.376H119.801C119.289 7.376 118.929 7.48 118.721 7.688C118.513 7.896 118.409 8.256 118.409 8.768V12.992C118.409 13.504 118.513 13.864 118.721 14.072C118.929 14.28 119.289 14.384 119.801 14.384ZM6.138 40H3.87C3.09 40 2.472 39.772 2.016 39.316C1.572 38.86 1.35 38.236 1.35 37.444V30.982C1.35 30.19 1.572 29.566 2.016 29.11C2.472 28.654 3.09 28.426 3.87 28.426H6.138C6.918 28.426 7.53 28.654 7.974 29.11C8.43 29.566 8.658 30.19 8.658 30.982V31.864C8.658 32.008 8.592 32.08 8.46 32.08H7.956C7.824 32.08 7.758 32.008 7.758 31.864V31.018C7.758 30.442 7.608 30.004 7.308 29.704C7.02 29.392 6.6 29.236 6.048 29.236H3.942C3.39 29.236 2.97 29.392 2.682 29.704C2.394 30.016 2.25 30.454 2.25 31.018V37.408C2.25 37.972 2.394 38.41 2.682 38.722C2.97 39.034 3.39 39.19 3.942 39.19H6.048C6.6 39.19 7.02 39.04 7.308 38.74C7.608 38.428 7.758 37.984 7.758 37.408V36.562C7.758 36.418 7.824 36.346 7.956 36.346H8.46C8.592 36.346 8.658 36.418 8.658 36.562V37.444C8.658 38.236 8.43 38.86 7.974 39.316C7.53 39.772 6.918 40 6.138 40ZM14.9939 40H13.4459C12.6659 40 12.0479 39.772 11.5919 39.316C11.1479 38.86 10.9259 38.236 10.9259 37.444V33.376C10.9259 32.584 11.1479 31.96 11.5919 31.504C12.0479 31.048 12.6659 30.82 13.4459 30.82H14.9939C15.7739 30.82 16.3919 31.048 16.8479 31.504C17.3039 31.96 17.5319 32.584 17.5319 33.376V37.444C17.5319 38.236 17.3039 38.86 16.8479 39.316C16.3919 39.772 15.7739 40 14.9939 40ZM13.5179 39.19H14.9219C15.4739 39.19 15.8939 39.04 16.1819 38.74C16.4819 38.428 16.6319 37.99 16.6319 37.426V33.394C16.6319 32.83 16.4819 32.398 16.1819 32.098C15.8939 31.786 15.4739 31.63 14.9219 31.63H13.5179C12.9659 31.63 12.5459 31.786 12.2579 32.098C11.9699 32.398 11.8259 32.83 11.8259 33.394V37.426C11.8259 37.99 11.9699 38.428 12.2579 38.74C12.5459 39.04 12.9659 39.19 13.5179 39.19ZM20.7375 40H20.2155C20.0955 40 20.0355 39.928 20.0355 39.784V31.036C20.0355 30.892 20.0955 30.82 20.2155 30.82H20.7375C20.8695 30.82 20.9355 30.892 20.9355 31.036V31.756H21.0075C21.3555 31.132 21.9915 30.82 22.9155 30.82H23.6535C24.7095 30.82 25.4415 31.24 25.8495 32.08C26.0295 31.66 26.3355 31.348 26.7675 31.144C27.1995 30.928 27.6435 30.82 28.0995 30.82H28.7655C29.5455 30.82 30.1575 31.048 30.6015 31.504C31.0455 31.96 31.2675 32.584 31.2675 33.376V39.784C31.2675 39.928 31.2015 40 31.0695 40H30.5475C30.4155 40 30.3495 39.928 30.3495 39.784V33.412C30.3495 32.836 30.2055 32.398 29.9175 32.098C29.6295 31.786 29.2095 31.63 28.6575 31.63H27.9915C27.4155 31.63 26.9595 31.798 26.6235 32.134C26.2875 32.458 26.1195 32.902 26.1195 33.466V39.784C26.1195 39.928 26.0535 40 25.9215 40H25.3995C25.2675 40 25.2015 39.928 25.2015 39.784V33.412C25.2015 32.836 25.0575 32.398 24.7695 32.098C24.4815 31.786 24.0615 31.63 23.5095 31.63H22.7895C22.2135 31.63 21.7575 31.786 21.4215 32.098C21.0975 32.398 20.9355 32.83 20.9355 33.394V39.784C20.9355 39.928 20.8695 40 20.7375 40ZM34.5715 42.682H34.0495C33.9295 42.682 33.8695 42.616 33.8695 42.484V31.036C33.8695 30.892 33.9295 30.82 34.0495 30.82H34.5715C34.7035 30.82 34.7695 30.892 34.7695 31.036V31.756H34.8415C35.1775 31.132 35.8015 30.82 36.7135 30.82H37.9375C38.7055 30.82 39.3115 31.048 39.7555 31.504C40.1995 31.96 40.4215 32.584 40.4215 33.376V37.444C40.4215 38.236 40.1995 38.86 39.7555 39.316C39.3115 39.772 38.7055 40 37.9375 40H36.7135C35.8015 40 35.1775 39.688 34.8415 39.064H34.7695V42.484C34.7695 42.616 34.7035 42.682 34.5715 42.682ZM36.6235 39.19H37.8115C38.3635 39.19 38.7835 39.04 39.0715 38.74C39.3715 38.428 39.5215 37.984 39.5215 37.408V33.412C39.5215 32.836 39.3715 32.398 39.0715 32.098C38.7835 31.786 38.3635 31.63 37.8115 31.63H36.6235C36.0475 31.63 35.5915 31.786 35.2555 32.098C34.9315 32.398 34.7695 32.83 34.7695 33.394V37.426C34.7695 37.99 34.9315 38.428 35.2555 38.74C35.5915 39.04 36.0475 39.19 36.6235 39.19ZM46.8278 40H45.2798C44.4998 40 43.8818 39.772 43.4258 39.316C42.9818 38.86 42.7598 38.236 42.7598 37.444V33.376C42.7598 32.584 42.9818 31.96 43.4258 31.504C43.8818 31.048 44.4998 30.82 45.2798 30.82H46.8278C47.6078 30.82 48.2258 31.048 48.6818 31.504C49.1378 31.96 49.3658 32.584 49.3658 33.376V37.444C49.3658 38.236 49.1378 38.86 48.6818 39.316C48.2258 39.772 47.6078 40 46.8278 40ZM45.3518 39.19H46.7558C47.3078 39.19 47.7278 39.04 48.0158 38.74C48.3158 38.428 48.4658 37.99 48.4658 37.426V33.394C48.4658 32.83 48.3158 32.398 48.0158 32.098C47.7278 31.786 47.3078 31.63 46.7558 31.63H45.3518C44.7998 31.63 44.3798 31.786 44.0918 32.098C43.8038 32.398 43.6598 32.83 43.6598 33.394V37.426C43.6598 37.99 43.8038 38.428 44.0918 38.74C44.3798 39.04 44.7998 39.19 45.3518 39.19ZM54.8395 40H51.7075C51.5755 40 51.5095 39.934 51.5095 39.802V39.388C51.5095 39.268 51.5755 39.208 51.7075 39.208H54.7495C55.8295 39.208 56.3695 38.788 56.3695 37.948V37.516C56.3695 36.736 56.0335 36.226 55.3615 35.986L53.1115 35.122C52.4995 34.882 52.0615 34.6 51.7975 34.276C51.5455 33.952 51.4195 33.502 51.4195 32.926C51.4195 31.522 52.1935 30.82 53.7415 30.82H56.6575C56.7895 30.82 56.8555 30.886 56.8555 31.018V31.432C56.8555 31.552 56.7895 31.612 56.6575 31.612H53.8315C53.3395 31.612 52.9675 31.72 52.7155 31.936C52.4755 32.152 52.3555 32.404 52.3555 32.692V33.106C52.3555 33.442 52.4455 33.706 52.6255 33.898C52.8175 34.09 53.1055 34.252 53.4895 34.384L55.7395 35.284C56.3635 35.488 56.7775 35.794 56.9815 36.202C57.1975 36.598 57.3055 37.156 57.3055 37.876C57.3055 38.596 57.1015 39.13 56.6935 39.478C56.2975 39.826 55.6795 40 54.8395 40ZM59.7115 29.308V27.58C59.7115 27.448 59.7715 27.382 59.8915 27.382H60.4315C60.5515 27.382 60.6115 27.448 60.6115 27.58V29.308C60.6115 29.452 60.5515 29.524 60.4315 29.524H59.8915C59.7715 29.524 59.7115 29.452 59.7115 29.308ZM59.7115 39.784V31.036C59.7115 30.892 59.7715 30.82 59.8915 30.82H60.4135C60.5455 30.82 60.6115 30.892 60.6115 31.036V39.784C60.6115 39.928 60.5515 40 60.4315 40H59.8915C59.7715 40 59.7115 39.928 59.7115 39.784ZM63.7968 31.63H62.6988C62.5668 31.63 62.5008 31.57 62.5008 31.45V31.018C62.5008 30.886 62.5668 30.82 62.6988 30.82H63.7968C63.9048 30.82 63.9588 30.766 63.9588 30.658V29.2C63.9588 29.056 64.0248 28.984 64.1568 28.984H64.6788C64.8108 28.984 64.8768 29.056 64.8768 29.2V30.658C64.8768 30.766 64.9308 30.82 65.0388 30.82H67.1808C67.3128 30.82 67.3788 30.886 67.3788 31.018V31.45C67.3788 31.57 67.3128 31.63 67.1808 31.63H65.0388C64.9308 31.63 64.8768 31.684 64.8768 31.792V37.462C64.8768 38.014 65.0328 38.44 65.3448 38.74C65.6568 39.04 66.0948 39.19 66.6588 39.19H67.3608C67.4928 39.19 67.5588 39.256 67.5588 39.388V39.802C67.5588 39.934 67.4928 40 67.3608 40H66.5868C65.7948 40 65.1588 39.778 64.6788 39.334C64.1988 38.89 63.9588 38.278 63.9588 37.498V31.792C63.9588 31.684 63.9048 31.63 63.7968 31.63ZM75.743 40H71.981C71.201 40 70.583 39.772 70.127 39.316C69.683 38.86 69.461 38.236 69.461 37.444V33.376C69.461 32.584 69.683 31.96 70.127 31.504C70.583 31.048 71.201 30.82 71.981 30.82H73.529C74.309 30.82 74.927 31.048 75.383 31.504C75.839 31.96 76.067 32.584 76.067 33.376V35.662C76.067 35.806 75.995 35.878 75.851 35.878H70.523C70.415 35.878 70.361 35.932 70.361 36.04V37.426C70.361 37.99 70.505 38.428 70.793 38.74C71.081 39.04 71.501 39.19 72.053 39.19H75.743C75.875 39.19 75.941 39.256 75.941 39.388V39.802C75.941 39.934 75.875 40 75.743 40ZM70.523 35.158H75.005C75.113 35.158 75.167 35.104 75.167 34.996V33.394C75.167 32.83 75.023 32.398 74.735 32.098C74.447 31.786 74.027 31.63 73.475 31.63H72.053C71.501 31.63 71.081 31.786 70.793 32.098C70.505 32.398 70.361 32.83 70.361 33.394V34.996C70.361 35.104 70.415 35.158 70.523 35.158ZM84.5592 39.19H88.0152C88.5672 39.19 88.9872 39.04 89.2752 38.74C89.5752 38.428 89.7252 37.984 89.7252 37.408V31.018C89.7252 30.442 89.5752 30.004 89.2752 29.704C88.9872 29.392 88.5672 29.236 88.0152 29.236H84.5592C84.4392 29.236 84.3792 29.29 84.3792 29.398V39.028C84.3792 39.136 84.4392 39.19 84.5592 39.19ZM83.4792 39.784V28.642C83.4792 28.498 83.5392 28.426 83.6592 28.426H88.1052C88.8852 28.426 89.4972 28.654 89.9412 29.11C90.3972 29.566 90.6252 30.19 90.6252 30.982V37.444C90.6252 38.236 90.3972 38.86 89.9412 39.316C89.4972 39.772 88.8852 40 88.1052 40H83.6592C83.5392 40 83.4792 39.928 83.4792 39.784ZM99.4208 40H95.6588C94.8788 40 94.2608 39.772 93.8048 39.316C93.3608 38.86 93.1388 38.236 93.1388 37.444V33.376C93.1388 32.584 93.3608 31.96 93.8048 31.504C94.2608 31.048 94.8788 30.82 95.6588 30.82H97.2068C97.9868 30.82 98.6048 31.048 99.0608 31.504C99.5168 31.96 99.7448 32.584 99.7448 33.376V35.662C99.7448 35.806 99.6728 35.878 99.5288 35.878H94.2008C94.0928 35.878 94.0388 35.932 94.0388 36.04V37.426C94.0388 37.99 94.1828 38.428 94.4708 38.74C94.7588 39.04 95.1788 39.19 95.7308 39.19H99.4208C99.5528 39.19 99.6188 39.256 99.6188 39.388V39.802C99.6188 39.934 99.5528 40 99.4208 40ZM94.2008 35.158H98.6828C98.7908 35.158 98.8448 35.104 98.8448 34.996V33.394C98.8448 32.83 98.7008 32.398 98.4128 32.098C98.1248 31.786 97.7048 31.63 97.1528 31.63H95.7308C95.1788 31.63 94.7588 31.786 94.4708 32.098C94.1828 32.398 94.0388 32.83 94.0388 33.394V34.996C94.0388 35.104 94.0928 35.158 94.2008 35.158ZM105.148 40H102.016C101.884 40 101.818 39.934 101.818 39.802V39.388C101.818 39.268 101.884 39.208 102.016 39.208H105.058C106.138 39.208 106.678 38.788 106.678 37.948V37.516C106.678 36.736 106.342 36.226 105.67 35.986L103.42 35.122C102.808 34.882 102.37 34.6 102.106 34.276C101.854 33.952 101.728 33.502 101.728 32.926C101.728 31.522 102.502 30.82 104.05 30.82H106.966C107.098 30.82 107.164 30.886 107.164 31.018V31.432C107.164 31.552 107.098 31.612 106.966 31.612H104.14C103.648 31.612 103.276 31.72 103.024 31.936C102.784 32.152 102.664 32.404 102.664 32.692V33.106C102.664 33.442 102.754 33.706 102.934 33.898C103.126 34.09 103.414 34.252 103.798 34.384L106.048 35.284C106.672 35.488 107.086 35.794 107.29 36.202C107.506 36.598 107.614 37.156 107.614 37.876C107.614 38.596 107.41 39.13 107.002 39.478C106.606 39.826 105.988 40 105.148 40ZM110.02 29.308V27.58C110.02 27.448 110.08 27.382 110.2 27.382H110.74C110.86 27.382 110.92 27.448 110.92 27.58V29.308C110.92 29.452 110.86 29.524 110.74 29.524H110.2C110.08 29.524 110.02 29.452 110.02 29.308ZM110.02 39.784V31.036C110.02 30.892 110.08 30.82 110.2 30.82H110.722C110.854 30.82 110.92 30.892 110.92 31.036V39.784C110.92 39.928 110.86 40 110.74 40H110.2C110.08 40 110.02 39.928 110.02 39.784ZM117.273 39.478H116.103C115.335 39.478 114.723 39.25 114.267 38.794C113.823 38.338 113.601 37.72 113.601 36.94V33.376C113.601 32.584 113.823 31.96 114.267 31.504C114.723 31.048 115.341 30.82 116.121 30.82H119.937C120.069 30.82 120.135 30.892 120.135 31.036V39.964C120.135 40.756 119.907 41.38 119.451 41.836C118.995 42.292 118.377 42.52 117.597 42.52H114.321C114.189 42.52 114.123 42.454 114.123 42.322V41.89C114.123 41.77 114.189 41.71 114.321 41.71H117.525C118.077 41.71 118.497 41.554 118.785 41.242C119.073 40.942 119.217 40.504 119.217 39.928V38.542H119.145C118.845 39.166 118.221 39.478 117.273 39.478ZM119.217 36.904V31.792C119.217 31.684 119.163 31.63 119.055 31.63H116.211C115.659 31.63 115.233 31.786 114.933 32.098C114.645 32.398 114.501 32.836 114.501 33.412V36.904C114.501 37.468 114.645 37.906 114.933 38.218C115.233 38.518 115.659 38.668 116.211 38.668H117.363C117.939 38.668 118.389 38.518 118.713 38.218C119.049 37.906 119.217 37.468 119.217 36.904ZM123.517 40H122.995C122.875 40 122.815 39.928 122.815 39.784V31.036C122.815 30.892 122.875 30.82 122.995 30.82H123.517C123.649 30.82 123.715 30.892 123.715 31.036V31.756H123.787C124.123 31.132 124.747 30.82 125.659 30.82H126.847C127.615 30.82 128.221 31.048 128.665 31.504C129.109 31.96 129.331 32.584 129.331 33.376V39.784C129.331 39.928 129.271 40 129.151 40H128.629C128.497 40 128.431 39.928 128.431 39.784V33.412C128.431 32.848 128.287 32.41 127.999 32.098C127.711 31.786 127.291 31.63 126.739 31.63H125.569C124.993 31.63 124.537 31.786 124.201 32.098C123.877 32.398 123.715 32.83 123.715 33.394V39.784C123.715 39.928 123.649 40 123.517 40ZM142.659 40H137.097C136.977 40 136.917 39.928 136.917 39.784V28.642C136.917 28.498 136.977 28.426 137.097 28.426H142.659C142.803 28.426 142.875 28.492 142.875 28.624V29.038C142.875 29.17 142.803 29.236 142.659 29.236H137.997C137.877 29.236 137.817 29.29 137.817 29.398V33.538C137.817 33.646 137.877 33.7 137.997 33.7H142.155C142.287 33.7 142.353 33.766 142.353 33.898V34.312C142.353 34.444 142.287 34.51 142.155 34.51H137.997C137.877 34.51 137.817 34.564 137.817 34.672V39.028C137.817 39.136 137.877 39.19 137.997 39.19H142.659C142.803 39.19 142.875 39.256 142.875 39.388V39.802C142.875 39.934 142.803 40 142.659 40ZM146.105 40H145.583C145.463 40 145.403 39.928 145.403 39.784V31.036C145.403 30.892 145.463 30.82 145.583 30.82H146.105C146.237 30.82 146.303 30.892 146.303 31.036V31.756H146.375C146.711 31.132 147.335 30.82 148.247 30.82H149.435C150.203 30.82 150.809 31.048 151.253 31.504C151.697 31.96 151.919 32.584 151.919 33.376V39.784C151.919 39.928 151.859 40 151.739 40H151.217C151.085 40 151.019 39.928 151.019 39.784V33.412C151.019 32.848 150.875 32.41 150.587 32.098C150.299 31.786 149.879 31.63 149.327 31.63H148.157C147.581 31.63 147.125 31.786 146.789 32.098C146.465 32.398 146.303 32.83 146.303 33.394V39.784C146.303 39.928 146.237 40 146.105 40ZM158.09 39.478H156.92C156.152 39.478 155.54 39.25 155.084 38.794C154.64 38.338 154.418 37.72 154.418 36.94V33.376C154.418 32.584 154.64 31.96 155.084 31.504C155.54 31.048 156.158 30.82 156.938 30.82H160.754C160.886 30.82 160.952 30.892 160.952 31.036V39.964C160.952 40.756 160.724 41.38 160.268 41.836C159.812 42.292 159.194 42.52 158.414 42.52H155.138C155.006 42.52 154.94 42.454 154.94 42.322V41.89C154.94 41.77 155.006 41.71 155.138 41.71H158.342C158.894 41.71 159.314 41.554 159.602 41.242C159.89 40.942 160.034 40.504 160.034 39.928V38.542H159.962C159.662 39.166 159.038 39.478 158.09 39.478ZM160.034 36.904V31.792C160.034 31.684 159.98 31.63 159.872 31.63H157.028C156.476 31.63 156.05 31.786 155.75 32.098C155.462 32.398 155.318 32.836 155.318 33.412V36.904C155.318 37.468 155.462 37.906 155.75 38.218C156.05 38.518 156.476 38.668 157.028 38.668H158.18C158.756 38.668 159.206 38.518 159.53 38.218C159.866 37.906 160.034 37.468 160.034 36.904ZM163.721 29.308V27.58C163.721 27.448 163.781 27.382 163.901 27.382H164.441C164.561 27.382 164.621 27.448 164.621 27.58V29.308C164.621 29.452 164.561 29.524 164.441 29.524H163.901C163.781 29.524 163.721 29.452 163.721 29.308ZM163.721 39.784V31.036C163.721 30.892 163.781 30.82 163.901 30.82H164.423C164.555 30.82 164.621 30.892 164.621 31.036V39.784C164.621 39.928 164.561 40 164.441 40H163.901C163.781 40 163.721 39.928 163.721 39.784ZM168.113 40H167.591C167.471 40 167.411 39.928 167.411 39.784V31.036C167.411 30.892 167.471 30.82 167.591 30.82H168.113C168.245 30.82 168.311 30.892 168.311 31.036V31.756H168.383C168.719 31.132 169.343 30.82 170.255 30.82H171.443C172.211 30.82 172.817 31.048 173.261 31.504C173.705 31.96 173.927 32.584 173.927 33.376V39.784C173.927 39.928 173.867 40 173.747 40H173.225C173.093 40 173.027 39.928 173.027 39.784V33.412C173.027 32.848 172.883 32.41 172.595 32.098C172.307 31.786 171.887 31.63 171.335 31.63H170.165C169.589 31.63 169.133 31.786 168.797 32.098C168.473 32.398 168.311 32.83 168.311 33.394V39.784C168.311 39.928 168.245 40 168.113 40ZM182.636 40H178.874C178.094 40 177.476 39.772 177.02 39.316C176.576 38.86 176.354 38.236 176.354 37.444V33.376C176.354 32.584 176.576 31.96 177.02 31.504C177.476 31.048 178.094 30.82 178.874 30.82H180.422C181.202 30.82 181.82 31.048 182.276 31.504C182.732 31.96 182.96 32.584 182.96 33.376V35.662C182.96 35.806 182.888 35.878 182.744 35.878H177.416C177.308 35.878 177.254 35.932 177.254 36.04V37.426C177.254 37.99 177.398 38.428 177.686 38.74C177.974 39.04 178.394 39.19 178.946 39.19H182.636C182.768 39.19 182.834 39.256 182.834 39.388V39.802C182.834 39.934 182.768 40 182.636 40ZM177.416 35.158H181.898C182.006 35.158 182.06 35.104 182.06 34.996V33.394C182.06 32.83 181.916 32.398 181.628 32.098C181.34 31.786 180.92 31.63 180.368 31.63H178.946C178.394 31.63 177.974 31.786 177.686 32.098C177.398 32.398 177.254 32.83 177.254 33.394V34.996C177.254 35.104 177.308 35.158 177.416 35.158ZM191.495 40H187.733C186.953 40 186.335 39.772 185.879 39.316C185.435 38.86 185.213 38.236 185.213 37.444V33.376C185.213 32.584 185.435 31.96 185.879 31.504C186.335 31.048 186.953 30.82 187.733 30.82H189.281C190.061 30.82 190.679 31.048 191.135 31.504C191.591 31.96 191.819 32.584 191.819 33.376V35.662C191.819 35.806 191.747 35.878 191.603 35.878H186.275C186.167 35.878 186.113 35.932 186.113 36.04V37.426C186.113 37.99 186.257 38.428 186.545 38.74C186.833 39.04 187.253 39.19 187.805 39.19H191.495C191.627 39.19 191.693 39.256 191.693 39.388V39.802C191.693 39.934 191.627 40 191.495 40ZM186.275 35.158H190.757C190.865 35.158 190.919 35.104 190.919 34.996V33.394C190.919 32.83 190.775 32.398 190.487 32.098C190.199 31.786 189.779 31.63 189.227 31.63H187.805C187.253 31.63 186.833 31.786 186.545 32.098C186.257 32.398 186.113 32.83 186.113 33.394V34.996C186.113 35.104 186.167 35.158 186.275 35.158ZM194.954 40H194.432C194.312 40 194.252 39.928 194.252 39.784V31.036C194.252 30.892 194.312 30.82 194.432 30.82H194.954C195.086 30.82 195.152 30.892 195.152 31.036V31.792H195.224C195.356 31.54 195.59 31.318 195.926 31.126C196.262 30.922 196.676 30.82 197.168 30.82H197.87C198.002 30.82 198.068 30.886 198.068 31.018V31.45C198.068 31.582 198.002 31.642 197.87 31.63H197.024C196.436 31.63 195.974 31.81 195.638 32.17C195.314 32.53 195.152 33.016 195.152 33.628V39.784C195.152 39.928 195.086 40 194.954 40Z" fill="#5A5A5A"/>
</svg>
