<svg width="192" height="63" viewBox="0 0 192 63" fill="none" xmlns="http://www.w3.org/2000/svg">
<path d="M7.896 17H5.28C4.016 17 3.04 16.664 2.352 15.992C1.664 15.32 1.32 14.352 1.32 13.088V5.48C1.32 4.216 1.664 3.248 2.352 2.576C3.04 1.904 4.016 1.568 5.28 1.568H7.896C9.144 1.568 10.112 1.912 10.8 2.6C11.504 3.272 11.856 4.232 11.856 5.48V6.608C11.856 6.96 11.68 7.136 11.328 7.136H9.312C8.976 7.136 8.808 6.96 8.808 6.608V5.624C8.808 5.112 8.696 4.752 8.472 4.544C8.264 4.32 7.904 4.208 7.392 4.208H5.76C5.264 4.208 4.904 4.32 4.68 4.544C4.472 4.752 4.368 5.112 4.368 5.624V12.944C4.368 13.456 4.472 13.824 4.68 14.048C4.904 14.256 5.264 14.36 5.76 14.36H7.392C7.904 14.36 8.264 14.256 8.472 14.048C8.696 13.824 8.808 13.456 8.808 12.944V11.96C8.808 11.608 8.976 11.432 9.312 11.432H11.328C11.68 11.432 11.856 11.608 11.856 11.96V13.088C11.856 14.336 11.504 15.304 10.8 15.992C10.112 16.664 9.144 17 7.896 17ZM20.0901 17H17.9541C16.6901 17 15.7141 16.664 15.0261 15.992C14.3381 15.32 13.9941 14.352 13.9941 13.088V8.672C13.9941 7.408 14.3381 6.44 15.0261 5.768C15.7141 5.096 16.6901 4.76 17.9541 4.76H20.0901C21.3381 4.76 22.3061 5.104 22.9941 5.792C23.6981 6.464 24.0501 7.424 24.0501 8.672V13.088C24.0501 14.336 23.6981 15.304 22.9941 15.992C22.3061 16.664 21.3381 17 20.0901 17ZM18.4101 14.384H19.6341C20.1461 14.384 20.5061 14.28 20.7141 14.072C20.9381 13.864 21.0501 13.504 21.0501 12.992V8.768C21.0501 8.256 20.9381 7.896 20.7141 7.688C20.5061 7.48 20.1461 7.376 19.6341 7.376H18.4101C17.8981 7.376 17.5381 7.48 17.3301 7.688C17.1221 7.896 17.0181 8.256 17.0181 8.768V12.992C17.0181 13.504 17.1221 13.864 17.3301 14.072C17.5381 14.28 17.8981 14.384 18.4101 14.384ZM28.989 17H26.949C26.613 17 26.445 16.832 26.445 16.496V5.264C26.445 4.928 26.613 4.76 26.949 4.76H28.989C29.325 4.76 29.493 4.928 29.493 5.264V6.056H29.589C29.941 5.192 30.725 4.76 31.941 4.76H32.709C35.221 4.76 36.477 6.064 36.477 8.672V16.496C36.477 16.832 36.301 17 35.949 17H33.933C33.597 17 33.429 16.832 33.429 16.496V8.816C33.429 8.304 33.317 7.944 33.093 7.736C32.885 7.512 32.525 7.4 32.013 7.4H31.149C30.045 7.4 29.493 8.008 29.493 9.224V16.496C29.493 16.832 29.325 17 28.989 17ZM43.6395 17H39.0795C38.7595 17 38.5995 16.832 38.5995 16.496V14.96C38.5995 14.784 38.6315 14.664 38.6955 14.6C38.7595 14.52 38.8875 14.48 39.0795 14.48H43.0875C43.8715 14.48 44.2635 14.24 44.2635 13.76V13.64C44.2635 13.256 43.9355 12.888 43.2795 12.536L40.9035 11.216C40.0875 10.8 39.4875 10.352 39.1035 9.872C38.7195 9.392 38.5275 8.776 38.5275 8.024C38.5275 6.904 38.8235 6.08 39.4155 5.552C40.0075 5.024 40.9355 4.76 42.1995 4.76H46.2075C46.5275 4.76 46.6875 4.928 46.6875 5.264V6.824C46.6875 7 46.6555 7.128 46.5915 7.208C46.5275 7.272 46.3995 7.304 46.2075 7.304H42.8715C42.0875 7.304 41.6955 7.504 41.6955 7.904V8.024C41.6955 8.376 42.0395 8.736 42.7275 9.104L45.1515 10.544C45.9835 10.992 46.5675 11.456 46.9035 11.936C47.2395 12.4 47.4075 13.016 47.4075 13.784C47.4075 15.928 46.1515 17 43.6395 17ZM61.3804 17H58.7644C57.5004 17 56.5244 16.664 55.8364 15.992C55.1484 15.32 54.8044 14.352 54.8044 13.088V5.48C54.8044 4.216 55.1484 3.248 55.8364 2.576C56.5244 1.904 57.5004 1.568 58.7644 1.568H61.3804C62.6284 1.568 63.5964 1.912 64.2844 2.6C64.9884 3.272 65.3404 4.232 65.3404 5.48V6.608C65.3404 6.96 65.1644 7.136 64.8124 7.136H62.7964C62.4604 7.136 62.2924 6.96 62.2924 6.608V5.624C62.2924 5.112 62.1804 4.752 61.9564 4.544C61.7484 4.32 61.3884 4.208 60.8764 4.208H59.2444C58.7484 4.208 58.3884 4.32 58.1644 4.544C57.9564 4.752 57.8524 5.112 57.8524 5.624V12.944C57.8524 13.456 57.9564 13.824 58.1644 14.048C58.3884 14.256 58.7484 14.36 59.2444 14.36H60.8764C61.3884 14.36 61.7484 14.256 61.9564 14.048C62.1804 13.824 62.2924 13.456 62.2924 12.944V11.96C62.2924 11.608 62.4604 11.432 62.7964 11.432H64.8124C65.1644 11.432 65.3404 11.608 65.3404 11.96V13.088C65.3404 14.336 64.9884 15.304 64.2844 15.992C63.5964 16.664 62.6284 17 61.3804 17ZM72.0144 17H71.4384C70.1744 17 69.1984 16.664 68.5104 15.992C67.8224 15.32 67.4784 14.352 67.4784 13.088V8.672C67.4784 7.408 67.8224 6.44 68.5104 5.768C69.1984 5.096 70.1744 4.76 71.4384 4.76H76.9824C77.3344 4.76 77.5104 4.928 77.5104 5.264V16.496C77.5104 16.832 77.3344 17 76.9824 17H74.9664C74.6304 17 74.4624 16.832 74.4624 16.496V15.704H74.3664C74.1904 16.136 73.8784 16.464 73.4304 16.688C72.9824 16.896 72.5104 17 72.0144 17ZM74.4624 12.536V7.664C74.4624 7.488 74.3664 7.4 74.1744 7.4H71.9184C71.4064 7.4 71.0464 7.512 70.8384 7.736C70.6304 7.944 70.5264 8.304 70.5264 8.816V12.944C70.5264 13.456 70.6304 13.824 70.8384 14.048C71.0464 14.256 71.4064 14.36 71.9184 14.36H72.8064C73.9104 14.36 74.4624 13.752 74.4624 12.536ZM83.4523 14.36H85.9003C86.4123 14.36 86.7723 14.256 86.9803 14.048C87.2043 13.824 87.3163 13.456 87.3163 12.944V8.768C87.3163 8.256 87.2043 7.896 86.9803 7.688C86.7723 7.464 86.4123 7.352 85.9003 7.352H84.8443C83.7403 7.352 83.1883 7.96 83.1883 9.176V14.096C83.1883 14.272 83.2763 14.36 83.4523 14.36ZM80.1403 16.496V0.631999C80.1403 0.296 80.3083 0.128 80.6443 0.128H82.6843C83.0203 0.128 83.1883 0.296 83.1883 0.631999V6.032H83.2843C83.4603 5.6 83.7723 5.272 84.2203 5.048C84.6683 4.824 85.1403 4.712 85.6363 4.712H86.4043C87.6683 4.712 88.6443 5.048 89.3323 5.72C90.0203 6.392 90.3643 7.36 90.3643 8.624V13.088C90.3643 14.352 90.0203 15.32 89.3323 15.992C88.6443 16.664 87.6683 17 86.4043 17H80.6443C80.3083 17 80.1403 16.832 80.1403 16.496ZM92.8931 2.696V0.607999C92.8931 0.288 93.0531 0.128 93.3731 0.128H95.4611C95.7811 0.128 95.9411 0.28 95.9411 0.584V2.696C95.9411 3.016 95.7811 3.176 95.4611 3.176H93.3731C93.0531 3.176 92.8931 3.016 92.8931 2.696ZM92.8931 16.496V5.264C92.8931 4.928 93.0531 4.76 93.3731 4.76H95.4371C95.7731 4.76 95.9411 4.928 95.9411 5.264V16.496C95.9411 16.704 95.9011 16.84 95.8211 16.904C95.7571 16.968 95.6371 17 95.4611 17H93.3971C93.0611 17 92.8931 16.832 92.8931 16.496ZM101.367 17H99.3268C98.9908 17 98.8228 16.832 98.8228 16.496V0.631999C98.8228 0.296 98.9908 0.128 99.3268 0.128H101.367C101.703 0.128 101.871 0.296 101.871 0.631999V16.496C101.871 16.832 101.703 17 101.367 17ZM113.657 17H108.353C107.089 17 106.113 16.664 105.425 15.992C104.737 15.32 104.393 14.352 104.393 13.088V8.672C104.393 7.408 104.737 6.44 105.425 5.768C106.113 5.096 107.089 4.76 108.353 4.76H110.249C111.513 4.76 112.489 5.096 113.177 5.768C113.865 6.44 114.209 7.408 114.209 8.672V11.72C114.209 12.056 114.041 12.224 113.705 12.224H107.681C107.489 12.224 107.393 12.312 107.393 12.488V13.016C107.393 13.512 107.497 13.872 107.705 14.096C107.929 14.304 108.297 14.408 108.809 14.408H113.657C113.993 14.408 114.161 14.584 114.161 14.936V16.52C114.161 16.696 114.121 16.824 114.041 16.904C113.977 16.968 113.849 17 113.657 17ZM107.681 10.184H110.945C111.121 10.184 111.209 10.096 111.209 9.92V8.768C111.209 8.256 111.105 7.896 110.897 7.688C110.689 7.48 110.329 7.376 109.817 7.376H108.809C108.297 7.376 107.937 7.48 107.729 7.688C107.521 7.896 107.417 8.256 107.417 8.768V9.92C107.417 10.096 107.505 10.184 107.681 10.184ZM121.124 17H116.564C116.244 17 116.084 16.832 116.084 16.496V14.96C116.084 14.784 116.116 14.664 116.18 14.6C116.244 14.52 116.372 14.48 116.564 14.48H120.572C121.356 14.48 121.748 14.24 121.748 13.76V13.64C121.748 13.256 121.42 12.888 120.764 12.536L118.388 11.216C117.572 10.8 116.972 10.352 116.588 9.872C116.204 9.392 116.012 8.776 116.012 8.024C116.012 6.904 116.308 6.08 116.9 5.552C117.492 5.024 118.42 4.76 119.684 4.76H123.692C124.012 4.76 124.172 4.928 124.172 5.264V6.824C124.172 7 124.14 7.128 124.076 7.208C124.012 7.272 123.884 7.304 123.692 7.304H120.356C119.572 7.304 119.18 7.504 119.18 7.904V8.024C119.18 8.376 119.524 8.736 120.212 9.104L122.636 10.544C123.468 10.992 124.052 11.456 124.388 11.936C124.724 12.4 124.892 13.016 124.892 13.784C124.892 15.928 123.636 17 121.124 17ZM2.61 39.19H6.066C6.618 39.19 7.038 39.04 7.326 38.74C7.626 38.428 7.776 37.984 7.776 37.408V31.018C7.776 30.442 7.626 30.004 7.326 29.704C7.038 29.392 6.618 29.236 6.066 29.236H2.61C2.49 29.236 2.43 29.29 2.43 29.398V39.028C2.43 39.136 2.49 39.19 2.61 39.19ZM1.53 39.784V28.642C1.53 28.498 1.59 28.426 1.71 28.426H6.156C6.936 28.426 7.548 28.654 7.992 29.11C8.448 29.566 8.676 30.19 8.676 30.982V37.444C8.676 38.236 8.448 38.86 7.992 39.316C7.548 39.772 6.936 40 6.156 40H1.71C1.59 40 1.53 39.928 1.53 39.784ZM17.4715 40H13.7095C12.9295 40 12.3115 39.772 11.8555 39.316C11.4115 38.86 11.1895 38.236 11.1895 37.444V33.376C11.1895 32.584 11.4115 31.96 11.8555 31.504C12.3115 31.048 12.9295 30.82 13.7095 30.82H15.2575C16.0375 30.82 16.6555 31.048 17.1115 31.504C17.5675 31.96 17.7955 32.584 17.7955 33.376V35.662C17.7955 35.806 17.7235 35.878 17.5795 35.878H12.2515C12.1435 35.878 12.0895 35.932 12.0895 36.04V37.426C12.0895 37.99 12.2335 38.428 12.5215 38.74C12.8095 39.04 13.2295 39.19 13.7815 39.19H17.4715C17.6035 39.19 17.6695 39.256 17.6695 39.388V39.802C17.6695 39.934 17.6035 40 17.4715 40ZM12.2515 35.158H16.7335C16.8415 35.158 16.8955 35.104 16.8955 34.996V33.394C16.8955 32.83 16.7515 32.398 16.4635 32.098C16.1755 31.786 15.7555 31.63 15.2035 31.63H13.7815C13.2295 31.63 12.8095 31.786 12.5215 32.098C12.2335 32.398 12.0895 32.83 12.0895 33.394V34.996C12.0895 35.104 12.1435 35.158 12.2515 35.158ZM20.9309 42.682H20.4089C20.2889 42.682 20.2289 42.616 20.2289 42.484V31.036C20.2289 30.892 20.2889 30.82 20.4089 30.82H20.9309C21.0629 30.82 21.1289 30.892 21.1289 31.036V31.756H21.2009C21.5369 31.132 22.1609 30.82 23.0729 30.82H24.2969C25.0649 30.82 25.6709 31.048 26.1149 31.504C26.5589 31.96 26.7809 32.584 26.7809 33.376V37.444C26.7809 38.236 26.5589 38.86 26.1149 39.316C25.6709 39.772 25.0649 40 24.2969 40H23.0729C22.1609 40 21.5369 39.688 21.2009 39.064H21.1289V42.484C21.1289 42.616 21.0629 42.682 20.9309 42.682ZM22.9829 39.19H24.1709C24.7229 39.19 25.1429 39.04 25.4309 38.74C25.7309 38.428 25.8809 37.984 25.8809 37.408V33.412C25.8809 32.836 25.7309 32.398 25.4309 32.098C25.1429 31.786 24.7229 31.63 24.1709 31.63H22.9829C22.4069 31.63 21.9509 31.786 21.6149 32.098C21.2909 32.398 21.1289 32.83 21.1289 33.394V37.426C21.1289 37.99 21.2909 38.428 21.6149 38.74C21.9509 39.04 22.4069 39.19 22.9829 39.19ZM32.8812 40H31.6932C30.9252 40 30.3192 39.772 29.8752 39.316C29.4312 38.86 29.2092 38.236 29.2092 37.444V31.036C29.2092 30.892 29.2692 30.82 29.3892 30.82H29.9112C30.0432 30.82 30.1092 30.892 30.1092 31.036V37.408C30.1092 37.972 30.2532 38.41 30.5412 38.722C30.8292 39.034 31.2492 39.19 31.8012 39.19H32.9712C33.5472 39.19 33.9972 39.04 34.3212 38.74C34.6572 38.428 34.8252 37.99 34.8252 37.426V31.036C34.8252 30.892 34.8912 30.82 35.0232 30.82H35.5452C35.6652 30.82 35.7252 30.892 35.7252 31.036V39.784C35.7252 39.928 35.6652 40 35.5452 40H35.0232C34.8912 40 34.8252 39.928 34.8252 39.784V39.064H34.7532C34.4412 39.688 33.8172 40 32.8812 40ZM38.8183 31.63H37.7203C37.5883 31.63 37.5223 31.57 37.5223 31.45V31.018C37.5223 30.886 37.5883 30.82 37.7203 30.82H38.8183C38.9263 30.82 38.9803 30.766 38.9803 30.658V29.2C38.9803 29.056 39.0463 28.984 39.1783 28.984H39.7003C39.8323 28.984 39.8983 29.056 39.8983 29.2V30.658C39.8983 30.766 39.9523 30.82 40.0603 30.82H42.2023C42.3343 30.82 42.4003 30.886 42.4003 31.018V31.45C42.4003 31.57 42.3343 31.63 42.2023 31.63H40.0603C39.9523 31.63 39.8983 31.684 39.8983 31.792V37.462C39.8983 38.014 40.0543 38.44 40.3663 38.74C40.6783 39.04 41.1163 39.19 41.6803 39.19H42.3823C42.5143 39.19 42.5803 39.256 42.5803 39.388V39.802C42.5803 39.934 42.5143 40 42.3823 40H41.6083C40.8163 40 40.1803 39.778 39.7003 39.334C39.2203 38.89 38.9803 38.278 38.9803 37.498V31.792C38.9803 31.684 38.9263 31.63 38.8183 31.63ZM45.0945 42.736H44.4285C44.2965 42.736 44.2305 42.67 44.2305 42.538V42.106C44.2305 41.974 44.2965 41.908 44.4285 41.908H44.9145C45.2745 41.908 45.5805 41.854 45.8325 41.746C46.0845 41.65 46.3065 41.464 46.4985 41.188C46.6905 40.912 46.8165 40.696 46.8765 40.54C47.0445 40.168 47.1825 39.826 47.2905 39.514H46.9485C46.8165 39.514 46.7325 39.442 46.6965 39.298L43.8345 31.036C43.7865 30.892 43.8345 30.82 43.9785 30.82H44.5365C44.6565 30.82 44.7345 30.892 44.7705 31.036L47.4165 38.758H47.4885L50.1345 31.036C50.1705 30.892 50.2485 30.82 50.3685 30.82H50.9085C51.0525 30.82 51.1065 30.892 51.0705 31.036C48.9225 37.324 47.8005 40.576 47.7045 40.792C47.6205 41.008 47.4585 41.302 47.2185 41.674C46.7625 42.382 46.0545 42.736 45.0945 42.736ZM58.983 39.19H62.439C62.991 39.19 63.411 39.04 63.699 38.74C63.999 38.428 64.149 37.984 64.149 37.408V31.018C64.149 30.442 63.999 30.004 63.699 29.704C63.411 29.392 62.991 29.236 62.439 29.236H58.983C58.863 29.236 58.803 29.29 58.803 29.398V39.028C58.803 39.136 58.863 39.19 58.983 39.19ZM57.903 39.784V28.642C57.903 28.498 57.963 28.426 58.083 28.426H62.529C63.309 28.426 63.921 28.654 64.365 29.11C64.821 29.566 65.049 30.19 65.049 30.982V37.444C65.049 38.236 64.821 38.86 64.365 39.316C63.921 39.772 63.309 40 62.529 40H58.083C57.963 40 57.903 39.928 57.903 39.784ZM67.8326 29.308V27.58C67.8326 27.448 67.8926 27.382 68.0126 27.382H68.5526C68.6726 27.382 68.7326 27.448 68.7326 27.58V29.308C68.7326 29.452 68.6726 29.524 68.5526 29.524H68.0126C67.8926 29.524 67.8326 29.452 67.8326 29.308ZM67.8326 39.784V31.036C67.8326 30.892 67.8926 30.82 68.0126 30.82H68.5346C68.6666 30.82 68.7326 30.892 68.7326 31.036V39.784C68.7326 39.928 68.6726 40 68.5526 40H68.0126C67.8926 40 67.8326 39.928 67.8326 39.784ZM72.2239 40H71.7019C71.5819 40 71.5219 39.928 71.5219 39.784V31.036C71.5219 30.892 71.5819 30.82 71.7019 30.82H72.2239C72.3559 30.82 72.4219 30.892 72.4219 31.036V31.792H72.4939C72.6259 31.54 72.8599 31.318 73.1959 31.126C73.5319 30.922 73.9459 30.82 74.4379 30.82H75.1399C75.2719 30.82 75.3379 30.886 75.3379 31.018V31.45C75.3379 31.582 75.2719 31.642 75.1399 31.63H74.2939C73.7059 31.63 73.2439 31.81 72.9079 32.17C72.5839 32.53 72.4219 33.016 72.4219 33.628V39.784C72.4219 39.928 72.3559 40 72.2239 40ZM83.2665 40H79.5045C78.7245 40 78.1065 39.772 77.6505 39.316C77.2065 38.86 76.9845 38.236 76.9845 37.444V33.376C76.9845 32.584 77.2065 31.96 77.6505 31.504C78.1065 31.048 78.7245 30.82 79.5045 30.82H81.0525C81.8325 30.82 82.4505 31.048 82.9065 31.504C83.3625 31.96 83.5905 32.584 83.5905 33.376V35.662C83.5905 35.806 83.5185 35.878 83.3745 35.878H78.0465C77.9385 35.878 77.8845 35.932 77.8845 36.04V37.426C77.8845 37.99 78.0285 38.428 78.3165 38.74C78.6045 39.04 79.0245 39.19 79.5765 39.19H83.2665C83.3985 39.19 83.4645 39.256 83.4645 39.388V39.802C83.4645 39.934 83.3985 40 83.2665 40ZM78.0465 35.158H82.5285C82.6365 35.158 82.6905 35.104 82.6905 34.996V33.394C82.6905 32.83 82.5465 32.398 82.2585 32.098C81.9705 31.786 81.5505 31.63 80.9985 31.63H79.5765C79.0245 31.63 78.6045 31.786 78.3165 32.098C78.0285 32.398 77.8845 32.83 77.8845 33.394V34.996C77.8845 35.104 77.9385 35.158 78.0465 35.158ZM91.1538 39.388V39.802C91.1538 39.934 91.0878 40 90.9558 40H88.3638C87.5838 40 86.9658 39.772 86.5098 39.316C86.0658 38.86 85.8438 38.236 85.8438 37.444V33.376C85.8438 32.584 86.0658 31.96 86.5098 31.504C86.9658 31.048 87.5838 30.82 88.3638 30.82H90.9558C91.0878 30.82 91.1538 30.886 91.1538 31.018V31.45C91.1538 31.57 91.0878 31.63 90.9558 31.63H88.4358C87.8838 31.63 87.4638 31.786 87.1758 32.098C86.8878 32.41 86.7438 32.848 86.7438 33.412V37.408C86.7438 37.972 86.8878 38.41 87.1758 38.722C87.4638 39.034 87.8838 39.19 88.4358 39.19H90.9558C91.0878 39.19 91.1538 39.256 91.1538 39.388ZM93.5038 31.63H92.4058C92.2738 31.63 92.2078 31.57 92.2078 31.45V31.018C92.2078 30.886 92.2738 30.82 92.4058 30.82H93.5038C93.6118 30.82 93.6658 30.766 93.6658 30.658V29.2C93.6658 29.056 93.7318 28.984 93.8638 28.984H94.3858C94.5178 28.984 94.5838 29.056 94.5838 29.2V30.658C94.5838 30.766 94.6378 30.82 94.7458 30.82H96.8878C97.0198 30.82 97.0858 30.886 97.0858 31.018V31.45C97.0858 31.57 97.0198 31.63 96.8878 31.63H94.7458C94.6378 31.63 94.5838 31.684 94.5838 31.792V37.462C94.5838 38.014 94.7398 38.44 95.0518 38.74C95.3638 39.04 95.8018 39.19 96.3658 39.19H97.0678C97.1998 39.19 97.2658 39.256 97.2658 39.388V39.802C97.2658 39.934 97.1998 40 97.0678 40H96.2938C95.5018 40 94.8658 39.778 94.3858 39.334C93.9058 38.89 93.6658 38.278 93.6658 37.498V31.792C93.6658 31.684 93.6118 31.63 93.5038 31.63ZM103.236 40H101.688C100.908 40 100.29 39.772 99.834 39.316C99.39 38.86 99.168 38.236 99.168 37.444V33.376C99.168 32.584 99.39 31.96 99.834 31.504C100.29 31.048 100.908 30.82 101.688 30.82H103.236C104.016 30.82 104.634 31.048 105.09 31.504C105.546 31.96 105.774 32.584 105.774 33.376V37.444C105.774 38.236 105.546 38.86 105.09 39.316C104.634 39.772 104.016 40 103.236 40ZM101.76 39.19H103.164C103.716 39.19 104.136 39.04 104.424 38.74C104.724 38.428 104.874 37.99 104.874 37.426V33.394C104.874 32.83 104.724 32.398 104.424 32.098C104.136 31.786 103.716 31.63 103.164 31.63H101.76C101.208 31.63 100.788 31.786 100.5 32.098C100.212 32.398 100.068 32.83 100.068 33.394V37.426C100.068 37.99 100.212 38.428 100.5 38.74C100.788 39.04 101.208 39.19 101.76 39.19ZM108.98 40H108.458C108.338 40 108.278 39.928 108.278 39.784V31.036C108.278 30.892 108.338 30.82 108.458 30.82H108.98C109.112 30.82 109.178 30.892 109.178 31.036V31.792H109.25C109.382 31.54 109.616 31.318 109.952 31.126C110.288 30.922 110.702 30.82 111.194 30.82H111.896C112.028 30.82 112.094 30.886 112.094 31.018V31.45C112.094 31.582 112.028 31.642 111.896 31.63H111.05C110.462 31.63 110 31.81 109.664 32.17C109.34 32.53 109.178 33.016 109.178 33.628V39.784C109.178 39.928 109.112 40 108.98 40ZM122.607 40H121.059C120.279 40 119.661 39.772 119.205 39.316C118.761 38.86 118.539 38.236 118.539 37.444V33.376C118.539 32.584 118.761 31.96 119.205 31.504C119.661 31.048 120.279 30.82 121.059 30.82H122.607C123.387 30.82 124.005 31.048 124.461 31.504C124.917 31.96 125.145 32.584 125.145 33.376V37.444C125.145 38.236 124.917 38.86 124.461 39.316C124.005 39.772 123.387 40 122.607 40ZM121.131 39.19H122.535C123.087 39.19 123.507 39.04 123.795 38.74C124.095 38.428 124.245 37.99 124.245 37.426V33.394C124.245 32.83 124.095 32.398 123.795 32.098C123.507 31.786 123.087 31.63 122.535 31.63H121.131C120.579 31.63 120.159 31.786 119.871 32.098C119.583 32.398 119.439 32.83 119.439 33.394V37.426C119.439 37.99 119.583 38.428 119.871 38.74C120.159 39.04 120.579 39.19 121.131 39.19ZM129.539 30.82H131.177C131.321 30.82 131.393 30.886 131.393 31.018V31.432C131.393 31.564 131.321 31.63 131.177 31.63H129.539C129.431 31.63 129.377 31.684 129.377 31.792V39.784C129.377 39.928 129.311 40 129.179 40H128.657C128.525 40 128.459 39.928 128.459 39.784V31.792C128.459 31.684 128.405 31.63 128.297 31.63H127.145C127.013 31.63 126.947 31.564 126.947 31.432V31.018C126.947 30.886 127.013 30.82 127.145 30.82H128.297C128.405 30.82 128.459 30.766 128.459 30.658V29.866C128.459 28.186 129.221 27.346 130.745 27.346H131.177C131.321 27.346 131.393 27.412 131.393 27.544V27.958C131.393 28.09 131.321 28.156 131.177 28.156H130.835C130.295 28.156 129.917 28.3 129.701 28.588C129.485 28.876 129.377 29.314 129.377 29.902V30.658C129.377 30.766 129.431 30.82 129.539 30.82ZM138.779 40H138.257C138.137 40 138.077 39.928 138.077 39.784V28.642C138.077 28.498 138.137 28.426 138.257 28.426H142.397C143.177 28.426 143.795 28.654 144.251 29.11C144.707 29.566 144.935 30.19 144.935 30.982V33.088C144.935 33.88 144.707 34.504 144.251 34.96C143.795 35.416 143.177 35.644 142.397 35.644H139.157C139.037 35.644 138.977 35.692 138.977 35.788V39.784C138.977 39.928 138.911 40 138.779 40ZM139.157 34.816H142.325C142.877 34.816 143.297 34.666 143.585 34.366C143.873 34.054 144.017 33.616 144.017 33.052V31.018C144.017 30.442 143.873 30.004 143.585 29.704C143.297 29.392 142.877 29.236 142.325 29.236H139.157C139.037 29.236 138.977 29.29 138.977 29.398V34.672C138.977 34.768 139.037 34.816 139.157 34.816ZM148.038 40H147.516C147.396 40 147.336 39.928 147.336 39.784V31.036C147.336 30.892 147.396 30.82 147.516 30.82H148.038C148.17 30.82 148.236 30.892 148.236 31.036V31.792H148.308C148.44 31.54 148.674 31.318 149.01 31.126C149.346 30.922 149.76 30.82 150.252 30.82H150.954C151.086 30.82 151.152 30.886 151.152 31.018V31.45C151.152 31.582 151.086 31.642 150.954 31.63H150.108C149.52 31.63 149.058 31.81 148.722 32.17C148.398 32.53 148.236 33.016 148.236 33.628V39.784C148.236 39.928 148.17 40 148.038 40ZM156.867 40H155.319C154.539 40 153.921 39.772 153.465 39.316C153.021 38.86 152.799 38.236 152.799 37.444V33.376C152.799 32.584 153.021 31.96 153.465 31.504C153.921 31.048 154.539 30.82 155.319 30.82H156.867C157.647 30.82 158.265 31.048 158.721 31.504C159.177 31.96 159.405 32.584 159.405 33.376V37.444C159.405 38.236 159.177 38.86 158.721 39.316C158.265 39.772 157.647 40 156.867 40ZM155.391 39.19H156.795C157.347 39.19 157.767 39.04 158.055 38.74C158.355 38.428 158.505 37.99 158.505 37.426V33.394C158.505 32.83 158.355 32.398 158.055 32.098C157.767 31.786 157.347 31.63 156.795 31.63H155.391C154.839 31.63 154.419 31.786 154.131 32.098C153.843 32.398 153.699 32.83 153.699 33.394V37.426C153.699 37.99 153.843 38.428 154.131 38.74C154.419 39.04 154.839 39.19 155.391 39.19ZM165.419 40H164.213C163.445 40 162.839 39.772 162.395 39.316C161.951 38.86 161.729 38.236 161.729 37.444V33.376C161.729 32.584 161.951 31.96 162.395 31.504C162.839 31.048 163.445 30.82 164.213 30.82H165.419C166.343 30.82 166.973 31.132 167.309 31.756H167.381V27.562C167.381 27.418 167.441 27.346 167.561 27.346H168.083C168.215 27.346 168.281 27.418 168.281 27.562V39.784C168.281 39.928 168.215 40 168.083 40H167.561C167.441 40 167.381 39.928 167.381 39.784V39.064H167.309C166.973 39.688 166.343 40 165.419 40ZM167.381 37.426V33.394C167.381 32.83 167.213 32.398 166.877 32.098C166.553 31.786 166.103 31.63 165.527 31.63H164.321C163.769 31.63 163.349 31.786 163.061 32.098C162.773 32.41 162.629 32.848 162.629 33.412V37.408C162.629 37.972 162.773 38.41 163.061 38.722C163.349 39.034 163.769 39.19 164.321 39.19H165.527C166.103 39.19 166.553 39.04 166.877 38.74C167.213 38.428 167.381 37.99 167.381 37.426ZM174.561 40H173.373C172.605 40 171.999 39.772 171.555 39.316C171.111 38.86 170.889 38.236 170.889 37.444V31.036C170.889 30.892 170.949 30.82 171.069 30.82H171.591C171.723 30.82 171.789 30.892 171.789 31.036V37.408C171.789 37.972 171.933 38.41 172.221 38.722C172.509 39.034 172.929 39.19 173.481 39.19H174.651C175.227 39.19 175.677 39.04 176.001 38.74C176.337 38.428 176.505 37.99 176.505 37.426V31.036C176.505 30.892 176.571 30.82 176.703 30.82H177.225C177.345 30.82 177.405 30.892 177.405 31.036V39.784C177.405 39.928 177.345 40 177.225 40H176.703C176.571 40 176.505 39.928 176.505 39.784V39.064H176.433C176.121 39.688 175.497 40 174.561 40ZM185.232 39.388V39.802C185.232 39.934 185.166 40 185.034 40H182.442C181.662 40 181.044 39.772 180.588 39.316C180.144 38.86 179.922 38.236 179.922 37.444V33.376C179.922 32.584 180.144 31.96 180.588 31.504C181.044 31.048 181.662 30.82 182.442 30.82H185.034C185.166 30.82 185.232 30.886 185.232 31.018V31.45C185.232 31.57 185.166 31.63 185.034 31.63H182.514C181.962 31.63 181.542 31.786 181.254 32.098C180.966 32.41 180.822 32.848 180.822 33.412V37.408C180.822 37.972 180.966 38.41 181.254 38.722C181.542 39.034 181.962 39.19 182.514 39.19H185.034C185.166 39.19 185.232 39.256 185.232 39.388ZM187.582 31.63H186.484C186.352 31.63 186.286 31.57 186.286 31.45V31.018C186.286 30.886 186.352 30.82 186.484 30.82H187.582C187.69 30.82 187.744 30.766 187.744 30.658V29.2C187.744 29.056 187.81 28.984 187.942 28.984H188.464C188.596 28.984 188.662 29.056 188.662 29.2V30.658C188.662 30.766 188.716 30.82 188.824 30.82H190.966C191.098 30.82 191.164 30.886 191.164 31.018V31.45C191.164 31.57 191.098 31.63 190.966 31.63H188.824C188.716 31.63 188.662 31.684 188.662 31.792V37.462C188.662 38.014 188.818 38.44 189.13 38.74C189.442 39.04 189.88 39.19 190.444 39.19H191.146C191.278 39.19 191.344 39.256 191.344 39.388V39.802C191.344 39.934 191.278 40 191.146 40H190.372C189.58 40 188.944 39.778 188.464 39.334C187.984 38.89 187.744 38.278 187.744 37.498V31.792C187.744 31.684 187.69 31.63 187.582 31.63ZM1.224 63H0.666C0.534 63 0.492 62.928 0.54 62.784L4.122 51.642C4.158 51.498 4.242 51.426 4.374 51.426H5.22C5.34 51.426 5.424 51.498 5.472 51.642L9.054 62.784C9.09 62.928 9.048 63 8.928 63H8.352C8.232 63 8.154 62.928 8.118 62.784L7.146 59.904H2.43L1.458 62.784C1.41 62.928 1.332 63 1.224 63ZM4.752 52.416L2.682 59.094H6.912L4.824 52.416H4.752ZM11.6497 63H11.1277C11.0077 63 10.9477 62.928 10.9477 62.784V54.036C10.9477 53.892 11.0077 53.82 11.1277 53.82H11.6497C11.7817 53.82 11.8477 53.892 11.8477 54.036V54.792H11.9197C12.0517 54.54 12.2857 54.318 12.6217 54.126C12.9577 53.922 13.3717 53.82 13.8637 53.82H14.5657C14.6977 53.82 14.7637 53.886 14.7637 54.018V54.45C14.7637 54.582 14.6977 54.642 14.5657 54.63H13.7197C13.1317 54.63 12.6697 54.81 12.3337 55.17C12.0097 55.53 11.8477 56.016 11.8477 56.628V62.784C11.8477 62.928 11.7817 63 11.6497 63ZM21.7202 62.388V62.802C21.7202 62.934 21.6542 63 21.5222 63H18.9302C18.1502 63 17.5322 62.772 17.0762 62.316C16.6322 61.86 16.4102 61.236 16.4102 60.444V56.376C16.4102 55.584 16.6322 54.96 17.0762 54.504C17.5322 54.048 18.1502 53.82 18.9302 53.82H21.5222C21.6542 53.82 21.7202 53.886 21.7202 54.018V54.45C21.7202 54.57 21.6542 54.63 21.5222 54.63H19.0022C18.4502 54.63 18.0302 54.786 17.7422 55.098C17.4542 55.41 17.3102 55.848 17.3102 56.412V60.408C17.3102 60.972 17.4542 61.41 17.7422 61.722C18.0302 62.034 18.4502 62.19 19.0022 62.19H21.5222C21.6542 62.19 21.7202 62.256 21.7202 62.388ZM24.3762 63H23.8542C23.7342 63 23.6742 62.928 23.6742 62.784V50.562C23.6742 50.418 23.7342 50.346 23.8542 50.346H24.3762C24.5082 50.346 24.5742 50.418 24.5742 50.562V54.756H24.6462C24.9822 54.132 25.6062 53.82 26.5182 53.82H27.7062C28.4742 53.82 29.0802 54.048 29.5242 54.504C29.9682 54.96 30.1902 55.584 30.1902 56.376V62.784C30.1902 62.928 30.1302 63 30.0102 63H29.4882C29.3562 63 29.2902 62.928 29.2902 62.784V56.412C29.2902 55.848 29.1462 55.41 28.8582 55.098C28.5702 54.786 28.1502 54.63 27.5982 54.63H26.4282C25.8522 54.63 25.3962 54.786 25.0602 55.098C24.7362 55.398 24.5742 55.83 24.5742 56.394V62.784C24.5742 62.928 24.5082 63 24.3762 63ZM32.8873 52.308V50.58C32.8873 50.448 32.9473 50.382 33.0673 50.382H33.6073C33.7273 50.382 33.7873 50.448 33.7873 50.58V52.308C33.7873 52.452 33.7273 52.524 33.6073 52.524H33.0673C32.9473 52.524 32.8873 52.452 32.8873 52.308ZM32.8873 62.784V54.036C32.8873 53.892 32.9473 53.82 33.0673 53.82H33.5893C33.7213 53.82 33.7873 53.892 33.7873 54.036V62.784C33.7873 62.928 33.7273 63 33.6073 63H33.0673C32.9473 63 32.8873 62.928 32.8873 62.784ZM36.9726 54.63H35.8746C35.7426 54.63 35.6766 54.57 35.6766 54.45V54.018C35.6766 53.886 35.7426 53.82 35.8746 53.82H36.9726C37.0806 53.82 37.1346 53.766 37.1346 53.658V52.2C37.1346 52.056 37.2006 51.984 37.3326 51.984H37.8546C37.9866 51.984 38.0526 52.056 38.0526 52.2V53.658C38.0526 53.766 38.1066 53.82 38.2146 53.82H40.3566C40.4886 53.82 40.5546 53.886 40.5546 54.018V54.45C40.5546 54.57 40.4886 54.63 40.3566 54.63H38.2146C38.1066 54.63 38.0526 54.684 38.0526 54.792V60.462C38.0526 61.014 38.2086 61.44 38.5206 61.74C38.8326 62.04 39.2706 62.19 39.8346 62.19H40.5366C40.6686 62.19 40.7346 62.256 40.7346 62.388V62.802C40.7346 62.934 40.6686 63 40.5366 63H39.7626C38.9706 63 38.3346 62.778 37.8546 62.334C37.3746 61.89 37.1346 61.278 37.1346 60.498V54.792C37.1346 54.684 37.0806 54.63 36.9726 54.63ZM48.9188 63H45.1568C44.3768 63 43.7588 62.772 43.3028 62.316C42.8588 61.86 42.6368 61.236 42.6368 60.444V56.376C42.6368 55.584 42.8588 54.96 43.3028 54.504C43.7588 54.048 44.3768 53.82 45.1568 53.82H46.7048C47.4848 53.82 48.1028 54.048 48.5588 54.504C49.0148 54.96 49.2428 55.584 49.2428 56.376V58.662C49.2428 58.806 49.1708 58.878 49.0268 58.878H43.6988C43.5908 58.878 43.5368 58.932 43.5368 59.04V60.426C43.5368 60.99 43.6808 61.428 43.9688 61.74C44.2568 62.04 44.6768 62.19 45.2288 62.19H48.9188C49.0508 62.19 49.1168 62.256 49.1168 62.388V62.802C49.1168 62.934 49.0508 63 48.9188 63ZM43.6988 58.158H48.1808C48.2888 58.158 48.3428 58.104 48.3428 57.996V56.394C48.3428 55.83 48.1988 55.398 47.9108 55.098C47.6228 54.786 47.2028 54.63 46.6508 54.63H45.2288C44.6768 54.63 44.2568 54.786 43.9688 55.098C43.6808 55.398 43.5368 55.83 43.5368 56.394V57.996C43.5368 58.104 43.5908 58.158 43.6988 58.158ZM56.8062 62.388V62.802C56.8062 62.934 56.7402 63 56.6082 63H54.0162C53.2362 63 52.6182 62.772 52.1622 62.316C51.7182 61.86 51.4962 61.236 51.4962 60.444V56.376C51.4962 55.584 51.7182 54.96 52.1622 54.504C52.6182 54.048 53.2362 53.82 54.0162 53.82H56.6082C56.7402 53.82 56.8062 53.886 56.8062 54.018V54.45C56.8062 54.57 56.7402 54.63 56.6082 54.63H54.0882C53.5362 54.63 53.1162 54.786 52.8282 55.098C52.5402 55.41 52.3962 55.848 52.3962 56.412V60.408C52.3962 60.972 52.5402 61.41 52.8282 61.722C53.1162 62.034 53.5362 62.19 54.0882 62.19H56.6082C56.7402 62.19 56.8062 62.256 56.8062 62.388ZM59.1562 54.63H58.0582C57.9262 54.63 57.8602 54.57 57.8602 54.45V54.018C57.8602 53.886 57.9262 53.82 58.0582 53.82H59.1562C59.2642 53.82 59.3182 53.766 59.3182 53.658V52.2C59.3182 52.056 59.3842 51.984 59.5162 51.984H60.0382C60.1702 51.984 60.2362 52.056 60.2362 52.2V53.658C60.2362 53.766 60.2902 53.82 60.3982 53.82H62.5402C62.6722 53.82 62.7382 53.886 62.7382 54.018V54.45C62.7382 54.57 62.6722 54.63 62.5402 54.63H60.3982C60.2902 54.63 60.2362 54.684 60.2362 54.792V60.462C60.2362 61.014 60.3922 61.44 60.7042 61.74C61.0162 62.04 61.4542 62.19 62.0182 62.19H62.7202C62.8522 62.19 62.9182 62.256 62.9182 62.388V62.802C62.9182 62.934 62.8522 63 62.7202 63H61.9462C61.1542 63 60.5182 62.778 60.0382 62.334C59.5582 61.89 59.3182 61.278 59.3182 60.498V54.792C59.3182 54.684 59.2642 54.63 59.1562 54.63ZM68.5824 63H67.3944C66.6264 63 66.0204 62.772 65.5764 62.316C65.1324 61.86 64.9104 61.236 64.9104 60.444V54.036C64.9104 53.892 64.9704 53.82 65.0904 53.82H65.6124C65.7444 53.82 65.8104 53.892 65.8104 54.036V60.408C65.8104 60.972 65.9544 61.41 66.2424 61.722C66.5304 62.034 66.9504 62.19 67.5024 62.19H68.6724C69.2484 62.19 69.6984 62.04 70.0224 61.74C70.3584 61.428 70.5264 60.99 70.5264 60.426V54.036C70.5264 53.892 70.5924 53.82 70.7244 53.82H71.2464C71.3664 53.82 71.4264 53.892 71.4264 54.036V62.784C71.4264 62.928 71.3664 63 71.2464 63H70.7244C70.5924 63 70.5264 62.928 70.5264 62.784V62.064H70.4544C70.1424 62.688 69.5184 63 68.5824 63ZM74.8254 63H74.3034C74.1834 63 74.1234 62.928 74.1234 62.784V54.036C74.1234 53.892 74.1834 53.82 74.3034 53.82H74.8254C74.9574 53.82 75.0234 53.892 75.0234 54.036V54.792H75.0954C75.2274 54.54 75.4614 54.318 75.7974 54.126C76.1334 53.922 76.5474 53.82 77.0394 53.82H77.7414C77.8734 53.82 77.9394 53.886 77.9394 54.018V54.45C77.9394 54.582 77.8734 54.642 77.7414 54.63H76.8954C76.3074 54.63 75.8454 54.81 75.5094 55.17C75.1854 55.53 75.0234 56.016 75.0234 56.628V62.784C75.0234 62.928 74.9574 63 74.8254 63ZM85.868 63H82.106C81.326 63 80.708 62.772 80.252 62.316C79.808 61.86 79.586 61.236 79.586 60.444V56.376C79.586 55.584 79.808 54.96 80.252 54.504C80.708 54.048 81.326 53.82 82.106 53.82H83.654C84.434 53.82 85.052 54.048 85.508 54.504C85.964 54.96 86.192 55.584 86.192 56.376V58.662C86.192 58.806 86.12 58.878 85.976 58.878H80.648C80.54 58.878 80.486 58.932 80.486 59.04V60.426C80.486 60.99 80.63 61.428 80.918 61.74C81.206 62.04 81.626 62.19 82.178 62.19H85.868C86 62.19 86.066 62.256 86.066 62.388V62.802C86.066 62.934 86 63 85.868 63ZM80.648 58.158H85.13C85.238 58.158 85.292 58.104 85.292 57.996V56.394C85.292 55.83 85.148 55.398 84.86 55.098C84.572 54.786 84.152 54.63 83.6 54.63H82.178C81.626 54.63 81.206 54.786 80.918 55.098C80.63 55.398 80.486 55.83 80.486 56.394V57.996C80.486 58.104 80.54 58.158 80.648 58.158Z" fill="#5A5A5A"/>
</svg>
