<svg width="172" height="66" viewBox="0 0 172 66" fill="none" xmlns="http://www.w3.org/2000/svg">
<path d="M1.176 13.064V12.584C1.176 12.248 1.344 12.08 1.68 12.08H3.72C4.056 12.08 4.224 12.248 4.224 12.584V12.776C4.224 13.384 4.344 13.8 4.584 14.024C4.824 14.248 5.264 14.36 5.904 14.36H7.032C7.656 14.36 8.088 14.24 8.328 14C8.584 13.76 8.712 13.312 8.712 12.656V12.368C8.712 11.904 8.52 11.552 8.136 11.312C7.768 11.056 7.304 10.904 6.744 10.856C6.184 10.808 5.576 10.72 4.92 10.592C4.28 10.448 3.68 10.272 3.12 10.064C2.56 9.84 2.088 9.416 1.704 8.792C1.336 8.152 1.152 7.336 1.152 6.344V5.504C1.152 4.256 1.504 3.288 2.208 2.6C2.912 1.912 3.888 1.568 5.136 1.568H7.536C8.8 1.568 9.784 1.912 10.488 2.6C11.192 3.288 11.544 4.256 11.544 5.504V5.96C11.544 6.296 11.376 6.464 11.04 6.464H9C8.664 6.464 8.496 6.296 8.496 5.96V5.816C8.496 5.192 8.376 4.768 8.136 4.544C7.896 4.32 7.456 4.208 6.816 4.208H5.88C5.224 4.208 4.776 4.336 4.536 4.592C4.312 4.832 4.2 5.312 4.2 6.032V6.488C4.2 7.24 4.856 7.672 6.168 7.784C7.528 7.896 8.736 8.168 9.792 8.6C10.352 8.84 10.816 9.272 11.184 9.896C11.568 10.504 11.76 11.288 11.76 12.248V13.064C11.76 14.312 11.408 15.28 10.704 15.968C10 16.656 9.024 17 7.776 17H5.16C3.912 17 2.936 16.656 2.232 15.968C1.528 15.28 1.176 14.312 1.176 13.064ZM18.5535 17H17.9775C16.7135 17 15.7375 16.664 15.0495 15.992C14.3615 15.32 14.0175 14.352 14.0175 13.088V8.672C14.0175 7.408 14.3615 6.44 15.0495 5.768C15.7375 5.096 16.7135 4.76 17.9775 4.76H23.5215C23.8735 4.76 24.0495 4.928 24.0495 5.264V16.496C24.0495 16.832 23.8735 17 23.5215 17H21.5055C21.1695 17 21.0015 16.832 21.0015 16.496V15.704H20.9055C20.7295 16.136 20.4175 16.464 19.9695 16.688C19.5215 16.896 19.0495 17 18.5535 17ZM21.0015 12.536V7.664C21.0015 7.488 20.9055 7.4 20.7135 7.4H18.4575C17.9455 7.4 17.5855 7.512 17.3775 7.736C17.1695 7.944 17.0655 8.304 17.0655 8.816V12.944C17.0655 13.456 17.1695 13.824 17.3775 14.048C17.5855 14.256 17.9455 14.36 18.4575 14.36H19.3455C20.4495 14.36 21.0015 13.752 21.0015 12.536ZM29.2234 20.264H27.1834C26.8474 20.264 26.6794 20.104 26.6794 19.784V5.264C26.6794 4.928 26.8474 4.76 27.1834 4.76H29.2234C29.5594 4.76 29.7274 4.928 29.7274 5.264V6.056H29.8234C29.9994 5.624 30.3114 5.304 30.7594 5.096C31.2074 4.872 31.6794 4.76 32.1754 4.76H33.1594C34.3914 4.76 35.3194 5.096 35.9434 5.768C36.5834 6.44 36.9034 7.408 36.9034 8.672V13.088C36.9034 14.352 36.5834 15.32 35.9434 15.992C35.3194 16.664 34.3914 17 33.1594 17H32.1754C31.6794 17 31.2074 16.896 30.7594 16.688C30.3114 16.464 29.9994 16.136 29.8234 15.704H29.7274V19.784C29.7274 20.104 29.5594 20.264 29.2234 20.264ZM31.3834 14.36H32.4394C32.9514 14.36 33.3114 14.256 33.5194 14.048C33.7434 13.824 33.8554 13.456 33.8554 12.944V8.816C33.8554 8.304 33.7434 7.944 33.5194 7.736C33.3114 7.512 32.9514 7.4 32.4394 7.4H31.3834C30.2794 7.4 29.7274 8.008 29.7274 9.224V12.536C29.7274 13.752 30.2794 14.36 31.3834 14.36ZM41.8562 20.264H39.8162C39.4802 20.264 39.3122 20.104 39.3122 19.784V5.264C39.3122 4.928 39.4802 4.76 39.8162 4.76H41.8562C42.1922 4.76 42.3602 4.928 42.3602 5.264V6.056H42.4562C42.6322 5.624 42.9442 5.304 43.3922 5.096C43.8402 4.872 44.3122 4.76 44.8082 4.76H45.7922C47.0242 4.76 47.9522 5.096 48.5762 5.768C49.2162 6.44 49.5362 7.408 49.5362 8.672V13.088C49.5362 14.352 49.2162 15.32 48.5762 15.992C47.9522 16.664 47.0242 17 45.7922 17H44.8082C44.3122 17 43.8402 16.896 43.3922 16.688C42.9442 16.464 42.6322 16.136 42.4562 15.704H42.3602V19.784C42.3602 20.104 42.1922 20.264 41.8562 20.264ZM44.0162 14.36H45.0722C45.5842 14.36 45.9442 14.256 46.1522 14.048C46.3762 13.824 46.4882 13.456 46.4882 12.944V8.816C46.4882 8.304 46.3762 7.944 46.1522 7.736C45.9442 7.512 45.5842 7.4 45.0722 7.4H44.0162C42.9122 7.4 42.3602 8.008 42.3602 9.224V12.536C42.3602 13.752 42.9122 14.36 44.0162 14.36ZM53.937 21.056H52.401C52.081 21.056 51.921 20.88 51.921 20.528V18.92C51.921 18.568 52.081 18.392 52.401 18.392H52.905C53.913 18.392 54.593 18.248 54.945 17.96C55.313 17.688 55.593 17.152 55.785 16.352H54.513C54.209 16.352 54.009 16.184 53.913 15.848L51.105 5.264C51.009 4.928 51.129 4.76 51.465 4.76H53.601C53.921 4.76 54.121 4.928 54.201 5.264L56.265 14.12H56.361L58.401 5.264C58.465 4.928 58.665 4.76 59.001 4.76H61.017C61.417 4.76 61.577 4.936 61.497 5.288L58.569 17C58.217 18.328 57.673 19.336 56.937 20.024C56.201 20.712 55.201 21.056 53.937 21.056ZM68.3713 13.064V12.584C68.3713 12.248 68.5393 12.08 68.8753 12.08H70.9153C71.2513 12.08 71.4193 12.248 71.4193 12.584V12.776C71.4193 13.384 71.5393 13.8 71.7793 14.024C72.0193 14.248 72.4593 14.36 73.0993 14.36H74.2273C74.8513 14.36 75.2833 14.24 75.5233 14C75.7793 13.76 75.9073 13.312 75.9073 12.656V12.368C75.9073 11.904 75.7153 11.552 75.3313 11.312C74.9633 11.056 74.4993 10.904 73.9393 10.856C73.3793 10.808 72.7713 10.72 72.1153 10.592C71.4753 10.448 70.8753 10.272 70.3153 10.064C69.7553 9.84 69.2833 9.416 68.8993 8.792C68.5313 8.152 68.3473 7.336 68.3473 6.344V5.504C68.3473 4.256 68.6993 3.288 69.4033 2.6C70.1073 1.912 71.0833 1.568 72.3313 1.568H74.7313C75.9953 1.568 76.9793 1.912 77.6833 2.6C78.3873 3.288 78.7393 4.256 78.7393 5.504V5.96C78.7393 6.296 78.5713 6.464 78.2353 6.464H76.1953C75.8593 6.464 75.6913 6.296 75.6913 5.96V5.816C75.6913 5.192 75.5713 4.768 75.3313 4.544C75.0913 4.32 74.6513 4.208 74.0113 4.208H73.0753C72.4193 4.208 71.9713 4.336 71.7313 4.592C71.5073 4.832 71.3953 5.312 71.3953 6.032V6.488C71.3953 7.24 72.0513 7.672 73.3633 7.784C74.7233 7.896 75.9313 8.168 76.9873 8.6C77.5473 8.84 78.0113 9.272 78.3793 9.896C78.7633 10.504 78.9553 11.288 78.9553 12.248V13.064C78.9553 14.312 78.6033 15.28 77.8993 15.968C77.1953 16.656 76.2193 17 74.9713 17H72.3553C71.1073 17 70.1313 16.656 69.4273 15.968C68.7233 15.28 68.3713 14.312 68.3713 13.064ZM85.7488 17H85.1728C83.9088 17 82.9328 16.664 82.2448 15.992C81.5568 15.32 81.2128 14.352 81.2128 13.088V8.672C81.2128 7.408 81.5568 6.44 82.2448 5.768C82.9328 5.096 83.9088 4.76 85.1728 4.76H90.7168C91.0688 4.76 91.2448 4.928 91.2448 5.264V16.496C91.2448 16.832 91.0688 17 90.7168 17H88.7008C88.3648 17 88.1968 16.832 88.1968 16.496V15.704H88.1008C87.9248 16.136 87.6128 16.464 87.1648 16.688C86.7168 16.896 86.2448 17 85.7488 17ZM88.1968 12.536V7.664C88.1968 7.488 88.1008 7.4 87.9088 7.4H85.6528C85.1408 7.4 84.7808 7.512 84.5728 7.736C84.3648 7.944 84.2608 8.304 84.2608 8.816V12.944C84.2608 13.456 84.3648 13.824 84.5728 14.048C84.7808 14.256 85.1408 14.36 85.6528 14.36H86.5408C87.6448 14.36 88.1968 13.752 88.1968 12.536ZM96.4187 20.264H94.3787C94.0427 20.264 93.8747 20.104 93.8747 19.784V5.264C93.8747 4.928 94.0427 4.76 94.3787 4.76H96.4187C96.7547 4.76 96.9227 4.928 96.9227 5.264V6.056H97.0187C97.1947 5.624 97.5067 5.304 97.9547 5.096C98.4027 4.872 98.8747 4.76 99.3707 4.76H100.355C101.587 4.76 102.515 5.096 103.139 5.768C103.779 6.44 104.099 7.408 104.099 8.672V13.088C104.099 14.352 103.779 15.32 103.139 15.992C102.515 16.664 101.587 17 100.355 17H99.3707C98.8747 17 98.4027 16.896 97.9547 16.688C97.5067 16.464 97.1947 16.136 97.0187 15.704H96.9227V19.784C96.9227 20.104 96.7547 20.264 96.4187 20.264ZM98.5787 14.36H99.6347C100.147 14.36 100.507 14.256 100.715 14.048C100.939 13.824 101.051 13.456 101.051 12.944V8.816C101.051 8.304 100.939 7.944 100.715 7.736C100.507 7.512 100.147 7.4 99.6347 7.4H98.5787C97.4747 7.4 96.9227 8.008 96.9227 9.224V12.536C96.9227 13.752 97.4747 14.36 98.5787 14.36ZM109.172 17H107.132C106.796 17 106.628 16.832 106.628 16.496V0.631999C106.628 0.296 106.796 0.128 107.132 0.128H109.172C109.508 0.128 109.676 0.296 109.676 0.631999V16.496C109.676 16.832 109.508 17 109.172 17ZM116.733 17H116.157C114.893 17 113.917 16.664 113.229 15.992C112.541 15.32 112.197 14.352 112.197 13.088V8.672C112.197 7.408 112.541 6.44 113.229 5.768C113.917 5.096 114.893 4.76 116.157 4.76H121.701C122.053 4.76 122.229 4.928 122.229 5.264V16.496C122.229 16.832 122.053 17 121.701 17H119.685C119.349 17 119.181 16.832 119.181 16.496V15.704H119.085C118.909 16.136 118.597 16.464 118.149 16.688C117.701 16.896 117.229 17 116.733 17ZM119.181 12.536V7.664C119.181 7.488 119.085 7.4 118.893 7.4H116.637C116.125 7.4 115.765 7.512 115.557 7.736C115.349 7.944 115.245 8.304 115.245 8.816V12.944C115.245 13.456 115.349 13.824 115.557 14.048C115.765 14.256 116.125 14.36 116.637 14.36H117.525C118.629 14.36 119.181 13.752 119.181 12.536ZM127.523 17H125.483C125.147 17 124.979 16.832 124.979 16.496V0.631999C124.979 0.296 125.147 0.128 125.483 0.128H127.523C127.859 0.128 128.027 0.296 128.027 0.631999V16.496C128.027 16.832 127.859 17 127.523 17ZM135.085 17H134.509C133.245 17 132.269 16.664 131.581 15.992C130.893 15.32 130.549 14.352 130.549 13.088V8.672C130.549 7.408 130.893 6.44 131.581 5.768C132.269 5.096 133.245 4.76 134.509 4.76H140.053C140.405 4.76 140.581 4.928 140.581 5.264V16.496C140.581 16.832 140.405 17 140.053 17H138.037C137.701 17 137.533 16.832 137.533 16.496V15.704H137.437C137.261 16.136 136.949 16.464 136.501 16.688C136.053 16.896 135.581 17 135.085 17ZM137.533 12.536V7.664C137.533 7.488 137.437 7.4 137.245 7.4H134.989C134.477 7.4 134.117 7.512 133.909 7.736C133.701 7.944 133.597 8.304 133.597 8.816V12.944C133.597 13.456 133.701 13.824 133.909 14.048C134.117 14.256 134.477 14.36 134.989 14.36H135.877C136.981 14.36 137.533 13.752 137.533 12.536ZM1.224 40H0.666C0.534 40 0.492 39.928 0.54 39.784L4.122 28.642C4.158 28.498 4.242 28.426 4.374 28.426H5.22C5.34 28.426 5.424 28.498 5.472 28.642L9.054 39.784C9.09 39.928 9.048 40 8.928 40H8.352C8.232 40 8.154 39.928 8.118 39.784L7.146 36.904H2.43L1.458 39.784C1.41 39.928 1.332 40 1.224 40ZM4.752 29.416L2.682 36.094H6.912L4.824 29.416H4.752ZM14.4577 40H13.2517C12.4837 40 11.8777 39.772 11.4337 39.316C10.9897 38.86 10.7677 38.236 10.7677 37.444V33.376C10.7677 32.584 10.9897 31.96 11.4337 31.504C11.8777 31.048 12.4837 30.82 13.2517 30.82H14.4577C15.3817 30.82 16.0117 31.132 16.3477 31.756H16.4197V27.562C16.4197 27.418 16.4797 27.346 16.5997 27.346H17.1217C17.2537 27.346 17.3197 27.418 17.3197 27.562V39.784C17.3197 39.928 17.2537 40 17.1217 40H16.5997C16.4797 40 16.4197 39.928 16.4197 39.784V39.064H16.3477C16.0117 39.688 15.3817 40 14.4577 40ZM16.4197 37.426V33.394C16.4197 32.83 16.2517 32.398 15.9157 32.098C15.5917 31.786 15.1417 31.63 14.5657 31.63H13.3597C12.8077 31.63 12.3877 31.786 12.0997 32.098C11.8117 32.41 11.6677 32.848 11.6677 33.412V37.408C11.6677 37.972 11.8117 38.41 12.0997 38.722C12.3877 39.034 12.8077 39.19 13.3597 39.19H14.5657C15.1417 39.19 15.5917 39.04 15.9157 38.74C16.2517 38.428 16.4197 37.99 16.4197 37.426ZM19.172 30.82H19.73C19.85 30.82 19.928 30.892 19.964 31.036L22.376 38.992H22.448L24.842 31.036C24.89 30.892 24.968 30.82 25.076 30.82H25.652C25.784 30.82 25.826 30.892 25.778 31.036L23.06 39.784C23.024 39.928 22.94 40 22.808 40H22.016C21.884 40 21.794 39.928 21.746 39.784L19.028 31.036C18.992 30.892 19.04 30.82 19.172 30.82ZM27.5963 29.308V27.58C27.5963 27.448 27.6563 27.382 27.7763 27.382H28.3163C28.4363 27.382 28.4963 27.448 28.4963 27.58V29.308C28.4963 29.452 28.4363 29.524 28.3163 29.524H27.7763C27.6563 29.524 27.5963 29.452 27.5963 29.308ZM27.5963 39.784V31.036C27.5963 30.892 27.6563 30.82 27.7763 30.82H28.2983C28.4303 30.82 28.4963 30.892 28.4963 31.036V39.784C28.4963 39.928 28.4363 40 28.3163 40H27.7763C27.6563 40 27.5963 39.928 27.5963 39.784ZM34.2555 40H31.1235C30.9915 40 30.9255 39.934 30.9255 39.802V39.388C30.9255 39.268 30.9915 39.208 31.1235 39.208H34.1655C35.2455 39.208 35.7855 38.788 35.7855 37.948V37.516C35.7855 36.736 35.4495 36.226 34.7775 35.986L32.5275 35.122C31.9155 34.882 31.4775 34.6 31.2135 34.276C30.9615 33.952 30.8355 33.502 30.8355 32.926C30.8355 31.522 31.6095 30.82 33.1575 30.82H36.0735C36.2055 30.82 36.2715 30.886 36.2715 31.018V31.432C36.2715 31.552 36.2055 31.612 36.0735 31.612H33.2475C32.7555 31.612 32.3835 31.72 32.1315 31.936C31.8915 32.152 31.7715 32.404 31.7715 32.692V33.106C31.7715 33.442 31.8615 33.706 32.0415 33.898C32.2335 34.09 32.5215 34.252 32.9055 34.384L35.1555 35.284C35.7795 35.488 36.1935 35.794 36.3975 36.202C36.6135 36.598 36.7215 37.156 36.7215 37.876C36.7215 38.596 36.5175 39.13 36.1095 39.478C35.7135 39.826 35.0955 40 34.2555 40ZM42.9255 40H41.3775C40.5975 40 39.9795 39.772 39.5235 39.316C39.0795 38.86 38.8575 38.236 38.8575 37.444V33.376C38.8575 32.584 39.0795 31.96 39.5235 31.504C39.9795 31.048 40.5975 30.82 41.3775 30.82H42.9255C43.7055 30.82 44.3235 31.048 44.7795 31.504C45.2355 31.96 45.4635 32.584 45.4635 33.376V37.444C45.4635 38.236 45.2355 38.86 44.7795 39.316C44.3235 39.772 43.7055 40 42.9255 40ZM41.4495 39.19H42.8535C43.4055 39.19 43.8255 39.04 44.1135 38.74C44.4135 38.428 44.5635 37.99 44.5635 37.426V33.394C44.5635 32.83 44.4135 32.398 44.1135 32.098C43.8255 31.786 43.4055 31.63 42.8535 31.63H41.4495C40.8975 31.63 40.4775 31.786 40.1895 32.098C39.9015 32.398 39.7575 32.83 39.7575 33.394V37.426C39.7575 37.99 39.9015 38.428 40.1895 38.74C40.4775 39.04 40.8975 39.19 41.4495 39.19ZM48.6692 40H48.1472C48.0272 40 47.9672 39.928 47.9672 39.784V31.036C47.9672 30.892 48.0272 30.82 48.1472 30.82H48.6692C48.8012 30.82 48.8672 30.892 48.8672 31.036V31.792H48.9392C49.0712 31.54 49.3052 31.318 49.6412 31.126C49.9772 30.922 50.3912 30.82 50.8832 30.82H51.5852C51.7172 30.82 51.7832 30.886 51.7832 31.018V31.45C51.7832 31.582 51.7172 31.642 51.5852 31.63H50.7392C50.1512 31.63 49.6892 31.81 49.3532 32.17C49.0292 32.53 48.8672 33.016 48.8672 33.628V39.784C48.8672 39.928 48.8012 40 48.6692 40ZM54.0418 42.736H53.3758C53.2438 42.736 53.1778 42.67 53.1778 42.538V42.106C53.1778 41.974 53.2438 41.908 53.3758 41.908H53.8618C54.2218 41.908 54.5278 41.854 54.7798 41.746C55.0318 41.65 55.2538 41.464 55.4458 41.188C55.6378 40.912 55.7638 40.696 55.8238 40.54C55.9918 40.168 56.1298 39.826 56.2378 39.514H55.8958C55.7638 39.514 55.6798 39.442 55.6438 39.298L52.7818 31.036C52.7338 30.892 52.7818 30.82 52.9258 30.82H53.4838C53.6038 30.82 53.6818 30.892 53.7178 31.036L56.3638 38.758H56.4358L59.0818 31.036C59.1178 30.892 59.1958 30.82 59.3158 30.82H59.8558C59.9998 30.82 60.0538 30.892 60.0178 31.036C57.8698 37.324 56.7478 40.576 56.6518 40.792C56.5678 41.008 56.4058 41.302 56.1658 41.674C55.7098 42.382 55.0018 42.736 54.0418 42.736ZM70.5583 40H69.0103C68.2303 40 67.6123 39.772 67.1563 39.316C66.7123 38.86 66.4903 38.236 66.4903 37.444V33.376C66.4903 32.584 66.7123 31.96 67.1563 31.504C67.6123 31.048 68.2303 30.82 69.0103 30.82H70.5583C71.3383 30.82 71.9563 31.048 72.4123 31.504C72.8683 31.96 73.0963 32.584 73.0963 33.376V37.444C73.0963 38.236 72.8683 38.86 72.4123 39.316C71.9563 39.772 71.3383 40 70.5583 40ZM69.0823 39.19H70.4863C71.0383 39.19 71.4583 39.04 71.7463 38.74C72.0463 38.428 72.1963 37.99 72.1963 37.426V33.394C72.1963 32.83 72.0463 32.398 71.7463 32.098C71.4583 31.786 71.0383 31.63 70.4863 31.63H69.0823C68.5303 31.63 68.1103 31.786 67.8223 32.098C67.5343 32.398 67.3903 32.83 67.3903 33.394V37.426C67.3903 37.99 67.5343 38.428 67.8223 38.74C68.1103 39.04 68.5303 39.19 69.0823 39.19ZM76.302 40H75.78C75.66 40 75.6 39.928 75.6 39.784V31.036C75.6 30.892 75.66 30.82 75.78 30.82H76.302C76.434 30.82 76.5 30.892 76.5 31.036V31.756H76.572C76.908 31.132 77.532 30.82 78.444 30.82H79.632C80.4 30.82 81.006 31.048 81.45 31.504C81.894 31.96 82.116 32.584 82.116 33.376V39.784C82.116 39.928 82.056 40 81.936 40H81.414C81.282 40 81.216 39.928 81.216 39.784V33.412C81.216 32.848 81.072 32.41 80.784 32.098C80.496 31.786 80.076 31.63 79.524 31.63H78.354C77.778 31.63 77.322 31.786 76.986 32.098C76.662 32.398 76.5 32.83 76.5 33.394V39.784C76.5 39.928 76.434 40 76.302 40ZM90.6919 28.642V39.784C90.6919 39.928 90.6259 40 90.4939 40H89.9719C89.8519 40 89.7919 39.928 89.7919 39.784V28.642C89.7919 28.498 89.8519 28.426 89.9719 28.426H90.4939C90.6259 28.426 90.6919 28.498 90.6919 28.642ZM94.3723 40H93.8503C93.7303 40 93.6703 39.928 93.6703 39.784V31.036C93.6703 30.892 93.7303 30.82 93.8503 30.82H94.3723C94.5043 30.82 94.5703 30.892 94.5703 31.036V31.756H94.6423C94.9783 31.132 95.6023 30.82 96.5143 30.82H97.7023C98.4703 30.82 99.0763 31.048 99.5203 31.504C99.9643 31.96 100.186 32.584 100.186 33.376V39.784C100.186 39.928 100.126 40 100.006 40H99.4843C99.3523 40 99.2863 39.928 99.2863 39.784V33.412C99.2863 32.848 99.1423 32.41 98.8543 32.098C98.5663 31.786 98.1463 31.63 97.5943 31.63H96.4243C95.8483 31.63 95.3923 31.786 95.0563 32.098C94.7323 32.398 94.5703 32.83 94.5703 33.394V39.784C94.5703 39.928 94.5043 40 94.3723 40ZM104.683 30.82H106.321C106.465 30.82 106.537 30.886 106.537 31.018V31.432C106.537 31.564 106.465 31.63 106.321 31.63H104.683C104.575 31.63 104.521 31.684 104.521 31.792V39.784C104.521 39.928 104.455 40 104.323 40H103.801C103.669 40 103.603 39.928 103.603 39.784V31.792C103.603 31.684 103.549 31.63 103.441 31.63H102.289C102.157 31.63 102.091 31.564 102.091 31.432V31.018C102.091 30.886 102.157 30.82 102.289 30.82H103.441C103.549 30.82 103.603 30.766 103.603 30.658V29.866C103.603 28.186 104.365 27.346 105.889 27.346H106.321C106.465 27.346 106.537 27.412 106.537 27.544V27.958C106.537 28.09 106.465 28.156 106.321 28.156H105.979C105.439 28.156 105.061 28.3 104.845 28.588C104.629 28.876 104.521 29.314 104.521 29.902V30.658C104.521 30.766 104.575 30.82 104.683 30.82ZM112.131 40H110.583C109.803 40 109.185 39.772 108.729 39.316C108.285 38.86 108.063 38.236 108.063 37.444V33.376C108.063 32.584 108.285 31.96 108.729 31.504C109.185 31.048 109.803 30.82 110.583 30.82H112.131C112.911 30.82 113.529 31.048 113.985 31.504C114.441 31.96 114.669 32.584 114.669 33.376V37.444C114.669 38.236 114.441 38.86 113.985 39.316C113.529 39.772 112.911 40 112.131 40ZM110.655 39.19H112.059C112.611 39.19 113.031 39.04 113.319 38.74C113.619 38.428 113.769 37.99 113.769 37.426V33.394C113.769 32.83 113.619 32.398 113.319 32.098C113.031 31.786 112.611 31.63 112.059 31.63H110.655C110.103 31.63 109.683 31.786 109.395 32.098C109.107 32.398 108.963 32.83 108.963 33.394V37.426C108.963 37.99 109.107 38.428 109.395 38.74C109.683 39.04 110.103 39.19 110.655 39.19ZM117.874 40H117.352C117.232 40 117.172 39.928 117.172 39.784V31.036C117.172 30.892 117.232 30.82 117.352 30.82H117.874C118.006 30.82 118.072 30.892 118.072 31.036V31.792H118.144C118.276 31.54 118.51 31.318 118.846 31.126C119.182 30.922 119.596 30.82 120.088 30.82H120.79C120.922 30.82 120.988 30.886 120.988 31.018V31.45C120.988 31.582 120.922 31.642 120.79 31.63H119.944C119.356 31.63 118.894 31.81 118.558 32.17C118.234 32.53 118.072 33.016 118.072 33.628V39.784C118.072 39.928 118.006 40 117.874 40ZM123.517 40H122.995C122.875 40 122.815 39.928 122.815 39.784V31.036C122.815 30.892 122.875 30.82 122.995 30.82H123.517C123.649 30.82 123.715 30.892 123.715 31.036V31.756H123.787C124.135 31.132 124.771 30.82 125.695 30.82H126.433C127.489 30.82 128.221 31.24 128.629 32.08C128.809 31.66 129.115 31.348 129.547 31.144C129.979 30.928 130.423 30.82 130.879 30.82H131.545C132.325 30.82 132.937 31.048 133.381 31.504C133.825 31.96 134.047 32.584 134.047 33.376V39.784C134.047 39.928 133.981 40 133.849 40H133.327C133.195 40 133.129 39.928 133.129 39.784V33.412C133.129 32.836 132.985 32.398 132.697 32.098C132.409 31.786 131.989 31.63 131.437 31.63H130.771C130.195 31.63 129.739 31.798 129.403 32.134C129.067 32.458 128.899 32.902 128.899 33.466V39.784C128.899 39.928 128.833 40 128.701 40H128.179C128.047 40 127.981 39.928 127.981 39.784V33.412C127.981 32.836 127.837 32.398 127.549 32.098C127.261 31.786 126.841 31.63 126.289 31.63H125.569C124.993 31.63 124.537 31.786 124.201 32.098C123.877 32.398 123.715 32.83 123.715 33.394V39.784C123.715 39.928 123.649 40 123.517 40ZM140.141 40H138.989C138.209 40 137.591 39.772 137.135 39.316C136.691 38.86 136.469 38.236 136.469 37.444V33.376C136.469 32.584 136.691 31.96 137.135 31.504C137.591 31.048 138.209 30.82 138.989 30.82H142.805C142.925 30.82 142.985 30.892 142.985 31.036V39.784C142.985 39.928 142.925 40 142.805 40H142.283C142.151 40 142.085 39.928 142.085 39.784V39.064H142.013C141.701 39.688 141.077 40 140.141 40ZM142.085 37.426V31.792C142.085 31.684 142.025 31.63 141.905 31.63H139.061C138.509 31.63 138.089 31.786 137.801 32.098C137.513 32.41 137.369 32.848 137.369 33.412V37.408C137.369 37.972 137.513 38.41 137.801 38.722C138.089 39.034 138.509 39.19 139.061 39.19H140.231C140.807 39.19 141.257 39.04 141.581 38.74C141.917 38.428 142.085 37.99 142.085 37.426ZM146.08 31.63H144.982C144.85 31.63 144.784 31.57 144.784 31.45V31.018C144.784 30.886 144.85 30.82 144.982 30.82H146.08C146.188 30.82 146.242 30.766 146.242 30.658V29.2C146.242 29.056 146.308 28.984 146.44 28.984H146.962C147.094 28.984 147.16 29.056 147.16 29.2V30.658C147.16 30.766 147.214 30.82 147.322 30.82H149.464C149.596 30.82 149.662 30.886 149.662 31.018V31.45C149.662 31.57 149.596 31.63 149.464 31.63H147.322C147.214 31.63 147.16 31.684 147.16 31.792V37.462C147.16 38.014 147.316 38.44 147.628 38.74C147.94 39.04 148.378 39.19 148.942 39.19H149.644C149.776 39.19 149.842 39.256 149.842 39.388V39.802C149.842 39.934 149.776 40 149.644 40H148.87C148.078 40 147.442 39.778 146.962 39.334C146.482 38.89 146.242 38.278 146.242 37.498V31.792C146.242 31.684 146.188 31.63 146.08 31.63ZM152.014 29.308V27.58C152.014 27.448 152.074 27.382 152.194 27.382H152.734C152.854 27.382 152.914 27.448 152.914 27.58V29.308C152.914 29.452 152.854 29.524 152.734 29.524H152.194C152.074 29.524 152.014 29.452 152.014 29.308ZM152.014 39.784V31.036C152.014 30.892 152.074 30.82 152.194 30.82H152.716C152.848 30.82 152.914 30.892 152.914 31.036V39.784C152.914 39.928 152.854 40 152.734 40H152.194C152.074 40 152.014 39.928 152.014 39.784ZM159.592 40H158.044C157.264 40 156.646 39.772 156.19 39.316C155.746 38.86 155.524 38.236 155.524 37.444V33.376C155.524 32.584 155.746 31.96 156.19 31.504C156.646 31.048 157.264 30.82 158.044 30.82H159.592C160.372 30.82 160.99 31.048 161.446 31.504C161.902 31.96 162.13 32.584 162.13 33.376V37.444C162.13 38.236 161.902 38.86 161.446 39.316C160.99 39.772 160.372 40 159.592 40ZM158.116 39.19H159.52C160.072 39.19 160.492 39.04 160.78 38.74C161.08 38.428 161.23 37.99 161.23 37.426V33.394C161.23 32.83 161.08 32.398 160.78 32.098C160.492 31.786 160.072 31.63 159.52 31.63H158.116C157.564 31.63 157.144 31.786 156.856 32.098C156.568 32.398 156.424 32.83 156.424 33.394V37.426C156.424 37.99 156.568 38.428 156.856 38.74C157.144 39.04 157.564 39.19 158.116 39.19ZM165.335 40H164.813C164.693 40 164.633 39.928 164.633 39.784V31.036C164.633 30.892 164.693 30.82 164.813 30.82H165.335C165.467 30.82 165.533 30.892 165.533 31.036V31.756H165.605C165.941 31.132 166.565 30.82 167.477 30.82H168.665C169.433 30.82 170.039 31.048 170.483 31.504C170.927 31.96 171.149 32.584 171.149 33.376V39.784C171.149 39.928 171.089 40 170.969 40H170.447C170.315 40 170.249 39.928 170.249 39.784V33.412C170.249 32.848 170.105 32.41 169.817 32.098C169.529 31.786 169.109 31.63 168.557 31.63H167.387C166.811 31.63 166.355 31.786 166.019 32.098C165.695 32.398 165.533 32.83 165.533 33.394V39.784C165.533 39.928 165.467 40 165.335 40ZM4.05 63H3.528C3.396 63 3.33 62.928 3.33 62.784V52.398C3.33 52.29 3.27 52.236 3.15 52.236H0.54C0.396 52.236 0.324 52.17 0.324 52.038V51.624C0.324 51.492 0.396 51.426 0.54 51.426H7.02C7.164 51.426 7.236 51.492 7.236 51.624V52.038C7.236 52.17 7.164 52.236 7.02 52.236H4.41C4.29 52.236 4.23 52.29 4.23 52.398V62.784C4.23 62.928 4.17 63 4.05 63ZM15.0106 63H11.2486C10.4686 63 9.85059 62.772 9.39459 62.316C8.95059 61.86 8.72859 61.236 8.72859 60.444V56.376C8.72859 55.584 8.95059 54.96 9.39459 54.504C9.85059 54.048 10.4686 53.82 11.2486 53.82H12.7966C13.5766 53.82 14.1946 54.048 14.6506 54.504C15.1066 54.96 15.3346 55.584 15.3346 56.376V58.662C15.3346 58.806 15.2626 58.878 15.1186 58.878H9.79059C9.68259 58.878 9.62859 58.932 9.62859 59.04V60.426C9.62859 60.99 9.77259 61.428 10.0606 61.74C10.3486 62.04 10.7686 62.19 11.3206 62.19H15.0106C15.1426 62.19 15.2086 62.256 15.2086 62.388V62.802C15.2086 62.934 15.1426 63 15.0106 63ZM9.79059 58.158H14.2726C14.3806 58.158 14.4346 58.104 14.4346 57.996V56.394C14.4346 55.83 14.2906 55.398 14.0026 55.098C13.7146 54.786 13.2946 54.63 12.7426 54.63H11.3206C10.7686 54.63 10.3486 54.786 10.0606 55.098C9.77259 55.398 9.62859 55.83 9.62859 56.394V57.996C9.62859 58.104 9.68259 58.158 9.79059 58.158ZM22.898 62.388V62.802C22.898 62.934 22.832 63 22.7 63H20.108C19.328 63 18.71 62.772 18.254 62.316C17.81 61.86 17.588 61.236 17.588 60.444V56.376C17.588 55.584 17.81 54.96 18.254 54.504C18.71 54.048 19.328 53.82 20.108 53.82H22.7C22.832 53.82 22.898 53.886 22.898 54.018V54.45C22.898 54.57 22.832 54.63 22.7 54.63H20.18C19.628 54.63 19.208 54.786 18.92 55.098C18.632 55.41 18.488 55.848 18.488 56.412V60.408C18.488 60.972 18.632 61.41 18.92 61.722C19.208 62.034 19.628 62.19 20.18 62.19H22.7C22.832 62.19 22.898 62.256 22.898 62.388ZM25.554 63H25.032C24.912 63 24.852 62.928 24.852 62.784V50.562C24.852 50.418 24.912 50.346 25.032 50.346H25.554C25.686 50.346 25.752 50.418 25.752 50.562V54.756H25.824C26.16 54.132 26.784 53.82 27.696 53.82H28.884C29.652 53.82 30.258 54.048 30.702 54.504C31.146 54.96 31.368 55.584 31.368 56.376V62.784C31.368 62.928 31.308 63 31.188 63H30.666C30.534 63 30.468 62.928 30.468 62.784V56.412C30.468 55.848 30.324 55.41 30.036 55.098C29.748 54.786 29.328 54.63 28.776 54.63H27.606C27.03 54.63 26.574 54.786 26.238 55.098C25.914 55.398 25.752 55.83 25.752 56.394V62.784C25.752 62.928 25.686 63 25.554 63ZM34.677 63H34.155C34.035 63 33.975 62.928 33.975 62.784V54.036C33.975 53.892 34.035 53.82 34.155 53.82H34.677C34.809 53.82 34.875 53.892 34.875 54.036V54.756H34.947C35.283 54.132 35.907 53.82 36.819 53.82H38.007C38.775 53.82 39.381 54.048 39.825 54.504C40.269 54.96 40.491 55.584 40.491 56.376V62.784C40.491 62.928 40.431 63 40.311 63H39.789C39.657 63 39.591 62.928 39.591 62.784V56.412C39.591 55.848 39.447 55.41 39.159 55.098C38.871 54.786 38.451 54.63 37.899 54.63H36.729C36.153 54.63 35.697 54.786 35.361 55.098C35.037 55.398 34.875 55.83 34.875 56.394V62.784C34.875 62.928 34.809 63 34.677 63ZM46.986 63H45.438C44.658 63 44.04 62.772 43.584 62.316C43.14 61.86 42.918 61.236 42.918 60.444V56.376C42.918 55.584 43.14 54.96 43.584 54.504C44.04 54.048 44.658 53.82 45.438 53.82H46.986C47.766 53.82 48.384 54.048 48.84 54.504C49.296 54.96 49.524 55.584 49.524 56.376V60.444C49.524 61.236 49.296 61.86 48.84 62.316C48.384 62.772 47.766 63 46.986 63ZM45.51 62.19H46.914C47.466 62.19 47.886 62.04 48.174 61.74C48.474 61.428 48.624 60.99 48.624 60.426V56.394C48.624 55.83 48.474 55.398 48.174 55.098C47.886 54.786 47.466 54.63 46.914 54.63H45.51C44.958 54.63 44.538 54.786 44.25 55.098C43.962 55.398 43.818 55.83 43.818 56.394V60.426C43.818 60.99 43.962 61.428 44.25 61.74C44.538 62.04 44.958 62.19 45.51 62.19ZM52.8197 63H52.2977C52.1777 63 52.1177 62.928 52.1177 62.784V50.562C52.1177 50.418 52.1777 50.346 52.2977 50.346H52.8197C52.9517 50.346 53.0177 50.418 53.0177 50.562V62.784C53.0177 62.928 52.9517 63 52.8197 63ZM59.695 63H58.147C57.367 63 56.749 62.772 56.293 62.316C55.849 61.86 55.627 61.236 55.627 60.444V56.376C55.627 55.584 55.849 54.96 56.293 54.504C56.749 54.048 57.367 53.82 58.147 53.82H59.695C60.475 53.82 61.093 54.048 61.549 54.504C62.005 54.96 62.233 55.584 62.233 56.376V60.444C62.233 61.236 62.005 61.86 61.549 62.316C61.093 62.772 60.475 63 59.695 63ZM58.219 62.19H59.623C60.175 62.19 60.595 62.04 60.883 61.74C61.183 61.428 61.333 60.99 61.333 60.426V56.394C61.333 55.83 61.183 55.398 60.883 55.098C60.595 54.786 60.175 54.63 59.623 54.63H58.219C57.667 54.63 57.247 54.786 56.959 55.098C56.671 55.398 56.527 55.83 56.527 56.394V60.426C56.527 60.99 56.671 61.428 56.959 61.74C57.247 62.04 57.667 62.19 58.219 62.19ZM68.3007 62.478H67.1307C66.3627 62.478 65.7507 62.25 65.2947 61.794C64.8507 61.338 64.6287 60.72 64.6287 59.94V56.376C64.6287 55.584 64.8507 54.96 65.2947 54.504C65.7507 54.048 66.3687 53.82 67.1487 53.82H70.9647C71.0967 53.82 71.1627 53.892 71.1627 54.036V62.964C71.1627 63.756 70.9347 64.38 70.4787 64.836C70.0227 65.292 69.4047 65.52 68.6247 65.52H65.3487C65.2167 65.52 65.1507 65.454 65.1507 65.322V64.89C65.1507 64.77 65.2167 64.71 65.3487 64.71H68.5527C69.1047 64.71 69.5247 64.554 69.8127 64.242C70.1007 63.942 70.2447 63.504 70.2447 62.928V61.542H70.1727C69.8727 62.166 69.2487 62.478 68.3007 62.478ZM70.2447 59.904V54.792C70.2447 54.684 70.1907 54.63 70.0827 54.63H67.2387C66.6867 54.63 66.2607 54.786 65.9607 55.098C65.6727 55.398 65.5287 55.836 65.5287 56.412V59.904C65.5287 60.468 65.6727 60.906 65.9607 61.218C66.2607 61.518 66.6867 61.668 67.2387 61.668H68.3907C68.9667 61.668 69.4167 61.518 69.7407 61.218C70.0767 60.906 70.2447 60.468 70.2447 59.904ZM73.9322 52.308V50.58C73.9322 50.448 73.9922 50.382 74.1122 50.382H74.6522C74.7722 50.382 74.8322 50.448 74.8322 50.58V52.308C74.8322 52.452 74.7722 52.524 74.6522 52.524H74.1122C73.9922 52.524 73.9322 52.452 73.9322 52.308ZM73.9322 62.784V54.036C73.9322 53.892 73.9922 53.82 74.1122 53.82H74.6342C74.7662 53.82 74.8322 53.892 74.8322 54.036V62.784C74.8322 62.928 74.7722 63 74.6522 63H74.1122C73.9922 63 73.9322 62.928 73.9322 62.784ZM83.7235 63H79.9615C79.1815 63 78.5635 62.772 78.1075 62.316C77.6635 61.86 77.4415 61.236 77.4415 60.444V56.376C77.4415 55.584 77.6635 54.96 78.1075 54.504C78.5635 54.048 79.1815 53.82 79.9615 53.82H81.5095C82.2895 53.82 82.9075 54.048 83.3635 54.504C83.8195 54.96 84.0475 55.584 84.0475 56.376V58.662C84.0475 58.806 83.9755 58.878 83.8315 58.878H78.5035C78.3955 58.878 78.3415 58.932 78.3415 59.04V60.426C78.3415 60.99 78.4855 61.428 78.7735 61.74C79.0615 62.04 79.4815 62.19 80.0335 62.19H83.7235C83.8555 62.19 83.9215 62.256 83.9215 62.388V62.802C83.9215 62.934 83.8555 63 83.7235 63ZM78.5035 58.158H82.9855C83.0935 58.158 83.1475 58.104 83.1475 57.996V56.394C83.1475 55.83 83.0035 55.398 82.7155 55.098C82.4275 54.786 82.0075 54.63 81.4555 54.63H80.0335C79.4815 54.63 79.0615 54.786 78.7735 55.098C78.4855 55.398 78.3415 55.83 78.3415 56.394V57.996C78.3415 58.104 78.3955 58.158 78.5035 58.158ZM89.4509 63H86.3189C86.1869 63 86.1209 62.934 86.1209 62.802V62.388C86.1209 62.268 86.1869 62.208 86.3189 62.208H89.3609C90.4409 62.208 90.9809 61.788 90.9809 60.948V60.516C90.9809 59.736 90.6449 59.226 89.9729 58.986L87.7229 58.122C87.1109 57.882 86.6729 57.6 86.4089 57.276C86.1569 56.952 86.0309 56.502 86.0309 55.926C86.0309 54.522 86.8049 53.82 88.3529 53.82H91.2689C91.4009 53.82 91.4669 53.886 91.4669 54.018V54.432C91.4669 54.552 91.4009 54.612 91.2689 54.612H88.4429C87.9509 54.612 87.5789 54.72 87.3269 54.936C87.0869 55.152 86.9669 55.404 86.9669 55.692V56.106C86.9669 56.442 87.0569 56.706 87.2369 56.898C87.4289 57.09 87.7169 57.252 88.1009 57.384L90.3509 58.284C90.9749 58.488 91.3889 58.794 91.5929 59.202C91.8089 59.598 91.9169 60.156 91.9169 60.876C91.9169 61.596 91.7129 62.13 91.3049 62.478C90.9089 62.826 90.2909 63 89.4509 63Z" fill="#5A5A5A"/>
</svg>
