<svg width="213" height="42" viewBox="0 0 213 42" fill="none" xmlns="http://www.w3.org/2000/svg">
<path d="M10.808 0.568H14.36C14.696 0.568 14.864 0.736 14.864 1.072V15.496C14.864 15.832 14.696 16 14.36 16H12.392C12.056 16 11.888 15.832 11.888 15.496V4.12H11.792L9.344 12.16C9.248 12.48 9.048 12.64 8.744 12.64H6.728C6.424 12.64 6.224 12.48 6.128 12.16L3.632 4.096H3.536V15.496C3.536 15.688 3.504 15.824 3.44 15.904C3.376 15.968 3.24 16 3.032 16H1.064C0.728 16 0.56 15.832 0.56 15.496V1.072C0.56 0.736 0.728 0.568 1.064 0.568H4.64C4.864 0.568 5.016 0.68 5.096 0.904L7.64 9.376H7.784L10.352 0.904C10.4 0.68 10.552 0.568 10.808 0.568ZM22.0301 16H21.4541C20.1901 16 19.2141 15.664 18.5261 14.992C17.8381 14.32 17.4941 13.352 17.4941 12.088V7.672C17.4941 6.408 17.8381 5.44 18.5261 4.768C19.2141 4.096 20.1901 3.76 21.4541 3.76H26.9981C27.3501 3.76 27.5261 3.928 27.5261 4.264V15.496C27.5261 15.832 27.3501 16 26.9981 16H24.9821C24.6461 16 24.4781 15.832 24.4781 15.496V14.704H24.3821C24.2061 15.136 23.8941 15.464 23.4461 15.688C22.9981 15.896 22.5261 16 22.0301 16ZM24.4781 11.536V6.664C24.4781 6.488 24.3821 6.4 24.1901 6.4H21.9341C21.4221 6.4 21.0621 6.512 20.8541 6.736C20.6461 6.944 20.5421 7.304 20.5421 7.816V11.944C20.5421 12.456 20.6461 12.824 20.8541 13.048C21.0621 13.256 21.4221 13.36 21.9341 13.36H22.8221C23.9261 13.36 24.4781 12.752 24.4781 11.536ZM32.1239 16H29.6999C29.2839 16 29.1719 15.832 29.3639 15.496L32.3879 9.76L29.3639 4.264C29.2039 3.928 29.2999 3.76 29.6519 3.76H32.0999C32.4839 3.76 32.7319 3.928 32.8439 4.264L34.3559 7.912H34.4519L35.7719 4.264C35.8839 3.928 36.1319 3.76 36.5159 3.76H38.9159C39.3319 3.76 39.4359 3.928 39.2279 4.264L36.3479 9.76L39.4439 15.496C39.5239 15.64 39.5319 15.76 39.4679 15.856C39.4199 15.952 39.3159 16 39.1559 16H36.6839C36.3479 16 36.1079 15.832 35.9639 15.496L34.4519 11.824H34.3559L32.8439 15.496C32.7319 15.832 32.4919 16 32.1239 16ZM48.3633 16H46.0593C45.7713 16 45.6753 15.832 45.7713 15.496L49.5633 1.072C49.6753 0.736 49.9153 0.568 50.2833 0.568H53.4753C53.8753 0.568 54.1153 0.736 54.1953 1.072L57.9873 15.496C58.0833 15.832 57.9873 16 57.6993 16H55.3953C55.2193 16 55.0993 15.968 55.0353 15.904C54.9713 15.824 54.9233 15.688 54.8913 15.496L54.2193 12.856H49.5393L48.8673 15.496C48.8353 15.688 48.7793 15.824 48.6993 15.904C48.6353 15.968 48.5233 16 48.3633 16ZM51.8433 3.472L50.1153 10.408H53.6673L51.9393 3.472H51.8433ZM60.1387 6.4H59.1787C58.9867 6.4 58.8507 6.368 58.7707 6.304C58.7067 6.24 58.6747 6.112 58.6747 5.92V4.264C58.6747 3.928 58.8427 3.76 59.1787 3.76H60.1387C60.3147 3.76 60.4027 3.672 60.4027 3.496V1.216C60.4027 0.879999 60.5787 0.711999 60.9307 0.711999H62.9467C63.2827 0.711999 63.4507 0.879999 63.4507 1.216V3.496C63.4507 3.672 63.5467 3.76 63.7387 3.76H65.6107C65.9467 3.76 66.1147 3.928 66.1147 4.264V5.92C66.1147 6.096 66.0747 6.224 65.9947 6.304C65.9307 6.368 65.8027 6.4 65.6107 6.4H63.7387C63.5467 6.4 63.4507 6.488 63.4507 6.664V11.968C63.4507 12.464 63.5627 12.824 63.7867 13.048C64.0107 13.256 64.3787 13.36 64.8907 13.36H65.8507C66.1867 13.36 66.3547 13.528 66.3547 13.864V15.52C66.3547 15.696 66.3147 15.824 66.2347 15.904C66.1707 15.968 66.0427 16 65.8507 16H64.3867C63.1227 16 62.1387 15.664 61.4347 14.992C60.7467 14.32 60.4027 13.36 60.4027 12.112V6.664C60.4027 6.488 60.3147 6.4 60.1387 6.4ZM74.1916 16H72.0556C70.7916 16 69.8156 15.664 69.1276 14.992C68.4396 14.32 68.0956 13.352 68.0956 12.088V7.672C68.0956 6.408 68.4396 5.44 69.1276 4.768C69.8156 4.096 70.7916 3.76 72.0556 3.76H74.1916C75.4396 3.76 76.4076 4.104 77.0956 4.792C77.7996 5.464 78.1516 6.424 78.1516 7.672V12.088C78.1516 13.336 77.7996 14.304 77.0956 14.992C76.4076 15.664 75.4396 16 74.1916 16ZM72.5116 13.384H73.7356C74.2476 13.384 74.6076 13.28 74.8156 13.072C75.0396 12.864 75.1516 12.504 75.1516 11.992V7.768C75.1516 7.256 75.0396 6.896 74.8156 6.688C74.6076 6.48 74.2476 6.376 73.7356 6.376H72.5116C71.9996 6.376 71.6396 6.48 71.4316 6.688C71.2236 6.896 71.1196 7.256 71.1196 7.768V11.992C71.1196 12.504 71.2236 12.864 71.4316 13.072C71.6396 13.28 71.9996 13.384 72.5116 13.384ZM83.0906 16H81.0506C80.7146 16 80.5466 15.832 80.5466 15.496V4.264C80.5466 3.928 80.7146 3.76 81.0506 3.76H83.0906C83.4266 3.76 83.5946 3.928 83.5946 4.264V5.056H83.6906C84.0426 4.192 84.8266 3.76 86.0426 3.76H86.8106C89.3226 3.76 90.5786 5.064 90.5786 7.672V15.496C90.5786 15.832 90.4026 16 90.0506 16H88.0346C87.6986 16 87.5306 15.832 87.5306 15.496V7.816C87.5306 7.304 87.4186 6.944 87.1946 6.736C86.9866 6.512 86.6266 6.4 86.1146 6.4H85.2506C84.1466 6.4 83.5946 7.008 83.5946 8.224V15.496C83.5946 15.832 83.4266 16 83.0906 16ZM95.7731 12.544V14.416C95.7731 14.848 95.5891 15.344 95.2211 15.904L93.5651 18.328C93.4531 18.488 93.3011 18.568 93.1091 18.568C92.8371 18.568 92.7011 18.408 92.7011 18.088V12.568C92.7011 12.248 92.8611 12.088 93.1811 12.088H95.3171C95.6211 12.088 95.7731 12.24 95.7731 12.544ZM110.505 0.568H112.521C112.857 0.568 113.025 0.728 113.025 1.048V12.088C113.025 13.336 112.681 14.304 111.993 14.992C111.305 15.664 110.337 16 109.089 16H106.689C105.425 16 104.449 15.664 103.761 14.992C103.073 14.32 102.729 13.352 102.729 12.088V9.832C102.729 9.496 102.897 9.328 103.233 9.328H105.273C105.609 9.328 105.777 9.496 105.777 9.832V11.944C105.777 12.456 105.881 12.824 106.089 13.048C106.313 13.256 106.673 13.36 107.169 13.36H108.585C109.097 13.36 109.457 13.256 109.665 13.048C109.873 12.824 109.977 12.456 109.977 11.944V1.072C109.977 0.736 110.153 0.568 110.505 0.568ZM118.341 16H116.301C115.965 16 115.797 15.832 115.797 15.496V4.264C115.797 3.928 115.965 3.76 116.301 3.76H118.341C118.677 3.76 118.845 3.928 118.845 4.264V5.08H118.941C119.117 4.648 119.429 4.32 119.877 4.096C120.325 3.872 120.797 3.76 121.293 3.76H122.157C122.477 3.76 122.637 3.928 122.637 4.264V5.92C122.637 6.112 122.597 6.248 122.517 6.328C122.453 6.392 122.333 6.416 122.157 6.4H120.501C119.397 6.4 118.845 7.024 118.845 8.272V15.496C118.845 15.832 118.677 16 118.341 16ZM126.828 12.544V15.496C126.828 15.832 126.676 16 126.372 16H124.236C123.916 16 123.756 15.832 123.756 15.496V12.568C123.756 12.248 123.916 12.088 124.236 12.088H126.372C126.676 12.088 126.828 12.24 126.828 12.544ZM1.61 38.19H5.066C5.618 38.19 6.038 38.04 6.326 37.74C6.626 37.428 6.776 36.984 6.776 36.408V30.018C6.776 29.442 6.626 29.004 6.326 28.704C6.038 28.392 5.618 28.236 5.066 28.236H1.61C1.49 28.236 1.43 28.29 1.43 28.398V38.028C1.43 38.136 1.49 38.19 1.61 38.19ZM0.53 38.784V27.642C0.53 27.498 0.59 27.426 0.71 27.426H5.156C5.936 27.426 6.548 27.654 6.992 28.11C7.448 28.566 7.676 29.19 7.676 29.982V36.444C7.676 37.236 7.448 37.86 6.992 38.316C6.548 38.772 5.936 39 5.156 39H0.71C0.59 39 0.53 38.928 0.53 38.784ZM10.4595 28.308V26.58C10.4595 26.448 10.5195 26.382 10.6395 26.382H11.1795C11.2995 26.382 11.3595 26.448 11.3595 26.58V28.308C11.3595 28.452 11.2995 28.524 11.1795 28.524H10.6395C10.5195 28.524 10.4595 28.452 10.4595 28.308ZM10.4595 38.784V30.036C10.4595 29.892 10.5195 29.82 10.6395 29.82H11.1615C11.2935 29.82 11.3595 29.892 11.3595 30.036V38.784C11.3595 38.928 11.2995 39 11.1795 39H10.6395C10.5195 39 10.4595 38.928 10.4595 38.784ZM14.8508 39H14.3288C14.2088 39 14.1488 38.928 14.1488 38.784V30.036C14.1488 29.892 14.2088 29.82 14.3288 29.82H14.8508C14.9828 29.82 15.0488 29.892 15.0488 30.036V30.792H15.1208C15.2528 30.54 15.4868 30.318 15.8228 30.126C16.1588 29.922 16.5728 29.82 17.0648 29.82H17.7668C17.8988 29.82 17.9648 29.886 17.9648 30.018V30.45C17.9648 30.582 17.8988 30.642 17.7668 30.63H16.9208C16.3328 30.63 15.8708 30.81 15.5348 31.17C15.2108 31.53 15.0488 32.016 15.0488 32.628V38.784C15.0488 38.928 14.9828 39 14.8508 39ZM25.8934 39H22.1314C21.3514 39 20.7334 38.772 20.2774 38.316C19.8334 37.86 19.6114 37.236 19.6114 36.444V32.376C19.6114 31.584 19.8334 30.96 20.2774 30.504C20.7334 30.048 21.3514 29.82 22.1314 29.82H23.6794C24.4594 29.82 25.0774 30.048 25.5334 30.504C25.9894 30.96 26.2174 31.584 26.2174 32.376V34.662C26.2174 34.806 26.1454 34.878 26.0014 34.878H20.6734C20.5654 34.878 20.5114 34.932 20.5114 35.04V36.426C20.5114 36.99 20.6554 37.428 20.9434 37.74C21.2314 38.04 21.6514 38.19 22.2034 38.19H25.8934C26.0254 38.19 26.0914 38.256 26.0914 38.388V38.802C26.0914 38.934 26.0254 39 25.8934 39ZM20.6734 34.158H25.1554C25.2634 34.158 25.3174 34.104 25.3174 33.996V32.394C25.3174 31.83 25.1734 31.398 24.8854 31.098C24.5974 30.786 24.1774 30.63 23.6254 30.63H22.2034C21.6514 30.63 21.2314 30.786 20.9434 31.098C20.6554 31.398 20.5114 31.83 20.5114 32.394V33.996C20.5114 34.104 20.5654 34.158 20.6734 34.158ZM33.7808 38.388V38.802C33.7808 38.934 33.7148 39 33.5828 39H30.9908C30.2108 39 29.5928 38.772 29.1368 38.316C28.6928 37.86 28.4708 37.236 28.4708 36.444V32.376C28.4708 31.584 28.6928 30.96 29.1368 30.504C29.5928 30.048 30.2108 29.82 30.9908 29.82H33.5828C33.7148 29.82 33.7808 29.886 33.7808 30.018V30.45C33.7808 30.57 33.7148 30.63 33.5828 30.63H31.0628C30.5108 30.63 30.0908 30.786 29.8028 31.098C29.5148 31.41 29.3708 31.848 29.3708 32.412V36.408C29.3708 36.972 29.5148 37.41 29.8028 37.722C30.0908 38.034 30.5108 38.19 31.0628 38.19H33.5828C33.7148 38.19 33.7808 38.256 33.7808 38.388ZM36.1308 30.63H35.0328C34.9008 30.63 34.8348 30.57 34.8348 30.45V30.018C34.8348 29.886 34.9008 29.82 35.0328 29.82H36.1308C36.2388 29.82 36.2928 29.766 36.2928 29.658V28.2C36.2928 28.056 36.3588 27.984 36.4908 27.984H37.0128C37.1448 27.984 37.2108 28.056 37.2108 28.2V29.658C37.2108 29.766 37.2648 29.82 37.3728 29.82H39.5148C39.6468 29.82 39.7128 29.886 39.7128 30.018V30.45C39.7128 30.57 39.6468 30.63 39.5148 30.63H37.3728C37.2648 30.63 37.2108 30.684 37.2108 30.792V36.462C37.2108 37.014 37.3668 37.44 37.6788 37.74C37.9908 38.04 38.4288 38.19 38.9928 38.19H39.6948C39.8268 38.19 39.8928 38.256 39.8928 38.388V38.802C39.8928 38.934 39.8268 39 39.6948 39H38.9208C38.1288 39 37.4928 38.778 37.0128 38.334C36.5328 37.89 36.2928 37.278 36.2928 36.498V30.792C36.2928 30.684 36.2388 30.63 36.1308 30.63ZM45.863 39H44.315C43.535 39 42.917 38.772 42.461 38.316C42.017 37.86 41.795 37.236 41.795 36.444V32.376C41.795 31.584 42.017 30.96 42.461 30.504C42.917 30.048 43.535 29.82 44.315 29.82H45.863C46.643 29.82 47.261 30.048 47.717 30.504C48.173 30.96 48.401 31.584 48.401 32.376V36.444C48.401 37.236 48.173 37.86 47.717 38.316C47.261 38.772 46.643 39 45.863 39ZM44.387 38.19H45.791C46.343 38.19 46.763 38.04 47.051 37.74C47.351 37.428 47.501 36.99 47.501 36.426V32.394C47.501 31.83 47.351 31.398 47.051 31.098C46.763 30.786 46.343 30.63 45.791 30.63H44.387C43.835 30.63 43.415 30.786 43.127 31.098C42.839 31.398 42.695 31.83 42.695 32.394V36.426C42.695 36.99 42.839 37.428 43.127 37.74C43.415 38.04 43.835 38.19 44.387 38.19ZM51.6067 39H51.0847C50.9647 39 50.9047 38.928 50.9047 38.784V30.036C50.9047 29.892 50.9647 29.82 51.0847 29.82H51.6067C51.7387 29.82 51.8047 29.892 51.8047 30.036V30.792H51.8767C52.0087 30.54 52.2427 30.318 52.5787 30.126C52.9147 29.922 53.3287 29.82 53.8207 29.82H54.5227C54.6547 29.82 54.7207 29.886 54.7207 30.018V30.45C54.7207 30.582 54.6547 30.642 54.5227 30.63H53.6767C53.0887 30.63 52.6267 30.81 52.2907 31.17C51.9667 31.53 51.8047 32.016 51.8047 32.628V38.784C51.8047 38.928 51.7387 39 51.6067 39ZM65.2341 39H63.6861C62.9061 39 62.2881 38.772 61.8321 38.316C61.3881 37.86 61.1661 37.236 61.1661 36.444V32.376C61.1661 31.584 61.3881 30.96 61.8321 30.504C62.2881 30.048 62.9061 29.82 63.6861 29.82H65.2341C66.0141 29.82 66.6321 30.048 67.0881 30.504C67.5441 30.96 67.7721 31.584 67.7721 32.376V36.444C67.7721 37.236 67.5441 37.86 67.0881 38.316C66.6321 38.772 66.0141 39 65.2341 39ZM63.7581 38.19H65.1621C65.7141 38.19 66.1341 38.04 66.4221 37.74C66.7221 37.428 66.8721 36.99 66.8721 36.426V32.394C66.8721 31.83 66.7221 31.398 66.4221 31.098C66.1341 30.786 65.7141 30.63 65.1621 30.63H63.7581C63.2061 30.63 62.7861 30.786 62.4981 31.098C62.2101 31.398 62.0661 31.83 62.0661 32.394V36.426C62.0661 36.99 62.2101 37.428 62.4981 37.74C62.7861 38.04 63.2061 38.19 63.7581 38.19ZM72.1658 29.82H73.8038C73.9478 29.82 74.0198 29.886 74.0198 30.018V30.432C74.0198 30.564 73.9478 30.63 73.8038 30.63H72.1658C72.0578 30.63 72.0038 30.684 72.0038 30.792V38.784C72.0038 38.928 71.9378 39 71.8058 39H71.2838C71.1518 39 71.0858 38.928 71.0858 38.784V30.792C71.0858 30.684 71.0318 30.63 70.9238 30.63H69.7718C69.6398 30.63 69.5738 30.564 69.5738 30.432V30.018C69.5738 29.886 69.6398 29.82 69.7718 29.82H70.9238C71.0318 29.82 71.0858 29.766 71.0858 29.658V28.866C71.0858 27.186 71.8478 26.346 73.3718 26.346H73.8038C73.9478 26.346 74.0198 26.412 74.0198 26.544V26.958C74.0198 27.09 73.9478 27.156 73.8038 27.156H73.4618C72.9218 27.156 72.5438 27.3 72.3278 27.588C72.1118 27.876 72.0038 28.314 72.0038 28.902V29.658C72.0038 29.766 72.0578 29.82 72.1658 29.82ZM80.6318 36.444V35.796C80.6318 35.664 80.6978 35.598 80.8298 35.598H81.3518C81.4838 35.598 81.5498 35.664 81.5498 35.796V36.39C81.5498 37.59 82.1318 38.19 83.2958 38.19H85.1678C86.3318 38.19 86.9138 37.584 86.9138 36.372V35.616C86.9138 35.088 86.6978 34.674 86.2658 34.374C85.8338 34.074 85.3118 33.858 84.6998 33.726C84.0878 33.594 83.4698 33.456 82.8458 33.312C82.2338 33.168 81.7118 32.904 81.2798 32.52C80.8478 32.136 80.6318 31.62 80.6318 30.972V29.982C80.6318 29.19 80.8598 28.566 81.3158 28.11C81.7718 27.654 82.3898 27.426 83.1698 27.426H85.2578C86.0378 27.426 86.6558 27.654 87.1118 28.11C87.5678 28.566 87.7958 29.19 87.7958 29.982V30.486C87.7958 30.618 87.7298 30.684 87.5978 30.684H87.0758C86.9438 30.684 86.8778 30.618 86.8778 30.486V30.036C86.8778 28.836 86.2958 28.236 85.1318 28.236H83.2778C82.1258 28.236 81.5498 28.848 81.5498 30.072V30.972C81.5498 31.8 82.2878 32.358 83.7638 32.646C84.3758 32.766 84.9878 32.904 85.5998 33.06C86.2238 33.216 86.7518 33.498 87.1838 33.906C87.6158 34.314 87.8318 34.866 87.8318 35.562V36.444C87.8318 37.236 87.6038 37.86 87.1478 38.316C86.6918 38.772 86.0738 39 85.2938 39H83.1698C82.3898 39 81.7718 38.772 81.3158 38.316C80.8598 37.86 80.6318 37.236 80.6318 36.444ZM96.7333 39H92.9713C92.1913 39 91.5733 38.772 91.1173 38.316C90.6733 37.86 90.4513 37.236 90.4513 36.444V32.376C90.4513 31.584 90.6733 30.96 91.1173 30.504C91.5733 30.048 92.1913 29.82 92.9713 29.82H94.5193C95.2993 29.82 95.9173 30.048 96.3733 30.504C96.8293 30.96 97.0573 31.584 97.0573 32.376V34.662C97.0573 34.806 96.9853 34.878 96.8413 34.878H91.5133C91.4053 34.878 91.3513 34.932 91.3513 35.04V36.426C91.3513 36.99 91.4953 37.428 91.7833 37.74C92.0713 38.04 92.4913 38.19 93.0433 38.19H96.7333C96.8653 38.19 96.9313 38.256 96.9313 38.388V38.802C96.9313 38.934 96.8653 39 96.7333 39ZM91.5133 34.158H95.9953C96.1033 34.158 96.1573 34.104 96.1573 33.996V32.394C96.1573 31.83 96.0133 31.398 95.7253 31.098C95.4373 30.786 95.0173 30.63 94.4653 30.63H93.0433C92.4913 30.63 92.0713 30.786 91.7833 31.098C91.4953 31.398 91.3513 31.83 91.3513 32.394V33.996C91.3513 34.104 91.4053 34.158 91.5133 34.158ZM100.193 39H99.6706C99.5506 39 99.4906 38.928 99.4906 38.784V30.036C99.4906 29.892 99.5506 29.82 99.6706 29.82H100.193C100.325 29.82 100.391 29.892 100.391 30.036V30.792H100.463C100.595 30.54 100.829 30.318 101.165 30.126C101.501 29.922 101.915 29.82 102.407 29.82H103.109C103.241 29.82 103.307 29.886 103.307 30.018V30.45C103.307 30.582 103.241 30.642 103.109 30.63H102.263C101.675 30.63 101.213 30.81 100.877 31.17C100.553 31.53 100.391 32.016 100.391 32.628V38.784C100.391 38.928 100.325 39 100.193 39ZM104.287 29.82H104.845C104.965 29.82 105.043 29.892 105.079 30.036L107.491 37.992H107.563L109.957 30.036C110.005 29.892 110.083 29.82 110.191 29.82H110.767C110.899 29.82 110.941 29.892 110.893 30.036L108.175 38.784C108.139 38.928 108.055 39 107.923 39H107.131C106.999 39 106.909 38.928 106.861 38.784L104.143 30.036C104.107 29.892 104.155 29.82 104.287 29.82ZM112.711 28.308V26.58C112.711 26.448 112.771 26.382 112.891 26.382H113.431C113.551 26.382 113.611 26.448 113.611 26.58V28.308C113.611 28.452 113.551 28.524 113.431 28.524H112.891C112.771 28.524 112.711 28.452 112.711 28.308ZM112.711 38.784V30.036C112.711 29.892 112.771 29.82 112.891 29.82H113.413C113.545 29.82 113.611 29.892 113.611 30.036V38.784C113.611 38.928 113.551 39 113.431 39H112.891C112.771 39 112.711 38.928 112.711 38.784ZM121.531 38.388V38.802C121.531 38.934 121.465 39 121.333 39H118.741C117.961 39 117.343 38.772 116.887 38.316C116.443 37.86 116.221 37.236 116.221 36.444V32.376C116.221 31.584 116.443 30.96 116.887 30.504C117.343 30.048 117.961 29.82 118.741 29.82H121.333C121.465 29.82 121.531 29.886 121.531 30.018V30.45C121.531 30.57 121.465 30.63 121.333 30.63H118.813C118.261 30.63 117.841 30.786 117.553 31.098C117.265 31.41 117.121 31.848 117.121 32.412V36.408C117.121 36.972 117.265 37.41 117.553 37.722C117.841 38.034 118.261 38.19 118.813 38.19H121.333C121.465 38.19 121.531 38.256 121.531 38.388ZM129.587 39H125.825C125.045 39 124.427 38.772 123.971 38.316C123.527 37.86 123.305 37.236 123.305 36.444V32.376C123.305 31.584 123.527 30.96 123.971 30.504C124.427 30.048 125.045 29.82 125.825 29.82H127.373C128.153 29.82 128.771 30.048 129.227 30.504C129.683 30.96 129.911 31.584 129.911 32.376V34.662C129.911 34.806 129.839 34.878 129.695 34.878H124.367C124.259 34.878 124.205 34.932 124.205 35.04V36.426C124.205 36.99 124.349 37.428 124.637 37.74C124.925 38.04 125.345 38.19 125.897 38.19H129.587C129.719 38.19 129.785 38.256 129.785 38.388V38.802C129.785 38.934 129.719 39 129.587 39ZM124.367 34.158H128.849C128.957 34.158 129.011 34.104 129.011 33.996V32.394C129.011 31.83 128.867 31.398 128.579 31.098C128.291 30.786 127.871 30.63 127.319 30.63H125.897C125.345 30.63 124.925 30.786 124.637 31.098C124.349 31.398 124.205 31.83 124.205 32.394V33.996C124.205 34.104 124.259 34.158 124.367 34.158ZM139.681 38.19H141.049C141.985 38.19 142.525 37.77 142.669 36.93L139.465 33.258C138.469 33.318 137.971 33.906 137.971 35.022V36.462C137.971 37.614 138.541 38.19 139.681 38.19ZM141.049 39H139.609C138.829 39 138.211 38.778 137.755 38.334C137.299 37.89 137.071 37.278 137.071 36.498V34.968C137.071 34.368 137.227 33.846 137.539 33.402C137.851 32.958 138.331 32.724 138.979 32.7C138.427 32.028 138.151 31.32 138.151 30.576V29.928C138.151 29.148 138.379 28.536 138.835 28.092C139.303 27.648 139.927 27.426 140.707 27.426H141.139C141.919 27.426 142.537 27.648 142.993 28.092C143.449 28.536 143.677 29.148 143.677 29.928V30.756C143.677 30.9 143.611 30.972 143.479 30.972H142.957C142.825 30.972 142.759 30.9 142.759 30.756V29.946C142.759 28.794 142.207 28.218 141.103 28.218H140.761C140.209 28.218 139.789 28.368 139.501 28.668C139.213 28.956 139.069 29.382 139.069 29.946V30.576C139.069 30.948 139.123 31.266 139.231 31.53C139.351 31.794 139.555 32.088 139.843 32.412L140.977 33.708H145.279C145.423 33.708 145.495 33.774 145.495 33.906V34.338C145.495 34.47 145.423 34.536 145.279 34.536H141.661L145.387 38.838C145.459 38.946 145.441 39 145.333 39H144.649C144.529 39 144.427 38.952 144.343 38.856L143.281 37.65C142.945 38.55 142.201 39 141.049 39ZM158.766 39H153.042C152.922 39 152.862 38.928 152.862 38.784V27.642C152.862 27.498 152.922 27.426 153.042 27.426H153.564C153.696 27.426 153.762 27.498 153.762 27.642V37.992C153.762 38.1 153.822 38.154 153.942 38.154H158.766C158.91 38.154 158.982 38.22 158.982 38.352V38.802C158.982 38.934 158.91 39 158.766 39ZM164.691 39H163.143C162.363 39 161.745 38.772 161.289 38.316C160.845 37.86 160.623 37.236 160.623 36.444V32.376C160.623 31.584 160.845 30.96 161.289 30.504C161.745 30.048 162.363 29.82 163.143 29.82H164.691C165.471 29.82 166.089 30.048 166.545 30.504C167.001 30.96 167.229 31.584 167.229 32.376V36.444C167.229 37.236 167.001 37.86 166.545 38.316C166.089 38.772 165.471 39 164.691 39ZM163.215 38.19H164.619C165.171 38.19 165.591 38.04 165.879 37.74C166.179 37.428 166.329 36.99 166.329 36.426V32.394C166.329 31.83 166.179 31.398 165.879 31.098C165.591 30.786 165.171 30.63 164.619 30.63H163.215C162.663 30.63 162.243 30.786 161.955 31.098C161.667 31.398 161.523 31.83 161.523 32.394V36.426C161.523 36.99 161.667 37.428 161.955 37.74C162.243 38.04 162.663 38.19 163.215 38.19ZM173.297 38.478H172.127C171.359 38.478 170.747 38.25 170.291 37.794C169.847 37.338 169.625 36.72 169.625 35.94V32.376C169.625 31.584 169.847 30.96 170.291 30.504C170.747 30.048 171.365 29.82 172.145 29.82H175.961C176.093 29.82 176.159 29.892 176.159 30.036V38.964C176.159 39.756 175.931 40.38 175.475 40.836C175.019 41.292 174.401 41.52 173.621 41.52H170.345C170.213 41.52 170.147 41.454 170.147 41.322V40.89C170.147 40.77 170.213 40.71 170.345 40.71H173.549C174.101 40.71 174.521 40.554 174.809 40.242C175.097 39.942 175.241 39.504 175.241 38.928V37.542H175.169C174.869 38.166 174.245 38.478 173.297 38.478ZM175.241 35.904V30.792C175.241 30.684 175.187 30.63 175.079 30.63H172.235C171.683 30.63 171.257 30.786 170.957 31.098C170.669 31.398 170.525 31.836 170.525 32.412V35.904C170.525 36.468 170.669 36.906 170.957 37.218C171.257 37.518 171.683 37.668 172.235 37.668H173.387C173.963 37.668 174.413 37.518 174.737 37.218C175.073 36.906 175.241 36.468 175.241 35.904ZM178.928 28.308V26.58C178.928 26.448 178.988 26.382 179.108 26.382H179.648C179.768 26.382 179.828 26.448 179.828 26.58V28.308C179.828 28.452 179.768 28.524 179.648 28.524H179.108C178.988 28.524 178.928 28.452 178.928 28.308ZM178.928 38.784V30.036C178.928 29.892 178.988 29.82 179.108 29.82H179.63C179.762 29.82 179.828 29.892 179.828 30.036V38.784C179.828 38.928 179.768 39 179.648 39H179.108C178.988 39 178.928 38.928 178.928 38.784ZM185.588 39H182.456C182.324 39 182.258 38.934 182.258 38.802V38.388C182.258 38.268 182.324 38.208 182.456 38.208H185.498C186.578 38.208 187.118 37.788 187.118 36.948V36.516C187.118 35.736 186.782 35.226 186.11 34.986L183.86 34.122C183.248 33.882 182.81 33.6 182.546 33.276C182.294 32.952 182.168 32.502 182.168 31.926C182.168 30.522 182.942 29.82 184.49 29.82H187.406C187.538 29.82 187.604 29.886 187.604 30.018V30.432C187.604 30.552 187.538 30.612 187.406 30.612H184.58C184.088 30.612 183.716 30.72 183.464 30.936C183.224 31.152 183.104 31.404 183.104 31.692V32.106C183.104 32.442 183.194 32.706 183.374 32.898C183.566 33.09 183.854 33.252 184.238 33.384L186.488 34.284C187.112 34.488 187.526 34.794 187.73 35.202C187.946 35.598 188.054 36.156 188.054 36.876C188.054 37.596 187.85 38.13 187.442 38.478C187.046 38.826 186.428 39 185.588 39ZM190.766 30.63H189.668C189.536 30.63 189.47 30.57 189.47 30.45V30.018C189.47 29.886 189.536 29.82 189.668 29.82H190.766C190.874 29.82 190.928 29.766 190.928 29.658V28.2C190.928 28.056 190.994 27.984 191.126 27.984H191.648C191.78 27.984 191.846 28.056 191.846 28.2V29.658C191.846 29.766 191.9 29.82 192.008 29.82H194.15C194.282 29.82 194.348 29.886 194.348 30.018V30.45C194.348 30.57 194.282 30.63 194.15 30.63H192.008C191.9 30.63 191.846 30.684 191.846 30.792V36.462C191.846 37.014 192.002 37.44 192.314 37.74C192.626 38.04 193.064 38.19 193.628 38.19H194.33C194.462 38.19 194.528 38.256 194.528 38.388V38.802C194.528 38.934 194.462 39 194.33 39H193.556C192.764 39 192.128 38.778 191.648 38.334C191.168 37.89 190.928 37.278 190.928 36.498V30.792C190.928 30.684 190.874 30.63 190.766 30.63ZM196.7 28.308V26.58C196.7 26.448 196.76 26.382 196.88 26.382H197.42C197.54 26.382 197.6 26.448 197.6 26.58V28.308C197.6 28.452 197.54 28.524 197.42 28.524H196.88C196.76 28.524 196.7 28.452 196.7 28.308ZM196.7 38.784V30.036C196.7 29.892 196.76 29.82 196.88 29.82H197.402C197.534 29.82 197.6 29.892 197.6 30.036V38.784C197.6 38.928 197.54 39 197.42 39H196.88C196.76 39 196.7 38.928 196.7 38.784ZM205.519 38.388V38.802C205.519 38.934 205.453 39 205.321 39H202.729C201.949 39 201.331 38.772 200.875 38.316C200.431 37.86 200.209 37.236 200.209 36.444V32.376C200.209 31.584 200.431 30.96 200.875 30.504C201.331 30.048 201.949 29.82 202.729 29.82H205.321C205.453 29.82 205.519 29.886 205.519 30.018V30.45C205.519 30.57 205.453 30.63 205.321 30.63H202.801C202.249 30.63 201.829 30.786 201.541 31.098C201.253 31.41 201.109 31.848 201.109 32.412V36.408C201.109 36.972 201.253 37.41 201.541 37.722C201.829 38.034 202.249 38.19 202.801 38.19H205.321C205.453 38.19 205.519 38.256 205.519 38.388ZM210.443 39H207.311C207.179 39 207.113 38.934 207.113 38.802V38.388C207.113 38.268 207.179 38.208 207.311 38.208H210.353C211.433 38.208 211.973 37.788 211.973 36.948V36.516C211.973 35.736 211.637 35.226 210.965 34.986L208.715 34.122C208.103 33.882 207.665 33.6 207.401 33.276C207.149 32.952 207.023 32.502 207.023 31.926C207.023 30.522 207.797 29.82 209.345 29.82H212.261C212.393 29.82 212.459 29.886 212.459 30.018V30.432C212.459 30.552 212.393 30.612 212.261 30.612H209.435C208.943 30.612 208.571 30.72 208.319 30.936C208.079 31.152 207.959 31.404 207.959 31.692V32.106C207.959 32.442 208.049 32.706 208.229 32.898C208.421 33.09 208.709 33.252 209.093 33.384L211.343 34.284C211.967 34.488 212.381 34.794 212.585 35.202C212.801 35.598 212.909 36.156 212.909 36.876C212.909 37.596 212.705 38.13 212.297 38.478C211.901 38.826 211.283 39 210.443 39Z" fill="#5A5A5A"/>
</svg>
