<svg width="197" height="43" viewBox="0 0 197 43" fill="none" xmlns="http://www.w3.org/2000/svg">
<path d="M3.104 17H1.064C0.728 17 0.56 16.832 0.56 16.496V2.072C0.56 1.736 0.728 1.568 1.064 1.568H3.104C3.44 1.568 3.608 1.736 3.608 2.072V8.912H3.656C3.784 8.528 4.032 8.032 4.4 7.424L8.048 2.072C8.256 1.736 8.568 1.568 8.984 1.568H11.336C11.512 1.568 11.616 1.624 11.648 1.736C11.696 1.832 11.656 1.96 11.528 2.12L6.968 8.432L12.056 16.4C12.168 16.592 12.184 16.744 12.104 16.856C12.04 16.952 11.896 17 11.672 17H9.92C9.36 17 8.984 16.832 8.792 16.496L5.12 10.616L3.608 12.392V16.496C3.608 16.832 3.44 17 3.104 17ZM15.6948 21.056H14.1588C13.8388 21.056 13.6788 20.88 13.6788 20.528V18.92C13.6788 18.568 13.8388 18.392 14.1588 18.392H14.6628C15.6708 18.392 16.3508 18.248 16.7028 17.96C17.0708 17.688 17.3508 17.152 17.5428 16.352H16.2708C15.9668 16.352 15.7668 16.184 15.6708 15.848L12.8628 5.264C12.7668 4.928 12.8868 4.76 13.2228 4.76H15.3588C15.6788 4.76 15.8788 4.928 15.9588 5.264L18.0228 14.12H18.1188L20.1588 5.264C20.2228 4.928 20.4228 4.76 20.7588 4.76H22.7748C23.1748 4.76 23.3348 4.936 23.2548 5.288L20.3268 17C19.9748 18.328 19.4308 19.336 18.6948 20.024C17.9588 20.712 16.9588 21.056 15.6948 21.056ZM27.6637 17H25.6237C25.2877 17 25.1197 16.832 25.1197 16.496V0.631999C25.1197 0.296 25.2877 0.128 25.6237 0.128H27.6637C27.9997 0.128 28.1677 0.296 28.1677 0.631999V16.496C28.1677 16.832 27.9997 17 27.6637 17ZM39.9534 17H34.6494C33.3854 17 32.4094 16.664 31.7214 15.992C31.0334 15.32 30.6894 14.352 30.6894 13.088V8.672C30.6894 7.408 31.0334 6.44 31.7214 5.768C32.4094 5.096 33.3854 4.76 34.6494 4.76H36.5454C37.8094 4.76 38.7854 5.096 39.4734 5.768C40.1614 6.44 40.5054 7.408 40.5054 8.672V11.72C40.5054 12.056 40.3374 12.224 40.0014 12.224H33.9774C33.7854 12.224 33.6894 12.312 33.6894 12.488V13.016C33.6894 13.512 33.7934 13.872 34.0014 14.096C34.2254 14.304 34.5934 14.408 35.1054 14.408H39.9534C40.2894 14.408 40.4574 14.584 40.4574 14.936V16.52C40.4574 16.696 40.4174 16.824 40.3374 16.904C40.2734 16.968 40.1454 17 39.9534 17ZM33.9774 10.184H37.2414C37.4174 10.184 37.5054 10.096 37.5054 9.92V8.768C37.5054 8.256 37.4014 7.896 37.1934 7.688C36.9854 7.48 36.6254 7.376 36.1134 7.376H35.1054C34.5934 7.376 34.2334 7.48 34.0254 7.688C33.8174 7.896 33.7134 8.256 33.7134 8.768V9.92C33.7134 10.096 33.8014 10.184 33.9774 10.184ZM56.6542 17H48.8062C48.4702 17 48.3022 16.832 48.3022 16.496V2.072C48.3022 1.736 48.4702 1.568 48.8062 1.568H56.6542C56.9742 1.568 57.1342 1.736 57.1342 2.072V3.704C57.1342 4.04 56.9742 4.208 56.6542 4.208H51.6382C51.4462 4.208 51.3502 4.296 51.3502 4.472V7.592C51.3502 7.768 51.4462 7.856 51.6382 7.856H55.7422C56.0782 7.856 56.2462 8.024 56.2462 8.36V9.992C56.2462 10.328 56.0782 10.496 55.7422 10.496H51.6382C51.4462 10.496 51.3502 10.584 51.3502 10.76V14.096C51.3502 14.272 51.4462 14.36 51.6382 14.36H56.6542C56.9742 14.36 57.1342 14.528 57.1342 14.864V16.496C57.1342 16.832 56.9742 17 56.6542 17ZM62.0906 17H60.0506C59.7146 17 59.5466 16.832 59.5466 16.496V5.264C59.5466 4.928 59.7146 4.76 60.0506 4.76H62.0906C62.4266 4.76 62.5946 4.928 62.5946 5.264V6.056H62.6906C62.8826 5.672 63.2026 5.36 63.6506 5.12C64.1146 4.88 64.6426 4.76 65.2346 4.76H65.9066C67.2986 4.76 68.2986 5.272 68.9066 6.296C69.4506 5.272 70.3866 4.76 71.7146 4.76H72.4106C73.6426 4.76 74.5706 5.096 75.1946 5.768C75.8346 6.44 76.1546 7.408 76.1546 8.672V16.496C76.1546 16.832 75.9866 17 75.6506 17H73.6106C73.2746 17 73.1066 16.832 73.1066 16.496V8.816C73.1066 8.304 73.0026 7.944 72.7946 7.736C72.5866 7.512 72.2266 7.4 71.7146 7.4H71.1146C70.0106 7.4 69.4586 8.016 69.4586 9.248V16.496C69.4586 16.832 69.2826 17 68.9306 17H66.9146C66.5786 17 66.4106 16.832 66.4106 16.496V8.816C66.4106 8.304 66.2986 7.944 66.0746 7.736C65.8666 7.512 65.5066 7.4 64.9946 7.4H64.2506C63.1466 7.4 62.5946 8.008 62.5946 9.224V16.496C62.5946 16.832 62.4266 17 62.0906 17ZM78.815 2.696V0.607999C78.815 0.288 78.975 0.128 79.295 0.128H81.383C81.703 0.128 81.863 0.28 81.863 0.584V2.696C81.863 3.016 81.703 3.176 81.383 3.176H79.295C78.975 3.176 78.815 3.016 78.815 2.696ZM78.815 16.496V5.264C78.815 4.928 78.975 4.76 79.295 4.76H81.359C81.695 4.76 81.863 4.928 81.863 5.264V16.496C81.863 16.704 81.823 16.84 81.743 16.904C81.679 16.968 81.559 17 81.383 17H79.319C78.983 17 78.815 16.832 78.815 16.496ZM87.1687 17H85.1287C84.7927 17 84.6247 16.832 84.6247 16.496V5.264C84.6247 4.928 84.7927 4.76 85.1287 4.76H87.1687C87.5047 4.76 87.6727 4.928 87.6727 5.264V6.08H87.7687C87.9447 5.648 88.2567 5.32 88.7047 5.096C89.1527 4.872 89.6247 4.76 90.1207 4.76H90.9847C91.3047 4.76 91.4647 4.928 91.4647 5.264V6.92C91.4647 7.112 91.4247 7.248 91.3447 7.328C91.2807 7.392 91.1607 7.416 90.9847 7.4H89.3287C88.2247 7.4 87.6727 8.024 87.6727 9.272V16.496C87.6727 16.832 87.5047 17 87.1687 17ZM101.817 14.36H104.433C104.945 14.36 105.305 14.256 105.513 14.048C105.737 13.824 105.849 13.456 105.849 12.944V5.624C105.849 5.112 105.737 4.752 105.513 4.544C105.305 4.32 104.945 4.208 104.433 4.208H101.817C101.641 4.208 101.553 4.296 101.553 4.472V14.096C101.553 14.272 101.641 14.36 101.817 14.36ZM98.5053 16.496V2.072C98.5053 1.736 98.6733 1.568 99.0093 1.568H104.937C106.185 1.568 107.153 1.912 107.841 2.6C108.545 3.272 108.897 4.232 108.897 5.48V13.088C108.897 14.336 108.545 15.304 107.841 15.992C107.153 16.664 106.185 17 104.937 17H99.0093C98.6733 17 98.5053 16.832 98.5053 16.496ZM120.555 17H115.251C113.987 17 113.011 16.664 112.323 15.992C111.635 15.32 111.291 14.352 111.291 13.088V8.672C111.291 7.408 111.635 6.44 112.323 5.768C113.011 5.096 113.987 4.76 115.251 4.76H117.147C118.411 4.76 119.387 5.096 120.075 5.768C120.763 6.44 121.107 7.408 121.107 8.672V11.72C121.107 12.056 120.939 12.224 120.603 12.224H114.579C114.387 12.224 114.291 12.312 114.291 12.488V13.016C114.291 13.512 114.395 13.872 114.603 14.096C114.827 14.304 115.195 14.408 115.707 14.408H120.555C120.891 14.408 121.059 14.584 121.059 14.936V16.52C121.059 16.696 121.019 16.824 120.939 16.904C120.875 16.968 120.747 17 120.555 17ZM114.579 10.184H117.843C118.019 10.184 118.107 10.096 118.107 9.92V8.768C118.107 8.256 118.003 7.896 117.795 7.688C117.587 7.48 117.227 7.376 116.715 7.376H115.707C115.195 7.376 114.835 7.48 114.627 7.688C114.419 7.896 114.315 8.256 114.315 8.768V9.92C114.315 10.096 114.403 10.184 114.579 10.184ZM126.054 17H124.014C123.678 17 123.51 16.832 123.51 16.496V0.631999C123.51 0.296 123.678 0.128 124.014 0.128H126.054C126.39 0.128 126.558 0.296 126.558 0.631999V16.496C126.558 16.832 126.39 17 126.054 17ZM133.616 17H133.04C131.776 17 130.8 16.664 130.112 15.992C129.424 15.32 129.08 14.352 129.08 13.088V8.672C129.08 7.408 129.424 6.44 130.112 5.768C130.8 5.096 131.776 4.76 133.04 4.76H138.584C138.936 4.76 139.112 4.928 139.112 5.264V16.496C139.112 16.832 138.936 17 138.584 17H136.568C136.232 17 136.064 16.832 136.064 16.496V15.704H135.968C135.792 16.136 135.48 16.464 135.032 16.688C134.584 16.896 134.112 17 133.616 17ZM136.064 12.536V7.664C136.064 7.488 135.968 7.4 135.776 7.4H133.52C133.008 7.4 132.648 7.512 132.44 7.736C132.232 7.944 132.128 8.304 132.128 8.816V12.944C132.128 13.456 132.232 13.824 132.44 14.048C132.648 14.256 133.008 14.36 133.52 14.36H134.408C135.512 14.36 136.064 13.752 136.064 12.536ZM152.031 17H150.015C149.663 17 149.487 16.832 149.487 16.496V4.472C149.487 4.296 149.399 4.208 149.223 4.208H146.487C146.151 4.208 145.983 4.04 145.983 3.704V2.072C145.983 1.736 146.151 1.568 146.487 1.568H155.559C155.895 1.568 156.063 1.736 156.063 2.072V3.704C156.063 4.04 155.895 4.208 155.559 4.208H152.823C152.631 4.208 152.535 4.296 152.535 4.472V16.496C152.535 16.832 152.367 17 152.031 17ZM163.512 17H161.376C160.112 17 159.136 16.664 158.448 15.992C157.76 15.32 157.416 14.352 157.416 13.088V8.672C157.416 7.408 157.76 6.44 158.448 5.768C159.136 5.096 160.112 4.76 161.376 4.76H163.512C164.76 4.76 165.728 5.104 166.416 5.792C167.12 6.464 167.472 7.424 167.472 8.672V13.088C167.472 14.336 167.12 15.304 166.416 15.992C165.728 16.664 164.76 17 163.512 17ZM161.832 14.384H163.056C163.568 14.384 163.928 14.28 164.136 14.072C164.36 13.864 164.472 13.504 164.472 12.992V8.768C164.472 8.256 164.36 7.896 164.136 7.688C163.928 7.48 163.568 7.376 163.056 7.376H161.832C161.32 7.376 160.96 7.48 160.752 7.688C160.544 7.896 160.44 8.256 160.44 8.768V12.992C160.44 13.504 160.544 13.864 160.752 14.072C160.96 14.28 161.32 14.384 161.832 14.384ZM172.411 17H170.371C170.035 17 169.867 16.832 169.867 16.496V5.264C169.867 4.928 170.035 4.76 170.371 4.76H172.411C172.747 4.76 172.915 4.928 172.915 5.264V6.08H173.011C173.187 5.648 173.499 5.32 173.947 5.096C174.395 4.872 174.867 4.76 175.363 4.76H176.227C176.547 4.76 176.707 4.928 176.707 5.264V6.92C176.707 7.112 176.667 7.248 176.587 7.328C176.523 7.392 176.403 7.416 176.227 7.4H174.571C173.467 7.4 172.915 8.024 172.915 9.272V16.496C172.915 16.832 172.747 17 172.411 17ZM180.778 17H178.738C178.402 17 178.234 16.832 178.234 16.496V5.264C178.234 4.928 178.402 4.76 178.738 4.76H180.778C181.114 4.76 181.282 4.928 181.282 5.264V6.08H181.378C181.554 5.648 181.866 5.32 182.314 5.096C182.762 4.872 183.234 4.76 183.73 4.76H184.594C184.914 4.76 185.074 4.928 185.074 5.264V6.92C185.074 7.112 185.034 7.248 184.954 7.328C184.89 7.392 184.77 7.416 184.594 7.4H182.938C181.834 7.4 181.282 8.024 181.282 9.272V16.496C181.282 16.832 181.114 17 180.778 17ZM195.625 17H190.321C189.057 17 188.081 16.664 187.393 15.992C186.705 15.32 186.361 14.352 186.361 13.088V8.672C186.361 7.408 186.705 6.44 187.393 5.768C188.081 5.096 189.057 4.76 190.321 4.76H192.217C193.481 4.76 194.457 5.096 195.145 5.768C195.833 6.44 196.177 7.408 196.177 8.672V11.72C196.177 12.056 196.009 12.224 195.673 12.224H189.649C189.457 12.224 189.361 12.312 189.361 12.488V13.016C189.361 13.512 189.465 13.872 189.673 14.096C189.897 14.304 190.265 14.408 190.777 14.408H195.625C195.961 14.408 196.129 14.584 196.129 14.936V16.52C196.129 16.696 196.089 16.824 196.009 16.904C195.945 16.968 195.817 17 195.625 17ZM189.649 10.184H192.913C193.089 10.184 193.177 10.096 193.177 9.92V8.768C193.177 8.256 193.073 7.896 192.865 7.688C192.657 7.48 192.297 7.376 191.785 7.376H190.777C190.265 7.376 189.905 7.48 189.697 7.688C189.489 7.896 189.385 8.256 189.385 8.768V9.92C189.385 10.096 189.473 10.184 189.649 10.184ZM1.61 39.19H5.066C5.618 39.19 6.038 39.04 6.326 38.74C6.626 38.428 6.776 37.984 6.776 37.408V31.018C6.776 30.442 6.626 30.004 6.326 29.704C6.038 29.392 5.618 29.236 5.066 29.236H1.61C1.49 29.236 1.43 29.29 1.43 29.398V39.028C1.43 39.136 1.49 39.19 1.61 39.19ZM0.53 39.784V28.642C0.53 28.498 0.59 28.426 0.71 28.426H5.156C5.936 28.426 6.548 28.654 6.992 29.11C7.448 29.566 7.676 30.19 7.676 30.982V37.444C7.676 38.236 7.448 38.86 6.992 39.316C6.548 39.772 5.936 40 5.156 40H0.71C0.59 40 0.53 39.928 0.53 39.784ZM16.4715 40H12.7095C11.9295 40 11.3115 39.772 10.8555 39.316C10.4115 38.86 10.1895 38.236 10.1895 37.444V33.376C10.1895 32.584 10.4115 31.96 10.8555 31.504C11.3115 31.048 11.9295 30.82 12.7095 30.82H14.2575C15.0375 30.82 15.6555 31.048 16.1115 31.504C16.5675 31.96 16.7955 32.584 16.7955 33.376V35.662C16.7955 35.806 16.7235 35.878 16.5795 35.878H11.2515C11.1435 35.878 11.0895 35.932 11.0895 36.04V37.426C11.0895 37.99 11.2335 38.428 11.5215 38.74C11.8095 39.04 12.2295 39.19 12.7815 39.19H16.4715C16.6035 39.19 16.6695 39.256 16.6695 39.388V39.802C16.6695 39.934 16.6035 40 16.4715 40ZM11.2515 35.158H15.7335C15.8415 35.158 15.8955 35.104 15.8955 34.996V33.394C15.8955 32.83 15.7515 32.398 15.4635 32.098C15.1755 31.786 14.7555 31.63 14.2035 31.63H12.7815C12.2295 31.63 11.8095 31.786 11.5215 32.098C11.2335 32.398 11.0895 32.83 11.0895 33.394V34.996C11.0895 35.104 11.1435 35.158 11.2515 35.158ZM19.9309 42.682H19.4089C19.2889 42.682 19.2289 42.616 19.2289 42.484V31.036C19.2289 30.892 19.2889 30.82 19.4089 30.82H19.9309C20.0629 30.82 20.1289 30.892 20.1289 31.036V31.756H20.2009C20.5369 31.132 21.1609 30.82 22.0729 30.82H23.2969C24.0649 30.82 24.6709 31.048 25.1149 31.504C25.5589 31.96 25.7809 32.584 25.7809 33.376V37.444C25.7809 38.236 25.5589 38.86 25.1149 39.316C24.6709 39.772 24.0649 40 23.2969 40H22.0729C21.1609 40 20.5369 39.688 20.2009 39.064H20.1289V42.484C20.1289 42.616 20.0629 42.682 19.9309 42.682ZM21.9829 39.19H23.1709C23.7229 39.19 24.1429 39.04 24.4309 38.74C24.7309 38.428 24.8809 37.984 24.8809 37.408V33.412C24.8809 32.836 24.7309 32.398 24.4309 32.098C24.1429 31.786 23.7229 31.63 23.1709 31.63H21.9829C21.4069 31.63 20.9509 31.786 20.6149 32.098C20.2909 32.398 20.1289 32.83 20.1289 33.394V37.426C20.1289 37.99 20.2909 38.428 20.6149 38.74C20.9509 39.04 21.4069 39.19 21.9829 39.19ZM31.8812 40H30.6932C29.9252 40 29.3192 39.772 28.8752 39.316C28.4312 38.86 28.2092 38.236 28.2092 37.444V31.036C28.2092 30.892 28.2692 30.82 28.3892 30.82H28.9112C29.0432 30.82 29.1092 30.892 29.1092 31.036V37.408C29.1092 37.972 29.2532 38.41 29.5412 38.722C29.8292 39.034 30.2492 39.19 30.8012 39.19H31.9712C32.5472 39.19 32.9972 39.04 33.3212 38.74C33.6572 38.428 33.8252 37.99 33.8252 37.426V31.036C33.8252 30.892 33.8912 30.82 34.0232 30.82H34.5452C34.6652 30.82 34.7252 30.892 34.7252 31.036V39.784C34.7252 39.928 34.6652 40 34.5452 40H34.0232C33.8912 40 33.8252 39.928 33.8252 39.784V39.064H33.7532C33.4412 39.688 32.8172 40 31.8812 40ZM37.8183 31.63H36.7203C36.5883 31.63 36.5223 31.57 36.5223 31.45V31.018C36.5223 30.886 36.5883 30.82 36.7203 30.82H37.8183C37.9263 30.82 37.9803 30.766 37.9803 30.658V29.2C37.9803 29.056 38.0463 28.984 38.1783 28.984H38.7003C38.8323 28.984 38.8983 29.056 38.8983 29.2V30.658C38.8983 30.766 38.9523 30.82 39.0603 30.82H41.2023C41.3343 30.82 41.4003 30.886 41.4003 31.018V31.45C41.4003 31.57 41.3343 31.63 41.2023 31.63H39.0603C38.9523 31.63 38.8983 31.684 38.8983 31.792V37.462C38.8983 38.014 39.0543 38.44 39.3663 38.74C39.6783 39.04 40.1163 39.19 40.6803 39.19H41.3823C41.5143 39.19 41.5803 39.256 41.5803 39.388V39.802C41.5803 39.934 41.5143 40 41.3823 40H40.6083C39.8163 40 39.1803 39.778 38.7003 39.334C38.2203 38.89 37.9803 38.278 37.9803 37.498V31.792C37.9803 31.684 37.9263 31.63 37.8183 31.63ZM44.0945 42.736H43.4285C43.2965 42.736 43.2305 42.67 43.2305 42.538V42.106C43.2305 41.974 43.2965 41.908 43.4285 41.908H43.9145C44.2745 41.908 44.5805 41.854 44.8325 41.746C45.0845 41.65 45.3065 41.464 45.4985 41.188C45.6905 40.912 45.8165 40.696 45.8765 40.54C46.0445 40.168 46.1825 39.826 46.2905 39.514H45.9485C45.8165 39.514 45.7325 39.442 45.6965 39.298L42.8345 31.036C42.7865 30.892 42.8345 30.82 42.9785 30.82H43.5365C43.6565 30.82 43.7345 30.892 43.7705 31.036L46.4165 38.758H46.4885L49.1345 31.036C49.1705 30.892 49.2485 30.82 49.3685 30.82H49.9085C50.0525 30.82 50.1065 30.892 50.0705 31.036C47.9225 37.324 46.8005 40.576 46.7045 40.792C46.6205 41.008 46.4585 41.302 46.2185 41.674C45.7625 42.382 45.0545 42.736 44.0945 42.736ZM61.511 40H59.243C58.463 40 57.845 39.772 57.389 39.316C56.945 38.86 56.723 38.236 56.723 37.444V30.982C56.723 30.19 56.945 29.566 57.389 29.11C57.845 28.654 58.463 28.426 59.243 28.426H61.511C62.291 28.426 62.903 28.654 63.347 29.11C63.803 29.566 64.031 30.19 64.031 30.982V31.864C64.031 32.008 63.965 32.08 63.833 32.08H63.329C63.197 32.08 63.131 32.008 63.131 31.864V31.018C63.131 30.442 62.981 30.004 62.681 29.704C62.393 29.392 61.973 29.236 61.421 29.236H59.315C58.763 29.236 58.343 29.392 58.055 29.704C57.767 30.016 57.623 30.454 57.623 31.018V37.408C57.623 37.972 57.767 38.41 58.055 38.722C58.343 39.034 58.763 39.19 59.315 39.19H61.421C61.973 39.19 62.393 39.04 62.681 38.74C62.981 38.428 63.131 37.984 63.131 37.408V36.562C63.131 36.418 63.197 36.346 63.329 36.346H63.833C63.965 36.346 64.031 36.418 64.031 36.562V37.444C64.031 38.236 63.803 38.86 63.347 39.316C62.903 39.772 62.291 40 61.511 40ZM67.2709 40H66.7489C66.6289 40 66.5689 39.928 66.5689 39.784V27.562C66.5689 27.418 66.6289 27.346 66.7489 27.346H67.2709C67.4029 27.346 67.4689 27.418 67.4689 27.562V39.784C67.4689 39.928 67.4029 40 67.2709 40ZM74.1462 40H72.5982C71.8182 40 71.2002 39.772 70.7442 39.316C70.3002 38.86 70.0782 38.236 70.0782 37.444V33.376C70.0782 32.584 70.3002 31.96 70.7442 31.504C71.2002 31.048 71.8182 30.82 72.5982 30.82H74.1462C74.9262 30.82 75.5442 31.048 76.0002 31.504C76.4562 31.96 76.6842 32.584 76.6842 33.376V37.444C76.6842 38.236 76.4562 38.86 76.0002 39.316C75.5442 39.772 74.9262 40 74.1462 40ZM72.6702 39.19H74.0742C74.6262 39.19 75.0462 39.04 75.3342 38.74C75.6342 38.428 75.7842 37.99 75.7842 37.426V33.394C75.7842 32.83 75.6342 32.398 75.3342 32.098C75.0462 31.786 74.6262 31.63 74.0742 31.63H72.6702C72.1182 31.63 71.6982 31.786 71.4102 32.098C71.1222 32.398 70.9782 32.83 70.9782 33.394V37.426C70.9782 37.99 71.1222 38.428 71.4102 38.74C71.6982 39.04 72.1182 39.19 72.6702 39.19ZM82.7699 40H81.5819C80.8139 40 80.2079 39.772 79.7639 39.316C79.3199 38.86 79.0979 38.236 79.0979 37.444V31.036C79.0979 30.892 79.1579 30.82 79.2779 30.82H79.7999C79.9319 30.82 79.9979 30.892 79.9979 31.036V37.408C79.9979 37.972 80.1419 38.41 80.4299 38.722C80.7179 39.034 81.1379 39.19 81.6899 39.19H82.8599C83.4359 39.19 83.8859 39.04 84.2099 38.74C84.5459 38.428 84.7139 37.99 84.7139 37.426V31.036C84.7139 30.892 84.7799 30.82 84.9119 30.82H85.4339C85.5539 30.82 85.6139 30.892 85.6139 31.036V39.784C85.6139 39.928 85.5539 40 85.4339 40H84.9119C84.7799 40 84.7139 39.928 84.7139 39.784V39.064H84.6419C84.3299 39.688 83.7059 40 82.7699 40ZM91.8209 40H90.6149C89.8469 40 89.2409 39.772 88.7969 39.316C88.3529 38.86 88.1309 38.236 88.1309 37.444V33.376C88.1309 32.584 88.3529 31.96 88.7969 31.504C89.2409 31.048 89.8469 30.82 90.6149 30.82H91.8209C92.7449 30.82 93.3749 31.132 93.7109 31.756H93.7829V27.562C93.7829 27.418 93.8429 27.346 93.9629 27.346H94.4849C94.6169 27.346 94.6829 27.418 94.6829 27.562V39.784C94.6829 39.928 94.6169 40 94.4849 40H93.9629C93.8429 40 93.7829 39.928 93.7829 39.784V39.064H93.7109C93.3749 39.688 92.7449 40 91.8209 40ZM93.7829 37.426V33.394C93.7829 32.83 93.6149 32.398 93.2789 32.098C92.9549 31.786 92.5049 31.63 91.9289 31.63H90.7229C90.1709 31.63 89.7509 31.786 89.4629 32.098C89.1749 32.41 89.0309 32.848 89.0309 33.412V37.408C89.0309 37.972 89.1749 38.41 89.4629 38.722C89.7509 39.034 90.1709 39.19 90.7229 39.19H91.9289C92.5049 39.19 92.9549 39.04 93.2789 38.74C93.6149 38.428 93.7829 37.99 93.7829 37.426ZM104.772 39.19H106.824C107.376 39.19 107.796 39.04 108.084 38.74C108.384 38.428 108.534 37.984 108.534 37.408V31.018C108.534 30.442 108.384 30.004 108.084 29.704C107.796 29.392 107.376 29.236 106.824 29.236H104.772C104.22 29.236 103.8 29.392 103.512 29.704C103.224 30.016 103.08 30.454 103.08 31.018V37.408C103.08 37.972 103.224 38.41 103.512 38.722C103.8 39.034 104.22 39.19 104.772 39.19ZM106.914 40H104.7C103.92 40 103.302 39.772 102.846 39.316C102.402 38.86 102.18 38.236 102.18 37.444V30.982C102.18 30.19 102.402 29.566 102.846 29.11C103.302 28.654 103.92 28.426 104.7 28.426H106.914C107.694 28.426 108.306 28.654 108.75 29.11C109.206 29.566 109.434 30.19 109.434 30.982V37.444C109.434 38.236 109.206 38.86 108.75 39.316C108.306 39.772 107.694 40 106.914 40ZM112.831 42.682H112.309C112.189 42.682 112.129 42.616 112.129 42.484V31.036C112.129 30.892 112.189 30.82 112.309 30.82H112.831C112.963 30.82 113.029 30.892 113.029 31.036V31.756H113.101C113.437 31.132 114.061 30.82 114.973 30.82H116.197C116.965 30.82 117.571 31.048 118.015 31.504C118.459 31.96 118.681 32.584 118.681 33.376V37.444C118.681 38.236 118.459 38.86 118.015 39.316C117.571 39.772 116.965 40 116.197 40H114.973C114.061 40 113.437 39.688 113.101 39.064H113.029V42.484C113.029 42.616 112.963 42.682 112.831 42.682ZM114.883 39.19H116.071C116.623 39.19 117.043 39.04 117.331 38.74C117.631 38.428 117.781 37.984 117.781 37.408V33.412C117.781 32.836 117.631 32.398 117.331 32.098C117.043 31.786 116.623 31.63 116.071 31.63H114.883C114.307 31.63 113.851 31.786 113.515 32.098C113.191 32.398 113.029 32.83 113.029 33.394V37.426C113.029 37.99 113.191 38.428 113.515 38.74C113.851 39.04 114.307 39.19 114.883 39.19ZM124.17 40H121.038C120.906 40 120.84 39.934 120.84 39.802V39.388C120.84 39.268 120.906 39.208 121.038 39.208H124.08C125.16 39.208 125.7 38.788 125.7 37.948V37.516C125.7 36.736 125.364 36.226 124.692 35.986L122.442 35.122C121.83 34.882 121.392 34.6 121.128 34.276C120.876 33.952 120.75 33.502 120.75 32.926C120.75 31.522 121.524 30.82 123.072 30.82H125.988C126.12 30.82 126.186 30.886 126.186 31.018V31.432C126.186 31.552 126.12 31.612 125.988 31.612H123.162C122.67 31.612 122.298 31.72 122.046 31.936C121.806 32.152 121.686 32.404 121.686 32.692V33.106C121.686 33.442 121.776 33.706 121.956 33.898C122.148 34.09 122.436 34.252 122.82 34.384L125.07 35.284C125.694 35.488 126.108 35.794 126.312 36.202C126.528 36.598 126.636 37.156 126.636 37.876C126.636 38.596 126.432 39.13 126.024 39.478C125.628 39.826 125.01 40 124.17 40Z" fill="#5A5A5A"/>
</svg>
