<svg width="217" height="96" viewBox="0 0 217 96" fill="none" xmlns="http://www.w3.org/2000/svg">
<path d="M8.96 17H1.064C0.728 17 0.56 16.832 0.56 16.496V2.072C0.56 1.736 0.728 1.568 1.064 1.568H3.104C3.44 1.568 3.608 1.736 3.608 2.072V14.072C3.608 14.248 3.704 14.336 3.896 14.336H8.96C9.28 14.336 9.44 14.512 9.44 14.864V16.496C9.44 16.832 9.28 17 8.96 17ZM15.5173 17H14.7253C13.4933 17 12.5573 16.664 11.9173 15.992C11.2933 15.32 10.9813 14.352 10.9813 13.088V5.264C10.9813 4.928 11.1493 4.76 11.4853 4.76H13.5253C13.8613 4.76 14.0293 4.928 14.0293 5.264V12.944C14.0293 13.456 14.1333 13.824 14.3413 14.048C14.5653 14.256 14.9253 14.36 15.4213 14.36H16.3093C17.4133 14.36 17.9653 13.752 17.9653 12.536V5.264C17.9653 4.928 18.1333 4.76 18.4693 4.76H20.4853C20.8373 4.76 21.0133 4.928 21.0133 5.264V16.496C21.0133 16.832 20.8373 17 20.4853 17H18.4693C18.1333 17 17.9653 16.832 17.9653 16.496V15.704H17.8693C17.6933 16.136 17.3813 16.464 16.9333 16.688C16.4853 16.896 16.0133 17 15.5173 17ZM23.7838 2.696V0.607999C23.7838 0.288 23.9438 0.128 24.2638 0.128H26.3518C26.6718 0.128 26.8318 0.28 26.8318 0.584V2.696C26.8318 3.016 26.6718 3.176 26.3518 3.176H24.2638C23.9438 3.176 23.7838 3.016 23.7838 2.696ZM23.7838 16.496V5.264C23.7838 4.928 23.9438 4.76 24.2638 4.76H26.3278C26.6638 4.76 26.8318 4.928 26.8318 5.264V16.496C26.8318 16.704 26.7918 16.84 26.7118 16.904C26.6478 16.968 26.5278 17 26.3518 17H24.2878C23.9518 17 23.7838 16.832 23.7838 16.496ZM34.2254 17H29.6654C29.3454 17 29.1854 16.832 29.1854 16.496V14.96C29.1854 14.784 29.2174 14.664 29.2814 14.6C29.3454 14.52 29.4734 14.48 29.6654 14.48H33.6734C34.4574 14.48 34.8494 14.24 34.8494 13.76V13.64C34.8494 13.256 34.5214 12.888 33.8654 12.536L31.4894 11.216C30.6734 10.8 30.0734 10.352 29.6894 9.872C29.3054 9.392 29.1134 8.776 29.1134 8.024C29.1134 6.904 29.4094 6.08 30.0014 5.552C30.5934 5.024 31.5214 4.76 32.7854 4.76H36.7934C37.1134 4.76 37.2734 4.928 37.2734 5.264V6.824C37.2734 7 37.2414 7.128 37.1774 7.208C37.1134 7.272 36.9854 7.304 36.7934 7.304H33.4574C32.6734 7.304 32.2814 7.504 32.2814 7.904V8.024C32.2814 8.376 32.6254 8.736 33.3134 9.104L35.7374 10.544C36.5694 10.992 37.1534 11.456 37.4894 11.936C37.8254 12.4 37.9934 13.016 37.9934 13.784C37.9934 15.928 36.7374 17 34.2254 17ZM45.2463 13.064V12.584C45.2463 12.248 45.4143 12.08 45.7503 12.08H47.7903C48.1263 12.08 48.2943 12.248 48.2943 12.584V12.776C48.2943 13.384 48.4143 13.8 48.6543 14.024C48.8943 14.248 49.3343 14.36 49.9743 14.36H51.1023C51.7263 14.36 52.1583 14.24 52.3983 14C52.6543 13.76 52.7823 13.312 52.7823 12.656V12.368C52.7823 11.904 52.5903 11.552 52.2063 11.312C51.8383 11.056 51.3743 10.904 50.8143 10.856C50.2543 10.808 49.6463 10.72 48.9903 10.592C48.3503 10.448 47.7503 10.272 47.1903 10.064C46.6303 9.84 46.1583 9.416 45.7743 8.792C45.4063 8.152 45.2223 7.336 45.2223 6.344V5.504C45.2223 4.256 45.5743 3.288 46.2783 2.6C46.9823 1.912 47.9583 1.568 49.2063 1.568H51.6063C52.8703 1.568 53.8543 1.912 54.5583 2.6C55.2623 3.288 55.6143 4.256 55.6143 5.504V5.96C55.6143 6.296 55.4463 6.464 55.1103 6.464H53.0703C52.7343 6.464 52.5663 6.296 52.5663 5.96V5.816C52.5663 5.192 52.4463 4.768 52.2063 4.544C51.9663 4.32 51.5263 4.208 50.8863 4.208H49.9503C49.2943 4.208 48.8463 4.336 48.6063 4.592C48.3823 4.832 48.2703 5.312 48.2703 6.032V6.488C48.2703 7.24 48.9263 7.672 50.2383 7.784C51.5983 7.896 52.8063 8.168 53.8623 8.6C54.4223 8.84 54.8863 9.272 55.2543 9.896C55.6383 10.504 55.8303 11.288 55.8303 12.248V13.064C55.8303 14.312 55.4783 15.28 54.7743 15.968C54.0703 16.656 53.0943 17 51.8463 17H49.2303C47.9823 17 47.0063 16.656 46.3023 15.968C45.5983 15.28 45.2463 14.312 45.2463 13.064ZM60.9918 13.544V16.496C60.9918 16.832 60.8398 17 60.5358 17H58.3998C58.0798 17 57.9198 16.832 57.9198 16.496V13.568C57.9198 13.248 58.0798 13.088 58.3998 13.088H60.5358C60.8398 13.088 60.9918 13.24 60.9918 13.544ZM68.3557 13.064V12.584C68.3557 12.248 68.5237 12.08 68.8597 12.08H70.8997C71.2357 12.08 71.4037 12.248 71.4037 12.584V12.776C71.4037 13.384 71.5237 13.8 71.7637 14.024C72.0037 14.248 72.4437 14.36 73.0837 14.36H74.2117C74.8357 14.36 75.2677 14.24 75.5077 14C75.7637 13.76 75.8917 13.312 75.8917 12.656V12.368C75.8917 11.904 75.6997 11.552 75.3157 11.312C74.9477 11.056 74.4837 10.904 73.9237 10.856C73.3637 10.808 72.7557 10.72 72.0997 10.592C71.4597 10.448 70.8597 10.272 70.2997 10.064C69.7397 9.84 69.2677 9.416 68.8837 8.792C68.5157 8.152 68.3317 7.336 68.3317 6.344V5.504C68.3317 4.256 68.6837 3.288 69.3877 2.6C70.0917 1.912 71.0677 1.568 72.3157 1.568H74.7157C75.9797 1.568 76.9637 1.912 77.6677 2.6C78.3717 3.288 78.7237 4.256 78.7237 5.504V5.96C78.7237 6.296 78.5557 6.464 78.2197 6.464H76.1797C75.8437 6.464 75.6757 6.296 75.6757 5.96V5.816C75.6757 5.192 75.5557 4.768 75.3157 4.544C75.0757 4.32 74.6357 4.208 73.9957 4.208H73.0597C72.4037 4.208 71.9557 4.336 71.7157 4.592C71.4917 4.832 71.3797 5.312 71.3797 6.032V6.488C71.3797 7.24 72.0357 7.672 73.3477 7.784C74.7077 7.896 75.9157 8.168 76.9717 8.6C77.5317 8.84 77.9957 9.272 78.3637 9.896C78.7477 10.504 78.9397 11.288 78.9397 12.248V13.064C78.9397 14.312 78.5877 15.28 77.8837 15.968C77.1797 16.656 76.2037 17 74.9557 17H72.3397C71.0917 17 70.1157 16.656 69.4117 15.968C68.7077 15.28 68.3557 14.312 68.3557 13.064ZM81.5572 2.696V0.607999C81.5572 0.288 81.7172 0.128 82.0372 0.128H84.1252C84.4452 0.128 84.6052 0.28 84.6052 0.584V2.696C84.6052 3.016 84.4452 3.176 84.1252 3.176H82.0372C81.7172 3.176 81.5572 3.016 81.5572 2.696ZM81.5572 16.496V5.264C81.5572 4.928 81.7172 4.76 82.0372 4.76H84.1012C84.4372 4.76 84.6052 4.928 84.6052 5.264V16.496C84.6052 16.704 84.5652 16.84 84.4852 16.904C84.4212 16.968 84.3012 17 84.1252 17H82.0612C81.7252 17 81.5572 16.832 81.5572 16.496ZM90.0309 17H87.9909C87.6549 17 87.4869 16.832 87.4869 16.496V0.631999C87.4869 0.296 87.6549 0.128 87.9909 0.128H90.0309C90.3669 0.128 90.5349 0.296 90.5349 0.631999V16.496C90.5349 16.832 90.3669 17 90.0309 17ZM92.7686 4.76H94.8806C95.2006 4.76 95.3926 4.928 95.4566 5.264L97.5206 14.288H97.6886L99.7046 5.264C99.7686 4.928 99.9686 4.76 100.305 4.76H102.417C102.753 4.76 102.873 4.928 102.777 5.264L99.7526 16.472C99.6886 16.824 99.4726 17 99.1046 17H96.0566C95.7206 17 95.5046 16.824 95.4086 16.472L92.4086 5.264C92.3126 4.928 92.4326 4.76 92.7686 4.76ZM113.547 17H108.243C106.979 17 106.003 16.664 105.315 15.992C104.627 15.32 104.283 14.352 104.283 13.088V8.672C104.283 7.408 104.627 6.44 105.315 5.768C106.003 5.096 106.979 4.76 108.243 4.76H110.139C111.403 4.76 112.379 5.096 113.067 5.768C113.755 6.44 114.099 7.408 114.099 8.672V11.72C114.099 12.056 113.931 12.224 113.595 12.224H107.571C107.379 12.224 107.283 12.312 107.283 12.488V13.016C107.283 13.512 107.387 13.872 107.595 14.096C107.819 14.304 108.187 14.408 108.699 14.408H113.547C113.883 14.408 114.051 14.584 114.051 14.936V16.52C114.051 16.696 114.011 16.824 113.931 16.904C113.867 16.968 113.739 17 113.547 17ZM107.571 10.184H110.835C111.011 10.184 111.099 10.096 111.099 9.92V8.768C111.099 8.256 110.995 7.896 110.787 7.688C110.579 7.48 110.219 7.376 109.707 7.376H108.699C108.187 7.376 107.827 7.48 107.619 7.688C107.411 7.896 107.307 8.256 107.307 8.768V9.92C107.307 10.096 107.395 10.184 107.571 10.184ZM121.015 17H116.455C116.135 17 115.975 16.832 115.975 16.496V14.96C115.975 14.784 116.007 14.664 116.071 14.6C116.135 14.52 116.263 14.48 116.455 14.48H120.463C121.247 14.48 121.639 14.24 121.639 13.76V13.64C121.639 13.256 121.311 12.888 120.655 12.536L118.279 11.216C117.463 10.8 116.863 10.352 116.479 9.872C116.095 9.392 115.903 8.776 115.903 8.024C115.903 6.904 116.199 6.08 116.791 5.552C117.383 5.024 118.311 4.76 119.575 4.76H123.583C123.903 4.76 124.063 4.928 124.063 5.264V6.824C124.063 7 124.031 7.128 123.967 7.208C123.903 7.272 123.775 7.304 123.583 7.304H120.247C119.463 7.304 119.071 7.504 119.071 7.904V8.024C119.071 8.376 119.415 8.736 120.103 9.104L122.527 10.544C123.359 10.992 123.943 11.456 124.279 11.936C124.615 12.4 124.783 13.016 124.783 13.784C124.783 15.928 123.527 17 121.015 17ZM127.17 7.4H126.21C126.018 7.4 125.882 7.368 125.802 7.304C125.738 7.24 125.706 7.112 125.706 6.92V5.264C125.706 4.928 125.874 4.76 126.21 4.76H127.17C127.346 4.76 127.434 4.672 127.434 4.496V2.216C127.434 1.88 127.61 1.712 127.962 1.712H129.978C130.314 1.712 130.482 1.88 130.482 2.216V4.496C130.482 4.672 130.578 4.76 130.77 4.76H132.642C132.978 4.76 133.146 4.928 133.146 5.264V6.92C133.146 7.096 133.106 7.224 133.026 7.304C132.962 7.368 132.834 7.4 132.642 7.4H130.77C130.578 7.4 130.482 7.488 130.482 7.664V12.968C130.482 13.464 130.594 13.824 130.818 14.048C131.042 14.256 131.41 14.36 131.922 14.36H132.882C133.218 14.36 133.386 14.528 133.386 14.864V16.52C133.386 16.696 133.346 16.824 133.266 16.904C133.202 16.968 133.074 17 132.882 17H131.418C130.154 17 129.17 16.664 128.466 15.992C127.778 15.32 127.434 14.36 127.434 13.112V7.664C127.434 7.488 127.346 7.4 127.17 7.4ZM137.911 17H135.871C135.535 17 135.367 16.832 135.367 16.496V5.264C135.367 4.928 135.535 4.76 135.871 4.76H137.911C138.247 4.76 138.415 4.928 138.415 5.264V6.08H138.511C138.687 5.648 138.999 5.32 139.447 5.096C139.895 4.872 140.367 4.76 140.863 4.76H141.727C142.047 4.76 142.207 4.928 142.207 5.264V6.92C142.207 7.112 142.167 7.248 142.087 7.328C142.023 7.392 141.903 7.416 141.727 7.4H140.071C138.967 7.4 138.415 8.024 138.415 9.272V16.496C138.415 16.832 138.247 17 137.911 17ZM152.758 17H147.454C146.19 17 145.214 16.664 144.526 15.992C143.838 15.32 143.494 14.352 143.494 13.088V8.672C143.494 7.408 143.838 6.44 144.526 5.768C145.214 5.096 146.19 4.76 147.454 4.76H149.35C150.614 4.76 151.59 5.096 152.278 5.768C152.966 6.44 153.31 7.408 153.31 8.672V11.72C153.31 12.056 153.142 12.224 152.806 12.224H146.782C146.59 12.224 146.494 12.312 146.494 12.488V13.016C146.494 13.512 146.598 13.872 146.806 14.096C147.03 14.304 147.398 14.408 147.91 14.408H152.758C153.094 14.408 153.262 14.584 153.262 14.936V16.52C153.262 16.696 153.222 16.824 153.142 16.904C153.078 16.968 152.95 17 152.758 17ZM146.782 10.184H150.046C150.222 10.184 150.31 10.096 150.31 9.92V8.768C150.31 8.256 150.206 7.896 149.998 7.688C149.79 7.48 149.43 7.376 148.918 7.376H147.91C147.398 7.376 147.038 7.48 146.83 7.688C146.622 7.896 146.518 8.256 146.518 8.768V9.92C146.518 10.096 146.606 10.184 146.782 10.184ZM168.091 1.568H170.107C170.443 1.568 170.611 1.728 170.611 2.048V13.088C170.611 14.336 170.267 15.304 169.579 15.992C168.891 16.664 167.923 17 166.675 17H164.275C163.011 17 162.035 16.664 161.347 15.992C160.659 15.32 160.315 14.352 160.315 13.088V10.832C160.315 10.496 160.483 10.328 160.819 10.328H162.859C163.195 10.328 163.363 10.496 163.363 10.832V12.944C163.363 13.456 163.467 13.824 163.675 14.048C163.899 14.256 164.259 14.36 164.755 14.36H166.171C166.683 14.36 167.043 14.256 167.251 14.048C167.459 13.824 167.563 13.456 167.563 12.944V2.072C167.563 1.736 167.739 1.568 168.091 1.568ZM175.927 17H173.887C173.551 17 173.383 16.832 173.383 16.496V5.264C173.383 4.928 173.551 4.76 173.887 4.76H175.927C176.263 4.76 176.431 4.928 176.431 5.264V6.08H176.527C176.703 5.648 177.015 5.32 177.463 5.096C177.911 4.872 178.383 4.76 178.879 4.76H179.743C180.063 4.76 180.223 4.928 180.223 5.264V6.92C180.223 7.112 180.183 7.248 180.103 7.328C180.039 7.392 179.919 7.416 179.743 7.4H178.087C176.983 7.4 176.431 8.024 176.431 9.272V16.496C176.431 16.832 176.263 17 175.927 17ZM184.414 13.544V16.496C184.414 16.832 184.262 17 183.958 17H181.822C181.502 17 181.342 16.832 181.342 16.496V13.568C181.342 13.248 181.502 13.088 181.822 13.088H183.958C184.262 13.088 184.414 13.24 184.414 13.544ZM189.312 13.544V15.416C189.312 15.848 189.128 16.344 188.76 16.904L187.104 19.328C186.992 19.488 186.84 19.568 186.648 19.568C186.376 19.568 186.24 19.408 186.24 19.088V13.568C186.24 13.248 186.4 13.088 186.72 13.088H188.856C189.16 13.088 189.312 13.24 189.312 13.544ZM3.104 48H1.064C0.728 48 0.56 47.832 0.56 47.496V33.072C0.56 32.736 0.728 32.568 1.064 32.568H6.92C8.168 32.568 9.136 32.912 9.824 33.6C10.512 34.272 10.856 35.232 10.856 36.48V38.784C10.856 40.032 10.512 41 9.824 41.688C9.136 42.36 8.168 42.696 6.92 42.696H3.896C3.704 42.696 3.608 42.784 3.608 42.96V47.496C3.608 47.832 3.44 48 3.104 48ZM3.872 40.032H6.416C6.928 40.032 7.288 39.928 7.496 39.72C7.704 39.496 7.808 39.136 7.808 38.64V36.624C7.808 36.112 7.704 35.752 7.496 35.544C7.288 35.32 6.928 35.208 6.416 35.208H3.872C3.696 35.208 3.608 35.296 3.608 35.472V39.768C3.608 39.944 3.696 40.032 3.872 40.032ZM15.5906 48H13.5506C13.2146 48 13.0466 47.832 13.0466 47.496V31.632C13.0466 31.296 13.2146 31.128 13.5506 31.128H15.5906C15.9266 31.128 16.0946 31.296 16.0946 31.632V37.056H16.1906C16.5426 36.192 17.3266 35.76 18.5426 35.76H19.3106C21.8226 35.76 23.0786 37.064 23.0786 39.672V47.496C23.0786 47.832 22.9026 48 22.5506 48H20.5346C20.1986 48 20.0306 47.832 20.0306 47.496V39.816C20.0306 39.304 19.9186 38.944 19.6946 38.736C19.4866 38.512 19.1266 38.4 18.6146 38.4H17.7506C16.6466 38.4 16.0946 39.008 16.0946 40.224V47.496C16.0946 47.832 15.9266 48 15.5906 48ZM28.2731 44.544V47.496C28.2731 47.832 28.1211 48 27.8171 48H25.6811C25.3611 48 25.2011 47.832 25.2011 47.496V44.568C25.2011 44.248 25.3611 44.088 25.6811 44.088H27.8171C28.1211 44.088 28.2731 44.24 28.2731 44.544ZM34.0595 45.36H36.6755C37.1875 45.36 37.5475 45.256 37.7555 45.048C37.9795 44.824 38.0915 44.456 38.0915 43.944V36.624C38.0915 36.112 37.9795 35.752 37.7555 35.544C37.5475 35.32 37.1875 35.208 36.6755 35.208H34.0595C33.8835 35.208 33.7955 35.296 33.7955 35.472V45.096C33.7955 45.272 33.8835 45.36 34.0595 45.36ZM30.7475 47.496V33.072C30.7475 32.736 30.9155 32.568 31.2515 32.568H37.1795C38.4275 32.568 39.3955 32.912 40.0835 33.6C40.7875 34.272 41.1395 35.232 41.1395 36.48V44.088C41.1395 45.336 40.7875 46.304 40.0835 46.992C39.3955 47.664 38.4275 48 37.1795 48H31.2515C30.9155 48 30.7475 47.832 30.7475 47.496ZM46.4371 44.544V47.496C46.4371 47.832 46.2851 48 45.9811 48H43.8451C43.5251 48 43.3651 47.832 43.3651 47.496V44.568C43.3651 44.248 43.5251 44.088 43.8451 44.088H45.9811C46.2851 44.088 46.4371 44.24 46.4371 44.544ZM1.61 70.19H5.066C5.618 70.19 6.038 70.04 6.326 69.74C6.626 69.428 6.776 68.984 6.776 68.408V62.018C6.776 61.442 6.626 61.004 6.326 60.704C6.038 60.392 5.618 60.236 5.066 60.236H1.61C1.49 60.236 1.43 60.29 1.43 60.398V70.028C1.43 70.136 1.49 70.19 1.61 70.19ZM0.53 70.784V59.642C0.53 59.498 0.59 59.426 0.71 59.426H5.156C5.936 59.426 6.548 59.654 6.992 60.11C7.448 60.566 7.676 61.19 7.676 61.982V68.444C7.676 69.236 7.448 69.86 6.992 70.316C6.548 70.772 5.936 71 5.156 71H0.71C0.59 71 0.53 70.928 0.53 70.784ZM10.4595 60.308V58.58C10.4595 58.448 10.5195 58.382 10.6395 58.382H11.1795C11.2995 58.382 11.3595 58.448 11.3595 58.58V60.308C11.3595 60.452 11.2995 60.524 11.1795 60.524H10.6395C10.5195 60.524 10.4595 60.452 10.4595 60.308ZM10.4595 70.784V62.036C10.4595 61.892 10.5195 61.82 10.6395 61.82H11.1615C11.2935 61.82 11.3595 61.892 11.3595 62.036V70.784C11.3595 70.928 11.2995 71 11.1795 71H10.6395C10.5195 71 10.4595 70.928 10.4595 70.784ZM14.8508 71H14.3288C14.2088 71 14.1488 70.928 14.1488 70.784V62.036C14.1488 61.892 14.2088 61.82 14.3288 61.82H14.8508C14.9828 61.82 15.0488 61.892 15.0488 62.036V62.792H15.1208C15.2528 62.54 15.4868 62.318 15.8228 62.126C16.1588 61.922 16.5728 61.82 17.0648 61.82H17.7668C17.8988 61.82 17.9648 61.886 17.9648 62.018V62.45C17.9648 62.582 17.8988 62.642 17.7668 62.63H16.9208C16.3328 62.63 15.8708 62.81 15.5348 63.17C15.2108 63.53 15.0488 64.016 15.0488 64.628V70.784C15.0488 70.928 14.9828 71 14.8508 71ZM25.8934 71H22.1314C21.3514 71 20.7334 70.772 20.2774 70.316C19.8334 69.86 19.6114 69.236 19.6114 68.444V64.376C19.6114 63.584 19.8334 62.96 20.2774 62.504C20.7334 62.048 21.3514 61.82 22.1314 61.82H23.6794C24.4594 61.82 25.0774 62.048 25.5334 62.504C25.9894 62.96 26.2174 63.584 26.2174 64.376V66.662C26.2174 66.806 26.1454 66.878 26.0014 66.878H20.6734C20.5654 66.878 20.5114 66.932 20.5114 67.04V68.426C20.5114 68.99 20.6554 69.428 20.9434 69.74C21.2314 70.04 21.6514 70.19 22.2034 70.19H25.8934C26.0254 70.19 26.0914 70.256 26.0914 70.388V70.802C26.0914 70.934 26.0254 71 25.8934 71ZM20.6734 66.158H25.1554C25.2634 66.158 25.3174 66.104 25.3174 65.996V64.394C25.3174 63.83 25.1734 63.398 24.8854 63.098C24.5974 62.786 24.1774 62.63 23.6254 62.63H22.2034C21.6514 62.63 21.2314 62.786 20.9434 63.098C20.6554 63.398 20.5114 63.83 20.5114 64.394V65.996C20.5114 66.104 20.5654 66.158 20.6734 66.158ZM33.7808 70.388V70.802C33.7808 70.934 33.7148 71 33.5828 71H30.9908C30.2108 71 29.5928 70.772 29.1368 70.316C28.6928 69.86 28.4708 69.236 28.4708 68.444V64.376C28.4708 63.584 28.6928 62.96 29.1368 62.504C29.5928 62.048 30.2108 61.82 30.9908 61.82H33.5828C33.7148 61.82 33.7808 61.886 33.7808 62.018V62.45C33.7808 62.57 33.7148 62.63 33.5828 62.63H31.0628C30.5108 62.63 30.0908 62.786 29.8028 63.098C29.5148 63.41 29.3708 63.848 29.3708 64.412V68.408C29.3708 68.972 29.5148 69.41 29.8028 69.722C30.0908 70.034 30.5108 70.19 31.0628 70.19H33.5828C33.7148 70.19 33.7808 70.256 33.7808 70.388ZM36.1308 62.63H35.0328C34.9008 62.63 34.8348 62.57 34.8348 62.45V62.018C34.8348 61.886 34.9008 61.82 35.0328 61.82H36.1308C36.2388 61.82 36.2928 61.766 36.2928 61.658V60.2C36.2928 60.056 36.3588 59.984 36.4908 59.984H37.0128C37.1448 59.984 37.2108 60.056 37.2108 60.2V61.658C37.2108 61.766 37.2648 61.82 37.3728 61.82H39.5148C39.6468 61.82 39.7128 61.886 39.7128 62.018V62.45C39.7128 62.57 39.6468 62.63 39.5148 62.63H37.3728C37.2648 62.63 37.2108 62.684 37.2108 62.792V68.462C37.2108 69.014 37.3668 69.44 37.6788 69.74C37.9908 70.04 38.4288 70.19 38.9928 70.19H39.6948C39.8268 70.19 39.8928 70.256 39.8928 70.388V70.802C39.8928 70.934 39.8268 71 39.6948 71H38.9208C38.1288 71 37.4928 70.778 37.0128 70.334C36.5328 69.89 36.2928 69.278 36.2928 68.498V62.792C36.2928 62.684 36.2388 62.63 36.1308 62.63ZM45.863 71H44.315C43.535 71 42.917 70.772 42.461 70.316C42.017 69.86 41.795 69.236 41.795 68.444V64.376C41.795 63.584 42.017 62.96 42.461 62.504C42.917 62.048 43.535 61.82 44.315 61.82H45.863C46.643 61.82 47.261 62.048 47.717 62.504C48.173 62.96 48.401 63.584 48.401 64.376V68.444C48.401 69.236 48.173 69.86 47.717 70.316C47.261 70.772 46.643 71 45.863 71ZM44.387 70.19H45.791C46.343 70.19 46.763 70.04 47.051 69.74C47.351 69.428 47.501 68.99 47.501 68.426V64.394C47.501 63.83 47.351 63.398 47.051 63.098C46.763 62.786 46.343 62.63 45.791 62.63H44.387C43.835 62.63 43.415 62.786 43.127 63.098C42.839 63.398 42.695 63.83 42.695 64.394V68.426C42.695 68.99 42.839 69.428 43.127 69.74C43.415 70.04 43.835 70.19 44.387 70.19ZM51.6067 71H51.0847C50.9647 71 50.9047 70.928 50.9047 70.784V62.036C50.9047 61.892 50.9647 61.82 51.0847 61.82H51.6067C51.7387 61.82 51.8047 61.892 51.8047 62.036V62.792H51.8767C52.0087 62.54 52.2427 62.318 52.5787 62.126C52.9147 61.922 53.3287 61.82 53.8207 61.82H54.5227C54.6547 61.82 54.7207 61.886 54.7207 62.018V62.45C54.7207 62.582 54.6547 62.642 54.5227 62.63H53.6767C53.0887 62.63 52.6267 62.81 52.2907 63.17C51.9667 63.53 51.8047 64.016 51.8047 64.628V70.784C51.8047 70.928 51.7387 71 51.6067 71ZM65.2341 71H63.6861C62.9061 71 62.2881 70.772 61.8321 70.316C61.3881 69.86 61.1661 69.236 61.1661 68.444V64.376C61.1661 63.584 61.3881 62.96 61.8321 62.504C62.2881 62.048 62.9061 61.82 63.6861 61.82H65.2341C66.0141 61.82 66.6321 62.048 67.0881 62.504C67.5441 62.96 67.7721 63.584 67.7721 64.376V68.444C67.7721 69.236 67.5441 69.86 67.0881 70.316C66.6321 70.772 66.0141 71 65.2341 71ZM63.7581 70.19H65.1621C65.7141 70.19 66.1341 70.04 66.4221 69.74C66.7221 69.428 66.8721 68.99 66.8721 68.426V64.394C66.8721 63.83 66.7221 63.398 66.4221 63.098C66.1341 62.786 65.7141 62.63 65.1621 62.63H63.7581C63.2061 62.63 62.7861 62.786 62.4981 63.098C62.2101 63.398 62.0661 63.83 62.0661 64.394V68.426C62.0661 68.99 62.2101 69.428 62.4981 69.74C62.7861 70.04 63.2061 70.19 63.7581 70.19ZM72.1658 61.82H73.8038C73.9478 61.82 74.0198 61.886 74.0198 62.018V62.432C74.0198 62.564 73.9478 62.63 73.8038 62.63H72.1658C72.0578 62.63 72.0038 62.684 72.0038 62.792V70.784C72.0038 70.928 71.9378 71 71.8058 71H71.2838C71.1518 71 71.0858 70.928 71.0858 70.784V62.792C71.0858 62.684 71.0318 62.63 70.9238 62.63H69.7718C69.6398 62.63 69.5738 62.564 69.5738 62.432V62.018C69.5738 61.886 69.6398 61.82 69.7718 61.82H70.9238C71.0318 61.82 71.0858 61.766 71.0858 61.658V60.866C71.0858 59.186 71.8478 58.346 73.3718 58.346H73.8038C73.9478 58.346 74.0198 58.412 74.0198 58.544V58.958C74.0198 59.09 73.9478 59.156 73.8038 59.156H73.4618C72.9218 59.156 72.5438 59.3 72.3278 59.588C72.1118 59.876 72.0038 60.314 72.0038 60.902V61.658C72.0038 61.766 72.0578 61.82 72.1658 61.82ZM83.1158 70.19H85.1678C85.7198 70.19 86.1398 70.04 86.4278 69.74C86.7278 69.428 86.8778 68.984 86.8778 68.408V62.018C86.8778 61.442 86.7278 61.004 86.4278 60.704C86.1398 60.392 85.7198 60.236 85.1678 60.236H83.1158C82.5638 60.236 82.1438 60.392 81.8558 60.704C81.5678 61.016 81.4238 61.454 81.4238 62.018V68.408C81.4238 68.972 81.5678 69.41 81.8558 69.722C82.1438 70.034 82.5638 70.19 83.1158 70.19ZM85.2578 71H83.0438C82.2638 71 81.6458 70.772 81.1898 70.316C80.7458 69.86 80.5238 69.236 80.5238 68.444V61.982C80.5238 61.19 80.7458 60.566 81.1898 60.11C81.6458 59.654 82.2638 59.426 83.0438 59.426H85.2578C86.0378 59.426 86.6498 59.654 87.0938 60.11C87.5498 60.566 87.7778 61.19 87.7778 61.982V68.444C87.7778 69.236 87.5498 69.86 87.0938 70.316C86.6498 70.772 86.0378 71 85.2578 71ZM91.175 73.682H90.653C90.533 73.682 90.473 73.616 90.473 73.484V62.036C90.473 61.892 90.533 61.82 90.653 61.82H91.175C91.307 61.82 91.373 61.892 91.373 62.036V62.756H91.445C91.781 62.132 92.405 61.82 93.317 61.82H94.541C95.309 61.82 95.915 62.048 96.359 62.504C96.803 62.96 97.025 63.584 97.025 64.376V68.444C97.025 69.236 96.803 69.86 96.359 70.316C95.915 70.772 95.309 71 94.541 71H93.317C92.405 71 91.781 70.688 91.445 70.064H91.373V73.484C91.373 73.616 91.307 73.682 91.175 73.682ZM93.227 70.19H94.415C94.967 70.19 95.387 70.04 95.675 69.74C95.975 69.428 96.125 68.984 96.125 68.408V64.412C96.125 63.836 95.975 63.398 95.675 63.098C95.387 62.786 94.967 62.63 94.415 62.63H93.227C92.651 62.63 92.195 62.786 91.859 63.098C91.535 63.398 91.373 63.83 91.373 64.394V68.426C91.373 68.99 91.535 69.428 91.859 69.74C92.195 70.04 92.651 70.19 93.227 70.19ZM105.645 71H101.883C101.103 71 100.485 70.772 100.029 70.316C99.5854 69.86 99.3634 69.236 99.3634 68.444V64.376C99.3634 63.584 99.5854 62.96 100.029 62.504C100.485 62.048 101.103 61.82 101.883 61.82H103.431C104.211 61.82 104.829 62.048 105.285 62.504C105.741 62.96 105.969 63.584 105.969 64.376V66.662C105.969 66.806 105.897 66.878 105.753 66.878H100.425C100.317 66.878 100.263 66.932 100.263 67.04V68.426C100.263 68.99 100.407 69.428 100.695 69.74C100.983 70.04 101.403 70.19 101.955 70.19H105.645C105.777 70.19 105.843 70.256 105.843 70.388V70.802C105.843 70.934 105.777 71 105.645 71ZM100.425 66.158H104.907C105.015 66.158 105.069 66.104 105.069 65.996V64.394C105.069 63.83 104.925 63.398 104.637 63.098C104.349 62.786 103.929 62.63 103.377 62.63H101.955C101.403 62.63 100.983 62.786 100.695 63.098C100.407 63.398 100.263 63.83 100.263 64.394V65.996C100.263 66.104 100.317 66.158 100.425 66.158ZM109.105 71H108.583C108.463 71 108.403 70.928 108.403 70.784V62.036C108.403 61.892 108.463 61.82 108.583 61.82H109.105C109.237 61.82 109.303 61.892 109.303 62.036V62.792H109.375C109.507 62.54 109.741 62.318 110.077 62.126C110.413 61.922 110.827 61.82 111.319 61.82H112.021C112.153 61.82 112.219 61.886 112.219 62.018V62.45C112.219 62.582 112.153 62.642 112.021 62.63H111.175C110.587 62.63 110.125 62.81 109.789 63.17C109.465 63.53 109.303 64.016 109.303 64.628V70.784C109.303 70.928 109.237 71 109.105 71ZM117.537 71H116.385C115.605 71 114.987 70.772 114.531 70.316C114.087 69.86 113.865 69.236 113.865 68.444V64.376C113.865 63.584 114.087 62.96 114.531 62.504C114.987 62.048 115.605 61.82 116.385 61.82H120.201C120.321 61.82 120.381 61.892 120.381 62.036V70.784C120.381 70.928 120.321 71 120.201 71H119.679C119.547 71 119.481 70.928 119.481 70.784V70.064H119.409C119.097 70.688 118.473 71 117.537 71ZM119.481 68.426V62.792C119.481 62.684 119.421 62.63 119.301 62.63H116.457C115.905 62.63 115.485 62.786 115.197 63.098C114.909 63.41 114.765 63.848 114.765 64.412V68.408C114.765 68.972 114.909 69.41 115.197 69.722C115.485 70.034 115.905 70.19 116.457 70.19H117.627C118.203 70.19 118.653 70.04 118.977 69.74C119.313 69.428 119.481 68.99 119.481 68.426ZM123.476 62.63H122.378C122.246 62.63 122.18 62.57 122.18 62.45V62.018C122.18 61.886 122.246 61.82 122.378 61.82H123.476C123.584 61.82 123.638 61.766 123.638 61.658V60.2C123.638 60.056 123.704 59.984 123.836 59.984H124.358C124.49 59.984 124.556 60.056 124.556 60.2V61.658C124.556 61.766 124.61 61.82 124.718 61.82H126.86C126.992 61.82 127.058 61.886 127.058 62.018V62.45C127.058 62.57 126.992 62.63 126.86 62.63H124.718C124.61 62.63 124.556 62.684 124.556 62.792V68.462C124.556 69.014 124.712 69.44 125.024 69.74C125.336 70.04 125.774 70.19 126.338 70.19H127.04C127.172 70.19 127.238 70.256 127.238 70.388V70.802C127.238 70.934 127.172 71 127.04 71H126.266C125.474 71 124.838 70.778 124.358 70.334C123.878 69.89 123.638 69.278 123.638 68.498V62.792C123.638 62.684 123.584 62.63 123.476 62.63ZM129.411 60.308V58.58C129.411 58.448 129.471 58.382 129.591 58.382H130.131C130.251 58.382 130.311 58.448 130.311 58.58V60.308C130.311 60.452 130.251 60.524 130.131 60.524H129.591C129.471 60.524 129.411 60.452 129.411 60.308ZM129.411 70.784V62.036C129.411 61.892 129.471 61.82 129.591 61.82H130.113C130.245 61.82 130.311 61.892 130.311 62.036V70.784C130.311 70.928 130.251 71 130.131 71H129.591C129.471 71 129.411 70.928 129.411 70.784ZM133.802 71H133.28C133.16 71 133.1 70.928 133.1 70.784V62.036C133.1 61.892 133.16 61.82 133.28 61.82H133.802C133.934 61.82 134 61.892 134 62.036V62.756H134.072C134.408 62.132 135.032 61.82 135.944 61.82H137.132C137.9 61.82 138.506 62.048 138.95 62.504C139.394 62.96 139.616 63.584 139.616 64.376V70.784C139.616 70.928 139.556 71 139.436 71H138.914C138.782 71 138.716 70.928 138.716 70.784V64.412C138.716 63.848 138.572 63.41 138.284 63.098C137.996 62.786 137.576 62.63 137.024 62.63H135.854C135.278 62.63 134.822 62.786 134.486 63.098C134.162 63.398 134 63.83 134 64.394V70.784C134 70.928 133.934 71 133.802 71ZM145.787 70.478H144.617C143.849 70.478 143.237 70.25 142.781 69.794C142.337 69.338 142.115 68.72 142.115 67.94V64.376C142.115 63.584 142.337 62.96 142.781 62.504C143.237 62.048 143.855 61.82 144.635 61.82H148.451C148.583 61.82 148.649 61.892 148.649 62.036V70.964C148.649 71.756 148.421 72.38 147.965 72.836C147.509 73.292 146.891 73.52 146.111 73.52H142.835C142.703 73.52 142.637 73.454 142.637 73.322V72.89C142.637 72.77 142.703 72.71 142.835 72.71H146.039C146.591 72.71 147.011 72.554 147.299 72.242C147.587 71.942 147.731 71.504 147.731 70.928V69.542H147.659C147.359 70.166 146.735 70.478 145.787 70.478ZM147.731 67.904V62.792C147.731 62.684 147.677 62.63 147.569 62.63H144.725C144.173 62.63 143.747 62.786 143.447 63.098C143.159 63.398 143.015 63.836 143.015 64.412V67.904C143.015 68.468 143.159 68.906 143.447 69.218C143.747 69.518 144.173 69.668 144.725 69.668H145.877C146.453 69.668 146.903 69.518 147.227 69.218C147.563 68.906 147.731 68.468 147.731 67.904ZM156.235 68.444V67.796C156.235 67.664 156.301 67.598 156.433 67.598H156.955C157.087 67.598 157.153 67.664 157.153 67.796V68.39C157.153 69.59 157.735 70.19 158.899 70.19H160.771C161.935 70.19 162.517 69.584 162.517 68.372V67.616C162.517 67.088 162.301 66.674 161.869 66.374C161.437 66.074 160.915 65.858 160.303 65.726C159.691 65.594 159.073 65.456 158.449 65.312C157.837 65.168 157.315 64.904 156.883 64.52C156.451 64.136 156.235 63.62 156.235 62.972V61.982C156.235 61.19 156.463 60.566 156.919 60.11C157.375 59.654 157.993 59.426 158.773 59.426H160.861C161.641 59.426 162.259 59.654 162.715 60.11C163.171 60.566 163.399 61.19 163.399 61.982V62.486C163.399 62.618 163.333 62.684 163.201 62.684H162.679C162.547 62.684 162.481 62.618 162.481 62.486V62.036C162.481 60.836 161.899 60.236 160.735 60.236H158.881C157.729 60.236 157.153 60.848 157.153 62.072V62.972C157.153 63.8 157.891 64.358 159.367 64.646C159.979 64.766 160.591 64.904 161.203 65.06C161.827 65.216 162.355 65.498 162.787 65.906C163.219 66.314 163.435 66.866 163.435 67.562V68.444C163.435 69.236 163.207 69.86 162.751 70.316C162.295 70.772 161.677 71 160.897 71H158.773C157.993 71 157.375 70.772 156.919 70.316C156.463 69.86 156.235 69.236 156.235 68.444ZM166.667 73.736H166.001C165.869 73.736 165.803 73.67 165.803 73.538V73.106C165.803 72.974 165.869 72.908 166.001 72.908H166.487C166.847 72.908 167.153 72.854 167.405 72.746C167.657 72.65 167.879 72.464 168.071 72.188C168.263 71.912 168.389 71.696 168.449 71.54C168.617 71.168 168.755 70.826 168.863 70.514H168.521C168.389 70.514 168.305 70.442 168.269 70.298L165.407 62.036C165.359 61.892 165.407 61.82 165.551 61.82H166.109C166.229 61.82 166.307 61.892 166.343 62.036L168.989 69.758H169.061L171.707 62.036C171.743 61.892 171.821 61.82 171.941 61.82H172.481C172.625 61.82 172.679 61.892 172.643 62.036C170.495 68.324 169.373 71.576 169.277 71.792C169.193 72.008 169.031 72.302 168.791 72.674C168.335 73.382 167.627 73.736 166.667 73.736ZM177.466 71H174.334C174.202 71 174.136 70.934 174.136 70.802V70.388C174.136 70.268 174.202 70.208 174.334 70.208H177.376C178.456 70.208 178.996 69.788 178.996 68.948V68.516C178.996 67.736 178.66 67.226 177.988 66.986L175.738 66.122C175.126 65.882 174.688 65.6 174.424 65.276C174.172 64.952 174.046 64.502 174.046 63.926C174.046 62.522 174.82 61.82 176.368 61.82H179.284C179.416 61.82 179.482 61.886 179.482 62.018V62.432C179.482 62.552 179.416 62.612 179.284 62.612H176.458C175.966 62.612 175.594 62.72 175.342 62.936C175.102 63.152 174.982 63.404 174.982 63.692V64.106C174.982 64.442 175.072 64.706 175.252 64.898C175.444 65.09 175.732 65.252 176.116 65.384L178.366 66.284C178.99 66.488 179.404 66.794 179.608 67.202C179.824 67.598 179.932 68.156 179.932 68.876C179.932 69.596 179.728 70.13 179.32 70.478C178.924 70.826 178.306 71 177.466 71ZM182.644 62.63H181.546C181.414 62.63 181.348 62.57 181.348 62.45V62.018C181.348 61.886 181.414 61.82 181.546 61.82H182.644C182.752 61.82 182.806 61.766 182.806 61.658V60.2C182.806 60.056 182.872 59.984 183.004 59.984H183.526C183.658 59.984 183.724 60.056 183.724 60.2V61.658C183.724 61.766 183.778 61.82 183.886 61.82H186.028C186.16 61.82 186.226 61.886 186.226 62.018V62.45C186.226 62.57 186.16 62.63 186.028 62.63H183.886C183.778 62.63 183.724 62.684 183.724 62.792V68.462C183.724 69.014 183.88 69.44 184.192 69.74C184.504 70.04 184.942 70.19 185.506 70.19H186.208C186.34 70.19 186.406 70.256 186.406 70.388V70.802C186.406 70.934 186.34 71 186.208 71H185.434C184.642 71 184.006 70.778 183.526 70.334C183.046 69.89 182.806 69.278 182.806 68.498V62.792C182.806 62.684 182.752 62.63 182.644 62.63ZM194.591 71H190.829C190.049 71 189.431 70.772 188.975 70.316C188.531 69.86 188.309 69.236 188.309 68.444V64.376C188.309 63.584 188.531 62.96 188.975 62.504C189.431 62.048 190.049 61.82 190.829 61.82H192.377C193.157 61.82 193.775 62.048 194.231 62.504C194.687 62.96 194.915 63.584 194.915 64.376V66.662C194.915 66.806 194.843 66.878 194.699 66.878H189.371C189.263 66.878 189.209 66.932 189.209 67.04V68.426C189.209 68.99 189.353 69.428 189.641 69.74C189.929 70.04 190.349 70.19 190.901 70.19H194.591C194.723 70.19 194.789 70.256 194.789 70.388V70.802C194.789 70.934 194.723 71 194.591 71ZM189.371 66.158H193.853C193.961 66.158 194.015 66.104 194.015 65.996V64.394C194.015 63.83 193.871 63.398 193.583 63.098C193.295 62.786 192.875 62.63 192.323 62.63H190.901C190.349 62.63 189.929 62.786 189.641 63.098C189.353 63.398 189.209 63.83 189.209 64.394V65.996C189.209 66.104 189.263 66.158 189.371 66.158ZM198.05 71H197.528C197.408 71 197.348 70.928 197.348 70.784V62.036C197.348 61.892 197.408 61.82 197.528 61.82H198.05C198.182 61.82 198.248 61.892 198.248 62.036V62.756H198.32C198.668 62.132 199.304 61.82 200.228 61.82H200.966C202.022 61.82 202.754 62.24 203.162 63.08C203.342 62.66 203.648 62.348 204.08 62.144C204.512 61.928 204.956 61.82 205.412 61.82H206.078C206.858 61.82 207.47 62.048 207.914 62.504C208.358 62.96 208.58 63.584 208.58 64.376V70.784C208.58 70.928 208.514 71 208.382 71H207.86C207.728 71 207.662 70.928 207.662 70.784V64.412C207.662 63.836 207.518 63.398 207.23 63.098C206.942 62.786 206.522 62.63 205.97 62.63H205.304C204.728 62.63 204.272 62.798 203.936 63.134C203.6 63.458 203.432 63.902 203.432 64.466V70.784C203.432 70.928 203.366 71 203.234 71H202.712C202.58 71 202.514 70.928 202.514 70.784V64.412C202.514 63.836 202.37 63.398 202.082 63.098C201.794 62.786 201.374 62.63 200.822 62.63H200.102C199.526 62.63 199.07 62.786 198.734 63.098C198.41 63.398 198.248 63.83 198.248 64.394V70.784C198.248 70.928 198.182 71 198.05 71ZM214.152 71H211.02C210.888 71 210.822 70.934 210.822 70.802V70.388C210.822 70.268 210.888 70.208 211.02 70.208H214.062C215.142 70.208 215.682 69.788 215.682 68.948V68.516C215.682 67.736 215.346 67.226 214.674 66.986L212.424 66.122C211.812 65.882 211.374 65.6 211.11 65.276C210.858 64.952 210.732 64.502 210.732 63.926C210.732 62.522 211.506 61.82 213.054 61.82H215.97C216.102 61.82 216.168 61.886 216.168 62.018V62.432C216.168 62.552 216.102 62.612 215.97 62.612H213.144C212.652 62.612 212.28 62.72 212.028 62.936C211.788 63.152 211.668 63.404 211.668 63.692V64.106C211.668 64.442 211.758 64.706 211.938 64.898C212.13 65.09 212.418 65.252 212.802 65.384L215.052 66.284C215.676 66.488 216.09 66.794 216.294 67.202C216.51 67.598 216.618 68.156 216.618 68.876C216.618 69.596 216.414 70.13 216.006 70.478C215.61 70.826 214.992 71 214.152 71ZM2.888 82.588V82.984C2.888 83.104 2.822 83.164 2.69 83.164H2.636C2.06 83.164 1.616 83.338 1.304 83.686C0.992 84.022 0.836 84.508 0.836 85.144V93.118C0.836 93.754 0.992 94.24 1.304 94.576C1.616 94.924 2.06 95.098 2.636 95.098H2.69C2.822 95.098 2.888 95.158 2.888 95.278V95.674C2.888 95.782 2.822 95.836 2.69 95.836H2.636C1.832 95.836 1.19 95.59 0.71 95.098C0.242 94.618 0.00800003 93.94 0.00800003 93.064V85.198C0.00800003 84.322 0.242 83.644 0.71 83.164C1.19 82.672 1.832 82.426 2.636 82.426H2.708C2.828 82.426 2.888 82.48 2.888 82.588ZM10.2357 94H7.96766C7.18766 94 6.56966 93.772 6.11366 93.316C5.66966 92.86 5.44766 92.236 5.44766 91.444V84.982C5.44766 84.19 5.66966 83.566 6.11366 83.11C6.56966 82.654 7.18766 82.426 7.96766 82.426H10.2357C11.0157 82.426 11.6277 82.654 12.0717 83.11C12.5277 83.566 12.7557 84.19 12.7557 84.982V85.864C12.7557 86.008 12.6897 86.08 12.5577 86.08H12.0537C11.9217 86.08 11.8557 86.008 11.8557 85.864V85.018C11.8557 84.442 11.7057 84.004 11.4057 83.704C11.1177 83.392 10.6977 83.236 10.1457 83.236H8.03966C7.48766 83.236 7.06766 83.392 6.77966 83.704C6.49166 84.016 6.34766 84.454 6.34766 85.018V91.408C6.34766 91.972 6.49166 92.41 6.77966 92.722C7.06766 93.034 7.48766 93.19 8.03966 93.19H10.1457C10.6977 93.19 11.1177 93.04 11.4057 92.74C11.7057 92.428 11.8557 91.984 11.8557 91.408V90.562C11.8557 90.418 11.9217 90.346 12.0537 90.346H12.5577C12.6897 90.346 12.7557 90.418 12.7557 90.562V91.444C12.7557 92.236 12.5277 92.86 12.0717 93.316C11.6277 93.772 11.0157 94 10.2357 94ZM17.7955 93.19H19.8475C20.3995 93.19 20.8195 93.04 21.1075 92.74C21.4075 92.428 21.5575 91.984 21.5575 91.408V85.018C21.5575 84.442 21.4075 84.004 21.1075 83.704C20.8195 83.392 20.3995 83.236 19.8475 83.236H17.7955C17.2435 83.236 16.8235 83.392 16.5355 83.704C16.2475 84.016 16.1035 84.454 16.1035 85.018V91.408C16.1035 91.972 16.2475 92.41 16.5355 92.722C16.8235 93.034 17.2435 93.19 17.7955 93.19ZM19.9375 94H17.7235C16.9435 94 16.3255 93.772 15.8695 93.316C15.4255 92.86 15.2035 92.236 15.2035 91.444V84.982C15.2035 84.19 15.4255 83.566 15.8695 83.11C16.3255 82.654 16.9435 82.426 17.7235 82.426H19.9375C20.7175 82.426 21.3295 82.654 21.7735 83.11C22.2295 83.566 22.4575 84.19 22.4575 84.982V91.444C22.4575 92.236 22.2295 92.86 21.7735 93.316C21.3295 93.772 20.7175 94 19.9375 94ZM25.2607 91.444V90.796C25.2607 90.664 25.3267 90.598 25.4587 90.598H25.9807C26.1127 90.598 26.1787 90.664 26.1787 90.796V91.39C26.1787 92.59 26.7607 93.19 27.9247 93.19H29.7967C30.9607 93.19 31.5427 92.584 31.5427 91.372V90.616C31.5427 90.088 31.3267 89.674 30.8947 89.374C30.4627 89.074 29.9407 88.858 29.3287 88.726C28.7167 88.594 28.0987 88.456 27.4747 88.312C26.8627 88.168 26.3407 87.904 25.9087 87.52C25.4767 87.136 25.2607 86.62 25.2607 85.972V84.982C25.2607 84.19 25.4887 83.566 25.9447 83.11C26.4007 82.654 27.0187 82.426 27.7987 82.426H29.8867C30.6667 82.426 31.2847 82.654 31.7407 83.11C32.1967 83.566 32.4247 84.19 32.4247 84.982V85.486C32.4247 85.618 32.3587 85.684 32.2267 85.684H31.7047C31.5727 85.684 31.5067 85.618 31.5067 85.486V85.036C31.5067 83.836 30.9247 83.236 29.7607 83.236H27.9067C26.7547 83.236 26.1787 83.848 26.1787 85.072V85.972C26.1787 86.8 26.9167 87.358 28.3927 87.646C29.0047 87.766 29.6167 87.904 30.2287 88.06C30.8527 88.216 31.3807 88.498 31.8127 88.906C32.2447 89.314 32.4607 89.866 32.4607 90.562V91.444C32.4607 92.236 32.2327 92.86 31.7767 93.316C31.3207 93.772 30.7027 94 29.9227 94H27.7987C27.0187 94 26.4007 93.772 25.9447 93.316C25.4887 92.86 25.2607 92.236 25.2607 91.444ZM34.9182 95.674V95.278C34.9182 95.158 34.9902 95.098 35.1342 95.098H35.1882C35.7642 95.098 36.2082 94.924 36.5202 94.576C36.8322 94.24 36.9882 93.754 36.9882 93.118V85.144C36.9882 84.508 36.8322 84.022 36.5202 83.686C36.2082 83.338 35.7642 83.164 35.1882 83.164H35.1342C34.9902 83.164 34.9182 83.104 34.9182 82.984V82.588C34.9182 82.48 34.9902 82.426 35.1342 82.426H35.1882C35.9802 82.426 36.6102 82.672 37.0782 83.164C37.5582 83.644 37.7982 84.322 37.7982 85.198V93.064C37.7982 93.94 37.5582 94.618 37.0782 95.098C36.6102 95.59 35.9802 95.836 35.1882 95.836H35.1342C34.9902 95.836 34.9182 95.782 34.9182 95.674Z" fill="#5A5A5A"/>
</svg>
