<svg width="236" height="63" viewBox="0 0 236 63" fill="none" xmlns="http://www.w3.org/2000/svg">
<path d="M8.544 1.568H10.56C10.896 1.568 11.064 1.728 11.064 2.048V13.088C11.064 14.336 10.72 15.304 10.032 15.992C9.344 16.664 8.376 17 7.128 17H4.728C3.464 17 2.488 16.664 1.8 15.992C1.112 15.32 0.768 14.352 0.768 13.088V10.832C0.768 10.496 0.936 10.328 1.272 10.328H3.312C3.648 10.328 3.816 10.496 3.816 10.832V12.944C3.816 13.456 3.92 13.824 4.128 14.048C4.352 14.256 4.712 14.36 5.208 14.36H6.624C7.136 14.36 7.496 14.256 7.704 14.048C7.912 13.824 8.016 13.456 8.016 12.944V2.072C8.016 1.736 8.192 1.568 8.544 1.568ZM19.6916 17H17.5556C16.2916 17 15.3156 16.664 14.6276 15.992C13.9396 15.32 13.5956 14.352 13.5956 13.088V8.672C13.5956 7.408 13.9396 6.44 14.6276 5.768C15.3156 5.096 16.2916 4.76 17.5556 4.76H19.6916C20.9396 4.76 21.9076 5.104 22.5956 5.792C23.2996 6.464 23.6516 7.424 23.6516 8.672V13.088C23.6516 14.336 23.2996 15.304 22.5956 15.992C21.9076 16.664 20.9396 17 19.6916 17ZM18.0116 14.384H19.2356C19.7476 14.384 20.1076 14.28 20.3156 14.072C20.5396 13.864 20.6516 13.504 20.6516 12.992V8.768C20.6516 8.256 20.5396 7.896 20.3156 7.688C20.1076 7.48 19.7476 7.376 19.2356 7.376H18.0116C17.4996 7.376 17.1396 7.48 16.9316 7.688C16.7236 7.896 16.6196 8.256 16.6196 8.768V12.992C16.6196 13.504 16.7236 13.864 16.9316 14.072C17.1396 14.28 17.4996 14.384 18.0116 14.384ZM28.5906 17H26.5506C26.2146 17 26.0466 16.832 26.0466 16.496V0.631999C26.0466 0.296 26.2146 0.128 26.5506 0.128H28.5906C28.9266 0.128 29.0946 0.296 29.0946 0.631999V6.056H29.1906C29.5426 5.192 30.3266 4.76 31.5426 4.76H32.3106C34.8226 4.76 36.0786 6.064 36.0786 8.672V16.496C36.0786 16.832 35.9026 17 35.5506 17H33.5346C33.1986 17 33.0306 16.832 33.0306 16.496V8.816C33.0306 8.304 32.9186 7.944 32.6946 7.736C32.4866 7.512 32.1266 7.4 31.6146 7.4H30.7506C29.6466 7.4 29.0946 8.008 29.0946 9.224V16.496C29.0946 16.832 28.9266 17 28.5906 17ZM41.1531 17H39.1131C38.7771 17 38.6091 16.832 38.6091 16.496V5.264C38.6091 4.928 38.7771 4.76 39.1131 4.76H41.1531C41.4891 4.76 41.6571 4.928 41.6571 5.264V6.056H41.7531C42.1051 5.192 42.8891 4.76 44.1051 4.76H44.8731C47.3851 4.76 48.6411 6.064 48.6411 8.672V16.496C48.6411 16.832 48.4651 17 48.1131 17H46.0971C45.7611 17 45.5931 16.832 45.5931 16.496V8.816C45.5931 8.304 45.4811 7.944 45.2571 7.736C45.0491 7.512 44.6891 7.4 44.1771 7.4H43.3131C42.2091 7.4 41.6571 8.008 41.6571 9.224V16.496C41.6571 16.832 41.4891 17 41.1531 17ZM59.229 17H57.189C56.853 17 56.685 16.832 56.685 16.496V2.072C56.685 1.736 56.853 1.568 57.189 1.568H62.901C64.149 1.568 65.125 1.912 65.829 2.6C66.533 3.288 66.885 4.256 66.885 5.504V7.376C66.885 9.184 66.173 10.384 64.749 10.976V11.072L67.317 16.424C67.461 16.808 67.325 17 66.909 17H64.965C64.677 17 64.469 16.968 64.341 16.904C64.213 16.84 64.109 16.704 64.029 16.496L61.629 11.312H60.021C59.829 11.312 59.733 11.4 59.733 11.576V16.496C59.733 16.832 59.565 17 59.229 17ZM59.997 8.864H62.349C62.861 8.864 63.237 8.76 63.477 8.552C63.717 8.328 63.837 7.976 63.837 7.496V5.624C63.837 5.128 63.717 4.768 63.477 4.544C63.237 4.32 62.861 4.208 62.349 4.208H59.997C59.821 4.208 59.733 4.296 59.733 4.472V8.6C59.733 8.776 59.821 8.864 59.997 8.864ZM78.594 17H73.29C72.026 17 71.05 16.664 70.362 15.992C69.674 15.32 69.33 14.352 69.33 13.088V8.672C69.33 7.408 69.674 6.44 70.362 5.768C71.05 5.096 72.026 4.76 73.29 4.76H75.186C76.45 4.76 77.426 5.096 78.114 5.768C78.802 6.44 79.146 7.408 79.146 8.672V11.72C79.146 12.056 78.978 12.224 78.642 12.224H72.618C72.426 12.224 72.33 12.312 72.33 12.488V13.016C72.33 13.512 72.434 13.872 72.642 14.096C72.866 14.304 73.234 14.408 73.746 14.408H78.594C78.93 14.408 79.098 14.584 79.098 14.936V16.52C79.098 16.696 79.058 16.824 78.978 16.904C78.914 16.968 78.786 17 78.594 17ZM72.618 10.184H75.882C76.058 10.184 76.146 10.096 76.146 9.92V8.768C76.146 8.256 76.042 7.896 75.834 7.688C75.626 7.48 75.266 7.376 74.754 7.376H73.746C73.234 7.376 72.874 7.48 72.666 7.688C72.458 7.896 72.354 8.256 72.354 8.768V9.92C72.354 10.096 72.442 10.184 72.618 10.184ZM83.4214 21.056H81.8854C81.5654 21.056 81.4054 20.88 81.4054 20.528V18.92C81.4054 18.568 81.5654 18.392 81.8854 18.392H82.3894C83.3974 18.392 84.0774 18.248 84.4294 17.96C84.7974 17.688 85.0774 17.152 85.2694 16.352H83.9974C83.6934 16.352 83.4934 16.184 83.3974 15.848L80.5894 5.264C80.4934 4.928 80.6134 4.76 80.9494 4.76H83.0854C83.4054 4.76 83.6054 4.928 83.6854 5.264L85.7494 14.12H85.8454L87.8854 5.264C87.9494 4.928 88.1494 4.76 88.4854 4.76H90.5014C90.9014 4.76 91.0614 4.936 90.9814 5.288L88.0534 17C87.7014 18.328 87.1574 19.336 86.4214 20.024C85.6854 20.712 84.6854 21.056 83.4214 21.056ZM106.64 17H98.7437C98.4077 17 98.2397 16.832 98.2397 16.496V2.072C98.2397 1.736 98.4077 1.568 98.7437 1.568H100.784C101.12 1.568 101.288 1.736 101.288 2.072V14.072C101.288 14.248 101.384 14.336 101.576 14.336H106.64C106.96 14.336 107.12 14.512 107.12 14.864V16.496C107.12 16.832 106.96 17 106.64 17ZM108.901 2.696V0.607999C108.901 0.288 109.061 0.128 109.381 0.128H111.469C111.789 0.128 111.949 0.28 111.949 0.584V2.696C111.949 3.016 111.789 3.176 111.469 3.176H109.381C109.061 3.176 108.901 3.016 108.901 2.696ZM108.901 16.496V5.264C108.901 4.928 109.061 4.76 109.381 4.76H111.445C111.781 4.76 111.949 4.928 111.949 5.264V16.496C111.949 16.704 111.909 16.84 111.829 16.904C111.765 16.968 111.645 17 111.469 17H109.405C109.069 17 108.901 16.832 108.901 16.496ZM117.255 17H115.215C114.879 17 114.711 16.832 114.711 16.496V5.264C114.711 4.928 114.879 4.76 115.215 4.76H117.255C117.591 4.76 117.759 4.928 117.759 5.264V6.056H117.855C118.207 5.192 118.991 4.76 120.207 4.76H120.975C123.487 4.76 124.743 6.064 124.743 8.672V16.496C124.743 16.832 124.567 17 124.215 17H122.199C121.863 17 121.695 16.832 121.695 16.496V8.816C121.695 8.304 121.583 7.944 121.359 7.736C121.151 7.512 120.791 7.4 120.279 7.4H119.415C118.311 7.4 117.759 8.008 117.759 9.224V16.496C117.759 16.832 117.591 17 117.255 17ZM131.593 16.448H130.801C129.569 16.448 128.633 16.112 127.993 15.44C127.369 14.768 127.057 13.8 127.057 12.536V8.672C127.057 7.408 127.401 6.44 128.089 5.768C128.777 5.096 129.753 4.76 131.017 4.76H136.561C136.913 4.76 137.089 4.928 137.089 5.264V17.096C137.089 18.344 136.737 19.304 136.033 19.976C135.345 20.648 134.377 20.984 133.129 20.984H128.521C128.329 20.984 128.193 20.944 128.113 20.864C128.049 20.8 128.017 20.68 128.017 20.504V18.848C128.017 18.512 128.185 18.344 128.521 18.344H132.625C133.137 18.344 133.497 18.232 133.705 18.008C133.929 17.8 134.041 17.448 134.041 16.952V15.128H133.945C133.769 15.56 133.457 15.888 133.009 16.112C132.561 16.336 132.089 16.448 131.593 16.448ZM134.041 11.984V7.664C134.041 7.488 133.945 7.4 133.753 7.4H131.497C130.985 7.4 130.625 7.512 130.417 7.736C130.209 7.944 130.105 8.304 130.105 8.816V12.392C130.105 12.904 130.209 13.264 130.417 13.472C130.625 13.68 130.985 13.784 131.497 13.784H132.385C133.489 13.784 134.041 13.184 134.041 11.984ZM144.014 17H143.438C142.174 17 141.198 16.664 140.51 15.992C139.822 15.32 139.478 14.352 139.478 13.088V8.672C139.478 7.408 139.822 6.44 140.51 5.768C141.198 5.096 142.174 4.76 143.438 4.76H148.982C149.334 4.76 149.51 4.928 149.51 5.264V16.496C149.51 16.832 149.334 17 148.982 17H146.966C146.63 17 146.462 16.832 146.462 16.496V15.704H146.366C146.19 16.136 145.878 16.464 145.43 16.688C144.982 16.896 144.51 17 144.014 17ZM146.462 12.536V7.664C146.462 7.488 146.366 7.4 146.174 7.4H143.918C143.406 7.4 143.046 7.512 142.838 7.736C142.63 7.944 142.526 8.304 142.526 8.816V12.944C142.526 13.456 142.63 13.824 142.838 14.048C143.046 14.256 143.406 14.36 143.918 14.36H144.806C145.91 14.36 146.462 13.752 146.462 12.536ZM156.628 17H155.644C154.412 17 153.476 16.664 152.836 15.992C152.212 15.32 151.9 14.352 151.9 13.088V8.672C151.9 7.408 152.212 6.44 152.836 5.768C153.476 5.096 154.412 4.76 155.644 4.76H156.628C157.124 4.76 157.596 4.872 158.044 5.096C158.492 5.304 158.804 5.624 158.98 6.056H159.076V0.631999C159.076 0.296 159.244 0.128 159.58 0.128H161.62C161.956 0.128 162.124 0.296 162.124 0.631999V16.496C162.124 16.832 161.956 17 161.62 17H159.58C159.244 17 159.076 16.832 159.076 16.496V15.704H158.98C158.804 16.136 158.492 16.464 158.044 16.688C157.596 16.896 157.124 17 156.628 17ZM159.076 12.536V9.224C159.076 8.008 158.524 7.4 157.42 7.4H156.34C155.828 7.4 155.468 7.512 155.26 7.736C155.052 7.944 154.948 8.304 154.948 8.816V12.944C154.948 13.456 155.052 13.824 155.26 14.048C155.468 14.256 155.828 14.36 156.34 14.36H157.42C158.524 14.36 159.076 13.752 159.076 12.536ZM5.832 40H3.87C3.09 40 2.472 39.772 2.016 39.316C1.572 38.86 1.35 38.236 1.35 37.444V30.982C1.35 30.19 1.572 29.566 2.016 29.11C2.472 28.654 3.09 28.426 3.87 28.426H5.832C6.612 28.426 7.23 28.654 7.686 29.11C8.142 29.566 8.37 30.19 8.37 30.982V31.792C8.37 31.936 8.304 32.008 8.172 32.008H7.65C7.518 32.008 7.452 31.936 7.452 31.792V31.018C7.452 30.442 7.308 30.004 7.02 29.704C6.732 29.392 6.312 29.236 5.76 29.236H3.942C3.39 29.236 2.97 29.392 2.682 29.704C2.394 30.016 2.25 30.454 2.25 31.018V37.408C2.25 37.972 2.394 38.41 2.682 38.722C2.97 39.034 3.39 39.19 3.942 39.19H5.76C6.312 39.19 6.732 39.04 7.02 38.74C7.308 38.428 7.452 37.984 7.452 37.408V35.032C7.452 34.924 7.398 34.87 7.29 34.87H5.22C5.088 34.87 5.022 34.804 5.022 34.672V34.258C5.022 34.126 5.088 34.06 5.22 34.06H8.028C8.256 34.06 8.37 34.18 8.37 34.42V37.444C8.37 38.236 8.142 38.86 7.686 39.316C7.23 39.772 6.612 40 5.832 40ZM17.1551 40H13.3931C12.6131 40 11.9951 39.772 11.5391 39.316C11.0951 38.86 10.8731 38.236 10.8731 37.444V33.376C10.8731 32.584 11.0951 31.96 11.5391 31.504C11.9951 31.048 12.6131 30.82 13.3931 30.82H14.9411C15.7211 30.82 16.3391 31.048 16.7951 31.504C17.2511 31.96 17.4791 32.584 17.4791 33.376V35.662C17.4791 35.806 17.4071 35.878 17.2631 35.878H11.9351C11.8271 35.878 11.7731 35.932 11.7731 36.04V37.426C11.7731 37.99 11.9171 38.428 12.2051 38.74C12.4931 39.04 12.9131 39.19 13.4651 39.19H17.1551C17.2871 39.19 17.3531 39.256 17.3531 39.388V39.802C17.3531 39.934 17.2871 40 17.1551 40ZM11.9351 35.158H16.4171C16.5251 35.158 16.5791 35.104 16.5791 34.996V33.394C16.5791 32.83 16.4351 32.398 16.1471 32.098C15.8591 31.786 15.4391 31.63 14.8871 31.63H13.4651C12.9131 31.63 12.4931 31.786 12.2051 32.098C11.9171 32.398 11.7731 32.83 11.7731 33.394V34.996C11.7731 35.104 11.8271 35.158 11.9351 35.158ZM20.6145 40H20.0925C19.9725 40 19.9125 39.928 19.9125 39.784V31.036C19.9125 30.892 19.9725 30.82 20.0925 30.82H20.6145C20.7465 30.82 20.8125 30.892 20.8125 31.036V31.756H20.8845C21.2205 31.132 21.8445 30.82 22.7565 30.82H23.9445C24.7125 30.82 25.3185 31.048 25.7625 31.504C26.2065 31.96 26.4285 32.584 26.4285 33.376V39.784C26.4285 39.928 26.3685 40 26.2485 40H25.7265C25.5945 40 25.5285 39.928 25.5285 39.784V33.412C25.5285 32.848 25.3845 32.41 25.0965 32.098C24.8085 31.786 24.3885 31.63 23.8365 31.63H22.6665C22.0905 31.63 21.6345 31.786 21.2985 32.098C20.9745 32.398 20.8125 32.83 20.8125 33.394V39.784C20.8125 39.928 20.7465 40 20.6145 40ZM35.1375 40H31.3755C30.5955 40 29.9775 39.772 29.5215 39.316C29.0775 38.86 28.8555 38.236 28.8555 37.444V33.376C28.8555 32.584 29.0775 31.96 29.5215 31.504C29.9775 31.048 30.5955 30.82 31.3755 30.82H32.9235C33.7035 30.82 34.3215 31.048 34.7775 31.504C35.2335 31.96 35.4615 32.584 35.4615 33.376V35.662C35.4615 35.806 35.3895 35.878 35.2455 35.878H29.9175C29.8095 35.878 29.7555 35.932 29.7555 36.04V37.426C29.7555 37.99 29.8995 38.428 30.1875 38.74C30.4755 39.04 30.8955 39.19 31.4475 39.19H35.1375C35.2695 39.19 35.3355 39.256 35.3355 39.388V39.802C35.3355 39.934 35.2695 40 35.1375 40ZM29.9175 35.158H34.3995C34.5075 35.158 34.5615 35.104 34.5615 34.996V33.394C34.5615 32.83 34.4175 32.398 34.1295 32.098C33.8415 31.786 33.4215 31.63 32.8695 31.63H31.4475C30.8955 31.63 30.4755 31.786 30.1875 32.098C29.8995 32.398 29.7555 32.83 29.7555 33.394V34.996C29.7555 35.104 29.8095 35.158 29.9175 35.158ZM38.5969 40H38.0749C37.9549 40 37.8949 39.928 37.8949 39.784V31.036C37.8949 30.892 37.9549 30.82 38.0749 30.82H38.5969C38.7289 30.82 38.7949 30.892 38.7949 31.036V31.792H38.8669C38.9989 31.54 39.2329 31.318 39.5689 31.126C39.9049 30.922 40.3189 30.82 40.8109 30.82H41.5129C41.6449 30.82 41.7109 30.886 41.7109 31.018V31.45C41.7109 31.582 41.6449 31.642 41.5129 31.63H40.6669C40.0789 31.63 39.6169 31.81 39.2809 32.17C38.9569 32.53 38.7949 33.016 38.7949 33.628V39.784C38.7949 39.928 38.7289 40 38.5969 40ZM47.0295 40H45.8775C45.0975 40 44.4795 39.772 44.0235 39.316C43.5795 38.86 43.3575 38.236 43.3575 37.444V33.376C43.3575 32.584 43.5795 31.96 44.0235 31.504C44.4795 31.048 45.0975 30.82 45.8775 30.82H49.6935C49.8135 30.82 49.8735 30.892 49.8735 31.036V39.784C49.8735 39.928 49.8135 40 49.6935 40H49.1715C49.0395 40 48.9735 39.928 48.9735 39.784V39.064H48.9015C48.5895 39.688 47.9655 40 47.0295 40ZM48.9735 37.426V31.792C48.9735 31.684 48.9135 31.63 48.7935 31.63H45.9495C45.3975 31.63 44.9775 31.786 44.6895 32.098C44.4015 32.41 44.2575 32.848 44.2575 33.412V37.408C44.2575 37.972 44.4015 38.41 44.6895 38.722C44.9775 39.034 45.3975 39.19 45.9495 39.19H47.1195C47.6955 39.19 48.1455 39.04 48.4695 38.74C48.8055 38.428 48.9735 37.99 48.9735 37.426ZM52.9687 31.63H51.8707C51.7387 31.63 51.6727 31.57 51.6727 31.45V31.018C51.6727 30.886 51.7387 30.82 51.8707 30.82H52.9687C53.0767 30.82 53.1307 30.766 53.1307 30.658V29.2C53.1307 29.056 53.1967 28.984 53.3287 28.984H53.8507C53.9827 28.984 54.0487 29.056 54.0487 29.2V30.658C54.0487 30.766 54.1027 30.82 54.2107 30.82H56.3527C56.4847 30.82 56.5507 30.886 56.5507 31.018V31.45C56.5507 31.57 56.4847 31.63 56.3527 31.63H54.2107C54.1027 31.63 54.0487 31.684 54.0487 31.792V37.462C54.0487 38.014 54.2047 38.44 54.5167 38.74C54.8287 39.04 55.2667 39.19 55.8307 39.19H56.5327C56.6647 39.19 56.7307 39.256 56.7307 39.388V39.802C56.7307 39.934 56.6647 40 56.5327 40H55.7587C54.9667 40 54.3307 39.778 53.8507 39.334C53.3707 38.89 53.1307 38.278 53.1307 37.498V31.792C53.1307 31.684 53.0767 31.63 52.9687 31.63ZM58.9029 29.308V27.58C58.9029 27.448 58.9629 27.382 59.0829 27.382H59.6229C59.7429 27.382 59.8029 27.448 59.8029 27.58V29.308C59.8029 29.452 59.7429 29.524 59.6229 29.524H59.0829C58.9629 29.524 58.9029 29.452 58.9029 29.308ZM58.9029 39.784V31.036C58.9029 30.892 58.9629 30.82 59.0829 30.82H59.6049C59.7369 30.82 59.8029 30.892 59.8029 31.036V39.784C59.8029 39.928 59.7429 40 59.6229 40H59.0829C58.9629 40 58.9029 39.928 58.9029 39.784ZM61.7462 30.82H62.3042C62.4242 30.82 62.5022 30.892 62.5382 31.036L64.9502 38.992H65.0222L67.4162 31.036C67.4642 30.892 67.5422 30.82 67.6502 30.82H68.2262C68.3582 30.82 68.4002 30.892 68.3522 31.036L65.6342 39.784C65.5982 39.928 65.5142 40 65.3822 40H64.5902C64.4582 40 64.3682 39.928 64.3202 39.784L61.6022 31.036C61.5662 30.892 61.6142 30.82 61.7462 30.82ZM76.1825 40H72.4205C71.6405 40 71.0225 39.772 70.5665 39.316C70.1225 38.86 69.9005 38.236 69.9005 37.444V33.376C69.9005 32.584 70.1225 31.96 70.5665 31.504C71.0225 31.048 71.6405 30.82 72.4205 30.82H73.9685C74.7485 30.82 75.3665 31.048 75.8225 31.504C76.2785 31.96 76.5065 32.584 76.5065 33.376V35.662C76.5065 35.806 76.4345 35.878 76.2905 35.878H70.9625C70.8545 35.878 70.8005 35.932 70.8005 36.04V37.426C70.8005 37.99 70.9445 38.428 71.2325 38.74C71.5205 39.04 71.9405 39.19 72.4925 39.19H76.1825C76.3145 39.19 76.3805 39.256 76.3805 39.388V39.802C76.3805 39.934 76.3145 40 76.1825 40ZM70.9625 35.158H75.4445C75.5525 35.158 75.6065 35.104 75.6065 34.996V33.394C75.6065 32.83 75.4625 32.398 75.1745 32.098C74.8865 31.786 74.4665 31.63 73.9145 31.63H72.4925C71.9405 31.63 71.5205 31.786 71.2325 32.098C70.9445 32.398 70.8005 32.83 70.8005 33.394V34.996C70.8005 35.104 70.8545 35.158 70.9625 35.158ZM84.9987 39.19H88.4547C89.0067 39.19 89.4267 39.04 89.7147 38.74C90.0147 38.428 90.1647 37.984 90.1647 37.408V31.018C90.1647 30.442 90.0147 30.004 89.7147 29.704C89.4267 29.392 89.0067 29.236 88.4547 29.236H84.9987C84.8787 29.236 84.8187 29.29 84.8187 29.398V39.028C84.8187 39.136 84.8787 39.19 84.9987 39.19ZM83.9187 39.784V28.642C83.9187 28.498 83.9787 28.426 84.0987 28.426H88.5447C89.3247 28.426 89.9367 28.654 90.3807 29.11C90.8367 29.566 91.0647 30.19 91.0647 30.982V37.444C91.0647 38.236 90.8367 38.86 90.3807 39.316C89.9367 39.772 89.3247 40 88.5447 40H84.0987C83.9787 40 83.9187 39.928 83.9187 39.784ZM99.8602 40H96.0982C95.3182 40 94.7002 39.772 94.2442 39.316C93.8002 38.86 93.5782 38.236 93.5782 37.444V33.376C93.5782 32.584 93.8002 31.96 94.2442 31.504C94.7002 31.048 95.3182 30.82 96.0982 30.82H97.6462C98.4262 30.82 99.0442 31.048 99.5002 31.504C99.9562 31.96 100.184 32.584 100.184 33.376V35.662C100.184 35.806 100.112 35.878 99.9682 35.878H94.6402C94.5322 35.878 94.4782 35.932 94.4782 36.04V37.426C94.4782 37.99 94.6222 38.428 94.9102 38.74C95.1982 39.04 95.6182 39.19 96.1702 39.19H99.8602C99.9922 39.19 100.058 39.256 100.058 39.388V39.802C100.058 39.934 99.9922 40 99.8602 40ZM94.6402 35.158H99.1222C99.2302 35.158 99.2842 35.104 99.2842 34.996V33.394C99.2842 32.83 99.1402 32.398 98.8522 32.098C98.5642 31.786 98.1442 31.63 97.5922 31.63H96.1702C95.6182 31.63 95.1982 31.786 94.9102 32.098C94.6222 32.398 94.4782 32.83 94.4782 33.394V34.996C94.4782 35.104 94.5322 35.158 94.6402 35.158ZM105.588 40H102.456C102.324 40 102.258 39.934 102.258 39.802V39.388C102.258 39.268 102.324 39.208 102.456 39.208H105.498C106.578 39.208 107.118 38.788 107.118 37.948V37.516C107.118 36.736 106.782 36.226 106.11 35.986L103.86 35.122C103.248 34.882 102.81 34.6 102.546 34.276C102.294 33.952 102.168 33.502 102.168 32.926C102.168 31.522 102.942 30.82 104.49 30.82H107.406C107.538 30.82 107.604 30.886 107.604 31.018V31.432C107.604 31.552 107.538 31.612 107.406 31.612H104.58C104.088 31.612 103.716 31.72 103.464 31.936C103.224 32.152 103.104 32.404 103.104 32.692V33.106C103.104 33.442 103.194 33.706 103.374 33.898C103.566 34.09 103.854 34.252 104.238 34.384L106.488 35.284C107.112 35.488 107.526 35.794 107.73 36.202C107.946 36.598 108.054 37.156 108.054 37.876C108.054 38.596 107.85 39.13 107.442 39.478C107.046 39.826 106.428 40 105.588 40ZM110.46 29.308V27.58C110.46 27.448 110.52 27.382 110.64 27.382H111.18C111.3 27.382 111.36 27.448 111.36 27.58V29.308C111.36 29.452 111.3 29.524 111.18 29.524H110.64C110.52 29.524 110.46 29.452 110.46 29.308ZM110.46 39.784V31.036C110.46 30.892 110.52 30.82 110.64 30.82H111.162C111.294 30.82 111.36 30.892 111.36 31.036V39.784C111.36 39.928 111.3 40 111.18 40H110.64C110.52 40 110.46 39.928 110.46 39.784ZM117.713 39.478H116.543C115.775 39.478 115.163 39.25 114.707 38.794C114.263 38.338 114.041 37.72 114.041 36.94V33.376C114.041 32.584 114.263 31.96 114.707 31.504C115.163 31.048 115.781 30.82 116.561 30.82H120.377C120.509 30.82 120.575 30.892 120.575 31.036V39.964C120.575 40.756 120.347 41.38 119.891 41.836C119.435 42.292 118.817 42.52 118.037 42.52H114.761C114.629 42.52 114.563 42.454 114.563 42.322V41.89C114.563 41.77 114.629 41.71 114.761 41.71H117.965C118.517 41.71 118.937 41.554 119.225 41.242C119.513 40.942 119.657 40.504 119.657 39.928V38.542H119.585C119.285 39.166 118.661 39.478 117.713 39.478ZM119.657 36.904V31.792C119.657 31.684 119.603 31.63 119.495 31.63H116.651C116.099 31.63 115.673 31.786 115.373 32.098C115.085 32.398 114.941 32.836 114.941 33.412V36.904C114.941 37.468 115.085 37.906 115.373 38.218C115.673 38.518 116.099 38.668 116.651 38.668H117.803C118.379 38.668 118.829 38.518 119.153 38.218C119.489 37.906 119.657 37.468 119.657 36.904ZM123.956 40H123.434C123.314 40 123.254 39.928 123.254 39.784V31.036C123.254 30.892 123.314 30.82 123.434 30.82H123.956C124.088 30.82 124.154 30.892 124.154 31.036V31.756H124.226C124.562 31.132 125.186 30.82 126.098 30.82H127.286C128.054 30.82 128.66 31.048 129.104 31.504C129.548 31.96 129.77 32.584 129.77 33.376V39.784C129.77 39.928 129.71 40 129.59 40H129.068C128.936 40 128.87 39.928 128.87 39.784V33.412C128.87 32.848 128.726 32.41 128.438 32.098C128.15 31.786 127.73 31.63 127.178 31.63H126.008C125.432 31.63 124.976 31.786 124.64 32.098C124.316 32.398 124.154 32.83 124.154 33.394V39.784C124.154 39.928 124.088 40 123.956 40ZM138.479 40H134.717C133.937 40 133.319 39.772 132.863 39.316C132.419 38.86 132.197 38.236 132.197 37.444V33.376C132.197 32.584 132.419 31.96 132.863 31.504C133.319 31.048 133.937 30.82 134.717 30.82H136.265C137.045 30.82 137.663 31.048 138.119 31.504C138.575 31.96 138.803 32.584 138.803 33.376V35.662C138.803 35.806 138.731 35.878 138.587 35.878H133.259C133.151 35.878 133.097 35.932 133.097 36.04V37.426C133.097 37.99 133.241 38.428 133.529 38.74C133.817 39.04 134.237 39.19 134.789 39.19H138.479C138.611 39.19 138.677 39.256 138.677 39.388V39.802C138.677 39.934 138.611 40 138.479 40ZM133.259 35.158H137.741C137.849 35.158 137.903 35.104 137.903 34.996V33.394C137.903 32.83 137.759 32.398 137.471 32.098C137.183 31.786 136.763 31.63 136.211 31.63H134.789C134.237 31.63 133.817 31.786 133.529 32.098C133.241 32.398 133.097 32.83 133.097 33.394V34.996C133.097 35.104 133.151 35.158 133.259 35.158ZM141.939 40H141.417C141.297 40 141.237 39.928 141.237 39.784V31.036C141.237 30.892 141.297 30.82 141.417 30.82H141.939C142.071 30.82 142.137 30.892 142.137 31.036V31.792H142.209C142.341 31.54 142.575 31.318 142.911 31.126C143.247 30.922 143.661 30.82 144.153 30.82H144.855C144.987 30.82 145.053 30.886 145.053 31.018V31.45C145.053 31.582 144.987 31.642 144.855 31.63H144.009C143.421 31.63 142.959 31.81 142.623 32.17C142.299 32.53 142.137 33.016 142.137 33.628V39.784C142.137 39.928 142.071 40 141.939 40ZM147.311 40H146.825C146.645 40 146.585 39.928 146.645 39.784C146.705 39.64 147.359 37.81 148.607 34.294C149.855 30.778 150.527 28.9 150.623 28.66C150.671 28.504 150.767 28.426 150.911 28.426H151.397C151.553 28.426 151.601 28.516 151.541 28.696L147.599 39.766C147.539 39.922 147.443 40 147.311 40ZM159.697 40H159.175C159.055 40 158.995 39.928 158.995 39.784V28.642C158.995 28.498 159.055 28.426 159.175 28.426H163.315C164.095 28.426 164.713 28.654 165.169 29.11C165.625 29.566 165.853 30.19 165.853 30.982V33.088C165.853 33.88 165.625 34.504 165.169 34.96C164.713 35.416 164.095 35.644 163.315 35.644H160.075C159.955 35.644 159.895 35.692 159.895 35.788V39.784C159.895 39.928 159.829 40 159.697 40ZM160.075 34.816H163.243C163.795 34.816 164.215 34.666 164.503 34.366C164.791 34.054 164.935 33.616 164.935 33.052V31.018C164.935 30.442 164.791 30.004 164.503 29.704C164.215 29.392 163.795 29.236 163.243 29.236H160.075C159.955 29.236 159.895 29.29 159.895 29.398V34.672C159.895 34.768 159.955 34.816 160.075 34.816ZM171.746 40H170.594C169.814 40 169.196 39.772 168.74 39.316C168.296 38.86 168.074 38.236 168.074 37.444V33.376C168.074 32.584 168.296 31.96 168.74 31.504C169.196 31.048 169.814 30.82 170.594 30.82H174.41C174.53 30.82 174.59 30.892 174.59 31.036V39.784C174.59 39.928 174.53 40 174.41 40H173.888C173.756 40 173.69 39.928 173.69 39.784V39.064H173.618C173.306 39.688 172.682 40 171.746 40ZM173.69 37.426V31.792C173.69 31.684 173.63 31.63 173.51 31.63H170.666C170.114 31.63 169.694 31.786 169.406 32.098C169.118 32.41 168.974 32.848 168.974 33.412V37.408C168.974 37.972 169.118 38.41 169.406 38.722C169.694 39.034 170.114 39.19 170.666 39.19H171.836C172.412 39.19 172.862 39.04 173.186 38.74C173.522 38.428 173.69 37.99 173.69 37.426ZM177.991 40H177.469C177.349 40 177.289 39.928 177.289 39.784V31.036C177.289 30.892 177.349 30.82 177.469 30.82H177.991C178.123 30.82 178.189 30.892 178.189 31.036V31.792H178.261C178.393 31.54 178.627 31.318 178.963 31.126C179.299 30.922 179.713 30.82 180.205 30.82H180.907C181.039 30.82 181.105 30.886 181.105 31.018V31.45C181.105 31.582 181.039 31.642 180.907 31.63H180.061C179.473 31.63 179.011 31.81 178.675 32.17C178.351 32.53 178.189 33.016 178.189 33.628V39.784C178.189 39.928 178.123 40 177.991 40ZM186.424 40H185.272C184.492 40 183.874 39.772 183.418 39.316C182.974 38.86 182.752 38.236 182.752 37.444V33.376C182.752 32.584 182.974 31.96 183.418 31.504C183.874 31.048 184.492 30.82 185.272 30.82H189.088C189.208 30.82 189.268 30.892 189.268 31.036V39.784C189.268 39.928 189.208 40 189.088 40H188.566C188.434 40 188.368 39.928 188.368 39.784V39.064H188.296C187.984 39.688 187.36 40 186.424 40ZM188.368 37.426V31.792C188.368 31.684 188.308 31.63 188.188 31.63H185.344C184.792 31.63 184.372 31.786 184.084 32.098C183.796 32.41 183.652 32.848 183.652 33.412V37.408C183.652 37.972 183.796 38.41 184.084 38.722C184.372 39.034 184.792 39.19 185.344 39.19H186.514C187.09 39.19 187.54 39.04 187.864 38.74C188.2 38.428 188.368 37.99 188.368 37.426ZM192.669 40H192.147C192.027 40 191.967 39.928 191.967 39.784V31.036C191.967 30.892 192.027 30.82 192.147 30.82H192.669C192.801 30.82 192.867 30.892 192.867 31.036V31.756H192.939C193.287 31.132 193.923 30.82 194.847 30.82H195.585C196.641 30.82 197.373 31.24 197.781 32.08C197.961 31.66 198.267 31.348 198.699 31.144C199.131 30.928 199.575 30.82 200.031 30.82H200.697C201.477 30.82 202.089 31.048 202.533 31.504C202.977 31.96 203.199 32.584 203.199 33.376V39.784C203.199 39.928 203.133 40 203.001 40H202.479C202.347 40 202.281 39.928 202.281 39.784V33.412C202.281 32.836 202.137 32.398 201.849 32.098C201.561 31.786 201.141 31.63 200.589 31.63H199.923C199.347 31.63 198.891 31.798 198.555 32.134C198.219 32.458 198.051 32.902 198.051 33.466V39.784C198.051 39.928 197.985 40 197.853 40H197.331C197.199 40 197.133 39.928 197.133 39.784V33.412C197.133 32.836 196.989 32.398 196.701 32.098C196.413 31.786 195.993 31.63 195.441 31.63H194.721C194.145 31.63 193.689 31.786 193.353 32.098C193.029 32.398 192.867 32.83 192.867 33.394V39.784C192.867 39.928 192.801 40 192.669 40ZM211.903 40H208.141C207.361 40 206.743 39.772 206.287 39.316C205.843 38.86 205.621 38.236 205.621 37.444V33.376C205.621 32.584 205.843 31.96 206.287 31.504C206.743 31.048 207.361 30.82 208.141 30.82H209.689C210.469 30.82 211.087 31.048 211.543 31.504C211.999 31.96 212.227 32.584 212.227 33.376V35.662C212.227 35.806 212.155 35.878 212.011 35.878H206.683C206.575 35.878 206.521 35.932 206.521 36.04V37.426C206.521 37.99 206.665 38.428 206.953 38.74C207.241 39.04 207.661 39.19 208.213 39.19H211.903C212.035 39.19 212.101 39.256 212.101 39.388V39.802C212.101 39.934 212.035 40 211.903 40ZM206.683 35.158H211.165C211.273 35.158 211.327 35.104 211.327 34.996V33.394C211.327 32.83 211.183 32.398 210.895 32.098C210.607 31.786 210.187 31.63 209.635 31.63H208.213C207.661 31.63 207.241 31.786 206.953 32.098C206.665 32.398 206.521 32.83 206.521 33.394V34.996C206.521 35.104 206.575 35.158 206.683 35.158ZM215.057 31.63H213.959C213.827 31.63 213.761 31.57 213.761 31.45V31.018C213.761 30.886 213.827 30.82 213.959 30.82H215.057C215.165 30.82 215.219 30.766 215.219 30.658V29.2C215.219 29.056 215.285 28.984 215.417 28.984H215.939C216.071 28.984 216.137 29.056 216.137 29.2V30.658C216.137 30.766 216.191 30.82 216.299 30.82H218.441C218.573 30.82 218.639 30.886 218.639 31.018V31.45C218.639 31.57 218.573 31.63 218.441 31.63H216.299C216.191 31.63 216.137 31.684 216.137 31.792V37.462C216.137 38.014 216.293 38.44 216.605 38.74C216.917 39.04 217.355 39.19 217.919 39.19H218.621C218.753 39.19 218.819 39.256 218.819 39.388V39.802C218.819 39.934 218.753 40 218.621 40H217.847C217.055 40 216.419 39.778 215.939 39.334C215.459 38.89 215.219 38.278 215.219 37.498V31.792C215.219 31.684 215.165 31.63 215.057 31.63ZM221.603 40H221.081C220.961 40 220.901 39.928 220.901 39.784V31.036C220.901 30.892 220.961 30.82 221.081 30.82H221.603C221.735 30.82 221.801 30.892 221.801 31.036V31.792H221.873C222.005 31.54 222.239 31.318 222.575 31.126C222.911 30.922 223.325 30.82 223.817 30.82H224.519C224.651 30.82 224.717 30.886 224.717 31.018V31.45C224.717 31.582 224.651 31.642 224.519 31.63H223.673C223.085 31.63 222.623 31.81 222.287 32.17C221.963 32.53 221.801 33.016 221.801 33.628V39.784C221.801 39.928 221.735 40 221.603 40ZM226.633 29.308V27.58C226.633 27.448 226.693 27.382 226.813 27.382H227.353C227.473 27.382 227.533 27.448 227.533 27.58V29.308C227.533 29.452 227.473 29.524 227.353 29.524H226.813C226.693 29.524 226.633 29.452 226.633 29.308ZM226.633 39.784V31.036C226.633 30.892 226.693 30.82 226.813 30.82H227.335C227.467 30.82 227.533 30.892 227.533 31.036V39.784C227.533 39.928 227.473 40 227.353 40H226.813C226.693 40 226.633 39.928 226.633 39.784ZM235.453 39.388V39.802C235.453 39.934 235.387 40 235.255 40H232.663C231.883 40 231.265 39.772 230.809 39.316C230.365 38.86 230.143 38.236 230.143 37.444V33.376C230.143 32.584 230.365 31.96 230.809 31.504C231.265 31.048 231.883 30.82 232.663 30.82H235.255C235.387 30.82 235.453 30.886 235.453 31.018V31.45C235.453 31.57 235.387 31.63 235.255 31.63H232.735C232.183 31.63 231.763 31.786 231.475 32.098C231.187 32.41 231.043 32.848 231.043 33.412V37.408C231.043 37.972 231.187 38.41 231.475 38.722C231.763 39.034 232.183 39.19 232.735 39.19H235.255C235.387 39.19 235.453 39.256 235.453 39.388ZM9.846 51.426H10.818C10.938 51.426 10.998 51.498 10.998 51.642V62.784C10.998 62.928 10.938 63 10.818 63H10.296C10.164 63 10.098 62.928 10.098 62.784V52.812H10.026L6.84 60.282C6.768 60.414 6.678 60.48 6.57 60.48H5.976C5.856 60.48 5.772 60.414 5.724 60.282L2.484 52.794H2.412V62.784C2.412 62.928 2.352 63 2.232 63H1.71C1.59 63 1.53 62.928 1.53 62.784V51.642C1.53 51.498 1.59 51.426 1.71 51.426H2.682C2.766 51.426 2.82 51.462 2.844 51.534L6.228 59.436H6.3L9.684 51.534C9.708 51.462 9.762 51.426 9.846 51.426ZM17.7712 63H16.2232C15.4432 63 14.8252 62.772 14.3692 62.316C13.9252 61.86 13.7032 61.236 13.7032 60.444V56.376C13.7032 55.584 13.9252 54.96 14.3692 54.504C14.8252 54.048 15.4432 53.82 16.2232 53.82H17.7712C18.5512 53.82 19.1692 54.048 19.6252 54.504C20.0812 54.96 20.3092 55.584 20.3092 56.376V60.444C20.3092 61.236 20.0812 61.86 19.6252 62.316C19.1692 62.772 18.5512 63 17.7712 63ZM16.2952 62.19H17.6992C18.2512 62.19 18.6712 62.04 18.9592 61.74C19.2592 61.428 19.4092 60.99 19.4092 60.426V56.394C19.4092 55.83 19.2592 55.398 18.9592 55.098C18.6712 54.786 18.2512 54.63 17.6992 54.63H16.2952C15.7432 54.63 15.3232 54.786 15.0352 55.098C14.7472 55.398 14.6032 55.83 14.6032 56.394V60.426C14.6032 60.99 14.7472 61.428 15.0352 61.74C15.3232 62.04 15.7432 62.19 16.2952 62.19ZM26.3229 63H25.1169C24.3489 63 23.7429 62.772 23.2989 62.316C22.8549 61.86 22.6329 61.236 22.6329 60.444V56.376C22.6329 55.584 22.8549 54.96 23.2989 54.504C23.7429 54.048 24.3489 53.82 25.1169 53.82H26.3229C27.2469 53.82 27.8769 54.132 28.2129 54.756H28.2849V50.562C28.2849 50.418 28.3449 50.346 28.4649 50.346H28.9869C29.1189 50.346 29.1849 50.418 29.1849 50.562V62.784C29.1849 62.928 29.1189 63 28.9869 63H28.4649C28.3449 63 28.2849 62.928 28.2849 62.784V62.064H28.2129C27.8769 62.688 27.2469 63 26.3229 63ZM28.2849 60.426V56.394C28.2849 55.83 28.1169 55.398 27.7809 55.098C27.4569 54.786 27.0069 54.63 26.4309 54.63H25.2249C24.6729 54.63 24.2529 54.786 23.9649 55.098C23.6769 55.41 23.5329 55.848 23.5329 56.412V60.408C23.5329 60.972 23.6769 61.41 23.9649 61.722C24.2529 62.034 24.6729 62.19 25.2249 62.19H26.4309C27.0069 62.19 27.4569 62.04 27.7809 61.74C28.1169 61.428 28.2849 60.99 28.2849 60.426ZM37.9852 63H34.2232C33.4432 63 32.8252 62.772 32.3692 62.316C31.9252 61.86 31.7032 61.236 31.7032 60.444V56.376C31.7032 55.584 31.9252 54.96 32.3692 54.504C32.8252 54.048 33.4432 53.82 34.2232 53.82H35.7712C36.5512 53.82 37.1692 54.048 37.6252 54.504C38.0812 54.96 38.3092 55.584 38.3092 56.376V58.662C38.3092 58.806 38.2372 58.878 38.0932 58.878H32.7652C32.6572 58.878 32.6032 58.932 32.6032 59.04V60.426C32.6032 60.99 32.7472 61.428 33.0352 61.74C33.3232 62.04 33.7432 62.19 34.2952 62.19H37.9852C38.1172 62.19 38.1832 62.256 38.1832 62.388V62.802C38.1832 62.934 38.1172 63 37.9852 63ZM32.7652 58.158H37.2472C37.3552 58.158 37.4092 58.104 37.4092 57.996V56.394C37.4092 55.83 37.2652 55.398 36.9772 55.098C36.6892 54.786 36.2692 54.63 35.7172 54.63H34.2952C33.7432 54.63 33.3232 54.786 33.0352 55.098C32.7472 55.398 32.6032 55.83 32.6032 56.394V57.996C32.6032 58.104 32.6572 58.158 32.7652 58.158ZM41.5346 63H41.0126C40.8926 63 40.8326 62.928 40.8326 62.784V50.562C40.8326 50.418 40.8926 50.346 41.0126 50.346H41.5346C41.6666 50.346 41.7326 50.418 41.7326 50.562V62.784C41.7326 62.928 41.6666 63 41.5346 63ZM50.6239 63H46.8619C46.0819 63 45.4639 62.772 45.0079 62.316C44.5639 61.86 44.3419 61.236 44.3419 60.444V56.376C44.3419 55.584 44.5639 54.96 45.0079 54.504C45.4639 54.048 46.0819 53.82 46.8619 53.82H48.4099C49.1899 53.82 49.8079 54.048 50.2639 54.504C50.7199 54.96 50.9479 55.584 50.9479 56.376V58.662C50.9479 58.806 50.8759 58.878 50.7319 58.878H45.4039C45.2959 58.878 45.2419 58.932 45.2419 59.04V60.426C45.2419 60.99 45.3859 61.428 45.6739 61.74C45.9619 62.04 46.3819 62.19 46.9339 62.19H50.6239C50.7559 62.19 50.8219 62.256 50.8219 62.388V62.802C50.8219 62.934 50.7559 63 50.6239 63ZM45.4039 58.158H49.8859C49.9939 58.158 50.0479 58.104 50.0479 57.996V56.394C50.0479 55.83 49.9039 55.398 49.6159 55.098C49.3279 54.786 48.9079 54.63 48.3559 54.63H46.9339C46.3819 54.63 45.9619 54.786 45.6739 55.098C45.3859 55.398 45.2419 55.83 45.2419 56.394V57.996C45.2419 58.104 45.2959 58.158 45.4039 58.158ZM54.0833 63H53.5613C53.4413 63 53.3813 62.928 53.3813 62.784V54.036C53.3813 53.892 53.4413 53.82 53.5613 53.82H54.0833C54.2153 53.82 54.2812 53.892 54.2812 54.036V54.792H54.3533C54.4853 54.54 54.7193 54.318 55.0553 54.126C55.3913 53.922 55.8053 53.82 56.2973 53.82H56.9993C57.1313 53.82 57.1973 53.886 57.1973 54.018V54.45C57.1973 54.582 57.1313 54.642 56.9993 54.63H56.1533C55.5653 54.63 55.1033 54.81 54.7673 55.17C54.4433 55.53 54.2812 56.016 54.2812 56.628V62.784C54.2812 62.928 54.2153 63 54.0833 63Z" fill="#5A5A5A"/>
</svg>
