<svg width="201" height="97" viewBox="0 0 201 97" fill="none" xmlns="http://www.w3.org/2000/svg">
<path d="M3.104 17H1.064C0.728 17 0.56 16.832 0.56 16.496V2.072C0.56 1.736 0.728 1.568 1.064 1.568H3.104C3.44 1.568 3.608 1.736 3.608 2.072V8.912H3.656C3.784 8.528 4.032 8.032 4.4 7.424L8.048 2.072C8.256 1.736 8.568 1.568 8.984 1.568H11.336C11.512 1.568 11.616 1.624 11.648 1.736C11.696 1.832 11.656 1.96 11.528 2.12L6.968 8.432L12.056 16.4C12.168 16.592 12.184 16.744 12.104 16.856C12.04 16.952 11.896 17 11.672 17H9.92C9.36 17 8.984 16.832 8.792 16.496L5.12 10.616L3.608 12.392V16.496C3.608 16.832 3.44 17 3.104 17ZM16.2468 17H14.2068C13.8708 17 13.7028 16.832 13.7028 16.496V5.264C13.7028 4.928 13.8708 4.76 14.2068 4.76H16.2468C16.5828 4.76 16.7508 4.928 16.7508 5.264V6.08H16.8468C17.0228 5.648 17.3348 5.32 17.7828 5.096C18.2308 4.872 18.7028 4.76 19.1988 4.76H20.0628C20.3828 4.76 20.5428 4.928 20.5428 5.264V6.92C20.5428 7.112 20.5028 7.248 20.4228 7.328C20.3588 7.392 20.2388 7.416 20.0628 7.4H18.4068C17.3028 7.4 16.7508 8.024 16.7508 9.272V16.496C16.7508 16.832 16.5828 17 16.2468 17ZM22.19 2.696V0.607999C22.19 0.288 22.35 0.128 22.67 0.128H24.758C25.078 0.128 25.238 0.28 25.238 0.584V2.696C25.238 3.016 25.078 3.176 24.758 3.176H22.67C22.35 3.176 22.19 3.016 22.19 2.696ZM22.19 16.496V5.264C22.19 4.928 22.35 4.76 22.67 4.76H24.734C25.07 4.76 25.238 4.928 25.238 5.264V16.496C25.238 16.704 25.198 16.84 25.118 16.904C25.054 16.968 24.934 17 24.758 17H22.694C22.358 17 22.19 16.832 22.19 16.496ZM32.6317 17H28.0717C27.7517 17 27.5917 16.832 27.5917 16.496V14.96C27.5917 14.784 27.6237 14.664 27.6877 14.6C27.7517 14.52 27.8797 14.48 28.0717 14.48H32.0797C32.8637 14.48 33.2557 14.24 33.2557 13.76V13.64C33.2557 13.256 32.9277 12.888 32.2717 12.536L29.8957 11.216C29.0797 10.8 28.4797 10.352 28.0957 9.872C27.7117 9.392 27.5197 8.776 27.5197 8.024C27.5197 6.904 27.8157 6.08 28.4077 5.552C28.9997 5.024 29.9277 4.76 31.1917 4.76H35.1997C35.5197 4.76 35.6797 4.928 35.6797 5.264V6.824C35.6797 7 35.6477 7.128 35.5837 7.208C35.5197 7.272 35.3917 7.304 35.1997 7.304H31.8637C31.0797 7.304 30.6877 7.504 30.6877 7.904V8.024C30.6877 8.376 31.0317 8.736 31.7197 9.104L34.1437 10.544C34.9757 10.992 35.5597 11.456 35.8957 11.936C36.2317 12.4 36.3997 13.016 36.3997 13.784C36.3997 15.928 35.1437 17 32.6317 17ZM38.7871 7.4H37.8271C37.6351 7.4 37.4991 7.368 37.4191 7.304C37.3551 7.24 37.3231 7.112 37.3231 6.92V5.264C37.3231 4.928 37.4911 4.76 37.8271 4.76H38.7871C38.9631 4.76 39.0511 4.672 39.0511 4.496V2.216C39.0511 1.88 39.2271 1.712 39.5791 1.712H41.5951C41.9311 1.712 42.0991 1.88 42.0991 2.216V4.496C42.0991 4.672 42.1951 4.76 42.3871 4.76H44.2591C44.5951 4.76 44.7631 4.928 44.7631 5.264V6.92C44.7631 7.096 44.7231 7.224 44.6431 7.304C44.5791 7.368 44.4511 7.4 44.2591 7.4H42.3871C42.1951 7.4 42.0991 7.488 42.0991 7.664V12.968C42.0991 13.464 42.2111 13.824 42.4351 14.048C42.6591 14.256 43.0271 14.36 43.5391 14.36H44.4991C44.8351 14.36 45.0031 14.528 45.0031 14.864V16.52C45.0031 16.696 44.9631 16.824 44.8831 16.904C44.8191 16.968 44.6911 17 44.4991 17H43.0351C41.7711 17 40.7871 16.664 40.0831 15.992C39.3951 15.32 39.0511 14.36 39.0511 13.112V7.664C39.0511 7.488 38.9631 7.4 38.7871 7.4ZM52.8401 17H50.7041C49.4401 17 48.4641 16.664 47.7761 15.992C47.0881 15.32 46.7441 14.352 46.7441 13.088V8.672C46.7441 7.408 47.0881 6.44 47.7761 5.768C48.4641 5.096 49.4401 4.76 50.7041 4.76H52.8401C54.0881 4.76 55.0561 5.104 55.7441 5.792C56.4481 6.464 56.8001 7.424 56.8001 8.672V13.088C56.8001 14.336 56.4481 15.304 55.7441 15.992C55.0561 16.664 54.0881 17 52.8401 17ZM51.1601 14.384H52.3841C52.8961 14.384 53.2561 14.28 53.4641 14.072C53.6881 13.864 53.8001 13.504 53.8001 12.992V8.768C53.8001 8.256 53.6881 7.896 53.4641 7.688C53.2561 7.48 52.8961 7.376 52.3841 7.376H51.1601C50.6481 7.376 50.2881 7.48 50.0801 7.688C49.8721 7.896 49.7681 8.256 49.7681 8.768V12.992C49.7681 13.504 49.8721 13.864 50.0801 14.072C50.2881 14.28 50.6481 14.384 51.1601 14.384ZM61.739 20.264H59.699C59.363 20.264 59.195 20.104 59.195 19.784V5.264C59.195 4.928 59.363 4.76 59.699 4.76H61.739C62.075 4.76 62.243 4.928 62.243 5.264V6.056H62.339C62.515 5.624 62.827 5.304 63.275 5.096C63.723 4.872 64.195 4.76 64.691 4.76H65.675C66.907 4.76 67.835 5.096 68.459 5.768C69.099 6.44 69.419 7.408 69.419 8.672V13.088C69.419 14.352 69.099 15.32 68.459 15.992C67.835 16.664 66.907 17 65.675 17H64.691C64.195 17 63.723 16.896 63.275 16.688C62.827 16.464 62.515 16.136 62.339 15.704H62.243V19.784C62.243 20.104 62.075 20.264 61.739 20.264ZM63.899 14.36H64.955C65.467 14.36 65.827 14.256 66.035 14.048C66.259 13.824 66.371 13.456 66.371 12.944V8.816C66.371 8.304 66.259 7.944 66.035 7.736C65.827 7.512 65.467 7.4 64.955 7.4H63.899C62.795 7.4 62.243 8.008 62.243 9.224V12.536C62.243 13.752 62.795 14.36 63.899 14.36ZM74.3718 17H72.3318C71.9958 17 71.8278 16.832 71.8278 16.496V0.631999C71.8278 0.296 71.9958 0.128 72.3318 0.128H74.3718C74.7078 0.128 74.8758 0.296 74.8758 0.631999V6.056H74.9718C75.3238 5.192 76.1078 4.76 77.3238 4.76H78.0918C80.6038 4.76 81.8598 6.064 81.8598 8.672V16.496C81.8598 16.832 81.6838 17 81.3318 17H79.3158C78.9798 17 78.8118 16.832 78.8118 16.496V8.816C78.8118 8.304 78.6998 7.944 78.4758 7.736C78.2678 7.512 77.9078 7.4 77.3958 7.4H76.5318C75.4278 7.4 74.8758 8.008 74.8758 9.224V16.496C74.8758 16.832 74.7078 17 74.3718 17ZM93.4143 17H88.1103C86.8463 17 85.8703 16.664 85.1823 15.992C84.4943 15.32 84.1503 14.352 84.1503 13.088V8.672C84.1503 7.408 84.4943 6.44 85.1823 5.768C85.8703 5.096 86.8463 4.76 88.1103 4.76H90.0063C91.2703 4.76 92.2463 5.096 92.9343 5.768C93.6223 6.44 93.9663 7.408 93.9663 8.672V11.72C93.9663 12.056 93.7983 12.224 93.4623 12.224H87.4383C87.2463 12.224 87.1503 12.312 87.1503 12.488V13.016C87.1503 13.512 87.2543 13.872 87.4623 14.096C87.6863 14.304 88.0543 14.408 88.5663 14.408H93.4143C93.7503 14.408 93.9183 14.584 93.9183 14.936V16.52C93.9183 16.696 93.8783 16.824 93.7983 16.904C93.7343 16.968 93.6063 17 93.4143 17ZM87.4383 10.184H90.7023C90.8783 10.184 90.9663 10.096 90.9663 9.92V8.768C90.9663 8.256 90.8623 7.896 90.6543 7.688C90.4463 7.48 90.0863 7.376 89.5743 7.376H88.5663C88.0543 7.376 87.6943 7.48 87.4863 7.688C87.2783 7.896 87.1743 8.256 87.1743 8.768V9.92C87.1743 10.096 87.2623 10.184 87.4383 10.184ZM98.7937 17H96.7537C96.4177 17 96.2497 16.832 96.2497 16.496V5.264C96.2497 4.928 96.4177 4.76 96.7537 4.76H98.7937C99.1297 4.76 99.2977 4.928 99.2977 5.264V6.08H99.3937C99.5697 5.648 99.8817 5.32 100.33 5.096C100.778 4.872 101.25 4.76 101.746 4.76H102.61C102.93 4.76 103.09 4.928 103.09 5.264V6.92C103.09 7.112 103.05 7.248 102.97 7.328C102.906 7.392 102.786 7.416 102.61 7.4H100.954C99.8497 7.4 99.2977 8.024 99.2977 9.272V16.496C99.2977 16.832 99.1297 17 98.7937 17ZM112.674 17H110.634C110.298 17 110.13 16.832 110.13 16.496V2.072C110.13 1.736 110.298 1.568 110.634 1.568H116.346C117.594 1.568 118.57 1.912 119.274 2.6C119.978 3.288 120.33 4.256 120.33 5.504V7.376C120.33 9.184 119.618 10.384 118.194 10.976V11.072L120.762 16.424C120.906 16.808 120.77 17 120.354 17H118.41C118.122 17 117.914 16.968 117.786 16.904C117.658 16.84 117.554 16.704 117.474 16.496L115.074 11.312H113.466C113.274 11.312 113.178 11.4 113.178 11.576V16.496C113.178 16.832 113.01 17 112.674 17ZM113.442 8.864H115.794C116.306 8.864 116.682 8.76 116.922 8.552C117.162 8.328 117.282 7.976 117.282 7.496V5.624C117.282 5.128 117.162 4.768 116.922 4.544C116.682 4.32 116.306 4.208 115.794 4.208H113.442C113.266 4.208 113.178 4.296 113.178 4.472V8.6C113.178 8.776 113.266 8.864 113.442 8.864ZM127.311 17H126.735C125.471 17 124.495 16.664 123.807 15.992C123.119 15.32 122.775 14.352 122.775 13.088V8.672C122.775 7.408 123.119 6.44 123.807 5.768C124.495 5.096 125.471 4.76 126.735 4.76H132.279C132.631 4.76 132.807 4.928 132.807 5.264V16.496C132.807 16.832 132.631 17 132.279 17H130.263C129.927 17 129.759 16.832 129.759 16.496V15.704H129.663C129.487 16.136 129.175 16.464 128.727 16.688C128.279 16.896 127.807 17 127.311 17ZM129.759 12.536V7.664C129.759 7.488 129.663 7.4 129.471 7.4H127.215C126.703 7.4 126.343 7.512 126.135 7.736C125.927 7.944 125.823 8.304 125.823 8.816V12.944C125.823 13.456 125.927 13.824 126.135 14.048C126.343 14.256 126.703 14.36 127.215 14.36H128.103C129.207 14.36 129.759 13.752 129.759 12.536ZM137.429 21.056H135.893C135.573 21.056 135.413 20.88 135.413 20.528V18.92C135.413 18.568 135.573 18.392 135.893 18.392H136.397C137.405 18.392 138.085 18.248 138.437 17.96C138.805 17.688 139.085 17.152 139.277 16.352H138.005C137.701 16.352 137.501 16.184 137.405 15.848L134.597 5.264C134.501 4.928 134.621 4.76 134.957 4.76H137.093C137.413 4.76 137.613 4.928 137.693 5.264L139.757 14.12H139.853L141.893 5.264C141.957 4.928 142.157 4.76 142.493 4.76H144.509C144.909 4.76 145.069 4.936 144.989 5.288L142.061 17C141.709 18.328 141.165 19.336 140.429 20.024C139.693 20.712 138.693 21.056 137.429 21.056ZM151.864 13.064V12.584C151.864 12.248 152.032 12.08 152.368 12.08H154.408C154.744 12.08 154.912 12.248 154.912 12.584V12.776C154.912 13.384 155.032 13.8 155.272 14.024C155.512 14.248 155.952 14.36 156.592 14.36H157.72C158.344 14.36 158.776 14.24 159.016 14C159.272 13.76 159.4 13.312 159.4 12.656V12.368C159.4 11.904 159.208 11.552 158.824 11.312C158.456 11.056 157.992 10.904 157.432 10.856C156.872 10.808 156.264 10.72 155.608 10.592C154.968 10.448 154.368 10.272 153.808 10.064C153.248 9.84 152.776 9.416 152.392 8.792C152.024 8.152 151.84 7.336 151.84 6.344V5.504C151.84 4.256 152.192 3.288 152.896 2.6C153.6 1.912 154.576 1.568 155.824 1.568H158.224C159.488 1.568 160.472 1.912 161.176 2.6C161.88 3.288 162.232 4.256 162.232 5.504V5.96C162.232 6.296 162.064 6.464 161.728 6.464H159.688C159.352 6.464 159.184 6.296 159.184 5.96V5.816C159.184 5.192 159.064 4.768 158.824 4.544C158.584 4.32 158.144 4.208 157.504 4.208H156.568C155.912 4.208 155.464 4.336 155.224 4.592C155 4.832 154.888 5.312 154.888 6.032V6.488C154.888 7.24 155.544 7.672 156.855 7.784C158.216 7.896 159.424 8.168 160.48 8.6C161.04 8.84 161.504 9.272 161.872 9.896C162.256 10.504 162.448 11.288 162.448 12.248V13.064C162.448 14.312 162.096 15.28 161.392 15.968C160.688 16.656 159.712 17 158.464 17H155.848C154.6 17 153.624 16.656 152.92 15.968C152.216 15.28 151.864 14.312 151.864 13.064ZM167.609 13.544V16.496C167.609 16.832 167.457 17 167.153 17H165.017C164.697 17 164.537 16.832 164.537 16.496V13.568C164.537 13.248 164.697 13.088 165.017 13.088H167.153C167.457 13.088 167.609 13.24 167.609 13.544ZM3.104 48H1.064C0.728 48 0.56 47.832 0.56 47.496V33.072C0.56 32.736 0.728 32.568 1.064 32.568H6.92C8.168 32.568 9.136 32.912 9.824 33.6C10.512 34.272 10.856 35.232 10.856 36.48V38.784C10.856 40.032 10.512 41 9.824 41.688C9.136 42.36 8.168 42.696 6.92 42.696H3.896C3.704 42.696 3.608 42.784 3.608 42.96V47.496C3.608 47.832 3.44 48 3.104 48ZM3.872 40.032H6.416C6.928 40.032 7.288 39.928 7.496 39.72C7.704 39.496 7.808 39.136 7.808 38.64V36.624C7.808 36.112 7.704 35.752 7.496 35.544C7.288 35.32 6.928 35.208 6.416 35.208H3.872C3.696 35.208 3.608 35.296 3.608 35.472V39.768C3.608 39.944 3.696 40.032 3.872 40.032ZM17.3426 48H16.7666C15.5026 48 14.5266 47.664 13.8386 46.992C13.1506 46.32 12.8066 45.352 12.8066 44.088V39.672C12.8066 38.408 13.1506 37.44 13.8386 36.768C14.5266 36.096 15.5026 35.76 16.7666 35.76H22.3106C22.6626 35.76 22.8386 35.928 22.8386 36.264V47.496C22.8386 47.832 22.6626 48 22.3106 48H20.2946C19.9586 48 19.7906 47.832 19.7906 47.496V46.704H19.6946C19.5186 47.136 19.2066 47.464 18.7586 47.688C18.3106 47.896 17.8386 48 17.3426 48ZM19.7906 43.536V38.664C19.7906 38.488 19.6946 38.4 19.5026 38.4H17.2466C16.7346 38.4 16.3746 38.512 16.1666 38.736C15.9586 38.944 15.8546 39.304 15.8546 39.816V43.944C15.8546 44.456 15.9586 44.824 16.1666 45.048C16.3746 45.256 16.7346 45.36 17.2466 45.36H18.1346C19.2386 45.36 19.7906 44.752 19.7906 43.536ZM28.0124 48H25.9724C25.6364 48 25.4684 47.832 25.4684 47.496V36.264C25.4684 35.928 25.6364 35.76 25.9724 35.76H28.0124C28.3484 35.76 28.5164 35.928 28.5164 36.264V37.056H28.6124C28.8044 36.672 29.1244 36.36 29.5724 36.12C30.0364 35.88 30.5644 35.76 31.1564 35.76H31.8284C33.2204 35.76 34.2204 36.272 34.8284 37.296C35.3724 36.272 36.3084 35.76 37.6364 35.76H38.3324C39.5644 35.76 40.4924 36.096 41.1164 36.768C41.7564 37.44 42.0764 38.408 42.0764 39.672V47.496C42.0764 47.832 41.9084 48 41.5724 48H39.5324C39.1964 48 39.0284 47.832 39.0284 47.496V39.816C39.0284 39.304 38.9244 38.944 38.7164 38.736C38.5084 38.512 38.1484 38.4 37.6364 38.4H37.0364C35.9324 38.4 35.3804 39.016 35.3804 40.248V47.496C35.3804 47.832 35.2044 48 34.8524 48H32.8364C32.5004 48 32.3324 47.832 32.3324 47.496V39.816C32.3324 39.304 32.2204 38.944 31.9964 38.736C31.7884 38.512 31.4284 38.4 30.9164 38.4H30.1724C29.0684 38.4 28.5164 39.008 28.5164 40.224V47.496C28.5164 47.832 28.3484 48 28.0124 48ZM44.7369 33.696V31.608C44.7369 31.288 44.8969 31.128 45.2169 31.128H47.3049C47.6249 31.128 47.7849 31.28 47.7849 31.584V33.696C47.7849 34.016 47.6249 34.176 47.3049 34.176H45.2169C44.8969 34.176 44.7369 34.016 44.7369 33.696ZM44.7369 47.496V36.264C44.7369 35.928 44.8969 35.76 45.2169 35.76H47.2809C47.6169 35.76 47.7849 35.928 47.7849 36.264V47.496C47.7849 47.704 47.7449 47.84 47.6649 47.904C47.6009 47.968 47.4809 48 47.3049 48H45.2409C44.9049 48 44.7369 47.832 44.7369 47.496ZM53.0906 48H51.0506C50.7146 48 50.5466 47.832 50.5466 47.496V36.264C50.5466 35.928 50.7146 35.76 51.0506 35.76H53.0906C53.4266 35.76 53.5946 35.928 53.5946 36.264V37.056H53.6906C54.0426 36.192 54.8266 35.76 56.0426 35.76H56.8106C59.3226 35.76 60.5786 37.064 60.5786 39.672V47.496C60.5786 47.832 60.4026 48 60.0506 48H58.0346C57.6986 48 57.5306 47.832 57.5306 47.496V39.816C57.5306 39.304 57.4186 38.944 57.1946 38.736C56.9866 38.512 56.6266 38.4 56.1146 38.4H55.2506C54.1466 38.4 53.5946 39.008 53.5946 40.224V47.496C53.5946 47.832 53.4266 48 53.0906 48ZM63.3731 38.4H62.4131C62.2211 38.4 62.0851 38.368 62.0051 38.304C61.9411 38.24 61.9091 38.112 61.9091 37.92V36.264C61.9091 35.928 62.0771 35.76 62.4131 35.76H63.3731C63.5491 35.76 63.6371 35.672 63.6371 35.496V33.216C63.6371 32.88 63.8131 32.712 64.1651 32.712H66.1811C66.5171 32.712 66.6851 32.88 66.6851 33.216V35.496C66.6851 35.672 66.7811 35.76 66.9731 35.76H68.8451C69.1811 35.76 69.3491 35.928 69.3491 36.264V37.92C69.3491 38.096 69.3091 38.224 69.2291 38.304C69.1651 38.368 69.0371 38.4 68.8451 38.4H66.9731C66.7811 38.4 66.6851 38.488 66.6851 38.664V43.968C66.6851 44.464 66.7971 44.824 67.0211 45.048C67.2451 45.256 67.6131 45.36 68.1251 45.36H69.0851C69.4211 45.36 69.5891 45.528 69.5891 45.864V47.52C69.5891 47.696 69.5491 47.824 69.4691 47.904C69.4051 47.968 69.2771 48 69.0851 48H67.6211C66.3571 48 65.3731 47.664 64.6691 46.992C63.9811 46.32 63.6371 45.36 63.6371 44.112V38.664C63.6371 38.488 63.5491 38.4 63.3731 38.4ZM75.986 48H75.194C73.962 48 73.026 47.664 72.386 46.992C71.762 46.32 71.45 45.352 71.45 44.088V36.264C71.45 35.928 71.618 35.76 71.954 35.76H73.994C74.33 35.76 74.498 35.928 74.498 36.264V43.944C74.498 44.456 74.602 44.824 74.81 45.048C75.034 45.256 75.394 45.36 75.89 45.36H76.778C77.882 45.36 78.434 44.752 78.434 43.536V36.264C78.434 35.928 78.602 35.76 78.938 35.76H80.954C81.306 35.76 81.482 35.928 81.482 36.264V47.496C81.482 47.832 81.306 48 80.954 48H78.938C78.602 48 78.434 47.832 78.434 47.496V46.704H78.338C78.162 47.136 77.85 47.464 77.402 47.688C76.954 47.896 76.482 48 75.986 48ZM88.4285 48H87.8525C86.5885 48 85.6125 47.664 84.9245 46.992C84.2365 46.32 83.8925 45.352 83.8925 44.088V39.672C83.8925 38.408 84.2365 37.44 84.9245 36.768C85.6125 36.096 86.5885 35.76 87.8525 35.76H93.3965C93.7485 35.76 93.9245 35.928 93.9245 36.264V47.496C93.9245 47.832 93.7485 48 93.3965 48H91.3805C91.0445 48 90.8765 47.832 90.8765 47.496V46.704H90.7805C90.6045 47.136 90.2925 47.464 89.8445 47.688C89.3965 47.896 88.9245 48 88.4285 48ZM90.8765 43.536V38.664C90.8765 38.488 90.7805 38.4 90.5885 38.4H88.3325C87.8205 38.4 87.4605 38.512 87.2525 38.736C87.0445 38.944 86.9405 39.304 86.9405 39.816V43.944C86.9405 44.456 87.0445 44.824 87.2525 45.048C87.4605 45.256 87.8205 45.36 88.3325 45.36H89.2205C90.3245 45.36 90.8765 44.752 90.8765 43.536ZM99.0984 48H97.0584C96.7224 48 96.5544 47.832 96.5544 47.496V36.264C96.5544 35.928 96.7224 35.76 97.0584 35.76H99.0984C99.4344 35.76 99.6024 35.928 99.6024 36.264V37.056H99.6984C100.05 36.192 100.834 35.76 102.05 35.76H102.818C105.33 35.76 106.586 37.064 106.586 39.672V47.496C106.586 47.832 106.41 48 106.058 48H104.042C103.706 48 103.538 47.832 103.538 47.496V39.816C103.538 39.304 103.426 38.944 103.202 38.736C102.994 38.512 102.634 38.4 102.122 38.4H101.258C100.154 38.4 99.6024 39.008 99.6024 40.224V47.496C99.6024 47.832 99.4344 48 99.0984 48ZM111.781 44.544V46.416C111.781 46.848 111.597 47.344 111.229 47.904L109.573 50.328C109.461 50.488 109.309 50.568 109.117 50.568C108.845 50.568 108.709 50.408 108.709 50.088V44.568C108.709 44.248 108.869 44.088 109.189 44.088H111.325C111.629 44.088 111.781 44.24 111.781 44.544ZM122.073 48H120.033C119.697 48 119.529 47.832 119.529 47.496V33.072C119.529 32.736 119.697 32.568 120.033 32.568H125.889C127.137 32.568 128.105 32.912 128.793 33.6C129.481 34.272 129.825 35.232 129.825 36.48V38.784C129.825 40.032 129.481 41 128.793 41.688C128.105 42.36 127.137 42.696 125.889 42.696H122.865C122.673 42.696 122.577 42.784 122.577 42.96V47.496C122.577 47.832 122.409 48 122.073 48ZM122.841 40.032H125.385C125.897 40.032 126.257 39.928 126.465 39.72C126.673 39.496 126.777 39.136 126.777 38.64V36.624C126.777 36.112 126.673 35.752 126.465 35.544C126.257 35.32 125.897 35.208 125.385 35.208H122.841C122.665 35.208 122.577 35.296 122.577 35.472V39.768C122.577 39.944 122.665 40.032 122.841 40.032ZM134.559 48H132.519C132.183 48 132.015 47.832 132.015 47.496V31.632C132.015 31.296 132.183 31.128 132.519 31.128H134.559C134.895 31.128 135.063 31.296 135.063 31.632V37.056H135.159C135.511 36.192 136.295 35.76 137.511 35.76H138.279C140.791 35.76 142.047 37.064 142.047 39.672V47.496C142.047 47.832 141.871 48 141.519 48H139.503C139.167 48 138.999 47.832 138.999 47.496V39.816C138.999 39.304 138.887 38.944 138.663 38.736C138.455 38.512 138.095 38.4 137.583 38.4H136.719C135.615 38.4 135.063 39.008 135.063 40.224V47.496C135.063 47.832 134.895 48 134.559 48ZM147.242 44.544V47.496C147.242 47.832 147.09 48 146.786 48H144.65C144.33 48 144.17 47.832 144.17 47.496V44.568C144.17 44.248 144.33 44.088 144.65 44.088H146.786C147.09 44.088 147.242 44.24 147.242 44.544ZM153.028 45.36H155.644C156.156 45.36 156.516 45.256 156.724 45.048C156.948 44.824 157.06 44.456 157.06 43.944V36.624C157.06 36.112 156.948 35.752 156.724 35.544C156.516 35.32 156.156 35.208 155.644 35.208H153.028C152.852 35.208 152.764 35.296 152.764 35.472V45.096C152.764 45.272 152.852 45.36 153.028 45.36ZM149.716 47.496V33.072C149.716 32.736 149.884 32.568 150.22 32.568H156.148C157.396 32.568 158.364 32.912 159.052 33.6C159.756 34.272 160.108 35.232 160.108 36.48V44.088C160.108 45.336 159.756 46.304 159.052 46.992C158.364 47.664 157.396 48 156.148 48H150.22C149.884 48 149.716 47.832 149.716 47.496ZM165.406 44.544V47.496C165.406 47.832 165.254 48 164.95 48H162.814C162.494 48 162.334 47.832 162.334 47.496V44.568C162.334 44.248 162.494 44.088 162.814 44.088H164.95C165.254 44.088 165.406 44.24 165.406 44.544ZM1.232 71H0.71C0.59 71 0.53 70.928 0.53 70.784V59.642C0.53 59.498 0.59 59.426 0.71 59.426H4.814C5.594 59.426 6.212 59.654 6.668 60.11C7.124 60.566 7.352 61.19 7.352 61.982V63.692C7.352 64.364 7.178 64.916 6.83 65.348C6.494 65.78 6.032 66.056 5.444 66.176V66.248L7.586 70.784C7.658 70.928 7.616 71 7.46 71H6.902C6.746 71 6.638 70.928 6.578 70.784L4.454 66.248H1.61C1.49 66.248 1.43 66.302 1.43 66.41V70.784C1.43 70.928 1.364 71 1.232 71ZM1.61 65.474H4.724C5.276 65.474 5.702 65.324 6.002 65.024C6.302 64.712 6.452 64.274 6.452 63.71V62.018C6.452 61.454 6.302 61.016 6.002 60.704C5.702 60.392 5.276 60.236 4.724 60.236H1.61C1.49 60.236 1.43 60.29 1.43 60.398V65.312C1.43 65.42 1.49 65.474 1.61 65.474ZM16.0672 71H12.3052C11.5252 71 10.9072 70.772 10.4512 70.316C10.0072 69.86 9.78523 69.236 9.78523 68.444V64.376C9.78523 63.584 10.0072 62.96 10.4512 62.504C10.9072 62.048 11.5252 61.82 12.3052 61.82H13.8532C14.6332 61.82 15.2512 62.048 15.7072 62.504C16.1632 62.96 16.3912 63.584 16.3912 64.376V66.662C16.3912 66.806 16.3192 66.878 16.1752 66.878H10.8472C10.7392 66.878 10.6852 66.932 10.6852 67.04V68.426C10.6852 68.99 10.8292 69.428 11.1172 69.74C11.4052 70.04 11.8252 70.19 12.3772 70.19H16.0672C16.1992 70.19 16.2652 70.256 16.2652 70.388V70.802C16.2652 70.934 16.1992 71 16.0672 71ZM10.8472 66.158H15.3292C15.4372 66.158 15.4912 66.104 15.4912 65.996V64.394C15.4912 63.83 15.3472 63.398 15.0592 63.098C14.7712 62.786 14.3512 62.63 13.7992 62.63H12.3772C11.8252 62.63 11.4052 62.786 11.1172 63.098C10.8292 63.398 10.6852 63.83 10.6852 64.394V65.996C10.6852 66.104 10.7392 66.158 10.8472 66.158ZM21.7946 71H18.6626C18.5306 71 18.4646 70.934 18.4646 70.802V70.388C18.4646 70.268 18.5306 70.208 18.6626 70.208H21.7046C22.7846 70.208 23.3246 69.788 23.3246 68.948V68.516C23.3246 67.736 22.9886 67.226 22.3166 66.986L20.0666 66.122C19.4546 65.882 19.0166 65.6 18.7526 65.276C18.5006 64.952 18.3746 64.502 18.3746 63.926C18.3746 62.522 19.1486 61.82 20.6966 61.82H23.6126C23.7446 61.82 23.8106 61.886 23.8106 62.018V62.432C23.8106 62.552 23.7446 62.612 23.6126 62.612H20.7866C20.2946 62.612 19.9226 62.72 19.6706 62.936C19.4306 63.152 19.3106 63.404 19.3106 63.692V64.106C19.3106 64.442 19.4006 64.706 19.5806 64.898C19.7726 65.09 20.0606 65.252 20.4446 65.384L22.6946 66.284C23.3186 66.488 23.7326 66.794 23.9366 67.202C24.1526 67.598 24.2606 68.156 24.2606 68.876C24.2606 69.596 24.0566 70.13 23.6486 70.478C23.2526 70.826 22.6346 71 21.7946 71ZM32.6786 71H28.9166C28.1366 71 27.5186 70.772 27.0626 70.316C26.6186 69.86 26.3966 69.236 26.3966 68.444V64.376C26.3966 63.584 26.6186 62.96 27.0626 62.504C27.5186 62.048 28.1366 61.82 28.9166 61.82H30.4646C31.2446 61.82 31.8626 62.048 32.3186 62.504C32.7746 62.96 33.0026 63.584 33.0026 64.376V66.662C33.0026 66.806 32.9306 66.878 32.7866 66.878H27.4586C27.3506 66.878 27.2966 66.932 27.2966 67.04V68.426C27.2966 68.99 27.4406 69.428 27.7286 69.74C28.0166 70.04 28.4366 70.19 28.9886 70.19H32.6786C32.8106 70.19 32.8766 70.256 32.8766 70.388V70.802C32.8766 70.934 32.8106 71 32.6786 71ZM27.4586 66.158H31.9406C32.0486 66.158 32.1026 66.104 32.1026 65.996V64.394C32.1026 63.83 31.9586 63.398 31.6706 63.098C31.3826 62.786 30.9626 62.63 30.4106 62.63H28.9886C28.4366 62.63 28.0166 62.786 27.7286 63.098C27.4406 63.398 27.2966 63.83 27.2966 64.394V65.996C27.2966 66.104 27.3506 66.158 27.4586 66.158ZM38.9279 71H37.7759C36.9959 71 36.3779 70.772 35.9219 70.316C35.4779 69.86 35.2559 69.236 35.2559 68.444V64.376C35.2559 63.584 35.4779 62.96 35.9219 62.504C36.3779 62.048 36.9959 61.82 37.7759 61.82H41.5919C41.7119 61.82 41.7719 61.892 41.7719 62.036V70.784C41.7719 70.928 41.7119 71 41.5919 71H41.0699C40.9379 71 40.8719 70.928 40.8719 70.784V70.064H40.7999C40.4879 70.688 39.8639 71 38.9279 71ZM40.8719 68.426V62.792C40.8719 62.684 40.8119 62.63 40.6919 62.63H37.8479C37.2959 62.63 36.8759 62.786 36.5879 63.098C36.2999 63.41 36.1559 63.848 36.1559 64.412V68.408C36.1559 68.972 36.2999 69.41 36.5879 69.722C36.8759 70.034 37.2959 70.19 37.8479 70.19H39.0179C39.5939 70.19 40.0439 70.04 40.3679 69.74C40.7039 69.428 40.8719 68.99 40.8719 68.426ZM45.1731 71H44.6511C44.5311 71 44.4711 70.928 44.4711 70.784V62.036C44.4711 61.892 44.5311 61.82 44.6511 61.82H45.1731C45.3051 61.82 45.3711 61.892 45.3711 62.036V62.792H45.4431C45.5751 62.54 45.8091 62.318 46.1451 62.126C46.4811 61.922 46.8951 61.82 47.3871 61.82H48.0891C48.2211 61.82 48.2871 61.886 48.2871 62.018V62.45C48.2871 62.582 48.2211 62.642 48.0891 62.63H47.2431C46.6551 62.63 46.1931 62.81 45.8571 63.17C45.5331 63.53 45.3711 64.016 45.3711 64.628V70.784C45.3711 70.928 45.3051 71 45.1731 71ZM55.2437 70.388V70.802C55.2437 70.934 55.1777 71 55.0457 71H52.4537C51.6737 71 51.0557 70.772 50.5997 70.316C50.1557 69.86 49.9337 69.236 49.9337 68.444V64.376C49.9337 63.584 50.1557 62.96 50.5997 62.504C51.0557 62.048 51.6737 61.82 52.4537 61.82H55.0457C55.1777 61.82 55.2437 61.886 55.2437 62.018V62.45C55.2437 62.57 55.1777 62.63 55.0457 62.63H52.5257C51.9737 62.63 51.5537 62.786 51.2657 63.098C50.9777 63.41 50.8337 63.848 50.8337 64.412V68.408C50.8337 68.972 50.9777 69.41 51.2657 69.722C51.5537 70.034 51.9737 70.19 52.5257 70.19H55.0457C55.1777 70.19 55.2437 70.256 55.2437 70.388ZM57.8997 71H57.3777C57.2577 71 57.1977 70.928 57.1977 70.784V58.562C57.1977 58.418 57.2577 58.346 57.3777 58.346H57.8997C58.0317 58.346 58.0977 58.418 58.0977 58.562V62.756H58.1697C58.5057 62.132 59.1297 61.82 60.0417 61.82H61.2297C61.9977 61.82 62.6037 62.048 63.0477 62.504C63.4917 62.96 63.7137 63.584 63.7137 64.376V70.784C63.7137 70.928 63.6537 71 63.5337 71H63.0117C62.8797 71 62.8137 70.928 62.8137 70.784V64.412C62.8137 63.848 62.6697 63.41 62.3817 63.098C62.0937 62.786 61.6737 62.63 61.1217 62.63H59.9517C59.3757 62.63 58.9197 62.786 58.5837 63.098C58.2597 63.398 58.0977 63.83 58.0977 64.394V70.784C58.0977 70.928 58.0317 71 57.8997 71ZM70.9935 71H70.4355C70.3035 71 70.2615 70.928 70.3095 70.784L73.8915 59.642C73.9275 59.498 74.0115 59.426 74.1435 59.426H74.9895C75.1095 59.426 75.1935 59.498 75.2415 59.642L78.8235 70.784C78.8595 70.928 78.8175 71 78.6975 71H78.1215C78.0015 71 77.9235 70.928 77.8875 70.784L76.9155 67.904H72.1995L71.2275 70.784C71.1795 70.928 71.1015 71 70.9935 71ZM74.5215 60.416L72.4515 67.094H76.6815L74.5935 60.416H74.5215ZM84.2272 71H83.0212C82.2532 71 81.6472 70.772 81.2032 70.316C80.7592 69.86 80.5372 69.236 80.5372 68.444V64.376C80.5372 63.584 80.7592 62.96 81.2032 62.504C81.6472 62.048 82.2532 61.82 83.0212 61.82H84.2272C85.1512 61.82 85.7812 62.132 86.1172 62.756H86.1892V58.562C86.1892 58.418 86.2492 58.346 86.3692 58.346H86.8912C87.0232 58.346 87.0892 58.418 87.0892 58.562V70.784C87.0892 70.928 87.0232 71 86.8912 71H86.3692C86.2492 71 86.1892 70.928 86.1892 70.784V70.064H86.1172C85.7812 70.688 85.1512 71 84.2272 71ZM86.1892 68.426V64.394C86.1892 63.83 86.0212 63.398 85.6852 63.098C85.3612 62.786 84.9112 62.63 84.3352 62.63H83.1292C82.5772 62.63 82.1572 62.786 81.8692 63.098C81.5812 63.41 81.4372 63.848 81.4372 64.412V68.408C81.4372 68.972 81.5812 69.41 81.8692 69.722C82.1572 70.034 82.5772 70.19 83.1292 70.19H84.3352C84.9112 70.19 85.3612 70.04 85.6852 69.74C86.0212 69.428 86.1892 68.99 86.1892 68.426ZM88.9415 61.82H89.4995C89.6195 61.82 89.6975 61.892 89.7335 62.036L92.1455 69.992H92.2175L94.6115 62.036C94.6595 61.892 94.7375 61.82 94.8455 61.82H95.4215C95.5535 61.82 95.5955 61.892 95.5475 62.036L92.8295 70.784C92.7935 70.928 92.7095 71 92.5775 71H91.7855C91.6535 71 91.5635 70.928 91.5155 70.784L88.7975 62.036C88.7615 61.892 88.8095 61.82 88.9415 61.82ZM97.3658 60.308V58.58C97.3658 58.448 97.4258 58.382 97.5458 58.382H98.0858C98.2058 58.382 98.2658 58.448 98.2658 58.58V60.308C98.2658 60.452 98.2058 60.524 98.0858 60.524H97.5458C97.4258 60.524 97.3658 60.452 97.3658 60.308ZM97.3658 70.784V62.036C97.3658 61.892 97.4258 61.82 97.5458 61.82H98.0678C98.1998 61.82 98.2658 61.892 98.2658 62.036V70.784C98.2658 70.928 98.2058 71 98.0858 71H97.5458C97.4258 71 97.3658 70.928 97.3658 70.784ZM104.025 71H100.893C100.761 71 100.695 70.934 100.695 70.802V70.388C100.695 70.268 100.761 70.208 100.893 70.208H103.935C105.015 70.208 105.555 69.788 105.555 68.948V68.516C105.555 67.736 105.219 67.226 104.547 66.986L102.297 66.122C101.685 65.882 101.247 65.6 100.983 65.276C100.731 64.952 100.605 64.502 100.605 63.926C100.605 62.522 101.379 61.82 102.927 61.82H105.843C105.975 61.82 106.041 61.886 106.041 62.018V62.432C106.041 62.552 105.975 62.612 105.843 62.612H103.017C102.525 62.612 102.153 62.72 101.901 62.936C101.661 63.152 101.541 63.404 101.541 63.692V64.106C101.541 64.442 101.631 64.706 101.811 64.898C102.003 65.09 102.291 65.252 102.675 65.384L104.925 66.284C105.549 66.488 105.963 66.794 106.167 67.202C106.383 67.598 106.491 68.156 106.491 68.876C106.491 69.596 106.287 70.13 105.879 70.478C105.483 70.826 104.865 71 104.025 71ZM112.695 71H111.147C110.367 71 109.749 70.772 109.293 70.316C108.849 69.86 108.627 69.236 108.627 68.444V64.376C108.627 63.584 108.849 62.96 109.293 62.504C109.749 62.048 110.367 61.82 111.147 61.82H112.695C113.475 61.82 114.093 62.048 114.549 62.504C115.005 62.96 115.233 63.584 115.233 64.376V68.444C115.233 69.236 115.005 69.86 114.549 70.316C114.093 70.772 113.475 71 112.695 71ZM111.219 70.19H112.623C113.175 70.19 113.595 70.04 113.883 69.74C114.183 69.428 114.333 68.99 114.333 68.426V64.394C114.333 63.83 114.183 63.398 113.883 63.098C113.595 62.786 113.175 62.63 112.623 62.63H111.219C110.667 62.63 110.247 62.786 109.959 63.098C109.671 63.398 109.527 63.83 109.527 64.394V68.426C109.527 68.99 109.671 69.428 109.959 69.74C110.247 70.04 110.667 70.19 111.219 70.19ZM118.439 71H117.917C117.797 71 117.737 70.928 117.737 70.784V62.036C117.737 61.892 117.797 61.82 117.917 61.82H118.439C118.571 61.82 118.637 61.892 118.637 62.036V62.792H118.709C118.841 62.54 119.075 62.318 119.411 62.126C119.747 61.922 120.161 61.82 120.653 61.82H121.355C121.487 61.82 121.553 61.886 121.553 62.018V62.45C121.553 62.582 121.487 62.642 121.355 62.63H120.509C119.921 62.63 119.459 62.81 119.123 63.17C118.799 63.53 118.637 64.016 118.637 64.628V70.784C118.637 70.928 118.571 71 118.439 71ZM123.811 73.736H123.145C123.013 73.736 122.947 73.67 122.947 73.538V73.106C122.947 72.974 123.013 72.908 123.145 72.908H123.631C123.991 72.908 124.297 72.854 124.549 72.746C124.801 72.65 125.023 72.464 125.215 72.188C125.407 71.912 125.533 71.696 125.593 71.54C125.761 71.168 125.899 70.826 126.007 70.514H125.665C125.533 70.514 125.449 70.442 125.413 70.298L122.551 62.036C122.503 61.892 122.551 61.82 122.695 61.82H123.253C123.373 61.82 123.451 61.892 123.487 62.036L126.133 69.758H126.205L128.851 62.036C128.887 61.892 128.965 61.82 129.085 61.82H129.625C129.769 61.82 129.823 61.892 129.787 62.036C127.639 68.324 126.517 71.576 126.421 71.792C126.337 72.008 126.175 72.302 125.935 72.674C125.479 73.382 124.771 73.736 123.811 73.736ZM140.328 71H138.78C138 71 137.382 70.772 136.926 70.316C136.482 69.86 136.26 69.236 136.26 68.444V64.376C136.26 63.584 136.482 62.96 136.926 62.504C137.382 62.048 138 61.82 138.78 61.82H140.328C141.108 61.82 141.726 62.048 142.182 62.504C142.638 62.96 142.866 63.584 142.866 64.376V68.444C142.866 69.236 142.638 69.86 142.182 70.316C141.726 70.772 141.108 71 140.328 71ZM138.852 70.19H140.256C140.808 70.19 141.228 70.04 141.516 69.74C141.816 69.428 141.966 68.99 141.966 68.426V64.394C141.966 63.83 141.816 63.398 141.516 63.098C141.228 62.786 140.808 62.63 140.256 62.63H138.852C138.3 62.63 137.88 62.786 137.592 63.098C137.304 63.398 137.16 63.83 137.16 64.394V68.426C137.16 68.99 137.304 69.428 137.592 69.74C137.88 70.04 138.3 70.19 138.852 70.19ZM146.072 71H145.55C145.43 71 145.37 70.928 145.37 70.784V62.036C145.37 61.892 145.43 61.82 145.55 61.82H146.072C146.204 61.82 146.27 61.892 146.27 62.036V62.756H146.342C146.678 62.132 147.302 61.82 148.214 61.82H149.402C150.17 61.82 150.776 62.048 151.22 62.504C151.664 62.96 151.886 63.584 151.886 64.376V70.784C151.886 70.928 151.826 71 151.706 71H151.184C151.052 71 150.986 70.928 150.986 70.784V64.412C150.986 63.848 150.842 63.41 150.554 63.098C150.266 62.786 149.846 62.63 149.294 62.63H148.124C147.548 62.63 147.092 62.786 146.756 63.098C146.432 63.398 146.27 63.83 146.27 64.394V70.784C146.27 70.928 146.204 71 146.072 71ZM163.773 71H161.811C161.031 71 160.413 70.772 159.957 70.316C159.513 69.86 159.291 69.236 159.291 68.444V61.982C159.291 61.19 159.513 60.566 159.957 60.11C160.413 59.654 161.031 59.426 161.811 59.426H163.773C164.553 59.426 165.171 59.654 165.627 60.11C166.083 60.566 166.311 61.19 166.311 61.982V62.792C166.311 62.936 166.245 63.008 166.113 63.008H165.591C165.459 63.008 165.393 62.936 165.393 62.792V62.018C165.393 61.442 165.249 61.004 164.961 60.704C164.673 60.392 164.253 60.236 163.701 60.236H161.883C161.331 60.236 160.911 60.392 160.623 60.704C160.335 61.016 160.191 61.454 160.191 62.018V68.408C160.191 68.972 160.335 69.41 160.623 69.722C160.911 70.034 161.331 70.19 161.883 70.19H163.701C164.253 70.19 164.673 70.04 164.961 69.74C165.249 69.428 165.393 68.984 165.393 68.408V66.032C165.393 65.924 165.339 65.87 165.231 65.87H163.161C163.029 65.87 162.963 65.804 162.963 65.672V65.258C162.963 65.126 163.029 65.06 163.161 65.06H165.969C166.197 65.06 166.311 65.18 166.311 65.42V68.444C166.311 69.236 166.083 69.86 165.627 70.316C165.171 70.772 164.553 71 163.773 71ZM169.787 71H169.265C169.145 71 169.085 70.928 169.085 70.784V58.562C169.085 58.418 169.145 58.346 169.265 58.346H169.787C169.919 58.346 169.985 58.418 169.985 58.562V70.784C169.985 70.928 169.919 71 169.787 71ZM176.662 71H175.114C174.334 71 173.716 70.772 173.26 70.316C172.816 69.86 172.594 69.236 172.594 68.444V64.376C172.594 63.584 172.816 62.96 173.26 62.504C173.716 62.048 174.334 61.82 175.114 61.82H176.662C177.442 61.82 178.06 62.048 178.516 62.504C178.972 62.96 179.2 63.584 179.2 64.376V68.444C179.2 69.236 178.972 69.86 178.516 70.316C178.06 70.772 177.442 71 176.662 71ZM175.186 70.19H176.59C177.142 70.19 177.562 70.04 177.85 69.74C178.15 69.428 178.3 68.99 178.3 68.426V64.394C178.3 63.83 178.15 63.398 177.85 63.098C177.562 62.786 177.142 62.63 176.59 62.63H175.186C174.634 62.63 174.214 62.786 173.926 63.098C173.638 63.398 173.494 63.83 173.494 64.394V68.426C173.494 68.99 173.638 69.428 173.926 69.74C174.214 70.04 174.634 70.19 175.186 70.19ZM182.784 70.19H185.646C186.198 70.19 186.618 70.04 186.906 69.74C187.206 69.428 187.356 68.984 187.356 68.408V64.25C187.356 63.686 187.206 63.254 186.906 62.954C186.618 62.642 186.198 62.486 185.646 62.486H184.458C183.882 62.486 183.426 62.642 183.09 62.954C182.766 63.254 182.604 63.686 182.604 64.25V70.028C182.604 70.136 182.664 70.19 182.784 70.19ZM181.704 70.784V58.562C181.704 58.418 181.764 58.346 181.884 58.346H182.406C182.538 58.346 182.604 58.418 182.604 58.562V62.612H182.676C183.012 61.988 183.636 61.676 184.548 61.676H185.736C186.516 61.676 187.128 61.904 187.572 62.36C188.028 62.816 188.256 63.434 188.256 64.214V68.444C188.256 69.236 188.028 69.86 187.572 70.316C187.128 70.772 186.516 71 185.736 71H181.884C181.764 71 181.704 70.928 181.704 70.784ZM194.266 71H193.114C192.334 71 191.716 70.772 191.26 70.316C190.816 69.86 190.594 69.236 190.594 68.444V64.376C190.594 63.584 190.816 62.96 191.26 62.504C191.716 62.048 192.334 61.82 193.114 61.82H196.93C197.05 61.82 197.11 61.892 197.11 62.036V70.784C197.11 70.928 197.05 71 196.93 71H196.408C196.276 71 196.21 70.928 196.21 70.784V70.064H196.138C195.826 70.688 195.202 71 194.266 71ZM196.21 68.426V62.792C196.21 62.684 196.15 62.63 196.03 62.63H193.186C192.634 62.63 192.214 62.786 191.926 63.098C191.638 63.41 191.494 63.848 191.494 64.412V68.408C191.494 68.972 191.638 69.41 191.926 69.722C192.214 70.034 192.634 70.19 193.186 70.19H194.356C194.932 70.19 195.382 70.04 195.706 69.74C196.042 69.428 196.21 68.99 196.21 68.426ZM200.601 71H200.079C199.959 71 199.899 70.928 199.899 70.784V58.562C199.899 58.418 199.959 58.346 200.079 58.346H200.601C200.733 58.346 200.799 58.418 200.799 58.562V70.784C200.799 70.928 200.733 71 200.601 71ZM0.458 91.444V90.796C0.458 90.664 0.524 90.598 0.656 90.598H1.178C1.31 90.598 1.376 90.664 1.376 90.796V91.39C1.376 92.59 1.958 93.19 3.122 93.19H4.994C6.158 93.19 6.74 92.584 6.74 91.372V90.616C6.74 90.088 6.524 89.674 6.092 89.374C5.66 89.074 5.138 88.858 4.526 88.726C3.914 88.594 3.296 88.456 2.672 88.312C2.06 88.168 1.538 87.904 1.106 87.52C0.674 87.136 0.458 86.62 0.458 85.972V84.982C0.458 84.19 0.686 83.566 1.142 83.11C1.598 82.654 2.216 82.426 2.996 82.426H5.084C5.864 82.426 6.482 82.654 6.938 83.11C7.394 83.566 7.622 84.19 7.622 84.982V85.486C7.622 85.618 7.556 85.684 7.424 85.684H6.902C6.77 85.684 6.704 85.618 6.704 85.486V85.036C6.704 83.836 6.122 83.236 4.958 83.236H3.104C1.952 83.236 1.376 83.848 1.376 85.072V85.972C1.376 86.8 2.114 87.358 3.59 87.646C4.202 87.766 4.814 87.904 5.426 88.06C6.05 88.216 6.578 88.498 7.01 88.906C7.442 89.314 7.658 89.866 7.658 90.562V91.444C7.658 92.236 7.43 92.86 6.974 93.316C6.518 93.772 5.9 94 5.12 94H2.996C2.216 94 1.598 93.772 1.142 93.316C0.686 92.86 0.458 92.236 0.458 91.444ZM14.0394 94H12.8514C12.0834 94 11.4774 93.772 11.0334 93.316C10.5894 92.86 10.3674 92.236 10.3674 91.444V85.036C10.3674 84.892 10.4274 84.82 10.5474 84.82H11.0694C11.2014 84.82 11.2674 84.892 11.2674 85.036V91.408C11.2674 91.972 11.4114 92.41 11.6994 92.722C11.9874 93.034 12.4074 93.19 12.9594 93.19H14.1294C14.7054 93.19 15.1554 93.04 15.4794 92.74C15.8154 92.428 15.9834 91.99 15.9834 91.426V85.036C15.9834 84.892 16.0494 84.82 16.1814 84.82H16.7034C16.8234 84.82 16.8834 84.892 16.8834 85.036V93.784C16.8834 93.928 16.8234 94 16.7034 94H16.1814C16.0494 94 15.9834 93.928 15.9834 93.784V93.064H15.9114C15.5994 93.688 14.9754 94 14.0394 94ZM22.5505 94H19.4185C19.2865 94 19.2205 93.934 19.2205 93.802V93.388C19.2205 93.268 19.2865 93.208 19.4185 93.208H22.4605C23.5405 93.208 24.0805 92.788 24.0805 91.948V91.516C24.0805 90.736 23.7445 90.226 23.0725 89.986L20.8225 89.122C20.2105 88.882 19.7725 88.6 19.5085 88.276C19.2565 87.952 19.1305 87.502 19.1305 86.926C19.1305 85.522 19.9045 84.82 21.4525 84.82H24.3685C24.5005 84.82 24.5665 84.886 24.5665 85.018V85.432C24.5665 85.552 24.5005 85.612 24.3685 85.612H21.5425C21.0505 85.612 20.6785 85.72 20.4265 85.936C20.1865 86.152 20.0665 86.404 20.0665 86.692V87.106C20.0665 87.442 20.1565 87.706 20.3365 87.898C20.5285 88.09 20.8165 88.252 21.2005 88.384L23.4505 89.284C24.0745 89.488 24.4885 89.794 24.6925 90.202C24.9085 90.598 25.0165 91.156 25.0165 91.876C25.0165 92.596 24.8125 93.13 24.4045 93.478C24.0085 93.826 23.3905 94 22.5505 94ZM27.7284 85.63H26.6304C26.4984 85.63 26.4324 85.57 26.4324 85.45V85.018C26.4324 84.886 26.4984 84.82 26.6304 84.82H27.7284C27.8364 84.82 27.8904 84.766 27.8904 84.658V83.2C27.8904 83.056 27.9564 82.984 28.0884 82.984H28.6104C28.7424 82.984 28.8084 83.056 28.8084 83.2V84.658C28.8084 84.766 28.8624 84.82 28.9704 84.82H31.1124C31.2444 84.82 31.3104 84.886 31.3104 85.018V85.45C31.3104 85.57 31.2444 85.63 31.1124 85.63H28.9704C28.8624 85.63 28.8084 85.684 28.8084 85.792V91.462C28.8084 92.014 28.9644 92.44 29.2764 92.74C29.5884 93.04 30.0264 93.19 30.5904 93.19H31.2924C31.4244 93.19 31.4904 93.256 31.4904 93.388V93.802C31.4904 93.934 31.4244 94 31.2924 94H30.5184C29.7264 94 29.0904 93.778 28.6104 93.334C28.1304 92.89 27.8904 92.278 27.8904 91.498V85.792C27.8904 85.684 27.8364 85.63 27.7284 85.63ZM37.0647 94H35.9127C35.1327 94 34.5147 93.772 34.0587 93.316C33.6147 92.86 33.3927 92.236 33.3927 91.444V87.376C33.3927 86.584 33.6147 85.96 34.0587 85.504C34.5147 85.048 35.1327 84.82 35.9127 84.82H39.7287C39.8487 84.82 39.9087 84.892 39.9087 85.036V93.784C39.9087 93.928 39.8487 94 39.7287 94H39.2067C39.0747 94 39.0087 93.928 39.0087 93.784V93.064H38.9367C38.6247 93.688 38.0007 94 37.0647 94ZM39.0087 91.426V85.792C39.0087 85.684 38.9487 85.63 38.8287 85.63H35.9847C35.4327 85.63 35.0127 85.786 34.7247 86.098C34.4367 86.41 34.2927 86.848 34.2927 87.412V91.408C34.2927 91.972 34.4367 92.41 34.7247 92.722C35.0127 93.034 35.4327 93.19 35.9847 93.19H37.1547C37.7307 93.19 38.1807 93.04 38.5047 92.74C38.8407 92.428 39.0087 91.99 39.0087 91.426ZM42.6978 83.308V81.58C42.6978 81.448 42.7578 81.382 42.8778 81.382H43.4178C43.5378 81.382 43.5978 81.448 43.5978 81.58V83.308C43.5978 83.452 43.5378 83.524 43.4178 83.524H42.8778C42.7578 83.524 42.6978 83.452 42.6978 83.308ZM42.6978 93.784V85.036C42.6978 84.892 42.7578 84.82 42.8778 84.82H43.3998C43.5318 84.82 43.5978 84.892 43.5978 85.036V93.784C43.5978 93.928 43.5378 94 43.4178 94H42.8778C42.7578 94 42.6978 93.928 42.6978 93.784ZM47.0891 94H46.5671C46.4471 94 46.3871 93.928 46.3871 93.784V85.036C46.3871 84.892 46.4471 84.82 46.5671 84.82H47.0891C47.2211 84.82 47.2871 84.892 47.2871 85.036V85.756H47.3591C47.6951 85.132 48.3191 84.82 49.2311 84.82H50.4191C51.1871 84.82 51.7931 85.048 52.2371 85.504C52.6811 85.96 52.9031 86.584 52.9031 87.376V93.784C52.9031 93.928 52.8431 94 52.7231 94H52.2011C52.0691 94 52.0031 93.928 52.0031 93.784V87.412C52.0031 86.848 51.8591 86.41 51.5711 86.098C51.2831 85.786 50.8631 85.63 50.3111 85.63H49.1411C48.5651 85.63 48.1091 85.786 47.7731 86.098C47.4491 86.398 47.2871 86.83 47.2871 87.394V93.784C47.2871 93.928 47.2211 94 47.0891 94ZM59.0022 94H57.8502C57.0702 94 56.4522 93.772 55.9962 93.316C55.5522 92.86 55.3302 92.236 55.3302 91.444V87.376C55.3302 86.584 55.5522 85.96 55.9962 85.504C56.4522 85.048 57.0702 84.82 57.8502 84.82H61.6662C61.7862 84.82 61.8462 84.892 61.8462 85.036V93.784C61.8462 93.928 61.7862 94 61.6662 94H61.1442C61.0122 94 60.9462 93.928 60.9462 93.784V93.064H60.8742C60.5622 93.688 59.9382 94 59.0022 94ZM60.9462 91.426V85.792C60.9462 85.684 60.8862 85.63 60.7662 85.63H57.9222C57.3702 85.63 56.9502 85.786 56.6622 86.098C56.3742 86.41 56.2302 86.848 56.2302 87.412V91.408C56.2302 91.972 56.3742 92.41 56.6622 92.722C56.9502 93.034 57.3702 93.19 57.9222 93.19H59.0922C59.6682 93.19 60.1182 93.04 60.4422 92.74C60.7782 92.428 60.9462 91.99 60.9462 91.426ZM65.6253 93.19H68.4873C69.0393 93.19 69.4593 93.04 69.7473 92.74C70.0473 92.428 70.1973 91.984 70.1973 91.408V87.25C70.1973 86.686 70.0473 86.254 69.7473 85.954C69.4593 85.642 69.0393 85.486 68.4873 85.486H67.2993C66.7233 85.486 66.2673 85.642 65.9313 85.954C65.6073 86.254 65.4453 86.686 65.4453 87.25V93.028C65.4453 93.136 65.5053 93.19 65.6253 93.19ZM64.5453 93.784V81.562C64.5453 81.418 64.6053 81.346 64.7253 81.346H65.2473C65.3793 81.346 65.4453 81.418 65.4453 81.562V85.612H65.5173C65.8533 84.988 66.4773 84.676 67.3893 84.676H68.5773C69.3573 84.676 69.9693 84.904 70.4133 85.36C70.8693 85.816 71.0973 86.434 71.0973 87.214V91.444C71.0973 92.236 70.8693 92.86 70.4133 93.316C69.9693 93.772 69.3573 94 68.5773 94H64.7253C64.6053 94 64.5453 93.928 64.5453 93.784ZM73.7056 83.308V81.58C73.7056 81.448 73.7656 81.382 73.8856 81.382H74.4256C74.5456 81.382 74.6056 81.448 74.6056 81.58V83.308C74.6056 83.452 74.5456 83.524 74.4256 83.524H73.8856C73.7656 83.524 73.7056 83.452 73.7056 83.308ZM73.7056 93.784V85.036C73.7056 84.892 73.7656 84.82 73.8856 84.82H74.4076C74.5396 84.82 74.6056 84.892 74.6056 85.036V93.784C74.6056 93.928 74.5456 94 74.4256 94H73.8856C73.7656 94 73.7056 93.928 73.7056 93.784ZM78.1869 94H77.6649C77.5449 94 77.4849 93.928 77.4849 93.784V81.562C77.4849 81.418 77.5449 81.346 77.6649 81.346H78.1869C78.3189 81.346 78.3849 81.418 78.3849 81.562V93.784C78.3849 93.928 78.3189 94 78.1869 94ZM81.2642 83.308V81.58C81.2642 81.448 81.3242 81.382 81.4442 81.382H81.9842C82.1042 81.382 82.1642 81.448 82.1642 81.58V83.308C82.1642 83.452 82.1042 83.524 81.9842 83.524H81.4442C81.3242 83.524 81.2642 83.452 81.2642 83.308ZM81.2642 93.784V85.036C81.2642 84.892 81.3242 84.82 81.4442 84.82H81.9662C82.0982 84.82 82.1642 84.892 82.1642 85.036V93.784C82.1642 93.928 82.1042 94 81.9842 94H81.4442C81.3242 94 81.2642 93.928 81.2642 93.784ZM85.3495 85.63H84.2515C84.1195 85.63 84.0535 85.57 84.0535 85.45V85.018C84.0535 84.886 84.1195 84.82 84.2515 84.82H85.3495C85.4575 84.82 85.5115 84.766 85.5115 84.658V83.2C85.5115 83.056 85.5775 82.984 85.7095 82.984H86.2315C86.3635 82.984 86.4295 83.056 86.4295 83.2V84.658C86.4295 84.766 86.4835 84.82 86.5915 84.82H88.7335C88.8655 84.82 88.9315 84.886 88.9315 85.018V85.45C88.9315 85.57 88.8655 85.63 88.7335 85.63H86.5915C86.4835 85.63 86.4295 85.684 86.4295 85.792V91.462C86.4295 92.014 86.5855 92.44 86.8975 92.74C87.2095 93.04 87.6475 93.19 88.2115 93.19H88.9135C89.0455 93.19 89.1115 93.256 89.1115 93.388V93.802C89.1115 93.934 89.0455 94 88.9135 94H88.1395C87.3475 94 86.7115 93.778 86.2315 93.334C85.7515 92.89 85.5115 92.278 85.5115 91.498V85.792C85.5115 85.684 85.4575 85.63 85.3495 85.63ZM91.6258 96.736H90.9598C90.8278 96.736 90.7618 96.67 90.7618 96.538V96.106C90.7618 95.974 90.8278 95.908 90.9598 95.908H91.4458C91.8058 95.908 92.1118 95.854 92.3638 95.746C92.6158 95.65 92.8378 95.464 93.0298 95.188C93.2218 94.912 93.3478 94.696 93.4078 94.54C93.5758 94.168 93.7138 93.826 93.8218 93.514H93.4798C93.3478 93.514 93.2638 93.442 93.2278 93.298L90.3658 85.036C90.3178 84.892 90.3658 84.82 90.5098 84.82H91.0678C91.1878 84.82 91.2658 84.892 91.3018 85.036L93.9478 92.758H94.0198L96.6658 85.036C96.7018 84.892 96.7798 84.82 96.8998 84.82H97.4398C97.5838 84.82 97.6378 84.892 97.6018 85.036C95.4538 91.324 94.3318 94.576 94.2358 94.792C94.1518 95.008 93.9898 95.302 93.7498 95.674C93.2938 96.382 92.5858 96.736 91.6258 96.736Z" fill="#5A5A5A"/>
</svg>
