<svg width="223" height="94" viewBox="0 0 223 94" fill="none" xmlns="http://www.w3.org/2000/svg">
<path d="M3.168 17H0.864C0.576 17 0.48 16.832 0.576 16.496L4.368 2.072C4.48 1.736 4.72 1.568 5.088 1.568H8.28C8.68 1.568 8.92 1.736 9 2.072L12.792 16.496C12.888 16.832 12.792 17 12.504 17H10.2C10.024 17 9.904 16.968 9.84 16.904C9.776 16.824 9.728 16.688 9.696 16.496L9.024 13.856H4.344L3.672 16.496C3.64 16.688 3.584 16.824 3.504 16.904C3.44 16.968 3.328 17 3.168 17ZM6.648 4.472L4.92 11.408H8.472L6.744 4.472H6.648ZM17.3434 17H15.3034C14.9674 17 14.7994 16.832 14.7994 16.496V0.631999C14.7994 0.296 14.9674 0.128 15.3034 0.128H17.3434C17.6794 0.128 17.8474 0.296 17.8474 0.631999V16.496C17.8474 16.832 17.6794 17 17.3434 17ZM29.6331 17H24.3291C23.0651 17 22.0891 16.664 21.4011 15.992C20.7131 15.32 20.3691 14.352 20.3691 13.088V8.672C20.3691 7.408 20.7131 6.44 21.4011 5.768C22.0891 5.096 23.0651 4.76 24.3291 4.76H26.2251C27.4891 4.76 28.4651 5.096 29.1531 5.768C29.8411 6.44 30.1851 7.408 30.1851 8.672V11.72C30.1851 12.056 30.0171 12.224 29.6811 12.224H23.6571C23.4651 12.224 23.3691 12.312 23.3691 12.488V13.016C23.3691 13.512 23.4731 13.872 23.6811 14.096C23.9051 14.304 24.2731 14.408 24.7851 14.408H29.6331C29.9691 14.408 30.1371 14.584 30.1371 14.936V16.52C30.1371 16.696 30.0971 16.824 30.0171 16.904C29.9531 16.968 29.8251 17 29.6331 17ZM23.6571 10.184H26.9211C27.0971 10.184 27.1851 10.096 27.1851 9.92V8.768C27.1851 8.256 27.0811 7.896 26.8731 7.688C26.6651 7.48 26.3051 7.376 25.7931 7.376H24.7851C24.2731 7.376 23.9131 7.48 23.7051 7.688C23.4971 7.896 23.3931 8.256 23.3931 8.768V9.92C23.3931 10.096 23.4811 10.184 23.6571 10.184ZM34.4364 17H32.0124C31.5964 17 31.4844 16.832 31.6764 16.496L34.7004 10.76L31.6764 5.264C31.5164 4.928 31.6124 4.76 31.9644 4.76H34.4124C34.7964 4.76 35.0444 4.928 35.1564 5.264L36.6684 8.912H36.7644L38.0844 5.264C38.1964 4.928 38.4444 4.76 38.8284 4.76H41.2284C41.6444 4.76 41.7484 4.928 41.5404 5.264L38.6604 10.76L41.7564 16.496C41.8364 16.64 41.8444 16.76 41.7804 16.856C41.7324 16.952 41.6284 17 41.4684 17H38.9964C38.6604 17 38.4204 16.832 38.2764 16.496L36.7644 12.824H36.6684L35.1564 16.496C35.0444 16.832 34.8044 17 34.4364 17ZM55.4038 17H52.7878C51.5238 17 50.5478 16.664 49.8598 15.992C49.1718 15.32 48.8278 14.352 48.8278 13.088V5.48C48.8278 4.216 49.1718 3.248 49.8598 2.576C50.5478 1.904 51.5238 1.568 52.7878 1.568H55.4038C56.6518 1.568 57.6198 1.912 58.3078 2.6C59.0118 3.272 59.3638 4.232 59.3638 5.48V6.608C59.3638 6.96 59.1878 7.136 58.8358 7.136H56.8198C56.4838 7.136 56.3158 6.96 56.3158 6.608V5.624C56.3158 5.112 56.2038 4.752 55.9798 4.544C55.7718 4.32 55.4118 4.208 54.8998 4.208H53.2678C52.7718 4.208 52.4118 4.32 52.1878 4.544C51.9798 4.752 51.8758 5.112 51.8758 5.624V12.944C51.8758 13.456 51.9798 13.824 52.1878 14.048C52.4118 14.256 52.7718 14.36 53.2678 14.36H54.8998C55.4118 14.36 55.7718 14.256 55.9798 14.048C56.2038 13.824 56.3158 13.456 56.3158 12.944V11.96C56.3158 11.608 56.4838 11.432 56.8198 11.432H58.8358C59.1878 11.432 59.3638 11.608 59.3638 11.96V13.088C59.3638 14.336 59.0118 15.304 58.3078 15.992C57.6198 16.664 56.6518 17 55.4038 17ZM64.2859 17H62.2459C61.9099 17 61.7419 16.832 61.7419 16.496V0.631999C61.7419 0.296 61.9099 0.128 62.2459 0.128H64.2859C64.6219 0.128 64.7899 0.296 64.7899 0.631999V6.056H64.8859C65.2379 5.192 66.0219 4.76 67.2379 4.76H68.0059C70.5179 4.76 71.7739 6.064 71.7739 8.672V16.496C71.7739 16.832 71.5979 17 71.2459 17H69.2299C68.8939 17 68.7259 16.832 68.7259 16.496V8.816C68.7259 8.304 68.6139 7.944 68.3899 7.736C68.1819 7.512 67.8219 7.4 67.3099 7.4H66.4459C65.3419 7.4 64.7899 8.008 64.7899 9.224V16.496C64.7899 16.832 64.6219 17 64.2859 17ZM76.8484 17H74.8084C74.4724 17 74.3044 16.832 74.3044 16.496V5.264C74.3044 4.928 74.4724 4.76 74.8084 4.76H76.8484C77.1844 4.76 77.3524 4.928 77.3524 5.264V6.08H77.4484C77.6244 5.648 77.9364 5.32 78.3844 5.096C78.8324 4.872 79.3044 4.76 79.8004 4.76H80.6644C80.9844 4.76 81.1444 4.928 81.1444 5.264V6.92C81.1444 7.112 81.1044 7.248 81.0244 7.328C80.9604 7.392 80.8404 7.416 80.6644 7.4H79.0084C77.9044 7.4 77.3524 8.024 77.3524 9.272V16.496C77.3524 16.832 77.1844 17 76.8484 17ZM82.7916 2.696V0.607999C82.7916 0.288 82.9516 0.128 83.2716 0.128H85.3596C85.6796 0.128 85.8396 0.28 85.8396 0.584V2.696C85.8396 3.016 85.6796 3.176 85.3596 3.176H83.2716C82.9516 3.176 82.7916 3.016 82.7916 2.696ZM82.7916 16.496V5.264C82.7916 4.928 82.9516 4.76 83.2716 4.76H85.3356C85.6716 4.76 85.8396 4.928 85.8396 5.264V16.496C85.8396 16.704 85.7996 16.84 85.7196 16.904C85.6556 16.968 85.5356 17 85.3596 17H83.2956C82.9596 17 82.7916 16.832 82.7916 16.496ZM93.2333 17H88.6733C88.3533 17 88.1933 16.832 88.1933 16.496V14.96C88.1933 14.784 88.2253 14.664 88.2893 14.6C88.3533 14.52 88.4813 14.48 88.6733 14.48H92.6813C93.4653 14.48 93.8573 14.24 93.8573 13.76V13.64C93.8573 13.256 93.5293 12.888 92.8733 12.536L90.4973 11.216C89.6813 10.8 89.0813 10.352 88.6973 9.872C88.3133 9.392 88.1213 8.776 88.1213 8.024C88.1213 6.904 88.4173 6.08 89.0093 5.552C89.6013 5.024 90.5293 4.76 91.7933 4.76H95.8013C96.1213 4.76 96.2813 4.928 96.2813 5.264V6.824C96.2813 7 96.2493 7.128 96.1853 7.208C96.1213 7.272 95.9933 7.304 95.8013 7.304H92.4653C91.6813 7.304 91.2893 7.504 91.2893 7.904V8.024C91.2893 8.376 91.6333 8.736 92.3213 9.104L94.7453 10.544C95.5773 10.992 96.1613 11.456 96.4973 11.936C96.8333 12.4 97.0013 13.016 97.0013 13.784C97.0013 15.928 95.7453 17 93.2333 17ZM99.3887 7.4H98.4287C98.2367 7.4 98.1007 7.368 98.0207 7.304C97.9567 7.24 97.9247 7.112 97.9247 6.92V5.264C97.9247 4.928 98.0927 4.76 98.4287 4.76H99.3887C99.5647 4.76 99.6527 4.672 99.6527 4.496V2.216C99.6527 1.88 99.8287 1.712 100.181 1.712H102.197C102.533 1.712 102.701 1.88 102.701 2.216V4.496C102.701 4.672 102.797 4.76 102.989 4.76H104.861C105.197 4.76 105.365 4.928 105.365 5.264V6.92C105.365 7.096 105.325 7.224 105.245 7.304C105.181 7.368 105.053 7.4 104.861 7.4H102.989C102.797 7.4 102.701 7.488 102.701 7.664V12.968C102.701 13.464 102.813 13.824 103.037 14.048C103.261 14.256 103.629 14.36 104.141 14.36H105.101C105.437 14.36 105.605 14.528 105.605 14.864V16.52C105.605 16.696 105.565 16.824 105.485 16.904C105.421 16.968 105.293 17 105.101 17H103.637C102.373 17 101.389 16.664 100.685 15.992C99.9967 15.32 99.6527 14.36 99.6527 13.112V7.664C99.6527 7.488 99.5647 7.4 99.3887 7.4ZM113.442 17H111.306C110.042 17 109.066 16.664 108.378 15.992C107.69 15.32 107.346 14.352 107.346 13.088V8.672C107.346 7.408 107.69 6.44 108.378 5.768C109.066 5.096 110.042 4.76 111.306 4.76H113.442C114.69 4.76 115.658 5.104 116.346 5.792C117.05 6.464 117.402 7.424 117.402 8.672V13.088C117.402 14.336 117.05 15.304 116.346 15.992C115.658 16.664 114.69 17 113.442 17ZM111.762 14.384H112.986C113.498 14.384 113.858 14.28 114.066 14.072C114.29 13.864 114.402 13.504 114.402 12.992V8.768C114.402 8.256 114.29 7.896 114.066 7.688C113.858 7.48 113.498 7.376 112.986 7.376H111.762C111.25 7.376 110.89 7.48 110.682 7.688C110.474 7.896 110.37 8.256 110.37 8.768V12.992C110.37 13.504 110.474 13.864 110.682 14.072C110.89 14.28 111.25 14.384 111.762 14.384ZM122.341 20.264H120.301C119.965 20.264 119.797 20.104 119.797 19.784V5.264C119.797 4.928 119.965 4.76 120.301 4.76H122.341C122.677 4.76 122.845 4.928 122.845 5.264V6.056H122.941C123.117 5.624 123.429 5.304 123.877 5.096C124.325 4.872 124.797 4.76 125.293 4.76H126.277C127.509 4.76 128.437 5.096 129.061 5.768C129.701 6.44 130.021 7.408 130.021 8.672V13.088C130.021 14.352 129.701 15.32 129.061 15.992C128.437 16.664 127.509 17 126.277 17H125.293C124.797 17 124.325 16.896 123.877 16.688C123.429 16.464 123.117 16.136 122.941 15.704H122.845V19.784C122.845 20.104 122.677 20.264 122.341 20.264ZM124.501 14.36H125.557C126.069 14.36 126.429 14.256 126.637 14.048C126.861 13.824 126.973 13.456 126.973 12.944V8.816C126.973 8.304 126.861 7.944 126.637 7.736C126.429 7.512 126.069 7.4 125.557 7.4H124.501C123.397 7.4 122.845 8.008 122.845 9.224V12.536C122.845 13.752 123.397 14.36 124.501 14.36ZM134.973 17H132.933C132.597 17 132.429 16.832 132.429 16.496V0.631999C132.429 0.296 132.597 0.128 132.933 0.128H134.973C135.309 0.128 135.477 0.296 135.477 0.631999V6.056H135.573C135.925 5.192 136.709 4.76 137.925 4.76H138.693C141.205 4.76 142.461 6.064 142.461 8.672V16.496C142.461 16.832 142.285 17 141.933 17H139.917C139.581 17 139.413 16.832 139.413 16.496V8.816C139.413 8.304 139.301 7.944 139.077 7.736C138.869 7.512 138.509 7.4 137.997 7.4H137.133C136.029 7.4 135.477 8.008 135.477 9.224V16.496C135.477 16.832 135.309 17 134.973 17ZM154.016 17H148.712C147.448 17 146.472 16.664 145.784 15.992C145.096 15.32 144.752 14.352 144.752 13.088V8.672C144.752 7.408 145.096 6.44 145.784 5.768C146.472 5.096 147.448 4.76 148.712 4.76H150.608C151.872 4.76 152.848 5.096 153.536 5.768C154.224 6.44 154.568 7.408 154.568 8.672V11.72C154.568 12.056 154.4 12.224 154.064 12.224H148.04C147.848 12.224 147.752 12.312 147.752 12.488V13.016C147.752 13.512 147.856 13.872 148.064 14.096C148.288 14.304 148.656 14.408 149.168 14.408H154.016C154.352 14.408 154.52 14.584 154.52 14.936V16.52C154.52 16.696 154.48 16.824 154.4 16.904C154.336 16.968 154.208 17 154.016 17ZM148.04 10.184H151.304C151.48 10.184 151.568 10.096 151.568 9.92V8.768C151.568 8.256 151.464 7.896 151.256 7.688C151.048 7.48 150.688 7.376 150.176 7.376H149.168C148.656 7.376 148.296 7.48 148.088 7.688C147.88 7.896 147.776 8.256 147.776 8.768V9.92C147.776 10.096 147.864 10.184 148.04 10.184ZM159.395 17H157.355C157.019 17 156.851 16.832 156.851 16.496V5.264C156.851 4.928 157.019 4.76 157.355 4.76H159.395C159.731 4.76 159.899 4.928 159.899 5.264V6.08H159.995C160.171 5.648 160.483 5.32 160.931 5.096C161.379 4.872 161.851 4.76 162.347 4.76H163.211C163.531 4.76 163.691 4.928 163.691 5.264V6.92C163.691 7.112 163.651 7.248 163.571 7.328C163.507 7.392 163.387 7.416 163.211 7.4H161.555C160.451 7.4 159.899 8.024 159.899 9.272V16.496C159.899 16.832 159.731 17 159.395 17ZM1.176 44.064V43.584C1.176 43.248 1.344 43.08 1.68 43.08H3.72C4.056 43.08 4.224 43.248 4.224 43.584V43.776C4.224 44.384 4.344 44.8 4.584 45.024C4.824 45.248 5.264 45.36 5.904 45.36H7.032C7.656 45.36 8.088 45.24 8.328 45C8.584 44.76 8.712 44.312 8.712 43.656V43.368C8.712 42.904 8.52 42.552 8.136 42.312C7.768 42.056 7.304 41.904 6.744 41.856C6.184 41.808 5.576 41.72 4.92 41.592C4.28 41.448 3.68 41.272 3.12 41.064C2.56 40.84 2.088 40.416 1.704 39.792C1.336 39.152 1.152 38.336 1.152 37.344V36.504C1.152 35.256 1.504 34.288 2.208 33.6C2.912 32.912 3.888 32.568 5.136 32.568H7.536C8.8 32.568 9.784 32.912 10.488 33.6C11.192 34.288 11.544 35.256 11.544 36.504V36.96C11.544 37.296 11.376 37.464 11.04 37.464H9C8.664 37.464 8.496 37.296 8.496 36.96V36.816C8.496 36.192 8.376 35.768 8.136 35.544C7.896 35.32 7.456 35.208 6.816 35.208H5.88C5.224 35.208 4.776 35.336 4.536 35.592C4.312 35.832 4.2 36.312 4.2 37.032V37.488C4.2 38.24 4.856 38.672 6.168 38.784C7.528 38.896 8.736 39.168 9.792 39.6C10.352 39.84 10.816 40.272 11.184 40.896C11.568 41.504 11.76 42.288 11.76 43.248V44.064C11.76 45.312 11.408 46.28 10.704 46.968C10 47.656 9.024 48 7.776 48H5.16C3.912 48 2.936 47.656 2.232 46.968C1.528 46.28 1.176 45.312 1.176 44.064ZM18.6735 48H17.8815C16.6495 48 15.7135 47.664 15.0735 46.992C14.4495 46.32 14.1375 45.352 14.1375 44.088V36.264C14.1375 35.928 14.3055 35.76 14.6415 35.76H16.6815C17.0175 35.76 17.1855 35.928 17.1855 36.264V43.944C17.1855 44.456 17.2895 44.824 17.4975 45.048C17.7215 45.256 18.0815 45.36 18.5775 45.36H19.4655C20.5695 45.36 21.1215 44.752 21.1215 43.536V36.264C21.1215 35.928 21.2895 35.76 21.6255 35.76H23.6415C23.9935 35.76 24.1695 35.928 24.1695 36.264V47.496C24.1695 47.832 23.9935 48 23.6415 48H21.6255C21.2895 48 21.1215 47.832 21.1215 47.496V46.704H21.0255C20.8495 47.136 20.5375 47.464 20.0895 47.688C19.6415 47.896 19.1695 48 18.6735 48ZM30.132 45.36H32.58C33.092 45.36 33.452 45.256 33.66 45.048C33.884 44.824 33.996 44.456 33.996 43.944V39.768C33.996 39.256 33.884 38.896 33.66 38.688C33.452 38.464 33.092 38.352 32.58 38.352H31.524C30.42 38.352 29.868 38.96 29.868 40.176V45.096C29.868 45.272 29.956 45.36 30.132 45.36ZM26.82 47.496V31.632C26.82 31.296 26.988 31.128 27.324 31.128H29.364C29.7 31.128 29.868 31.296 29.868 31.632V37.032H29.964C30.14 36.6 30.452 36.272 30.9 36.048C31.348 35.824 31.82 35.712 32.316 35.712H33.084C34.348 35.712 35.324 36.048 36.012 36.72C36.7 37.392 37.044 38.36 37.044 39.624V44.088C37.044 45.352 36.7 46.32 36.012 46.992C35.324 47.664 34.348 48 33.084 48H27.324C26.988 48 26.82 47.832 26.82 47.496ZM39.5728 33.696V31.608C39.5728 31.288 39.7328 31.128 40.0528 31.128H42.1408C42.4608 31.128 42.6208 31.28 42.6208 31.584V33.696C42.6208 34.016 42.4608 34.176 42.1408 34.176H40.0528C39.7328 34.176 39.5728 34.016 39.5728 33.696ZM39.5728 47.496V36.264C39.5728 35.928 39.7328 35.76 40.0528 35.76H42.1168C42.4528 35.76 42.6208 35.928 42.6208 36.264V47.496C42.6208 47.704 42.5808 47.84 42.5008 47.904C42.4368 47.968 42.3168 48 42.1408 48H40.0768C39.7408 48 39.5728 47.832 39.5728 47.496ZM45.5025 33.696V31.608C45.5025 31.288 45.6625 31.128 45.9825 31.128H48.0705C48.3905 31.128 48.5505 31.28 48.5505 31.584V33.696C48.5505 34.016 48.3905 34.176 48.0705 34.176H45.9825C45.6625 34.176 45.5025 34.016 45.5025 33.696ZM44.5665 51.984H42.9585C42.6225 51.984 42.4545 51.816 42.4545 51.48V49.848C42.4545 49.512 42.6225 49.344 42.9585 49.344H43.6305C44.3505 49.344 44.8385 49.216 45.0945 48.96C45.3665 48.704 45.5025 48.216 45.5025 47.496V36.264C45.5025 35.928 45.6705 35.76 46.0065 35.76H48.0465C48.3825 35.76 48.5505 35.928 48.5505 36.264V48.048C48.5505 49.296 48.1985 50.264 47.4945 50.952C46.7905 51.64 45.8145 51.984 44.5665 51.984ZM55.6082 48H55.0322C53.7682 48 52.7922 47.664 52.1042 46.992C51.4162 46.32 51.0722 45.352 51.0722 44.088V39.672C51.0722 38.408 51.4162 37.44 52.1042 36.768C52.7922 36.096 53.7682 35.76 55.0322 35.76H60.5762C60.9282 35.76 61.1042 35.928 61.1042 36.264V47.496C61.1042 47.832 60.9282 48 60.5762 48H58.5602C58.2242 48 58.0562 47.832 58.0562 47.496V46.704H57.9602C57.7842 47.136 57.4722 47.464 57.0242 47.688C56.5762 47.896 56.1042 48 55.6082 48ZM58.0562 43.536V38.664C58.0562 38.488 57.9602 38.4 57.7682 38.4H55.5122C55.0002 38.4 54.6402 38.512 54.4322 38.736C54.2242 38.944 54.1202 39.304 54.1202 39.816V43.944C54.1202 44.456 54.2242 44.824 54.4322 45.048C54.6402 45.256 55.0002 45.36 55.5122 45.36H56.4002C57.5042 45.36 58.0562 44.752 58.0562 43.536ZM66.2781 48H64.2381C63.9021 48 63.7341 47.832 63.7341 47.496V36.264C63.7341 35.928 63.9021 35.76 64.2381 35.76H66.2781C66.6141 35.76 66.7821 35.928 66.7821 36.264V37.056H66.8781C67.2301 36.192 68.0141 35.76 69.2301 35.76H69.9981C72.5101 35.76 73.7661 37.064 73.7661 39.672V47.496C73.7661 47.832 73.5901 48 73.2381 48H71.2221C70.8861 48 70.7181 47.832 70.7181 47.496V39.816C70.7181 39.304 70.6061 38.944 70.3821 38.736C70.1741 38.512 69.8141 38.4 69.3021 38.4H68.4381C67.3341 38.4 66.7821 39.008 66.7821 40.224V47.496C66.7821 47.832 66.6141 48 66.2781 48ZM82.1526 48H80.0166C78.7526 48 77.7766 47.664 77.0886 46.992C76.4006 46.32 76.0566 45.352 76.0566 44.088V39.672C76.0566 38.408 76.4006 37.44 77.0886 36.768C77.7766 36.096 78.7526 35.76 80.0166 35.76H82.1526C83.4006 35.76 84.3686 36.104 85.0566 36.792C85.7606 37.464 86.1126 38.424 86.1126 39.672V44.088C86.1126 45.336 85.7606 46.304 85.0566 46.992C84.3686 47.664 83.4006 48 82.1526 48ZM80.4726 45.384H81.6966C82.2086 45.384 82.5686 45.28 82.7766 45.072C83.0006 44.864 83.1126 44.504 83.1126 43.992V39.768C83.1126 39.256 83.0006 38.896 82.7766 38.688C82.5686 38.48 82.2086 38.376 81.6966 38.376H80.4726C79.9606 38.376 79.6006 38.48 79.3926 38.688C79.1846 38.896 79.0806 39.256 79.0806 39.768V43.992C79.0806 44.504 79.1846 44.864 79.3926 45.072C79.6006 45.28 79.9606 45.384 80.4726 45.384ZM2.61 70.19H6.066C6.618 70.19 7.038 70.04 7.326 69.74C7.626 69.428 7.776 68.984 7.776 68.408V62.018C7.776 61.442 7.626 61.004 7.326 60.704C7.038 60.392 6.618 60.236 6.066 60.236H2.61C2.49 60.236 2.43 60.29 2.43 60.398V70.028C2.43 70.136 2.49 70.19 2.61 70.19ZM1.53 70.784V59.642C1.53 59.498 1.59 59.426 1.71 59.426H6.156C6.936 59.426 7.548 59.654 7.992 60.11C8.448 60.566 8.676 61.19 8.676 61.982V68.444C8.676 69.236 8.448 69.86 7.992 70.316C7.548 70.772 6.936 71 6.156 71H1.71C1.59 71 1.53 70.928 1.53 70.784ZM11.4595 60.308V58.58C11.4595 58.448 11.5195 58.382 11.6395 58.382H12.1795C12.2995 58.382 12.3595 58.448 12.3595 58.58V60.308C12.3595 60.452 12.2995 60.524 12.1795 60.524H11.6395C11.5195 60.524 11.4595 60.452 11.4595 60.308ZM11.4595 70.784V62.036C11.4595 61.892 11.5195 61.82 11.6395 61.82H12.1615C12.2935 61.82 12.3595 61.892 12.3595 62.036V70.784C12.3595 70.928 12.2995 71 12.1795 71H11.6395C11.5195 71 11.4595 70.928 11.4595 70.784ZM15.8508 71H15.3288C15.2088 71 15.1488 70.928 15.1488 70.784V62.036C15.1488 61.892 15.2088 61.82 15.3288 61.82H15.8508C15.9828 61.82 16.0488 61.892 16.0488 62.036V62.792H16.1208C16.2528 62.54 16.4868 62.318 16.8228 62.126C17.1588 61.922 17.5728 61.82 18.0648 61.82H18.7668C18.8988 61.82 18.9648 61.886 18.9648 62.018V62.45C18.9648 62.582 18.8988 62.642 18.7668 62.63H17.9208C17.3328 62.63 16.8708 62.81 16.5348 63.17C16.2108 63.53 16.0488 64.016 16.0488 64.628V70.784C16.0488 70.928 15.9828 71 15.8508 71ZM26.8934 71H23.1314C22.3514 71 21.7334 70.772 21.2774 70.316C20.8334 69.86 20.6114 69.236 20.6114 68.444V64.376C20.6114 63.584 20.8334 62.96 21.2774 62.504C21.7334 62.048 22.3514 61.82 23.1314 61.82H24.6794C25.4594 61.82 26.0774 62.048 26.5334 62.504C26.9894 62.96 27.2174 63.584 27.2174 64.376V66.662C27.2174 66.806 27.1454 66.878 27.0014 66.878H21.6734C21.5654 66.878 21.5114 66.932 21.5114 67.04V68.426C21.5114 68.99 21.6554 69.428 21.9434 69.74C22.2314 70.04 22.6514 70.19 23.2034 70.19H26.8934C27.0254 70.19 27.0914 70.256 27.0914 70.388V70.802C27.0914 70.934 27.0254 71 26.8934 71ZM21.6734 66.158H26.1554C26.2634 66.158 26.3174 66.104 26.3174 65.996V64.394C26.3174 63.83 26.1734 63.398 25.8854 63.098C25.5974 62.786 25.1774 62.63 24.6254 62.63H23.2034C22.6514 62.63 22.2314 62.786 21.9434 63.098C21.6554 63.398 21.5114 63.83 21.5114 64.394V65.996C21.5114 66.104 21.5654 66.158 21.6734 66.158ZM34.7808 70.388V70.802C34.7808 70.934 34.7148 71 34.5828 71H31.9908C31.2108 71 30.5928 70.772 30.1368 70.316C29.6928 69.86 29.4708 69.236 29.4708 68.444V64.376C29.4708 63.584 29.6928 62.96 30.1368 62.504C30.5928 62.048 31.2108 61.82 31.9908 61.82H34.5828C34.7148 61.82 34.7808 61.886 34.7808 62.018V62.45C34.7808 62.57 34.7148 62.63 34.5828 62.63H32.0628C31.5108 62.63 31.0908 62.786 30.8028 63.098C30.5148 63.41 30.3708 63.848 30.3708 64.412V68.408C30.3708 68.972 30.5148 69.41 30.8028 69.722C31.0908 70.034 31.5108 70.19 32.0628 70.19H34.5828C34.7148 70.19 34.7808 70.256 34.7808 70.388ZM37.1308 62.63H36.0328C35.9008 62.63 35.8348 62.57 35.8348 62.45V62.018C35.8348 61.886 35.9008 61.82 36.0328 61.82H37.1308C37.2388 61.82 37.2928 61.766 37.2928 61.658V60.2C37.2928 60.056 37.3588 59.984 37.4908 59.984H38.0128C38.1448 59.984 38.2108 60.056 38.2108 60.2V61.658C38.2108 61.766 38.2648 61.82 38.3728 61.82H40.5148C40.6468 61.82 40.7128 61.886 40.7128 62.018V62.45C40.7128 62.57 40.6468 62.63 40.5148 62.63H38.3728C38.2648 62.63 38.2108 62.684 38.2108 62.792V68.462C38.2108 69.014 38.3668 69.44 38.6788 69.74C38.9908 70.04 39.4288 70.19 39.9928 70.19H40.6948C40.8268 70.19 40.8928 70.256 40.8928 70.388V70.802C40.8928 70.934 40.8268 71 40.6948 71H39.9208C39.1288 71 38.4928 70.778 38.0128 70.334C37.5328 69.89 37.2928 69.278 37.2928 68.498V62.792C37.2928 62.684 37.2388 62.63 37.1308 62.63ZM46.863 71H45.315C44.535 71 43.917 70.772 43.461 70.316C43.017 69.86 42.795 69.236 42.795 68.444V64.376C42.795 63.584 43.017 62.96 43.461 62.504C43.917 62.048 44.535 61.82 45.315 61.82H46.863C47.643 61.82 48.261 62.048 48.717 62.504C49.173 62.96 49.401 63.584 49.401 64.376V68.444C49.401 69.236 49.173 69.86 48.717 70.316C48.261 70.772 47.643 71 46.863 71ZM45.387 70.19H46.791C47.343 70.19 47.763 70.04 48.051 69.74C48.351 69.428 48.501 68.99 48.501 68.426V64.394C48.501 63.83 48.351 63.398 48.051 63.098C47.763 62.786 47.343 62.63 46.791 62.63H45.387C44.835 62.63 44.415 62.786 44.127 63.098C43.839 63.398 43.695 63.83 43.695 64.394V68.426C43.695 68.99 43.839 69.428 44.127 69.74C44.415 70.04 44.835 70.19 45.387 70.19ZM52.6067 71H52.0847C51.9647 71 51.9047 70.928 51.9047 70.784V62.036C51.9047 61.892 51.9647 61.82 52.0847 61.82H52.6067C52.7387 61.82 52.8047 61.892 52.8047 62.036V62.792H52.8767C53.0087 62.54 53.2427 62.318 53.5787 62.126C53.9147 61.922 54.3287 61.82 54.8207 61.82H55.5227C55.6547 61.82 55.7207 61.886 55.7207 62.018V62.45C55.7207 62.582 55.6547 62.642 55.5227 62.63H54.6767C54.0887 62.63 53.6267 62.81 53.2907 63.17C52.9667 63.53 52.8047 64.016 52.8047 64.628V70.784C52.8047 70.928 52.7387 71 52.6067 71ZM66.2341 71H64.6861C63.9061 71 63.2881 70.772 62.8321 70.316C62.3881 69.86 62.1661 69.236 62.1661 68.444V64.376C62.1661 63.584 62.3881 62.96 62.8321 62.504C63.2881 62.048 63.9061 61.82 64.6861 61.82H66.2341C67.0141 61.82 67.6321 62.048 68.0881 62.504C68.5441 62.96 68.7721 63.584 68.7721 64.376V68.444C68.7721 69.236 68.5441 69.86 68.0881 70.316C67.6321 70.772 67.0141 71 66.2341 71ZM64.7581 70.19H66.1621C66.7141 70.19 67.1341 70.04 67.4221 69.74C67.7221 69.428 67.8721 68.99 67.8721 68.426V64.394C67.8721 63.83 67.7221 63.398 67.4221 63.098C67.1341 62.786 66.7141 62.63 66.1621 62.63H64.7581C64.2061 62.63 63.7861 62.786 63.4981 63.098C63.2101 63.398 63.0661 63.83 63.0661 64.394V68.426C63.0661 68.99 63.2101 69.428 63.4981 69.74C63.7861 70.04 64.2061 70.19 64.7581 70.19ZM73.1658 61.82H74.8038C74.9478 61.82 75.0198 61.886 75.0198 62.018V62.432C75.0198 62.564 74.9478 62.63 74.8038 62.63H73.1658C73.0578 62.63 73.0038 62.684 73.0038 62.792V70.784C73.0038 70.928 72.9378 71 72.8058 71H72.2838C72.1518 71 72.0858 70.928 72.0858 70.784V62.792C72.0858 62.684 72.0318 62.63 71.9238 62.63H70.7718C70.6398 62.63 70.5738 62.564 70.5738 62.432V62.018C70.5738 61.886 70.6398 61.82 70.7718 61.82H71.9238C72.0318 61.82 72.0858 61.766 72.0858 61.658V60.866C72.0858 59.186 72.8478 58.346 74.3718 58.346H74.8038C74.9478 58.346 75.0198 58.412 75.0198 58.544V58.958C75.0198 59.09 74.9478 59.156 74.8038 59.156H74.4618C73.9218 59.156 73.5438 59.3 73.3278 59.588C73.1118 59.876 73.0038 60.314 73.0038 60.902V61.658C73.0038 61.766 73.0578 61.82 73.1658 61.82ZM86.3118 71H84.0438C83.2638 71 82.6458 70.772 82.1898 70.316C81.7458 69.86 81.5238 69.236 81.5238 68.444V61.982C81.5238 61.19 81.7458 60.566 82.1898 60.11C82.6458 59.654 83.2638 59.426 84.0438 59.426H86.3118C87.0918 59.426 87.7038 59.654 88.1478 60.11C88.6038 60.566 88.8318 61.19 88.8318 61.982V62.864C88.8318 63.008 88.7658 63.08 88.6338 63.08H88.1298C87.9978 63.08 87.9318 63.008 87.9318 62.864V62.018C87.9318 61.442 87.7818 61.004 87.4818 60.704C87.1938 60.392 86.7738 60.236 86.2218 60.236H84.1158C83.5638 60.236 83.1438 60.392 82.8558 60.704C82.5678 61.016 82.4238 61.454 82.4238 62.018V68.408C82.4238 68.972 82.5678 69.41 82.8558 69.722C83.1438 70.034 83.5638 70.19 84.1158 70.19H86.2218C86.7738 70.19 87.1938 70.04 87.4818 69.74C87.7818 69.428 87.9318 68.984 87.9318 68.408V67.562C87.9318 67.418 87.9978 67.346 88.1298 67.346H88.6338C88.7658 67.346 88.8318 67.418 88.8318 67.562V68.444C88.8318 69.236 88.6038 69.86 88.1478 70.316C87.7038 70.772 87.0918 71 86.3118 71ZM95.1677 71H93.6197C92.8397 71 92.2217 70.772 91.7657 70.316C91.3217 69.86 91.0997 69.236 91.0997 68.444V64.376C91.0997 63.584 91.3217 62.96 91.7657 62.504C92.2217 62.048 92.8397 61.82 93.6197 61.82H95.1677C95.9477 61.82 96.5657 62.048 97.0217 62.504C97.4777 62.96 97.7057 63.584 97.7057 64.376V68.444C97.7057 69.236 97.4777 69.86 97.0217 70.316C96.5657 70.772 95.9477 71 95.1677 71ZM93.6917 70.19H95.0957C95.6477 70.19 96.0677 70.04 96.3557 69.74C96.6557 69.428 96.8057 68.99 96.8057 68.426V64.394C96.8057 63.83 96.6557 63.398 96.3557 63.098C96.0677 62.786 95.6477 62.63 95.0957 62.63H93.6917C93.1397 62.63 92.7197 62.786 92.4317 63.098C92.1437 63.398 91.9997 63.83 91.9997 64.394V68.426C91.9997 68.99 92.1437 69.428 92.4317 69.74C92.7197 70.04 93.1397 70.19 93.6917 70.19ZM100.911 71H100.389C100.269 71 100.209 70.928 100.209 70.784V62.036C100.209 61.892 100.269 61.82 100.389 61.82H100.911C101.043 61.82 101.109 61.892 101.109 62.036V62.756H101.181C101.529 62.132 102.165 61.82 103.089 61.82H103.827C104.883 61.82 105.615 62.24 106.023 63.08C106.203 62.66 106.509 62.348 106.941 62.144C107.373 61.928 107.817 61.82 108.273 61.82H108.939C109.719 61.82 110.331 62.048 110.775 62.504C111.219 62.96 111.441 63.584 111.441 64.376V70.784C111.441 70.928 111.375 71 111.243 71H110.721C110.589 71 110.523 70.928 110.523 70.784V64.412C110.523 63.836 110.379 63.398 110.091 63.098C109.803 62.786 109.383 62.63 108.831 62.63H108.165C107.589 62.63 107.133 62.798 106.797 63.134C106.461 63.458 106.293 63.902 106.293 64.466V70.784C106.293 70.928 106.227 71 106.095 71H105.573C105.441 71 105.375 70.928 105.375 70.784V64.412C105.375 63.836 105.231 63.398 104.943 63.098C104.655 62.786 104.235 62.63 103.683 62.63H102.963C102.387 62.63 101.931 62.786 101.595 63.098C101.271 63.398 101.109 63.83 101.109 64.394V70.784C101.109 70.928 101.043 71 100.911 71ZM114.745 71H114.223C114.103 71 114.043 70.928 114.043 70.784V62.036C114.043 61.892 114.103 61.82 114.223 61.82H114.745C114.877 61.82 114.943 61.892 114.943 62.036V62.756H115.015C115.363 62.132 115.999 61.82 116.923 61.82H117.661C118.717 61.82 119.449 62.24 119.857 63.08C120.037 62.66 120.343 62.348 120.775 62.144C121.207 61.928 121.651 61.82 122.107 61.82H122.773C123.553 61.82 124.165 62.048 124.609 62.504C125.053 62.96 125.275 63.584 125.275 64.376V70.784C125.275 70.928 125.209 71 125.077 71H124.555C124.423 71 124.357 70.928 124.357 70.784V64.412C124.357 63.836 124.213 63.398 123.925 63.098C123.637 62.786 123.217 62.63 122.665 62.63H121.999C121.423 62.63 120.967 62.798 120.631 63.134C120.295 63.458 120.127 63.902 120.127 64.466V70.784C120.127 70.928 120.061 71 119.929 71H119.407C119.275 71 119.209 70.928 119.209 70.784V64.412C119.209 63.836 119.065 63.398 118.777 63.098C118.489 62.786 118.069 62.63 117.517 62.63H116.797C116.221 62.63 115.765 62.786 115.429 63.098C115.105 63.398 114.943 63.83 114.943 64.394V70.784C114.943 70.928 114.877 71 114.745 71ZM133.979 71H130.217C129.437 71 128.819 70.772 128.363 70.316C127.919 69.86 127.697 69.236 127.697 68.444V64.376C127.697 63.584 127.919 62.96 128.363 62.504C128.819 62.048 129.437 61.82 130.217 61.82H131.765C132.545 61.82 133.163 62.048 133.619 62.504C134.075 62.96 134.303 63.584 134.303 64.376V66.662C134.303 66.806 134.231 66.878 134.087 66.878H128.759C128.651 66.878 128.597 66.932 128.597 67.04V68.426C128.597 68.99 128.741 69.428 129.029 69.74C129.317 70.04 129.737 70.19 130.289 70.19H133.979C134.111 70.19 134.177 70.256 134.177 70.388V70.802C134.177 70.934 134.111 71 133.979 71ZM128.759 66.158H133.241C133.349 66.158 133.403 66.104 133.403 65.996V64.394C133.403 63.83 133.259 63.398 132.971 63.098C132.683 62.786 132.263 62.63 131.711 62.63H130.289C129.737 62.63 129.317 62.786 129.029 63.098C128.741 63.398 128.597 63.83 128.597 64.394V65.996C128.597 66.104 128.651 66.158 128.759 66.158ZM137.439 71H136.917C136.797 71 136.737 70.928 136.737 70.784V62.036C136.737 61.892 136.797 61.82 136.917 61.82H137.439C137.571 61.82 137.637 61.892 137.637 62.036V62.792H137.709C137.841 62.54 138.075 62.318 138.411 62.126C138.747 61.922 139.161 61.82 139.653 61.82H140.355C140.487 61.82 140.553 61.886 140.553 62.018V62.45C140.553 62.582 140.487 62.642 140.355 62.63H139.509C138.921 62.63 138.459 62.81 138.123 63.17C137.799 63.53 137.637 64.016 137.637 64.628V70.784C137.637 70.928 137.571 71 137.439 71ZM147.509 70.388V70.802C147.509 70.934 147.443 71 147.311 71H144.719C143.939 71 143.321 70.772 142.865 70.316C142.421 69.86 142.199 69.236 142.199 68.444V64.376C142.199 63.584 142.421 62.96 142.865 62.504C143.321 62.048 143.939 61.82 144.719 61.82H147.311C147.443 61.82 147.509 61.886 147.509 62.018V62.45C147.509 62.57 147.443 62.63 147.311 62.63H144.791C144.239 62.63 143.819 62.786 143.531 63.098C143.243 63.41 143.099 63.848 143.099 64.412V68.408C143.099 68.972 143.243 69.41 143.531 69.722C143.819 70.034 144.239 70.19 144.791 70.19H147.311C147.443 70.19 147.509 70.256 147.509 70.388ZM149.553 60.308V58.58C149.553 58.448 149.613 58.382 149.733 58.382H150.273C150.393 58.382 150.453 58.448 150.453 58.58V60.308C150.453 60.452 150.393 60.524 150.273 60.524H149.733C149.613 60.524 149.553 60.452 149.553 60.308ZM149.553 70.784V62.036C149.553 61.892 149.613 61.82 149.733 61.82H150.255C150.387 61.82 150.453 61.892 150.453 62.036V70.784C150.453 70.928 150.393 71 150.273 71H149.733C149.613 71 149.553 70.928 149.553 70.784ZM156.735 71H155.583C154.803 71 154.185 70.772 153.729 70.316C153.285 69.86 153.063 69.236 153.063 68.444V64.376C153.063 63.584 153.285 62.96 153.729 62.504C154.185 62.048 154.803 61.82 155.583 61.82H159.399C159.519 61.82 159.579 61.892 159.579 62.036V70.784C159.579 70.928 159.519 71 159.399 71H158.877C158.745 71 158.679 70.928 158.679 70.784V70.064H158.607C158.295 70.688 157.671 71 156.735 71ZM158.679 68.426V62.792C158.679 62.684 158.619 62.63 158.499 62.63H155.655C155.103 62.63 154.683 62.786 154.395 63.098C154.107 63.41 153.963 63.848 153.963 64.412V68.408C153.963 68.972 154.107 69.41 154.395 69.722C154.683 70.034 155.103 70.19 155.655 70.19H156.825C157.401 70.19 157.851 70.04 158.175 69.74C158.511 69.428 158.679 68.99 158.679 68.426ZM163.07 71H162.548C162.428 71 162.368 70.928 162.368 70.784V58.562C162.368 58.418 162.428 58.346 162.548 58.346H163.07C163.202 58.346 163.268 58.418 163.268 58.562V70.784C163.268 70.928 163.202 71 163.07 71ZM173.394 70.19H174.762C175.698 70.19 176.238 69.77 176.382 68.93L173.178 65.258C172.182 65.318 171.684 65.906 171.684 67.022V68.462C171.684 69.614 172.254 70.19 173.394 70.19ZM174.762 71H173.322C172.542 71 171.924 70.778 171.468 70.334C171.012 69.89 170.784 69.278 170.784 68.498V66.968C170.784 66.368 170.94 65.846 171.252 65.402C171.564 64.958 172.044 64.724 172.692 64.7C172.14 64.028 171.864 63.32 171.864 62.576V61.928C171.864 61.148 172.092 60.536 172.548 60.092C173.016 59.648 173.64 59.426 174.42 59.426H174.852C175.632 59.426 176.25 59.648 176.706 60.092C177.162 60.536 177.39 61.148 177.39 61.928V62.756C177.39 62.9 177.324 62.972 177.192 62.972H176.67C176.538 62.972 176.472 62.9 176.472 62.756V61.946C176.472 60.794 175.92 60.218 174.816 60.218H174.474C173.922 60.218 173.502 60.368 173.214 60.668C172.926 60.956 172.782 61.382 172.782 61.946V62.576C172.782 62.948 172.836 63.266 172.944 63.53C173.064 63.794 173.268 64.088 173.556 64.412L174.69 65.708H178.992C179.136 65.708 179.208 65.774 179.208 65.906V66.338C179.208 66.47 179.136 66.536 178.992 66.536H175.374L179.1 70.838C179.172 70.946 179.154 71 179.046 71H178.362C178.242 71 178.14 70.952 178.056 70.856L176.994 69.65C176.658 70.55 175.914 71 174.762 71ZM192.479 71H186.755C186.635 71 186.575 70.928 186.575 70.784V59.642C186.575 59.498 186.635 59.426 186.755 59.426H187.277C187.409 59.426 187.475 59.498 187.475 59.642V69.992C187.475 70.1 187.535 70.154 187.655 70.154H192.479C192.623 70.154 192.695 70.22 192.695 70.352V70.802C192.695 70.934 192.623 71 192.479 71ZM200.618 71H196.856C196.076 71 195.458 70.772 195.002 70.316C194.558 69.86 194.336 69.236 194.336 68.444V64.376C194.336 63.584 194.558 62.96 195.002 62.504C195.458 62.048 196.076 61.82 196.856 61.82H198.404C199.184 61.82 199.802 62.048 200.258 62.504C200.714 62.96 200.942 63.584 200.942 64.376V66.662C200.942 66.806 200.87 66.878 200.726 66.878H195.398C195.29 66.878 195.236 66.932 195.236 67.04V68.426C195.236 68.99 195.38 69.428 195.668 69.74C195.956 70.04 196.376 70.19 196.928 70.19H200.618C200.75 70.19 200.816 70.256 200.816 70.388V70.802C200.816 70.934 200.75 71 200.618 71ZM195.398 66.158H199.88C199.988 66.158 200.042 66.104 200.042 65.996V64.394C200.042 63.83 199.898 63.398 199.61 63.098C199.322 62.786 198.902 62.63 198.35 62.63H196.928C196.376 62.63 195.956 62.786 195.668 63.098C195.38 63.398 195.236 63.83 195.236 64.394V65.996C195.236 66.104 195.29 66.158 195.398 66.158ZM206.939 70.478H205.769C205.001 70.478 204.389 70.25 203.933 69.794C203.489 69.338 203.267 68.72 203.267 67.94V64.376C203.267 63.584 203.489 62.96 203.933 62.504C204.389 62.048 205.007 61.82 205.787 61.82H209.603C209.735 61.82 209.801 61.892 209.801 62.036V70.964C209.801 71.756 209.573 72.38 209.117 72.836C208.661 73.292 208.043 73.52 207.263 73.52H203.987C203.855 73.52 203.789 73.454 203.789 73.322V72.89C203.789 72.77 203.855 72.71 203.987 72.71H207.191C207.743 72.71 208.163 72.554 208.451 72.242C208.739 71.942 208.883 71.504 208.883 70.928V69.542H208.811C208.511 70.166 207.887 70.478 206.939 70.478ZM208.883 67.904V62.792C208.883 62.684 208.829 62.63 208.721 62.63H205.877C205.325 62.63 204.899 62.786 204.599 63.098C204.311 63.398 204.167 63.836 204.167 64.412V67.904C204.167 68.468 204.311 68.906 204.599 69.218C204.899 69.518 205.325 69.668 205.877 69.668H207.029C207.605 69.668 208.055 69.518 208.379 69.218C208.715 68.906 208.883 68.468 208.883 67.904ZM215.973 71H214.821C214.041 71 213.423 70.772 212.967 70.316C212.523 69.86 212.301 69.236 212.301 68.444V64.376C212.301 63.584 212.523 62.96 212.967 62.504C213.423 62.048 214.041 61.82 214.821 61.82H218.637C218.757 61.82 218.817 61.892 218.817 62.036V70.784C218.817 70.928 218.757 71 218.637 71H218.115C217.983 71 217.917 70.928 217.917 70.784V70.064H217.845C217.533 70.688 216.909 71 215.973 71ZM217.917 68.426V62.792C217.917 62.684 217.857 62.63 217.737 62.63H214.893C214.341 62.63 213.921 62.786 213.633 63.098C213.345 63.41 213.201 63.848 213.201 64.412V68.408C213.201 68.972 213.345 69.41 213.633 69.722C213.921 70.034 214.341 70.19 214.893 70.19H216.063C216.639 70.19 217.089 70.04 217.413 69.74C217.749 69.428 217.917 68.99 217.917 68.426ZM222.308 71H221.786C221.666 71 221.606 70.928 221.606 70.784V58.562C221.606 58.418 221.666 58.346 221.786 58.346H222.308C222.44 58.346 222.506 58.418 222.506 58.562V70.784C222.506 70.928 222.44 71 222.308 71ZM1.224 94H0.666C0.534 94 0.492 93.928 0.54 93.784L4.122 82.642C4.158 82.498 4.242 82.426 4.374 82.426H5.22C5.34 82.426 5.424 82.498 5.472 82.642L9.054 93.784C9.09 93.928 9.048 94 8.928 94H8.352C8.232 94 8.154 93.928 8.118 93.784L7.146 90.904H2.43L1.458 93.784C1.41 93.928 1.332 94 1.224 94ZM4.752 83.416L2.682 90.094H6.912L4.824 83.416H4.752ZM12.8377 84.82H14.4757C14.6197 84.82 14.6917 84.886 14.6917 85.018V85.432C14.6917 85.564 14.6197 85.63 14.4757 85.63H12.8377C12.7297 85.63 12.6757 85.684 12.6757 85.792V93.784C12.6757 93.928 12.6097 94 12.4777 94H11.9557C11.8237 94 11.7577 93.928 11.7577 93.784V85.792C11.7577 85.684 11.7037 85.63 11.5957 85.63H10.4437C10.3117 85.63 10.2457 85.564 10.2457 85.432V85.018C10.2457 84.886 10.3117 84.82 10.4437 84.82H11.5957C11.7037 84.82 11.7577 84.766 11.7577 84.658V83.866C11.7577 82.186 12.5197 81.346 14.0437 81.346H14.4757C14.6197 81.346 14.6917 81.412 14.6917 81.544V81.958C14.6917 82.09 14.6197 82.156 14.4757 82.156H14.1337C13.5937 82.156 13.2157 82.3 12.9997 82.588C12.7837 82.876 12.6757 83.314 12.6757 83.902V84.658C12.6757 84.766 12.7297 84.82 12.8377 84.82ZM18.2869 84.82H19.9249C20.0689 84.82 20.1409 84.886 20.1409 85.018V85.432C20.1409 85.564 20.0689 85.63 19.9249 85.63H18.2869C18.1789 85.63 18.1249 85.684 18.1249 85.792V93.784C18.1249 93.928 18.0589 94 17.9269 94H17.4049C17.2729 94 17.2069 93.928 17.2069 93.784V85.792C17.2069 85.684 17.1529 85.63 17.0449 85.63H15.8929C15.7609 85.63 15.6949 85.564 15.6949 85.432V85.018C15.6949 84.886 15.7609 84.82 15.8929 84.82H17.0449C17.1529 84.82 17.2069 84.766 17.2069 84.658V83.866C17.2069 82.186 17.9689 81.346 19.4929 81.346H19.9249C20.0689 81.346 20.1409 81.412 20.1409 81.544V81.958C20.1409 82.09 20.0689 82.156 19.9249 82.156H19.5829C19.0429 82.156 18.6649 82.3 18.4489 82.588C18.2329 82.876 18.1249 83.314 18.1249 83.902V84.658C18.1249 84.766 18.1789 84.82 18.2869 84.82ZM25.3381 94H24.1861C23.4061 94 22.7881 93.772 22.3321 93.316C21.8881 92.86 21.6661 92.236 21.6661 91.444V87.376C21.6661 86.584 21.8881 85.96 22.3321 85.504C22.7881 85.048 23.4061 84.82 24.1861 84.82H28.0021C28.1221 84.82 28.1821 84.892 28.1821 85.036V93.784C28.1821 93.928 28.1221 94 28.0021 94H27.4801C27.3481 94 27.2821 93.928 27.2821 93.784V93.064H27.2101C26.8981 93.688 26.2741 94 25.3381 94ZM27.2821 91.426V85.792C27.2821 85.684 27.2221 85.63 27.1021 85.63H24.2581C23.7061 85.63 23.2861 85.786 22.9981 86.098C22.7101 86.41 22.5661 86.848 22.5661 87.412V91.408C22.5661 91.972 22.7101 92.41 22.9981 92.722C23.2861 93.034 23.7061 93.19 24.2581 93.19H25.4281C26.0041 93.19 26.4541 93.04 26.7781 92.74C27.1141 92.428 27.2821 91.99 27.2821 91.426ZM30.9713 83.308V81.58C30.9713 81.448 31.0313 81.382 31.1513 81.382H31.6913C31.8113 81.382 31.8713 81.448 31.8713 81.58V83.308C31.8713 83.452 31.8113 83.524 31.6913 83.524H31.1513C31.0313 83.524 30.9713 83.452 30.9713 83.308ZM30.9713 93.784V85.036C30.9713 84.892 31.0313 84.82 31.1513 84.82H31.6733C31.8053 84.82 31.8713 84.892 31.8713 85.036V93.784C31.8713 93.928 31.8113 94 31.6913 94H31.1513C31.0313 94 30.9713 93.928 30.9713 93.784ZM35.3625 94H34.8405C34.7205 94 34.6605 93.928 34.6605 93.784V85.036C34.6605 84.892 34.7205 84.82 34.8405 84.82H35.3625C35.4945 84.82 35.5605 84.892 35.5605 85.036V85.792H35.6325C35.7645 85.54 35.9985 85.318 36.3345 85.126C36.6705 84.922 37.0845 84.82 37.5765 84.82H38.2785C38.4105 84.82 38.4765 84.886 38.4765 85.018V85.45C38.4765 85.582 38.4105 85.642 38.2785 85.63H37.4325C36.8445 85.63 36.3825 85.81 36.0465 86.17C35.7225 86.53 35.5605 87.016 35.5605 87.628V93.784C35.5605 93.928 35.4945 94 35.3625 94ZM43.2731 94H40.1411C40.0091 94 39.9431 93.934 39.9431 93.802V93.388C39.9431 93.268 40.0091 93.208 40.1411 93.208H43.1831C44.2631 93.208 44.8031 92.788 44.8031 91.948V91.516C44.8031 90.736 44.4671 90.226 43.7951 89.986L41.5451 89.122C40.9331 88.882 40.4951 88.6 40.2311 88.276C39.9791 87.952 39.8531 87.502 39.8531 86.926C39.8531 85.522 40.6271 84.82 42.1751 84.82H45.0911C45.2231 84.82 45.2891 84.886 45.2891 85.018V85.432C45.2891 85.552 45.2231 85.612 45.0911 85.612H42.2651C41.7731 85.612 41.4011 85.72 41.1491 85.936C40.9091 86.152 40.7891 86.404 40.7891 86.692V87.106C40.7891 87.442 40.8791 87.706 41.0591 87.898C41.2511 88.09 41.5391 88.252 41.9231 88.384L44.1731 89.284C44.7971 89.488 45.2111 89.794 45.4151 90.202C45.6311 90.598 45.7391 91.156 45.7391 91.876C45.7391 92.596 45.5351 93.13 45.1271 93.478C44.7311 93.826 44.1131 94 43.2731 94Z" fill="#5A5A5A"/>
</svg>
