<svg width="226" height="43" viewBox="0 0 226 43" fill="none" xmlns="http://www.w3.org/2000/svg">
<path d="M3.104 17H1.064C0.728 17 0.56 16.832 0.56 16.496V2.072C0.56 1.736 0.728 1.568 1.064 1.568H3.104C3.44 1.568 3.608 1.736 3.608 2.072V8.912H3.656C3.784 8.528 4.032 8.032 4.4 7.424L8.048 2.072C8.256 1.736 8.568 1.568 8.984 1.568H11.336C11.512 1.568 11.616 1.624 11.648 1.736C11.696 1.832 11.656 1.96 11.528 2.12L6.968 8.432L12.056 16.4C12.168 16.592 12.184 16.744 12.104 16.856C12.04 16.952 11.896 17 11.672 17H9.92C9.36 17 8.984 16.832 8.792 16.496L5.12 10.616L3.608 12.392V16.496C3.608 16.832 3.44 17 3.104 17ZM16.2468 17H14.2068C13.8708 17 13.7028 16.832 13.7028 16.496V5.264C13.7028 4.928 13.8708 4.76 14.2068 4.76H16.2468C16.5828 4.76 16.7508 4.928 16.7508 5.264V6.08H16.8468C17.0228 5.648 17.3348 5.32 17.7828 5.096C18.2308 4.872 18.7028 4.76 19.1988 4.76H20.0628C20.3828 4.76 20.5428 4.928 20.5428 5.264V6.92C20.5428 7.112 20.5028 7.248 20.4228 7.328C20.3588 7.392 20.2388 7.416 20.0628 7.4H18.4068C17.3028 7.4 16.7508 8.024 16.7508 9.272V16.496C16.7508 16.832 16.5828 17 16.2468 17ZM22.19 2.696V0.607999C22.19 0.288 22.35 0.128 22.67 0.128H24.758C25.078 0.128 25.238 0.28 25.238 0.584V2.696C25.238 3.016 25.078 3.176 24.758 3.176H22.67C22.35 3.176 22.19 3.016 22.19 2.696ZM22.19 16.496V5.264C22.19 4.928 22.35 4.76 22.67 4.76H24.734C25.07 4.76 25.238 4.928 25.238 5.264V16.496C25.238 16.704 25.198 16.84 25.118 16.904C25.054 16.968 24.934 17 24.758 17H22.694C22.358 17 22.19 16.832 22.19 16.496ZM32.6317 17H28.0717C27.7517 17 27.5917 16.832 27.5917 16.496V14.96C27.5917 14.784 27.6237 14.664 27.6877 14.6C27.7517 14.52 27.8797 14.48 28.0717 14.48H32.0797C32.8637 14.48 33.2557 14.24 33.2557 13.76V13.64C33.2557 13.256 32.9277 12.888 32.2717 12.536L29.8957 11.216C29.0797 10.8 28.4797 10.352 28.0957 9.872C27.7117 9.392 27.5197 8.776 27.5197 8.024C27.5197 6.904 27.8157 6.08 28.4077 5.552C28.9997 5.024 29.9277 4.76 31.1917 4.76H35.1997C35.5197 4.76 35.6797 4.928 35.6797 5.264V6.824C35.6797 7 35.6477 7.128 35.5837 7.208C35.5197 7.272 35.3917 7.304 35.1997 7.304H31.8637C31.0797 7.304 30.6877 7.504 30.6877 7.904V8.024C30.6877 8.376 31.0317 8.736 31.7197 9.104L34.1437 10.544C34.9757 10.992 35.5597 11.456 35.8957 11.936C36.2317 12.4 36.3997 13.016 36.3997 13.784C36.3997 15.928 35.1437 17 32.6317 17ZM38.7871 7.4H37.8271C37.6351 7.4 37.4991 7.368 37.4191 7.304C37.3551 7.24 37.3231 7.112 37.3231 6.92V5.264C37.3231 4.928 37.4911 4.76 37.8271 4.76H38.7871C38.9631 4.76 39.0511 4.672 39.0511 4.496V2.216C39.0511 1.88 39.2271 1.712 39.5791 1.712H41.5951C41.9311 1.712 42.0991 1.88 42.0991 2.216V4.496C42.0991 4.672 42.1951 4.76 42.3871 4.76H44.2591C44.5951 4.76 44.7631 4.928 44.7631 5.264V6.92C44.7631 7.096 44.7231 7.224 44.6431 7.304C44.5791 7.368 44.4511 7.4 44.2591 7.4H42.3871C42.1951 7.4 42.0991 7.488 42.0991 7.664V12.968C42.0991 13.464 42.2111 13.824 42.4351 14.048C42.6591 14.256 43.0271 14.36 43.5391 14.36H44.4991C44.8351 14.36 45.0031 14.528 45.0031 14.864V16.52C45.0031 16.696 44.9631 16.824 44.8831 16.904C44.8191 16.968 44.6911 17 44.4991 17H43.0351C41.7711 17 40.7871 16.664 40.0831 15.992C39.3951 15.32 39.0511 14.36 39.0511 13.112V7.664C39.0511 7.488 38.9631 7.4 38.7871 7.4ZM52.8401 17H50.7041C49.4401 17 48.4641 16.664 47.7761 15.992C47.0881 15.32 46.7441 14.352 46.7441 13.088V8.672C46.7441 7.408 47.0881 6.44 47.7761 5.768C48.4641 5.096 49.4401 4.76 50.7041 4.76H52.8401C54.0881 4.76 55.0561 5.104 55.7441 5.792C56.4481 6.464 56.8001 7.424 56.8001 8.672V13.088C56.8001 14.336 56.4481 15.304 55.7441 15.992C55.0561 16.664 54.0881 17 52.8401 17ZM51.1601 14.384H52.3841C52.8961 14.384 53.2561 14.28 53.4641 14.072C53.6881 13.864 53.8001 13.504 53.8001 12.992V8.768C53.8001 8.256 53.6881 7.896 53.4641 7.688C53.2561 7.48 52.8961 7.376 52.3841 7.376H51.1601C50.6481 7.376 50.2881 7.48 50.0801 7.688C49.8721 7.896 49.7681 8.256 49.7681 8.768V12.992C49.7681 13.504 49.8721 13.864 50.0801 14.072C50.2881 14.28 50.6481 14.384 51.1601 14.384ZM63.635 4.76H65.555C65.747 4.76 65.875 4.8 65.939 4.88C66.019 4.944 66.059 5.064 66.059 5.24V6.896C66.059 7.232 65.891 7.4 65.555 7.4H63.635C63.459 7.4 63.371 7.488 63.371 7.664V16.496C63.371 16.832 63.195 17 62.843 17H60.827C60.491 17 60.323 16.832 60.323 16.496V7.664C60.323 7.488 60.227 7.4 60.035 7.4H58.931C58.595 7.4 58.427 7.232 58.427 6.896V5.24C58.427 5.048 58.459 4.92 58.523 4.856C58.603 4.792 58.739 4.76 58.931 4.76H60.035C60.227 4.76 60.323 4.672 60.323 4.496V4.04C60.323 2.776 60.651 1.808 61.307 1.136C61.979 0.464 62.947 0.128 64.211 0.128H65.579C65.771 0.128 65.899 0.168 65.963 0.248C66.027 0.312 66.059 0.432 66.059 0.607999V2.264C66.059 2.6 65.899 2.768 65.579 2.768H64.691C64.179 2.768 63.827 2.88 63.635 3.104C63.459 3.312 63.371 3.672 63.371 4.184V4.496C63.371 4.672 63.459 4.76 63.635 4.76ZM72.1194 4.76H74.0394C74.2314 4.76 74.3594 4.8 74.4234 4.88C74.5034 4.944 74.5434 5.064 74.5434 5.24V6.896C74.5434 7.232 74.3754 7.4 74.0394 7.4H72.1194C71.9434 7.4 71.8554 7.488 71.8554 7.664V16.496C71.8554 16.832 71.6794 17 71.3274 17H69.3114C68.9754 17 68.8074 16.832 68.8074 16.496V7.664C68.8074 7.488 68.7114 7.4 68.5194 7.4H67.4154C67.0794 7.4 66.9114 7.232 66.9114 6.896V5.24C66.9114 5.048 66.9434 4.92 67.0074 4.856C67.0874 4.792 67.2234 4.76 67.4154 4.76H68.5194C68.7114 4.76 68.8074 4.672 68.8074 4.496V4.04C68.8074 2.776 69.1354 1.808 69.7914 1.136C70.4634 0.464 71.4314 0.128 72.6954 0.128H74.0634C74.2554 0.128 74.3834 0.168 74.4474 0.248C74.5114 0.312 74.5434 0.432 74.5434 0.607999V2.264C74.5434 2.6 74.3834 2.768 74.0634 2.768H73.1754C72.6634 2.768 72.3114 2.88 72.1194 3.104C71.9434 3.312 71.8554 3.672 71.8554 4.184V4.496C71.8554 4.672 71.9434 4.76 72.1194 4.76ZM85.1878 17H79.8838C78.6198 17 77.6438 16.664 76.9558 15.992C76.2678 15.32 75.9238 14.352 75.9238 13.088V8.672C75.9238 7.408 76.2678 6.44 76.9558 5.768C77.6438 5.096 78.6198 4.76 79.8838 4.76H81.7798C83.0438 4.76 84.0198 5.096 84.7078 5.768C85.3958 6.44 85.7398 7.408 85.7398 8.672V11.72C85.7398 12.056 85.5718 12.224 85.2358 12.224H79.2118C79.0198 12.224 78.9238 12.312 78.9238 12.488V13.016C78.9238 13.512 79.0278 13.872 79.2358 14.096C79.4598 14.304 79.8278 14.408 80.3398 14.408H85.1878C85.5238 14.408 85.6918 14.584 85.6918 14.936V16.52C85.6918 16.696 85.6518 16.824 85.5718 16.904C85.5078 16.968 85.3798 17 85.1878 17ZM79.2118 10.184H82.4758C82.6518 10.184 82.7398 10.096 82.7398 9.92V8.768C82.7398 8.256 82.6358 7.896 82.4278 7.688C82.2198 7.48 81.8598 7.376 81.3478 7.376H80.3398C79.8278 7.376 79.4678 7.48 79.2598 7.688C79.0518 7.896 78.9478 8.256 78.9478 8.768V9.92C78.9478 10.096 79.0358 10.184 79.2118 10.184ZM90.5671 17H88.5271C88.1911 17 88.0231 16.832 88.0231 16.496V5.264C88.0231 4.928 88.1911 4.76 88.5271 4.76H90.5671C90.9031 4.76 91.0711 4.928 91.0711 5.264V6.08H91.1671C91.3431 5.648 91.6551 5.32 92.1031 5.096C92.5511 4.872 93.0231 4.76 93.5191 4.76H94.3831C94.7031 4.76 94.8631 4.928 94.8631 5.264V6.92C94.8631 7.112 94.8231 7.248 94.7431 7.328C94.6791 7.392 94.5591 7.416 94.3831 7.4H92.7271C91.6231 7.4 91.0711 8.024 91.0711 9.272V16.496C91.0711 16.832 90.9031 17 90.5671 17ZM105.216 14.36H107.832C108.344 14.36 108.704 14.256 108.912 14.048C109.136 13.824 109.248 13.456 109.248 12.944V5.624C109.248 5.112 109.136 4.752 108.912 4.544C108.704 4.32 108.344 4.208 107.832 4.208H105.216C105.04 4.208 104.952 4.296 104.952 4.472V14.096C104.952 14.272 105.04 14.36 105.216 14.36ZM101.904 16.496V2.072C101.904 1.736 102.072 1.568 102.408 1.568H108.336C109.584 1.568 110.552 1.912 111.24 2.6C111.944 3.272 112.296 4.232 112.296 5.48V13.088C112.296 14.336 111.944 15.304 111.24 15.992C110.552 16.664 109.584 17 108.336 17H102.408C102.072 17 101.904 16.832 101.904 16.496ZM119.225 17H118.649C117.385 17 116.409 16.664 115.721 15.992C115.033 15.32 114.689 14.352 114.689 13.088V8.672C114.689 7.408 115.033 6.44 115.721 5.768C116.409 5.096 117.385 4.76 118.649 4.76H124.193C124.545 4.76 124.721 4.928 124.721 5.264V16.496C124.721 16.832 124.545 17 124.193 17H122.177C121.841 17 121.673 16.832 121.673 16.496V15.704H121.577C121.401 16.136 121.089 16.464 120.641 16.688C120.193 16.896 119.721 17 119.225 17ZM121.673 12.536V7.664C121.673 7.488 121.577 7.4 121.385 7.4H119.129C118.617 7.4 118.257 7.512 118.049 7.736C117.841 7.944 117.737 8.304 117.737 8.816V12.944C117.737 13.456 117.841 13.824 118.049 14.048C118.257 14.256 118.617 14.36 119.129 14.36H120.017C121.121 14.36 121.673 13.752 121.673 12.536ZM126.823 4.76H128.935C129.255 4.76 129.447 4.928 129.511 5.264L131.575 14.288H131.743L133.759 5.264C133.823 4.928 134.023 4.76 134.359 4.76H136.471C136.807 4.76 136.927 4.928 136.831 5.264L133.807 16.472C133.743 16.824 133.527 17 133.159 17H130.111C129.775 17 129.559 16.824 129.463 16.472L126.463 5.264C126.367 4.928 126.487 4.76 126.823 4.76ZM147.602 17H142.298C141.034 17 140.058 16.664 139.37 15.992C138.682 15.32 138.338 14.352 138.338 13.088V8.672C138.338 7.408 138.682 6.44 139.37 5.768C140.058 5.096 141.034 4.76 142.298 4.76H144.194C145.458 4.76 146.434 5.096 147.122 5.768C147.81 6.44 148.154 7.408 148.154 8.672V11.72C148.154 12.056 147.986 12.224 147.65 12.224H141.626C141.434 12.224 141.338 12.312 141.338 12.488V13.016C141.338 13.512 141.442 13.872 141.65 14.096C141.874 14.304 142.242 14.408 142.754 14.408H147.602C147.938 14.408 148.106 14.584 148.106 14.936V16.52C148.106 16.696 148.066 16.824 147.986 16.904C147.922 16.968 147.794 17 147.602 17ZM141.626 10.184H144.89C145.066 10.184 145.154 10.096 145.154 9.92V8.768C145.154 8.256 145.05 7.896 144.842 7.688C144.634 7.48 144.274 7.376 143.762 7.376H142.754C142.242 7.376 141.882 7.48 141.674 7.688C141.466 7.896 141.362 8.256 141.362 8.768V9.92C141.362 10.096 141.45 10.184 141.626 10.184ZM160.727 17H158.711C158.359 17 158.183 16.832 158.183 16.496V4.472C158.183 4.296 158.095 4.208 157.919 4.208H155.183C154.847 4.208 154.679 4.04 154.679 3.704V2.072C154.679 1.736 154.847 1.568 155.183 1.568H164.255C164.591 1.568 164.759 1.736 164.759 2.072V3.704C164.759 4.04 164.591 4.208 164.255 4.208H161.519C161.327 4.208 161.231 4.296 161.231 4.472V16.496C161.231 16.832 161.063 17 160.727 17ZM170.647 17H170.071C168.807 17 167.831 16.664 167.143 15.992C166.455 15.32 166.111 14.352 166.111 13.088V8.672C166.111 7.408 166.455 6.44 167.143 5.768C167.831 5.096 168.807 4.76 170.071 4.76H175.615C175.967 4.76 176.143 4.928 176.143 5.264V16.496C176.143 16.832 175.967 17 175.615 17H173.599C173.263 17 173.095 16.832 173.095 16.496V15.704H172.999C172.823 16.136 172.511 16.464 172.063 16.688C171.615 16.896 171.143 17 170.647 17ZM173.095 12.536V7.664C173.095 7.488 172.999 7.4 172.807 7.4H170.551C170.039 7.4 169.679 7.512 169.471 7.736C169.263 7.944 169.159 8.304 169.159 8.816V12.944C169.159 13.456 169.263 13.824 169.471 14.048C169.679 14.256 170.039 14.36 170.551 14.36H171.439C172.543 14.36 173.095 13.752 173.095 12.536ZM182.085 14.36H184.533C185.045 14.36 185.405 14.256 185.613 14.048C185.837 13.824 185.949 13.456 185.949 12.944V8.768C185.949 8.256 185.837 7.896 185.613 7.688C185.405 7.464 185.045 7.352 184.533 7.352H183.477C182.373 7.352 181.821 7.96 181.821 9.176V14.096C181.821 14.272 181.909 14.36 182.085 14.36ZM178.773 16.496V0.631999C178.773 0.296 178.941 0.128 179.277 0.128H181.317C181.653 0.128 181.821 0.296 181.821 0.631999V6.032H181.917C182.093 5.6 182.405 5.272 182.853 5.048C183.301 4.824 183.773 4.712 184.269 4.712H185.037C186.301 4.712 187.277 5.048 187.965 5.72C188.653 6.392 188.997 7.36 188.997 8.624V13.088C188.997 14.352 188.653 15.32 187.965 15.992C187.277 16.664 186.301 17 185.037 17H179.277C178.941 17 178.773 16.832 178.773 16.496ZM197.262 17H195.126C193.862 17 192.886 16.664 192.198 15.992C191.51 15.32 191.166 14.352 191.166 13.088V8.672C191.166 7.408 191.51 6.44 192.198 5.768C192.886 5.096 193.862 4.76 195.126 4.76H197.262C198.51 4.76 199.478 5.104 200.166 5.792C200.87 6.464 201.222 7.424 201.222 8.672V13.088C201.222 14.336 200.87 15.304 200.166 15.992C199.478 16.664 198.51 17 197.262 17ZM195.582 14.384H196.806C197.318 14.384 197.678 14.28 197.886 14.072C198.11 13.864 198.222 13.504 198.222 12.992V8.768C198.222 8.256 198.11 7.896 197.886 7.688C197.678 7.48 197.318 7.376 196.806 7.376H195.582C195.07 7.376 194.71 7.48 194.502 7.688C194.294 7.896 194.19 8.256 194.19 8.768V12.992C194.19 13.504 194.294 13.864 194.502 14.072C194.71 14.28 195.07 14.384 195.582 14.384ZM206.161 17H204.121C203.785 17 203.617 16.832 203.617 16.496V5.264C203.617 4.928 203.785 4.76 204.121 4.76H206.161C206.497 4.76 206.665 4.928 206.665 5.264V6.056H206.761C207.113 5.192 207.897 4.76 209.113 4.76H209.881C212.393 4.76 213.649 6.064 213.649 8.672V16.496C213.649 16.832 213.473 17 213.121 17H211.105C210.769 17 210.601 16.832 210.601 16.496V8.816C210.601 8.304 210.489 7.944 210.265 7.736C210.057 7.512 209.697 7.4 209.185 7.4H208.321C207.217 7.4 206.665 8.008 206.665 9.224V16.496C206.665 16.832 206.497 17 206.161 17ZM220.499 16.448H219.707C218.475 16.448 217.539 16.112 216.899 15.44C216.275 14.768 215.963 13.8 215.963 12.536V8.672C215.963 7.408 216.307 6.44 216.995 5.768C217.683 5.096 218.659 4.76 219.923 4.76H225.467C225.819 4.76 225.995 4.928 225.995 5.264V17.096C225.995 18.344 225.643 19.304 224.939 19.976C224.251 20.648 223.283 20.984 222.035 20.984H217.427C217.235 20.984 217.099 20.944 217.019 20.864C216.955 20.8 216.923 20.68 216.923 20.504V18.848C216.923 18.512 217.091 18.344 217.427 18.344H221.531C222.043 18.344 222.403 18.232 222.611 18.008C222.835 17.8 222.947 17.448 222.947 16.952V15.128H222.851C222.675 15.56 222.363 15.888 221.915 16.112C221.467 16.336 220.995 16.448 220.499 16.448ZM222.947 11.984V7.664C222.947 7.488 222.851 7.4 222.659 7.4H220.403C219.891 7.4 219.531 7.512 219.323 7.736C219.115 7.944 219.011 8.304 219.011 8.816V12.392C219.011 12.904 219.115 13.264 219.323 13.472C219.531 13.68 219.891 13.784 220.403 13.784H221.291C222.395 13.784 222.947 13.184 222.947 11.984ZM1.61 39.19H5.066C5.618 39.19 6.038 39.04 6.326 38.74C6.626 38.428 6.776 37.984 6.776 37.408V31.018C6.776 30.442 6.626 30.004 6.326 29.704C6.038 29.392 5.618 29.236 5.066 29.236H1.61C1.49 29.236 1.43 29.29 1.43 29.398V39.028C1.43 39.136 1.49 39.19 1.61 39.19ZM0.53 39.784V28.642C0.53 28.498 0.59 28.426 0.71 28.426H5.156C5.936 28.426 6.548 28.654 6.992 29.11C7.448 29.566 7.676 30.19 7.676 30.982V37.444C7.676 38.236 7.448 38.86 6.992 39.316C6.548 39.772 5.936 40 5.156 40H0.71C0.59 40 0.53 39.928 0.53 39.784ZM10.4595 29.308V27.58C10.4595 27.448 10.5195 27.382 10.6395 27.382H11.1795C11.2995 27.382 11.3595 27.448 11.3595 27.58V29.308C11.3595 29.452 11.2995 29.524 11.1795 29.524H10.6395C10.5195 29.524 10.4595 29.452 10.4595 29.308ZM10.4595 39.784V31.036C10.4595 30.892 10.5195 30.82 10.6395 30.82H11.1615C11.2935 30.82 11.3595 30.892 11.3595 31.036V39.784C11.3595 39.928 11.2995 40 11.1795 40H10.6395C10.5195 40 10.4595 39.928 10.4595 39.784ZM14.8508 40H14.3288C14.2088 40 14.1488 39.928 14.1488 39.784V31.036C14.1488 30.892 14.2088 30.82 14.3288 30.82H14.8508C14.9828 30.82 15.0488 30.892 15.0488 31.036V31.792H15.1208C15.2528 31.54 15.4868 31.318 15.8228 31.126C16.1588 30.922 16.5728 30.82 17.0648 30.82H17.7668C17.8988 30.82 17.9648 30.886 17.9648 31.018V31.45C17.9648 31.582 17.8988 31.642 17.7668 31.63H16.9208C16.3328 31.63 15.8708 31.81 15.5348 32.17C15.2108 32.53 15.0488 33.016 15.0488 33.628V39.784C15.0488 39.928 14.9828 40 14.8508 40ZM25.8934 40H22.1314C21.3514 40 20.7334 39.772 20.2774 39.316C19.8334 38.86 19.6114 38.236 19.6114 37.444V33.376C19.6114 32.584 19.8334 31.96 20.2774 31.504C20.7334 31.048 21.3514 30.82 22.1314 30.82H23.6794C24.4594 30.82 25.0774 31.048 25.5334 31.504C25.9894 31.96 26.2174 32.584 26.2174 33.376V35.662C26.2174 35.806 26.1454 35.878 26.0014 35.878H20.6734C20.5654 35.878 20.5114 35.932 20.5114 36.04V37.426C20.5114 37.99 20.6554 38.428 20.9434 38.74C21.2314 39.04 21.6514 39.19 22.2034 39.19H25.8934C26.0254 39.19 26.0914 39.256 26.0914 39.388V39.802C26.0914 39.934 26.0254 40 25.8934 40ZM20.6734 35.158H25.1554C25.2634 35.158 25.3174 35.104 25.3174 34.996V33.394C25.3174 32.83 25.1734 32.398 24.8854 32.098C24.5974 31.786 24.1774 31.63 23.6254 31.63H22.2034C21.6514 31.63 21.2314 31.786 20.9434 32.098C20.6554 32.398 20.5114 32.83 20.5114 33.394V34.996C20.5114 35.104 20.5654 35.158 20.6734 35.158ZM33.7808 39.388V39.802C33.7808 39.934 33.7148 40 33.5828 40H30.9908C30.2108 40 29.5928 39.772 29.1368 39.316C28.6928 38.86 28.4708 38.236 28.4708 37.444V33.376C28.4708 32.584 28.6928 31.96 29.1368 31.504C29.5928 31.048 30.2108 30.82 30.9908 30.82H33.5828C33.7148 30.82 33.7808 30.886 33.7808 31.018V31.45C33.7808 31.57 33.7148 31.63 33.5828 31.63H31.0628C30.5108 31.63 30.0908 31.786 29.8028 32.098C29.5148 32.41 29.3708 32.848 29.3708 33.412V37.408C29.3708 37.972 29.5148 38.41 29.8028 38.722C30.0908 39.034 30.5108 39.19 31.0628 39.19H33.5828C33.7148 39.19 33.7808 39.256 33.7808 39.388ZM36.1308 31.63H35.0328C34.9008 31.63 34.8348 31.57 34.8348 31.45V31.018C34.8348 30.886 34.9008 30.82 35.0328 30.82H36.1308C36.2388 30.82 36.2928 30.766 36.2928 30.658V29.2C36.2928 29.056 36.3588 28.984 36.4908 28.984H37.0128C37.1448 28.984 37.2108 29.056 37.2108 29.2V30.658C37.2108 30.766 37.2648 30.82 37.3728 30.82H39.5148C39.6468 30.82 39.7128 30.886 39.7128 31.018V31.45C39.7128 31.57 39.6468 31.63 39.5148 31.63H37.3728C37.2648 31.63 37.2108 31.684 37.2108 31.792V37.462C37.2108 38.014 37.3668 38.44 37.6788 38.74C37.9908 39.04 38.4288 39.19 38.9928 39.19H39.6948C39.8268 39.19 39.8928 39.256 39.8928 39.388V39.802C39.8928 39.934 39.8268 40 39.6948 40H38.9208C38.1288 40 37.4928 39.778 37.0128 39.334C36.5328 38.89 36.2928 38.278 36.2928 37.498V31.792C36.2928 31.684 36.2388 31.63 36.1308 31.63ZM45.863 40H44.315C43.535 40 42.917 39.772 42.461 39.316C42.017 38.86 41.795 38.236 41.795 37.444V33.376C41.795 32.584 42.017 31.96 42.461 31.504C42.917 31.048 43.535 30.82 44.315 30.82H45.863C46.643 30.82 47.261 31.048 47.717 31.504C48.173 31.96 48.401 32.584 48.401 33.376V37.444C48.401 38.236 48.173 38.86 47.717 39.316C47.261 39.772 46.643 40 45.863 40ZM44.387 39.19H45.791C46.343 39.19 46.763 39.04 47.051 38.74C47.351 38.428 47.501 37.99 47.501 37.426V33.394C47.501 32.83 47.351 32.398 47.051 32.098C46.763 31.786 46.343 31.63 45.791 31.63H44.387C43.835 31.63 43.415 31.786 43.127 32.098C42.839 32.398 42.695 32.83 42.695 33.394V37.426C42.695 37.99 42.839 38.428 43.127 38.74C43.415 39.04 43.835 39.19 44.387 39.19ZM51.6067 40H51.0847C50.9647 40 50.9047 39.928 50.9047 39.784V31.036C50.9047 30.892 50.9647 30.82 51.0847 30.82H51.6067C51.7387 30.82 51.8047 30.892 51.8047 31.036V31.792H51.8767C52.0087 31.54 52.2427 31.318 52.5787 31.126C52.9147 30.922 53.3287 30.82 53.8207 30.82H54.5227C54.6547 30.82 54.7207 30.886 54.7207 31.018V31.45C54.7207 31.582 54.6547 31.642 54.5227 31.63H53.6767C53.0887 31.63 52.6267 31.81 52.2907 32.17C51.9667 32.53 51.8047 33.016 51.8047 33.628V39.784C51.8047 39.928 51.7387 40 51.6067 40ZM65.2341 40H63.6861C62.9061 40 62.2881 39.772 61.8321 39.316C61.3881 38.86 61.1661 38.236 61.1661 37.444V33.376C61.1661 32.584 61.3881 31.96 61.8321 31.504C62.2881 31.048 62.9061 30.82 63.6861 30.82H65.2341C66.0141 30.82 66.6321 31.048 67.0881 31.504C67.5441 31.96 67.7721 32.584 67.7721 33.376V37.444C67.7721 38.236 67.5441 38.86 67.0881 39.316C66.6321 39.772 66.0141 40 65.2341 40ZM63.7581 39.19H65.1621C65.7141 39.19 66.1341 39.04 66.4221 38.74C66.7221 38.428 66.8721 37.99 66.8721 37.426V33.394C66.8721 32.83 66.7221 32.398 66.4221 32.098C66.1341 31.786 65.7141 31.63 65.1621 31.63H63.7581C63.2061 31.63 62.7861 31.786 62.4981 32.098C62.2101 32.398 62.0661 32.83 62.0661 33.394V37.426C62.0661 37.99 62.2101 38.428 62.4981 38.74C62.7861 39.04 63.2061 39.19 63.7581 39.19ZM72.1658 30.82H73.8038C73.9478 30.82 74.0198 30.886 74.0198 31.018V31.432C74.0198 31.564 73.9478 31.63 73.8038 31.63H72.1658C72.0578 31.63 72.0038 31.684 72.0038 31.792V39.784C72.0038 39.928 71.9378 40 71.8058 40H71.2838C71.1518 40 71.0858 39.928 71.0858 39.784V31.792C71.0858 31.684 71.0318 31.63 70.9238 31.63H69.7718C69.6398 31.63 69.5738 31.564 69.5738 31.432V31.018C69.5738 30.886 69.6398 30.82 69.7718 30.82H70.9238C71.0318 30.82 71.0858 30.766 71.0858 30.658V29.866C71.0858 28.186 71.8478 27.346 73.3718 27.346H73.8038C73.9478 27.346 74.0198 27.412 74.0198 27.544V27.958C74.0198 28.09 73.9478 28.156 73.8038 28.156H73.4618C72.9218 28.156 72.5438 28.3 72.3278 28.588C72.1118 28.876 72.0038 29.314 72.0038 29.902V30.658C72.0038 30.766 72.0578 30.82 72.1658 30.82ZM81.7838 39.19H85.2398C85.7918 39.19 86.2118 39.04 86.4998 38.74C86.7998 38.428 86.9498 37.984 86.9498 37.408V31.018C86.9498 30.442 86.7998 30.004 86.4998 29.704C86.2118 29.392 85.7918 29.236 85.2398 29.236H81.7838C81.6638 29.236 81.6038 29.29 81.6038 29.398V39.028C81.6038 39.136 81.6638 39.19 81.7838 39.19ZM80.7038 39.784V28.642C80.7038 28.498 80.7638 28.426 80.8838 28.426H85.3298C86.1098 28.426 86.7218 28.654 87.1658 29.11C87.6218 29.566 87.8498 30.19 87.8498 30.982V37.444C87.8498 38.236 87.6218 38.86 87.1658 39.316C86.7218 39.772 86.1098 40 85.3298 40H80.8838C80.7638 40 80.7038 39.928 80.7038 39.784ZM94.0354 40H92.8834C92.1034 40 91.4854 39.772 91.0294 39.316C90.5854 38.86 90.3634 38.236 90.3634 37.444V33.376C90.3634 32.584 90.5854 31.96 91.0294 31.504C91.4854 31.048 92.1034 30.82 92.8834 30.82H96.6994C96.8194 30.82 96.8794 30.892 96.8794 31.036V39.784C96.8794 39.928 96.8194 40 96.6994 40H96.1774C96.0454 40 95.9794 39.928 95.9794 39.784V39.064H95.9074C95.5954 39.688 94.9714 40 94.0354 40ZM95.9794 37.426V31.792C95.9794 31.684 95.9194 31.63 95.7994 31.63H92.9554C92.4034 31.63 91.9834 31.786 91.6954 32.098C91.4074 32.41 91.2634 32.848 91.2634 33.412V37.408C91.2634 37.972 91.4074 38.41 91.6954 38.722C91.9834 39.034 92.4034 39.19 92.9554 39.19H94.1254C94.7014 39.19 95.1514 39.04 95.4754 38.74C95.8114 38.428 95.9794 37.99 95.9794 37.426ZM99.9745 31.63H98.8765C98.7445 31.63 98.6785 31.57 98.6785 31.45V31.018C98.6785 30.886 98.7445 30.82 98.8765 30.82H99.9745C100.083 30.82 100.137 30.766 100.137 30.658V29.2C100.137 29.056 100.203 28.984 100.335 28.984H100.857C100.989 28.984 101.055 29.056 101.055 29.2V30.658C101.055 30.766 101.109 30.82 101.217 30.82H103.359C103.491 30.82 103.557 30.886 103.557 31.018V31.45C103.557 31.57 103.491 31.63 103.359 31.63H101.217C101.109 31.63 101.055 31.684 101.055 31.792V37.462C101.055 38.014 101.211 38.44 101.523 38.74C101.835 39.04 102.273 39.19 102.837 39.19H103.539C103.671 39.19 103.737 39.256 103.737 39.388V39.802C103.737 39.934 103.671 40 103.539 40H102.765C101.973 40 101.337 39.778 100.857 39.334C100.377 38.89 100.137 38.278 100.137 37.498V31.792C100.137 31.684 100.083 31.63 99.9745 31.63ZM109.311 40H108.159C107.379 40 106.761 39.772 106.305 39.316C105.861 38.86 105.639 38.236 105.639 37.444V33.376C105.639 32.584 105.861 31.96 106.305 31.504C106.761 31.048 107.379 30.82 108.159 30.82H111.975C112.095 30.82 112.155 30.892 112.155 31.036V39.784C112.155 39.928 112.095 40 111.975 40H111.453C111.321 40 111.255 39.928 111.255 39.784V39.064H111.183C110.871 39.688 110.247 40 109.311 40ZM111.255 37.426V31.792C111.255 31.684 111.195 31.63 111.075 31.63H108.231C107.679 31.63 107.259 31.786 106.971 32.098C106.683 32.41 106.539 32.848 106.539 33.412V37.408C106.539 37.972 106.683 38.41 106.971 38.722C107.259 39.034 107.679 39.19 108.231 39.19H109.401C109.977 39.19 110.427 39.04 110.751 38.74C111.087 38.428 111.255 37.99 111.255 37.426ZM119.761 37.444V36.796C119.761 36.664 119.827 36.598 119.959 36.598H120.481C120.613 36.598 120.679 36.664 120.679 36.796V37.39C120.679 38.59 121.261 39.19 122.425 39.19H124.297C125.461 39.19 126.043 38.584 126.043 37.372V36.616C126.043 36.088 125.827 35.674 125.395 35.374C124.963 35.074 124.441 34.858 123.829 34.726C123.217 34.594 122.599 34.456 121.975 34.312C121.363 34.168 120.841 33.904 120.409 33.52C119.977 33.136 119.761 32.62 119.761 31.972V30.982C119.761 30.19 119.989 29.566 120.445 29.11C120.901 28.654 121.519 28.426 122.299 28.426H124.387C125.167 28.426 125.785 28.654 126.241 29.11C126.697 29.566 126.925 30.19 126.925 30.982V31.486C126.925 31.618 126.859 31.684 126.727 31.684H126.205C126.073 31.684 126.007 31.618 126.007 31.486V31.036C126.007 29.836 125.425 29.236 124.261 29.236H122.407C121.255 29.236 120.679 29.848 120.679 31.072V31.972C120.679 32.8 121.417 33.358 122.893 33.646C123.505 33.766 124.117 33.904 124.729 34.06C125.353 34.216 125.881 34.498 126.313 34.906C126.745 35.314 126.961 35.866 126.961 36.562V37.444C126.961 38.236 126.733 38.86 126.277 39.316C125.821 39.772 125.203 40 124.423 40H122.299C121.519 40 120.901 39.772 120.445 39.316C119.989 38.86 119.761 38.236 119.761 37.444ZM130.192 42.736H129.526C129.394 42.736 129.328 42.67 129.328 42.538V42.106C129.328 41.974 129.394 41.908 129.526 41.908H130.012C130.372 41.908 130.678 41.854 130.93 41.746C131.182 41.65 131.404 41.464 131.596 41.188C131.788 40.912 131.914 40.696 131.974 40.54C132.142 40.168 132.28 39.826 132.388 39.514H132.046C131.914 39.514 131.83 39.442 131.794 39.298L128.932 31.036C128.884 30.892 128.932 30.82 129.076 30.82H129.634C129.754 30.82 129.832 30.892 129.868 31.036L132.514 38.758H132.586L135.232 31.036C135.268 30.892 135.346 30.82 135.466 30.82H136.006C136.15 30.82 136.204 30.892 136.168 31.036C134.02 37.324 132.898 40.576 132.802 40.792C132.718 41.008 132.556 41.302 132.316 41.674C131.86 42.382 131.152 42.736 130.192 42.736ZM140.992 40H137.86C137.728 40 137.662 39.934 137.662 39.802V39.388C137.662 39.268 137.728 39.208 137.86 39.208H140.902C141.982 39.208 142.522 38.788 142.522 37.948V37.516C142.522 36.736 142.186 36.226 141.514 35.986L139.264 35.122C138.652 34.882 138.214 34.6 137.95 34.276C137.698 33.952 137.572 33.502 137.572 32.926C137.572 31.522 138.346 30.82 139.894 30.82H142.81C142.942 30.82 143.008 30.886 143.008 31.018V31.432C143.008 31.552 142.942 31.612 142.81 31.612H139.984C139.492 31.612 139.12 31.72 138.868 31.936C138.628 32.152 138.508 32.404 138.508 32.692V33.106C138.508 33.442 138.598 33.706 138.778 33.898C138.97 34.09 139.258 34.252 139.642 34.384L141.892 35.284C142.516 35.488 142.93 35.794 143.134 36.202C143.35 36.598 143.458 37.156 143.458 37.876C143.458 38.596 143.254 39.13 142.846 39.478C142.45 39.826 141.832 40 140.992 40ZM146.17 31.63H145.072C144.94 31.63 144.874 31.57 144.874 31.45V31.018C144.874 30.886 144.94 30.82 145.072 30.82H146.17C146.278 30.82 146.332 30.766 146.332 30.658V29.2C146.332 29.056 146.398 28.984 146.53 28.984H147.052C147.184 28.984 147.25 29.056 147.25 29.2V30.658C147.25 30.766 147.304 30.82 147.412 30.82H149.554C149.686 30.82 149.752 30.886 149.752 31.018V31.45C149.752 31.57 149.686 31.63 149.554 31.63H147.412C147.304 31.63 147.25 31.684 147.25 31.792V37.462C147.25 38.014 147.406 38.44 147.718 38.74C148.03 39.04 148.468 39.19 149.032 39.19H149.734C149.866 39.19 149.932 39.256 149.932 39.388V39.802C149.932 39.934 149.866 40 149.734 40H148.96C148.168 40 147.532 39.778 147.052 39.334C146.572 38.89 146.332 38.278 146.332 37.498V31.792C146.332 31.684 146.278 31.63 146.17 31.63ZM158.116 40H154.354C153.574 40 152.956 39.772 152.5 39.316C152.056 38.86 151.834 38.236 151.834 37.444V33.376C151.834 32.584 152.056 31.96 152.5 31.504C152.956 31.048 153.574 30.82 154.354 30.82H155.902C156.682 30.82 157.3 31.048 157.756 31.504C158.212 31.96 158.44 32.584 158.44 33.376V35.662C158.44 35.806 158.368 35.878 158.224 35.878H152.896C152.788 35.878 152.734 35.932 152.734 36.04V37.426C152.734 37.99 152.878 38.428 153.166 38.74C153.454 39.04 153.874 39.19 154.426 39.19H158.116C158.248 39.19 158.314 39.256 158.314 39.388V39.802C158.314 39.934 158.248 40 158.116 40ZM152.896 35.158H157.378C157.486 35.158 157.54 35.104 157.54 34.996V33.394C157.54 32.83 157.396 32.398 157.108 32.098C156.82 31.786 156.4 31.63 155.848 31.63H154.426C153.874 31.63 153.454 31.786 153.166 32.098C152.878 32.398 152.734 32.83 152.734 33.394V34.996C152.734 35.104 152.788 35.158 152.896 35.158ZM161.575 40H161.053C160.933 40 160.873 39.928 160.873 39.784V31.036C160.873 30.892 160.933 30.82 161.053 30.82H161.575C161.707 30.82 161.773 30.892 161.773 31.036V31.756H161.845C162.193 31.132 162.829 30.82 163.753 30.82H164.491C165.547 30.82 166.279 31.24 166.687 32.08C166.867 31.66 167.173 31.348 167.605 31.144C168.037 30.928 168.481 30.82 168.937 30.82H169.603C170.383 30.82 170.995 31.048 171.439 31.504C171.883 31.96 172.105 32.584 172.105 33.376V39.784C172.105 39.928 172.039 40 171.907 40H171.385C171.253 40 171.187 39.928 171.187 39.784V33.412C171.187 32.836 171.043 32.398 170.755 32.098C170.467 31.786 170.047 31.63 169.495 31.63H168.829C168.253 31.63 167.797 31.798 167.461 32.134C167.125 32.458 166.957 32.902 166.957 33.466V39.784C166.957 39.928 166.891 40 166.759 40H166.237C166.105 40 166.039 39.928 166.039 39.784V33.412C166.039 32.836 165.895 32.398 165.607 32.098C165.319 31.786 164.899 31.63 164.347 31.63H163.627C163.051 31.63 162.595 31.786 162.259 32.098C161.935 32.398 161.773 32.83 161.773 33.394V39.784C161.773 39.928 161.707 40 161.575 40ZM177.677 40H174.545C174.413 40 174.347 39.934 174.347 39.802V39.388C174.347 39.268 174.413 39.208 174.545 39.208H177.587C178.667 39.208 179.207 38.788 179.207 37.948V37.516C179.207 36.736 178.871 36.226 178.199 35.986L175.949 35.122C175.337 34.882 174.899 34.6 174.635 34.276C174.383 33.952 174.257 33.502 174.257 32.926C174.257 31.522 175.031 30.82 176.579 30.82H179.495C179.627 30.82 179.693 30.886 179.693 31.018V31.432C179.693 31.552 179.627 31.612 179.495 31.612H176.669C176.177 31.612 175.805 31.72 175.553 31.936C175.313 32.152 175.193 32.404 175.193 32.692V33.106C175.193 33.442 175.283 33.706 175.463 33.898C175.655 34.09 175.943 34.252 176.327 34.384L178.577 35.284C179.201 35.488 179.615 35.794 179.819 36.202C180.035 36.598 180.143 37.156 180.143 37.876C180.143 38.596 179.939 39.13 179.531 39.478C179.135 39.826 178.517 40 177.677 40ZM189.796 28.588V28.984C189.796 29.104 189.73 29.164 189.598 29.164H189.544C188.968 29.164 188.524 29.338 188.212 29.686C187.9 30.022 187.744 30.508 187.744 31.144V39.118C187.744 39.754 187.9 40.24 188.212 40.576C188.524 40.924 188.968 41.098 189.544 41.098H189.598C189.73 41.098 189.796 41.158 189.796 41.278V41.674C189.796 41.782 189.73 41.836 189.598 41.836H189.544C188.74 41.836 188.098 41.59 187.618 41.098C187.15 40.618 186.916 39.94 186.916 39.064V31.198C186.916 30.322 187.15 29.644 187.618 29.164C188.098 28.672 188.74 28.426 189.544 28.426H189.616C189.736 28.426 189.796 28.48 189.796 28.588ZM197.144 40H194.876C194.096 40 193.478 39.772 193.022 39.316C192.578 38.86 192.356 38.236 192.356 37.444V30.982C192.356 30.19 192.578 29.566 193.022 29.11C193.478 28.654 194.096 28.426 194.876 28.426H197.144C197.924 28.426 198.536 28.654 198.98 29.11C199.436 29.566 199.664 30.19 199.664 30.982V31.864C199.664 32.008 199.598 32.08 199.466 32.08H198.962C198.83 32.08 198.764 32.008 198.764 31.864V31.018C198.764 30.442 198.614 30.004 198.314 29.704C198.026 29.392 197.606 29.236 197.054 29.236H194.948C194.396 29.236 193.976 29.392 193.688 29.704C193.4 30.016 193.256 30.454 193.256 31.018V37.408C193.256 37.972 193.4 38.41 193.688 38.722C193.976 39.034 194.396 39.19 194.948 39.19H197.054C197.606 39.19 198.026 39.04 198.314 38.74C198.614 38.428 198.764 37.984 198.764 37.408V36.562C198.764 36.418 198.83 36.346 198.962 36.346H199.466C199.598 36.346 199.664 36.418 199.664 36.562V37.444C199.664 38.236 199.436 38.86 198.98 39.316C198.536 39.772 197.924 40 197.144 40ZM203.372 39.19H206.828C207.38 39.19 207.8 39.04 208.088 38.74C208.388 38.428 208.538 37.984 208.538 37.408V31.018C208.538 30.442 208.388 30.004 208.088 29.704C207.8 29.392 207.38 29.236 206.828 29.236H203.372C203.252 29.236 203.192 29.29 203.192 29.398V39.028C203.192 39.136 203.252 39.19 203.372 39.19ZM202.292 39.784V28.642C202.292 28.498 202.352 28.426 202.472 28.426H206.918C207.698 28.426 208.31 28.654 208.754 29.11C209.21 29.566 209.438 30.19 209.438 30.982V37.444C209.438 38.236 209.21 38.86 208.754 39.316C208.31 39.772 207.698 40 206.918 40H202.472C202.352 40 202.292 39.928 202.292 39.784ZM214.723 39.19H216.775C217.327 39.19 217.747 39.04 218.035 38.74C218.335 38.428 218.485 37.984 218.485 37.408V31.018C218.485 30.442 218.335 30.004 218.035 29.704C217.747 29.392 217.327 29.236 216.775 29.236H214.723C214.171 29.236 213.751 29.392 213.463 29.704C213.175 30.016 213.031 30.454 213.031 31.018V37.408C213.031 37.972 213.175 38.41 213.463 38.722C213.751 39.034 214.171 39.19 214.723 39.19ZM216.865 40H214.651C213.871 40 213.253 39.772 212.797 39.316C212.353 38.86 212.131 38.236 212.131 37.444V30.982C212.131 30.19 212.353 29.566 212.797 29.11C213.253 28.654 213.871 28.426 214.651 28.426H216.865C217.645 28.426 218.257 28.654 218.701 29.11C219.157 29.566 219.385 30.19 219.385 30.982V37.444C219.385 38.236 219.157 38.86 218.701 39.316C218.257 39.772 217.645 40 216.865 40ZM221.738 41.674V41.278C221.738 41.158 221.81 41.098 221.954 41.098H222.008C222.584 41.098 223.028 40.924 223.34 40.576C223.652 40.24 223.808 39.754 223.808 39.118V31.144C223.808 30.508 223.652 30.022 223.34 29.686C223.028 29.338 222.584 29.164 222.008 29.164H221.954C221.81 29.164 221.738 29.104 221.738 28.984V28.588C221.738 28.48 221.81 28.426 221.954 28.426H222.008C222.8 28.426 223.43 28.672 223.898 29.164C224.378 29.644 224.618 30.322 224.618 31.198V39.064C224.618 39.94 224.378 40.618 223.898 41.098C223.43 41.59 222.8 41.836 222.008 41.836H221.954C221.81 41.836 221.738 41.782 221.738 41.674Z" fill="#5A5A5A"/>
</svg>
