<svg width="176" height="43" viewBox="0 0 176 43" fill="none" xmlns="http://www.w3.org/2000/svg">
<path d="M3.872 14.36H6.488C7 14.36 7.36 14.256 7.568 14.048C7.792 13.824 7.904 13.456 7.904 12.944V5.624C7.904 5.112 7.792 4.752 7.568 4.544C7.36 4.32 7 4.208 6.488 4.208H3.872C3.696 4.208 3.608 4.296 3.608 4.472V14.096C3.608 14.272 3.696 14.36 3.872 14.36ZM0.56 16.496V2.072C0.56 1.736 0.728 1.568 1.064 1.568H6.992C8.24 1.568 9.208 1.912 9.896 2.6C10.6 3.272 10.952 4.232 10.952 5.48V13.088C10.952 14.336 10.6 15.304 9.896 15.992C9.208 16.664 8.24 17 6.992 17H1.064C0.728 17 0.56 16.832 0.56 16.496ZM17.8816 17H17.3056C16.0416 17 15.0656 16.664 14.3776 15.992C13.6896 15.32 13.3456 14.352 13.3456 13.088V8.672C13.3456 7.408 13.6896 6.44 14.3776 5.768C15.0656 5.096 16.0416 4.76 17.3056 4.76H22.8496C23.2016 4.76 23.3776 4.928 23.3776 5.264V16.496C23.3776 16.832 23.2016 17 22.8496 17H20.8336C20.4976 17 20.3296 16.832 20.3296 16.496V15.704H20.2336C20.0576 16.136 19.7456 16.464 19.2976 16.688C18.8496 16.896 18.3776 17 17.8816 17ZM20.3296 12.536V7.664C20.3296 7.488 20.2336 7.4 20.0416 7.4H17.7856C17.2736 7.4 16.9136 7.512 16.7056 7.736C16.4976 7.944 16.3936 8.304 16.3936 8.816V12.944C16.3936 13.456 16.4976 13.824 16.7056 14.048C16.9136 14.256 17.2736 14.36 17.7856 14.36H18.6736C19.7776 14.36 20.3296 13.752 20.3296 12.536ZM25.4795 4.76H27.5915C27.9115 4.76 28.1035 4.928 28.1675 5.264L30.2315 14.288H30.3995L32.4155 5.264C32.4795 4.928 32.6795 4.76 33.0155 4.76H35.1275C35.4635 4.76 35.5835 4.928 35.4875 5.264L32.4635 16.472C32.3995 16.824 32.1835 17 31.8155 17H28.7675C28.4315 17 28.2155 16.824 28.1195 16.472L25.1195 5.264C25.0235 4.928 25.1435 4.76 25.4795 4.76ZM46.2581 17H40.9541C39.6901 17 38.7141 16.664 38.0261 15.992C37.3381 15.32 36.9941 14.352 36.9941 13.088V8.672C36.9941 7.408 37.3381 6.44 38.0261 5.768C38.7141 5.096 39.6901 4.76 40.9541 4.76H42.8501C44.1141 4.76 45.0901 5.096 45.7781 5.768C46.4661 6.44 46.8101 7.408 46.8101 8.672V11.72C46.8101 12.056 46.6421 12.224 46.3061 12.224H40.2821C40.0901 12.224 39.9941 12.312 39.9941 12.488V13.016C39.9941 13.512 40.0981 13.872 40.3061 14.096C40.5301 14.304 40.8981 14.408 41.4101 14.408H46.2581C46.5941 14.408 46.7621 14.584 46.7621 14.936V16.52C46.7621 16.696 46.7221 16.824 46.6421 16.904C46.5781 16.968 46.4501 17 46.2581 17ZM40.2821 10.184H43.5461C43.7221 10.184 43.8101 10.096 43.8101 9.92V8.768C43.8101 8.256 43.7061 7.896 43.4981 7.688C43.2901 7.48 42.9301 7.376 42.4181 7.376H41.4101C40.8981 7.376 40.5381 7.48 40.3301 7.688C40.1221 7.896 40.0181 8.256 40.0181 8.768V9.92C40.0181 10.096 40.1061 10.184 40.2821 10.184ZM51.6374 17H49.5974C49.2614 17 49.0934 16.832 49.0934 16.496V5.264C49.0934 4.928 49.2614 4.76 49.5974 4.76H51.6374C51.9734 4.76 52.1414 4.928 52.1414 5.264V6.056H52.2374C52.5894 5.192 53.3734 4.76 54.5894 4.76H55.3574C57.8694 4.76 59.1254 6.064 59.1254 8.672V16.496C59.1254 16.832 58.9494 17 58.5974 17H56.5814C56.2454 17 56.0774 16.832 56.0774 16.496V8.816C56.0774 8.304 55.9654 7.944 55.7414 7.736C55.5334 7.512 55.1734 7.4 54.6614 7.4H53.7974C52.6934 7.4 52.1414 8.008 52.1414 9.224V16.496C52.1414 16.832 51.9734 17 51.6374 17ZM75.5214 17H67.6734C67.3374 17 67.1694 16.832 67.1694 16.496V2.072C67.1694 1.736 67.3374 1.568 67.6734 1.568H75.5214C75.8414 1.568 76.0014 1.736 76.0014 2.072V3.704C76.0014 4.04 75.8414 4.208 75.5214 4.208H70.5054C70.3134 4.208 70.2174 4.296 70.2174 4.472V7.592C70.2174 7.768 70.3134 7.856 70.5054 7.856H74.6094C74.9454 7.856 75.1134 8.024 75.1134 8.36V9.992C75.1134 10.328 74.9454 10.496 74.6094 10.496H70.5054C70.3134 10.496 70.2174 10.584 70.2174 10.76V14.096C70.2174 14.272 70.3134 14.36 70.5054 14.36H75.5214C75.8414 14.36 76.0014 14.528 76.0014 14.864V16.496C76.0014 16.832 75.8414 17 75.5214 17ZM82.7098 17H82.1338C80.8698 17 79.8938 16.664 79.2058 15.992C78.5178 15.32 78.1738 14.352 78.1738 13.088V8.672C78.1738 7.408 78.5178 6.44 79.2058 5.768C79.8938 5.096 80.8698 4.76 82.1338 4.76H87.6778C88.0298 4.76 88.2058 4.928 88.2058 5.264V16.496C88.2058 16.832 88.0298 17 87.6778 17H85.6618C85.3258 17 85.1578 16.832 85.1578 16.496V15.704H85.0618C84.8858 16.136 84.5738 16.464 84.1258 16.688C83.6778 16.896 83.2058 17 82.7098 17ZM85.1578 12.536V7.664C85.1578 7.488 85.0618 7.4 84.8698 7.4H82.6138C82.1018 7.4 81.7418 7.512 81.5338 7.736C81.3258 7.944 81.2218 8.304 81.2218 8.816V12.944C81.2218 13.456 81.3258 13.824 81.5338 14.048C81.7418 14.256 82.1018 14.36 82.6138 14.36H83.5018C84.6058 14.36 85.1578 13.752 85.1578 12.536ZM93.3796 17H91.3396C91.0036 17 90.8356 16.832 90.8356 16.496V5.264C90.8356 4.928 91.0036 4.76 91.3396 4.76H93.3796C93.7156 4.76 93.8836 4.928 93.8836 5.264V6.08H93.9796C94.1556 5.648 94.4676 5.32 94.9156 5.096C95.3636 4.872 95.8356 4.76 96.3316 4.76H97.1956C97.5156 4.76 97.6756 4.928 97.6756 5.264V6.92C97.6756 7.112 97.6356 7.248 97.5556 7.328C97.4916 7.392 97.3716 7.416 97.1956 7.4H95.5396C94.4356 7.4 93.8836 8.024 93.8836 9.272V16.496C93.8836 16.832 93.7156 17 93.3796 17ZM101.867 17H99.8268C99.4908 17 99.3228 16.832 99.3228 16.496V0.631999C99.3228 0.296 99.4908 0.128 99.8268 0.128H101.867C102.203 0.128 102.371 0.296 102.371 0.631999V16.496C102.371 16.832 102.203 17 101.867 17ZM113.958 14.456H116.646C117.174 14.456 117.55 14.352 117.774 14.144C118.014 13.92 118.134 13.56 118.134 13.064V11.672C118.134 11.176 118.014 10.824 117.774 10.616C117.534 10.408 117.142 10.304 116.598 10.304H113.958C113.782 10.304 113.694 10.392 113.694 10.568V14.192C113.694 14.368 113.782 14.456 113.958 14.456ZM113.958 7.832H116.406C116.918 7.832 117.294 7.728 117.534 7.52C117.774 7.296 117.894 6.936 117.894 6.44V5.504C117.894 5.008 117.774 4.656 117.534 4.448C117.31 4.224 116.942 4.112 116.43 4.112H113.958C113.782 4.112 113.694 4.2 113.694 4.376V7.568C113.694 7.744 113.782 7.832 113.958 7.832ZM110.646 16.496V2.072C110.646 1.736 110.814 1.568 111.15 1.568H116.91C118.174 1.568 119.15 1.904 119.838 2.576C120.526 3.248 120.87 4.208 120.87 5.456V6.44C120.87 7.8 120.238 8.68 118.974 9.08C119.614 9.176 120.126 9.44 120.51 9.872C120.894 10.288 121.086 10.888 121.086 11.672V13.112C121.086 14.36 120.742 15.32 120.054 15.992C119.366 16.664 118.398 17 117.15 17H111.15C110.814 17 110.646 16.832 110.646 16.496ZM132.742 17H127.438C126.174 17 125.198 16.664 124.51 15.992C123.822 15.32 123.478 14.352 123.478 13.088V8.672C123.478 7.408 123.822 6.44 124.51 5.768C125.198 5.096 126.174 4.76 127.438 4.76H129.334C130.598 4.76 131.574 5.096 132.262 5.768C132.95 6.44 133.294 7.408 133.294 8.672V11.72C133.294 12.056 133.126 12.224 132.79 12.224H126.766C126.574 12.224 126.478 12.312 126.478 12.488V13.016C126.478 13.512 126.582 13.872 126.79 14.096C127.014 14.304 127.382 14.408 127.894 14.408H132.742C133.078 14.408 133.246 14.584 133.246 14.936V16.52C133.246 16.696 133.206 16.824 133.126 16.904C133.062 16.968 132.934 17 132.742 17ZM126.766 10.184H130.03C130.206 10.184 130.294 10.096 130.294 9.92V8.768C130.294 8.256 130.19 7.896 129.982 7.688C129.774 7.48 129.414 7.376 128.902 7.376H127.894C127.382 7.376 127.022 7.48 126.814 7.688C126.606 7.896 126.502 8.256 126.502 8.768V9.92C126.502 10.096 126.59 10.184 126.766 10.184ZM138.242 17H136.202C135.866 17 135.698 16.832 135.698 16.496V0.631999C135.698 0.296 135.866 0.128 136.202 0.128H138.242C138.578 0.128 138.746 0.296 138.746 0.631999V16.496C138.746 16.832 138.578 17 138.242 17ZM144.172 17H142.132C141.796 17 141.628 16.832 141.628 16.496V0.631999C141.628 0.296 141.796 0.128 142.132 0.128H144.172C144.508 0.128 144.676 0.296 144.676 0.631999V16.496C144.676 16.832 144.508 17 144.172 17ZM156.461 17H151.157C149.893 17 148.917 16.664 148.229 15.992C147.541 15.32 147.197 14.352 147.197 13.088V8.672C147.197 7.408 147.541 6.44 148.229 5.768C148.917 5.096 149.893 4.76 151.157 4.76H153.053C154.317 4.76 155.293 5.096 155.981 5.768C156.669 6.44 157.013 7.408 157.013 8.672V11.72C157.013 12.056 156.845 12.224 156.509 12.224H150.485C150.293 12.224 150.197 12.312 150.197 12.488V13.016C150.197 13.512 150.301 13.872 150.509 14.096C150.733 14.304 151.101 14.408 151.613 14.408H156.461C156.797 14.408 156.965 14.584 156.965 14.936V16.52C156.965 16.696 156.925 16.824 156.845 16.904C156.781 16.968 156.653 17 156.461 17ZM150.485 10.184H153.749C153.925 10.184 154.013 10.096 154.013 9.92V8.768C154.013 8.256 153.909 7.896 153.701 7.688C153.493 7.48 153.133 7.376 152.621 7.376H151.613C151.101 7.376 150.741 7.48 150.533 7.688C150.325 7.896 150.221 8.256 150.221 8.768V9.92C150.221 10.096 150.309 10.184 150.485 10.184ZM161.841 17H159.801C159.465 17 159.297 16.832 159.297 16.496V5.264C159.297 4.928 159.465 4.76 159.801 4.76H161.841C162.177 4.76 162.345 4.928 162.345 5.264V6.056H162.441C162.793 5.192 163.577 4.76 164.793 4.76H165.561C168.073 4.76 169.329 6.064 169.329 8.672V16.496C169.329 16.832 169.153 17 168.801 17H166.785C166.449 17 166.281 16.832 166.281 16.496V8.816C166.281 8.304 166.169 7.944 165.945 7.736C165.737 7.512 165.377 7.4 164.865 7.4H164.001C162.897 7.4 162.345 8.008 162.345 9.224V16.496C162.345 16.832 162.177 17 161.841 17ZM1.61 39.19H5.066C5.618 39.19 6.038 39.04 6.326 38.74C6.626 38.428 6.776 37.984 6.776 37.408V31.018C6.776 30.442 6.626 30.004 6.326 29.704C6.038 29.392 5.618 29.236 5.066 29.236H1.61C1.49 29.236 1.43 29.29 1.43 29.398V39.028C1.43 39.136 1.49 39.19 1.61 39.19ZM0.53 39.784V28.642C0.53 28.498 0.59 28.426 0.71 28.426H5.156C5.936 28.426 6.548 28.654 6.992 29.11C7.448 29.566 7.676 30.19 7.676 30.982V37.444C7.676 38.236 7.448 38.86 6.992 39.316C6.548 39.772 5.936 40 5.156 40H0.71C0.59 40 0.53 39.928 0.53 39.784ZM16.4715 40H12.7095C11.9295 40 11.3115 39.772 10.8555 39.316C10.4115 38.86 10.1895 38.236 10.1895 37.444V33.376C10.1895 32.584 10.4115 31.96 10.8555 31.504C11.3115 31.048 11.9295 30.82 12.7095 30.82H14.2575C15.0375 30.82 15.6555 31.048 16.1115 31.504C16.5675 31.96 16.7955 32.584 16.7955 33.376V35.662C16.7955 35.806 16.7235 35.878 16.5795 35.878H11.2515C11.1435 35.878 11.0895 35.932 11.0895 36.04V37.426C11.0895 37.99 11.2335 38.428 11.5215 38.74C11.8095 39.04 12.2295 39.19 12.7815 39.19H16.4715C16.6035 39.19 16.6695 39.256 16.6695 39.388V39.802C16.6695 39.934 16.6035 40 16.4715 40ZM11.2515 35.158H15.7335C15.8415 35.158 15.8955 35.104 15.8955 34.996V33.394C15.8955 32.83 15.7515 32.398 15.4635 32.098C15.1755 31.786 14.7555 31.63 14.2035 31.63H12.7815C12.2295 31.63 11.8095 31.786 11.5215 32.098C11.2335 32.398 11.0895 32.83 11.0895 33.394V34.996C11.0895 35.104 11.1435 35.158 11.2515 35.158ZM19.9309 42.682H19.4089C19.2889 42.682 19.2289 42.616 19.2289 42.484V31.036C19.2289 30.892 19.2889 30.82 19.4089 30.82H19.9309C20.0629 30.82 20.1289 30.892 20.1289 31.036V31.756H20.2009C20.5369 31.132 21.1609 30.82 22.0729 30.82H23.2969C24.0649 30.82 24.6709 31.048 25.1149 31.504C25.5589 31.96 25.7809 32.584 25.7809 33.376V37.444C25.7809 38.236 25.5589 38.86 25.1149 39.316C24.6709 39.772 24.0649 40 23.2969 40H22.0729C21.1609 40 20.5369 39.688 20.2009 39.064H20.1289V42.484C20.1289 42.616 20.0629 42.682 19.9309 42.682ZM21.9829 39.19H23.1709C23.7229 39.19 24.1429 39.04 24.4309 38.74C24.7309 38.428 24.8809 37.984 24.8809 37.408V33.412C24.8809 32.836 24.7309 32.398 24.4309 32.098C24.1429 31.786 23.7229 31.63 23.1709 31.63H21.9829C21.4069 31.63 20.9509 31.786 20.6149 32.098C20.2909 32.398 20.1289 32.83 20.1289 33.394V37.426C20.1289 37.99 20.2909 38.428 20.6149 38.74C20.9509 39.04 21.4069 39.19 21.9829 39.19ZM31.8812 40H30.6932C29.9252 40 29.3192 39.772 28.8752 39.316C28.4312 38.86 28.2092 38.236 28.2092 37.444V31.036C28.2092 30.892 28.2692 30.82 28.3892 30.82H28.9112C29.0432 30.82 29.1092 30.892 29.1092 31.036V37.408C29.1092 37.972 29.2532 38.41 29.5412 38.722C29.8292 39.034 30.2492 39.19 30.8012 39.19H31.9712C32.5472 39.19 32.9972 39.04 33.3212 38.74C33.6572 38.428 33.8252 37.99 33.8252 37.426V31.036C33.8252 30.892 33.8912 30.82 34.0232 30.82H34.5452C34.6652 30.82 34.7252 30.892 34.7252 31.036V39.784C34.7252 39.928 34.6652 40 34.5452 40H34.0232C33.8912 40 33.8252 39.928 33.8252 39.784V39.064H33.7532C33.4412 39.688 32.8172 40 31.8812 40ZM37.8183 31.63H36.7203C36.5883 31.63 36.5223 31.57 36.5223 31.45V31.018C36.5223 30.886 36.5883 30.82 36.7203 30.82H37.8183C37.9263 30.82 37.9803 30.766 37.9803 30.658V29.2C37.9803 29.056 38.0463 28.984 38.1783 28.984H38.7003C38.8323 28.984 38.8983 29.056 38.8983 29.2V30.658C38.8983 30.766 38.9523 30.82 39.0603 30.82H41.2023C41.3343 30.82 41.4003 30.886 41.4003 31.018V31.45C41.4003 31.57 41.3343 31.63 41.2023 31.63H39.0603C38.9523 31.63 38.8983 31.684 38.8983 31.792V37.462C38.8983 38.014 39.0543 38.44 39.3663 38.74C39.6783 39.04 40.1163 39.19 40.6803 39.19H41.3823C41.5143 39.19 41.5803 39.256 41.5803 39.388V39.802C41.5803 39.934 41.5143 40 41.3823 40H40.6083C39.8163 40 39.1803 39.778 38.7003 39.334C38.2203 38.89 37.9803 38.278 37.9803 37.498V31.792C37.9803 31.684 37.9263 31.63 37.8183 31.63ZM44.0945 42.736H43.4285C43.2965 42.736 43.2305 42.67 43.2305 42.538V42.106C43.2305 41.974 43.2965 41.908 43.4285 41.908H43.9145C44.2745 41.908 44.5805 41.854 44.8325 41.746C45.0845 41.65 45.3065 41.464 45.4985 41.188C45.6905 40.912 45.8165 40.696 45.8765 40.54C46.0445 40.168 46.1825 39.826 46.2905 39.514H45.9485C45.8165 39.514 45.7325 39.442 45.6965 39.298L42.8345 31.036C42.7865 30.892 42.8345 30.82 42.9785 30.82H43.5365C43.6565 30.82 43.7345 30.892 43.7705 31.036L46.4165 38.758H46.4885L49.1345 31.036C49.1705 30.892 49.2485 30.82 49.3685 30.82H49.9085C50.0525 30.82 50.1065 30.892 50.0705 31.036C47.9225 37.324 46.8005 40.576 46.7045 40.792C46.6205 41.008 46.4585 41.302 46.2185 41.674C45.7625 42.382 45.0545 42.736 44.0945 42.736ZM57.983 39.19H61.439C61.991 39.19 62.411 39.04 62.699 38.74C62.999 38.428 63.149 37.984 63.149 37.408V31.018C63.149 30.442 62.999 30.004 62.699 29.704C62.411 29.392 61.991 29.236 61.439 29.236H57.983C57.863 29.236 57.803 29.29 57.803 29.398V39.028C57.803 39.136 57.863 39.19 57.983 39.19ZM56.903 39.784V28.642C56.903 28.498 56.963 28.426 57.083 28.426H61.529C62.309 28.426 62.921 28.654 63.365 29.11C63.821 29.566 64.049 30.19 64.049 30.982V37.444C64.049 38.236 63.821 38.86 63.365 39.316C62.921 39.772 62.309 40 61.529 40H57.083C56.963 40 56.903 39.928 56.903 39.784ZM72.8446 40H69.0826C68.3026 40 67.6846 39.772 67.2286 39.316C66.7846 38.86 66.5626 38.236 66.5626 37.444V33.376C66.5626 32.584 66.7846 31.96 67.2286 31.504C67.6846 31.048 68.3026 30.82 69.0826 30.82H70.6306C71.4106 30.82 72.0286 31.048 72.4846 31.504C72.9406 31.96 73.1686 32.584 73.1686 33.376V35.662C73.1686 35.806 73.0966 35.878 72.9526 35.878H67.6246C67.5166 35.878 67.4626 35.932 67.4626 36.04V37.426C67.4626 37.99 67.6066 38.428 67.8946 38.74C68.1826 39.04 68.6026 39.19 69.1546 39.19H72.8446C72.9766 39.19 73.0426 39.256 73.0426 39.388V39.802C73.0426 39.934 72.9766 40 72.8446 40ZM67.6246 35.158H72.1066C72.2146 35.158 72.2686 35.104 72.2686 34.996V33.394C72.2686 32.83 72.1246 32.398 71.8366 32.098C71.5486 31.786 71.1286 31.63 70.5766 31.63H69.1546C68.6026 31.63 68.1826 31.786 67.8946 32.098C67.6066 32.398 67.4626 32.83 67.4626 33.394V34.996C67.4626 35.104 67.5166 35.158 67.6246 35.158ZM74.756 30.82H75.314C75.434 30.82 75.512 30.892 75.548 31.036L77.96 38.992H78.032L80.426 31.036C80.474 30.892 80.552 30.82 80.66 30.82H81.236C81.368 30.82 81.41 30.892 81.362 31.036L78.644 39.784C78.608 39.928 78.524 40 78.392 40H77.6C77.468 40 77.378 39.928 77.33 39.784L74.612 31.036C74.576 30.892 74.624 30.82 74.756 30.82ZM85.6822 39.19H87.7342C88.2862 39.19 88.7062 39.04 88.9942 38.74C89.2942 38.428 89.4442 37.984 89.4442 37.408V31.018C89.4442 30.442 89.2942 30.004 88.9942 29.704C88.7062 29.392 88.2862 29.236 87.7342 29.236H85.6822C85.1302 29.236 84.7102 29.392 84.4222 29.704C84.1342 30.016 83.9902 30.454 83.9902 31.018V37.408C83.9902 37.972 84.1342 38.41 84.4222 38.722C84.7102 39.034 85.1302 39.19 85.6822 39.19ZM87.8242 40H85.6102C84.8302 40 84.2122 39.772 83.7562 39.316C83.3122 38.86 83.0902 38.236 83.0902 37.444V30.982C83.0902 30.19 83.3122 29.566 83.7562 29.11C84.2122 28.654 84.8302 28.426 85.6102 28.426H87.8242C88.6042 28.426 89.2162 28.654 89.6602 29.11C90.1162 29.566 90.3442 30.19 90.3442 30.982V37.444C90.3442 38.236 90.1162 38.86 89.6602 39.316C89.2162 39.772 88.6042 40 87.8242 40ZM93.7415 42.682H93.2195C93.0995 42.682 93.0395 42.616 93.0395 42.484V31.036C93.0395 30.892 93.0995 30.82 93.2195 30.82H93.7415C93.8735 30.82 93.9395 30.892 93.9395 31.036V31.756H94.0115C94.3475 31.132 94.9715 30.82 95.8835 30.82H97.1075C97.8755 30.82 98.4815 31.048 98.9255 31.504C99.3695 31.96 99.5915 32.584 99.5915 33.376V37.444C99.5915 38.236 99.3695 38.86 98.9255 39.316C98.4815 39.772 97.8755 40 97.1075 40H95.8835C94.9715 40 94.3475 39.688 94.0115 39.064H93.9395V42.484C93.9395 42.616 93.8735 42.682 93.7415 42.682ZM95.7935 39.19H96.9815C97.5335 39.19 97.9535 39.04 98.2415 38.74C98.5415 38.428 98.6915 37.984 98.6915 37.408V33.412C98.6915 32.836 98.5415 32.398 98.2415 32.098C97.9535 31.786 97.5335 31.63 96.9815 31.63H95.7935C95.2175 31.63 94.7615 31.786 94.4255 32.098C94.1015 32.398 93.9395 32.83 93.9395 33.394V37.426C93.9395 37.99 94.1015 38.428 94.4255 38.74C94.7615 39.04 95.2175 39.19 95.7935 39.19ZM105.08 40H101.948C101.816 40 101.75 39.934 101.75 39.802V39.388C101.75 39.268 101.816 39.208 101.948 39.208H104.99C106.07 39.208 106.61 38.788 106.61 37.948V37.516C106.61 36.736 106.274 36.226 105.602 35.986L103.352 35.122C102.74 34.882 102.302 34.6 102.038 34.276C101.786 33.952 101.66 33.502 101.66 32.926C101.66 31.522 102.434 30.82 103.982 30.82H106.898C107.03 30.82 107.096 30.886 107.096 31.018V31.432C107.096 31.552 107.03 31.612 106.898 31.612H104.072C103.58 31.612 103.208 31.72 102.956 31.936C102.716 32.152 102.596 32.404 102.596 32.692V33.106C102.596 33.442 102.686 33.706 102.866 33.898C103.058 34.09 103.346 34.252 103.73 34.384L105.98 35.284C106.604 35.488 107.018 35.794 107.222 36.202C107.438 36.598 107.546 37.156 107.546 37.876C107.546 38.596 107.342 39.13 106.934 39.478C106.538 39.826 105.92 40 105.08 40ZM120.583 40H115.021C114.901 40 114.841 39.928 114.841 39.784V28.642C114.841 28.498 114.901 28.426 115.021 28.426H120.583C120.727 28.426 120.799 28.492 120.799 28.624V29.038C120.799 29.17 120.727 29.236 120.583 29.236H115.921C115.801 29.236 115.741 29.29 115.741 29.398V33.538C115.741 33.646 115.801 33.7 115.921 33.7H120.079C120.211 33.7 120.277 33.766 120.277 33.898V34.312C120.277 34.444 120.211 34.51 120.079 34.51H115.921C115.801 34.51 115.741 34.564 115.741 34.672V39.028C115.741 39.136 115.801 39.19 115.921 39.19H120.583C120.727 39.19 120.799 39.256 120.799 39.388V39.802C120.799 39.934 120.727 40 120.583 40ZM124.029 40H123.507C123.387 40 123.327 39.928 123.327 39.784V31.036C123.327 30.892 123.387 30.82 123.507 30.82H124.029C124.161 30.82 124.227 30.892 124.227 31.036V31.756H124.299C124.635 31.132 125.259 30.82 126.171 30.82H127.359C128.127 30.82 128.733 31.048 129.177 31.504C129.621 31.96 129.843 32.584 129.843 33.376V39.784C129.843 39.928 129.783 40 129.663 40H129.141C129.009 40 128.943 39.928 128.943 39.784V33.412C128.943 32.848 128.799 32.41 128.511 32.098C128.223 31.786 127.803 31.63 127.251 31.63H126.081C125.505 31.63 125.049 31.786 124.713 32.098C124.389 32.398 124.227 32.83 124.227 33.394V39.784C124.227 39.928 124.161 40 124.029 40ZM136.014 39.478H134.844C134.076 39.478 133.464 39.25 133.008 38.794C132.564 38.338 132.342 37.72 132.342 36.94V33.376C132.342 32.584 132.564 31.96 133.008 31.504C133.464 31.048 134.082 30.82 134.862 30.82H138.678C138.81 30.82 138.876 30.892 138.876 31.036V39.964C138.876 40.756 138.648 41.38 138.192 41.836C137.736 42.292 137.118 42.52 136.338 42.52H133.062C132.93 42.52 132.864 42.454 132.864 42.322V41.89C132.864 41.77 132.93 41.71 133.062 41.71H136.266C136.818 41.71 137.238 41.554 137.526 41.242C137.814 40.942 137.958 40.504 137.958 39.928V38.542H137.886C137.586 39.166 136.962 39.478 136.014 39.478ZM137.958 36.904V31.792C137.958 31.684 137.904 31.63 137.796 31.63H134.952C134.4 31.63 133.974 31.786 133.674 32.098C133.386 32.398 133.242 32.836 133.242 33.412V36.904C133.242 37.468 133.386 37.906 133.674 38.218C133.974 38.518 134.4 38.668 134.952 38.668H136.104C136.68 38.668 137.13 38.518 137.454 38.218C137.79 37.906 137.958 37.468 137.958 36.904ZM141.645 29.308V27.58C141.645 27.448 141.705 27.382 141.825 27.382H142.365C142.485 27.382 142.545 27.448 142.545 27.58V29.308C142.545 29.452 142.485 29.524 142.365 29.524H141.825C141.705 29.524 141.645 29.452 141.645 29.308ZM141.645 39.784V31.036C141.645 30.892 141.705 30.82 141.825 30.82H142.347C142.479 30.82 142.545 30.892 142.545 31.036V39.784C142.545 39.928 142.485 40 142.365 40H141.825C141.705 40 141.645 39.928 141.645 39.784ZM146.036 40H145.514C145.394 40 145.334 39.928 145.334 39.784V31.036C145.334 30.892 145.394 30.82 145.514 30.82H146.036C146.168 30.82 146.234 30.892 146.234 31.036V31.756H146.306C146.642 31.132 147.266 30.82 148.178 30.82H149.366C150.134 30.82 150.74 31.048 151.184 31.504C151.628 31.96 151.85 32.584 151.85 33.376V39.784C151.85 39.928 151.79 40 151.67 40H151.148C151.016 40 150.95 39.928 150.95 39.784V33.412C150.95 32.848 150.806 32.41 150.518 32.098C150.23 31.786 149.81 31.63 149.258 31.63H148.088C147.512 31.63 147.056 31.786 146.72 32.098C146.396 32.398 146.234 32.83 146.234 33.394V39.784C146.234 39.928 146.168 40 146.036 40ZM160.559 40H156.797C156.017 40 155.399 39.772 154.943 39.316C154.499 38.86 154.277 38.236 154.277 37.444V33.376C154.277 32.584 154.499 31.96 154.943 31.504C155.399 31.048 156.017 30.82 156.797 30.82H158.345C159.125 30.82 159.743 31.048 160.199 31.504C160.655 31.96 160.883 32.584 160.883 33.376V35.662C160.883 35.806 160.811 35.878 160.667 35.878H155.339C155.231 35.878 155.177 35.932 155.177 36.04V37.426C155.177 37.99 155.321 38.428 155.609 38.74C155.897 39.04 156.317 39.19 156.869 39.19H160.559C160.691 39.19 160.757 39.256 160.757 39.388V39.802C160.757 39.934 160.691 40 160.559 40ZM155.339 35.158H159.821C159.929 35.158 159.983 35.104 159.983 34.996V33.394C159.983 32.83 159.839 32.398 159.551 32.098C159.263 31.786 158.843 31.63 158.291 31.63H156.869C156.317 31.63 155.897 31.786 155.609 32.098C155.321 32.398 155.177 32.83 155.177 33.394V34.996C155.177 35.104 155.231 35.158 155.339 35.158ZM169.419 40H165.657C164.877 40 164.259 39.772 163.803 39.316C163.359 38.86 163.137 38.236 163.137 37.444V33.376C163.137 32.584 163.359 31.96 163.803 31.504C164.259 31.048 164.877 30.82 165.657 30.82H167.205C167.985 30.82 168.603 31.048 169.059 31.504C169.515 31.96 169.743 32.584 169.743 33.376V35.662C169.743 35.806 169.671 35.878 169.527 35.878H164.199C164.091 35.878 164.037 35.932 164.037 36.04V37.426C164.037 37.99 164.181 38.428 164.469 38.74C164.757 39.04 165.177 39.19 165.729 39.19H169.419C169.551 39.19 169.617 39.256 169.617 39.388V39.802C169.617 39.934 169.551 40 169.419 40ZM164.199 35.158H168.681C168.789 35.158 168.843 35.104 168.843 34.996V33.394C168.843 32.83 168.699 32.398 168.411 32.098C168.123 31.786 167.703 31.63 167.151 31.63H165.729C165.177 31.63 164.757 31.786 164.469 32.098C164.181 32.398 164.037 32.83 164.037 33.394V34.996C164.037 35.104 164.091 35.158 164.199 35.158ZM172.878 40H172.356C172.236 40 172.176 39.928 172.176 39.784V31.036C172.176 30.892 172.236 30.82 172.356 30.82H172.878C173.01 30.82 173.076 30.892 173.076 31.036V31.792H173.148C173.28 31.54 173.514 31.318 173.85 31.126C174.186 30.922 174.6 30.82 175.092 30.82H175.794C175.926 30.82 175.992 30.886 175.992 31.018V31.45C175.992 31.582 175.926 31.642 175.794 31.63H174.948C174.36 31.63 173.898 31.81 173.562 32.17C173.238 32.53 173.076 33.016 173.076 33.628V39.784C173.076 39.928 173.01 40 172.878 40Z" fill="#5A5A5A"/>
</svg>
