<svg width="206" height="65" viewBox="0 0 206 65" fill="none" xmlns="http://www.w3.org/2000/svg">
<path d="M3.872 14.36H6.488C7 14.36 7.36 14.256 7.568 14.048C7.792 13.824 7.904 13.456 7.904 12.944V5.624C7.904 5.112 7.792 4.752 7.568 4.544C7.36 4.32 7 4.208 6.488 4.208H3.872C3.696 4.208 3.608 4.296 3.608 4.472V14.096C3.608 14.272 3.696 14.36 3.872 14.36ZM0.56 16.496V2.072C0.56 1.736 0.728 1.568 1.064 1.568H6.992C8.24 1.568 9.208 1.912 9.896 2.6C10.6 3.272 10.952 4.232 10.952 5.48V13.088C10.952 14.336 10.6 15.304 9.896 15.992C9.208 16.664 8.24 17 6.992 17H1.064C0.728 17 0.56 16.832 0.56 16.496ZM19.4416 17H17.3056C16.0416 17 15.0656 16.664 14.3776 15.992C13.6896 15.32 13.3456 14.352 13.3456 13.088V8.672C13.3456 7.408 13.6896 6.44 14.3776 5.768C15.0656 5.096 16.0416 4.76 17.3056 4.76H19.4416C20.6896 4.76 21.6576 5.104 22.3456 5.792C23.0496 6.464 23.4016 7.424 23.4016 8.672V13.088C23.4016 14.336 23.0496 15.304 22.3456 15.992C21.6576 16.664 20.6896 17 19.4416 17ZM17.7616 14.384H18.9856C19.4976 14.384 19.8576 14.28 20.0656 14.072C20.2896 13.864 20.4016 13.504 20.4016 12.992V8.768C20.4016 8.256 20.2896 7.896 20.0656 7.688C19.8576 7.48 19.4976 7.376 18.9856 7.376H17.7616C17.2496 7.376 16.8896 7.48 16.6816 7.688C16.4736 7.896 16.3696 8.256 16.3696 8.768V12.992C16.3696 13.504 16.4736 13.864 16.6816 14.072C16.8896 14.28 17.2496 14.384 17.7616 14.384ZM28.3406 17H26.3006C25.9646 17 25.7966 16.832 25.7966 16.496V5.264C25.7966 4.928 25.9646 4.76 26.3006 4.76H28.3406C28.6766 4.76 28.8446 4.928 28.8446 5.264V6.056H28.9406C29.2926 5.192 30.0766 4.76 31.2926 4.76H32.0606C34.5726 4.76 35.8286 6.064 35.8286 8.672V16.496C35.8286 16.832 35.6526 17 35.3006 17H33.2846C32.9486 17 32.7806 16.832 32.7806 16.496V8.816C32.7806 8.304 32.6686 7.944 32.4446 7.736C32.2366 7.512 31.8766 7.4 31.3646 7.4H30.5006C29.3966 7.4 28.8446 8.008 28.8446 9.224V16.496C28.8446 16.832 28.6766 17 28.3406 17ZM42.6551 17H42.0791C40.8151 17 39.8391 16.664 39.1511 15.992C38.4631 15.32 38.1191 14.352 38.1191 13.088V8.672C38.1191 7.408 38.4631 6.44 39.1511 5.768C39.8391 5.096 40.8151 4.76 42.0791 4.76H47.6231C47.9751 4.76 48.1511 4.928 48.1511 5.264V16.496C48.1511 16.832 47.9751 17 47.6231 17H45.6071C45.2711 17 45.1031 16.832 45.1031 16.496V15.704H45.0071C44.8311 16.136 44.5191 16.464 44.0711 16.688C43.6231 16.896 43.1511 17 42.6551 17ZM45.1031 12.536V7.664C45.1031 7.488 45.0071 7.4 44.8151 7.4H42.5591C42.0471 7.4 41.6871 7.512 41.4791 7.736C41.2711 7.944 41.1671 8.304 41.1671 8.816V12.944C41.1671 13.456 41.2711 13.824 41.4791 14.048C41.6871 14.256 42.0471 14.36 42.5591 14.36H43.4471C44.5511 14.36 45.1031 13.752 45.1031 12.536ZM53.4449 17H51.4049C51.0689 17 50.9009 16.832 50.9009 16.496V0.631999C50.9009 0.296 51.0689 0.128 51.4049 0.128H53.4449C53.7809 0.128 53.9489 0.296 53.9489 0.631999V16.496C53.9489 16.832 53.7809 17 53.4449 17ZM61.1986 17H60.2146C58.9826 17 58.0466 16.664 57.4066 15.992C56.7826 15.32 56.4706 14.352 56.4706 13.088V8.672C56.4706 7.408 56.7826 6.44 57.4066 5.768C58.0466 5.096 58.9826 4.76 60.2146 4.76H61.1986C61.6946 4.76 62.1666 4.872 62.6146 5.096C63.0626 5.304 63.3746 5.624 63.5506 6.056H63.6466V0.631999C63.6466 0.296 63.8146 0.128 64.1506 0.128H66.1906C66.5266 0.128 66.6946 0.296 66.6946 0.631999V16.496C66.6946 16.832 66.5266 17 66.1906 17H64.1506C63.8146 17 63.6466 16.832 63.6466 16.496V15.704H63.5506C63.3746 16.136 63.0626 16.464 62.6146 16.688C62.1666 16.896 61.6946 17 61.1986 17ZM63.6466 12.536V9.224C63.6466 8.008 63.0946 7.4 61.9906 7.4H60.9106C60.3986 7.4 60.0386 7.512 59.8306 7.736C59.6226 7.944 59.5186 8.304 59.5186 8.816V12.944C59.5186 13.456 59.6226 13.824 59.8306 14.048C60.0386 14.256 60.3986 14.36 60.9106 14.36H61.9906C63.0946 14.36 63.6466 13.752 63.6466 12.536ZM79.0569 14.36H80.7609C81.2729 14.36 81.6329 14.256 81.8409 14.048C82.0649 13.824 82.1769 13.456 82.1769 12.944V5.624C82.1769 5.112 82.0649 4.752 81.8409 4.544C81.6329 4.32 81.2729 4.208 80.7609 4.208H79.0569C78.5449 4.208 78.1849 4.32 77.9769 4.544C77.7689 4.752 77.6649 5.112 77.6649 5.624V12.944C77.6649 13.456 77.7689 13.824 77.9769 14.048C78.1849 14.256 78.5449 14.36 79.0569 14.36ZM81.2649 17H78.5769C77.3129 17 76.3369 16.664 75.6489 15.992C74.9609 15.32 74.6169 14.352 74.6169 13.088V5.48C74.6169 4.216 74.9609 3.248 75.6489 2.576C76.3369 1.904 77.3129 1.568 78.5769 1.568H81.2649C82.5289 1.568 83.5049 1.904 84.1929 2.576C84.8809 3.248 85.2249 4.216 85.2249 5.48V13.088C85.2249 14.352 84.8809 15.32 84.1929 15.992C83.5049 16.664 82.5289 17 81.2649 17ZM90.4031 17H88.3631C88.0271 17 87.8591 16.832 87.8591 16.496V5.264C87.8591 4.928 88.0271 4.76 88.3631 4.76H90.4031C90.7391 4.76 90.9071 4.928 90.9071 5.264V6.056H91.0031C91.3551 5.192 92.1391 4.76 93.3551 4.76H94.1231C96.6351 4.76 97.8911 6.064 97.8911 8.672V16.496C97.8911 16.832 97.7151 17 97.3631 17H95.3471C95.0111 17 94.8431 16.832 94.8431 16.496V8.816C94.8431 8.304 94.7311 7.944 94.5071 7.736C94.2991 7.512 93.9391 7.4 93.4271 7.4H92.5631C91.4591 7.4 90.9071 8.008 90.9071 9.224V16.496C90.9071 16.832 90.7391 17 90.4031 17ZM104.742 16.448H103.95C102.718 16.448 101.782 16.112 101.142 15.44C100.518 14.768 100.206 13.8 100.206 12.536V8.672C100.206 7.408 100.55 6.44 101.238 5.768C101.926 5.096 102.902 4.76 104.166 4.76H109.71C110.062 4.76 110.238 4.928 110.238 5.264V17.096C110.238 18.344 109.886 19.304 109.182 19.976C108.494 20.648 107.526 20.984 106.278 20.984H101.67C101.478 20.984 101.342 20.944 101.262 20.864C101.198 20.8 101.166 20.68 101.166 20.504V18.848C101.166 18.512 101.334 18.344 101.67 18.344H105.774C106.286 18.344 106.646 18.232 106.854 18.008C107.078 17.8 107.19 17.448 107.19 16.952V15.128H107.094C106.918 15.56 106.606 15.888 106.158 16.112C105.71 16.336 105.238 16.448 104.742 16.448ZM107.19 11.984V7.664C107.19 7.488 107.094 7.4 106.902 7.4H104.646C104.134 7.4 103.774 7.512 103.566 7.736C103.358 7.944 103.254 8.304 103.254 8.816V12.392C103.254 12.904 103.358 13.264 103.566 13.472C103.774 13.68 104.134 13.784 104.646 13.784H105.534C106.638 13.784 107.19 13.184 107.19 11.984ZM115.411 17H113.371C113.035 17 112.867 16.832 112.867 16.496V0.631999C112.867 0.296 113.035 0.128 113.371 0.128H115.411C115.747 0.128 115.915 0.296 115.915 0.631999V6.056H116.011C116.363 5.192 117.147 4.76 118.363 4.76H119.131C121.643 4.76 122.899 6.064 122.899 8.672V16.496C122.899 16.832 122.723 17 122.371 17H120.355C120.019 17 119.851 16.832 119.851 16.496V8.816C119.851 8.304 119.739 7.944 119.515 7.736C119.307 7.512 118.947 7.4 118.435 7.4H117.571C116.467 7.4 115.915 8.008 115.915 9.224V16.496C115.915 16.832 115.747 17 115.411 17ZM129.725 17H129.149C127.885 17 126.909 16.664 126.221 15.992C125.533 15.32 125.189 14.352 125.189 13.088V8.672C125.189 7.408 125.533 6.44 126.221 5.768C126.909 5.096 127.885 4.76 129.149 4.76H134.693C135.045 4.76 135.221 4.928 135.221 5.264V16.496C135.221 16.832 135.045 17 134.693 17H132.677C132.341 17 132.173 16.832 132.173 16.496V15.704H132.077C131.901 16.136 131.589 16.464 131.141 16.688C130.693 16.896 130.221 17 129.725 17ZM132.173 12.536V7.664C132.173 7.488 132.077 7.4 131.885 7.4H129.629C129.117 7.4 128.757 7.512 128.549 7.736C128.341 7.944 128.237 8.304 128.237 8.816V12.944C128.237 13.456 128.341 13.824 128.549 14.048C128.757 14.256 129.117 14.36 129.629 14.36H130.517C131.621 14.36 132.173 13.752 132.173 12.536ZM140.395 17H138.355C138.019 17 137.851 16.832 137.851 16.496V5.264C137.851 4.928 138.019 4.76 138.355 4.76H140.395C140.731 4.76 140.899 4.928 140.899 5.264V6.056H140.995C141.347 5.192 142.131 4.76 143.347 4.76H144.115C146.627 4.76 147.883 6.064 147.883 8.672V16.496C147.883 16.832 147.707 17 147.355 17H145.339C145.003 17 144.835 16.832 144.835 16.496V8.816C144.835 8.304 144.723 7.944 144.499 7.736C144.291 7.512 143.931 7.4 143.419 7.4H142.555C141.451 7.4 140.899 8.008 140.899 9.224V16.496C140.899 16.832 140.731 17 140.395 17ZM155.046 17H150.486C150.166 17 150.006 16.832 150.006 16.496V14.96C150.006 14.784 150.038 14.664 150.102 14.6C150.166 14.52 150.294 14.48 150.486 14.48H154.494C155.278 14.48 155.67 14.24 155.67 13.76V13.64C155.67 13.256 155.342 12.888 154.686 12.536L152.31 11.216C151.494 10.8 150.894 10.352 150.51 9.872C150.126 9.392 149.934 8.776 149.934 8.024C149.934 6.904 150.23 6.08 150.822 5.552C151.414 5.024 152.342 4.76 153.606 4.76H157.614C157.934 4.76 158.094 4.928 158.094 5.264V6.824C158.094 7 158.062 7.128 157.998 7.208C157.934 7.272 157.806 7.304 157.614 7.304H154.278C153.494 7.304 153.102 7.504 153.102 7.904V8.024C153.102 8.376 153.446 8.736 154.134 9.104L156.558 10.544C157.39 10.992 157.974 11.456 158.31 11.936C158.646 12.4 158.814 13.016 158.814 13.784C158.814 15.928 157.558 17 155.046 17ZM169.961 17H164.657C163.393 17 162.417 16.664 161.729 15.992C161.041 15.32 160.697 14.352 160.697 13.088V8.672C160.697 7.408 161.041 6.44 161.729 5.768C162.417 5.096 163.393 4.76 164.657 4.76H166.553C167.817 4.76 168.793 5.096 169.481 5.768C170.169 6.44 170.513 7.408 170.513 8.672V11.72C170.513 12.056 170.345 12.224 170.009 12.224H163.985C163.793 12.224 163.697 12.312 163.697 12.488V13.016C163.697 13.512 163.801 13.872 164.009 14.096C164.233 14.304 164.601 14.408 165.113 14.408H169.961C170.297 14.408 170.465 14.584 170.465 14.936V16.52C170.465 16.696 170.425 16.824 170.345 16.904C170.281 16.968 170.153 17 169.961 17ZM163.985 10.184H167.249C167.425 10.184 167.513 10.096 167.513 9.92V8.768C167.513 8.256 167.409 7.896 167.201 7.688C166.993 7.48 166.633 7.376 166.121 7.376H165.113C164.601 7.376 164.241 7.48 164.033 7.688C163.825 7.896 163.721 8.256 163.721 8.768V9.92C163.721 10.096 163.809 10.184 163.985 10.184ZM175.341 17H173.301C172.965 17 172.797 16.832 172.797 16.496V5.264C172.797 4.928 172.965 4.76 173.301 4.76H175.341C175.677 4.76 175.845 4.928 175.845 5.264V6.056H175.941C176.293 5.192 177.077 4.76 178.293 4.76H179.061C181.573 4.76 182.829 6.064 182.829 8.672V16.496C182.829 16.832 182.653 17 182.301 17H180.285C179.949 17 179.781 16.832 179.781 16.496V8.816C179.781 8.304 179.669 7.944 179.445 7.736C179.237 7.512 178.877 7.4 178.365 7.4H177.501C176.397 7.4 175.845 8.008 175.845 9.224V16.496C175.845 16.832 175.677 17 175.341 17ZM189.679 16.448H188.887C187.655 16.448 186.719 16.112 186.079 15.44C185.455 14.768 185.143 13.8 185.143 12.536V8.672C185.143 7.408 185.487 6.44 186.175 5.768C186.863 5.096 187.839 4.76 189.103 4.76H194.647C194.999 4.76 195.175 4.928 195.175 5.264V17.096C195.175 18.344 194.823 19.304 194.119 19.976C193.431 20.648 192.463 20.984 191.215 20.984H186.607C186.415 20.984 186.279 20.944 186.199 20.864C186.135 20.8 186.103 20.68 186.103 20.504V18.848C186.103 18.512 186.271 18.344 186.607 18.344H190.711C191.223 18.344 191.583 18.232 191.791 18.008C192.015 17.8 192.127 17.448 192.127 16.952V15.128H192.031C191.855 15.56 191.543 15.888 191.095 16.112C190.647 16.336 190.175 16.448 189.679 16.448ZM192.127 11.984V7.664C192.127 7.488 192.031 7.4 191.839 7.4H189.583C189.071 7.4 188.711 7.512 188.503 7.736C188.295 7.944 188.191 8.304 188.191 8.816V12.392C188.191 12.904 188.295 13.264 188.503 13.472C188.711 13.68 189.071 13.784 189.583 13.784H190.471C191.575 13.784 192.127 13.184 192.127 11.984ZM5.138 40H2.87C2.09 40 1.472 39.772 1.016 39.316C0.572 38.86 0.35 38.236 0.35 37.444V30.982C0.35 30.19 0.572 29.566 1.016 29.11C1.472 28.654 2.09 28.426 2.87 28.426H5.138C5.918 28.426 6.53 28.654 6.974 29.11C7.43 29.566 7.658 30.19 7.658 30.982V31.864C7.658 32.008 7.592 32.08 7.46 32.08H6.956C6.824 32.08 6.758 32.008 6.758 31.864V31.018C6.758 30.442 6.608 30.004 6.308 29.704C6.02 29.392 5.6 29.236 5.048 29.236H2.942C2.39 29.236 1.97 29.392 1.682 29.704C1.394 30.016 1.25 30.454 1.25 31.018V37.408C1.25 37.972 1.394 38.41 1.682 38.722C1.97 39.034 2.39 39.19 2.942 39.19H5.048C5.6 39.19 6.02 39.04 6.308 38.74C6.608 38.428 6.758 37.984 6.758 37.408V36.562C6.758 36.418 6.824 36.346 6.956 36.346H7.46C7.592 36.346 7.658 36.418 7.658 36.562V37.444C7.658 38.236 7.43 38.86 6.974 39.316C6.53 39.772 5.918 40 5.138 40ZM10.8079 40H10.2859C10.1659 40 10.1059 39.928 10.1059 39.784V27.562C10.1059 27.418 10.1659 27.346 10.2859 27.346H10.8079C10.9399 27.346 11.0059 27.418 11.0059 27.562V31.756H11.0779C11.4139 31.132 12.0379 30.82 12.9499 30.82H14.1379C14.9059 30.82 15.5119 31.048 15.9559 31.504C16.3999 31.96 16.6219 32.584 16.6219 33.376V39.784C16.6219 39.928 16.5619 40 16.4419 40H15.9199C15.7879 40 15.7219 39.928 15.7219 39.784V33.412C15.7219 32.848 15.5779 32.41 15.2899 32.098C15.0019 31.786 14.5819 31.63 14.0299 31.63H12.8599C12.2839 31.63 11.8279 31.786 11.4919 32.098C11.1679 32.398 11.0059 32.83 11.0059 33.394V39.784C11.0059 39.928 10.9399 40 10.8079 40ZM19.3189 29.308V27.58C19.3189 27.448 19.3789 27.382 19.4989 27.382H20.0389C20.1589 27.382 20.2189 27.448 20.2189 27.58V29.308C20.2189 29.452 20.1589 29.524 20.0389 29.524H19.4989C19.3789 29.524 19.3189 29.452 19.3189 29.308ZM19.3189 39.784V31.036C19.3189 30.892 19.3789 30.82 19.4989 30.82H20.0209C20.1529 30.82 20.2189 30.892 20.2189 31.036V39.784C20.2189 39.928 20.1589 40 20.0389 40H19.4989C19.3789 40 19.3189 39.928 19.3189 39.784ZM29.1102 40H25.3482C24.5682 40 23.9502 39.772 23.4942 39.316C23.0502 38.86 22.8282 38.236 22.8282 37.444V33.376C22.8282 32.584 23.0502 31.96 23.4942 31.504C23.9502 31.048 24.5682 30.82 25.3482 30.82H26.8962C27.6762 30.82 28.2942 31.048 28.7502 31.504C29.2062 31.96 29.4342 32.584 29.4342 33.376V35.662C29.4342 35.806 29.3622 35.878 29.2182 35.878H23.8902C23.7822 35.878 23.7282 35.932 23.7282 36.04V37.426C23.7282 37.99 23.8722 38.428 24.1602 38.74C24.4482 39.04 24.8682 39.19 25.4202 39.19H29.1102C29.2422 39.19 29.3082 39.256 29.3082 39.388V39.802C29.3082 39.934 29.2422 40 29.1102 40ZM23.8902 35.158H28.3722C28.4802 35.158 28.5342 35.104 28.5342 34.996V33.394C28.5342 32.83 28.3902 32.398 28.1022 32.098C27.8142 31.786 27.3942 31.63 26.8422 31.63H25.4202C24.8682 31.63 24.4482 31.786 24.1602 32.098C23.8722 32.398 23.7282 32.83 23.7282 33.394V34.996C23.7282 35.104 23.7822 35.158 23.8902 35.158ZM33.7576 30.82H35.3956C35.5396 30.82 35.6116 30.886 35.6116 31.018V31.432C35.6116 31.564 35.5396 31.63 35.3956 31.63H33.7576C33.6496 31.63 33.5956 31.684 33.5956 31.792V39.784C33.5956 39.928 33.5296 40 33.3976 40H32.8756C32.7436 40 32.6776 39.928 32.6776 39.784V31.792C32.6776 31.684 32.6236 31.63 32.5156 31.63H31.3636C31.2316 31.63 31.1656 31.564 31.1656 31.432V31.018C31.1656 30.886 31.2316 30.82 31.3636 30.82H32.5156C32.6236 30.82 32.6776 30.766 32.6776 30.658V29.866C32.6776 28.186 33.4396 27.346 34.9636 27.346H35.3956C35.5396 27.346 35.6116 27.412 35.6116 27.544V27.958C35.6116 28.09 35.5396 28.156 35.3956 28.156H35.0536C34.5136 28.156 34.1356 28.3 33.9196 28.588C33.7036 28.876 33.5956 29.314 33.5956 29.902V30.658C33.5956 30.766 33.6496 30.82 33.7576 30.82ZM42.9976 40H42.4756C42.3556 40 42.2956 39.928 42.2956 39.784V28.642C42.2956 28.498 42.3556 28.426 42.4756 28.426H46.5796C47.3596 28.426 47.9776 28.654 48.4336 29.11C48.8896 29.566 49.1176 30.19 49.1176 30.982V32.692C49.1176 33.364 48.9436 33.916 48.5956 34.348C48.2596 34.78 47.7976 35.056 47.2096 35.176V35.248L49.3516 39.784C49.4236 39.928 49.3816 40 49.2256 40H48.6676C48.5116 40 48.4036 39.928 48.3436 39.784L46.2196 35.248H43.3756C43.2556 35.248 43.1956 35.302 43.1956 35.41V39.784C43.1956 39.928 43.1296 40 42.9976 40ZM43.3756 34.474H46.4896C47.0416 34.474 47.4676 34.324 47.7676 34.024C48.0676 33.712 48.2176 33.274 48.2176 32.71V31.018C48.2176 30.454 48.0676 30.016 47.7676 29.704C47.4676 29.392 47.0416 29.236 46.4896 29.236H43.3756C43.2556 29.236 43.1956 29.29 43.1956 29.398V34.312C43.1956 34.42 43.2556 34.474 43.3756 34.474ZM57.8329 40H54.0709C53.2909 40 52.6729 39.772 52.2169 39.316C51.7729 38.86 51.5509 38.236 51.5509 37.444V33.376C51.5509 32.584 51.7729 31.96 52.2169 31.504C52.6729 31.048 53.2909 30.82 54.0709 30.82H55.6189C56.3989 30.82 57.0169 31.048 57.4729 31.504C57.9289 31.96 58.1569 32.584 58.1569 33.376V35.662C58.1569 35.806 58.0849 35.878 57.9409 35.878H52.6129C52.5049 35.878 52.4509 35.932 52.4509 36.04V37.426C52.4509 37.99 52.5949 38.428 52.8829 38.74C53.1709 39.04 53.5909 39.19 54.1429 39.19H57.8329C57.9649 39.19 58.0309 39.256 58.0309 39.388V39.802C58.0309 39.934 57.9649 40 57.8329 40ZM52.6129 35.158H57.0949C57.2029 35.158 57.2569 35.104 57.2569 34.996V33.394C57.2569 32.83 57.1129 32.398 56.8249 32.098C56.5369 31.786 56.1169 31.63 55.5649 31.63H54.1429C53.5909 31.63 53.1709 31.786 52.8829 32.098C52.5949 32.398 52.4509 32.83 52.4509 33.394V34.996C52.4509 35.104 52.5049 35.158 52.6129 35.158ZM59.7442 30.82H60.3022C60.4222 30.82 60.5002 30.892 60.5362 31.036L62.9482 38.992H63.0202L65.4142 31.036C65.4622 30.892 65.5402 30.82 65.6482 30.82H66.2242C66.3562 30.82 66.3982 30.892 66.3502 31.036L63.6322 39.784C63.5962 39.928 63.5122 40 63.3802 40H62.5882C62.4562 40 62.3662 39.928 62.3182 39.784L59.6002 31.036C59.5642 30.892 59.6122 30.82 59.7442 30.82ZM74.1805 40H70.4185C69.6385 40 69.0205 39.772 68.5645 39.316C68.1205 38.86 67.8985 38.236 67.8985 37.444V33.376C67.8985 32.584 68.1205 31.96 68.5645 31.504C69.0205 31.048 69.6385 30.82 70.4185 30.82H71.9665C72.7465 30.82 73.3645 31.048 73.8205 31.504C74.2765 31.96 74.5045 32.584 74.5045 33.376V35.662C74.5045 35.806 74.4325 35.878 74.2885 35.878H68.9605C68.8525 35.878 68.7985 35.932 68.7985 36.04V37.426C68.7985 37.99 68.9425 38.428 69.2305 38.74C69.5185 39.04 69.9385 39.19 70.4905 39.19H74.1805C74.3125 39.19 74.3785 39.256 74.3785 39.388V39.802C74.3785 39.934 74.3125 40 74.1805 40ZM68.9605 35.158H73.4425C73.5505 35.158 73.6045 35.104 73.6045 34.996V33.394C73.6045 32.83 73.4605 32.398 73.1725 32.098C72.8845 31.786 72.4645 31.63 71.9125 31.63H70.4905C69.9385 31.63 69.5185 31.786 69.2305 32.098C68.9425 32.398 68.7985 32.83 68.7985 33.394V34.996C68.7985 35.104 68.8525 35.158 68.9605 35.158ZM77.6399 40H77.1179C76.9979 40 76.9379 39.928 76.9379 39.784V31.036C76.9379 30.892 76.9979 30.82 77.1179 30.82H77.6399C77.7719 30.82 77.8379 30.892 77.8379 31.036V31.756H77.9099C78.2459 31.132 78.8699 30.82 79.7819 30.82H80.9699C81.7379 30.82 82.3439 31.048 82.7879 31.504C83.2319 31.96 83.4539 32.584 83.4539 33.376V39.784C83.4539 39.928 83.3939 40 83.2739 40H82.7519C82.6199 40 82.5539 39.928 82.5539 39.784V33.412C82.5539 32.848 82.4099 32.41 82.1219 32.098C81.8339 31.786 81.4139 31.63 80.8619 31.63H79.6919C79.1159 31.63 78.6599 31.786 78.3239 32.098C77.9999 32.398 77.8379 32.83 77.8379 33.394V39.784C77.8379 39.928 77.7719 40 77.6399 40ZM89.6429 40H88.4549C87.6869 40 87.0809 39.772 86.6369 39.316C86.1929 38.86 85.9709 38.236 85.9709 37.444V31.036C85.9709 30.892 86.0309 30.82 86.1509 30.82H86.6729C86.8049 30.82 86.8709 30.892 86.8709 31.036V37.408C86.8709 37.972 87.0149 38.41 87.3029 38.722C87.5909 39.034 88.0109 39.19 88.5629 39.19H89.7329C90.3089 39.19 90.7589 39.04 91.0829 38.74C91.4189 38.428 91.5869 37.99 91.5869 37.426V31.036C91.5869 30.892 91.6529 30.82 91.7849 30.82H92.3069C92.4269 30.82 92.4869 30.892 92.4869 31.036V39.784C92.4869 39.928 92.4269 40 92.3069 40H91.7849C91.6529 40 91.5869 39.928 91.5869 39.784V39.064H91.5149C91.2029 39.688 90.5789 40 89.6429 40ZM101.286 40H97.524C96.744 40 96.126 39.772 95.67 39.316C95.226 38.86 95.004 38.236 95.004 37.444V33.376C95.004 32.584 95.226 31.96 95.67 31.504C96.126 31.048 96.744 30.82 97.524 30.82H99.072C99.852 30.82 100.47 31.048 100.926 31.504C101.382 31.96 101.61 32.584 101.61 33.376V35.662C101.61 35.806 101.538 35.878 101.394 35.878H96.066C95.958 35.878 95.904 35.932 95.904 36.04V37.426C95.904 37.99 96.048 38.428 96.336 38.74C96.624 39.04 97.044 39.19 97.596 39.19H101.286C101.418 39.19 101.484 39.256 101.484 39.388V39.802C101.484 39.934 101.418 40 101.286 40ZM96.066 35.158H100.548C100.656 35.158 100.71 35.104 100.71 34.996V33.394C100.71 32.83 100.566 32.398 100.278 32.098C99.99 31.786 99.57 31.63 99.018 31.63H97.596C97.044 31.63 96.624 31.786 96.336 32.098C96.048 32.398 95.904 32.83 95.904 33.394V34.996C95.904 35.104 95.958 35.158 96.066 35.158ZM111.38 39.19H112.748C113.684 39.19 114.224 38.77 114.368 37.93L111.164 34.258C110.168 34.318 109.67 34.906 109.67 36.022V37.462C109.67 38.614 110.24 39.19 111.38 39.19ZM112.748 40H111.308C110.528 40 109.91 39.778 109.454 39.334C108.998 38.89 108.77 38.278 108.77 37.498V35.968C108.77 35.368 108.926 34.846 109.238 34.402C109.55 33.958 110.03 33.724 110.678 33.7C110.126 33.028 109.85 32.32 109.85 31.576V30.928C109.85 30.148 110.078 29.536 110.534 29.092C111.002 28.648 111.626 28.426 112.406 28.426H112.838C113.618 28.426 114.236 28.648 114.692 29.092C115.148 29.536 115.376 30.148 115.376 30.928V31.756C115.376 31.9 115.31 31.972 115.178 31.972H114.656C114.524 31.972 114.458 31.9 114.458 31.756V30.946C114.458 29.794 113.906 29.218 112.802 29.218H112.46C111.908 29.218 111.488 29.368 111.2 29.668C110.912 29.956 110.768 30.382 110.768 30.946V31.576C110.768 31.948 110.822 32.266 110.93 32.53C111.05 32.794 111.254 33.088 111.542 33.412L112.676 34.708H116.978C117.122 34.708 117.194 34.774 117.194 34.906V35.338C117.194 35.47 117.122 35.536 116.978 35.536H113.36L117.086 39.838C117.158 39.946 117.14 40 117.032 40H116.348C116.228 40 116.126 39.952 116.042 39.856L114.98 38.65C114.644 39.55 113.9 40 112.748 40ZM129.169 40H126.901C126.121 40 125.503 39.772 125.047 39.316C124.603 38.86 124.381 38.236 124.381 37.444V30.982C124.381 30.19 124.603 29.566 125.047 29.11C125.503 28.654 126.121 28.426 126.901 28.426H129.169C129.949 28.426 130.561 28.654 131.005 29.11C131.461 29.566 131.689 30.19 131.689 30.982V31.864C131.689 32.008 131.623 32.08 131.491 32.08H130.987C130.855 32.08 130.789 32.008 130.789 31.864V31.018C130.789 30.442 130.639 30.004 130.339 29.704C130.051 29.392 129.631 29.236 129.079 29.236H126.973C126.421 29.236 126.001 29.392 125.713 29.704C125.425 30.016 125.281 30.454 125.281 31.018V37.408C125.281 37.972 125.425 38.41 125.713 38.722C126.001 39.034 126.421 39.19 126.973 39.19H129.079C129.631 39.19 130.051 39.04 130.339 38.74C130.639 38.428 130.789 37.984 130.789 37.408V36.562C130.789 36.418 130.855 36.346 130.987 36.346H131.491C131.623 36.346 131.689 36.418 131.689 36.562V37.444C131.689 38.236 131.461 38.86 131.005 39.316C130.561 39.772 129.949 40 129.169 40ZM138.025 40H136.477C135.697 40 135.079 39.772 134.623 39.316C134.179 38.86 133.957 38.236 133.957 37.444V33.376C133.957 32.584 134.179 31.96 134.623 31.504C135.079 31.048 135.697 30.82 136.477 30.82H138.025C138.805 30.82 139.423 31.048 139.879 31.504C140.335 31.96 140.563 32.584 140.563 33.376V37.444C140.563 38.236 140.335 38.86 139.879 39.316C139.423 39.772 138.805 40 138.025 40ZM136.549 39.19H137.953C138.505 39.19 138.925 39.04 139.213 38.74C139.513 38.428 139.663 37.99 139.663 37.426V33.394C139.663 32.83 139.513 32.398 139.213 32.098C138.925 31.786 138.505 31.63 137.953 31.63H136.549C135.997 31.63 135.577 31.786 135.289 32.098C135.001 32.398 134.857 32.83 134.857 33.394V37.426C134.857 37.99 135.001 38.428 135.289 38.74C135.577 39.04 135.997 39.19 136.549 39.19ZM143.769 40H143.247C143.127 40 143.067 39.928 143.067 39.784V31.036C143.067 30.892 143.127 30.82 143.247 30.82H143.769C143.901 30.82 143.967 30.892 143.967 31.036V31.756H144.039C144.387 31.132 145.023 30.82 145.947 30.82H146.685C147.741 30.82 148.473 31.24 148.881 32.08C149.061 31.66 149.367 31.348 149.799 31.144C150.231 30.928 150.675 30.82 151.131 30.82H151.797C152.577 30.82 153.189 31.048 153.633 31.504C154.077 31.96 154.299 32.584 154.299 33.376V39.784C154.299 39.928 154.233 40 154.101 40H153.579C153.447 40 153.381 39.928 153.381 39.784V33.412C153.381 32.836 153.237 32.398 152.949 32.098C152.661 31.786 152.241 31.63 151.689 31.63H151.023C150.447 31.63 149.991 31.798 149.655 32.134C149.319 32.458 149.151 32.902 149.151 33.466V39.784C149.151 39.928 149.085 40 148.953 40H148.431C148.299 40 148.233 39.928 148.233 39.784V33.412C148.233 32.836 148.089 32.398 147.801 32.098C147.513 31.786 147.093 31.63 146.541 31.63H145.821C145.245 31.63 144.789 31.786 144.453 32.098C144.129 32.398 143.967 32.83 143.967 33.394V39.784C143.967 39.928 143.901 40 143.769 40ZM157.603 42.682H157.081C156.961 42.682 156.901 42.616 156.901 42.484V31.036C156.901 30.892 156.961 30.82 157.081 30.82H157.603C157.735 30.82 157.801 30.892 157.801 31.036V31.756H157.873C158.209 31.132 158.833 30.82 159.745 30.82H160.969C161.737 30.82 162.343 31.048 162.787 31.504C163.231 31.96 163.453 32.584 163.453 33.376V37.444C163.453 38.236 163.231 38.86 162.787 39.316C162.343 39.772 161.737 40 160.969 40H159.745C158.833 40 158.209 39.688 157.873 39.064H157.801V42.484C157.801 42.616 157.735 42.682 157.603 42.682ZM159.655 39.19H160.843C161.395 39.19 161.815 39.04 162.103 38.74C162.403 38.428 162.553 37.984 162.553 37.408V33.412C162.553 32.836 162.403 32.398 162.103 32.098C161.815 31.786 161.395 31.63 160.843 31.63H159.655C159.079 31.63 158.623 31.786 158.287 32.098C157.963 32.398 157.801 32.83 157.801 33.394V37.426C157.801 37.99 157.963 38.428 158.287 38.74C158.623 39.04 159.079 39.19 159.655 39.19ZM166.763 40H166.241C166.121 40 166.061 39.928 166.061 39.784V27.562C166.061 27.418 166.121 27.346 166.241 27.346H166.763C166.895 27.346 166.961 27.418 166.961 27.562V39.784C166.961 39.928 166.895 40 166.763 40ZM169.84 29.308V27.58C169.84 27.448 169.9 27.382 170.02 27.382H170.56C170.68 27.382 170.74 27.448 170.74 27.58V29.308C170.74 29.452 170.68 29.524 170.56 29.524H170.02C169.9 29.524 169.84 29.452 169.84 29.308ZM169.84 39.784V31.036C169.84 30.892 169.9 30.82 170.02 30.82H170.542C170.674 30.82 170.74 30.892 170.74 31.036V39.784C170.74 39.928 170.68 40 170.56 40H170.02C169.9 40 169.84 39.928 169.84 39.784ZM177.022 40H175.87C175.09 40 174.472 39.772 174.016 39.316C173.572 38.86 173.35 38.236 173.35 37.444V33.376C173.35 32.584 173.572 31.96 174.016 31.504C174.472 31.048 175.09 30.82 175.87 30.82H179.686C179.806 30.82 179.866 30.892 179.866 31.036V39.784C179.866 39.928 179.806 40 179.686 40H179.164C179.032 40 178.966 39.928 178.966 39.784V39.064H178.894C178.582 39.688 177.958 40 177.022 40ZM178.966 37.426V31.792C178.966 31.684 178.906 31.63 178.786 31.63H175.942C175.39 31.63 174.97 31.786 174.682 32.098C174.394 32.41 174.25 32.848 174.25 33.412V37.408C174.25 37.972 174.394 38.41 174.682 38.722C174.97 39.034 175.39 39.19 175.942 39.19H177.112C177.688 39.19 178.138 39.04 178.462 38.74C178.798 38.428 178.966 37.99 178.966 37.426ZM183.267 40H182.745C182.625 40 182.565 39.928 182.565 39.784V31.036C182.565 30.892 182.625 30.82 182.745 30.82H183.267C183.399 30.82 183.465 30.892 183.465 31.036V31.756H183.537C183.873 31.132 184.497 30.82 185.409 30.82H186.597C187.365 30.82 187.971 31.048 188.415 31.504C188.859 31.96 189.081 32.584 189.081 33.376V39.784C189.081 39.928 189.021 40 188.901 40H188.379C188.247 40 188.181 39.928 188.181 39.784V33.412C188.181 32.848 188.037 32.41 187.749 32.098C187.461 31.786 187.041 31.63 186.489 31.63H185.319C184.743 31.63 184.287 31.786 183.951 32.098C183.627 32.398 183.465 32.83 183.465 33.394V39.784C183.465 39.928 183.399 40 183.267 40ZM196.818 39.388V39.802C196.818 39.934 196.752 40 196.62 40H194.028C193.248 40 192.63 39.772 192.174 39.316C191.73 38.86 191.508 38.236 191.508 37.444V33.376C191.508 32.584 191.73 31.96 192.174 31.504C192.63 31.048 193.248 30.82 194.028 30.82H196.62C196.752 30.82 196.818 30.886 196.818 31.018V31.45C196.818 31.57 196.752 31.63 196.62 31.63H194.1C193.548 31.63 193.128 31.786 192.84 32.098C192.552 32.41 192.408 32.848 192.408 33.412V37.408C192.408 37.972 192.552 38.41 192.84 38.722C193.128 39.034 193.548 39.19 194.1 39.19H196.62C196.752 39.19 196.818 39.256 196.818 39.388ZM204.874 40H201.112C200.332 40 199.714 39.772 199.258 39.316C198.814 38.86 198.592 38.236 198.592 37.444V33.376C198.592 32.584 198.814 31.96 199.258 31.504C199.714 31.048 200.332 30.82 201.112 30.82H202.66C203.44 30.82 204.058 31.048 204.514 31.504C204.97 31.96 205.198 32.584 205.198 33.376V35.662C205.198 35.806 205.126 35.878 204.982 35.878H199.654C199.546 35.878 199.492 35.932 199.492 36.04V37.426C199.492 37.99 199.636 38.428 199.924 38.74C200.212 39.04 200.632 39.19 201.184 39.19H204.874C205.006 39.19 205.072 39.256 205.072 39.388V39.802C205.072 39.934 205.006 40 204.874 40ZM199.654 35.158H204.136C204.244 35.158 204.298 35.104 204.298 34.996V33.394C204.298 32.83 204.154 32.398 203.866 32.098C203.578 31.786 203.158 31.63 202.606 31.63H201.184C200.632 31.63 200.212 31.786 199.924 32.098C199.636 32.398 199.492 32.83 199.492 33.394V34.996C199.492 35.104 199.546 35.158 199.654 35.158ZM2.942 62.19H4.994C5.546 62.19 5.966 62.04 6.254 61.74C6.554 61.428 6.704 60.984 6.704 60.408V54.018C6.704 53.442 6.554 53.004 6.254 52.704C5.966 52.392 5.546 52.236 4.994 52.236H2.942C2.39 52.236 1.97 52.392 1.682 52.704C1.394 53.016 1.25 53.454 1.25 54.018V60.408C1.25 60.972 1.394 61.41 1.682 61.722C1.97 62.034 2.39 62.19 2.942 62.19ZM5.084 63H2.87C2.09 63 1.472 62.772 1.016 62.316C0.572 61.86 0.35 61.236 0.35 60.444V53.982C0.35 53.19 0.572 52.566 1.016 52.11C1.472 51.654 2.09 51.426 2.87 51.426H5.084C5.864 51.426 6.476 51.654 6.92 52.11C7.376 52.566 7.604 53.19 7.604 53.982V60.444C7.604 61.236 7.376 61.86 6.92 62.316C6.476 62.772 5.864 63 5.084 63ZM12.1892 53.82H13.8272C13.9712 53.82 14.0432 53.886 14.0432 54.018V54.432C14.0432 54.564 13.9712 54.63 13.8272 54.63H12.1892C12.0812 54.63 12.0272 54.684 12.0272 54.792V62.784C12.0272 62.928 11.9612 63 11.8292 63H11.3072C11.1752 63 11.1092 62.928 11.1092 62.784V54.792C11.1092 54.684 11.0552 54.63 10.9472 54.63H9.79522C9.66322 54.63 9.59722 54.564 9.59722 54.432V54.018C9.59722 53.886 9.66322 53.82 9.79522 53.82H10.9472C11.0552 53.82 11.1092 53.766 11.1092 53.658V52.866C11.1092 51.186 11.8712 50.346 13.3952 50.346H13.8272C13.9712 50.346 14.0432 50.412 14.0432 50.544V50.958C14.0432 51.09 13.9712 51.156 13.8272 51.156H13.4852C12.9452 51.156 12.5672 51.3 12.3512 51.588C12.1352 51.876 12.0272 52.314 12.0272 52.902V53.658C12.0272 53.766 12.0812 53.82 12.1892 53.82ZM17.6384 53.82H19.2764C19.4204 53.82 19.4924 53.886 19.4924 54.018V54.432C19.4924 54.564 19.4204 54.63 19.2764 54.63H17.6384C17.5304 54.63 17.4764 54.684 17.4764 54.792V62.784C17.4764 62.928 17.4104 63 17.2784 63H16.7564C16.6244 63 16.5584 62.928 16.5584 62.784V54.792C16.5584 54.684 16.5044 54.63 16.3964 54.63H15.2444C15.1124 54.63 15.0464 54.564 15.0464 54.432V54.018C15.0464 53.886 15.1124 53.82 15.2444 53.82H16.3964C16.5044 53.82 16.5584 53.766 16.5584 53.658V52.866C16.5584 51.186 17.3204 50.346 18.8444 50.346H19.2764C19.4204 50.346 19.4924 50.412 19.4924 50.544V50.958C19.4924 51.09 19.4204 51.156 19.2764 51.156H18.9344C18.3944 51.156 18.0164 51.3 17.8004 51.588C17.5844 51.876 17.4764 52.314 17.4764 52.902V53.658C17.4764 53.766 17.5304 53.82 17.6384 53.82ZM21.2877 52.308V50.58C21.2877 50.448 21.3477 50.382 21.4677 50.382H22.0077C22.1277 50.382 22.1877 50.448 22.1877 50.58V52.308C22.1877 52.452 22.1277 52.524 22.0077 52.524H21.4677C21.3477 52.524 21.2877 52.452 21.2877 52.308ZM21.2877 62.784V54.036C21.2877 53.892 21.3477 53.82 21.4677 53.82H21.9897C22.1217 53.82 22.1877 53.892 22.1877 54.036V62.784C22.1877 62.928 22.1277 63 22.0077 63H21.4677C21.3477 63 21.2877 62.928 21.2877 62.784ZM30.107 62.388V62.802C30.107 62.934 30.041 63 29.909 63H27.317C26.537 63 25.919 62.772 25.463 62.316C25.019 61.86 24.797 61.236 24.797 60.444V56.376C24.797 55.584 25.019 54.96 25.463 54.504C25.919 54.048 26.537 53.82 27.317 53.82H29.909C30.041 53.82 30.107 53.886 30.107 54.018V54.45C30.107 54.57 30.041 54.63 29.909 54.63H27.389C26.837 54.63 26.417 54.786 26.129 55.098C25.841 55.41 25.697 55.848 25.697 56.412V60.408C25.697 60.972 25.841 61.41 26.129 61.722C26.417 62.034 26.837 62.19 27.389 62.19H29.909C30.041 62.19 30.107 62.256 30.107 62.388ZM38.1629 63H34.4009C33.6209 63 33.0029 62.772 32.5469 62.316C32.1029 61.86 31.8809 61.236 31.8809 60.444V56.376C31.8809 55.584 32.1029 54.96 32.5469 54.504C33.0029 54.048 33.6209 53.82 34.4009 53.82H35.9489C36.7289 53.82 37.3469 54.048 37.8029 54.504C38.2589 54.96 38.4869 55.584 38.4869 56.376V58.662C38.4869 58.806 38.4149 58.878 38.2709 58.878H32.9429C32.8349 58.878 32.7809 58.932 32.7809 59.04V60.426C32.7809 60.99 32.9249 61.428 33.2129 61.74C33.5009 62.04 33.9209 62.19 34.4729 62.19H38.1629C38.2949 62.19 38.3609 62.256 38.3609 62.388V62.802C38.3609 62.934 38.2949 63 38.1629 63ZM32.9429 58.158H37.4249C37.5329 58.158 37.5869 58.104 37.5869 57.996V56.394C37.5869 55.83 37.4429 55.398 37.1549 55.098C36.8669 54.786 36.4469 54.63 35.8949 54.63H34.4729C33.9209 54.63 33.5009 54.786 33.2129 55.098C32.9249 55.398 32.7809 55.83 32.7809 56.394V57.996C32.7809 58.104 32.8349 58.158 32.9429 58.158ZM41.6223 63H41.1003C40.9803 63 40.9203 62.928 40.9203 62.784V54.036C40.9203 53.892 40.9803 53.82 41.1003 53.82H41.6223C41.7543 53.82 41.8203 53.892 41.8203 54.036V54.792H41.8923C42.0243 54.54 42.2583 54.318 42.5943 54.126C42.9303 53.922 43.3443 53.82 43.8363 53.82H44.5383C44.6703 53.82 44.7363 53.886 44.7363 54.018V54.45C44.7363 54.582 44.6703 54.642 44.5383 54.63H43.6923C43.1043 54.63 42.6423 54.81 42.3063 55.17C41.9823 55.53 41.8203 56.016 41.8203 56.628V62.784C41.8203 62.928 41.7543 63 41.6223 63ZM53.8997 51.588V51.984C53.8997 52.104 53.8337 52.164 53.7017 52.164H53.6477C53.0717 52.164 52.6277 52.338 52.3157 52.686C52.0037 53.022 51.8477 53.508 51.8477 54.144V62.118C51.8477 62.754 52.0037 63.24 52.3157 63.576C52.6277 63.924 53.0717 64.098 53.6477 64.098H53.7017C53.8337 64.098 53.8997 64.158 53.8997 64.278V64.674C53.8997 64.782 53.8337 64.836 53.7017 64.836H53.6477C52.8437 64.836 52.2017 64.59 51.7217 64.098C51.2537 63.618 51.0197 62.94 51.0197 62.064V54.198C51.0197 53.322 51.2537 52.644 51.7217 52.164C52.2017 51.672 52.8437 51.426 53.6477 51.426H53.7197C53.8397 51.426 53.8997 51.48 53.8997 51.588ZM61.2474 63H58.9794C58.1994 63 57.5814 62.772 57.1254 62.316C56.6814 61.86 56.4594 61.236 56.4594 60.444V53.982C56.4594 53.19 56.6814 52.566 57.1254 52.11C57.5814 51.654 58.1994 51.426 58.9794 51.426H61.2474C62.0274 51.426 62.6394 51.654 63.0834 52.11C63.5394 52.566 63.7674 53.19 63.7674 53.982V54.864C63.7674 55.008 63.7014 55.08 63.5694 55.08H63.0654C62.9334 55.08 62.8674 55.008 62.8674 54.864V54.018C62.8674 53.442 62.7174 53.004 62.4174 52.704C62.1294 52.392 61.7094 52.236 61.1574 52.236H59.0514C58.4994 52.236 58.0794 52.392 57.7914 52.704C57.5034 53.016 57.3594 53.454 57.3594 54.018V60.408C57.3594 60.972 57.5034 61.41 57.7914 61.722C58.0794 62.034 58.4994 62.19 59.0514 62.19H61.1574C61.7094 62.19 62.1294 62.04 62.4174 61.74C62.7174 61.428 62.8674 60.984 62.8674 60.408V59.562C62.8674 59.418 62.9334 59.346 63.0654 59.346H63.5694C63.7014 59.346 63.7674 59.418 63.7674 59.562V60.444C63.7674 61.236 63.5394 61.86 63.0834 62.316C62.6394 62.772 62.0274 63 61.2474 63ZM67.0972 63H66.5752C66.4552 63 66.3952 62.928 66.3952 62.784V51.642C66.3952 51.498 66.4552 51.426 66.5752 51.426H70.6792C71.4592 51.426 72.0772 51.654 72.5332 52.11C72.9892 52.566 73.2172 53.19 73.2172 53.982V55.692C73.2172 56.364 73.0432 56.916 72.6952 57.348C72.3592 57.78 71.8972 58.056 71.3092 58.176V58.248L73.4512 62.784C73.5232 62.928 73.4812 63 73.3252 63H72.7672C72.6112 63 72.5032 62.928 72.4432 62.784L70.3192 58.248H67.4752C67.3552 58.248 67.2952 58.302 67.2952 58.41V62.784C67.2952 62.928 67.2292 63 67.0972 63ZM67.4752 57.474H70.5892C71.1412 57.474 71.5672 57.324 71.8672 57.024C72.1672 56.712 72.3172 56.274 72.3172 55.71V54.018C72.3172 53.454 72.1672 53.016 71.8672 52.704C71.5672 52.392 71.1412 52.236 70.5892 52.236H67.4752C67.3552 52.236 67.2952 52.29 67.2952 52.398V57.312C67.2952 57.42 67.3552 57.474 67.4752 57.474ZM78.4225 62.19H80.4745C81.0265 62.19 81.4465 62.04 81.7345 61.74C82.0345 61.428 82.1845 60.984 82.1845 60.408V54.018C82.1845 53.442 82.0345 53.004 81.7345 52.704C81.4465 52.392 81.0265 52.236 80.4745 52.236H78.4225C77.8705 52.236 77.4505 52.392 77.1625 52.704C76.8745 53.016 76.7305 53.454 76.7305 54.018V60.408C76.7305 60.972 76.8745 61.41 77.1625 61.722C77.4505 62.034 77.8705 62.19 78.4225 62.19ZM80.5645 63H78.3505C77.5705 63 76.9525 62.772 76.4965 62.316C76.0525 61.86 75.8305 61.236 75.8305 60.444V53.982C75.8305 53.19 76.0525 52.566 76.4965 52.11C76.9525 51.654 77.5705 51.426 78.3505 51.426H80.5645C81.3445 51.426 81.9565 51.654 82.4005 52.11C82.8565 52.566 83.0845 53.19 83.0845 53.982V60.444C83.0845 61.236 82.8565 61.86 82.4005 62.316C81.9565 62.772 81.3445 63 80.5645 63ZM93.1165 62.19H94.4845C95.4205 62.19 95.9605 61.77 96.1045 60.93L92.9005 57.258C91.9045 57.318 91.4065 57.906 91.4065 59.022V60.462C91.4065 61.614 91.9765 62.19 93.1165 62.19ZM94.4845 63H93.0445C92.2645 63 91.6465 62.778 91.1905 62.334C90.7345 61.89 90.5065 61.278 90.5065 60.498V58.968C90.5065 58.368 90.6625 57.846 90.9745 57.402C91.2865 56.958 91.7665 56.724 92.4145 56.7C91.8625 56.028 91.5865 55.32 91.5865 54.576V53.928C91.5865 53.148 91.8145 52.536 92.2705 52.092C92.7385 51.648 93.3625 51.426 94.1425 51.426H94.5745C95.3545 51.426 95.9725 51.648 96.4285 52.092C96.8845 52.536 97.1125 53.148 97.1125 53.928V54.756C97.1125 54.9 97.0465 54.972 96.9145 54.972H96.3925C96.2605 54.972 96.1945 54.9 96.1945 54.756V53.946C96.1945 52.794 95.6425 52.218 94.5385 52.218H94.1965C93.6445 52.218 93.2245 52.368 92.9365 52.668C92.6485 52.956 92.5045 53.382 92.5045 53.946V54.576C92.5045 54.948 92.5585 55.266 92.6665 55.53C92.7865 55.794 92.9905 56.088 93.2785 56.412L94.4125 57.708H98.7145C98.8585 57.708 98.9305 57.774 98.9305 57.906V58.338C98.9305 58.47 98.8585 58.536 98.7145 58.536H95.0965L98.8225 62.838C98.8945 62.946 98.8765 63 98.7685 63H98.0845C97.9645 63 97.8625 62.952 97.7785 62.856L96.7165 61.65C96.3805 62.55 95.6365 63 94.4845 63ZM110.906 63H108.638C107.858 63 107.24 62.772 106.784 62.316C106.34 61.86 106.118 61.236 106.118 60.444V53.982C106.118 53.19 106.34 52.566 106.784 52.11C107.24 51.654 107.858 51.426 108.638 51.426H110.906C111.686 51.426 112.298 51.654 112.742 52.11C113.198 52.566 113.426 53.19 113.426 53.982V54.864C113.426 55.008 113.36 55.08 113.228 55.08H112.724C112.592 55.08 112.526 55.008 112.526 54.864V54.018C112.526 53.442 112.376 53.004 112.076 52.704C111.788 52.392 111.368 52.236 110.816 52.236H108.71C108.158 52.236 107.738 52.392 107.45 52.704C107.162 53.016 107.018 53.454 107.018 54.018V60.408C107.018 60.972 107.162 61.41 107.45 61.722C107.738 62.034 108.158 62.19 108.71 62.19H110.816C111.368 62.19 111.788 62.04 112.076 61.74C112.376 61.428 112.526 60.984 112.526 60.408V59.562C112.526 59.418 112.592 59.346 112.724 59.346H113.228C113.36 59.346 113.426 59.418 113.426 59.562V60.444C113.426 61.236 113.198 61.86 112.742 62.316C112.298 62.772 111.686 63 110.906 63ZM116.755 63H116.233C116.113 63 116.053 62.928 116.053 62.784V51.642C116.053 51.498 116.113 51.426 116.233 51.426H121.777C121.921 51.426 121.993 51.492 121.993 51.624V52.038C121.993 52.17 121.921 52.236 121.777 52.236H117.133C117.013 52.236 116.953 52.29 116.953 52.398V56.772C116.953 56.868 117.013 56.916 117.133 56.916H121.291C121.423 56.916 121.489 56.982 121.489 57.114V57.546C121.489 57.678 121.423 57.744 121.291 57.744H117.133C117.013 57.744 116.953 57.792 116.953 57.888V62.784C116.953 62.928 116.887 63 116.755 63ZM126.727 62.19H128.779C129.331 62.19 129.751 62.04 130.039 61.74C130.339 61.428 130.489 60.984 130.489 60.408V54.018C130.489 53.442 130.339 53.004 130.039 52.704C129.751 52.392 129.331 52.236 128.779 52.236H126.727C126.175 52.236 125.755 52.392 125.467 52.704C125.179 53.016 125.035 53.454 125.035 54.018V60.408C125.035 60.972 125.179 61.41 125.467 61.722C125.755 62.034 126.175 62.19 126.727 62.19ZM128.869 63H126.655C125.875 63 125.257 62.772 124.801 62.316C124.357 61.86 124.135 61.236 124.135 60.444V53.982C124.135 53.19 124.357 52.566 124.801 52.11C125.257 51.654 125.875 51.426 126.655 51.426H128.869C129.649 51.426 130.261 51.654 130.705 52.11C131.161 52.566 131.389 53.19 131.389 53.982V60.444C131.389 61.236 131.161 61.86 130.705 62.316C130.261 62.772 129.649 63 128.869 63ZM133.742 64.674V64.278C133.742 64.158 133.814 64.098 133.958 64.098H134.012C134.588 64.098 135.032 63.924 135.344 63.576C135.656 63.24 135.812 62.754 135.812 62.118V54.144C135.812 53.508 135.656 53.022 135.344 52.686C135.032 52.338 134.588 52.164 134.012 52.164H133.958C133.814 52.164 133.742 52.104 133.742 51.984V51.588C133.742 51.48 133.814 51.426 133.958 51.426H134.012C134.804 51.426 135.434 51.672 135.902 52.164C136.382 52.644 136.622 53.322 136.622 54.198V62.064C136.622 62.94 136.382 63.618 135.902 64.098C135.434 64.59 134.804 64.836 134.012 64.836H133.958C133.814 64.836 133.742 64.782 133.742 64.674Z" fill="#5A5A5A"/>
</svg>
