<svg width="171" height="43" viewBox="0 0 171 43" fill="none" xmlns="http://www.w3.org/2000/svg">
<path d="M3.872 14.456H6.56C7.088 14.456 7.464 14.352 7.688 14.144C7.928 13.92 8.048 13.56 8.048 13.064V11.672C8.048 11.176 7.928 10.824 7.688 10.616C7.448 10.408 7.056 10.304 6.512 10.304H3.872C3.696 10.304 3.608 10.392 3.608 10.568V14.192C3.608 14.368 3.696 14.456 3.872 14.456ZM3.872 7.832H6.32C6.832 7.832 7.208 7.728 7.448 7.52C7.688 7.296 7.808 6.936 7.808 6.44V5.504C7.808 5.008 7.688 4.656 7.448 4.448C7.224 4.224 6.856 4.112 6.344 4.112H3.872C3.696 4.112 3.608 4.2 3.608 4.376V7.568C3.608 7.744 3.696 7.832 3.872 7.832ZM0.56 16.496V2.072C0.56 1.736 0.728 1.568 1.064 1.568H6.824C8.088 1.568 9.064 1.904 9.752 2.576C10.44 3.248 10.784 4.208 10.784 5.456V6.44C10.784 7.8 10.152 8.68 8.888 9.08C9.528 9.176 10.04 9.44 10.424 9.872C10.808 10.288 11 10.888 11 11.672V13.112C11 14.36 10.656 15.32 9.968 15.992C9.28 16.664 8.312 17 7.064 17H1.064C0.728 17 0.56 16.832 0.56 16.496ZM13.7525 2.696V0.607999C13.7525 0.288 13.9125 0.128 14.2325 0.128H16.3205C16.6405 0.128 16.8005 0.28 16.8005 0.584V2.696C16.8005 3.016 16.6405 3.176 16.3205 3.176H14.2325C13.9125 3.176 13.7525 3.016 13.7525 2.696ZM13.7525 16.496V5.264C13.7525 4.928 13.9125 4.76 14.2325 4.76H16.2965C16.6325 4.76 16.8005 4.928 16.8005 5.264V16.496C16.8005 16.704 16.7605 16.84 16.6805 16.904C16.6165 16.968 16.4965 17 16.3205 17H14.2565C13.9205 17 13.7525 16.832 13.7525 16.496ZM22.2262 17H20.1862C19.8502 17 19.6822 16.832 19.6822 16.496V0.631999C19.6822 0.296 19.8502 0.128 20.1862 0.128H22.2262C22.5622 0.128 22.7302 0.296 22.7302 0.631999V16.496C22.7302 16.832 22.5622 17 22.2262 17ZM28.1559 17H26.1159C25.7799 17 25.6119 16.832 25.6119 16.496V0.631999C25.6119 0.296 25.7799 0.128 26.1159 0.128H28.1559C28.4919 0.128 28.6599 0.296 28.6599 0.631999V16.496C28.6599 16.832 28.4919 17 28.1559 17ZM33.4136 21.056H31.8776C31.5576 21.056 31.3976 20.88 31.3976 20.528V18.92C31.3976 18.568 31.5576 18.392 31.8776 18.392H32.3816C33.3896 18.392 34.0696 18.248 34.4216 17.96C34.7896 17.688 35.0696 17.152 35.2616 16.352H33.9896C33.6856 16.352 33.4856 16.184 33.3896 15.848L30.5816 5.264C30.4856 4.928 30.6056 4.76 30.9416 4.76H33.0776C33.3976 4.76 33.5976 4.928 33.6776 5.264L35.7416 14.12H35.8376L37.8776 5.264C37.9416 4.928 38.1416 4.76 38.4776 4.76H40.4936C40.8936 4.76 41.0536 4.936 40.9736 5.288L38.0456 17C37.6936 18.328 37.1496 19.336 36.4136 20.024C35.6776 20.712 34.6776 21.056 33.4136 21.056ZM54.4959 17H51.9519C50.6879 17 49.7119 16.664 49.0239 15.992C48.3359 15.32 47.9919 14.352 47.9919 13.088V5.48C47.9919 4.216 48.3359 3.248 49.0239 2.576C49.7119 1.904 50.6879 1.568 51.9519 1.568H54.4959C55.7439 1.568 56.7119 1.912 57.3999 2.6C58.0879 3.272 58.4319 4.232 58.4319 5.48V6.2C58.4319 6.552 58.2639 6.728 57.9279 6.728H55.8879C55.5519 6.728 55.3839 6.552 55.3839 6.2V5.624C55.3839 5.112 55.2799 4.752 55.0719 4.544C54.8639 4.32 54.5039 4.208 53.9919 4.208H52.4319C51.9359 4.208 51.5759 4.32 51.3519 4.544C51.1439 4.752 51.0399 5.112 51.0399 5.624V12.944C51.0399 13.456 51.1439 13.824 51.3519 14.048C51.5759 14.256 51.9359 14.36 52.4319 14.36H53.9919C54.5039 14.36 54.8639 14.256 55.0719 14.048C55.2799 13.824 55.3839 13.456 55.3839 12.944V11.432C55.3839 11.256 55.2959 11.168 55.1199 11.168H53.6799C53.3439 11.168 53.1759 11 53.1759 10.664V9.032C53.1759 8.696 53.3439 8.528 53.6799 8.528H57.8799C58.2479 8.528 58.4319 8.712 58.4319 9.08V13.088C58.4319 14.336 58.0879 15.304 57.3999 15.992C56.7119 16.664 55.7439 17 54.4959 17ZM65.366 17H64.79C63.526 17 62.55 16.664 61.862 15.992C61.174 15.32 60.83 14.352 60.83 13.088V8.672C60.83 7.408 61.174 6.44 61.862 5.768C62.55 5.096 63.526 4.76 64.79 4.76H70.334C70.686 4.76 70.862 4.928 70.862 5.264V16.496C70.862 16.832 70.686 17 70.334 17H68.318C67.982 17 67.814 16.832 67.814 16.496V15.704H67.718C67.542 16.136 67.23 16.464 66.782 16.688C66.334 16.896 65.862 17 65.366 17ZM67.814 12.536V7.664C67.814 7.488 67.718 7.4 67.526 7.4H65.27C64.758 7.4 64.398 7.512 64.19 7.736C63.982 7.944 63.878 8.304 63.878 8.816V12.944C63.878 13.456 63.982 13.824 64.19 14.048C64.398 14.256 64.758 14.36 65.27 14.36H66.158C67.262 14.36 67.814 13.752 67.814 12.536ZM76.8039 14.36H79.2519C79.7639 14.36 80.1239 14.256 80.3319 14.048C80.5559 13.824 80.6679 13.456 80.6679 12.944V8.768C80.6679 8.256 80.5559 7.896 80.3319 7.688C80.1239 7.464 79.7639 7.352 79.2519 7.352H78.1959C77.0919 7.352 76.5399 7.96 76.5399 9.176V14.096C76.5399 14.272 76.6279 14.36 76.8039 14.36ZM73.4919 16.496V0.631999C73.4919 0.296 73.6599 0.128 73.9959 0.128H76.0359C76.3719 0.128 76.5399 0.296 76.5399 0.631999V6.032H76.6359C76.8119 5.6 77.1239 5.272 77.5719 5.048C78.0199 4.824 78.4919 4.712 78.9879 4.712H79.7559C81.0199 4.712 81.9959 5.048 82.6839 5.72C83.3719 6.392 83.7159 7.36 83.7159 8.624V13.088C83.7159 14.352 83.3719 15.32 82.6839 15.992C81.9959 16.664 81.0199 17 79.7559 17H73.9959C73.6599 17 73.4919 16.832 73.4919 16.496ZM88.6687 17H86.6287C86.2927 17 86.1247 16.832 86.1247 16.496V5.264C86.1247 4.928 86.2927 4.76 86.6287 4.76H88.6687C89.0047 4.76 89.1727 4.928 89.1727 5.264V6.08H89.2687C89.4447 5.648 89.7567 5.32 90.2047 5.096C90.6527 4.872 91.1247 4.76 91.6207 4.76H92.4847C92.8047 4.76 92.9647 4.928 92.9647 5.264V6.92C92.9647 7.112 92.9247 7.248 92.8447 7.328C92.7807 7.392 92.6607 7.416 92.4847 7.4H90.8287C89.7247 7.4 89.1727 8.024 89.1727 9.272V16.496C89.1727 16.832 89.0047 17 88.6687 17ZM94.6119 2.696V0.607999C94.6119 0.288 94.7719 0.128 95.0919 0.128H97.1799C97.4999 0.128 97.6599 0.28 97.6599 0.584V2.696C97.6599 3.016 97.4999 3.176 97.1799 3.176H95.0919C94.7719 3.176 94.6119 3.016 94.6119 2.696ZM94.6119 16.496V5.264C94.6119 4.928 94.7719 4.76 95.0919 4.76H97.1559C97.4919 4.76 97.6599 4.928 97.6599 5.264V16.496C97.6599 16.704 97.6199 16.84 97.5399 16.904C97.4759 16.968 97.3559 17 97.1799 17H95.1159C94.7799 17 94.6119 16.832 94.6119 16.496ZM102.966 17H100.926C100.59 17 100.422 16.832 100.422 16.496V5.264C100.422 4.928 100.59 4.76 100.926 4.76H102.966C103.302 4.76 103.47 4.928 103.47 5.264V6.056H103.566C103.918 5.192 104.702 4.76 105.918 4.76H106.686C109.198 4.76 110.454 6.064 110.454 8.672V16.496C110.454 16.832 110.278 17 109.926 17H107.91C107.574 17 107.406 16.832 107.406 16.496V8.816C107.406 8.304 107.294 7.944 107.07 7.736C106.862 7.512 106.502 7.4 105.99 7.4H105.126C104.022 7.4 103.47 8.008 103.47 9.224V16.496C103.47 16.832 103.302 17 102.966 17ZM117.28 17H116.704C115.44 17 114.464 16.664 113.776 15.992C113.088 15.32 112.744 14.352 112.744 13.088V8.672C112.744 7.408 113.088 6.44 113.776 5.768C114.464 5.096 115.44 4.76 116.704 4.76H122.248C122.6 4.76 122.776 4.928 122.776 5.264V16.496C122.776 16.832 122.6 17 122.248 17H120.232C119.896 17 119.728 16.832 119.728 16.496V15.704H119.632C119.456 16.136 119.144 16.464 118.696 16.688C118.248 16.896 117.776 17 117.28 17ZM119.728 12.536V7.664C119.728 7.488 119.632 7.4 119.44 7.4H117.184C116.672 7.4 116.312 7.512 116.104 7.736C115.896 7.944 115.792 8.304 115.792 8.816V12.944C115.792 13.456 115.896 13.824 116.104 14.048C116.312 14.256 116.672 14.36 117.184 14.36H118.072C119.176 14.36 119.728 13.752 119.728 12.536ZM131.262 17H129.126C127.862 17 126.886 16.664 126.198 15.992C125.51 15.32 125.166 14.352 125.166 13.088V8.672C125.166 7.408 125.51 6.44 126.198 5.768C126.886 5.096 127.862 4.76 129.126 4.76H131.262C132.51 4.76 133.478 5.104 134.166 5.792C134.87 6.464 135.222 7.424 135.222 8.672V13.088C135.222 14.336 134.87 15.304 134.166 15.992C133.478 16.664 132.51 17 131.262 17ZM129.582 14.384H130.806C131.318 14.384 131.678 14.28 131.886 14.072C132.11 13.864 132.222 13.504 132.222 12.992V8.768C132.222 8.256 132.11 7.896 131.886 7.688C131.678 7.48 131.318 7.376 130.806 7.376H129.582C129.07 7.376 128.71 7.48 128.502 7.688C128.294 7.896 128.19 8.256 128.19 8.768V12.992C128.19 13.504 128.294 13.864 128.502 14.072C128.71 14.28 129.07 14.384 129.582 14.384ZM8.846 28.426H9.818C9.938 28.426 9.998 28.498 9.998 28.642V39.784C9.998 39.928 9.938 40 9.818 40H9.296C9.164 40 9.098 39.928 9.098 39.784V29.812H9.026L5.84 37.282C5.768 37.414 5.678 37.48 5.57 37.48H4.976C4.856 37.48 4.772 37.414 4.724 37.282L1.484 29.794H1.412V39.784C1.412 39.928 1.352 40 1.232 40H0.71C0.59 40 0.53 39.928 0.53 39.784V28.642C0.53 28.498 0.59 28.426 0.71 28.426H1.682C1.766 28.426 1.82 28.462 1.844 28.534L5.228 36.436H5.3L8.684 28.534C8.708 28.462 8.762 28.426 8.846 28.426ZM16.3752 40H15.2232C14.4432 40 13.8252 39.772 13.3692 39.316C12.9252 38.86 12.7032 38.236 12.7032 37.444V33.376C12.7032 32.584 12.9252 31.96 13.3692 31.504C13.8252 31.048 14.4432 30.82 15.2232 30.82H19.0392C19.1592 30.82 19.2192 30.892 19.2192 31.036V39.784C19.2192 39.928 19.1592 40 19.0392 40H18.5172C18.3852 40 18.3192 39.928 18.3192 39.784V39.064H18.2472C17.9352 39.688 17.3112 40 16.3752 40ZM18.3192 37.426V31.792C18.3192 31.684 18.2592 31.63 18.1392 31.63H15.2952C14.7432 31.63 14.3232 31.786 14.0352 32.098C13.7472 32.41 13.6032 32.848 13.6032 33.412V37.408C13.6032 37.972 13.7472 38.41 14.0352 38.722C14.3232 39.034 14.7432 39.19 15.2952 39.19H16.4652C17.0412 39.19 17.4912 39.04 17.8152 38.74C18.1512 38.428 18.3192 37.99 18.3192 37.426ZM22.6204 40H22.0984C21.9784 40 21.9184 39.928 21.9184 39.784V31.036C21.9184 30.892 21.9784 30.82 22.0984 30.82H22.6204C22.7524 30.82 22.8184 30.892 22.8184 31.036V31.756H22.8904C23.2264 31.132 23.8504 30.82 24.7624 30.82H25.9504C26.7184 30.82 27.3244 31.048 27.7684 31.504C28.2124 31.96 28.4344 32.584 28.4344 33.376V39.784C28.4344 39.928 28.3744 40 28.2544 40H27.7324C27.6004 40 27.5344 39.928 27.5344 39.784V33.412C27.5344 32.848 27.3904 32.41 27.1024 32.098C26.8144 31.786 26.3944 31.63 25.8424 31.63H24.6724C24.0964 31.63 23.6404 31.786 23.3044 32.098C22.9804 32.398 22.8184 32.83 22.8184 33.394V39.784C22.8184 39.928 22.7524 40 22.6204 40ZM34.6234 40H33.4354C32.6674 40 32.0614 39.772 31.6174 39.316C31.1734 38.86 30.9514 38.236 30.9514 37.444V31.036C30.9514 30.892 31.0114 30.82 31.1314 30.82H31.6534C31.7854 30.82 31.8514 30.892 31.8514 31.036V37.408C31.8514 37.972 31.9954 38.41 32.2834 38.722C32.5714 39.034 32.9914 39.19 33.5434 39.19H34.7134C35.2894 39.19 35.7394 39.04 36.0634 38.74C36.3994 38.428 36.5674 37.99 36.5674 37.426V31.036C36.5674 30.892 36.6334 30.82 36.7654 30.82H37.2874C37.4074 30.82 37.4674 30.892 37.4674 31.036V39.784C37.4674 39.928 37.4074 40 37.2874 40H36.7654C36.6334 40 36.5674 39.928 36.5674 39.784V39.064H36.4954C36.1834 39.688 35.5594 40 34.6234 40ZM42.0545 30.82H43.6925C43.8365 30.82 43.9085 30.886 43.9085 31.018V31.432C43.9085 31.564 43.8365 31.63 43.6925 31.63H42.0545C41.9465 31.63 41.8925 31.684 41.8925 31.792V39.784C41.8925 39.928 41.8265 40 41.6945 40H41.1725C41.0405 40 40.9745 39.928 40.9745 39.784V31.792C40.9745 31.684 40.9205 31.63 40.8125 31.63H39.6605C39.5285 31.63 39.4625 31.564 39.4625 31.432V31.018C39.4625 30.886 39.5285 30.82 39.6605 30.82H40.8125C40.9205 30.82 40.9745 30.766 40.9745 30.658V29.866C40.9745 28.186 41.7365 27.346 43.2605 27.346H43.6925C43.8365 27.346 43.9085 27.412 43.9085 27.544V27.958C43.9085 28.09 43.8365 28.156 43.6925 28.156H43.3505C42.8105 28.156 42.4325 28.3 42.2165 28.588C42.0005 28.876 41.8925 29.314 41.8925 29.902V30.658C41.8925 30.766 41.9465 30.82 42.0545 30.82ZM49.1057 40H47.9537C47.1737 40 46.5557 39.772 46.0997 39.316C45.6557 38.86 45.4337 38.236 45.4337 37.444V33.376C45.4337 32.584 45.6557 31.96 46.0997 31.504C46.5557 31.048 47.1737 30.82 47.9537 30.82H51.7697C51.8897 30.82 51.9497 30.892 51.9497 31.036V39.784C51.9497 39.928 51.8897 40 51.7697 40H51.2477C51.1157 40 51.0497 39.928 51.0497 39.784V39.064H50.9777C50.6657 39.688 50.0417 40 49.1057 40ZM51.0497 37.426V31.792C51.0497 31.684 50.9897 31.63 50.8697 31.63H48.0257C47.4737 31.63 47.0537 31.786 46.7657 32.098C46.4777 32.41 46.3337 32.848 46.3337 33.412V37.408C46.3337 37.972 46.4777 38.41 46.7657 38.722C47.0537 39.034 47.4737 39.19 48.0257 39.19H49.1957C49.7717 39.19 50.2217 39.04 50.5457 38.74C50.8817 38.428 51.0497 37.99 51.0497 37.426ZM59.7788 39.388V39.802C59.7788 39.934 59.7128 40 59.5808 40H56.9888C56.2088 40 55.5908 39.772 55.1348 39.316C54.6908 38.86 54.4688 38.236 54.4688 37.444V33.376C54.4688 32.584 54.6908 31.96 55.1348 31.504C55.5908 31.048 56.2088 30.82 56.9888 30.82H59.5808C59.7128 30.82 59.7788 30.886 59.7788 31.018V31.45C59.7788 31.57 59.7128 31.63 59.5808 31.63H57.0608C56.5088 31.63 56.0888 31.786 55.8008 32.098C55.5128 32.41 55.3688 32.848 55.3688 33.412V37.408C55.3688 37.972 55.5128 38.41 55.8008 38.722C56.0888 39.034 56.5088 39.19 57.0608 39.19H59.5808C59.7128 39.19 59.7788 39.256 59.7788 39.388ZM62.1288 31.63H61.0308C60.8988 31.63 60.8328 31.57 60.8328 31.45V31.018C60.8328 30.886 60.8988 30.82 61.0308 30.82H62.1288C62.2368 30.82 62.2908 30.766 62.2908 30.658V29.2C62.2908 29.056 62.3568 28.984 62.4888 28.984H63.0108C63.1428 28.984 63.2088 29.056 63.2088 29.2V30.658C63.2088 30.766 63.2628 30.82 63.3708 30.82H65.5128C65.6448 30.82 65.7108 30.886 65.7108 31.018V31.45C65.7108 31.57 65.6448 31.63 65.5128 31.63H63.3708C63.2628 31.63 63.2088 31.684 63.2088 31.792V37.462C63.2088 38.014 63.3648 38.44 63.6768 38.74C63.9888 39.04 64.4268 39.19 64.9908 39.19H65.6928C65.8248 39.19 65.8908 39.256 65.8908 39.388V39.802C65.8908 39.934 65.8248 40 65.6928 40H64.9188C64.1268 40 63.4908 39.778 63.0108 39.334C62.5308 38.89 62.2908 38.278 62.2908 37.498V31.792C62.2908 31.684 62.2368 31.63 62.1288 31.63ZM71.555 40H70.367C69.599 40 68.993 39.772 68.549 39.316C68.105 38.86 67.883 38.236 67.883 37.444V31.036C67.883 30.892 67.943 30.82 68.063 30.82H68.585C68.717 30.82 68.783 30.892 68.783 31.036V37.408C68.783 37.972 68.927 38.41 69.215 38.722C69.503 39.034 69.923 39.19 70.475 39.19H71.645C72.221 39.19 72.671 39.04 72.995 38.74C73.331 38.428 73.499 37.99 73.499 37.426V31.036C73.499 30.892 73.565 30.82 73.697 30.82H74.219C74.339 30.82 74.399 30.892 74.399 31.036V39.784C74.399 39.928 74.339 40 74.219 40H73.697C73.565 40 73.499 39.928 73.499 39.784V39.064H73.427C73.115 39.688 72.491 40 71.555 40ZM77.7981 40H77.2761C77.1561 40 77.0961 39.928 77.0961 39.784V31.036C77.0961 30.892 77.1561 30.82 77.2761 30.82H77.7981C77.9301 30.82 77.9961 30.892 77.9961 31.036V31.792H78.0681C78.2001 31.54 78.4341 31.318 78.7701 31.126C79.1061 30.922 79.5201 30.82 80.0121 30.82H80.7141C80.8461 30.82 80.9121 30.886 80.9121 31.018V31.45C80.9121 31.582 80.8461 31.642 80.7141 31.63H79.8681C79.2801 31.63 78.8181 31.81 78.4821 32.17C78.1581 32.53 77.9961 33.016 77.9961 33.628V39.784C77.9961 39.928 77.9301 40 77.7981 40ZM82.8287 29.308V27.58C82.8287 27.448 82.8887 27.382 83.0087 27.382H83.5487C83.6687 27.382 83.7287 27.448 83.7287 27.58V29.308C83.7287 29.452 83.6687 29.524 83.5487 29.524H83.0087C82.8887 29.524 82.8287 29.452 82.8287 29.308ZM82.8287 39.784V31.036C82.8287 30.892 82.8887 30.82 83.0087 30.82H83.5307C83.6627 30.82 83.7287 30.892 83.7287 31.036V39.784C83.7287 39.928 83.6687 40 83.5487 40H83.0087C82.8887 40 82.8287 39.928 82.8287 39.784ZM87.22 40H86.698C86.578 40 86.518 39.928 86.518 39.784V31.036C86.518 30.892 86.578 30.82 86.698 30.82H87.22C87.352 30.82 87.418 30.892 87.418 31.036V31.756H87.49C87.826 31.132 88.45 30.82 89.362 30.82H90.55C91.318 30.82 91.924 31.048 92.368 31.504C92.812 31.96 93.034 32.584 93.034 33.376V39.784C93.034 39.928 92.974 40 92.854 40H92.332C92.2 40 92.134 39.928 92.134 39.784V33.412C92.134 32.848 91.99 32.41 91.702 32.098C91.414 31.786 90.994 31.63 90.442 31.63H89.272C88.696 31.63 88.24 31.786 87.904 32.098C87.58 32.398 87.418 32.83 87.418 33.394V39.784C87.418 39.928 87.352 40 87.22 40ZM99.205 39.478H98.035C97.267 39.478 96.655 39.25 96.199 38.794C95.755 38.338 95.533 37.72 95.533 36.94V33.376C95.533 32.584 95.755 31.96 96.199 31.504C96.655 31.048 97.273 30.82 98.053 30.82H101.869C102.001 30.82 102.067 30.892 102.067 31.036V39.964C102.067 40.756 101.839 41.38 101.383 41.836C100.927 42.292 100.309 42.52 99.529 42.52H96.253C96.121 42.52 96.055 42.454 96.055 42.322V41.89C96.055 41.77 96.121 41.71 96.253 41.71H99.457C100.009 41.71 100.429 41.554 100.717 41.242C101.005 40.942 101.149 40.504 101.149 39.928V38.542H101.077C100.777 39.166 100.153 39.478 99.205 39.478ZM101.149 36.904V31.792C101.149 31.684 101.095 31.63 100.987 31.63H98.143C97.591 31.63 97.165 31.786 96.865 32.098C96.577 32.398 96.433 32.836 96.433 33.412V36.904C96.433 37.468 96.577 37.906 96.865 38.218C97.165 38.518 97.591 38.668 98.143 38.668H99.295C99.871 38.668 100.321 38.518 100.645 38.218C100.981 37.906 101.149 37.468 101.149 36.904ZM115.467 40H109.905C109.785 40 109.725 39.928 109.725 39.784V28.642C109.725 28.498 109.785 28.426 109.905 28.426H115.467C115.611 28.426 115.683 28.492 115.683 28.624V29.038C115.683 29.17 115.611 29.236 115.467 29.236H110.805C110.685 29.236 110.625 29.29 110.625 29.398V33.538C110.625 33.646 110.685 33.7 110.805 33.7H114.963C115.095 33.7 115.161 33.766 115.161 33.898V34.312C115.161 34.444 115.095 34.51 114.963 34.51H110.805C110.685 34.51 110.625 34.564 110.625 34.672V39.028C110.625 39.136 110.685 39.19 110.805 39.19H115.467C115.611 39.19 115.683 39.256 115.683 39.388V39.802C115.683 39.934 115.611 40 115.467 40ZM118.913 40H118.391C118.271 40 118.211 39.928 118.211 39.784V31.036C118.211 30.892 118.271 30.82 118.391 30.82H118.913C119.045 30.82 119.111 30.892 119.111 31.036V31.756H119.183C119.519 31.132 120.143 30.82 121.055 30.82H122.243C123.011 30.82 123.617 31.048 124.061 31.504C124.505 31.96 124.727 32.584 124.727 33.376V39.784C124.727 39.928 124.667 40 124.547 40H124.025C123.893 40 123.827 39.928 123.827 39.784V33.412C123.827 32.848 123.683 32.41 123.395 32.098C123.107 31.786 122.687 31.63 122.135 31.63H120.965C120.389 31.63 119.933 31.786 119.597 32.098C119.273 32.398 119.111 32.83 119.111 33.394V39.784C119.111 39.928 119.045 40 118.913 40ZM130.898 39.478H129.728C128.96 39.478 128.348 39.25 127.892 38.794C127.448 38.338 127.226 37.72 127.226 36.94V33.376C127.226 32.584 127.448 31.96 127.892 31.504C128.348 31.048 128.966 30.82 129.746 30.82H133.562C133.694 30.82 133.76 30.892 133.76 31.036V39.964C133.76 40.756 133.532 41.38 133.076 41.836C132.62 42.292 132.002 42.52 131.222 42.52H127.946C127.814 42.52 127.748 42.454 127.748 42.322V41.89C127.748 41.77 127.814 41.71 127.946 41.71H131.15C131.702 41.71 132.122 41.554 132.41 41.242C132.698 40.942 132.842 40.504 132.842 39.928V38.542H132.77C132.47 39.166 131.846 39.478 130.898 39.478ZM132.842 36.904V31.792C132.842 31.684 132.788 31.63 132.68 31.63H129.836C129.284 31.63 128.858 31.786 128.558 32.098C128.27 32.398 128.126 32.836 128.126 33.412V36.904C128.126 37.468 128.27 37.906 128.558 38.218C128.858 38.518 129.284 38.668 129.836 38.668H130.988C131.564 38.668 132.014 38.518 132.338 38.218C132.674 37.906 132.842 37.468 132.842 36.904ZM136.53 29.308V27.58C136.53 27.448 136.59 27.382 136.71 27.382H137.25C137.37 27.382 137.43 27.448 137.43 27.58V29.308C137.43 29.452 137.37 29.524 137.25 29.524H136.71C136.59 29.524 136.53 29.452 136.53 29.308ZM136.53 39.784V31.036C136.53 30.892 136.59 30.82 136.71 30.82H137.232C137.364 30.82 137.43 30.892 137.43 31.036V39.784C137.43 39.928 137.37 40 137.25 40H136.71C136.59 40 136.53 39.928 136.53 39.784ZM140.921 40H140.399C140.279 40 140.219 39.928 140.219 39.784V31.036C140.219 30.892 140.279 30.82 140.399 30.82H140.921C141.053 30.82 141.119 30.892 141.119 31.036V31.756H141.191C141.527 31.132 142.151 30.82 143.063 30.82H144.251C145.019 30.82 145.625 31.048 146.069 31.504C146.513 31.96 146.735 32.584 146.735 33.376V39.784C146.735 39.928 146.675 40 146.555 40H146.033C145.901 40 145.835 39.928 145.835 39.784V33.412C145.835 32.848 145.691 32.41 145.403 32.098C145.115 31.786 144.695 31.63 144.143 31.63H142.973C142.397 31.63 141.941 31.786 141.605 32.098C141.281 32.398 141.119 32.83 141.119 33.394V39.784C141.119 39.928 141.053 40 140.921 40ZM155.444 40H151.682C150.902 40 150.284 39.772 149.828 39.316C149.384 38.86 149.162 38.236 149.162 37.444V33.376C149.162 32.584 149.384 31.96 149.828 31.504C150.284 31.048 150.902 30.82 151.682 30.82H153.23C154.01 30.82 154.628 31.048 155.084 31.504C155.54 31.96 155.768 32.584 155.768 33.376V35.662C155.768 35.806 155.696 35.878 155.552 35.878H150.224C150.116 35.878 150.062 35.932 150.062 36.04V37.426C150.062 37.99 150.206 38.428 150.494 38.74C150.782 39.04 151.202 39.19 151.754 39.19H155.444C155.576 39.19 155.642 39.256 155.642 39.388V39.802C155.642 39.934 155.576 40 155.444 40ZM150.224 35.158H154.706C154.814 35.158 154.868 35.104 154.868 34.996V33.394C154.868 32.83 154.724 32.398 154.436 32.098C154.148 31.786 153.728 31.63 153.176 31.63H151.754C151.202 31.63 150.782 31.786 150.494 32.098C150.206 32.398 150.062 32.83 150.062 33.394V34.996C150.062 35.104 150.116 35.158 150.224 35.158ZM164.304 40H160.542C159.762 40 159.144 39.772 158.688 39.316C158.244 38.86 158.022 38.236 158.022 37.444V33.376C158.022 32.584 158.244 31.96 158.688 31.504C159.144 31.048 159.762 30.82 160.542 30.82H162.09C162.87 30.82 163.488 31.048 163.944 31.504C164.4 31.96 164.628 32.584 164.628 33.376V35.662C164.628 35.806 164.556 35.878 164.412 35.878H159.084C158.976 35.878 158.922 35.932 158.922 36.04V37.426C158.922 37.99 159.066 38.428 159.354 38.74C159.642 39.04 160.062 39.19 160.614 39.19H164.304C164.436 39.19 164.502 39.256 164.502 39.388V39.802C164.502 39.934 164.436 40 164.304 40ZM159.084 35.158H163.566C163.674 35.158 163.728 35.104 163.728 34.996V33.394C163.728 32.83 163.584 32.398 163.296 32.098C163.008 31.786 162.588 31.63 162.036 31.63H160.614C160.062 31.63 159.642 31.786 159.354 32.098C159.066 32.398 158.922 32.83 158.922 33.394V34.996C158.922 35.104 158.976 35.158 159.084 35.158ZM167.763 40H167.241C167.121 40 167.061 39.928 167.061 39.784V31.036C167.061 30.892 167.121 30.82 167.241 30.82H167.763C167.895 30.82 167.961 30.892 167.961 31.036V31.792H168.033C168.165 31.54 168.399 31.318 168.735 31.126C169.071 30.922 169.485 30.82 169.977 30.82H170.679C170.811 30.82 170.877 30.886 170.877 31.018V31.45C170.877 31.582 170.811 31.642 170.679 31.63H169.833C169.245 31.63 168.783 31.81 168.447 32.17C168.123 32.53 167.961 33.016 167.961 33.628V39.784C167.961 39.928 167.895 40 167.763 40Z" fill="#5A5A5A"/>
</svg>
