<svg width="169" height="66" viewBox="0 0 169 66" fill="none" xmlns="http://www.w3.org/2000/svg">
<path d="M3.168 17H0.864C0.576 17 0.48 16.832 0.576 16.496L4.368 2.072C4.48 1.736 4.72 1.568 5.088 1.568H8.28C8.68 1.568 8.92 1.736 9 2.072L12.792 16.496C12.888 16.832 12.792 17 12.504 17H10.2C10.024 17 9.904 16.968 9.84 16.904C9.776 16.824 9.728 16.688 9.696 16.496L9.024 13.856H4.344L3.672 16.496C3.64 16.688 3.584 16.824 3.504 16.904C3.44 16.968 3.328 17 3.168 17ZM6.648 4.472L4.92 11.408H8.472L6.744 4.472H6.648ZM17.2234 17H15.1834C14.8474 17 14.6794 16.832 14.6794 16.496V5.264C14.6794 4.928 14.8474 4.76 15.1834 4.76H17.2234C17.5594 4.76 17.7274 4.928 17.7274 5.264V6.056H17.8234C18.1754 5.192 18.9594 4.76 20.1754 4.76H20.9434C23.4554 4.76 24.7114 6.064 24.7114 8.672V16.496C24.7114 16.832 24.5354 17 24.1834 17H22.1674C21.8314 17 21.6634 16.832 21.6634 16.496V8.816C21.6634 8.304 21.5514 7.944 21.3274 7.736C21.1194 7.512 20.7594 7.4 20.2474 7.4H19.3834C18.2794 7.4 17.7274 8.008 17.7274 9.224V16.496C17.7274 16.832 17.5594 17 17.2234 17ZM27.5059 7.4H26.5459C26.3539 7.4 26.2179 7.368 26.1379 7.304C26.0739 7.24 26.0419 7.112 26.0419 6.92V5.264C26.0419 4.928 26.2099 4.76 26.5459 4.76H27.5059C27.6819 4.76 27.7699 4.672 27.7699 4.496V2.216C27.7699 1.88 27.9459 1.712 28.2979 1.712H30.3139C30.6499 1.712 30.8179 1.88 30.8179 2.216V4.496C30.8179 4.672 30.9139 4.76 31.1059 4.76H32.9779C33.3139 4.76 33.4819 4.928 33.4819 5.264V6.92C33.4819 7.096 33.4419 7.224 33.3619 7.304C33.2979 7.368 33.1699 7.4 32.9779 7.4H31.1059C30.9139 7.4 30.8179 7.488 30.8179 7.664V12.968C30.8179 13.464 30.9299 13.824 31.1539 14.048C31.3779 14.256 31.7459 14.36 32.2579 14.36H33.2179C33.5539 14.36 33.7219 14.528 33.7219 14.864V16.52C33.7219 16.696 33.6819 16.824 33.6019 16.904C33.5379 16.968 33.4099 17 33.2179 17H31.7539C30.4899 17 29.5059 16.664 28.8019 15.992C28.1139 15.32 27.7699 14.36 27.7699 13.112V7.664C27.7699 7.488 27.6819 7.4 27.5059 7.4ZM38.2468 17H36.2068C35.8708 17 35.7028 16.832 35.7028 16.496V0.631999C35.7028 0.296 35.8708 0.128 36.2068 0.128H38.2468C38.5828 0.128 38.7508 0.296 38.7508 0.631999V6.056H38.8468C39.1988 5.192 39.9828 4.76 41.1988 4.76H41.9668C44.4788 4.76 45.7348 6.064 45.7348 8.672V16.496C45.7348 16.832 45.5588 17 45.2068 17H43.1908C42.8548 17 42.6868 16.832 42.6868 16.496V8.816C42.6868 8.304 42.5748 7.944 42.3508 7.736C42.1428 7.512 41.7828 7.4 41.2708 7.4H40.4068C39.3028 7.4 38.7508 8.008 38.7508 9.224V16.496C38.7508 16.832 38.5828 17 38.2468 17ZM54.1213 17H51.9853C50.7213 17 49.7453 16.664 49.0573 15.992C48.3693 15.32 48.0253 14.352 48.0253 13.088V8.672C48.0253 7.408 48.3693 6.44 49.0573 5.768C49.7453 5.096 50.7213 4.76 51.9853 4.76H54.1213C55.3693 4.76 56.3373 5.104 57.0253 5.792C57.7293 6.464 58.0813 7.424 58.0813 8.672V13.088C58.0813 14.336 57.7293 15.304 57.0253 15.992C56.3373 16.664 55.3693 17 54.1213 17ZM52.4413 14.384H53.6653C54.1773 14.384 54.5373 14.28 54.7453 14.072C54.9693 13.864 55.0813 13.504 55.0813 12.992V8.768C55.0813 8.256 54.9693 7.896 54.7453 7.688C54.5373 7.48 54.1773 7.376 53.6653 7.376H52.4413C51.9293 7.376 51.5693 7.48 51.3613 7.688C51.1533 7.896 51.0493 8.256 51.0493 8.768V12.992C51.0493 13.504 51.1533 13.864 51.3613 14.072C51.5693 14.28 51.9293 14.384 52.4413 14.384ZM63.0203 17H60.9803C60.6443 17 60.4763 16.832 60.4763 16.496V5.264C60.4763 4.928 60.6443 4.76 60.9803 4.76H63.0203C63.3563 4.76 63.5243 4.928 63.5243 5.264V6.056H63.6203C63.9723 5.192 64.7563 4.76 65.9723 4.76H66.7403C69.2523 4.76 70.5083 6.064 70.5083 8.672V16.496C70.5083 16.832 70.3323 17 69.9803 17H67.9643C67.6283 17 67.4603 16.832 67.4603 16.496V8.816C67.4603 8.304 67.3483 7.944 67.1243 7.736C66.9163 7.512 66.5563 7.4 66.0443 7.4H65.1803C64.0763 7.4 63.5243 8.008 63.5243 9.224V16.496C63.5243 16.832 63.3563 17 63.0203 17ZM75.0308 21.056H73.4948C73.1748 21.056 73.0148 20.88 73.0148 20.528V18.92C73.0148 18.568 73.1748 18.392 73.4948 18.392H73.9988C75.0068 18.392 75.6868 18.248 76.0388 17.96C76.4068 17.688 76.6868 17.152 76.8788 16.352H75.6068C75.3028 16.352 75.1028 16.184 75.0068 15.848L72.1988 5.264C72.1028 4.928 72.2228 4.76 72.5588 4.76H74.6948C75.0148 4.76 75.2148 4.928 75.2948 5.264L77.3588 14.12H77.4548L79.4948 5.264C79.5588 4.928 79.7588 4.76 80.0948 4.76H82.1108C82.5108 4.76 82.6708 4.936 82.5908 5.288L79.6628 17C79.3108 18.328 78.7668 19.336 78.0308 20.024C77.2948 20.712 76.2948 21.056 75.0308 21.056ZM89.4651 13.064V12.584C89.4651 12.248 89.6331 12.08 89.9691 12.08H92.0091C92.3451 12.08 92.5131 12.248 92.5131 12.584V12.776C92.5131 13.384 92.6331 13.8 92.8731 14.024C93.1131 14.248 93.5531 14.36 94.1931 14.36H95.3211C95.9451 14.36 96.3771 14.24 96.6171 14C96.8731 13.76 97.0011 13.312 97.0011 12.656V12.368C97.0011 11.904 96.8091 11.552 96.4251 11.312C96.0571 11.056 95.5931 10.904 95.0331 10.856C94.4731 10.808 93.8651 10.72 93.2091 10.592C92.5691 10.448 91.9691 10.272 91.4091 10.064C90.8491 9.84 90.3771 9.416 89.9931 8.792C89.6251 8.152 89.4411 7.336 89.4411 6.344V5.504C89.4411 4.256 89.7931 3.288 90.4971 2.6C91.2011 1.912 92.1771 1.568 93.4251 1.568H95.8251C97.0891 1.568 98.0731 1.912 98.7771 2.6C99.4811 3.288 99.8331 4.256 99.8331 5.504V5.96C99.8331 6.296 99.6651 6.464 99.3291 6.464H97.2891C96.9531 6.464 96.7851 6.296 96.7851 5.96V5.816C96.7851 5.192 96.6651 4.768 96.4251 4.544C96.1851 4.32 95.7451 4.208 95.1051 4.208H94.1691C93.5131 4.208 93.0651 4.336 92.8251 4.592C92.6011 4.832 92.4891 5.312 92.4891 6.032V6.488C92.4891 7.24 93.1451 7.672 94.4571 7.784C95.8171 7.896 97.0251 8.168 98.0811 8.6C98.6411 8.84 99.1051 9.272 99.4731 9.896C99.8571 10.504 100.049 11.288 100.049 12.248V13.064C100.049 14.312 99.6971 15.28 98.9931 15.968C98.2891 16.656 97.3131 17 96.0651 17H93.4491C92.2011 17 91.2251 16.656 90.5211 15.968C89.8171 15.28 89.4651 14.312 89.4651 13.064ZM111.571 17H106.267C105.003 17 104.027 16.664 103.339 15.992C102.651 15.32 102.307 14.352 102.307 13.088V8.672C102.307 7.408 102.651 6.44 103.339 5.768C104.027 5.096 105.003 4.76 106.267 4.76H108.163C109.427 4.76 110.403 5.096 111.091 5.768C111.779 6.44 112.123 7.408 112.123 8.672V11.72C112.123 12.056 111.955 12.224 111.619 12.224H105.595C105.403 12.224 105.307 12.312 105.307 12.488V13.016C105.307 13.512 105.411 13.872 105.619 14.096C105.843 14.304 106.211 14.408 106.723 14.408H111.571C111.907 14.408 112.075 14.584 112.075 14.936V16.52C112.075 16.696 112.035 16.824 111.955 16.904C111.891 16.968 111.763 17 111.571 17ZM105.595 10.184H108.859C109.035 10.184 109.123 10.096 109.123 9.92V8.768C109.123 8.256 109.019 7.896 108.811 7.688C108.603 7.48 108.243 7.376 107.731 7.376H106.723C106.211 7.376 105.851 7.48 105.643 7.688C105.435 7.896 105.331 8.256 105.331 8.768V9.92C105.331 10.096 105.419 10.184 105.595 10.184ZM118.822 17H118.03C116.798 17 115.862 16.664 115.222 15.992C114.598 15.32 114.286 14.352 114.286 13.088V5.264C114.286 4.928 114.454 4.76 114.79 4.76H116.83C117.166 4.76 117.334 4.928 117.334 5.264V12.944C117.334 13.456 117.438 13.824 117.646 14.048C117.87 14.256 118.23 14.36 118.726 14.36H119.614C120.718 14.36 121.27 13.752 121.27 12.536V5.264C121.27 4.928 121.438 4.76 121.774 4.76H123.79C124.142 4.76 124.318 4.928 124.318 5.264V16.496C124.318 16.832 124.142 17 123.79 17H121.774C121.438 17 121.27 16.832 121.27 16.496V15.704H121.174C120.998 16.136 120.686 16.464 120.238 16.688C119.79 16.896 119.318 17 118.822 17ZM129.512 17H127.472C127.136 17 126.968 16.832 126.968 16.496V5.264C126.968 4.928 127.136 4.76 127.472 4.76H129.512C129.848 4.76 130.016 4.928 130.016 5.264V6.056H130.112C130.304 5.672 130.624 5.36 131.072 5.12C131.536 4.88 132.064 4.76 132.656 4.76H133.328C134.72 4.76 135.72 5.272 136.328 6.296C136.872 5.272 137.808 4.76 139.136 4.76H139.832C141.064 4.76 141.992 5.096 142.616 5.768C143.256 6.44 143.576 7.408 143.576 8.672V16.496C143.576 16.832 143.408 17 143.072 17H141.032C140.696 17 140.528 16.832 140.528 16.496V8.816C140.528 8.304 140.424 7.944 140.216 7.736C140.008 7.512 139.648 7.4 139.136 7.4H138.536C137.432 7.4 136.88 8.016 136.88 9.248V16.496C136.88 16.832 136.704 17 136.352 17H134.336C134 17 133.832 16.832 133.832 16.496V8.816C133.832 8.304 133.72 7.944 133.496 7.736C133.288 7.512 132.928 7.4 132.416 7.4H131.672C130.568 7.4 130.016 8.008 130.016 9.224V16.496C130.016 16.832 129.848 17 129.512 17ZM150.413 17H149.837C148.573 17 147.597 16.664 146.909 15.992C146.221 15.32 145.877 14.352 145.877 13.088V8.672C145.877 7.408 146.221 6.44 146.909 5.768C147.597 5.096 148.573 4.76 149.837 4.76H155.381C155.733 4.76 155.909 4.928 155.909 5.264V16.496C155.909 16.832 155.733 17 155.381 17H153.365C153.029 17 152.861 16.832 152.861 16.496V15.704H152.765C152.589 16.136 152.277 16.464 151.829 16.688C151.381 16.896 150.909 17 150.413 17ZM152.861 12.536V7.664C152.861 7.488 152.765 7.4 152.573 7.4H150.317C149.805 7.4 149.445 7.512 149.237 7.736C149.029 7.944 148.925 8.304 148.925 8.816V12.944C148.925 13.456 149.029 13.824 149.237 14.048C149.445 14.256 149.805 14.36 150.317 14.36H151.205C152.309 14.36 152.861 13.752 152.861 12.536ZM161.203 17H159.163C158.827 17 158.659 16.832 158.659 16.496V0.631999C158.659 0.296 158.827 0.128 159.163 0.128H161.203C161.539 0.128 161.707 0.296 161.707 0.631999V16.496C161.707 16.832 161.539 17 161.203 17ZM1.224 40H0.666C0.534 40 0.492 39.928 0.54 39.784L4.122 28.642C4.158 28.498 4.242 28.426 4.374 28.426H5.22C5.34 28.426 5.424 28.498 5.472 28.642L9.054 39.784C9.09 39.928 9.048 40 8.928 40H8.352C8.232 40 8.154 39.928 8.118 39.784L7.146 36.904H2.43L1.458 39.784C1.41 39.928 1.332 40 1.224 40ZM4.752 29.416L2.682 36.094H6.912L4.824 29.416H4.752ZM14.4577 40H13.2517C12.4837 40 11.8777 39.772 11.4337 39.316C10.9897 38.86 10.7677 38.236 10.7677 37.444V33.376C10.7677 32.584 10.9897 31.96 11.4337 31.504C11.8777 31.048 12.4837 30.82 13.2517 30.82H14.4577C15.3817 30.82 16.0117 31.132 16.3477 31.756H16.4197V27.562C16.4197 27.418 16.4797 27.346 16.5997 27.346H17.1217C17.2537 27.346 17.3197 27.418 17.3197 27.562V39.784C17.3197 39.928 17.2537 40 17.1217 40H16.5997C16.4797 40 16.4197 39.928 16.4197 39.784V39.064H16.3477C16.0117 39.688 15.3817 40 14.4577 40ZM16.4197 37.426V33.394C16.4197 32.83 16.2517 32.398 15.9157 32.098C15.5917 31.786 15.1417 31.63 14.5657 31.63H13.3597C12.8077 31.63 12.3877 31.786 12.0997 32.098C11.8117 32.41 11.6677 32.848 11.6677 33.412V37.408C11.6677 37.972 11.8117 38.41 12.0997 38.722C12.3877 39.034 12.8077 39.19 13.3597 39.19H14.5657C15.1417 39.19 15.5917 39.04 15.9157 38.74C16.2517 38.428 16.4197 37.99 16.4197 37.426ZM19.172 30.82H19.73C19.85 30.82 19.928 30.892 19.964 31.036L22.376 38.992H22.448L24.842 31.036C24.89 30.892 24.968 30.82 25.076 30.82H25.652C25.784 30.82 25.826 30.892 25.778 31.036L23.06 39.784C23.024 39.928 22.94 40 22.808 40H22.016C21.884 40 21.794 39.928 21.746 39.784L19.028 31.036C18.992 30.892 19.04 30.82 19.172 30.82ZM27.5963 29.308V27.58C27.5963 27.448 27.6563 27.382 27.7763 27.382H28.3163C28.4363 27.382 28.4963 27.448 28.4963 27.58V29.308C28.4963 29.452 28.4363 29.524 28.3163 29.524H27.7763C27.6563 29.524 27.5963 29.452 27.5963 29.308ZM27.5963 39.784V31.036C27.5963 30.892 27.6563 30.82 27.7763 30.82H28.2983C28.4303 30.82 28.4963 30.892 28.4963 31.036V39.784C28.4963 39.928 28.4363 40 28.3163 40H27.7763C27.6563 40 27.5963 39.928 27.5963 39.784ZM34.2555 40H31.1235C30.9915 40 30.9255 39.934 30.9255 39.802V39.388C30.9255 39.268 30.9915 39.208 31.1235 39.208H34.1655C35.2455 39.208 35.7855 38.788 35.7855 37.948V37.516C35.7855 36.736 35.4495 36.226 34.7775 35.986L32.5275 35.122C31.9155 34.882 31.4775 34.6 31.2135 34.276C30.9615 33.952 30.8355 33.502 30.8355 32.926C30.8355 31.522 31.6095 30.82 33.1575 30.82H36.0735C36.2055 30.82 36.2715 30.886 36.2715 31.018V31.432C36.2715 31.552 36.2055 31.612 36.0735 31.612H33.2475C32.7555 31.612 32.3835 31.72 32.1315 31.936C31.8915 32.152 31.7715 32.404 31.7715 32.692V33.106C31.7715 33.442 31.8615 33.706 32.0415 33.898C32.2335 34.09 32.5215 34.252 32.9055 34.384L35.1555 35.284C35.7795 35.488 36.1935 35.794 36.3975 36.202C36.6135 36.598 36.7215 37.156 36.7215 37.876C36.7215 38.596 36.5175 39.13 36.1095 39.478C35.7135 39.826 35.0955 40 34.2555 40ZM42.9255 40H41.3775C40.5975 40 39.9795 39.772 39.5235 39.316C39.0795 38.86 38.8575 38.236 38.8575 37.444V33.376C38.8575 32.584 39.0795 31.96 39.5235 31.504C39.9795 31.048 40.5975 30.82 41.3775 30.82H42.9255C43.7055 30.82 44.3235 31.048 44.7795 31.504C45.2355 31.96 45.4635 32.584 45.4635 33.376V37.444C45.4635 38.236 45.2355 38.86 44.7795 39.316C44.3235 39.772 43.7055 40 42.9255 40ZM41.4495 39.19H42.8535C43.4055 39.19 43.8255 39.04 44.1135 38.74C44.4135 38.428 44.5635 37.99 44.5635 37.426V33.394C44.5635 32.83 44.4135 32.398 44.1135 32.098C43.8255 31.786 43.4055 31.63 42.8535 31.63H41.4495C40.8975 31.63 40.4775 31.786 40.1895 32.098C39.9015 32.398 39.7575 32.83 39.7575 33.394V37.426C39.7575 37.99 39.9015 38.428 40.1895 38.74C40.4775 39.04 40.8975 39.19 41.4495 39.19ZM48.6692 40H48.1472C48.0272 40 47.9672 39.928 47.9672 39.784V31.036C47.9672 30.892 48.0272 30.82 48.1472 30.82H48.6692C48.8012 30.82 48.8672 30.892 48.8672 31.036V31.792H48.9392C49.0712 31.54 49.3052 31.318 49.6412 31.126C49.9772 30.922 50.3912 30.82 50.8832 30.82H51.5852C51.7172 30.82 51.7832 30.886 51.7832 31.018V31.45C51.7832 31.582 51.7172 31.642 51.5852 31.63H50.7392C50.1512 31.63 49.6892 31.81 49.3532 32.17C49.0292 32.53 48.8672 33.016 48.8672 33.628V39.784C48.8672 39.928 48.8012 40 48.6692 40ZM54.0418 42.736H53.3758C53.2438 42.736 53.1778 42.67 53.1778 42.538V42.106C53.1778 41.974 53.2438 41.908 53.3758 41.908H53.8618C54.2218 41.908 54.5278 41.854 54.7798 41.746C55.0318 41.65 55.2538 41.464 55.4458 41.188C55.6378 40.912 55.7638 40.696 55.8238 40.54C55.9918 40.168 56.1298 39.826 56.2378 39.514H55.8958C55.7638 39.514 55.6798 39.442 55.6438 39.298L52.7818 31.036C52.7338 30.892 52.7818 30.82 52.9258 30.82H53.4838C53.6038 30.82 53.6818 30.892 53.7178 31.036L56.3638 38.758H56.4358L59.0818 31.036C59.1178 30.892 59.1958 30.82 59.3158 30.82H59.8558C59.9998 30.82 60.0538 30.892 60.0178 31.036C57.8698 37.324 56.7478 40.576 56.6518 40.792C56.5678 41.008 56.4058 41.302 56.1658 41.674C55.7098 42.382 55.0018 42.736 54.0418 42.736ZM70.5583 40H69.0103C68.2303 40 67.6123 39.772 67.1563 39.316C66.7123 38.86 66.4903 38.236 66.4903 37.444V33.376C66.4903 32.584 66.7123 31.96 67.1563 31.504C67.6123 31.048 68.2303 30.82 69.0103 30.82H70.5583C71.3383 30.82 71.9563 31.048 72.4123 31.504C72.8683 31.96 73.0963 32.584 73.0963 33.376V37.444C73.0963 38.236 72.8683 38.86 72.4123 39.316C71.9563 39.772 71.3383 40 70.5583 40ZM69.0823 39.19H70.4863C71.0383 39.19 71.4583 39.04 71.7463 38.74C72.0463 38.428 72.1963 37.99 72.1963 37.426V33.394C72.1963 32.83 72.0463 32.398 71.7463 32.098C71.4583 31.786 71.0383 31.63 70.4863 31.63H69.0823C68.5303 31.63 68.1103 31.786 67.8223 32.098C67.5343 32.398 67.3903 32.83 67.3903 33.394V37.426C67.3903 37.99 67.5343 38.428 67.8223 38.74C68.1103 39.04 68.5303 39.19 69.0823 39.19ZM76.302 40H75.78C75.66 40 75.6 39.928 75.6 39.784V31.036C75.6 30.892 75.66 30.82 75.78 30.82H76.302C76.434 30.82 76.5 30.892 76.5 31.036V31.756H76.572C76.908 31.132 77.532 30.82 78.444 30.82H79.632C80.4 30.82 81.006 31.048 81.45 31.504C81.894 31.96 82.116 32.584 82.116 33.376V39.784C82.116 39.928 82.056 40 81.936 40H81.414C81.282 40 81.216 39.928 81.216 39.784V33.412C81.216 32.848 81.072 32.41 80.784 32.098C80.496 31.786 80.076 31.63 79.524 31.63H78.354C77.778 31.63 77.322 31.786 76.986 32.098C76.662 32.398 76.5 32.83 76.5 33.394V39.784C76.5 39.928 76.434 40 76.302 40ZM92.2219 40H91.6999C91.5679 40 91.5019 39.928 91.5019 39.784V29.398C91.5019 29.29 91.4419 29.236 91.3219 29.236H88.7119C88.5679 29.236 88.4959 29.17 88.4959 29.038V28.624C88.4959 28.492 88.5679 28.426 88.7119 28.426H95.1919C95.3359 28.426 95.4079 28.492 95.4079 28.624V29.038C95.4079 29.17 95.3359 29.236 95.1919 29.236H92.5819C92.4619 29.236 92.4019 29.29 92.4019 29.398V39.784C92.4019 39.928 92.3419 40 92.2219 40ZM103.182 40H99.4205C98.6405 40 98.0225 39.772 97.5665 39.316C97.1225 38.86 96.9005 38.236 96.9005 37.444V33.376C96.9005 32.584 97.1225 31.96 97.5665 31.504C98.0225 31.048 98.6405 30.82 99.4205 30.82H100.968C101.748 30.82 102.366 31.048 102.822 31.504C103.278 31.96 103.506 32.584 103.506 33.376V35.662C103.506 35.806 103.434 35.878 103.29 35.878H97.9625C97.8545 35.878 97.8005 35.932 97.8005 36.04V37.426C97.8005 37.99 97.9445 38.428 98.2325 38.74C98.5205 39.04 98.9405 39.19 99.4925 39.19H103.182C103.314 39.19 103.38 39.256 103.38 39.388V39.802C103.38 39.934 103.314 40 103.182 40ZM97.9625 35.158H102.444C102.552 35.158 102.606 35.104 102.606 34.996V33.394C102.606 32.83 102.462 32.398 102.174 32.098C101.886 31.786 101.466 31.63 100.914 31.63H99.4925C98.9405 31.63 98.5205 31.786 98.2325 32.098C97.9445 32.398 97.8005 32.83 97.8005 33.394V34.996C97.8005 35.104 97.8545 35.158 97.9625 35.158ZM111.07 39.388V39.802C111.07 39.934 111.004 40 110.872 40H108.28C107.5 40 106.882 39.772 106.426 39.316C105.982 38.86 105.76 38.236 105.76 37.444V33.376C105.76 32.584 105.982 31.96 106.426 31.504C106.882 31.048 107.5 30.82 108.28 30.82H110.872C111.004 30.82 111.07 30.886 111.07 31.018V31.45C111.07 31.57 111.004 31.63 110.872 31.63H108.352C107.8 31.63 107.38 31.786 107.092 32.098C106.804 32.41 106.66 32.848 106.66 33.412V37.408C106.66 37.972 106.804 38.41 107.092 38.722C107.38 39.034 107.8 39.19 108.352 39.19H110.872C111.004 39.19 111.07 39.256 111.07 39.388ZM113.726 40H113.204C113.084 40 113.024 39.928 113.024 39.784V27.562C113.024 27.418 113.084 27.346 113.204 27.346H113.726C113.858 27.346 113.924 27.418 113.924 27.562V31.756H113.996C114.332 31.132 114.956 30.82 115.868 30.82H117.056C117.824 30.82 118.43 31.048 118.874 31.504C119.318 31.96 119.54 32.584 119.54 33.376V39.784C119.54 39.928 119.48 40 119.36 40H118.838C118.706 40 118.64 39.928 118.64 39.784V33.412C118.64 32.848 118.496 32.41 118.208 32.098C117.92 31.786 117.5 31.63 116.948 31.63H115.778C115.202 31.63 114.746 31.786 114.41 32.098C114.086 32.398 113.924 32.83 113.924 33.394V39.784C113.924 39.928 113.858 40 113.726 40ZM122.849 40H122.327C122.207 40 122.147 39.928 122.147 39.784V31.036C122.147 30.892 122.207 30.82 122.327 30.82H122.849C122.981 30.82 123.047 30.892 123.047 31.036V31.756H123.119C123.455 31.132 124.079 30.82 124.991 30.82H126.179C126.947 30.82 127.553 31.048 127.997 31.504C128.441 31.96 128.663 32.584 128.663 33.376V39.784C128.663 39.928 128.603 40 128.483 40H127.961C127.829 40 127.763 39.928 127.763 39.784V33.412C127.763 32.848 127.619 32.41 127.331 32.098C127.043 31.786 126.623 31.63 126.071 31.63H124.901C124.325 31.63 123.869 31.786 123.533 32.098C123.209 32.398 123.047 32.83 123.047 33.394V39.784C123.047 39.928 122.981 40 122.849 40ZM135.158 40H133.61C132.83 40 132.212 39.772 131.756 39.316C131.312 38.86 131.09 38.236 131.09 37.444V33.376C131.09 32.584 131.312 31.96 131.756 31.504C132.212 31.048 132.83 30.82 133.61 30.82H135.158C135.938 30.82 136.556 31.048 137.012 31.504C137.468 31.96 137.696 32.584 137.696 33.376V37.444C137.696 38.236 137.468 38.86 137.012 39.316C136.556 39.772 135.938 40 135.158 40ZM133.682 39.19H135.086C135.638 39.19 136.058 39.04 136.346 38.74C136.646 38.428 136.796 37.99 136.796 37.426V33.394C136.796 32.83 136.646 32.398 136.346 32.098C136.058 31.786 135.638 31.63 135.086 31.63H133.682C133.13 31.63 132.71 31.786 132.422 32.098C132.134 32.398 131.99 32.83 131.99 33.394V37.426C131.99 37.99 132.134 38.428 132.422 38.74C132.71 39.04 133.13 39.19 133.682 39.19ZM140.992 40H140.47C140.35 40 140.29 39.928 140.29 39.784V27.562C140.29 27.418 140.35 27.346 140.47 27.346H140.992C141.124 27.346 141.19 27.418 141.19 27.562V39.784C141.19 39.928 141.124 40 140.992 40ZM147.867 40H146.319C145.539 40 144.921 39.772 144.465 39.316C144.021 38.86 143.799 38.236 143.799 37.444V33.376C143.799 32.584 144.021 31.96 144.465 31.504C144.921 31.048 145.539 30.82 146.319 30.82H147.867C148.647 30.82 149.265 31.048 149.721 31.504C150.177 31.96 150.405 32.584 150.405 33.376V37.444C150.405 38.236 150.177 38.86 149.721 39.316C149.265 39.772 148.647 40 147.867 40ZM146.391 39.19H147.795C148.347 39.19 148.767 39.04 149.055 38.74C149.355 38.428 149.505 37.99 149.505 37.426V33.394C149.505 32.83 149.355 32.398 149.055 32.098C148.767 31.786 148.347 31.63 147.795 31.63H146.391C145.839 31.63 145.419 31.786 145.131 32.098C144.843 32.398 144.699 32.83 144.699 33.394V37.426C144.699 37.99 144.843 38.428 145.131 38.74C145.419 39.04 145.839 39.19 146.391 39.19ZM156.473 39.478H155.303C154.535 39.478 153.923 39.25 153.467 38.794C153.023 38.338 152.801 37.72 152.801 36.94V33.376C152.801 32.584 153.023 31.96 153.467 31.504C153.923 31.048 154.541 30.82 155.321 30.82H159.137C159.269 30.82 159.335 30.892 159.335 31.036V39.964C159.335 40.756 159.107 41.38 158.651 41.836C158.195 42.292 157.577 42.52 156.797 42.52H153.521C153.389 42.52 153.323 42.454 153.323 42.322V41.89C153.323 41.77 153.389 41.71 153.521 41.71H156.725C157.277 41.71 157.697 41.554 157.985 41.242C158.273 40.942 158.417 40.504 158.417 39.928V38.542H158.345C158.045 39.166 157.421 39.478 156.473 39.478ZM158.417 36.904V31.792C158.417 31.684 158.363 31.63 158.255 31.63H155.411C154.859 31.63 154.433 31.786 154.133 32.098C153.845 32.398 153.701 32.836 153.701 33.412V36.904C153.701 37.468 153.845 37.906 154.133 38.218C154.433 38.518 154.859 38.668 155.411 38.668H156.563C157.139 38.668 157.589 38.518 157.913 38.218C158.249 37.906 158.417 37.468 158.417 36.904ZM162.446 42.736H161.78C161.648 42.736 161.582 42.67 161.582 42.538V42.106C161.582 41.974 161.648 41.908 161.78 41.908H162.266C162.626 41.908 162.932 41.854 163.184 41.746C163.436 41.65 163.658 41.464 163.85 41.188C164.042 40.912 164.168 40.696 164.228 40.54C164.396 40.168 164.534 39.826 164.642 39.514H164.3C164.168 39.514 164.084 39.442 164.048 39.298L161.186 31.036C161.138 30.892 161.186 30.82 161.33 30.82H161.888C162.008 30.82 162.086 30.892 162.122 31.036L164.768 38.758H164.84L167.486 31.036C167.522 30.892 167.6 30.82 167.72 30.82H168.26C168.404 30.82 168.458 30.892 168.422 31.036C166.274 37.324 165.152 40.576 165.056 40.792C164.972 41.008 164.81 41.302 164.57 41.674C164.114 42.382 163.406 42.736 162.446 42.736ZM2.61 62.19H6.066C6.618 62.19 7.038 62.04 7.326 61.74C7.626 61.428 7.776 60.984 7.776 60.408V54.018C7.776 53.442 7.626 53.004 7.326 52.704C7.038 52.392 6.618 52.236 6.066 52.236H2.61C2.49 52.236 2.43 52.29 2.43 52.398V62.028C2.43 62.136 2.49 62.19 2.61 62.19ZM1.53 62.784V51.642C1.53 51.498 1.59 51.426 1.71 51.426H6.156C6.936 51.426 7.548 51.654 7.992 52.11C8.448 52.566 8.676 53.19 8.676 53.982V60.444C8.676 61.236 8.448 61.86 7.992 62.316C7.548 62.772 6.936 63 6.156 63H1.71C1.59 63 1.53 62.928 1.53 62.784ZM17.4715 63H13.7095C12.9295 63 12.3115 62.772 11.8555 62.316C11.4115 61.86 11.1895 61.236 11.1895 60.444V56.376C11.1895 55.584 11.4115 54.96 11.8555 54.504C12.3115 54.048 12.9295 53.82 13.7095 53.82H15.2575C16.0375 53.82 16.6555 54.048 17.1115 54.504C17.5675 54.96 17.7955 55.584 17.7955 56.376V58.662C17.7955 58.806 17.7235 58.878 17.5795 58.878H12.2515C12.1435 58.878 12.0895 58.932 12.0895 59.04V60.426C12.0895 60.99 12.2335 61.428 12.5215 61.74C12.8095 62.04 13.2295 62.19 13.7815 62.19H17.4715C17.6035 62.19 17.6695 62.256 17.6695 62.388V62.802C17.6695 62.934 17.6035 63 17.4715 63ZM12.2515 58.158H16.7335C16.8415 58.158 16.8955 58.104 16.8955 57.996V56.394C16.8955 55.83 16.7515 55.398 16.4635 55.098C16.1755 54.786 15.7555 54.63 15.2035 54.63H13.7815C13.2295 54.63 12.8095 54.786 12.5215 55.098C12.2335 55.398 12.0895 55.83 12.0895 56.394V57.996C12.0895 58.104 12.1435 58.158 12.2515 58.158ZM19.3829 53.82H19.9409C20.0609 53.82 20.1389 53.892 20.1749 54.036L22.5869 61.992H22.6589L25.0529 54.036C25.1009 53.892 25.1789 53.82 25.2869 53.82H25.8629C25.9949 53.82 26.0369 53.892 25.9889 54.036L23.2709 62.784C23.2349 62.928 23.1509 63 23.0189 63H22.2269C22.0949 63 22.0049 62.928 21.9569 62.784L19.2389 54.036C19.2029 53.892 19.2509 53.82 19.3829 53.82ZM33.8192 63H30.0572C29.2772 63 28.6592 62.772 28.2032 62.316C27.7592 61.86 27.5372 61.236 27.5372 60.444V56.376C27.5372 55.584 27.7592 54.96 28.2032 54.504C28.6592 54.048 29.2772 53.82 30.0572 53.82H31.6052C32.3852 53.82 33.0032 54.048 33.4592 54.504C33.9152 54.96 34.1432 55.584 34.1432 56.376V58.662C34.1432 58.806 34.0712 58.878 33.9272 58.878H28.5992C28.4912 58.878 28.4372 58.932 28.4372 59.04V60.426C28.4372 60.99 28.5812 61.428 28.8692 61.74C29.1572 62.04 29.5772 62.19 30.1292 62.19H33.8192C33.9512 62.19 34.0172 62.256 34.0172 62.388V62.802C34.0172 62.934 33.9512 63 33.8192 63ZM28.5992 58.158H33.0812C33.1892 58.158 33.2432 58.104 33.2432 57.996V56.394C33.2432 55.83 33.0992 55.398 32.8112 55.098C32.5232 54.786 32.1032 54.63 31.5512 54.63H30.1292C29.5772 54.63 29.1572 54.786 28.8692 55.098C28.5812 55.398 28.4372 55.83 28.4372 56.394V57.996C28.4372 58.104 28.4912 58.158 28.5992 58.158ZM37.3686 63H36.8466C36.7266 63 36.6666 62.928 36.6666 62.784V50.562C36.6666 50.418 36.7266 50.346 36.8466 50.346H37.3686C37.5006 50.346 37.5666 50.418 37.5666 50.562V62.784C37.5666 62.928 37.5006 63 37.3686 63ZM44.2439 63H42.6959C41.9159 63 41.2979 62.772 40.8419 62.316C40.3979 61.86 40.1759 61.236 40.1759 60.444V56.376C40.1759 55.584 40.3979 54.96 40.8419 54.504C41.2979 54.048 41.9159 53.82 42.6959 53.82H44.2439C45.0239 53.82 45.6419 54.048 46.0979 54.504C46.5539 54.96 46.7819 55.584 46.7819 56.376V60.444C46.7819 61.236 46.5539 61.86 46.0979 62.316C45.6419 62.772 45.0239 63 44.2439 63ZM42.7679 62.19H44.1719C44.7239 62.19 45.1439 62.04 45.4319 61.74C45.7319 61.428 45.8819 60.99 45.8819 60.426V56.394C45.8819 55.83 45.7319 55.398 45.4319 55.098C45.1439 54.786 44.7239 54.63 44.1719 54.63H42.7679C42.2159 54.63 41.7959 54.786 41.5079 55.098C41.2199 55.398 41.0759 55.83 41.0759 56.394V60.426C41.0759 60.99 41.2199 61.428 41.5079 61.74C41.7959 62.04 42.2159 62.19 42.7679 62.19ZM49.9875 65.682H49.4655C49.3455 65.682 49.2855 65.616 49.2855 65.484V54.036C49.2855 53.892 49.3455 53.82 49.4655 53.82H49.9875C50.1195 53.82 50.1855 53.892 50.1855 54.036V54.756H50.2575C50.5935 54.132 51.2175 53.82 52.1295 53.82H53.3535C54.1215 53.82 54.7275 54.048 55.1715 54.504C55.6155 54.96 55.8375 55.584 55.8375 56.376V60.444C55.8375 61.236 55.6155 61.86 55.1715 62.316C54.7275 62.772 54.1215 63 53.3535 63H52.1295C51.2175 63 50.5935 62.688 50.2575 62.064H50.1855V65.484C50.1855 65.616 50.1195 65.682 49.9875 65.682ZM52.0395 62.19H53.2275C53.7795 62.19 54.1995 62.04 54.4875 61.74C54.7875 61.428 54.9375 60.984 54.9375 60.408V56.412C54.9375 55.836 54.7875 55.398 54.4875 55.098C54.1995 54.786 53.7795 54.63 53.2275 54.63H52.0395C51.4635 54.63 51.0075 54.786 50.6715 55.098C50.3475 55.398 50.1855 55.83 50.1855 56.394V60.426C50.1855 60.99 50.3475 61.428 50.6715 61.74C51.0075 62.04 51.4635 62.19 52.0395 62.19ZM59.0579 63H58.5359C58.4159 63 58.3559 62.928 58.3559 62.784V54.036C58.3559 53.892 58.4159 53.82 58.5359 53.82H59.0579C59.1899 53.82 59.2559 53.892 59.2559 54.036V54.756H59.3279C59.6759 54.132 60.3119 53.82 61.2359 53.82H61.9739C63.0299 53.82 63.7619 54.24 64.1699 55.08C64.3499 54.66 64.6559 54.348 65.0879 54.144C65.5199 53.928 65.9639 53.82 66.4199 53.82H67.0859C67.8659 53.82 68.4779 54.048 68.9219 54.504C69.3659 54.96 69.5879 55.584 69.5879 56.376V62.784C69.5879 62.928 69.5219 63 69.3899 63H68.8679C68.7359 63 68.6699 62.928 68.6699 62.784V56.412C68.6699 55.836 68.5259 55.398 68.2379 55.098C67.9499 54.786 67.5299 54.63 66.9779 54.63H66.3119C65.7359 54.63 65.2799 54.798 64.9439 55.134C64.6079 55.458 64.4399 55.902 64.4399 56.466V62.784C64.4399 62.928 64.3739 63 64.2419 63H63.7199C63.5879 63 63.5219 62.928 63.5219 62.784V56.412C63.5219 55.836 63.3779 55.398 63.0899 55.098C62.8019 54.786 62.3819 54.63 61.8299 54.63H61.1099C60.5339 54.63 60.0779 54.786 59.7419 55.098C59.4179 55.398 59.2559 55.83 59.2559 56.394V62.784C59.2559 62.928 59.1899 63 59.0579 63ZM78.2918 63H74.5298C73.7498 63 73.1318 62.772 72.6758 62.316C72.2318 61.86 72.0098 61.236 72.0098 60.444V56.376C72.0098 55.584 72.2318 54.96 72.6758 54.504C73.1318 54.048 73.7498 53.82 74.5298 53.82H76.0778C76.8578 53.82 77.4758 54.048 77.9318 54.504C78.3878 54.96 78.6158 55.584 78.6158 56.376V58.662C78.6158 58.806 78.5438 58.878 78.3998 58.878H73.0718C72.9638 58.878 72.9098 58.932 72.9098 59.04V60.426C72.9098 60.99 73.0538 61.428 73.3418 61.74C73.6298 62.04 74.0498 62.19 74.6018 62.19H78.2918C78.4238 62.19 78.4898 62.256 78.4898 62.388V62.802C78.4898 62.934 78.4238 63 78.2918 63ZM73.0718 58.158H77.5538C77.6618 58.158 77.7158 58.104 77.7158 57.996V56.394C77.7158 55.83 77.5718 55.398 77.2838 55.098C76.9958 54.786 76.5758 54.63 76.0238 54.63H74.6018C74.0498 54.63 73.6298 54.786 73.3418 55.098C73.0538 55.398 72.9098 55.83 72.9098 56.394V57.996C72.9098 58.104 72.9638 58.158 73.0718 58.158ZM81.7512 63H81.2292C81.1092 63 81.0492 62.928 81.0492 62.784V54.036C81.0492 53.892 81.1092 53.82 81.2292 53.82H81.7512C81.8832 53.82 81.9492 53.892 81.9492 54.036V54.756H82.0212C82.3572 54.132 82.9812 53.82 83.8932 53.82H85.0812C85.8492 53.82 86.4552 54.048 86.8992 54.504C87.3432 54.96 87.5652 55.584 87.5652 56.376V62.784C87.5652 62.928 87.5052 63 87.3852 63H86.8632C86.7312 63 86.6652 62.928 86.6652 62.784V56.412C86.6652 55.848 86.5212 55.41 86.2332 55.098C85.9452 54.786 85.5252 54.63 84.9732 54.63H83.8032C83.2272 54.63 82.7712 54.786 82.4352 55.098C82.1112 55.398 81.9492 55.83 81.9492 56.394V62.784C81.9492 62.928 81.8832 63 81.7512 63ZM90.5683 54.63H89.4703C89.3383 54.63 89.2723 54.57 89.2723 54.45V54.018C89.2723 53.886 89.3383 53.82 89.4703 53.82H90.5683C90.6763 53.82 90.7303 53.766 90.7303 53.658V52.2C90.7303 52.056 90.7963 51.984 90.9283 51.984H91.4503C91.5823 51.984 91.6483 52.056 91.6483 52.2V53.658C91.6483 53.766 91.7023 53.82 91.8103 53.82H93.9523C94.0843 53.82 94.1503 53.886 94.1503 54.018V54.45C94.1503 54.57 94.0843 54.63 93.9523 54.63H91.8103C91.7023 54.63 91.6483 54.684 91.6483 54.792V60.462C91.6483 61.014 91.8043 61.44 92.1163 61.74C92.4283 62.04 92.8663 62.19 93.4303 62.19H94.1323C94.2643 62.19 94.3303 62.256 94.3303 62.388V62.802C94.3303 62.934 94.2643 63 94.1323 63H93.3583C92.5663 63 91.9303 62.778 91.4503 62.334C90.9703 61.89 90.7303 61.278 90.7303 60.498V54.792C90.7303 54.684 90.6763 54.63 90.5683 54.63Z" fill="#5A5A5A"/>
</svg>
