<svg width="1440" height="265" viewBox="0 0 1440 265" fill="none" xmlns="http://www.w3.org/2000/svg">
<rect width="1440" height="265" fill="white"/>
<rect x="643" y="161" width="155" height="4" fill="#C4C4C4"/>
<path d="M408.762 126.48H412.25C412.932 126.48 413.412 126.341 413.69 126.064C413.988 125.765 414.138 125.275 414.138 124.592V114.832C414.138 114.149 413.988 113.669 413.69 113.392C413.412 113.093 412.932 112.944 412.25 112.944H408.762C408.527 112.944 408.41 113.061 408.41 113.296V126.128C408.41 126.363 408.527 126.48 408.762 126.48ZM404.346 129.328V110.096C404.346 109.648 404.57 109.424 405.018 109.424H412.922C414.586 109.424 415.876 109.883 416.794 110.8C417.732 111.696 418.202 112.976 418.202 114.64V124.784C418.202 126.448 417.732 127.739 416.794 128.656C415.876 129.552 414.586 130 412.922 130H405.018C404.57 130 404.346 129.776 404.346 129.328ZM433.169 130H422.705C422.257 130 422.033 129.776 422.033 129.328V110.096C422.033 109.648 422.257 109.424 422.705 109.424H433.169C433.596 109.424 433.809 109.648 433.809 110.096V112.272C433.809 112.72 433.596 112.944 433.169 112.944H426.481C426.225 112.944 426.097 113.061 426.097 113.296V117.456C426.097 117.691 426.225 117.808 426.481 117.808H431.953C432.401 117.808 432.625 118.032 432.625 118.48V120.656C432.625 121.104 432.401 121.328 431.953 121.328H426.481C426.225 121.328 426.097 121.445 426.097 121.68V126.128C426.097 126.363 426.225 126.48 426.481 126.48H433.169C433.596 126.48 433.809 126.704 433.809 127.152V129.328C433.809 129.776 433.596 130 433.169 130ZM436.834 124.752V124.112C436.834 123.664 437.058 123.44 437.506 123.44H440.226C440.674 123.44 440.898 123.664 440.898 124.112V124.368C440.898 125.179 441.058 125.733 441.378 126.032C441.698 126.331 442.284 126.48 443.138 126.48H444.642C445.474 126.48 446.05 126.32 446.37 126C446.711 125.68 446.882 125.083 446.882 124.208V123.824C446.882 123.205 446.626 122.736 446.114 122.416C445.623 122.075 445.004 121.872 444.258 121.808C443.511 121.744 442.7 121.627 441.826 121.456C440.972 121.264 440.172 121.029 439.426 120.752C438.679 120.453 438.05 119.888 437.538 119.056C437.047 118.203 436.802 117.115 436.802 115.792V114.672C436.802 113.008 437.271 111.717 438.21 110.8C439.148 109.883 440.45 109.424 442.114 109.424H445.314C446.999 109.424 448.311 109.883 449.25 110.8C450.188 111.717 450.658 113.008 450.658 114.672V115.28C450.658 115.728 450.434 115.952 449.986 115.952H447.266C446.818 115.952 446.594 115.728 446.594 115.28V115.088C446.594 114.256 446.434 113.691 446.114 113.392C445.794 113.093 445.207 112.944 444.354 112.944H443.106C442.231 112.944 441.634 113.115 441.314 113.456C441.015 113.776 440.866 114.416 440.866 115.376V115.984C440.866 116.987 441.74 117.563 443.49 117.712C445.303 117.861 446.914 118.224 448.322 118.8C449.068 119.12 449.687 119.696 450.178 120.528C450.69 121.339 450.946 122.384 450.946 123.664V124.752C450.946 126.416 450.476 127.707 449.538 128.624C448.599 129.541 447.298 130 445.634 130H442.146C440.482 130 439.18 129.541 438.242 128.624C437.303 127.707 436.834 126.416 436.834 124.752ZM458.82 110.096V129.328C458.82 129.776 458.596 130 458.148 130H455.428C454.98 130 454.756 129.776 454.756 129.328V110.096C454.756 109.648 454.98 109.424 455.428 109.424H458.148C458.596 109.424 458.82 109.648 458.82 110.096ZM471.479 130H468.087C466.402 130 465.1 129.552 464.183 128.656C463.266 127.76 462.807 126.469 462.807 124.784V114.64C462.807 112.955 463.266 111.664 464.183 110.768C465.1 109.872 466.402 109.424 468.087 109.424H471.479C473.143 109.424 474.434 109.883 475.351 110.8C476.268 111.696 476.727 112.976 476.727 114.64V115.6C476.727 116.069 476.503 116.304 476.055 116.304H473.335C472.887 116.304 472.663 116.069 472.663 115.6V114.832C472.663 114.149 472.524 113.669 472.247 113.392C471.97 113.093 471.49 112.944 470.807 112.944H468.727C468.066 112.944 467.586 113.093 467.287 113.392C467.01 113.669 466.871 114.149 466.871 114.832V124.592C466.871 125.275 467.01 125.765 467.287 126.064C467.586 126.341 468.066 126.48 468.727 126.48H470.807C471.49 126.48 471.97 126.341 472.247 126.064C472.524 125.765 472.663 125.275 472.663 124.592V122.576C472.663 122.341 472.546 122.224 472.311 122.224H470.391C469.943 122.224 469.719 122 469.719 121.552V119.376C469.719 118.928 469.943 118.704 470.391 118.704H475.991C476.482 118.704 476.727 118.949 476.727 119.44V124.784C476.727 126.448 476.268 127.739 475.351 128.656C474.434 129.552 473.143 130 471.479 130ZM483.892 130H481.236C480.788 130 480.564 129.776 480.564 129.328V110.096C480.564 109.648 480.788 109.424 481.236 109.424H483.636C484.084 109.424 484.383 109.573 484.532 109.872L490.996 122H491.124V110.096C491.124 109.648 491.348 109.424 491.796 109.424H494.452C494.9 109.424 495.124 109.648 495.124 110.096V129.328C495.124 129.776 494.9 130 494.452 130H492.116C491.647 130 491.306 129.787 491.092 129.36L484.692 117.456H484.564V129.328C484.564 129.776 484.34 130 483.892 130ZM508.458 130H505.386C505.002 130 504.874 129.776 505.002 129.328L510.058 110.096C510.208 109.648 510.528 109.424 511.018 109.424H515.274C515.808 109.424 516.128 109.648 516.234 110.096L521.29 129.328C521.418 129.776 521.29 130 520.906 130H517.834C517.6 130 517.44 129.957 517.354 129.872C517.269 129.765 517.205 129.584 517.162 129.328L516.266 125.808H510.026L509.13 129.328C509.088 129.584 509.013 129.765 508.906 129.872C508.821 129.957 508.672 130 508.458 130ZM513.098 113.296L510.794 122.544H515.53L513.226 113.296H513.098ZM527.455 130H524.799C524.351 130 524.127 129.776 524.127 129.328V110.096C524.127 109.648 524.351 109.424 524.799 109.424H527.199C527.647 109.424 527.946 109.573 528.095 109.872L534.559 122H534.687V110.096C534.687 109.648 534.911 109.424 535.359 109.424H538.015C538.463 109.424 538.687 109.648 538.687 110.096V129.328C538.687 129.776 538.463 130 538.015 130H535.679C535.21 130 534.868 129.787 534.655 129.36L528.255 117.456H528.127V129.328C528.127 129.776 527.903 130 527.455 130ZM547.262 126.48H550.75C551.432 126.48 551.912 126.341 552.19 126.064C552.488 125.765 552.638 125.275 552.638 124.592V114.832C552.638 114.149 552.488 113.669 552.19 113.392C551.912 113.093 551.432 112.944 550.75 112.944H547.262C547.027 112.944 546.91 113.061 546.91 113.296V126.128C546.91 126.363 547.027 126.48 547.262 126.48ZM542.846 129.328V110.096C542.846 109.648 543.07 109.424 543.518 109.424H551.422C553.086 109.424 554.376 109.883 555.294 110.8C556.232 111.696 556.702 112.976 556.702 114.64V124.784C556.702 126.448 556.232 127.739 555.294 128.656C554.376 129.552 553.086 130 551.422 130H543.518C543.07 130 542.846 129.776 542.846 129.328ZM571.98 126.608H575.564C576.268 126.608 576.77 126.469 577.068 126.192C577.388 125.893 577.548 125.413 577.548 124.752V122.896C577.548 122.235 577.388 121.765 577.068 121.488C576.748 121.211 576.226 121.072 575.5 121.072H571.98C571.746 121.072 571.628 121.189 571.628 121.424V126.256C571.628 126.491 571.746 126.608 571.98 126.608ZM571.98 117.776H575.244C575.927 117.776 576.428 117.637 576.748 117.36C577.068 117.061 577.228 116.581 577.228 115.92V114.672C577.228 114.011 577.068 113.541 576.748 113.264C576.45 112.965 575.959 112.816 575.276 112.816H571.98C571.746 112.816 571.628 112.933 571.628 113.168V117.424C571.628 117.659 571.746 117.776 571.98 117.776ZM567.564 129.328V110.096C567.564 109.648 567.788 109.424 568.236 109.424H575.916C577.602 109.424 578.903 109.872 579.82 110.768C580.738 111.664 581.196 112.944 581.196 114.608V115.92C581.196 117.733 580.354 118.907 578.668 119.44C579.522 119.568 580.204 119.92 580.716 120.496C581.228 121.051 581.484 121.851 581.484 122.896V124.816C581.484 126.48 581.026 127.76 580.108 128.656C579.191 129.552 577.9 130 576.236 130H568.236C567.788 130 567.564 129.776 567.564 129.328ZM595.842 109.424H598.53C599 109.424 599.234 109.637 599.234 110.064V124.784C599.234 126.448 598.765 127.739 597.826 128.656C596.909 129.552 595.618 130 593.954 130H590.434C588.749 130 587.448 129.552 586.53 128.656C585.613 127.76 585.154 126.469 585.154 124.784V110.096C585.154 109.648 585.378 109.424 585.826 109.424H588.546C588.994 109.424 589.218 109.648 589.218 110.096V124.592C589.218 125.275 589.357 125.765 589.634 126.064C589.933 126.341 590.413 126.48 591.074 126.48H593.282C593.965 126.48 594.445 126.341 594.722 126.064C595.021 125.765 595.17 125.275 595.17 124.592V110.096C595.17 109.648 595.394 109.424 595.842 109.424ZM607.445 110.096V129.328C607.445 129.776 607.221 130 606.773 130H604.053C603.605 130 603.381 129.776 603.381 129.328V110.096C603.381 109.648 603.605 109.424 604.053 109.424H606.773C607.221 109.424 607.445 109.648 607.445 110.096ZM622.952 130H612.424C611.976 130 611.752 129.776 611.752 129.328V110.096C611.752 109.648 611.976 109.424 612.424 109.424H615.144C615.592 109.424 615.816 109.648 615.816 110.096V126.096C615.816 126.331 615.944 126.448 616.2 126.448H622.952C623.379 126.448 623.592 126.683 623.592 127.152V129.328C623.592 129.776 623.379 130 622.952 130ZM630.543 126.48H634.031C634.714 126.48 635.194 126.341 635.471 126.064C635.77 125.765 635.919 125.275 635.919 124.592V114.832C635.919 114.149 635.77 113.669 635.471 113.392C635.194 113.093 634.714 112.944 634.031 112.944H630.543C630.308 112.944 630.191 113.061 630.191 113.296V126.128C630.191 126.363 630.308 126.48 630.543 126.48ZM626.127 129.328V110.096C626.127 109.648 626.351 109.424 626.799 109.424H634.703C636.367 109.424 637.658 109.883 638.575 110.8C639.514 111.696 639.983 112.976 639.983 114.64V124.784C639.983 126.448 639.514 127.739 638.575 128.656C637.658 129.552 636.367 130 634.703 130H626.799C626.351 130 626.127 129.776 626.127 129.328ZM658.398 130H655.678C655.23 130 655.006 129.776 655.006 129.328V122.48L649.15 110.128C649.064 109.936 649.064 109.776 649.15 109.648C649.256 109.499 649.406 109.424 649.598 109.424H652.99C653.331 109.424 653.587 109.648 653.758 110.096L656.958 117.872H657.182L660.318 110.096C660.467 109.648 660.723 109.424 661.086 109.424H664.478C664.691 109.424 664.84 109.488 664.926 109.616C665.032 109.744 665.032 109.915 664.926 110.128L659.07 122.48V129.328C659.07 129.776 658.846 130 658.398 130ZM672.977 126.48H675.249C675.932 126.48 676.412 126.341 676.689 126.064C676.988 125.765 677.137 125.275 677.137 124.592V114.832C677.137 114.149 676.988 113.669 676.689 113.392C676.412 113.093 675.932 112.944 675.249 112.944H672.977C672.294 112.944 671.814 113.093 671.537 113.392C671.26 113.669 671.121 114.149 671.121 114.832V124.592C671.121 125.275 671.26 125.765 671.537 126.064C671.814 126.341 672.294 126.48 672.977 126.48ZM675.921 130H672.337C670.652 130 669.35 129.552 668.433 128.656C667.516 127.76 667.057 126.469 667.057 124.784V114.64C667.057 112.955 667.516 111.664 668.433 110.768C669.35 109.872 670.652 109.424 672.337 109.424H675.921C677.606 109.424 678.908 109.872 679.825 110.768C680.742 111.664 681.201 112.955 681.201 114.64V124.784C681.201 126.469 680.742 127.76 679.825 128.656C678.908 129.552 677.606 130 675.921 130ZM695.561 109.424H698.249C698.718 109.424 698.953 109.637 698.953 110.064V124.784C698.953 126.448 698.484 127.739 697.545 128.656C696.628 129.552 695.337 130 693.673 130H690.153C688.468 130 687.166 129.552 686.249 128.656C685.332 127.76 684.873 126.469 684.873 124.784V110.096C684.873 109.648 685.097 109.424 685.545 109.424H688.265C688.713 109.424 688.937 109.648 688.937 110.096V124.592C688.937 125.275 689.076 125.765 689.353 126.064C689.652 126.341 690.132 126.48 690.793 126.48H693.001C693.684 126.48 694.164 126.341 694.441 126.064C694.74 125.765 694.889 125.275 694.889 124.592V110.096C694.889 109.648 695.113 109.424 695.561 109.424ZM706.331 130H703.611C703.163 130 702.939 129.776 702.939 129.328V110.096C702.939 109.648 703.163 109.424 703.611 109.424H711.227C712.891 109.424 714.193 109.883 715.131 110.8C716.07 111.717 716.539 113.008 716.539 114.672V117.168C716.539 119.579 715.59 121.179 713.691 121.968V122.096L717.115 129.232C717.307 129.744 717.126 130 716.571 130H713.979C713.595 130 713.318 129.957 713.147 129.872C712.977 129.787 712.838 129.605 712.731 129.328L709.531 122.416H707.387C707.131 122.416 707.003 122.533 707.003 122.768V129.328C707.003 129.776 706.779 130 706.331 130ZM707.355 119.152H710.491C711.174 119.152 711.675 119.013 711.995 118.736C712.315 118.437 712.475 117.968 712.475 117.328V114.832C712.475 114.171 712.315 113.691 711.995 113.392C711.675 113.093 711.174 112.944 710.491 112.944H707.355C707.121 112.944 707.003 113.061 707.003 113.296V118.8C707.003 119.035 707.121 119.152 707.355 119.152ZM730.863 130H728.143C727.695 130 727.471 129.776 727.471 129.328V110.096C727.471 109.648 727.695 109.424 728.143 109.424H730.863C731.311 109.424 731.535 109.648 731.535 110.096V117.616C731.535 117.851 731.663 117.968 731.919 117.968H737.327C737.561 117.968 737.679 117.851 737.679 117.616V110.096C737.679 109.648 737.903 109.424 738.351 109.424H741.071C741.519 109.424 741.743 109.648 741.743 110.096V129.328C741.743 129.776 741.519 130 741.071 130H738.351C737.903 130 737.679 129.776 737.679 129.328V121.84C737.679 121.605 737.561 121.488 737.327 121.488H731.919C731.663 121.488 731.535 121.605 731.535 121.84V129.328C731.535 129.776 731.311 130 730.863 130ZM751.508 126.48H753.78C754.463 126.48 754.943 126.341 755.22 126.064C755.519 125.765 755.668 125.275 755.668 124.592V114.832C755.668 114.149 755.519 113.669 755.22 113.392C754.943 113.093 754.463 112.944 753.78 112.944H751.508C750.825 112.944 750.345 113.093 750.068 113.392C749.791 113.669 749.652 114.149 749.652 114.832V124.592C749.652 125.275 749.791 125.765 750.068 126.064C750.345 126.341 750.825 126.48 751.508 126.48ZM754.452 130H750.868C749.183 130 747.881 129.552 746.964 128.656C746.047 127.76 745.588 126.469 745.588 124.784V114.64C745.588 112.955 746.047 111.664 746.964 110.768C747.881 109.872 749.183 109.424 750.868 109.424H754.452C756.137 109.424 757.439 109.872 758.356 110.768C759.273 111.664 759.732 112.955 759.732 114.64V124.784C759.732 126.469 759.273 127.76 758.356 128.656C757.439 129.552 756.137 130 754.452 130ZM777.228 109.424H781.964C782.412 109.424 782.636 109.648 782.636 110.096V129.328C782.636 129.776 782.412 130 781.964 130H779.34C778.892 130 778.668 129.776 778.668 129.328V114.16H778.54L775.276 124.88C775.148 125.307 774.882 125.52 774.476 125.52H771.788C771.383 125.52 771.116 125.307 770.988 124.88L767.66 114.128H767.532V129.328C767.532 129.584 767.49 129.765 767.404 129.872C767.319 129.957 767.138 130 766.86 130H764.236C763.788 130 763.564 129.776 763.564 129.328V110.096C763.564 109.648 763.788 109.424 764.236 109.424H769.004C769.303 109.424 769.506 109.573 769.612 109.872L773.004 121.168H773.196L776.62 109.872C776.684 109.573 776.887 109.424 777.228 109.424ZM797.919 130H787.455C787.007 130 786.783 129.776 786.783 129.328V110.096C786.783 109.648 787.007 109.424 787.455 109.424H797.919C798.346 109.424 798.559 109.648 798.559 110.096V112.272C798.559 112.72 798.346 112.944 797.919 112.944H791.231C790.975 112.944 790.847 113.061 790.847 113.296V117.456C790.847 117.691 790.975 117.808 791.231 117.808H796.703C797.151 117.808 797.375 118.032 797.375 118.48V120.656C797.375 121.104 797.151 121.328 796.703 121.328H791.231C790.975 121.328 790.847 121.445 790.847 121.68V126.128C790.847 126.363 790.975 126.48 791.231 126.48H797.919C798.346 126.48 798.559 126.704 798.559 127.152V129.328C798.559 129.776 798.346 130 797.919 130ZM819.655 109.424H822.343C822.812 109.424 823.047 109.637 823.047 110.064V124.784C823.047 126.448 822.578 127.739 821.639 128.656C820.722 129.552 819.431 130 817.767 130H814.247C812.562 130 811.26 129.552 810.343 128.656C809.426 127.76 808.967 126.469 808.967 124.784V110.096C808.967 109.648 809.191 109.424 809.639 109.424H812.359C812.807 109.424 813.031 109.648 813.031 110.096V124.592C813.031 125.275 813.17 125.765 813.447 126.064C813.746 126.341 814.226 126.48 814.887 126.48H817.095C817.778 126.48 818.258 126.341 818.535 126.064C818.834 125.765 818.983 125.275 818.983 124.592V110.096C818.983 109.648 819.207 109.424 819.655 109.424ZM826.521 124.752V124.112C826.521 123.664 826.745 123.44 827.193 123.44H829.913C830.361 123.44 830.585 123.664 830.585 124.112V124.368C830.585 125.179 830.745 125.733 831.065 126.032C831.385 126.331 831.972 126.48 832.825 126.48H834.329C835.161 126.48 835.737 126.32 836.057 126C836.398 125.68 836.569 125.083 836.569 124.208V123.824C836.569 123.205 836.313 122.736 835.801 122.416C835.31 122.075 834.692 121.872 833.945 121.808C833.198 121.744 832.388 121.627 831.513 121.456C830.66 121.264 829.86 121.029 829.113 120.752C828.366 120.453 827.737 119.888 827.225 119.056C826.734 118.203 826.489 117.115 826.489 115.792V114.672C826.489 113.008 826.958 111.717 827.897 110.8C828.836 109.883 830.137 109.424 831.801 109.424H835.001C836.686 109.424 837.998 109.883 838.937 110.8C839.876 111.717 840.345 113.008 840.345 114.672V115.28C840.345 115.728 840.121 115.952 839.673 115.952H836.953C836.505 115.952 836.281 115.728 836.281 115.28V115.088C836.281 114.256 836.121 113.691 835.801 113.392C835.481 113.093 834.894 112.944 834.041 112.944H832.793C831.918 112.944 831.321 113.115 831.001 113.456C830.702 113.776 830.553 114.416 830.553 115.376V115.984C830.553 116.987 831.428 117.563 833.177 117.712C834.99 117.861 836.601 118.224 838.009 118.8C838.756 119.12 839.374 119.696 839.865 120.528C840.377 121.339 840.633 122.384 840.633 123.664V124.752C840.633 126.416 840.164 127.707 839.225 128.624C838.286 129.541 836.985 130 835.321 130H831.833C830.169 130 828.868 129.541 827.929 128.624C826.99 127.707 826.521 126.416 826.521 124.752ZM848.507 110.096V129.328C848.507 129.776 848.283 130 847.835 130H845.115C844.667 130 844.443 129.776 844.443 129.328V110.096C844.443 109.648 844.667 109.424 845.115 109.424H847.835C848.283 109.424 848.507 109.648 848.507 110.096ZM856.142 130H853.486C853.038 130 852.814 129.776 852.814 129.328V110.096C852.814 109.648 853.038 109.424 853.486 109.424H855.886C856.334 109.424 856.633 109.573 856.782 109.872L863.246 122H863.374V110.096C863.374 109.648 863.598 109.424 864.046 109.424H866.702C867.15 109.424 867.374 109.648 867.374 110.096V129.328C867.374 129.776 867.15 130 866.702 130H864.366C863.897 130 863.556 129.787 863.342 129.36L856.942 117.456H856.814V129.328C856.814 129.776 856.59 130 856.142 130ZM879.885 130H876.493C874.808 130 873.506 129.552 872.589 128.656C871.672 127.76 871.213 126.469 871.213 124.784V114.64C871.213 112.955 871.672 111.664 872.589 110.768C873.506 109.872 874.808 109.424 876.493 109.424H879.885C881.549 109.424 882.84 109.883 883.757 110.8C884.674 111.696 885.133 112.976 885.133 114.64V115.6C885.133 116.069 884.909 116.304 884.461 116.304H881.741C881.293 116.304 881.069 116.069 881.069 115.6V114.832C881.069 114.149 880.93 113.669 880.653 113.392C880.376 113.093 879.896 112.944 879.213 112.944H877.133C876.472 112.944 875.992 113.093 875.693 113.392C875.416 113.669 875.277 114.149 875.277 114.832V124.592C875.277 125.275 875.416 125.765 875.693 126.064C875.992 126.341 876.472 126.48 877.133 126.48H879.213C879.896 126.48 880.376 126.341 880.653 126.064C880.93 125.765 881.069 125.275 881.069 124.592V122.576C881.069 122.341 880.952 122.224 880.717 122.224H878.797C878.349 122.224 878.125 122 878.125 121.552V119.376C878.125 118.928 878.349 118.704 878.797 118.704H884.397C884.888 118.704 885.133 118.949 885.133 119.44V124.784C885.133 126.448 884.674 127.739 883.757 128.656C882.84 129.552 881.549 130 879.885 130ZM899.394 130H896.674C896.226 130 896.002 129.776 896.002 129.328V110.096C896.002 109.648 896.226 109.424 896.674 109.424H899.394C899.842 109.424 900.066 109.648 900.066 110.096V117.616C900.066 117.851 900.194 117.968 900.45 117.968H905.858C906.093 117.968 906.21 117.851 906.21 117.616V110.096C906.21 109.648 906.434 109.424 906.882 109.424H909.602C910.05 109.424 910.274 109.648 910.274 110.096V129.328C910.274 129.776 910.05 130 909.602 130H906.882C906.434 130 906.21 129.776 906.21 129.328V121.84C906.21 121.605 906.093 121.488 905.858 121.488H900.45C900.194 121.488 900.066 121.605 900.066 121.84V129.328C900.066 129.776 899.842 130 899.394 130ZM920.039 126.48H922.311C922.994 126.48 923.474 126.341 923.751 126.064C924.05 125.765 924.199 125.275 924.199 124.592V114.832C924.199 114.149 924.05 113.669 923.751 113.392C923.474 113.093 922.994 112.944 922.311 112.944H920.039C919.357 112.944 918.877 113.093 918.599 113.392C918.322 113.669 918.183 114.149 918.183 114.832V124.592C918.183 125.275 918.322 125.765 918.599 126.064C918.877 126.341 919.357 126.48 920.039 126.48ZM922.983 130H919.399C917.714 130 916.413 129.552 915.495 128.656C914.578 127.76 914.119 126.469 914.119 124.784V114.64C914.119 112.955 914.578 111.664 915.495 110.768C916.413 109.872 917.714 109.424 919.399 109.424H922.983C924.669 109.424 925.97 109.872 926.887 110.768C927.805 111.664 928.263 112.955 928.263 114.64V124.784C928.263 126.469 927.805 127.76 926.887 128.656C925.97 129.552 924.669 130 922.983 130ZM945.76 109.424H950.496C950.944 109.424 951.168 109.648 951.168 110.096V129.328C951.168 129.776 950.944 130 950.496 130H947.872C947.424 130 947.2 129.776 947.2 129.328V114.16H947.072L943.808 124.88C943.68 125.307 943.413 125.52 943.008 125.52H940.32C939.914 125.52 939.648 125.307 939.52 124.88L936.192 114.128H936.064V129.328C936.064 129.584 936.021 129.765 935.936 129.872C935.85 129.957 935.669 130 935.392 130H932.768C932.32 130 932.096 129.776 932.096 129.328V110.096C932.096 109.648 932.32 109.424 932.768 109.424H937.536C937.834 109.424 938.037 109.573 938.144 109.872L941.536 121.168H941.728L945.152 109.872C945.216 109.573 945.418 109.424 945.76 109.424ZM966.45 130H955.986C955.538 130 955.314 129.776 955.314 129.328V110.096C955.314 109.648 955.538 109.424 955.986 109.424H966.45C966.877 109.424 967.09 109.648 967.09 110.096V112.272C967.09 112.72 966.877 112.944 966.45 112.944H959.762C959.506 112.944 959.378 113.061 959.378 113.296V117.456C959.378 117.691 959.506 117.808 959.762 117.808H965.234C965.682 117.808 965.906 118.032 965.906 118.48V120.656C965.906 121.104 965.682 121.328 965.234 121.328H959.762C959.506 121.328 959.378 121.445 959.378 121.68V126.128C959.378 126.363 959.506 126.48 959.762 126.48H966.45C966.877 126.48 967.09 126.704 967.09 127.152V129.328C967.09 129.776 966.877 130 966.45 130ZM976.515 126.48H978.787C979.47 126.48 979.95 126.341 980.227 126.064C980.526 125.765 980.675 125.275 980.675 124.592V114.832C980.675 114.149 980.526 113.669 980.227 113.392C979.95 113.093 979.47 112.944 978.787 112.944H976.515C975.832 112.944 975.352 113.093 975.075 113.392C974.798 113.669 974.659 114.149 974.659 114.832V124.592C974.659 125.275 974.798 125.765 975.075 126.064C975.352 126.341 975.832 126.48 976.515 126.48ZM982.371 134.256H980.035C979.459 134.256 979.043 134.032 978.787 133.584L976.707 130H975.843C974.158 130 972.856 129.552 971.939 128.656C971.022 127.76 970.563 126.469 970.563 124.784V114.64C970.563 112.955 971.022 111.664 971.939 110.768C972.856 109.872 974.158 109.424 975.843 109.424H979.427C981.112 109.424 982.414 109.872 983.331 110.768C984.248 111.664 984.707 112.955 984.707 114.64V124.784C984.707 126.192 984.366 127.333 983.683 128.208C983.022 129.083 982.072 129.637 980.835 129.872L982.883 133.424C982.99 133.68 982.99 133.883 982.883 134.032C982.776 134.181 982.606 134.256 982.371 134.256ZM999.374 109.424H1002.06C1002.53 109.424 1002.77 109.637 1002.77 110.064V124.784C1002.77 126.448 1002.3 127.739 1001.36 128.656C1000.44 129.552 999.15 130 997.486 130H993.966C992.28 130 990.979 129.552 990.062 128.656C989.144 127.76 988.686 126.469 988.686 124.784V110.096C988.686 109.648 988.91 109.424 989.358 109.424H992.078C992.526 109.424 992.75 109.648 992.75 110.096V124.592C992.75 125.275 992.888 125.765 993.166 126.064C993.464 126.341 993.944 126.48 994.606 126.48H996.814C997.496 126.48 997.976 126.341 998.254 126.064C998.552 125.765 998.702 125.275 998.702 124.592V110.096C998.702 109.648 998.926 109.424 999.374 109.424ZM1011.17 126.608H1014.75C1015.46 126.608 1015.96 126.469 1016.26 126.192C1016.58 125.893 1016.74 125.413 1016.74 124.752V122.896C1016.74 122.235 1016.58 121.765 1016.26 121.488C1015.94 121.211 1015.41 121.072 1014.69 121.072H1011.17C1010.93 121.072 1010.82 121.189 1010.82 121.424V126.256C1010.82 126.491 1010.93 126.608 1011.17 126.608ZM1011.17 117.776H1014.43C1015.11 117.776 1015.62 117.637 1015.94 117.36C1016.26 117.061 1016.42 116.581 1016.42 115.92V114.672C1016.42 114.011 1016.26 113.541 1015.94 113.264C1015.64 112.965 1015.15 112.816 1014.46 112.816H1011.17C1010.93 112.816 1010.82 112.933 1010.82 113.168V117.424C1010.82 117.659 1010.93 117.776 1011.17 117.776ZM1006.75 129.328V110.096C1006.75 109.648 1006.98 109.424 1007.42 109.424H1015.1C1016.79 109.424 1018.09 109.872 1019.01 110.768C1019.93 111.664 1020.38 112.944 1020.38 114.608V115.92C1020.38 117.733 1019.54 118.907 1017.86 119.44C1018.71 119.568 1019.39 119.92 1019.9 120.496C1020.42 121.051 1020.67 121.851 1020.67 122.896V124.816C1020.67 126.48 1020.21 127.76 1019.3 128.656C1018.38 129.552 1017.09 130 1015.42 130H1007.42C1006.98 130 1006.75 129.776 1006.75 129.328ZM1035.64 130H1025.17C1024.73 130 1024.5 129.776 1024.5 129.328V110.096C1024.5 109.648 1024.73 109.424 1025.17 109.424H1035.64C1036.06 109.424 1036.28 109.648 1036.28 110.096V112.272C1036.28 112.72 1036.06 112.944 1035.64 112.944H1028.95C1028.69 112.944 1028.57 113.061 1028.57 113.296V117.456C1028.57 117.691 1028.69 117.808 1028.95 117.808H1034.42C1034.87 117.808 1035.09 118.032 1035.09 118.48V120.656C1035.09 121.104 1034.87 121.328 1034.42 121.328H1028.95C1028.69 121.328 1028.57 121.445 1028.57 121.68V126.128C1028.57 126.363 1028.69 126.48 1028.95 126.48H1035.64C1036.06 126.48 1036.28 126.704 1036.28 127.152V129.328C1036.28 129.776 1036.06 130 1035.64 130Z" fill="black"/>
</svg>
