<svg width="395" height="263" viewBox="0 0 395 263" fill="none" xmlns="http://www.w3.org/2000/svg">
<mask id="mask0_80_2394" style="mask-type:alpha" maskUnits="userSpaceOnUse" x="0" y="0" width="395" height="263">
<rect x="0.5" y="0.5" width="394" height="262" fill="white" stroke="#E0E0E0"/>
</mask>
<g mask="url(#mask0_80_2394)">
<rect width="198" height="131" fill="#2F2F2F"/>
<path d="M48.0983 60H46.9223C46.717 60 46.6143 59.902 46.6143 59.706V52.692C46.6143 52.5893 46.563 52.538 46.4603 52.538H44.8643C44.6683 52.538 44.5703 52.44 44.5703 52.244V51.292C44.5703 51.096 44.6683 50.998 44.8643 50.998H50.1563C50.3523 50.998 50.4503 51.096 50.4503 51.292V52.244C50.4503 52.44 50.3523 52.538 50.1563 52.538H48.5603C48.4483 52.538 48.3923 52.5893 48.3923 52.692V59.706C48.3923 59.902 48.2943 60 48.0983 60ZM56.6434 60H53.5494C52.812 60 52.2427 59.804 51.8414 59.412C51.44 59.02 51.2394 58.4553 51.2394 57.718V55.142C51.2394 54.4047 51.44 53.84 51.8414 53.448C52.2427 53.056 52.812 52.86 53.5494 52.86H54.6554C55.3927 52.86 55.962 53.056 56.3634 53.448C56.7647 53.84 56.9654 54.4047 56.9654 55.142V56.92C56.9654 57.116 56.8674 57.214 56.6714 57.214H53.1574C53.0454 57.214 52.9894 57.2653 52.9894 57.368V57.676C52.9894 57.9653 53.05 58.1753 53.1714 58.306C53.302 58.4273 53.5167 58.488 53.8154 58.488H56.6434C56.8394 58.488 56.9374 58.5907 56.9374 58.796V59.72C56.9374 59.8227 56.914 59.8973 56.8674 59.944C56.83 59.9813 56.7554 60 56.6434 60ZM53.1574 56.024H55.0614C55.164 56.024 55.2154 55.9727 55.2154 55.87V55.198C55.2154 54.8993 55.1547 54.6893 55.0334 54.568C54.912 54.4467 54.702 54.386 54.4034 54.386H53.8154C53.5167 54.386 53.3067 54.4467 53.1854 54.568C53.064 54.6893 53.0034 54.8993 53.0034 55.198V55.87C53.0034 55.9727 53.0547 56.024 53.1574 56.024ZM62.8473 58.754V59.72C62.8473 59.8227 62.824 59.8973 62.7773 59.944C62.74 59.9813 62.6653 60 62.5533 60H60.4673C59.73 60 59.1607 59.804 58.7593 59.412C58.358 59.02 58.1573 58.4553 58.1573 57.718V55.142C58.1573 54.4047 58.358 53.84 58.7593 53.448C59.1607 53.056 59.73 52.86 60.4673 52.86H62.5533C62.7493 52.86 62.8473 52.958 62.8473 53.154V54.12C62.8473 54.2227 62.824 54.2973 62.7773 54.344C62.74 54.3813 62.6653 54.4 62.5533 54.4H60.7473C60.458 54.4 60.248 54.4653 60.1173 54.596C59.996 54.7173 59.9353 54.9273 59.9353 55.226V57.634C59.9353 57.9327 59.996 58.1473 60.1173 58.278C60.248 58.3993 60.458 58.46 60.7473 58.46H62.5533C62.7493 58.46 62.8473 58.558 62.8473 58.754ZM65.5372 60H64.3472C64.1512 60 64.0532 59.902 64.0532 59.706V50.452C64.0532 50.256 64.1512 50.158 64.3472 50.158H65.5372C65.7332 50.158 65.8312 50.256 65.8312 50.452V53.616H65.8872C66.0925 53.112 66.5499 52.86 67.2592 52.86H67.7072C69.1725 52.86 69.9052 53.6207 69.9052 55.142V59.706C69.9052 59.902 69.8025 60 69.5972 60H68.4212C68.2252 60 68.1272 59.902 68.1272 59.706V55.226C68.1272 54.9273 68.0619 54.7173 67.9312 54.596C67.8099 54.4653 67.5999 54.4 67.3012 54.4H66.7972C66.1532 54.4 65.8312 54.7547 65.8312 55.464V59.706C65.8312 59.902 65.7332 60 65.5372 60ZM72.8653 60H71.6753C71.4793 60 71.3813 59.902 71.3813 59.706V53.154C71.3813 52.958 71.4793 52.86 71.6753 52.86H72.8653C73.0613 52.86 73.1593 52.958 73.1593 53.154V53.616H73.2153C73.4207 53.112 73.878 52.86 74.5873 52.86H75.0353C76.5007 52.86 77.2333 53.6207 77.2333 55.142V59.706C77.2333 59.902 77.1307 60 76.9253 60H75.7493C75.5533 60 75.4553 59.902 75.4553 59.706V55.226C75.4553 54.9273 75.39 54.7173 75.2593 54.596C75.138 54.4653 74.928 54.4 74.6293 54.4H74.1253C73.4813 54.4 73.1593 54.7547 73.1593 55.464V59.706C73.1593 59.902 73.0613 60 72.8653 60ZM82.1255 60H80.8795C80.1421 60 79.5728 59.804 79.1715 59.412C78.7701 59.02 78.5695 58.4553 78.5695 57.718V55.142C78.5695 54.4047 78.7701 53.84 79.1715 53.448C79.5728 53.056 80.1421 52.86 80.8795 52.86H82.1255C82.8535 52.86 83.4181 53.0607 83.8195 53.462C84.2301 53.854 84.4355 54.414 84.4355 55.142V57.718C84.4355 58.446 84.2301 59.0107 83.8195 59.412C83.4181 59.804 82.8535 60 82.1255 60ZM81.1455 58.474H81.8595C82.1581 58.474 82.3681 58.4133 82.4895 58.292C82.6201 58.1707 82.6855 57.9607 82.6855 57.662V55.198C82.6855 54.8993 82.6201 54.6893 82.4895 54.568C82.3681 54.4467 82.1581 54.386 81.8595 54.386H81.1455C80.8468 54.386 80.6368 54.4467 80.5155 54.568C80.3941 54.6893 80.3335 54.8993 80.3335 55.198V57.662C80.3335 57.9607 80.3941 58.1707 80.5155 58.292C80.6368 58.4133 80.8468 58.474 81.1455 58.474ZM87.3865 60H86.1965C86.0005 60 85.9025 59.902 85.9025 59.706V50.452C85.9025 50.256 86.0005 50.158 86.1965 50.158H87.3865C87.5825 50.158 87.6805 50.256 87.6805 50.452V59.706C87.6805 59.902 87.5825 60 87.3865 60ZM92.7075 60H91.4615C90.7242 60 90.1548 59.804 89.7535 59.412C89.3522 59.02 89.1515 58.4553 89.1515 57.718V55.142C89.1515 54.4047 89.3522 53.84 89.7535 53.448C90.1548 53.056 90.7242 52.86 91.4615 52.86H92.7075C93.4355 52.86 94.0002 53.0607 94.4015 53.462C94.8122 53.854 95.0175 54.414 95.0175 55.142V57.718C95.0175 58.446 94.8122 59.0107 94.4015 59.412C94.0002 59.804 93.4355 60 92.7075 60ZM91.7275 58.474H92.4415C92.7402 58.474 92.9502 58.4133 93.0715 58.292C93.2022 58.1707 93.2675 57.9607 93.2675 57.662V55.198C93.2675 54.8993 93.2022 54.6893 93.0715 54.568C92.9502 54.4467 92.7402 54.386 92.4415 54.386H91.7275C91.4288 54.386 91.2188 54.4467 91.0975 54.568C90.9762 54.6893 90.9155 54.8993 90.9155 55.198V57.662C90.9155 57.9607 90.9762 58.1707 91.0975 58.292C91.2188 58.4133 91.4288 58.474 91.7275 58.474ZM98.9345 59.678H98.4725C97.7539 59.678 97.2079 59.482 96.8345 59.09C96.4705 58.698 96.2885 58.1333 96.2885 57.396V55.142C96.2885 54.4047 96.4892 53.84 96.8905 53.448C97.2919 53.056 97.8612 52.86 98.5985 52.86H101.833C102.038 52.86 102.141 52.958 102.141 53.154V60.056C102.141 60.784 101.935 61.344 101.525 61.736C101.123 62.128 100.559 62.324 99.8305 62.324H97.1425C97.0305 62.324 96.9512 62.3007 96.9045 62.254C96.8672 62.2167 96.8485 62.1467 96.8485 62.044V61.078C96.8485 60.882 96.9465 60.784 97.1425 60.784H99.5365C99.8352 60.784 100.045 60.7187 100.167 60.588C100.297 60.4667 100.363 60.2613 100.363 59.972V58.908H100.307C100.204 59.16 100.022 59.3513 99.7605 59.482C99.4992 59.6127 99.2239 59.678 98.9345 59.678ZM100.363 57.074V54.554C100.363 54.4513 100.307 54.4 100.195 54.4H98.8785C98.5799 54.4 98.3699 54.4653 98.2485 54.596C98.1272 54.7173 98.0665 54.9273 98.0665 55.226V57.312C98.0665 57.6107 98.1272 57.8207 98.2485 57.942C98.3699 58.0633 98.5799 58.124 98.8785 58.124H99.3965C100.041 58.124 100.363 57.774 100.363 57.074ZM104.836 62.366H103.94C103.754 62.366 103.66 62.2633 103.66 62.058V61.12C103.66 60.9147 103.754 60.812 103.94 60.812H104.234C104.822 60.812 105.219 60.728 105.424 60.56C105.639 60.4013 105.802 60.0887 105.914 59.622H105.172C104.995 59.622 104.878 59.524 104.822 59.328L103.184 53.154C103.128 52.958 103.198 52.86 103.394 52.86H104.64C104.827 52.86 104.944 52.958 104.99 53.154L106.194 58.32H106.25L107.44 53.154C107.478 52.958 107.594 52.86 107.79 52.86H108.966C109.2 52.86 109.293 52.9627 109.246 53.168L107.538 60C107.333 60.7747 107.016 61.3627 106.586 61.764C106.157 62.1653 105.574 62.366 104.836 62.366ZM113.256 57.704V57.424C113.256 57.228 113.354 57.13 113.55 57.13H114.74C114.936 57.13 115.034 57.228 115.034 57.424V57.536C115.034 57.8907 115.104 58.1333 115.244 58.264C115.384 58.3947 115.641 58.46 116.014 58.46H116.672C117.036 58.46 117.288 58.39 117.428 58.25C117.578 58.11 117.652 57.8487 117.652 57.466V57.298C117.652 57.0273 117.54 56.822 117.316 56.682C117.102 56.5327 116.831 56.444 116.504 56.416C116.178 56.388 115.823 56.3367 115.44 56.262C115.067 56.178 114.717 56.0753 114.39 55.954C114.064 55.8233 113.788 55.576 113.564 55.212C113.35 54.8387 113.242 54.3627 113.242 53.784V53.294C113.242 52.566 113.448 52.0013 113.858 51.6C114.269 51.1987 114.838 50.998 115.566 50.998H116.966C117.704 50.998 118.278 51.1987 118.688 51.6C119.099 52.0013 119.304 52.566 119.304 53.294V53.56C119.304 53.756 119.206 53.854 119.01 53.854H117.82C117.624 53.854 117.526 53.756 117.526 53.56V53.476C117.526 53.112 117.456 52.8647 117.316 52.734C117.176 52.6033 116.92 52.538 116.546 52.538H116C115.618 52.538 115.356 52.6127 115.216 52.762C115.086 52.902 115.02 53.182 115.02 53.602V53.868C115.02 54.3067 115.403 54.5587 116.168 54.624C116.962 54.6893 117.666 54.848 118.282 55.1C118.609 55.24 118.88 55.492 119.094 55.856C119.318 56.2107 119.43 56.668 119.43 57.228V57.704C119.43 58.432 119.225 58.9967 118.814 59.398C118.404 59.7993 117.834 60 117.106 60H115.58C114.852 60 114.283 59.7993 113.872 59.398C113.462 58.9967 113.256 58.432 113.256 57.704ZM126.151 60H123.057C122.32 60 121.751 59.804 121.349 59.412C120.948 59.02 120.747 58.4553 120.747 57.718V55.142C120.747 54.4047 120.948 53.84 121.349 53.448C121.751 53.056 122.32 52.86 123.057 52.86H124.163C124.901 52.86 125.47 53.056 125.871 53.448C126.273 53.84 126.473 54.4047 126.473 55.142V56.92C126.473 57.116 126.375 57.214 126.179 57.214H122.665C122.553 57.214 122.497 57.2653 122.497 57.368V57.676C122.497 57.9653 122.558 58.1753 122.679 58.306C122.81 58.4273 123.025 58.488 123.323 58.488H126.151C126.347 58.488 126.445 58.5907 126.445 58.796V59.72C126.445 59.8227 126.422 59.8973 126.375 59.944C126.338 59.9813 126.263 60 126.151 60ZM122.665 56.024H124.569C124.672 56.024 124.723 55.9727 124.723 55.87V55.198C124.723 54.8993 124.663 54.6893 124.541 54.568C124.42 54.4467 124.21 54.386 123.911 54.386H123.323C123.025 54.386 122.815 54.4467 122.693 54.568C122.572 54.6893 122.511 54.8993 122.511 55.198V55.87C122.511 55.9727 122.563 56.024 122.665 56.024ZM129.289 60H128.099C127.903 60 127.805 59.902 127.805 59.706V53.154C127.805 52.958 127.903 52.86 128.099 52.86H129.289C129.485 52.86 129.583 52.958 129.583 53.154V53.63H129.639C129.742 53.378 129.924 53.1867 130.185 53.056C130.446 52.9253 130.722 52.86 131.011 52.86H131.515C131.702 52.86 131.795 52.958 131.795 53.154V54.12C131.795 54.232 131.772 54.3113 131.725 54.358C131.688 54.3953 131.618 54.4093 131.515 54.4H130.549C129.905 54.4 129.583 54.764 129.583 55.492V59.706C129.583 59.902 129.485 60 129.289 60ZM132.378 52.86H133.61C133.797 52.86 133.909 52.958 133.946 53.154L135.15 58.418H135.248L136.424 53.154C136.461 52.958 136.578 52.86 136.774 52.86H138.006C138.202 52.86 138.272 52.958 138.216 53.154L136.452 59.692C136.415 59.8973 136.289 60 136.074 60H134.296C134.1 60 133.974 59.8973 133.918 59.692L132.168 53.154C132.112 52.958 132.182 52.86 132.378 52.86ZM139.305 51.656V50.438C139.305 50.2513 139.398 50.158 139.585 50.158H140.803C140.99 50.158 141.083 50.2467 141.083 50.424V51.656C141.083 51.8427 140.99 51.936 140.803 51.936H139.585C139.398 51.936 139.305 51.8427 139.305 51.656ZM139.305 59.706V53.154C139.305 52.958 139.398 52.86 139.585 52.86H140.789C140.985 52.86 141.083 52.958 141.083 53.154V59.706C141.083 59.8273 141.06 59.9067 141.013 59.944C140.976 59.9813 140.906 60 140.803 60H139.599C139.403 60 139.305 59.902 139.305 59.706ZM147.244 58.754V59.72C147.244 59.8227 147.22 59.8973 147.174 59.944C147.136 59.9813 147.062 60 146.95 60H144.864C144.126 60 143.557 59.804 143.156 59.412C142.754 59.02 142.554 58.4553 142.554 57.718V55.142C142.554 54.4047 142.754 53.84 143.156 53.448C143.557 53.056 144.126 52.86 144.864 52.86H146.95C147.146 52.86 147.244 52.958 147.244 53.154V54.12C147.244 54.2227 147.22 54.2973 147.174 54.344C147.136 54.3813 147.062 54.4 146.95 54.4H145.144C144.854 54.4 144.644 54.4653 144.514 54.596C144.392 54.7173 144.332 54.9273 144.332 55.226V57.634C144.332 57.9327 144.392 58.1473 144.514 58.278C144.644 58.3993 144.854 58.46 145.144 58.46H146.95C147.146 58.46 147.244 58.558 147.244 58.754ZM153.714 60H150.62C149.882 60 149.313 59.804 148.912 59.412C148.51 59.02 148.31 58.4553 148.31 57.718V55.142C148.31 54.4047 148.51 53.84 148.912 53.448C149.313 53.056 149.882 52.86 150.62 52.86H151.726C152.463 52.86 153.032 53.056 153.434 53.448C153.835 53.84 154.036 54.4047 154.036 55.142V56.92C154.036 57.116 153.938 57.214 153.742 57.214H150.228C150.116 57.214 150.06 57.2653 150.06 57.368V57.676C150.06 57.9653 150.12 58.1753 150.242 58.306C150.372 58.4273 150.587 58.488 150.886 58.488H153.714C153.91 58.488 154.008 58.5907 154.008 58.796V59.72C154.008 59.8227 153.984 59.8973 153.938 59.944C153.9 59.9813 153.826 60 153.714 60ZM150.228 56.024H152.132C152.234 56.024 152.286 55.9727 152.286 55.87V55.198C152.286 54.8993 152.225 54.6893 152.104 54.568C151.982 54.4467 151.772 54.386 151.474 54.386H150.886C150.587 54.386 150.377 54.4467 150.256 54.568C150.134 54.6893 150.074 54.8993 150.074 55.198V55.87C150.074 55.9727 150.125 56.024 150.228 56.024ZM78.3395 76.46H79.3335C79.6322 76.46 79.8422 76.3993 79.9635 76.278C80.0942 76.1473 80.1595 75.9327 80.1595 75.634V71.364C80.1595 71.0653 80.0942 70.8553 79.9635 70.734C79.8422 70.6033 79.6322 70.538 79.3335 70.538H78.3395C78.0408 70.538 77.8308 70.6033 77.7095 70.734C77.5882 70.8553 77.5275 71.0653 77.5275 71.364V75.634C77.5275 75.9327 77.5882 76.1473 77.7095 76.278C77.8308 76.3993 78.0408 76.46 78.3395 76.46ZM79.6275 78H78.0595C77.3222 78 76.7528 77.804 76.3515 77.412C75.9502 77.02 75.7495 76.4553 75.7495 75.718V71.28C75.7495 70.5427 75.9502 69.978 76.3515 69.586C76.7528 69.194 77.3222 68.998 78.0595 68.998H79.6275C80.3648 68.998 80.9342 69.194 81.3355 69.586C81.7368 69.978 81.9375 70.5427 81.9375 71.28V75.718C81.9375 76.4553 81.7368 77.02 81.3355 77.412C80.9342 77.804 80.3648 78 79.6275 78ZM84.9581 78H83.7681C83.5721 78 83.4741 77.902 83.4741 77.706V71.154C83.4741 70.958 83.5721 70.86 83.7681 70.86H84.9581C85.1541 70.86 85.2521 70.958 85.2521 71.154V71.616H85.3081C85.5134 71.112 85.9708 70.86 86.6801 70.86H87.1281C88.5934 70.86 89.3261 71.6207 89.3261 73.142V77.706C89.3261 77.902 89.2234 78 89.0181 78H87.8421C87.6461 78 87.5481 77.902 87.5481 77.706V73.226C87.5481 72.9273 87.4828 72.7173 87.3521 72.596C87.2308 72.4653 87.0208 72.4 86.7221 72.4H86.2181C85.5741 72.4 85.2521 72.7547 85.2521 73.464V77.706C85.2521 77.902 85.1541 78 84.9581 78ZM92.7342 76.46H94.1622C94.4609 76.46 94.6709 76.3993 94.7922 76.278C94.9229 76.1473 94.9882 75.9327 94.9882 75.634V73.198C94.9882 72.8993 94.9229 72.6893 94.7922 72.568C94.6709 72.4373 94.4609 72.372 94.1622 72.372H93.5462C92.9022 72.372 92.5802 72.7267 92.5802 73.436V76.306C92.5802 76.4087 92.6316 76.46 92.7342 76.46ZM90.8022 77.706V68.452C90.8022 68.256 90.9002 68.158 91.0962 68.158H92.2862C92.4822 68.158 92.5802 68.256 92.5802 68.452V71.602H92.6362C92.7389 71.35 92.9209 71.1587 93.1822 71.028C93.4436 70.8973 93.7189 70.832 94.0082 70.832H94.4562C95.1936 70.832 95.7629 71.028 96.1642 71.42C96.5656 71.812 96.7662 72.3767 96.7662 73.114V75.718C96.7662 76.4553 96.5656 77.02 96.1642 77.412C95.7629 77.804 95.1936 78 94.4562 78H91.0962C90.9002 78 90.8022 77.902 90.8022 77.706ZM101.587 78H100.341C99.604 78 99.0347 77.804 98.6334 77.412C98.232 77.02 98.0314 76.4553 98.0314 75.718V73.142C98.0314 72.4047 98.232 71.84 98.6334 71.448C99.0347 71.056 99.604 70.86 100.341 70.86H101.587C102.315 70.86 102.88 71.0607 103.281 71.462C103.692 71.854 103.897 72.414 103.897 73.142V75.718C103.897 76.446 103.692 77.0107 103.281 77.412C102.88 77.804 102.315 78 101.587 78ZM100.607 76.474H101.321C101.62 76.474 101.83 76.4133 101.951 76.292C102.082 76.1707 102.147 75.9607 102.147 75.662V73.198C102.147 72.8993 102.082 72.6893 101.951 72.568C101.83 72.4467 101.62 72.386 101.321 72.386H100.607C100.309 72.386 100.099 72.4467 99.9774 72.568C99.856 72.6893 99.7954 72.8993 99.7954 73.198V75.662C99.7954 75.9607 99.856 76.1707 99.9774 76.292C100.099 76.4133 100.309 76.474 100.607 76.474ZM107.8 78H107.464C106.727 78 106.158 77.804 105.756 77.412C105.355 77.02 105.154 76.4553 105.154 75.718V73.142C105.154 72.4047 105.355 71.84 105.756 71.448C106.158 71.056 106.727 70.86 107.464 70.86H110.698C110.904 70.86 111.006 70.958 111.006 71.154V77.706C111.006 77.902 110.904 78 110.698 78H109.522C109.326 78 109.228 77.902 109.228 77.706V77.244H109.172C109.07 77.496 108.888 77.6873 108.626 77.818C108.365 77.9393 108.09 78 107.8 78ZM109.228 75.396V72.554C109.228 72.4513 109.172 72.4 109.06 72.4H107.744C107.446 72.4 107.236 72.4653 107.114 72.596C106.993 72.7173 106.932 72.9273 106.932 73.226V75.634C106.932 75.9327 106.993 76.1473 107.114 76.278C107.236 76.3993 107.446 76.46 107.744 76.46H108.262C108.906 76.46 109.228 76.1053 109.228 75.396ZM114.025 78H112.835C112.639 78 112.541 77.902 112.541 77.706V71.154C112.541 70.958 112.639 70.86 112.835 70.86H114.025C114.221 70.86 114.319 70.958 114.319 71.154V71.63H114.375C114.477 71.378 114.659 71.1867 114.921 71.056C115.182 70.9253 115.457 70.86 115.747 70.86H116.251C116.437 70.86 116.531 70.958 116.531 71.154V72.12C116.531 72.232 116.507 72.3113 116.461 72.358C116.423 72.3953 116.353 72.4093 116.251 72.4H115.285C114.641 72.4 114.319 72.764 114.319 73.492V77.706C114.319 77.902 114.221 78 114.025 78ZM120.039 78H119.465C118.747 78 118.201 77.804 117.827 77.412C117.463 77.02 117.281 76.4553 117.281 75.718V73.142C117.281 72.4047 117.463 71.84 117.827 71.448C118.201 71.056 118.747 70.86 119.465 70.86H120.039C120.329 70.86 120.604 70.9253 120.865 71.056C121.127 71.1773 121.309 71.364 121.411 71.616H121.467V68.452C121.467 68.256 121.565 68.158 121.761 68.158H122.951C123.147 68.158 123.245 68.256 123.245 68.452V77.706C123.245 77.902 123.147 78 122.951 78H121.761C121.565 78 121.467 77.902 121.467 77.706V77.244H121.411C121.309 77.496 121.127 77.6873 120.865 77.818C120.604 77.9393 120.329 78 120.039 78ZM121.467 75.396V73.464C121.467 72.7547 121.145 72.4 120.501 72.4H119.871C119.573 72.4 119.363 72.4653 119.241 72.596C119.12 72.7173 119.059 72.9273 119.059 73.226V75.634C119.059 75.9327 119.12 76.1473 119.241 76.278C119.363 76.3993 119.573 76.46 119.871 76.46H120.501C121.145 76.46 121.467 76.1053 121.467 75.396Z" fill="white"/>
<rect x="197" width="198" height="131" fill="#F1F1F1"/>
<path d="M248.707 58.46H249.701C249.999 58.46 250.209 58.3993 250.331 58.278C250.461 58.1473 250.527 57.9327 250.527 57.634V53.364C250.527 53.0653 250.461 52.8553 250.331 52.734C250.209 52.6033 249.999 52.538 249.701 52.538H248.707C248.408 52.538 248.198 52.6033 248.077 52.734C247.955 52.8553 247.895 53.0653 247.895 53.364V57.634C247.895 57.9327 247.955 58.1473 248.077 58.278C248.198 58.3993 248.408 58.46 248.707 58.46ZM249.995 60H248.427C247.689 60 247.12 59.804 246.719 59.412C246.317 59.02 246.117 58.4553 246.117 57.718V53.28C246.117 52.5427 246.317 51.978 246.719 51.586C247.12 51.194 247.689 50.998 248.427 50.998H249.995C250.732 50.998 251.301 51.194 251.703 51.586C252.104 51.978 252.305 52.5427 252.305 53.28V57.718C252.305 58.4553 252.104 59.02 251.703 59.412C251.301 59.804 250.732 60 249.995 60ZM255.325 60H254.135C253.939 60 253.841 59.902 253.841 59.706V53.154C253.841 52.958 253.939 52.86 254.135 52.86H255.325C255.521 52.86 255.619 52.958 255.619 53.154V53.616H255.675C255.881 53.112 256.338 52.86 257.047 52.86H257.495C258.961 52.86 259.693 53.6207 259.693 55.142V59.706C259.693 59.902 259.591 60 259.385 60H258.209C258.013 60 257.915 59.902 257.915 59.706V55.226C257.915 54.9273 257.85 54.7173 257.719 54.596C257.598 54.4653 257.388 54.4 257.089 54.4H256.585C255.941 54.4 255.619 54.7547 255.619 55.464V59.706C255.619 59.902 255.521 60 255.325 60ZM262.723 60H261.533C261.337 60 261.239 59.902 261.239 59.706V50.452C261.239 50.256 261.337 50.158 261.533 50.158H262.723C262.919 50.158 263.017 50.256 263.017 50.452V59.706C263.017 59.902 262.919 60 262.723 60ZM264.698 51.656V50.438C264.698 50.2513 264.792 50.158 264.978 50.158H266.196C266.383 50.158 266.476 50.2467 266.476 50.424V51.656C266.476 51.8427 266.383 51.936 266.196 51.936H264.978C264.792 51.936 264.698 51.8427 264.698 51.656ZM264.698 59.706V53.154C264.698 52.958 264.792 52.86 264.978 52.86H266.182C266.378 52.86 266.476 52.958 266.476 53.154V59.706C266.476 59.8273 266.453 59.9067 266.406 59.944C266.369 59.9813 266.299 60 266.196 60H264.992C264.796 60 264.698 59.902 264.698 59.706ZM269.571 60H268.381C268.185 60 268.087 59.902 268.087 59.706V53.154C268.087 52.958 268.185 52.86 268.381 52.86H269.571C269.767 52.86 269.865 52.958 269.865 53.154V53.616H269.921C270.127 53.112 270.584 52.86 271.293 52.86H271.741C273.207 52.86 273.939 53.6207 273.939 55.142V59.706C273.939 59.902 273.837 60 273.631 60H272.455C272.259 60 272.161 59.902 272.161 59.706V55.226C272.161 54.9273 272.096 54.7173 271.965 54.596C271.844 54.4653 271.634 54.4 271.335 54.4H270.831C270.187 54.4 269.865 54.7547 269.865 55.464V59.706C269.865 59.902 269.767 60 269.571 60ZM280.68 60H277.586C276.848 60 276.279 59.804 275.878 59.412C275.476 59.02 275.276 58.4553 275.276 57.718V55.142C275.276 54.4047 275.476 53.84 275.878 53.448C276.279 53.056 276.848 52.86 277.586 52.86H278.692C279.429 52.86 279.998 53.056 280.4 53.448C280.801 53.84 281.002 54.4047 281.002 55.142V56.92C281.002 57.116 280.904 57.214 280.708 57.214H277.194C277.082 57.214 277.026 57.2653 277.026 57.368V57.676C277.026 57.9653 277.086 58.1753 277.208 58.306C277.338 58.4273 277.553 58.488 277.852 58.488H280.68C280.876 58.488 280.974 58.5907 280.974 58.796V59.72C280.974 59.8227 280.95 59.8973 280.904 59.944C280.866 59.9813 280.792 60 280.68 60ZM277.194 56.024H279.098C279.2 56.024 279.252 55.9727 279.252 55.87V55.198C279.252 54.8993 279.191 54.6893 279.07 54.568C278.948 54.4467 278.738 54.386 278.44 54.386H277.852C277.553 54.386 277.343 54.4467 277.222 54.568C277.1 54.6893 277.04 54.8993 277.04 55.198V55.87C277.04 55.9727 277.091 56.024 277.194 56.024ZM285.326 57.704V57.424C285.326 57.228 285.424 57.13 285.62 57.13H286.81C287.006 57.13 287.104 57.228 287.104 57.424V57.536C287.104 57.8907 287.174 58.1333 287.314 58.264C287.454 58.3947 287.71 58.46 288.084 58.46H288.742C289.106 58.46 289.358 58.39 289.498 58.25C289.647 58.11 289.722 57.8487 289.722 57.466V57.298C289.722 57.0273 289.61 56.822 289.386 56.682C289.171 56.5327 288.9 56.444 288.574 56.416C288.247 56.388 287.892 56.3367 287.51 56.262C287.136 56.178 286.786 56.0753 286.46 55.954C286.133 55.8233 285.858 55.576 285.634 55.212C285.419 54.8387 285.312 54.3627 285.312 53.784V53.294C285.312 52.566 285.517 52.0013 285.928 51.6C286.338 51.1987 286.908 50.998 287.636 50.998H289.036C289.773 50.998 290.347 51.1987 290.758 51.6C291.168 52.0013 291.374 52.566 291.374 53.294V53.56C291.374 53.756 291.276 53.854 291.08 53.854H289.89C289.694 53.854 289.596 53.756 289.596 53.56V53.476C289.596 53.112 289.526 52.8647 289.386 52.734C289.246 52.6033 288.989 52.538 288.616 52.538H288.07C287.687 52.538 287.426 52.6127 287.286 52.762C287.155 52.902 287.09 53.182 287.09 53.602V53.868C287.09 54.3067 287.472 54.5587 288.238 54.624C289.031 54.6893 289.736 54.848 290.352 55.1C290.678 55.24 290.949 55.492 291.164 55.856C291.388 56.2107 291.5 56.668 291.5 57.228V57.704C291.5 58.432 291.294 58.9967 290.884 59.398C290.473 59.7993 289.904 60 289.176 60H287.65C286.922 60 286.352 59.7993 285.942 59.398C285.531 58.9967 285.326 58.432 285.326 57.704ZM294.441 60H293.251C293.055 60 292.957 59.902 292.957 59.706V50.452C292.957 50.256 293.055 50.158 293.251 50.158H294.441C294.637 50.158 294.735 50.256 294.735 50.452V53.616H294.791C294.996 53.112 295.453 52.86 296.163 52.86H296.611C298.076 52.86 298.809 53.6207 298.809 55.142V59.706C298.809 59.902 298.706 60 298.501 60H297.325C297.129 60 297.031 59.902 297.031 59.706V55.226C297.031 54.9273 296.965 54.7173 296.835 54.596C296.713 54.4653 296.503 54.4 296.205 54.4H295.701C295.057 54.4 294.735 54.7547 294.735 55.464V59.706C294.735 59.902 294.637 60 294.441 60ZM303.701 60H302.455C301.717 60 301.148 59.804 300.747 59.412C300.345 59.02 300.145 58.4553 300.145 57.718V55.142C300.145 54.4047 300.345 53.84 300.747 53.448C301.148 53.056 301.717 52.86 302.455 52.86H303.701C304.429 52.86 304.993 53.0607 305.395 53.462C305.805 53.854 306.011 54.414 306.011 55.142V57.718C306.011 58.446 305.805 59.0107 305.395 59.412C304.993 59.804 304.429 60 303.701 60ZM302.721 58.474H303.435C303.733 58.474 303.943 58.4133 304.065 58.292C304.195 58.1707 304.261 57.9607 304.261 57.662V55.198C304.261 54.8993 304.195 54.6893 304.065 54.568C303.943 54.4467 303.733 54.386 303.435 54.386H302.721C302.422 54.386 302.212 54.4467 302.091 54.568C301.969 54.6893 301.909 54.8993 301.909 55.198V57.662C301.909 57.9607 301.969 58.1707 302.091 58.292C302.212 58.4133 302.422 58.474 302.721 58.474ZM308.892 61.904H307.702C307.506 61.904 307.408 61.8107 307.408 61.624V53.154C307.408 52.958 307.506 52.86 307.702 52.86H308.892C309.088 52.86 309.186 52.958 309.186 53.154V53.616H309.242C309.344 53.364 309.526 53.1773 309.788 53.056C310.049 52.9253 310.324 52.86 310.614 52.86H311.188C311.906 52.86 312.448 53.056 312.812 53.448C313.185 53.84 313.372 54.4047 313.372 55.142V57.718C313.372 58.4553 313.185 59.02 312.812 59.412C312.448 59.804 311.906 60 311.188 60H310.614C310.324 60 310.049 59.9393 309.788 59.818C309.526 59.6873 309.344 59.496 309.242 59.244H309.186V61.624C309.186 61.8107 309.088 61.904 308.892 61.904ZM310.152 58.46H310.768C311.066 58.46 311.276 58.3993 311.398 58.278C311.528 58.1473 311.594 57.9327 311.594 57.634V55.226C311.594 54.9273 311.528 54.7173 311.398 54.596C311.276 54.4653 311.066 54.4 310.768 54.4H310.152C309.508 54.4 309.186 54.7547 309.186 55.464V57.396C309.186 58.1053 309.508 58.46 310.152 58.46ZM319.477 60H318.287C318.091 60 317.993 59.902 317.993 59.706V51.292C317.993 51.096 318.091 50.998 318.287 50.998H322.753C322.94 50.998 323.033 51.096 323.033 51.292V52.244C323.033 52.44 322.94 52.538 322.753 52.538H319.939C319.827 52.538 319.771 52.5893 319.771 52.692V54.862C319.771 54.974 319.827 55.03 319.939 55.03H322.333C322.529 55.03 322.627 55.128 322.627 55.324V56.262C322.627 56.4673 322.529 56.57 322.333 56.57H319.939C319.827 56.57 319.771 56.6213 319.771 56.724V59.706C319.771 59.902 319.673 60 319.477 60ZM325.64 60H324.45C324.254 60 324.156 59.902 324.156 59.706V53.154C324.156 52.958 324.254 52.86 324.45 52.86H325.64C325.836 52.86 325.934 52.958 325.934 53.154V53.63H325.99C326.092 53.378 326.274 53.1867 326.536 53.056C326.797 52.9253 327.072 52.86 327.362 52.86H327.866C328.052 52.86 328.146 52.958 328.146 53.154V54.12C328.146 54.232 328.122 54.3113 328.076 54.358C328.038 54.3953 327.968 54.4093 327.866 54.4H326.9C326.256 54.4 325.934 54.764 325.934 55.492V59.706C325.934 59.902 325.836 60 325.64 60ZM332.453 60H331.207C330.469 60 329.9 59.804 329.499 59.412C329.097 59.02 328.897 58.4553 328.897 57.718V55.142C328.897 54.4047 329.097 53.84 329.499 53.448C329.9 53.056 330.469 52.86 331.207 52.86H332.453C333.181 52.86 333.745 53.0607 334.147 53.462C334.557 53.854 334.763 54.414 334.763 55.142V57.718C334.763 58.446 334.557 59.0107 334.147 59.412C333.745 59.804 333.181 60 332.453 60ZM331.473 58.474H332.187C332.485 58.474 332.695 58.4133 332.817 58.292C332.947 58.1707 333.013 57.9607 333.013 57.662V55.198C333.013 54.8993 332.947 54.6893 332.817 54.568C332.695 54.4467 332.485 54.386 332.187 54.386H331.473C331.174 54.386 330.964 54.4467 330.843 54.568C330.721 54.6893 330.661 54.8993 330.661 55.198V57.662C330.661 57.9607 330.721 58.1707 330.843 58.292C330.964 58.4133 331.174 58.474 331.473 58.474ZM337.644 60H336.454C336.258 60 336.16 59.902 336.16 59.706V53.154C336.16 52.958 336.258 52.86 336.454 52.86H337.644C337.84 52.86 337.938 52.958 337.938 53.154V53.616H337.994C338.199 53.112 338.656 52.86 339.366 52.86H339.814C341.279 52.86 342.012 53.6207 342.012 55.142V59.706C342.012 59.902 341.909 60 341.704 60H340.528C340.332 60 340.234 59.902 340.234 59.706V55.226C340.234 54.9273 340.168 54.7173 340.038 54.596C339.916 54.4653 339.706 54.4 339.408 54.4H338.904C338.26 54.4 337.938 54.7547 337.938 55.464V59.706C337.938 59.902 337.84 60 337.644 60ZM343.642 54.4H343.082C342.97 54.4 342.89 54.3813 342.844 54.344C342.806 54.3067 342.788 54.232 342.788 54.12V53.154C342.788 52.958 342.886 52.86 343.082 52.86H343.642C343.744 52.86 343.796 52.8087 343.796 52.706V51.376C343.796 51.18 343.898 51.082 344.104 51.082H345.28C345.476 51.082 345.574 51.18 345.574 51.376V52.706C345.574 52.8087 345.63 52.86 345.742 52.86H346.834C347.03 52.86 347.128 52.958 347.128 53.154V54.12C347.128 54.2227 347.104 54.2973 347.058 54.344C347.02 54.3813 346.946 54.4 346.834 54.4H345.742C345.63 54.4 345.574 54.4513 345.574 54.554V57.648C345.574 57.9373 345.639 58.1473 345.77 58.278C345.9 58.3993 346.115 58.46 346.414 58.46H346.974C347.17 58.46 347.268 58.558 347.268 58.754V59.72C347.268 59.8227 347.244 59.8973 347.198 59.944C347.16 59.9813 347.086 60 346.974 60H346.12C345.382 60 344.808 59.804 344.398 59.412C343.996 59.02 343.796 58.46 343.796 57.732V54.554C343.796 54.4513 343.744 54.4 343.642 54.4ZM252.15 72.4H251.59C251.478 72.4 251.398 72.3813 251.352 72.344C251.314 72.3067 251.296 72.232 251.296 72.12V71.154C251.296 70.958 251.394 70.86 251.59 70.86H252.15C252.252 70.86 252.304 70.8087 252.304 70.706V69.376C252.304 69.18 252.406 69.082 252.612 69.082H253.788C253.984 69.082 254.082 69.18 254.082 69.376V70.706C254.082 70.8087 254.138 70.86 254.25 70.86H255.342C255.538 70.86 255.636 70.958 255.636 71.154V72.12C255.636 72.2227 255.612 72.2973 255.566 72.344C255.528 72.3813 255.454 72.4 255.342 72.4H254.25C254.138 72.4 254.082 72.4513 254.082 72.554V75.648C254.082 75.9373 254.147 76.1473 254.278 76.278C254.408 76.3993 254.623 76.46 254.922 76.46H255.482C255.678 76.46 255.776 76.558 255.776 76.754V77.72C255.776 77.8227 255.752 77.8973 255.706 77.944C255.668 77.9813 255.594 78 255.482 78H254.628C253.89 78 253.316 77.804 252.906 77.412C252.504 77.02 252.304 76.46 252.304 75.732V72.554C252.304 72.4513 252.252 72.4 252.15 72.4ZM260.347 78H259.101C258.364 78 257.794 77.804 257.393 77.412C256.992 77.02 256.791 76.4553 256.791 75.718V73.142C256.791 72.4047 256.992 71.84 257.393 71.448C257.794 71.056 258.364 70.86 259.101 70.86H260.347C261.075 70.86 261.64 71.0607 262.041 71.462C262.452 71.854 262.657 72.414 262.657 73.142V75.718C262.657 76.446 262.452 77.0107 262.041 77.412C261.64 77.804 261.075 78 260.347 78ZM259.367 76.474H260.081C260.38 76.474 260.59 76.4133 260.711 76.292C260.842 76.1707 260.907 75.9607 260.907 75.662V73.198C260.907 72.8993 260.842 72.6893 260.711 72.568C260.59 72.4467 260.38 72.386 260.081 72.386H259.367C259.068 72.386 258.858 72.4467 258.737 72.568C258.616 72.6893 258.555 72.8993 258.555 73.198V75.662C258.555 75.9607 258.616 76.1707 258.737 76.292C258.858 76.4133 259.068 76.474 259.367 76.474ZM267.046 75.704V75.424C267.046 75.228 267.144 75.13 267.34 75.13H268.53C268.726 75.13 268.824 75.228 268.824 75.424V75.536C268.824 75.8907 268.894 76.1333 269.034 76.264C269.174 76.3947 269.431 76.46 269.804 76.46H270.462C270.826 76.46 271.078 76.39 271.218 76.25C271.368 76.11 271.442 75.8487 271.442 75.466V75.298C271.442 75.0273 271.33 74.822 271.106 74.682C270.892 74.5327 270.621 74.444 270.294 74.416C269.968 74.388 269.613 74.3367 269.23 74.262C268.857 74.178 268.507 74.0753 268.18 73.954C267.854 73.8233 267.578 73.576 267.354 73.212C267.14 72.8387 267.032 72.3627 267.032 71.784V71.294C267.032 70.566 267.238 70.0013 267.648 69.6C268.059 69.1987 268.628 68.998 269.356 68.998H270.756C271.494 68.998 272.068 69.1987 272.478 69.6C272.889 70.0013 273.094 70.566 273.094 71.294V71.56C273.094 71.756 272.996 71.854 272.8 71.854H271.61C271.414 71.854 271.316 71.756 271.316 71.56V71.476C271.316 71.112 271.246 70.8647 271.106 70.734C270.966 70.6033 270.71 70.538 270.336 70.538H269.79C269.408 70.538 269.146 70.6127 269.006 70.762C268.876 70.902 268.81 71.182 268.81 71.602V71.868C268.81 72.3067 269.193 72.5587 269.958 72.624C270.752 72.6893 271.456 72.848 272.072 73.1C272.399 73.24 272.67 73.492 272.884 73.856C273.108 74.2107 273.22 74.668 273.22 75.228V75.704C273.22 76.432 273.015 76.9967 272.604 77.398C272.194 77.7993 271.624 78 270.896 78H269.37C268.642 78 268.073 77.7993 267.662 77.398C267.252 76.9967 267.046 76.432 267.046 75.704ZM279.941 78H276.847C276.11 78 275.541 77.804 275.139 77.412C274.738 77.02 274.537 76.4553 274.537 75.718V73.142C274.537 72.4047 274.738 71.84 275.139 71.448C275.541 71.056 276.11 70.86 276.847 70.86H277.953C278.691 70.86 279.26 71.056 279.661 71.448C280.063 71.84 280.263 72.4047 280.263 73.142V74.92C280.263 75.116 280.165 75.214 279.969 75.214H276.455C276.343 75.214 276.287 75.2653 276.287 75.368V75.676C276.287 75.9653 276.348 76.1753 276.469 76.306C276.6 76.4273 276.815 76.488 277.113 76.488H279.941C280.137 76.488 280.235 76.5907 280.235 76.796V77.72C280.235 77.8227 280.212 77.8973 280.165 77.944C280.128 77.9813 280.053 78 279.941 78ZM276.455 74.024H278.359C278.462 74.024 278.513 73.9727 278.513 73.87V73.198C278.513 72.8993 278.453 72.6893 278.331 72.568C278.21 72.4467 278 72.386 277.701 72.386H277.113C276.815 72.386 276.605 72.4467 276.483 72.568C276.362 72.6893 276.301 72.8993 276.301 73.198V73.87C276.301 73.9727 276.353 74.024 276.455 74.024ZM283.149 78H281.959C281.763 78 281.665 77.902 281.665 77.706V68.452C281.665 68.256 281.763 68.158 281.959 68.158H283.149C283.345 68.158 283.443 68.256 283.443 68.452V77.706C283.443 77.902 283.345 78 283.149 78ZM286.608 78H285.418C285.222 78 285.124 77.902 285.124 77.706V68.452C285.124 68.256 285.222 68.158 285.418 68.158H286.608C286.804 68.158 286.902 68.256 286.902 68.452V77.706C286.902 77.902 286.804 78 286.608 78ZM293.213 78H292.023C291.827 78 291.729 77.902 291.729 77.706V69.292C291.729 69.096 291.827 68.998 292.023 68.998H295.439C296.167 68.998 296.732 69.1987 297.133 69.6C297.535 69.992 297.735 70.552 297.735 71.28V72.624C297.735 73.352 297.535 73.9167 297.133 74.318C296.732 74.71 296.167 74.906 295.439 74.906H293.675C293.563 74.906 293.507 74.9573 293.507 75.06V77.706C293.507 77.902 293.409 78 293.213 78ZM293.661 73.352H295.145C295.444 73.352 295.654 73.2913 295.775 73.17C295.897 73.0393 295.957 72.8293 295.957 72.54V71.364C295.957 71.0653 295.897 70.8553 295.775 70.734C295.654 70.6033 295.444 70.538 295.145 70.538H293.661C293.559 70.538 293.507 70.5893 293.507 70.692V73.198C293.507 73.3007 293.559 73.352 293.661 73.352ZM300.497 78H299.307C299.111 78 299.013 77.902 299.013 77.706V71.154C299.013 70.958 299.111 70.86 299.307 70.86H300.497C300.693 70.86 300.791 70.958 300.791 71.154V71.63H300.847C300.95 71.378 301.132 71.1867 301.393 71.056C301.654 70.9253 301.93 70.86 302.219 70.86H302.723C302.91 70.86 303.003 70.958 303.003 71.154V72.12C303.003 72.232 302.98 72.3113 302.933 72.358C302.896 72.3953 302.826 72.4093 302.723 72.4H301.757C301.113 72.4 300.791 72.764 300.791 73.492V77.706C300.791 77.902 300.693 78 300.497 78ZM307.31 78H306.064C305.327 78 304.757 77.804 304.356 77.412C303.955 77.02 303.754 76.4553 303.754 75.718V73.142C303.754 72.4047 303.955 71.84 304.356 71.448C304.757 71.056 305.327 70.86 306.064 70.86H307.31C308.038 70.86 308.603 71.0607 309.004 71.462C309.415 71.854 309.62 72.414 309.62 73.142V75.718C309.62 76.446 309.415 77.0107 309.004 77.412C308.603 77.804 308.038 78 307.31 78ZM306.33 76.474H307.044C307.343 76.474 307.553 76.4133 307.674 76.292C307.805 76.1707 307.87 75.9607 307.87 75.662V73.198C307.87 72.8993 307.805 72.6893 307.674 72.568C307.553 72.4467 307.343 72.386 307.044 72.386H306.33C306.031 72.386 305.821 72.4467 305.7 72.568C305.579 72.6893 305.518 72.8993 305.518 73.198V75.662C305.518 75.9607 305.579 76.1707 305.7 76.292C305.821 76.4133 306.031 76.474 306.33 76.474ZM313.635 78H313.061C312.342 78 311.796 77.804 311.423 77.412C311.059 77.02 310.877 76.4553 310.877 75.718V73.142C310.877 72.4047 311.059 71.84 311.423 71.448C311.796 71.056 312.342 70.86 313.061 70.86H313.635C313.924 70.86 314.2 70.9253 314.461 71.056C314.722 71.1773 314.904 71.364 315.007 71.616H315.063V68.452C315.063 68.256 315.161 68.158 315.357 68.158H316.547C316.743 68.158 316.841 68.256 316.841 68.452V77.706C316.841 77.902 316.743 78 316.547 78H315.357C315.161 78 315.063 77.902 315.063 77.706V77.244H315.007C314.904 77.496 314.722 77.6873 314.461 77.818C314.2 77.9393 313.924 78 313.635 78ZM315.063 75.396V73.464C315.063 72.7547 314.741 72.4 314.097 72.4H313.467C313.168 72.4 312.958 72.4653 312.837 72.596C312.716 72.7173 312.655 72.9273 312.655 73.226V75.634C312.655 75.9327 312.716 76.1473 312.837 76.278C312.958 76.3993 313.168 76.46 313.467 76.46H314.097C314.741 76.46 315.063 76.1053 315.063 75.396ZM320.962 78H320.5C319.782 78 319.236 77.804 318.862 77.412C318.498 77.02 318.316 76.4553 318.316 75.718V71.154C318.316 70.958 318.414 70.86 318.61 70.86H319.8C319.996 70.86 320.094 70.958 320.094 71.154V75.634C320.094 75.9327 320.155 76.1473 320.276 76.278C320.407 76.3993 320.617 76.46 320.906 76.46H321.424C322.068 76.46 322.39 76.1053 322.39 75.396V71.154C322.39 70.958 322.488 70.86 322.684 70.86H323.86C324.066 70.86 324.168 70.958 324.168 71.154V77.706C324.168 77.902 324.066 78 323.86 78H322.684C322.488 78 322.39 77.902 322.39 77.706V77.244H322.334C322.232 77.496 322.05 77.6873 321.788 77.818C321.527 77.9393 321.252 78 320.962 78ZM330.264 76.754V77.72C330.264 77.8227 330.241 77.8973 330.194 77.944C330.157 77.9813 330.082 78 329.97 78H327.884C327.147 78 326.578 77.804 326.176 77.412C325.775 77.02 325.574 76.4553 325.574 75.718V73.142C325.574 72.4047 325.775 71.84 326.176 71.448C326.578 71.056 327.147 70.86 327.884 70.86H329.97C330.166 70.86 330.264 70.958 330.264 71.154V72.12C330.264 72.2227 330.241 72.2973 330.194 72.344C330.157 72.3813 330.082 72.4 329.97 72.4H328.164C327.875 72.4 327.665 72.4653 327.534 72.596C327.413 72.7173 327.352 72.9273 327.352 73.226V75.634C327.352 75.9327 327.413 76.1473 327.534 76.278C327.665 76.3993 327.875 76.46 328.164 76.46H329.97C330.166 76.46 330.264 76.558 330.264 76.754ZM331.624 72.4H331.064C330.952 72.4 330.873 72.3813 330.826 72.344C330.789 72.3067 330.77 72.232 330.77 72.12V71.154C330.77 70.958 330.868 70.86 331.064 70.86H331.624C331.727 70.86 331.778 70.8087 331.778 70.706V69.376C331.778 69.18 331.881 69.082 332.086 69.082H333.262C333.458 69.082 333.556 69.18 333.556 69.376V70.706C333.556 70.8087 333.612 70.86 333.724 70.86H334.816C335.012 70.86 335.11 70.958 335.11 71.154V72.12C335.11 72.2227 335.087 72.2973 335.04 72.344C335.003 72.3813 334.928 72.4 334.816 72.4H333.724C333.612 72.4 333.556 72.4513 333.556 72.554V75.648C333.556 75.9373 333.622 76.1473 333.752 76.278C333.883 76.3993 334.098 76.46 334.396 76.46H334.956C335.152 76.46 335.25 76.558 335.25 76.754V77.72C335.25 77.8227 335.227 77.8973 335.18 77.944C335.143 77.9813 335.068 78 334.956 78H334.102C333.365 78 332.791 77.804 332.38 77.412C331.979 77.02 331.778 76.46 331.778 75.732V72.554C331.778 72.4513 331.727 72.4 331.624 72.4ZM339.108 78H336.448C336.261 78 336.168 77.902 336.168 77.706V76.81C336.168 76.7073 336.186 76.6373 336.224 76.6C336.261 76.5533 336.336 76.53 336.448 76.53H338.786C339.243 76.53 339.472 76.39 339.472 76.11V76.04C339.472 75.816 339.28 75.6013 338.898 75.396L337.512 74.626C337.036 74.3833 336.686 74.122 336.462 73.842C336.238 73.562 336.126 73.2027 336.126 72.764C336.126 72.1107 336.298 71.63 336.644 71.322C336.989 71.014 337.53 70.86 338.268 70.86H340.606C340.792 70.86 340.886 70.958 340.886 71.154V72.064C340.886 72.1667 340.867 72.2413 340.83 72.288C340.792 72.3253 340.718 72.344 340.606 72.344H338.66C338.202 72.344 337.974 72.4607 337.974 72.694V72.764C337.974 72.9693 338.174 73.1793 338.576 73.394L339.99 74.234C340.475 74.4953 340.816 74.766 341.012 75.046C341.208 75.3167 341.306 75.676 341.306 76.124C341.306 77.3747 340.573 78 339.108 78Z" fill="black"/>
<rect y="132" width="198" height="131" fill="#F1F1F1"/>
<path d="M78.9858 192H77.7958C77.5998 192 77.5018 191.902 77.5018 191.706V183.292C77.5018 183.096 77.5998 182.998 77.7958 182.998H81.2118C81.9398 182.998 82.5045 183.199 82.9058 183.6C83.3071 183.992 83.5078 184.552 83.5078 185.28V186.624C83.5078 187.352 83.3071 187.917 82.9058 188.318C82.5045 188.71 81.9398 188.906 81.2118 188.906H79.4478C79.3358 188.906 79.2798 188.957 79.2798 189.06V191.706C79.2798 191.902 79.1818 192 78.9858 192ZM79.4338 187.352H80.9178C81.2165 187.352 81.4265 187.291 81.5478 187.17C81.6691 187.039 81.7298 186.829 81.7298 186.54V185.364C81.7298 185.065 81.6691 184.855 81.5478 184.734C81.4265 184.603 81.2165 184.538 80.9178 184.538H79.4338C79.3311 184.538 79.2798 184.589 79.2798 184.692V187.198C79.2798 187.301 79.3311 187.352 79.4338 187.352ZM86.2696 192H85.0796C84.8836 192 84.7856 191.902 84.7856 191.706V185.154C84.7856 184.958 84.8836 184.86 85.0796 184.86H86.2696C86.4656 184.86 86.5636 184.958 86.5636 185.154V185.63H86.6196C86.7223 185.378 86.9043 185.187 87.1656 185.056C87.427 184.925 87.7023 184.86 87.9916 184.86H88.4956C88.6823 184.86 88.7756 184.958 88.7756 185.154V186.12C88.7756 186.232 88.7523 186.311 88.7056 186.358C88.6683 186.395 88.5983 186.409 88.4956 186.4H87.5296C86.8856 186.4 86.5636 186.764 86.5636 187.492V191.706C86.5636 191.902 86.4656 192 86.2696 192ZM93.0825 192H91.8365C91.0992 192 90.5298 191.804 90.1285 191.412C89.7272 191.02 89.5265 190.455 89.5265 189.718V187.142C89.5265 186.405 89.7272 185.84 90.1285 185.448C90.5298 185.056 91.0992 184.86 91.8365 184.86H93.0825C93.8105 184.86 94.3752 185.061 94.7765 185.462C95.1872 185.854 95.3925 186.414 95.3925 187.142V189.718C95.3925 190.446 95.1872 191.011 94.7765 191.412C94.3752 191.804 93.8105 192 93.0825 192ZM92.1025 190.474H92.8165C93.1152 190.474 93.3252 190.413 93.4465 190.292C93.5772 190.171 93.6425 189.961 93.6425 189.662V187.198C93.6425 186.899 93.5772 186.689 93.4465 186.568C93.3252 186.447 93.1152 186.386 92.8165 186.386H92.1025C91.8038 186.386 91.5938 186.447 91.4725 186.568C91.3512 186.689 91.2905 186.899 91.2905 187.198V189.662C91.2905 189.961 91.3512 190.171 91.4725 190.292C91.5938 190.413 91.8038 190.474 92.1025 190.474ZM99.4075 192H98.8335C98.1149 192 97.5689 191.804 97.1955 191.412C96.8315 191.02 96.6495 190.455 96.6495 189.718V187.142C96.6495 186.405 96.8315 185.84 97.1955 185.448C97.5689 185.056 98.1149 184.86 98.8335 184.86H99.4075C99.6969 184.86 99.9722 184.925 100.234 185.056C100.495 185.177 100.677 185.364 100.78 185.616H100.836V182.452C100.836 182.256 100.934 182.158 101.13 182.158H102.32C102.516 182.158 102.614 182.256 102.614 182.452V191.706C102.614 191.902 102.516 192 102.32 192H101.13C100.934 192 100.836 191.902 100.836 191.706V191.244H100.78C100.677 191.496 100.495 191.687 100.234 191.818C99.9722 191.939 99.6969 192 99.4075 192ZM100.836 189.396V187.464C100.836 186.755 100.514 186.4 99.8695 186.4H99.2395C98.9409 186.4 98.7309 186.465 98.6095 186.596C98.4882 186.717 98.4275 186.927 98.4275 187.226V189.634C98.4275 189.933 98.4882 190.147 98.6095 190.278C98.7309 190.399 98.9409 190.46 99.2395 190.46H99.8695C100.514 190.46 100.836 190.105 100.836 189.396ZM106.735 192H106.273C105.554 192 105.008 191.804 104.635 191.412C104.271 191.02 104.089 190.455 104.089 189.718V185.154C104.089 184.958 104.187 184.86 104.383 184.86H105.573C105.769 184.86 105.867 184.958 105.867 185.154V189.634C105.867 189.933 105.927 190.147 106.049 190.278C106.179 190.399 106.389 190.46 106.679 190.46H107.197C107.841 190.46 108.163 190.105 108.163 189.396V185.154C108.163 184.958 108.261 184.86 108.457 184.86H109.633C109.838 184.86 109.941 184.958 109.941 185.154V191.706C109.941 191.902 109.838 192 109.633 192H108.457C108.261 192 108.163 191.902 108.163 191.706V191.244H108.107C108.004 191.496 107.822 191.687 107.561 191.818C107.299 191.939 107.024 192 106.735 192ZM116.037 190.754V191.72C116.037 191.823 116.013 191.897 115.967 191.944C115.929 191.981 115.855 192 115.743 192H113.657C112.919 192 112.35 191.804 111.949 191.412C111.547 191.02 111.347 190.455 111.347 189.718V187.142C111.347 186.405 111.547 185.84 111.949 185.448C112.35 185.056 112.919 184.86 113.657 184.86H115.743C115.939 184.86 116.037 184.958 116.037 185.154V186.12C116.037 186.223 116.013 186.297 115.967 186.344C115.929 186.381 115.855 186.4 115.743 186.4H113.937C113.647 186.4 113.437 186.465 113.307 186.596C113.185 186.717 113.125 186.927 113.125 187.226V189.634C113.125 189.933 113.185 190.147 113.307 190.278C113.437 190.399 113.647 190.46 113.937 190.46H115.743C115.939 190.46 116.037 190.558 116.037 190.754ZM117.397 186.4H116.837C116.725 186.4 116.645 186.381 116.599 186.344C116.561 186.307 116.543 186.232 116.543 186.12V185.154C116.543 184.958 116.641 184.86 116.837 184.86H117.397C117.499 184.86 117.551 184.809 117.551 184.706V183.376C117.551 183.18 117.653 183.082 117.859 183.082H119.035C119.231 183.082 119.329 183.18 119.329 183.376V184.706C119.329 184.809 119.385 184.86 119.497 184.86H120.589C120.785 184.86 120.883 184.958 120.883 185.154V186.12C120.883 186.223 120.859 186.297 120.813 186.344C120.775 186.381 120.701 186.4 120.589 186.4H119.497C119.385 186.4 119.329 186.451 119.329 186.554V189.648C119.329 189.937 119.394 190.147 119.525 190.278C119.655 190.399 119.87 190.46 120.169 190.46H120.729C120.925 190.46 121.023 190.558 121.023 190.754V191.72C121.023 191.823 120.999 191.897 120.953 191.944C120.915 191.981 120.841 192 120.729 192H119.875C119.137 192 118.563 191.804 118.153 191.412C117.751 191.02 117.551 190.46 117.551 189.732V186.554C117.551 186.451 117.499 186.4 117.397 186.4ZM57.9115 210H56.5675C56.3995 210 56.3435 209.902 56.3995 209.706L58.6115 201.292C58.6768 201.096 58.8168 200.998 59.0315 200.998H60.8935C61.1268 200.998 61.2668 201.096 61.3135 201.292L63.5255 209.706C63.5815 209.902 63.5255 210 63.3575 210H62.0135C61.9108 210 61.8408 209.981 61.8035 209.944C61.7661 209.897 61.7381 209.818 61.7195 209.706L61.3275 208.166H58.5975L58.2055 209.706C58.1868 209.818 58.1541 209.897 58.1075 209.944C58.0701 209.981 58.0048 210 57.9115 210ZM59.9415 202.692L58.9335 206.738H61.0055L59.9975 202.692H59.9415ZM67.2024 210H66.7404C66.0218 210 65.4758 209.804 65.1024 209.412C64.7384 209.02 64.5564 208.455 64.5564 207.718V203.154C64.5564 202.958 64.6544 202.86 64.8504 202.86H66.0404C66.2364 202.86 66.3344 202.958 66.3344 203.154V207.634C66.3344 207.933 66.3951 208.147 66.5164 208.278C66.6471 208.399 66.8571 208.46 67.1464 208.46H67.6644C68.3084 208.46 68.6304 208.105 68.6304 207.396V203.154C68.6304 202.958 68.7284 202.86 68.9244 202.86H70.1004C70.3058 202.86 70.4084 202.958 70.4084 203.154V209.706C70.4084 209.902 70.3058 210 70.1004 210H68.9244C68.7284 210 68.6304 209.902 68.6304 209.706V209.244H68.5744C68.4718 209.496 68.2898 209.687 68.0284 209.818C67.7671 209.939 67.4918 210 67.2024 210ZM72.1086 204.4H71.5486C71.4366 204.4 71.3572 204.381 71.3106 204.344C71.2732 204.307 71.2546 204.232 71.2546 204.12V203.154C71.2546 202.958 71.3526 202.86 71.5486 202.86H72.1086C72.2112 202.86 72.2626 202.809 72.2626 202.706V201.376C72.2626 201.18 72.3652 201.082 72.5706 201.082H73.7466C73.9426 201.082 74.0406 201.18 74.0406 201.376V202.706C74.0406 202.809 74.0966 202.86 74.2086 202.86H75.3006C75.4966 202.86 75.5946 202.958 75.5946 203.154V204.12C75.5946 204.223 75.5712 204.297 75.5246 204.344C75.4872 204.381 75.4126 204.4 75.3006 204.4H74.2086C74.0966 204.4 74.0406 204.451 74.0406 204.554V207.648C74.0406 207.937 74.1059 208.147 74.2366 208.278C74.3672 208.399 74.5819 208.46 74.8806 208.46H75.4406C75.6366 208.46 75.7346 208.558 75.7346 208.754V209.72C75.7346 209.823 75.7112 209.897 75.6646 209.944C75.6272 209.981 75.5526 210 75.4406 210H74.5866C73.8492 210 73.2752 209.804 72.8646 209.412C72.4632 209.02 72.2626 208.46 72.2626 207.732V204.554C72.2626 204.451 72.2112 204.4 72.1086 204.4ZM78.3741 210H77.1841C76.9881 210 76.8901 209.902 76.8901 209.706V200.452C76.8901 200.256 76.9881 200.158 77.1841 200.158H78.3741C78.5701 200.158 78.6681 200.256 78.6681 200.452V203.616H78.7241C78.9295 203.112 79.3868 202.86 80.0961 202.86H80.5441C82.0095 202.86 82.7421 203.621 82.7421 205.142V209.706C82.7421 209.902 82.6395 210 82.4341 210H81.2581C81.0621 210 80.9641 209.902 80.9641 209.706V205.226C80.9641 204.927 80.8988 204.717 80.7681 204.596C80.6468 204.465 80.4368 204.4 80.1381 204.4H79.6341C78.9901 204.4 78.6681 204.755 78.6681 205.464V209.706C78.6681 209.902 78.5701 210 78.3741 210ZM89.4822 210H86.3882C85.6509 210 85.0816 209.804 84.6802 209.412C84.2789 209.02 84.0782 208.455 84.0782 207.718V205.142C84.0782 204.405 84.2789 203.84 84.6802 203.448C85.0816 203.056 85.6509 202.86 86.3882 202.86H87.4942C88.2316 202.86 88.8009 203.056 89.2022 203.448C89.6036 203.84 89.8042 204.405 89.8042 205.142V206.92C89.8042 207.116 89.7062 207.214 89.5102 207.214H85.9962C85.8842 207.214 85.8282 207.265 85.8282 207.368V207.676C85.8282 207.965 85.8889 208.175 86.0102 208.306C86.1409 208.427 86.3556 208.488 86.6542 208.488H89.4822C89.6782 208.488 89.7762 208.591 89.7762 208.796V209.72C89.7762 209.823 89.7529 209.897 89.7062 209.944C89.6689 209.981 89.5942 210 89.4822 210ZM85.9962 206.024H87.9002C88.0029 206.024 88.0542 205.973 88.0542 205.87V205.198C88.0542 204.899 87.9936 204.689 87.8722 204.568C87.7509 204.447 87.5409 204.386 87.2422 204.386H86.6542C86.3556 204.386 86.1456 204.447 86.0242 204.568C85.9029 204.689 85.8422 204.899 85.8422 205.198V205.87C85.8422 205.973 85.8936 206.024 85.9962 206.024ZM92.6202 210H91.4302C91.2342 210 91.1362 209.902 91.1362 209.706V203.154C91.1362 202.958 91.2342 202.86 91.4302 202.86H92.6202C92.8162 202.86 92.9142 202.958 92.9142 203.154V203.616H92.9702C93.1755 203.112 93.6329 202.86 94.3422 202.86H94.7902C96.2555 202.86 96.9882 203.621 96.9882 205.142V209.706C96.9882 209.902 96.8855 210 96.6802 210H95.5042C95.3082 210 95.2102 209.902 95.2102 209.706V205.226C95.2102 204.927 95.1449 204.717 95.0142 204.596C94.8929 204.465 94.6829 204.4 94.3842 204.4H93.8802C93.2362 204.4 92.9142 204.755 92.9142 205.464V209.706C92.9142 209.902 92.8162 210 92.6202 210ZM98.6183 204.4H98.0583C97.9463 204.4 97.867 204.381 97.8203 204.344C97.783 204.307 97.7643 204.232 97.7643 204.12V203.154C97.7643 202.958 97.8623 202.86 98.0583 202.86H98.6183C98.721 202.86 98.7723 202.809 98.7723 202.706V201.376C98.7723 201.18 98.875 201.082 99.0803 201.082H100.256C100.452 201.082 100.55 201.18 100.55 201.376V202.706C100.55 202.809 100.606 202.86 100.718 202.86H101.81C102.006 202.86 102.104 202.958 102.104 203.154V204.12C102.104 204.223 102.081 204.297 102.034 204.344C101.997 204.381 101.922 204.4 101.81 204.4H100.718C100.606 204.4 100.55 204.451 100.55 204.554V207.648C100.55 207.937 100.616 208.147 100.746 208.278C100.877 208.399 101.092 208.46 101.39 208.46H101.95C102.146 208.46 102.244 208.558 102.244 208.754V209.72C102.244 209.823 102.221 209.897 102.174 209.944C102.137 209.981 102.062 210 101.95 210H101.096C100.359 210 99.785 209.804 99.3743 209.412C98.973 209.02 98.7723 208.46 98.7723 207.732V204.554C98.7723 204.451 98.721 204.4 98.6183 204.4ZM103.47 201.656V200.438C103.47 200.251 103.563 200.158 103.75 200.158H104.968C105.155 200.158 105.248 200.247 105.248 200.424V201.656C105.248 201.843 105.155 201.936 104.968 201.936H103.75C103.563 201.936 103.47 201.843 103.47 201.656ZM103.47 209.706V203.154C103.47 202.958 103.563 202.86 103.75 202.86H104.954C105.15 202.86 105.248 202.958 105.248 203.154V209.706C105.248 209.827 105.225 209.907 105.178 209.944C105.141 209.981 105.071 210 104.968 210H103.764C103.568 210 103.47 209.902 103.47 209.706ZM111.409 208.754V209.72C111.409 209.823 111.386 209.897 111.339 209.944C111.302 209.981 111.227 210 111.115 210H109.029C108.292 210 107.722 209.804 107.321 209.412C106.92 209.02 106.719 208.455 106.719 207.718V205.142C106.719 204.405 106.92 203.84 107.321 203.448C107.722 203.056 108.292 202.86 109.029 202.86H111.115C111.311 202.86 111.409 202.958 111.409 203.154V204.12C111.409 204.223 111.386 204.297 111.339 204.344C111.302 204.381 111.227 204.4 111.115 204.4H109.309C109.02 204.4 108.81 204.465 108.679 204.596C108.558 204.717 108.497 204.927 108.497 205.226V207.634C108.497 207.933 108.558 208.147 108.679 208.278C108.81 208.399 109.02 208.46 109.309 208.46H111.115C111.311 208.46 111.409 208.558 111.409 208.754ZM115.121 210H114.785C114.047 210 113.478 209.804 113.077 209.412C112.675 209.02 112.475 208.455 112.475 207.718V205.142C112.475 204.405 112.675 203.84 113.077 203.448C113.478 203.056 114.047 202.86 114.785 202.86H118.019C118.224 202.86 118.327 202.958 118.327 203.154V209.706C118.327 209.902 118.224 210 118.019 210H116.843C116.647 210 116.549 209.902 116.549 209.706V209.244H116.493C116.39 209.496 116.208 209.687 115.947 209.818C115.685 209.939 115.41 210 115.121 210ZM116.549 207.396V204.554C116.549 204.451 116.493 204.4 116.381 204.4H115.065C114.766 204.4 114.556 204.465 114.435 204.596C114.313 204.717 114.253 204.927 114.253 205.226V207.634C114.253 207.933 114.313 208.147 114.435 208.278C114.556 208.399 114.766 208.46 115.065 208.46H115.583C116.227 208.46 116.549 208.105 116.549 207.396ZM120.015 204.4H119.455C119.343 204.4 119.263 204.381 119.217 204.344C119.179 204.307 119.161 204.232 119.161 204.12V203.154C119.161 202.958 119.259 202.86 119.455 202.86H120.015C120.117 202.86 120.169 202.809 120.169 202.706V201.376C120.169 201.18 120.271 201.082 120.477 201.082H121.653C121.849 201.082 121.947 201.18 121.947 201.376V202.706C121.947 202.809 122.003 202.86 122.115 202.86H123.207C123.403 202.86 123.501 202.958 123.501 203.154V204.12C123.501 204.223 123.477 204.297 123.431 204.344C123.393 204.381 123.319 204.4 123.207 204.4H122.115C122.003 204.4 121.947 204.451 121.947 204.554V207.648C121.947 207.937 122.012 208.147 122.143 208.278C122.273 208.399 122.488 208.46 122.787 208.46H123.347C123.543 208.46 123.641 208.558 123.641 208.754V209.72C123.641 209.823 123.617 209.897 123.571 209.944C123.533 209.981 123.459 210 123.347 210H122.493C121.755 210 121.181 209.804 120.771 209.412C120.369 209.02 120.169 208.46 120.169 207.732V204.554C120.169 204.451 120.117 204.4 120.015 204.4ZM124.866 201.656V200.438C124.866 200.251 124.96 200.158 125.146 200.158H126.364C126.551 200.158 126.644 200.247 126.644 200.424V201.656C126.644 201.843 126.551 201.936 126.364 201.936H125.146C124.96 201.936 124.866 201.843 124.866 201.656ZM124.866 209.706V203.154C124.866 202.958 124.96 202.86 125.146 202.86H126.35C126.546 202.86 126.644 202.958 126.644 203.154V209.706C126.644 209.827 126.621 209.907 126.574 209.944C126.537 209.981 126.467 210 126.364 210H125.16C124.964 210 124.866 209.902 124.866 209.706ZM131.671 210H130.425C129.688 210 129.119 209.804 128.717 209.412C128.316 209.02 128.115 208.455 128.115 207.718V205.142C128.115 204.405 128.316 203.84 128.717 203.448C129.119 203.056 129.688 202.86 130.425 202.86H131.671C132.399 202.86 132.964 203.061 133.365 203.462C133.776 203.854 133.981 204.414 133.981 205.142V207.718C133.981 208.446 133.776 209.011 133.365 209.412C132.964 209.804 132.399 210 131.671 210ZM130.691 208.474H131.405C131.704 208.474 131.914 208.413 132.035 208.292C132.166 208.171 132.231 207.961 132.231 207.662V205.198C132.231 204.899 132.166 204.689 132.035 204.568C131.914 204.447 131.704 204.386 131.405 204.386H130.691C130.393 204.386 130.183 204.447 130.061 204.568C129.94 204.689 129.879 204.899 129.879 205.198V207.662C129.879 207.961 129.94 208.171 130.061 208.292C130.183 208.413 130.393 208.474 130.691 208.474ZM136.862 210H135.672C135.476 210 135.378 209.902 135.378 209.706V203.154C135.378 202.958 135.476 202.86 135.672 202.86H136.862C137.058 202.86 137.156 202.958 137.156 203.154V203.616H137.212C137.418 203.112 137.875 202.86 138.584 202.86H139.032C140.498 202.86 141.23 203.621 141.23 205.142V209.706C141.23 209.902 141.128 210 140.922 210H139.746C139.55 210 139.452 209.902 139.452 209.706V205.226C139.452 204.927 139.387 204.717 139.256 204.596C139.135 204.465 138.925 204.4 138.626 204.4H138.122C137.478 204.4 137.156 204.755 137.156 205.464V209.706C137.156 209.902 137.058 210 136.862 210Z" fill="black"/>
<rect x="197" y="132" width="198" height="131" fill="#2F2F2F"/>
<path d="M255.601 192H254.411C254.215 192 254.117 191.902 254.117 191.706V183.292C254.117 183.096 254.215 182.998 254.411 182.998H257.827C258.555 182.998 259.12 183.199 259.521 183.6C259.922 183.992 260.123 184.552 260.123 185.28V186.624C260.123 187.352 259.922 187.917 259.521 188.318C259.12 188.71 258.555 188.906 257.827 188.906H256.063C255.951 188.906 255.895 188.957 255.895 189.06V191.706C255.895 191.902 255.797 192 255.601 192ZM256.049 187.352H257.533C257.832 187.352 258.042 187.291 258.163 187.17C258.284 187.039 258.345 186.829 258.345 186.54V185.364C258.345 185.065 258.284 184.855 258.163 184.734C258.042 184.603 257.832 184.538 257.533 184.538H256.049C255.946 184.538 255.895 184.589 255.895 184.692V187.198C255.895 187.301 255.946 187.352 256.049 187.352ZM262.885 192H261.695C261.499 192 261.401 191.902 261.401 191.706V185.154C261.401 184.958 261.499 184.86 261.695 184.86H262.885C263.081 184.86 263.179 184.958 263.179 185.154V185.63H263.235C263.338 185.378 263.52 185.187 263.781 185.056C264.042 184.925 264.318 184.86 264.607 184.86H265.111C265.298 184.86 265.391 184.958 265.391 185.154V186.12C265.391 186.232 265.368 186.311 265.321 186.358C265.284 186.395 265.214 186.409 265.111 186.4H264.145C263.501 186.4 263.179 186.764 263.179 187.492V191.706C263.179 191.902 263.081 192 262.885 192ZM269.698 192H268.452C267.714 192 267.145 191.804 266.744 191.412C266.342 191.02 266.142 190.455 266.142 189.718V187.142C266.142 186.405 266.342 185.84 266.744 185.448C267.145 185.056 267.714 184.86 268.452 184.86H269.698C270.426 184.86 270.99 185.061 271.392 185.462C271.802 185.854 272.008 186.414 272.008 187.142V189.718C272.008 190.446 271.802 191.011 271.392 191.412C270.99 191.804 270.426 192 269.698 192ZM268.718 190.474H269.432C269.73 190.474 269.94 190.413 270.062 190.292C270.192 190.171 270.258 189.961 270.258 189.662V187.198C270.258 186.899 270.192 186.689 270.062 186.568C269.94 186.447 269.73 186.386 269.432 186.386H268.718C268.419 186.386 268.209 186.447 268.088 186.568C267.966 186.689 267.906 186.899 267.906 187.198V189.662C267.906 189.961 267.966 190.171 268.088 190.292C268.209 190.413 268.419 190.474 268.718 190.474ZM274.889 192H273.699C273.503 192 273.405 191.902 273.405 191.706V185.154C273.405 184.958 273.503 184.86 273.699 184.86H274.889C275.085 184.86 275.183 184.958 275.183 185.154V185.616H275.239C275.351 185.392 275.537 185.21 275.799 185.07C276.069 184.93 276.377 184.86 276.723 184.86H277.115C277.927 184.86 278.51 185.159 278.865 185.756C279.182 185.159 279.728 184.86 280.503 184.86H280.909C281.627 184.86 282.169 185.056 282.533 185.448C282.906 185.84 283.093 186.405 283.093 187.142V191.706C283.093 191.902 282.995 192 282.799 192H281.609C281.413 192 281.315 191.902 281.315 191.706V187.226C281.315 186.927 281.254 186.717 281.133 186.596C281.011 186.465 280.801 186.4 280.503 186.4H280.153C279.509 186.4 279.187 186.759 279.187 187.478V191.706C279.187 191.902 279.084 192 278.879 192H277.703C277.507 192 277.409 191.902 277.409 191.706V187.226C277.409 186.927 277.343 186.717 277.213 186.596C277.091 186.465 276.881 186.4 276.583 186.4H276.149C275.505 186.4 275.183 186.755 275.183 187.464V191.706C275.183 191.902 275.085 192 274.889 192ZM287.991 192H286.745C286.007 192 285.438 191.804 285.037 191.412C284.635 191.02 284.435 190.455 284.435 189.718V187.142C284.435 186.405 284.635 185.84 285.037 185.448C285.438 185.056 286.007 184.86 286.745 184.86H287.991C288.719 184.86 289.283 185.061 289.685 185.462C290.095 185.854 290.301 186.414 290.301 187.142V189.718C290.301 190.446 290.095 191.011 289.685 191.412C289.283 191.804 288.719 192 287.991 192ZM287.011 190.474H287.725C288.023 190.474 288.233 190.413 288.355 190.292C288.485 190.171 288.551 189.961 288.551 189.662V187.198C288.551 186.899 288.485 186.689 288.355 186.568C288.233 186.447 288.023 186.386 287.725 186.386H287.011C286.712 186.386 286.502 186.447 286.381 186.568C286.259 186.689 286.199 186.899 286.199 187.198V189.662C286.199 189.961 286.259 190.171 286.381 190.292C286.502 190.413 286.712 190.474 287.011 190.474ZM291.852 186.4H291.292C291.18 186.4 291.1 186.381 291.054 186.344C291.016 186.307 290.998 186.232 290.998 186.12V185.154C290.998 184.958 291.096 184.86 291.292 184.86H291.852C291.954 184.86 292.006 184.809 292.006 184.706V183.376C292.006 183.18 292.108 183.082 292.314 183.082H293.49C293.686 183.082 293.784 183.18 293.784 183.376V184.706C293.784 184.809 293.84 184.86 293.952 184.86H295.044C295.24 184.86 295.338 184.958 295.338 185.154V186.12C295.338 186.223 295.314 186.297 295.268 186.344C295.23 186.381 295.156 186.4 295.044 186.4H293.952C293.84 186.4 293.784 186.451 293.784 186.554V189.648C293.784 189.937 293.849 190.147 293.98 190.278C294.11 190.399 294.325 190.46 294.624 190.46H295.184C295.38 190.46 295.478 190.558 295.478 190.754V191.72C295.478 191.823 295.454 191.897 295.408 191.944C295.37 191.981 295.296 192 295.184 192H294.33C293.592 192 293.018 191.804 292.608 191.412C292.206 191.02 292.006 190.46 292.006 189.732V186.554C292.006 186.451 291.954 186.4 291.852 186.4ZM296.703 183.656V182.438C296.703 182.251 296.797 182.158 296.983 182.158H298.201C298.388 182.158 298.481 182.247 298.481 182.424V183.656C298.481 183.843 298.388 183.936 298.201 183.936H296.983C296.797 183.936 296.703 183.843 296.703 183.656ZM296.703 191.706V185.154C296.703 184.958 296.797 184.86 296.983 184.86H298.187C298.383 184.86 298.481 184.958 298.481 185.154V191.706C298.481 191.827 298.458 191.907 298.411 191.944C298.374 191.981 298.304 192 298.201 192H296.997C296.801 192 296.703 191.902 296.703 191.706ZM303.508 192H302.262C301.525 192 300.956 191.804 300.554 191.412C300.153 191.02 299.952 190.455 299.952 189.718V187.142C299.952 186.405 300.153 185.84 300.554 185.448C300.956 185.056 301.525 184.86 302.262 184.86H303.508C304.236 184.86 304.801 185.061 305.202 185.462C305.613 185.854 305.818 186.414 305.818 187.142V189.718C305.818 190.446 305.613 191.011 305.202 191.412C304.801 191.804 304.236 192 303.508 192ZM302.528 190.474H303.242C303.541 190.474 303.751 190.413 303.872 190.292C304.003 190.171 304.068 189.961 304.068 189.662V187.198C304.068 186.899 304.003 186.689 303.872 186.568C303.751 186.447 303.541 186.386 303.242 186.386H302.528C302.23 186.386 302.02 186.447 301.898 186.568C301.777 186.689 301.716 186.899 301.716 187.198V189.662C301.716 189.961 301.777 190.171 301.898 190.292C302.02 190.413 302.23 190.474 302.528 190.474ZM308.699 192H307.509C307.313 192 307.215 191.902 307.215 191.706V185.154C307.215 184.958 307.313 184.86 307.509 184.86H308.699C308.895 184.86 308.993 184.958 308.993 185.154V185.616H309.049C309.255 185.112 309.712 184.86 310.421 184.86H310.869C312.335 184.86 313.067 185.621 313.067 187.142V191.706C313.067 191.902 312.965 192 312.759 192H311.583C311.387 192 311.289 191.902 311.289 191.706V187.226C311.289 186.927 311.224 186.717 311.093 186.596C310.972 186.465 310.762 186.4 310.463 186.4H309.959C309.315 186.4 308.993 186.755 308.993 187.464V191.706C308.993 191.902 308.895 192 308.699 192ZM320.126 192H319.79C319.052 192 318.483 191.804 318.082 191.412C317.68 191.02 317.48 190.455 317.48 189.718V187.142C317.48 186.405 317.68 185.84 318.082 185.448C318.483 185.056 319.052 184.86 319.79 184.86H323.024C323.229 184.86 323.332 184.958 323.332 185.154V191.706C323.332 191.902 323.229 192 323.024 192H321.848C321.652 192 321.554 191.902 321.554 191.706V191.244H321.498C321.395 191.496 321.213 191.687 320.952 191.818C320.69 191.939 320.415 192 320.126 192ZM321.554 189.396V186.554C321.554 186.451 321.498 186.4 321.386 186.4H320.07C319.771 186.4 319.561 186.465 319.44 186.596C319.318 186.717 319.258 186.927 319.258 187.226V189.634C319.258 189.933 319.318 190.147 319.44 190.278C319.561 190.399 319.771 190.46 320.07 190.46H320.588C321.232 190.46 321.554 190.105 321.554 189.396ZM326.35 192H325.16C324.964 192 324.866 191.902 324.866 191.706V185.154C324.866 184.958 324.964 184.86 325.16 184.86H326.35C326.546 184.86 326.644 184.958 326.644 185.154V185.616H326.7C326.905 185.112 327.362 184.86 328.072 184.86H328.52C329.985 184.86 330.718 185.621 330.718 187.142V191.706C330.718 191.902 330.615 192 330.41 192H329.234C329.038 192 328.94 191.902 328.94 191.706V187.226C328.94 186.927 328.874 186.717 328.744 186.596C328.622 186.465 328.412 186.4 328.114 186.4H327.61C326.966 186.4 326.644 186.755 326.644 187.464V191.706C326.644 191.902 326.546 192 326.35 192ZM334.812 192H334.238C333.519 192 332.973 191.804 332.6 191.412C332.236 191.02 332.054 190.455 332.054 189.718V187.142C332.054 186.405 332.236 185.84 332.6 185.448C332.973 185.056 333.519 184.86 334.238 184.86H334.812C335.101 184.86 335.376 184.925 335.638 185.056C335.899 185.177 336.081 185.364 336.184 185.616H336.24V182.452C336.24 182.256 336.338 182.158 336.534 182.158H337.724C337.92 182.158 338.018 182.256 338.018 182.452V191.706C338.018 191.902 337.92 192 337.724 192H336.534C336.338 192 336.24 191.902 336.24 191.706V191.244H336.184C336.081 191.496 335.899 191.687 335.638 191.818C335.376 191.939 335.101 192 334.812 192ZM336.24 189.396V187.464C336.24 186.755 335.918 186.4 335.274 186.4H334.644C334.345 186.4 334.135 186.465 334.014 186.596C333.892 186.717 333.832 186.927 333.832 187.226V189.634C333.832 189.933 333.892 190.147 334.014 190.278C334.135 190.399 334.345 190.46 334.644 190.46H335.274C335.918 190.46 336.24 190.105 336.24 189.396ZM255.192 210H253.848C253.68 210 253.624 209.902 253.68 209.706L255.892 201.292C255.957 201.096 256.097 200.998 256.312 200.998H258.174C258.407 200.998 258.547 201.096 258.594 201.292L260.806 209.706C260.862 209.902 260.806 210 260.638 210H259.294C259.191 210 259.121 209.981 259.084 209.944C259.046 209.897 259.018 209.818 259 209.706L258.608 208.166H255.878L255.486 209.706C255.467 209.818 255.434 209.897 255.388 209.944C255.35 209.981 255.285 210 255.192 210ZM257.222 202.692L256.214 206.738H258.286L257.278 202.692H257.222ZM264.525 210H263.951C263.232 210 262.686 209.804 262.313 209.412C261.949 209.02 261.767 208.455 261.767 207.718V205.142C261.767 204.405 261.949 203.84 262.313 203.448C262.686 203.056 263.232 202.86 263.951 202.86H264.525C264.814 202.86 265.089 202.925 265.351 203.056C265.612 203.177 265.794 203.364 265.897 203.616H265.953V200.452C265.953 200.256 266.051 200.158 266.247 200.158H267.437C267.633 200.158 267.731 200.256 267.731 200.452V209.706C267.731 209.902 267.633 210 267.437 210H266.247C266.051 210 265.953 209.902 265.953 209.706V209.244H265.897C265.794 209.496 265.612 209.687 265.351 209.818C265.089 209.939 264.814 210 264.525 210ZM265.953 207.396V205.464C265.953 204.755 265.631 204.4 264.987 204.4H264.357C264.058 204.4 263.848 204.465 263.727 204.596C263.605 204.717 263.545 204.927 263.545 205.226V207.634C263.545 207.933 263.605 208.147 263.727 208.278C263.848 208.399 264.058 208.46 264.357 208.46H264.987C265.631 208.46 265.953 208.105 265.953 207.396ZM268.968 202.86H270.2C270.387 202.86 270.499 202.958 270.536 203.154L271.74 208.418H271.838L273.014 203.154C273.051 202.958 273.168 202.86 273.364 202.86H274.596C274.792 202.86 274.862 202.958 274.806 203.154L273.042 209.692C273.005 209.897 272.879 210 272.664 210H270.886C270.69 210 270.564 209.897 270.508 209.692L268.758 203.154C268.702 202.958 268.772 202.86 268.968 202.86ZM281.089 210H277.995C277.257 210 276.688 209.804 276.287 209.412C275.885 209.02 275.685 208.455 275.685 207.718V205.142C275.685 204.405 275.885 203.84 276.287 203.448C276.688 203.056 277.257 202.86 277.995 202.86H279.101C279.838 202.86 280.407 203.056 280.809 203.448C281.21 203.84 281.411 204.405 281.411 205.142V206.92C281.411 207.116 281.313 207.214 281.117 207.214H277.603C277.491 207.214 277.435 207.265 277.435 207.368V207.676C277.435 207.965 277.495 208.175 277.617 208.306C277.747 208.427 277.962 208.488 278.261 208.488H281.089C281.285 208.488 281.383 208.591 281.383 208.796V209.72C281.383 209.823 281.359 209.897 281.313 209.944C281.275 209.981 281.201 210 281.089 210ZM277.603 206.024H279.507C279.609 206.024 279.661 205.973 279.661 205.87V205.198C279.661 204.899 279.6 204.689 279.479 204.568C279.357 204.447 279.147 204.386 278.849 204.386H278.261C277.962 204.386 277.752 204.447 277.631 204.568C277.509 204.689 277.449 204.899 277.449 205.198V205.87C277.449 205.973 277.5 206.024 277.603 206.024ZM284.227 210H283.037C282.841 210 282.743 209.902 282.743 209.706V203.154C282.743 202.958 282.841 202.86 283.037 202.86H284.227C284.423 202.86 284.521 202.958 284.521 203.154V203.63H284.577C284.679 203.378 284.861 203.187 285.123 203.056C285.384 202.925 285.659 202.86 285.949 202.86H286.453C286.639 202.86 286.733 202.958 286.733 203.154V204.12C286.733 204.232 286.709 204.311 286.663 204.358C286.625 204.395 286.555 204.409 286.453 204.4H285.487C284.843 204.4 284.521 204.764 284.521 205.492V209.706C284.521 209.902 284.423 210 284.227 210ZM287.778 204.4H287.218C287.106 204.4 287.026 204.381 286.98 204.344C286.942 204.307 286.924 204.232 286.924 204.12V203.154C286.924 202.958 287.022 202.86 287.218 202.86H287.778C287.88 202.86 287.932 202.809 287.932 202.706V201.376C287.932 201.18 288.034 201.082 288.24 201.082H289.416C289.612 201.082 289.71 201.18 289.71 201.376V202.706C289.71 202.809 289.766 202.86 289.878 202.86H290.97C291.166 202.86 291.264 202.958 291.264 203.154V204.12C291.264 204.223 291.24 204.297 291.194 204.344C291.156 204.381 291.082 204.4 290.97 204.4H289.878C289.766 204.4 289.71 204.451 289.71 204.554V207.648C289.71 207.937 289.775 208.147 289.906 208.278C290.036 208.399 290.251 208.46 290.55 208.46H291.11C291.306 208.46 291.404 208.558 291.404 208.754V209.72C291.404 209.823 291.38 209.897 291.334 209.944C291.296 209.981 291.222 210 291.11 210H290.256C289.518 210 288.944 209.804 288.534 209.412C288.132 209.02 287.932 208.46 287.932 207.732V204.554C287.932 204.451 287.88 204.4 287.778 204.4ZM292.629 201.656V200.438C292.629 200.251 292.722 200.158 292.909 200.158H294.127C294.314 200.158 294.407 200.247 294.407 200.424V201.656C294.407 201.843 294.314 201.936 294.127 201.936H292.909C292.722 201.936 292.629 201.843 292.629 201.656ZM292.629 209.706V203.154C292.629 202.958 292.722 202.86 292.909 202.86H294.113C294.309 202.86 294.407 202.958 294.407 203.154V209.706C294.407 209.827 294.384 209.907 294.337 209.944C294.3 209.981 294.23 210 294.127 210H292.923C292.727 210 292.629 209.902 292.629 209.706ZM298.72 210H296.06C295.873 210 295.78 209.902 295.78 209.706V208.81C295.78 208.707 295.799 208.637 295.836 208.6C295.873 208.553 295.948 208.53 296.06 208.53H298.398C298.855 208.53 299.084 208.39 299.084 208.11V208.04C299.084 207.816 298.893 207.601 298.51 207.396L297.124 206.626C296.648 206.383 296.298 206.122 296.074 205.842C295.85 205.562 295.738 205.203 295.738 204.764C295.738 204.111 295.911 203.63 296.256 203.322C296.601 203.014 297.143 202.86 297.88 202.86H300.218C300.405 202.86 300.498 202.958 300.498 203.154V204.064C300.498 204.167 300.479 204.241 300.442 204.288C300.405 204.325 300.33 204.344 300.218 204.344H298.272C297.815 204.344 297.586 204.461 297.586 204.694V204.764C297.586 204.969 297.787 205.179 298.188 205.394L299.602 206.234C300.087 206.495 300.428 206.766 300.624 207.046C300.82 207.317 300.918 207.676 300.918 208.124C300.918 209.375 300.185 210 298.72 210ZM307.421 210H304.327C303.589 210 303.02 209.804 302.619 209.412C302.217 209.02 302.017 208.455 302.017 207.718V205.142C302.017 204.405 302.217 203.84 302.619 203.448C303.02 203.056 303.589 202.86 304.327 202.86H305.433C306.17 202.86 306.739 203.056 307.141 203.448C307.542 203.84 307.743 204.405 307.743 205.142V206.92C307.743 207.116 307.645 207.214 307.449 207.214H303.935C303.823 207.214 303.767 207.265 303.767 207.368V207.676C303.767 207.965 303.827 208.175 303.949 208.306C304.079 208.427 304.294 208.488 304.593 208.488H307.421C307.617 208.488 307.715 208.591 307.715 208.796V209.72C307.715 209.823 307.691 209.897 307.645 209.944C307.607 209.981 307.533 210 307.421 210ZM303.935 206.024H305.839C305.941 206.024 305.993 205.973 305.993 205.87V205.198C305.993 204.899 305.932 204.689 305.811 204.568C305.689 204.447 305.479 204.386 305.181 204.386H304.593C304.294 204.386 304.084 204.447 303.963 204.568C303.841 204.689 303.781 204.899 303.781 205.198V205.87C303.781 205.973 303.832 206.024 303.935 206.024ZM310.559 210H309.369C309.173 210 309.075 209.902 309.075 209.706V203.154C309.075 202.958 309.173 202.86 309.369 202.86H310.559C310.755 202.86 310.853 202.958 310.853 203.154V203.616H310.909C311.021 203.392 311.207 203.21 311.469 203.07C311.739 202.93 312.047 202.86 312.393 202.86H312.785C313.597 202.86 314.18 203.159 314.535 203.756C314.852 203.159 315.398 202.86 316.173 202.86H316.579C317.297 202.86 317.839 203.056 318.203 203.448C318.576 203.84 318.763 204.405 318.763 205.142V209.706C318.763 209.902 318.665 210 318.469 210H317.279C317.083 210 316.985 209.902 316.985 209.706V205.226C316.985 204.927 316.924 204.717 316.803 204.596C316.681 204.465 316.471 204.4 316.173 204.4H315.823C315.179 204.4 314.857 204.759 314.857 205.478V209.706C314.857 209.902 314.754 210 314.549 210H313.373C313.177 210 313.079 209.902 313.079 209.706V205.226C313.079 204.927 313.013 204.717 312.883 204.596C312.761 204.465 312.551 204.4 312.253 204.4H311.819C311.175 204.4 310.853 204.755 310.853 205.464V209.706C310.853 209.902 310.755 210 310.559 210ZM325.509 210H322.415C321.677 210 321.108 209.804 320.707 209.412C320.305 209.02 320.105 208.455 320.105 207.718V205.142C320.105 204.405 320.305 203.84 320.707 203.448C321.108 203.056 321.677 202.86 322.415 202.86H323.521C324.258 202.86 324.827 203.056 325.229 203.448C325.63 203.84 325.831 204.405 325.831 205.142V206.92C325.831 207.116 325.733 207.214 325.537 207.214H322.023C321.911 207.214 321.855 207.265 321.855 207.368V207.676C321.855 207.965 321.915 208.175 322.037 208.306C322.167 208.427 322.382 208.488 322.681 208.488H325.509C325.705 208.488 325.803 208.591 325.803 208.796V209.72C325.803 209.823 325.779 209.897 325.733 209.944C325.695 209.981 325.621 210 325.509 210ZM322.023 206.024H323.927C324.029 206.024 324.081 205.973 324.081 205.87V205.198C324.081 204.899 324.02 204.689 323.899 204.568C323.777 204.447 323.567 204.386 323.269 204.386H322.681C322.382 204.386 322.172 204.447 322.051 204.568C321.929 204.689 321.869 204.899 321.869 205.198V205.87C321.869 205.973 321.92 206.024 322.023 206.024ZM328.647 210H327.457C327.261 210 327.163 209.902 327.163 209.706V203.154C327.163 202.958 327.261 202.86 327.457 202.86H328.647C328.843 202.86 328.941 202.958 328.941 203.154V203.616H328.997C329.202 203.112 329.659 202.86 330.369 202.86H330.817C332.282 202.86 333.015 203.621 333.015 205.142V209.706C333.015 209.902 332.912 210 332.707 210H331.531C331.335 210 331.237 209.902 331.237 209.706V205.226C331.237 204.927 331.171 204.717 331.041 204.596C330.919 204.465 330.709 204.4 330.411 204.4H329.907C329.263 204.4 328.941 204.755 328.941 205.464V209.706C328.941 209.902 328.843 210 328.647 210ZM334.645 204.4H334.085C333.973 204.4 333.893 204.381 333.847 204.344C333.809 204.307 333.791 204.232 333.791 204.12V203.154C333.791 202.958 333.889 202.86 334.085 202.86H334.645C334.747 202.86 334.799 202.809 334.799 202.706V201.376C334.799 201.18 334.901 201.082 335.107 201.082H336.283C336.479 201.082 336.577 201.18 336.577 201.376V202.706C336.577 202.809 336.633 202.86 336.745 202.86H337.837C338.033 202.86 338.131 202.958 338.131 203.154V204.12C338.131 204.223 338.107 204.297 338.061 204.344C338.023 204.381 337.949 204.4 337.837 204.4H336.745C336.633 204.4 336.577 204.451 336.577 204.554V207.648C336.577 207.937 336.642 208.147 336.773 208.278C336.903 208.399 337.118 208.46 337.417 208.46H337.977C338.173 208.46 338.271 208.558 338.271 208.754V209.72C338.271 209.823 338.247 209.897 338.201 209.944C338.163 209.981 338.089 210 337.977 210H337.123C336.385 210 335.811 209.804 335.401 209.412C334.999 209.02 334.799 208.46 334.799 207.732V204.554C334.799 204.451 334.747 204.4 334.645 204.4Z" fill="white"/>
</g>
</svg>
