<svg width="425" height="330" viewBox="0 0 425 330" fill="none" xmlns="http://www.w3.org/2000/svg">
<mask id="mask0_119_5033" style="mask-type:alpha" maskUnits="userSpaceOnUse" x="0" y="0" width="425" height="330">
<rect width="425" height="330" fill="#262626"/>
</mask>
<g mask="url(#mask0_119_5033)">
<rect width="425" height="330" fill="black"/>
</g>
<g clip-path="url(#clip0_119_5033)">
<path d="M104.105 179.422L95.1079 189.318C94.9133 189.533 94.6776 189.704 94.4155 189.822C94.1535 189.939 93.8706 190 93.5847 190H50.9345C50.7311 190 50.5321 189.939 50.362 189.825C50.1918 189.71 50.0578 189.547 49.9765 189.356C49.8951 189.165 49.8699 188.954 49.9039 188.748C49.9379 188.542 50.0296 188.351 50.1678 188.198L59.1548 178.302C59.3494 178.087 59.5851 177.916 59.8472 177.798C60.1092 177.681 60.3921 177.62 60.678 177.62H103.328C103.533 177.615 103.735 177.673 103.909 177.787C104.082 177.9 104.219 178.063 104.302 178.255C104.385 178.448 104.41 178.662 104.375 178.869C104.34 179.077 104.246 179.269 104.105 179.422ZM95.1079 159.49C94.9126 159.276 94.6767 159.105 94.4148 158.987C94.1529 158.87 93.8704 158.809 93.5847 158.807H50.9345C50.7311 158.807 50.5321 158.868 50.362 158.983C50.1918 159.097 50.0578 159.26 49.9765 159.451C49.8951 159.642 49.8699 159.854 49.9039 160.059C49.9379 160.265 50.0296 160.456 50.1678 160.609L59.1548 170.51C59.3502 170.724 59.586 170.895 59.8479 171.013C60.1098 171.13 60.3923 171.191 60.678 171.193H103.328C103.531 171.192 103.729 171.13 103.899 171.015C104.068 170.9 104.202 170.738 104.282 170.547C104.363 170.356 104.388 170.144 104.353 169.939C104.319 169.734 104.228 169.543 104.09 169.391L95.1079 159.49ZM50.9345 152.38H93.5847C93.8706 152.38 94.1535 152.319 94.4155 152.202C94.6776 152.084 94.9133 151.913 95.1079 151.698L104.105 141.802C104.246 141.649 104.34 141.457 104.375 141.249C104.41 141.042 104.385 140.828 104.302 140.636C104.219 140.443 104.082 140.28 103.909 140.167C103.735 140.054 103.533 139.996 103.328 140H60.678C60.3921 140 60.1092 140.061 59.8472 140.178C59.5851 140.296 59.3494 140.467 59.1548 140.682L50.1678 150.578C50.0296 150.731 49.9379 150.922 49.9039 151.128C49.8699 151.334 49.8951 151.545 49.9765 151.736C50.0578 151.928 50.1918 152.09 50.362 152.205C50.5321 152.319 50.7311 152.38 50.9345 152.38Z" fill="url(#paint0_linear_119_5033)"/>
<path d="M156.103 161.146H133.285V153.438H162.033V145.729H133.209C132.224 145.724 131.248 145.917 130.336 146.299C129.424 146.68 128.594 147.242 127.894 147.953C127.194 148.663 126.637 149.508 126.255 150.44C125.874 151.371 125.674 152.37 125.669 153.38V161.193C125.673 162.204 125.871 163.204 126.252 164.137C126.634 165.069 127.19 165.915 127.89 166.627C128.591 167.339 129.421 167.902 130.334 168.284C131.246 168.666 132.223 168.86 133.209 168.854H156.057V176.563H126.212V184.271H156.103C157.088 184.276 158.064 184.083 158.976 183.701C159.888 183.32 160.718 182.758 161.417 182.047C162.118 181.337 162.675 180.492 163.056 179.561C163.438 178.629 163.638 177.63 163.643 176.62V168.807C163.639 167.796 163.441 166.796 163.059 165.864C162.678 164.931 162.122 164.085 161.421 163.373C160.721 162.662 159.891 162.099 158.978 161.717C158.066 161.334 157.088 161.14 156.103 161.146Z" fill="white"/>
<path d="M200.307 145.729H177.403C176.416 145.721 175.438 145.912 174.523 146.293C173.609 146.673 172.777 147.235 172.075 147.945C171.372 148.656 170.814 149.502 170.431 150.435C170.047 151.367 169.847 152.368 169.842 153.38V176.62C169.847 177.632 170.047 178.633 170.431 179.565C170.814 180.498 171.372 181.344 172.075 182.055C172.777 182.765 173.609 183.327 174.523 183.707C175.438 184.088 176.416 184.279 177.403 184.271H200.307C201.292 184.276 202.268 184.083 203.179 183.701C204.091 183.32 204.922 182.758 205.621 182.047C206.321 181.337 206.878 180.492 207.26 179.561C207.642 178.629 207.842 177.63 207.847 176.62V153.38C207.842 152.37 207.642 151.371 207.26 150.44C206.878 149.508 206.321 148.663 205.621 147.953C204.922 147.242 204.091 146.68 203.179 146.299C202.268 145.917 201.292 145.724 200.307 145.729ZM200.251 176.563H177.458V153.438H200.241L200.251 176.563Z" fill="white"/>
<path d="M280.529 145.729H258.189C257.204 145.724 256.228 145.917 255.316 146.299C254.404 146.68 253.574 147.242 252.874 147.953C252.174 148.663 251.617 149.508 251.235 150.44C250.854 151.371 250.654 152.37 250.649 153.38V184.271H258.265V171.609H280.504V184.271H288.12V153.38C288.115 152.366 287.914 151.362 287.529 150.427C287.144 149.493 286.583 148.645 285.877 147.934C285.172 147.223 284.336 146.662 283.418 146.284C282.5 145.905 281.519 145.717 280.529 145.729ZM280.474 163.901H258.235V153.438H280.474V163.901Z" fill="white"/>
<path d="M369.46 145.729H347.12C346.135 145.724 345.159 145.917 344.247 146.299C343.335 146.68 342.505 147.242 341.805 147.953C341.105 148.663 340.548 149.508 340.166 150.44C339.784 151.371 339.585 152.37 339.58 153.38V184.271H347.196V171.61H369.384V184.271H377V153.38C376.995 152.37 376.795 151.371 376.414 150.44C376.032 149.508 375.475 148.663 374.775 147.953C374.074 147.242 373.245 146.68 372.333 146.299C371.421 145.917 370.445 145.724 369.46 145.729ZM369.384 163.901H347.145V153.438H369.384V163.901Z" fill="white"/>
<path d="M325.21 176.563H322.164L311.273 148.958C310.9 148.006 310.257 147.19 309.429 146.615C308.6 146.039 307.623 145.731 306.622 145.729H299.864C299.207 145.726 298.556 145.855 297.948 146.11C297.34 146.364 296.787 146.739 296.32 147.213C295.853 147.687 295.482 148.251 295.228 148.872C294.973 149.493 294.841 150.16 294.837 150.833V184.271H302.454V153.438H305.5L316.386 181.042C316.765 181.992 317.413 182.805 318.245 183.377C319.076 183.948 320.056 184.252 321.057 184.25H327.815C328.472 184.254 329.123 184.124 329.731 183.87C330.339 183.615 330.892 183.24 331.359 182.766C331.826 182.292 332.197 181.728 332.451 181.107C332.706 180.486 332.838 179.82 332.842 179.146V145.729H325.21V176.563Z" fill="white"/>
<path d="M222.19 145.729H214.574V176.62C214.579 177.632 214.78 178.634 215.163 179.567C215.547 180.5 216.106 181.346 216.808 182.056C217.511 182.767 218.344 183.329 219.259 183.709C220.174 184.089 221.152 184.28 222.14 184.271H244.988V176.563H222.19V145.729Z" fill="white"/>
</g>
<defs>
<linearGradient id="paint0_linear_119_5033" x1="54.4887" y1="191.193" x2="100.489" y2="140.637" gradientUnits="userSpaceOnUse">
<stop offset="0.08" stop-color="#9945FF"/>
<stop offset="0.3" stop-color="#8752F3"/>
<stop offset="0.5" stop-color="#5497D5"/>
<stop offset="0.6" stop-color="#43B4CA"/>
<stop offset="0.72" stop-color="#28E0B9"/>
<stop offset="0.97" stop-color="#19FB9B"/>
</linearGradient>
<clipPath id="clip0_119_5033">
<rect width="328" height="50" fill="white" transform="translate(49 140)"/>
</clipPath>
</defs>
</svg>
