<svg width="151" height="21" viewBox="0 0 151 21" fill="none" xmlns="http://www.w3.org/2000/svg">
<path d="M8.66675 21H5.97875C5.50942 21 5.27475 20.776 5.27475 20.328V4.296C5.27475 4.06133 5.15742 3.944 4.92275 3.944H1.27475C0.82675 3.944 0.60275 3.72 0.60275 3.272V1.096C0.60275 0.647999 0.82675 0.424 1.27475 0.424H13.3708C13.8188 0.424 14.0428 0.647999 14.0428 1.096V3.272C14.0428 3.72 13.8188 3.944 13.3708 3.944H9.72275C9.46675 3.944 9.33875 4.06133 9.33875 4.296V20.328C9.33875 20.776 9.11475 21 8.66675 21ZM19.8783 21H17.1583C16.7103 21 16.4863 20.776 16.4863 20.328V1.096C16.4863 0.647999 16.7103 0.424 17.1583 0.424H19.8783C20.3263 0.424 20.5503 0.647999 20.5503 1.096V8.616C20.5503 8.85067 20.6783 8.968 20.9343 8.968H26.3423C26.5769 8.968 26.6943 8.85067 26.6943 8.616V1.096C26.6943 0.647999 26.9183 0.424 27.3663 0.424H30.0863C30.5343 0.424 30.7583 0.647999 30.7583 1.096V20.328C30.7583 20.776 30.5343 21 30.0863 21H27.3663C26.9183 21 26.6943 20.776 26.6943 20.328V12.84C26.6943 12.6053 26.5769 12.488 26.3423 12.488H20.9343C20.6783 12.488 20.5503 12.6053 20.5503 12.84V20.328C20.5503 20.776 20.3263 21 19.8783 21ZM46.0598 21H35.5958C35.1478 21 34.9238 20.776 34.9238 20.328V1.096C34.9238 0.647999 35.1478 0.424 35.5958 0.424H46.0598C46.4864 0.424 46.6998 0.647999 46.6998 1.096V3.272C46.6998 3.72 46.4864 3.944 46.0598 3.944H39.3718C39.1158 3.944 38.9878 4.06133 38.9878 4.296V8.456C38.9878 8.69067 39.1158 8.808 39.3718 8.808H44.8438C45.2918 8.808 45.5158 9.032 45.5158 9.48V11.656C45.5158 12.104 45.2918 12.328 44.8438 12.328H39.3718C39.1158 12.328 38.9878 12.4453 38.9878 12.68V17.128C38.9878 17.3627 39.1158 17.48 39.3718 17.48H46.0598C46.4864 17.48 46.6998 17.704 46.6998 18.152V20.328C46.6998 20.776 46.4864 21 46.0598 21ZM60.6595 21H57.9395C57.4915 21 57.2675 20.776 57.2675 20.328V1.096C57.2675 0.647999 57.4915 0.424 57.9395 0.424H65.7475C67.4115 0.424 68.7022 0.882666 69.6195 1.8C70.5368 2.696 70.9955 3.976 70.9955 5.64V8.712C70.9955 10.376 70.5368 11.6667 69.6195 12.584C68.7022 13.48 67.4115 13.928 65.7475 13.928H61.7155C61.4595 13.928 61.3315 14.0453 61.3315 14.28V20.328C61.3315 20.776 61.1075 21 60.6595 21ZM61.6835 10.376H65.0755C65.7582 10.376 66.2382 10.2373 66.5155 9.96C66.7928 9.66133 66.9315 9.18133 66.9315 8.52V5.832C66.9315 5.14933 66.7928 4.66933 66.5155 4.392C66.2382 4.09333 65.7582 3.944 65.0755 3.944H61.6835C61.4488 3.944 61.3315 4.06133 61.3315 4.296V10.024C61.3315 10.2587 61.4488 10.376 61.6835 10.376ZM85.3723 21H74.9083C74.4603 21 74.2363 20.776 74.2363 20.328V1.096C74.2363 0.647999 74.4603 0.424 74.9083 0.424H85.3723C85.7989 0.424 86.0123 0.647999 86.0123 1.096V3.272C86.0123 3.72 85.7989 3.944 85.3723 3.944H78.6843C78.4283 3.944 78.3003 4.06133 78.3003 4.296V8.456C78.3003 8.69067 78.4283 8.808 78.6843 8.808H84.1563C84.6043 8.808 84.8283 9.032 84.8283 9.48V11.656C84.8283 12.104 84.6043 12.328 84.1563 12.328H78.6843C78.4283 12.328 78.3003 12.4453 78.3003 12.68V17.128C78.3003 17.3627 78.4283 17.48 78.6843 17.48H85.3723C85.7989 17.48 86.0123 17.704 86.0123 18.152V20.328C86.0123 20.776 85.7989 21 85.3723 21ZM95.1488 17.48H97.4208C98.1034 17.48 98.5834 17.3413 98.8608 17.064C99.1594 16.7653 99.3088 16.2747 99.3088 15.592V5.832C99.3088 5.14933 99.1594 4.66933 98.8608 4.392C98.5834 4.09333 98.1034 3.944 97.4208 3.944H95.1488C94.4661 3.944 93.9861 4.09333 93.7088 4.392C93.4314 4.66933 93.2928 5.14933 93.2928 5.832V15.592C93.2928 16.2747 93.4314 16.7653 93.7088 17.064C93.9861 17.3413 94.4661 17.48 95.1488 17.48ZM98.0928 21H94.5088C92.8234 21 91.5221 20.552 90.6048 19.656C89.6874 18.76 89.2288 17.4693 89.2288 15.784V5.64C89.2288 3.95467 89.6874 2.664 90.6048 1.768C91.5221 0.872 92.8234 0.424 94.5088 0.424H98.0928C99.7781 0.424 101.079 0.872 101.997 1.768C102.914 2.664 103.373 3.95467 103.373 5.64V15.784C103.373 17.4693 102.914 18.76 101.997 19.656C101.079 20.552 99.7781 21 98.0928 21ZM110.597 21H107.877C107.429 21 107.205 20.776 107.205 20.328V1.096C107.205 0.647999 107.429 0.424 107.877 0.424H115.685C117.349 0.424 118.64 0.882666 119.557 1.8C120.474 2.696 120.933 3.976 120.933 5.64V8.712C120.933 10.376 120.474 11.6667 119.557 12.584C118.64 13.48 117.349 13.928 115.685 13.928H111.653C111.397 13.928 111.269 14.0453 111.269 14.28V20.328C111.269 20.776 111.045 21 110.597 21ZM111.621 10.376H115.013C115.696 10.376 116.176 10.2373 116.453 9.96C116.73 9.66133 116.869 9.18133 116.869 8.52V5.832C116.869 5.14933 116.73 4.66933 116.453 4.392C116.176 4.09333 115.696 3.944 115.013 3.944H111.621C111.386 3.944 111.269 4.06133 111.269 4.296V10.024C111.269 10.2587 111.386 10.376 111.621 10.376ZM135.374 21H124.846C124.398 21 124.174 20.776 124.174 20.328V1.096C124.174 0.647999 124.398 0.424 124.846 0.424H127.566C128.014 0.424 128.238 0.647999 128.238 1.096V17.096C128.238 17.3307 128.366 17.448 128.622 17.448H135.374C135.8 17.448 136.014 17.6827 136.014 18.152V20.328C136.014 20.776 135.8 21 135.374 21ZM149.685 21H139.221C138.773 21 138.549 20.776 138.549 20.328V1.096C138.549 0.647999 138.773 0.424 139.221 0.424H149.685C150.111 0.424 150.325 0.647999 150.325 1.096V3.272C150.325 3.72 150.111 3.944 149.685 3.944H142.997C142.741 3.944 142.613 4.06133 142.613 4.296V8.456C142.613 8.69067 142.741 8.808 142.997 8.808H148.469C148.917 8.808 149.141 9.032 149.141 9.48V11.656C149.141 12.104 148.917 12.328 148.469 12.328H142.997C142.741 12.328 142.613 12.4453 142.613 12.68V17.128C142.613 17.3627 142.741 17.48 142.997 17.48H149.685C150.111 17.48 150.325 17.704 150.325 18.152V20.328C150.325 20.776 150.111 21 149.685 21Z" fill="black"/>
</svg>
