<svg width="104" height="20" viewBox="0 0 104 20" fill="none" xmlns="http://www.w3.org/2000/svg">
<rect width="20" height="20" fill="#C4C4C4"/>
<g clip-path="url(#clip0_375_187)">
<path d="M17 6.27852C16.5585 6.47452 16.084 6.60652 15.586 6.66602C16.0945 6.36152 16.485 5.87902 16.6685 5.30402C16.193 5.58602 15.666 5.79102 15.105 5.90152C14.6565 5.42302 14.016 5.12402 13.308 5.12402C11.7185 5.12402 10.5505 6.60702 10.9095 8.14652C8.864 8.04402 7.05 7.06402 5.8355 5.57452C5.1905 6.68102 5.501 8.12852 6.597 8.86152C6.194 8.84852 5.814 8.73802 5.4825 8.55352C5.4555 9.69402 6.273 10.761 7.457 10.9985C7.1105 11.0925 6.731 11.1145 6.345 11.0405C6.658 12.0185 7.567 12.73 8.645 12.75C7.61 13.5615 6.306 13.924 5 13.77C6.0895 14.4685 7.384 14.876 8.774 14.876C13.345 14.876 15.9275 11.0155 15.7715 7.55302C16.2525 7.20552 16.67 6.77202 17 6.27852Z" fill="black"/>
</g>
<path d="M28.254 14H27.064C26.868 14 26.77 13.902 26.77 13.706V4.452C26.77 4.256 26.868 4.158 27.064 4.158H28.254C28.45 4.158 28.548 4.256 28.548 4.452V7.616H28.604C28.8093 7.112 29.2667 6.86 29.976 6.86H30.424C31.8893 6.86 32.622 7.62067 32.622 9.142V13.706C32.622 13.902 32.5193 14 32.314 14H31.138C30.942 14 30.844 13.902 30.844 13.706V9.226C30.844 8.92733 30.7787 8.71733 30.648 8.596C30.5267 8.46533 30.3167 8.4 30.018 8.4H29.514C28.87 8.4 28.548 8.75467 28.548 9.464V13.706C28.548 13.902 28.45 14 28.254 14ZM37.5141 14H36.2681C35.5308 14 34.9615 13.804 34.5601 13.412C34.1588 13.02 33.9581 12.4553 33.9581 11.718V9.142C33.9581 8.40467 34.1588 7.84 34.5601 7.448C34.9615 7.056 35.5308 6.86 36.2681 6.86H37.5141C38.2421 6.86 38.8068 7.06067 39.2081 7.462C39.6188 7.854 39.8241 8.414 39.8241 9.142V11.718C39.8241 12.446 39.6188 13.0107 39.2081 13.412C38.8068 13.804 38.2421 14 37.5141 14ZM36.5341 12.474H37.2481C37.5468 12.474 37.7568 12.4133 37.8781 12.292C38.0088 12.1707 38.0741 11.9607 38.0741 11.662V9.198C38.0741 8.89933 38.0088 8.68933 37.8781 8.568C37.7568 8.44667 37.5468 8.386 37.2481 8.386H36.5341C36.2355 8.386 36.0255 8.44667 35.9041 8.568C35.7828 8.68933 35.7221 8.89933 35.7221 9.198V11.662C35.7221 11.9607 35.7828 12.1707 35.9041 12.292C36.0255 12.4133 36.2355 12.474 36.5341 12.474ZM42.7052 14H41.5152C41.3192 14 41.2212 13.902 41.2212 13.706V7.154C41.2212 6.958 41.3192 6.86 41.5152 6.86H42.7052C42.9012 6.86 42.9992 6.958 42.9992 7.154V7.616H43.0552C43.1672 7.392 43.3538 7.21 43.6152 7.07C43.8858 6.93 44.1938 6.86 44.5392 6.86H44.9312C45.7432 6.86 46.3265 7.15867 46.6812 7.756C46.9985 7.15867 47.5445 6.86 48.3192 6.86H48.7252C49.4438 6.86 49.9852 7.056 50.3492 7.448C50.7225 7.84 50.9092 8.40467 50.9092 9.142V13.706C50.9092 13.902 50.8112 14 50.6152 14H49.4252C49.2292 14 49.1312 13.902 49.1312 13.706V9.226C49.1312 8.92733 49.0705 8.71733 48.9492 8.596C48.8278 8.46533 48.6178 8.4 48.3192 8.4H47.9692C47.3252 8.4 47.0032 8.75933 47.0032 9.478V13.706C47.0032 13.902 46.9005 14 46.6952 14H45.5192C45.3232 14 45.2252 13.902 45.2252 13.706V9.226C45.2252 8.92733 45.1598 8.71733 45.0292 8.596C44.9078 8.46533 44.6978 8.4 44.3992 8.4H43.9652C43.3212 8.4 42.9992 8.75467 42.9992 9.464V13.706C42.9992 13.902 42.9012 14 42.7052 14ZM57.6551 14H54.5611C53.8238 14 53.2544 13.804 52.8531 13.412C52.4518 13.02 52.2511 12.4553 52.2511 11.718V9.142C52.2511 8.40467 52.4518 7.84 52.8531 7.448C53.2544 7.056 53.8238 6.86 54.5611 6.86H55.6671C56.4044 6.86 56.9738 7.056 57.3751 7.448C57.7764 7.84 57.9771 8.40467 57.9771 9.142V10.92C57.9771 11.116 57.8791 11.214 57.6831 11.214H54.1691C54.0571 11.214 54.0011 11.2653 54.0011 11.368V11.676C54.0011 11.9653 54.0618 12.1753 54.1831 12.306C54.3138 12.4273 54.5284 12.488 54.8271 12.488H57.6551C57.8511 12.488 57.9491 12.5907 57.9491 12.796V13.72C57.9491 13.8227 57.9258 13.8973 57.8791 13.944C57.8418 13.9813 57.7671 14 57.6551 14ZM54.1691 10.024H56.0731C56.1758 10.024 56.2271 9.97267 56.2271 9.87V9.198C56.2271 8.89933 56.1664 8.68933 56.0451 8.568C55.9238 8.44667 55.7138 8.386 55.4151 8.386H54.8271C54.5284 8.386 54.3184 8.44667 54.1971 8.568C54.0758 8.68933 54.0151 8.89933 54.0151 9.198V9.87C54.0151 9.97267 54.0664 10.024 54.1691 10.024ZM63.2431 11.382V8.554C63.2431 8.45133 63.1871 8.4 63.0751 8.4H61.7591C61.4604 8.4 61.2504 8.46533 61.1291 8.596C61.0077 8.71733 60.9471 8.92733 60.9471 9.226V11.634C60.9471 11.9327 61.0077 12.1473 61.1291 12.278C61.2504 12.3993 61.4604 12.46 61.7591 12.46H62.2631C62.9164 12.46 63.2431 12.1007 63.2431 11.382ZM61.8011 14H61.4791C60.7417 14 60.1724 13.804 59.7711 13.412C59.3697 13.02 59.1691 12.4553 59.1691 11.718V9.142C59.1691 8.40467 59.3697 7.84 59.7711 7.448C60.1724 7.056 60.7417 6.86 61.4791 6.86H64.7131C64.9184 6.86 65.0211 6.958 65.0211 7.154V15.624C65.0211 15.8107 64.9184 15.904 64.7131 15.904H63.5371C63.3411 15.904 63.2431 15.8107 63.2431 15.624V13.23H63.1871C62.9631 13.7433 62.5011 14 61.8011 14ZM69.1312 14H68.6692C67.9505 14 67.4045 13.804 67.0312 13.412C66.6672 13.02 66.4852 12.4553 66.4852 11.718V7.154C66.4852 6.958 66.5832 6.86 66.7792 6.86H67.9692C68.1652 6.86 68.2632 6.958 68.2632 7.154V11.634C68.2632 11.9327 68.3238 12.1473 68.4452 12.278C68.5758 12.3993 68.7858 12.46 69.0752 12.46H69.5932C70.2372 12.46 70.5592 12.1053 70.5592 11.396V7.154C70.5592 6.958 70.6572 6.86 70.8532 6.86H72.0292C72.2345 6.86 72.3372 6.958 72.3372 7.154V13.706C72.3372 13.902 72.2345 14 72.0292 14H70.8532C70.6572 14 70.5592 13.902 70.5592 13.706V13.244H70.5032C70.4005 13.496 70.2185 13.6873 69.9572 13.818C69.6958 13.9393 69.4205 14 69.1312 14ZM75.8153 12.46H77.2433C77.5419 12.46 77.7519 12.3993 77.8733 12.278C78.0039 12.1473 78.0693 11.9327 78.0693 11.634V9.198C78.0693 8.89933 78.0039 8.68933 77.8733 8.568C77.7519 8.43733 77.5419 8.372 77.2433 8.372H76.6273C75.9833 8.372 75.6613 8.72667 75.6613 9.436V12.306C75.6613 12.4087 75.7126 12.46 75.8153 12.46ZM73.8833 13.706V4.452C73.8833 4.256 73.9813 4.158 74.1773 4.158H75.3673C75.5633 4.158 75.6613 4.256 75.6613 4.452V7.602H75.7173C75.8199 7.35 76.0019 7.15867 76.2633 7.028C76.5246 6.89733 76.7999 6.832 77.0893 6.832H77.5373C78.2746 6.832 78.8439 7.028 79.2453 7.42C79.6466 7.812 79.8473 8.37667 79.8473 9.114V11.718C79.8473 12.4553 79.6466 13.02 79.2453 13.412C78.8439 13.804 78.2746 14 77.5373 14H74.1773C73.9813 14 73.8833 13.902 73.8833 13.706ZM86.5164 14H83.4224C82.6851 14 82.1158 13.804 81.7144 13.412C81.3131 13.02 81.1124 12.4553 81.1124 11.718V9.142C81.1124 8.40467 81.3131 7.84 81.7144 7.448C82.1158 7.056 82.6851 6.86 83.4224 6.86H84.5284C85.2658 6.86 85.8351 7.056 86.2364 7.448C86.6378 7.84 86.8384 8.40467 86.8384 9.142V10.92C86.8384 11.116 86.7404 11.214 86.5444 11.214H83.0304C82.9184 11.214 82.8624 11.2653 82.8624 11.368V11.676C82.8624 11.9653 82.9231 12.1753 83.0444 12.306C83.1751 12.4273 83.3898 12.488 83.6884 12.488H86.5164C86.7124 12.488 86.8104 12.5907 86.8104 12.796V13.72C86.8104 13.8227 86.7871 13.8973 86.7404 13.944C86.7031 13.9813 86.6284 14 86.5164 14ZM83.0304 10.024H84.9344C85.0371 10.024 85.0884 9.97267 85.0884 9.87V9.198C85.0884 8.89933 85.0278 8.68933 84.9064 8.568C84.7851 8.44667 84.5751 8.386 84.2764 8.386H83.6884C83.3898 8.386 83.1798 8.44667 83.0584 8.568C82.9371 8.68933 82.8764 8.89933 82.8764 9.198V9.87C82.8764 9.97267 82.9278 10.024 83.0304 10.024ZM92.3144 15.568H87.6944C87.4984 15.568 87.4004 15.4653 87.4004 15.26V14.896C87.4004 14.7 87.4984 14.602 87.6944 14.602H92.3144C92.5104 14.602 92.6084 14.7 92.6084 14.896V15.26C92.6084 15.4653 92.5104 15.568 92.3144 15.568ZM95.8854 14H95.5494C94.812 14 94.2427 13.804 93.8414 13.412C93.44 13.02 93.2394 12.4553 93.2394 11.718V9.142C93.2394 8.40467 93.44 7.84 93.8414 7.448C94.2427 7.056 94.812 6.86 95.5494 6.86H98.7834C98.9887 6.86 99.0914 6.958 99.0914 7.154V13.706C99.0914 13.902 98.9887 14 98.7834 14H97.6074C97.4114 14 97.3134 13.902 97.3134 13.706V13.244H97.2574C97.1547 13.496 96.9727 13.6873 96.7114 13.818C96.45 13.9393 96.1747 14 95.8854 14ZM97.3134 11.396V8.554C97.3134 8.45133 97.2574 8.4 97.1454 8.4H95.8294C95.5307 8.4 95.3207 8.46533 95.1994 8.596C95.078 8.71733 95.0174 8.92733 95.0174 9.226V11.634C95.0174 11.9327 95.078 12.1473 95.1994 12.278C95.3207 12.3993 95.5307 12.46 95.8294 12.46H96.3474C96.9914 12.46 97.3134 12.1053 97.3134 11.396ZM100.695 5.656V4.438C100.695 4.25133 100.789 4.158 100.975 4.158H102.193C102.38 4.158 102.473 4.24667 102.473 4.424V5.656C102.473 5.84267 102.38 5.936 102.193 5.936H100.975C100.789 5.936 100.695 5.84267 100.695 5.656ZM100.695 13.706V7.154C100.695 6.958 100.789 6.86 100.975 6.86H102.179C102.375 6.86 102.473 6.958 102.473 7.154V13.706C102.473 13.8273 102.45 13.9067 102.403 13.944C102.366 13.9813 102.296 14 102.193 14H100.989C100.793 14 100.695 13.902 100.695 13.706Z" fill="white"/>
<defs>
<clipPath id="clip0_375_187">
<rect width="12" height="12" fill="white" transform="translate(5 4)"/>
</clipPath>
</defs>
</svg>
